<svg xmlns="http://www.w3.org/2000/svg" width="18" height="18" viewBox="0 0 18 18">
  <path d="M7,7.70710678 L4.34142136,5.04852814 C3.87279221,4.57989899 3.87279221,3.82010101 4.34142136,3.35147186 C4.56646501,3.12642821 4.87168971,3 5.18994949,3 L12.8100505,3 C13.4727922,3 14.0100505,3.5372583 14.0100505,4.2 C14.0100505,4.51825979 13.8836223,4.82348448 13.6585786,5.04852814 L11,7.70710678 L11,12.7675919 L7.7773501,14.9160251 C7.46920776,15.1207581 7,14.9599304 7,14.5 L7,7.70710678 Z M10,7.29289322 L12.9514719,4.34142136 C13.0799561,4.14950562 12.9205075,4 12.8100505,4 L5.18994949,4 C4.99110413,4 4.97042328,4.2633165 5.04852814,4.34142136 L8,7.29289322 L8,13.5657415 L10,12.2324081 L10,7.29289322 Z"/>
</svg>
