<?xml version="1.0" encoding="UTF-8"?>
<svg width="21px" height="20px" viewBox="0 0 21 20" version="1.1" xmlns="http://www.w3.org/2000/svg" xmlns:xlink="http://www.w3.org/1999/xlink">
    <title>AdminFill_Small_20X20</title>
    <g id="AdminFill_Small_20X20" stroke="none" stroke-width="1" fill="none" fill-rule="evenodd" transform="translate(1.000000, 0.000000)">
        <path d="M10.8281,9.6929 L11.1341,11.4999 L9.5001,10.6519 L7.8661,11.4999 L8.1721,9.6929 L6.8561,8.4099 L8.6791,8.1409 L9.5001,6.4999 L10.3211,8.1409 L12.1441,8.4099 L10.8281,9.6929 Z M14.1211,4.9549 L10.1211,3.1349 C9.7261,2.9549 9.2731,2.9549 8.8791,3.1349 L4.8781,4.9549 C4.3451,5.1979 4.0001,5.7349 4.0001,6.3199 L4.0001,9.1899 C4.0001,11.6169 5.3081,13.8399 7.3951,14.9819 L8.7241,15.7839 C8.9641,15.9279 9.2321,16.0009 9.5001,16.0009 C9.7681,16.0009 10.0361,15.9279 10.2751,15.7839 L11.5861,14.9919 C13.6921,13.8399 15.0001,11.6169 15.0001,9.1899 L15.0001,6.3199 C15.0001,5.7349 14.6551,5.1979 14.1211,4.9549 L14.1211,4.9549 Z" id="Fill-2" fill="#000000"></path>
    </g>
</svg>