<?xml version="1.0" encoding="UTF-8"?>
<svg width="25px" height="24px" viewBox="0 0 25 24" version="1.1" xmlns="http://www.w3.org/2000/svg" xmlns:xlink="http://www.w3.org/1999/xlink">
    <title>AdminFill_Medium_24X24</title>
    <g id="AdminFill_Medium_24X24" stroke="none" stroke-width="1" fill="none" fill-rule="evenodd" transform="translate(1.000000, 0.000000)">
        <path d="M13.0068,12.1455 L13.3538,14.2075 L11.4998,13.2405 L9.6458,14.2075 L9.9928,12.1455 L8.4998,10.6805 L10.5688,10.3745 L11.4998,8.5005 L12.4308,10.3745 L14.4998,10.6805 L13.0068,12.1455 Z M18.0838,5.6465 L12.0838,3.1195 C11.7128,2.9605 11.2868,2.9615 10.9168,3.1185 L4.9168,5.6465 C4.3598,5.8815 3.9998,6.4235 3.9998,7.0275 L3.9998,12.2465 C3.9998,15.3455 5.7968,18.1815 8.6718,19.6375 L10.7668,20.8095 L10.7678,20.8095 C10.9968,20.9375 11.2488,21.0005 11.4998,21.0005 C11.7518,21.0005 12.0028,20.9375 12.2328,20.8095 L14.3108,19.6475 C17.2028,18.1815 18.9998,15.3455 18.9998,12.2465 L18.9998,7.0275 C18.9998,6.4235 18.6398,5.8815 18.0838,5.6465 L18.0838,5.6465 Z" id="Fill-2" fill="#000000"></path>
    </g>
</svg>