<?xml version="1.0" encoding="UTF-8"?>
<svg width="25px" height="24px" viewBox="0 0 25 24" version="1.1" xmlns="http://www.w3.org/2000/svg" xmlns:xlink="http://www.w3.org/1999/xlink">
    <title>Answers_Medium_24X24</title>
    <g id="Answers_Medium_24X24" stroke="none" stroke-width="1" fill="none" fill-rule="evenodd" transform="translate(1.000000, 0.000000)">
        <path d="M11.5,3 C16.187,3 20,6.813 20,11.5 C20,16.187 16.187,20 11.5,20 C6.813,20 3,16.187 3,11.5 C3,6.813 6.813,3 11.5,3 Z M11.5,4 C7.364,4 4,7.364 4,11.5 C4,15.636 7.364,19 11.5,19 C15.636,19 19,15.636 19,11.5 C19,7.364 15.636,4 11.5,4 Z M14.3012,9.0425 L15.0082,9.7505 L10.4482,14.3105 L7.9912,11.8535 L8.6982,11.1465 L10.4482,12.8965 L14.3012,9.0425 Z" id="Combined-Shape" fill="#000000"></path>
    </g>
</svg>