<?xml version="1.0" encoding="UTF-8"?>
<svg width="31px" height="30px" viewBox="0 0 31 30" version="1.1" xmlns="http://www.w3.org/2000/svg" xmlns:xlink="http://www.w3.org/1999/xlink">
    <title>Answers_Large _30X30</title>
    <g id="Answers_Large-_30X30" stroke="none" stroke-width="1" fill="none" fill-rule="evenodd" transform="translate(1.000000, 0.000000)">
        <path d="M14.5,4 C20.29,4 25,8.71 25,14.5 C25,20.29 20.29,25 14.5,25 C8.71,25 4,20.29 4,14.5 C4,8.71 8.71,4 14.5,4 Z M14.5,5 C9.262,5 5,9.262 5,14.5 C5,19.738 9.262,24 14.5,24 C19.738,24 24,19.738 24,14.5 C24,9.262 19.738,5 14.5,5 Z M18.2241,11.4287 L18.9311,12.1357 L13.1411,17.9247 L10.0691,14.8537 L10.7761,14.1467 L13.1411,16.5107 L18.2241,11.4287 Z" id="Combined-Shape" fill="#000000"></path>
    </g>
</svg>