<?xml version="1.0" encoding="UTF-8"?>
<svg width="25px" height="24px" viewBox="0 0 25 24" version="1.1" xmlns="http://www.w3.org/2000/svg" xmlns:xlink="http://www.w3.org/1999/xlink">
    <title>BlockComments_Medium_24X24</title>
    <g id="BlockComments_Medium_24X24" stroke="none" stroke-width="1" fill="none" fill-rule="evenodd" transform="translate(1.000000, 0.000000)">
        <path d="M11.8862,17 C11.7622,17 11.6422,17.046 11.5502,17.13 L8.0002,20.347 L8.0002,17.5 C8.0002,17.224 7.7762,17 7.5002,17 L5.5002,17 C5.2242,17 5.0002,16.775 5.0002,16.5 L5.0002,7.5 C5.0002,7.225 5.2242,7 5.5002,7 L5.7932,7 L15.7932,17 L11.8862,17 Z M17.5002,7 C17.7762,7 18.0002,7.225 18.0002,7.5 L18.0002,16.5 C18.0002,16.775 17.7762,17 17.5002,17 L17.2062,17 L7.2062,7 L17.5002,7 Z M19.5002,19.293 L18.0872,17.88 C18.6232,17.651 19.0002,17.119 19.0002,16.5 L19.0002,7.5 C19.0002,6.673 18.3272,6 17.5002,6 L6.2062,6 L4.2062,4 L3.5002,4.707 L4.9132,6.12 C4.3772,6.349 4.0002,6.881 4.0002,7.5 L4.0002,16.5 C4.0002,17.327 4.6732,18 5.5002,18 L7.0002,18 L7.0002,20.347 C7.0002,20.748 7.2282,21.099 7.5942,21.261 C7.7272,21.32 7.8662,21.349 8.0042,21.349 C8.2452,21.349 8.4822,21.26 8.6712,21.089 C8.6712,21.089 8.6712,21.088 8.6722,21.088 L12.0792,18 L16.7932,18 L18.7932,20 L19.5002,19.293 Z" id="Fill-2" fill="#000000"></path>
    </g>
</svg>