<svg xmlns="http://www.w3.org/2000/svg" width="20" height="20" viewBox="0 0 20 20">
  <path fill-rule="evenodd" d="M13.9253,10.6289 L10.4083,16.7489 C10.3243,16.8969 10.1683,16.9839 10.0003,16.9929 L10.0003,11.3469 C10.2933,11.1719 10.5003,10.8659 10.5003,10.4999 C10.5003,9.9479 10.0523,9.4999 9.5003,9.4999 C8.9473,9.4999 8.5003,9.9479 8.5003,10.4999 C8.5003,10.8659 8.7063,11.1719 9.0003,11.3469 L9.0003,16.9929 C8.8313,16.9839 8.6753,16.8969 8.5913,16.7489 L5.0743,10.6289 C4.9923,10.4859 4.9863,10.3129 5.0573,10.1639 L7.0503,5.9999 L11.9503,5.9999 L13.9423,10.1639 C14.0133,10.3129 14.0073,10.4859 13.9253,10.6289 L13.9253,10.6289 Z M6.0003,3.9999 L13.0003,3.9999 L13.0003,4.9999 L13.0013,4.9999 L13.0003,5.4999 L13.0003,4.9999 L6.0003,4.9999 L6.0003,3.9999 Z M14.8443,9.7329 L13.0533,5.9889 C13.5783,5.9599 14.0003,5.5319 14.0003,4.9999 L14.0003,3.9999 C14.0003,3.4489 13.5513,2.9999 13.0003,2.9999 L6.0003,2.9999 C5.4483,2.9999 5.0003,3.4489 5.0003,3.9999 L5.0003,4.9999 C5.0003,5.5319 5.4213,5.9599 5.9463,5.9889 L4.1553,9.7329 C3.9423,10.1779 3.9613,10.6999 4.2073,11.1269 L7.7243,17.2469 C7.9903,17.7119 8.4883,17.9999 9.0243,17.9999 L9.9753,17.9999 C10.5113,17.9999 11.0093,17.7119 11.2763,17.2469 L14.7923,11.1279 C15.0383,10.6999 15.0583,10.1779 14.8443,9.7329 L14.8443,9.7329 Z"/>
</svg>
