<?xml version="1.0" encoding="UTF-8"?>
<svg width="31px" height="30px" viewBox="0 0 31 30" version="1.1" xmlns="http://www.w3.org/2000/svg" xmlns:xlink="http://www.w3.org/1999/xlink">
    <title>Blog_Large _30X30</title>
    <g id="Blog_Large-_30X30" stroke="none" stroke-width="1" fill="none" fill-rule="evenodd" transform="translate(1.000000, 0.000000)">
        <path d="M21.3843,15.374 L15.9183,25.733 C15.8313,25.898 15.6623,26 15.4763,26 L15.0003,26 L15.0003,17.189 C16.0003,16.961 16.7503,16.068 16.7503,15 C16.7503,13.76 15.7403,12.75 14.5003,12.75 C13.2593,12.75 12.2503,13.76 12.2503,15 C12.2503,16.068 13.0003,16.961 14.0003,17.189 L14.0003,26 L13.5243,26 C13.3383,26 13.1683,25.898 13.0823,25.733 L7.6153,15.374 C7.4723,15.102 7.4613,14.785 7.5843,14.504 L10.4423,8 L18.5573,8 L21.4153,14.504 C21.5393,14.785 21.5283,15.102 21.3843,15.374 M14.5003,16.25 C13.8103,16.25 13.2503,15.689 13.2503,15 C13.2503,14.311 13.8103,13.75 14.5003,13.75 C15.1893,13.75 15.7503,14.311 15.7503,15 C15.7503,15.689 15.1893,16.25 14.5003,16.25 M9.0003,6.5 L9.0003,4.5 C9.0003,4.225 9.2243,4 9.5003,4 L19.5003,4 C19.7763,4 20.0003,4.225 20.0003,4.5 L20.0003,6.5 C20.0003,6.775 19.7763,7 19.5003,7 L9.5003,7 C9.2243,7 9.0003,6.775 9.0003,6.5 M22.3303,14.102 L19.6433,7.985 C20.4023,7.912 21.0003,7.278 21.0003,6.5 L21.0003,4.5 C21.0003,3.673 20.3273,3 19.5003,3 L9.5003,3 C8.6733,3 8.0003,3.673 8.0003,4.5 L8.0003,6.5 C8.0003,7.278 8.5973,7.912 9.3573,7.985 L6.6693,14.102 C6.4223,14.662 6.4443,15.297 6.7313,15.841 L12.1973,26.2 C12.4573,26.693 12.9663,27 13.5243,27 L15.4763,27 C16.0343,27 16.5423,26.693 16.8023,26.2 L22.2693,15.841 C22.5553,15.297 22.5783,14.662 22.3303,14.102" id="Fill-2" fill="#000000"></path>
    </g>
</svg>