<?xml version="1.0" encoding="UTF-8"?>
<svg width="21px" height="20px" viewBox="0 0 21 20" version="1.1" xmlns="http://www.w3.org/2000/svg" xmlns:xlink="http://www.w3.org/1999/xlink">
    <title>Bold_Small_20X20</title>
    <g id="Bold_Small_20X20" stroke="none" stroke-width="1" fill="none" fill-rule="evenodd" transform="translate(1.000000, 0.000000)">
        <path d="M11.5,14 L7,14 L7,11 L10.5,11 L11.5,11 C12.327,11 13,11.673 13,12.5 C13,13.327 12.327,14 11.5,14 L11.5,14 Z M7,6 L10.5,6 C11.327,6 12,6.673 12,7.5 C12,8.327 11.327,9 10.5,9 L7,9 L7,6 Z M13.337,9.534 C13.75,8.959 14,8.26 14,7.5 C14,5.57 12.43,4 10.5,4 L5,4 L5,16 L11.5,16 C13.43,16 15,14.43 15,12.5 C15,11.246 14.331,10.152 13.337,9.534 L13.337,9.534 Z" id="Fill-2" fill="#000000"></path>
    </g>
</svg>