<?xml version="1.0" encoding="UTF-8"?>
<svg width="21px" height="20px" viewBox="0 0 21 20" version="1.1" xmlns="http://www.w3.org/2000/svg" xmlns:xlink="http://www.w3.org/1999/xlink">
    <title>CalendarS</title>
    <g id="CalendarS" stroke="none" stroke-width="1" fill="none" fill-rule="evenodd" transform="translate(1.000000, 0.000000)">
        <path d="M14.5,15 L5.5,15 C5.224,15 5,14.776 5,14.5 L5,8 L15,8 L15,14.5 C15,14.776 14.776,15 14.5,15 M5.5,5 L14.5,5 C14.776,5 15,5.224 15,5.5 L15,7 L5,7 L5,5.5 C5,5.224 5.224,5 5.5,5 M14.5,4 L14.001,4 L14.001,3 L13.001,3 L13.001,4 L7.001,4 L7.001,3 L6.001,3 L6.001,4 L5.5,4 C4.673,4 4,4.673 4,5.5 L4,14.5 C4,15.327 4.673,16 5.5,16 L14.5,16 C15.327,16 16,15.327 16,14.5 L16,5.5 C16,4.673 15.327,4 14.5,4" id="Fill-2" fill="#000000"></path>
    </g>
</svg>