<svg xmlns="http://www.w3.org/2000/svg" width="24" height="24" viewBox="0 0 24 24">
  <path fill-rule="evenodd" d="M14.267,4 C14.801,4 15.299,4.287 15.566,4.75 L15.566,4.75 L16.144,5.75 C16.233,5.904 16.399,6 16.577,6 L16.577,6 L19.5,6 C20.327,6 21,6.673 21,7.5 L21,7.5 L21,17.5 C21,18.327 20.327,19 19.5,19 L19.5,19 L4.5,19 C3.673,19 3,18.327 3,17.5 L3,17.5 L3,7.5 C3,6.673 3.673,6 4.5,6 L4.5,6 L7.435,6 C7.609,6 7.773,5.907 7.863,5.758 L7.863,5.758 L8.483,4.727 C8.752,4.278 9.245,4 9.769,4 L9.769,4 Z M14.267,5 L9.769,5 C9.594,5 9.43,5.093 9.34,5.242 L9.34,5.242 L8.72,6.273 C8.451,6.722 7.958,7 7.435,7 L7.435,7 L4.5,7 C4.224,7 4,7.225 4,7.5 L4,7.5 L4,17.5 C4,17.775 4.224,18 4.5,18 L4.5,18 L19.5,18 C19.776,18 20,17.775 20,17.5 L20,17.5 L20,7.5 C20,7.225 19.776,7 19.5,7 L19.5,7 L16.577,7 C16.043,7 15.545,6.713 15.278,6.25 L15.278,6.25 L14.7,5.25 C14.611,5.096 14.445,5 14.267,5 L14.267,5 Z M11.9996,7.9999 C13.2656,7.9999 14.4706,8.6099 15.2236,9.6329 C15.9876,10.6719 16.1996,11.9939 15.8046,13.2609 C15.4326,14.4579 14.4576,15.4329 13.2606,15.8049 C12.8426,15.9349 12.4176,15.9989 11.9996,15.9989 C11.1516,15.9989 10.3286,15.7349 9.6336,15.2229 C8.6106,14.4699 7.9996,13.2659 7.9996,11.9999 C7.9996,9.7939 9.7946,7.9999 11.9996,7.9999 Z M11.9996,8.9999 C10.3456,8.9999 8.9996,10.3459 8.9996,11.9999 C8.9996,12.9489 9.4586,13.8529 10.2256,14.4169 C11.0056,14.9919 12.0026,15.1479 12.9636,14.8499 C13.8506,14.5729 14.5736,13.8519 14.8496,12.9639 C15.1486,12.0029 14.9916,11.0059 14.4176,10.2259 C13.8526,9.4579 12.9496,8.9999 11.9996,8.9999 Z"/>
</svg>
