<svg xmlns="http://www.w3.org/2000/svg" width="30" height="30" viewBox="0 0 30 30">
  <path fill-rule="evenodd" d="M17.683,6 C18.154,6 18.604,6.226 18.885,6.604 L18.885,6.604 L19.776,7.799 C19.87,7.925 20.02,8 20.177,8 L20.177,8 L24.5,8 C25.327,8 26,8.673 26,9.5 L26,9.5 L26,22.5 C26,23.327 25.327,24 24.5,24 L24.5,24 L5.5,24 C4.673,24 4,23.327 4,22.5 L4,22.5 L4,9.5 C4,8.673 4.673,8 5.5,8 L5.5,8 L9.834,8 C9.988,8 10.136,7.928 10.23,7.807 L10.23,7.807 L11.181,6.58 C11.462,6.217 11.905,6 12.366,6 L12.366,6 Z M17.683,7 L12.366,7 C12.212,7 12.064,7.072 11.971,7.192 L11.971,7.192 L11.02,8.42 C10.738,8.783 10.295,9 9.834,9 L9.834,9 L5.5,9 C5.224,9 5,9.225 5,9.5 L5,9.5 L5,22.5 C5,22.775 5.224,23 5.5,23 L5.5,23 L24.5,23 C24.776,23 25,22.775 25,22.5 L25,22.5 L25,9.5 C25,9.225 24.776,9 24.5,9 L24.5,9 L20.177,9 C19.706,9 19.256,8.774 18.975,8.396 L18.975,8.396 L18.084,7.201 C17.99,7.075 17.84,7 17.683,7 L17.683,7 Z M15,11 C17.481,11 19.5,13.019 19.5,15.5 C19.5,17.981 17.481,20 15,20 C12.519,20 10.5,17.981 10.5,15.5 C10.5,13.019 12.519,11 15,11 Z M15,12 C13.07,12 11.5,13.57 11.5,15.5 C11.5,17.43 13.07,19 15,19 C16.93,19 18.5,17.43 18.5,15.5 C18.5,13.57 16.93,12 15,12 Z"/>
</svg>
