<svg xmlns="http://www.w3.org/2000/svg" width="20" height="20" viewBox="0 0 20 20">
  <path fill-rule="evenodd" d="M11.641,4 C12.146,4 12.614,4.252 12.892,4.674 L12.892,4.674 L13.769,6 L15.5,6 C16.327,6 17,6.673 17,7.5 L17,7.5 L17,14.5 C17,15.327 16.327,16 15.5,16 L15.5,16 L4.5,16 C3.673,16 3,15.327 3,14.5 L3,14.5 L3,7.5 C3,6.674 3.673,6 4.5,6 L4.5,6 L6.236,6 L7.15,4.659 C7.429,4.249 7.892,4.003 8.388,4.003 L8.388,4.003 L11.639,4 Z M11.641,5 L11.64,5 L8.389,5.003 C8.224,5.003 8.07,5.085 7.977,5.222 L7.977,5.222 L6.913,6.782 C6.82,6.918 6.666,7 6.5,7 L6.5,7 L4.5,7 C4.225,7 4,7.225 4,7.5 L4,7.5 L4,14.5 C4,14.776 4.224,15 4.5,15 L4.5,15 L15.5,15 C15.776,15 16,14.776 16,14.5 L16,14.5 L16,7.5 C16,7.224 15.776,7 15.5,7 L15.5,7 L13.5,7 C13.332,7 13.175,6.916 13.083,6.776 L13.083,6.776 L12.058,5.225 C11.964,5.084 11.809,5 11.641,5 L11.641,5 Z M9.9999,7.5 C10.9489,7.5 11.8519,7.957 12.4169,8.724 C12.9889,9.501 13.1499,10.492 12.8549,11.44 C12.5749,12.342 11.8419,13.075 10.9399,13.355 C10.6289,13.452 10.3119,13.499 9.9999,13.499 C9.3629,13.499 8.7459,13.301 8.2239,12.916 C7.4579,12.352 6.9999,11.449 6.9999,10.5 C6.9999,8.846 8.3459,7.5 9.9999,7.5 Z M9.9999,8.5 C8.8969,8.5 7.9999,9.397 7.9999,10.5 C7.9999,11.132 8.3049,11.734 8.8169,12.111 C9.3359,12.494 10.0019,12.598 10.6439,12.4 C11.2349,12.216 11.7159,11.735 11.8999,11.144 C12.0989,10.502 11.9939,9.836 11.6109,9.317 C11.2339,8.805 10.6319,8.5 9.9999,8.5 Z"/>
</svg>
