<?xml version="1.0" encoding="UTF-8"?>
<svg width="31px" height="30px" viewBox="0 0 31 30" version="1.1" xmlns="http://www.w3.org/2000/svg" xmlns:xlink="http://www.w3.org/1999/xlink">
    <title>Clock_Large _30X30</title>
    <g id="Clock_Large-_30X30" stroke="none" stroke-width="1" fill="none" fill-rule="evenodd" transform="translate(1.000000, 0.000000)">
        <path d="M14.5,4.0029 C20.29,4.0029 25,8.7129 25,14.5029 C25,20.2929 20.29,25.0029 14.5,25.0029 C8.71,25.0029 4,20.2929 4,14.5029 C4,8.7129 8.71,4.0029 14.5,4.0029 Z M14.5,5.0029 C9.262,5.0029 5,9.2649 5,14.5029 C5,19.7409 9.262,24.0029 14.5,24.0029 C19.738,24.0029 24,19.7409 24,14.5029 C24,9.2649 19.738,5.0029 14.5,5.0029 Z M15,9.0029 L15,14.0029 L20,14.0029 L20,15.0029 L14,15.0029 L14,9.0029 L15,9.0029 Z" id="Combined-Shape" fill="#000000"></path>
    </g>
</svg>