<svg xmlns="http://www.w3.org/2000/svg" width="20" height="20" viewBox="0 0 20 20">
  <path fill-rule="evenodd" d="M5.5,5 C5.224,5 5,5.224 5,5.5 L5,12.5 C5,12.775 5.225,13 5.5,13 L7.5,13 C7.776,13 8,13.224 8,13.5 L8,15.76 L11.128,13.118 C11.218,13.042 11.333,13 11.451,13 L14.5,13 C14.776,13 15,12.776 15,12.5 L15,5.5 C15,5.224 14.776,5 14.5,5 L5.5,5 Z M7.794,17.001 C7.682,17.001 7.567,16.977 7.459,16.926 C7.176,16.795 7,16.52 7,16.208 L7,14 L5.5,14 C4.673,14 4,13.326 4,12.5 L4,5.5 C4,4.673 4.673,4 5.5,4 L14.5,4 C15.327,4 16,4.673 16,5.5 L16,12.5 C16,13.327 15.327,14 14.5,14 L11.634,14 L8.304,16.813 C8.157,16.937 7.977,17.001 7.794,17.001 L7.794,17.001 Z"/>
</svg>
