<svg xmlns="http://www.w3.org/2000/svg" width="30" height="30" viewBox="0 0 30 30">
  <path fill-rule="evenodd" d="M6.5,6 C6.224,6 6,6.225 6,6.5 L6,19.5 C6,19.775 6.224,20 6.5,20 L10.5,20 C10.776,20 11,20.224 11,20.5 L11,24.867 C11,24.938 11.043,24.973 11.079,24.989 C11.115,25.004 11.168,25.014 11.223,24.967 L16.668,20.126 C16.759,20.045 16.877,20 17,20 L23.5,20 C23.776,20 24,19.775 24,19.5 L24,6.5 C24,6.225 23.776,6 23.5,6 L6.5,6 Z M11.138,26.003 C10.98,26.003 10.821,25.97 10.669,25.901 C10.256,25.716 10,25.319 10,24.867 L10,21 L6.5,21 C5.673,21 5,20.327 5,19.5 L5,6.5 C5,5.673 5.673,5 6.5,5 L23.5,5 C24.327,5 25,5.673 25,6.5 L25,19.5 C25,20.327 24.327,21 23.5,21 L17.19,21 L11.887,25.715 C11.673,25.904 11.408,26.003 11.138,26.003 L11.138,26.003 Z"/>
</svg>
