<?xml version="1.0" encoding="UTF-8"?>
<svg width="21px" height="20px" viewBox="0 0 21 20" version="1.1" xmlns="http://www.w3.org/2000/svg" xmlns:xlink="http://www.w3.org/1999/xlink">
    <title>CommentFill_Small_20X20</title>
    <g id="CommentFill_Small_20X20" stroke="none" stroke-width="1" fill="none" fill-rule="evenodd" transform="translate(1.000000, 0.000000)">
        <path d="M14.5,4 L5.5,4 C4.673,4 4,4.673 4,5.5 L4,12.5 C4,13.327 4.673,14 5.5,14 L7,14 L7,16.375 C7,16.618 7.143,16.84 7.363,16.942 C7.446,16.98 7.536,17 7.625,17 C7.77,17 7.914,16.949 8.028,16.852 L11.405,14 L14.5,14 C15.327,14 16,13.327 16,12.5 L16,5.5 C16,4.673 15.327,4 14.5,4" id="Fill-2" fill="#000000"></path>
    </g>
</svg>