<?xml version="1.0" encoding="UTF-8"?>
<svg width="25px" height="24px" viewBox="0 0 25 24" version="1.1" xmlns="http://www.w3.org/2000/svg" xmlns:xlink="http://www.w3.org/1999/xlink">
    <title>Delete_Medium_24X24</title>
    <g id="Delete_Medium_24X24" stroke="none" stroke-width="1" fill="none" fill-rule="evenodd" transform="translate(1.000000, 0.000000)">
        <path d="M13.5,3 C14.327,3 15,3.673 15,4.5 L15,4.5 L15,5 L19,5 L19,6 L18,6 L18,17.5 C18,18.879 16.878,20 15.5,20 L15.5,20 L7.5,20 C6.122,20 5,18.879 5,17.5 L5,17.5 L5,6 L4,6 L4,5 L8,5 L8,4.5 C8,3.673 8.673,3 9.5,3 L9.5,3 Z M17,6 L6,6 L6,17.5 C6,18.327 6.673,19 7.5,19 L7.5,19 L15.5,19 C16.327,19 17,18.327 17,17.5 L17,17.5 L17,6 Z M10,9 L10,16 L9,16 L9,9 L10,9 Z M14,9 L14,16 L13,16 L13,9 L14,9 Z M13.5,4 L9.5,4 C9.224,4 9,4.225 9,4.5 L9,4.5 L9,5 L14,5 L14,4.5 C14,4.225 13.776,4 13.5,4 L13.5,4 Z" id="Combined-Shape" fill="#000000"></path>
    </g>
</svg>