<?xml version="1.0" encoding="UTF-8"?>
<svg width="31px" height="30px" viewBox="0 0 31 30" version="1.1" xmlns="http://www.w3.org/2000/svg" xmlns:xlink="http://www.w3.org/1999/xlink">
    <title>Delete_Large _30X30</title>
    <g id="Delete_Large-_30X30" stroke="none" stroke-width="1" fill="none" fill-rule="evenodd" transform="translate(1.000000, 0.000000)">
        <path d="M17.5,4 C18.327,4 19,4.673 19,5.5 L19,5.5 L19,7 L25,7 L25,8 L23,8 L23,23.5 C23,24.879 21.878,26 20.5,26 L20.5,26 L9.5,26 C8.122,26 7,24.879 7,23.5 L7,23.5 L7,8 L5,8 L5,7 L11,7 L11,5.5 C11,4.673 11.673,4 12.5,4 L12.5,4 Z M22,8 L8,8 L8,23.5 C8,24.327 8.673,25 9.5,25 L9.5,25 L20.5,25 C21.327,25 22,24.327 22,23.5 L22,23.5 L22,8 Z M13,12 L13,21 L12,21 L12,12 L13,12 Z M18,12 L18,21 L17,21 L17,12 L18,12 Z M17.5,5 L12.5,5 C12.224,5 12,5.225 12,5.5 L12,5.5 L12,7 L18,7 L18,5.5 C18,5.225 17.776,5 17.5,5 L17.5,5 Z" id="Combined-Shape" fill="#000000"></path>
    </g>
</svg>