<?xml version="1.0" encoding="UTF-8"?>
<svg width="21px" height="20px" viewBox="0 0 21 20" version="1.1" xmlns="http://www.w3.org/2000/svg" xmlns:xlink="http://www.w3.org/1999/xlink">
    <title>Delete_Small_20X20</title>
    <g id="Delete_Small_20X20" stroke="none" stroke-width="1" fill="none" fill-rule="evenodd" transform="translate(1.000000, 0.000000)">
        <path d="M11.5,3 C12.327,3 13,3.673 13,4.5 L13,4.5 L13,5 L16,5 L16,6 L15,6 L15,14.5 C15,15.878 13.878,17 12.5,17 L12.5,17 L7.5,17 C6.122,17 5,15.878 5,14.5 L5,14.5 L5,6 L4,6 L4,5 L7,5 L7,4.5 C7,3.673 7.673,3 8.5,3 L8.5,3 Z M14,6 L6,6 L6,14.5 C6,15.327 6.673,16 7.5,16 L7.5,16 L12.5,16 C13.327,16 14,15.327 14,14.5 L14,14.5 L14,6 Z M9,8 L9,14 L8,14 L8,8 L9,8 Z M12,8.001 L12,14 L11,14 L11,8.001 L12,8.001 Z M11.5,4 L8.5,4 C8.224,4 8,4.224 8,4.5 L8,4.5 L8,5 L12,5 L12,4.5 C12,4.224 11.776,4 11.5,4 L11.5,4 Z" id="Combined-Shape" fill="#000000"></path>
    </g>
</svg>