<svg xmlns="http://www.w3.org/2000/svg" width="24" height="24" viewBox="0 0 24 24">
  <path fill-rule="evenodd" d="M13.086,3 C13.486,3 13.863,3.156 14.146,3.439 L14.146,3.439 L18.561,7.854 C18.84,8.133 19,8.52 19,8.914 L19,8.914 L19,19.5 C19,20.327 18.327,21 17.5,21 L17.5,21 L6.5,21 C5.673,21 5,20.327 5,19.5 L5,19.5 L5,4.5 C5,3.673 5.673,3 6.5,3 L6.5,3 Z M13,4 L6.5,4 C6.224,4 6,4.225 6,4.5 L6,4.5 L6,19.5 C6,19.775 6.224,20 6.5,20 L6.5,20 L17.5,20 C17.776,20 18,19.775 18,19.5 L18,19.5 L18,9 L14.5,9 C13.673,9 13,8.327 13,7.5 L13,7.5 L13,4 Z M15,15 L15,16 L9,16 L9,15 L15,15 Z M15,12 L15,13 L9,13 L9,12 L15,12 Z M14,4.707 L14,7.5 C14,7.775 14.224,8 14.5,8 L14.5,8 L17.293,8 L14,4.707 Z"/>
</svg>
