<?xml version="1.0" encoding="UTF-8"?>
<svg width="21px" height="20px" viewBox="0 0 21 20" version="1.1" xmlns="http://www.w3.org/2000/svg" xmlns:xlink="http://www.w3.org/1999/xlink">
    <title>Document_Small_20X20</title>
    <g id="Document_Small_20X20" stroke="none" stroke-width="1" fill="none" fill-rule="evenodd" transform="translate(1.000000, 0.000000)">
        <path d="M13.5,15 L5.5,15 C5.224,15 5,14.776 5,14.5 L5,4.5 C5,4.224 5.224,4 5.5,4 L9,4 L9,7.5 C9,8.327 9.673,9 10.5,9 L14,9 L14,14.5 C14,14.776 13.776,15 13.5,15 L13.5,15 Z M10,4.706 L13.298,8 L10.5,8 C10.224,8 10,7.776 10,7.5 L10,4.706 Z M14.56,7.847 L10.146,3.439 C9.863,3.156 9.487,3 9.086,3 L5.5,3 C4.673,3 4,3.673 4,4.5 L4,14.5 C4,15.327 4.673,16 5.5,16 L13.5,16 C14.327,16 15,15.327 15,14.5 L15,8.908 C15,8.507 14.844,8.13 14.56,7.847 L14.56,7.847 Z" id="Fill-2" fill="#000000"></path>
    </g>
</svg>