<svg xmlns="http://www.w3.org/2000/svg" width="30" height="30" viewBox="0 0 30 30">
  <path fill-rule="evenodd" d="M16.083,4 C16.484,4 16.861,4.156 17.144,4.439 L17.144,4.439 L23.561,10.855 C23.84,11.135 24,11.521 24,11.916 L24,11.916 L24,24.5 C24,25.327 23.327,26 22.5,26 L22.5,26 L7.5,26 C6.673,26 6,25.327 6,24.5 L6,24.5 L6,5.5 C6,4.673 6.673,4 7.5,4 L7.5,4 Z M16,5 L7.5,5 C7.224,5 7,5.225 7,5.5 L7,5.5 L7,24.5 C7,24.775 7.224,25 7.5,25 L7.5,25 L22.5,25 C22.776,25 23,24.775 23,24.5 L23,24.5 L23,12 L17.5,12 C16.673,12 16,11.327 16,10.5 L16,10.5 L16,5 Z M19,20 L19,21 L11,21 L11,20 L19,20 Z M19,16 L19,17 L11,17 L11,16 L19,16 Z M17,5.709 L17,10.5 C17,10.775 17.224,11 17.5,11 L17.5,11 L22.291,11 L17,5.709 Z"/>
</svg>
