<?xml version="1.0" encoding="UTF-8"?>
<svg width="21px" height="20px" viewBox="0 0 21 20" version="1.1" xmlns="http://www.w3.org/2000/svg" xmlns:xlink="http://www.w3.org/1999/xlink">
    <title>DuplicateFill_Small_20X20</title>
    <g id="DuplicateFill_Small_20X20" stroke="none" stroke-width="1" fill="none" fill-rule="evenodd" transform="translate(1.000000, 0.000000)">
        <path d="M12.5,6 C13.327,6 14,6.673 14,7.5 L14,7.5 L14,14.5 C14,15.327 13.327,16 12.5,16 L12.5,16 L5.5,16 C4.673,16 4,15.327 4,14.5 L4,14.5 L4,7.5 C4,6.673 4.673,6 5.5,6 L5.5,6 Z M14.5,4 C15.327,4 16,4.673 16,5.5 L16,5.5 L16,14 L15,14 L15,5.5 C15,5.224 14.776,5 14.5,5 L14.5,5 L6,5 L6,4 Z" id="Combined-Shape" fill="#000000"></path>
    </g>
</svg>