<?xml version="1.0" encoding="UTF-8"?>
<svg width="21px" height="20px" viewBox="0 0 21 20" version="1.1" xmlns="http://www.w3.org/2000/svg" xmlns:xlink="http://www.w3.org/1999/xlink">
    <title>Duplicate_Small_20X20</title>
    <g id="Duplicate_Small_20X20" stroke="none" stroke-width="1" fill="none" fill-rule="evenodd" transform="translate(1.000000, 0.000000)">
        <path d="M12.5,6 C13.327,6 14,6.673 14,7.5 L14,14.5 C14,15.327 13.327,16 12.5,16 L5.5,16 C4.673,16 4,15.327 4,14.5 L4,7.5 C4,6.673 4.673,6 5.5,6 L12.5,6 Z M12.5,7 L5.5,7 C5.224,7 5,7.224 5,7.5 L5,14.5 C5,14.776 5.224,15 5.5,15 L12.5,15 C12.776,15 13,14.776 13,14.5 L13,7.5 C13,7.224 12.776,7 12.5,7 Z M14.5,4 C15.327,4 16,4.673 16,5.5 L16,14 L15,14 L15,5.5 C15,5.224 14.776,5 14.5,5 L6,5 L6,4 L14.5,4 Z" id="Combined-Shape" fill="#000000"></path>
    </g>
</svg>