<?xml version="1.0" encoding="UTF-8"?>
<svg width="25px" height="24px" viewBox="0 0 25 24" version="1.1" xmlns="http://www.w3.org/2000/svg" xmlns:xlink="http://www.w3.org/1999/xlink">
    <title>Duplicate_Medium_24X24</title>
    <g id="Duplicate_Medium_24X24" stroke="none" stroke-width="1" fill="none" fill-rule="evenodd" transform="translate(1.000000, 0.000000)">
        <path d="M15.5,7 C16.327,7 17,7.673 17,8.5 L17,8.5 L17,18.5 C17,19.327 16.327,20 15.5,20 L15.5,20 L5.5,20 C4.673,20 4,19.327 4,18.5 L4,18.5 L4,8.5 C4,7.673 4.673,7 5.5,7 L5.5,7 Z M15.5,8 L5.5,8 C5.224,8 5,8.225 5,8.5 L5,8.5 L5,18.5 C5,18.775 5.224,19 5.5,19 L5.5,19 L15.5,19 C15.776,19 16,18.775 16,18.5 L16,18.5 L16,8.5 C16,8.225 15.776,8 15.5,8 L15.5,8 Z M18.5,4 C19.327,4 20,4.673 20,5.5 L20,5.5 L20,17 L19,17 L19,5.5 C19,5.225 18.776,5 18.5,5 L18.5,5 L7,5 L7,4 Z" id="Combined-Shape" fill="#000000"></path>
    </g>
</svg>