<svg xmlns="http://www.w3.org/2000/svg" width="30" height="30" viewBox="0 0 30 30">
  <path fill-rule="evenodd" d="M23.8511,9.3486 L22.1891,11.0106 L18.9891,7.8106 L20.6511,6.1486 L20.6521,6.1486 C20.7461,6.0536 20.8711,6.0016 21.0051,6.0016 C21.1381,6.0016 21.2641,6.0536 21.3581,6.1486 L23.8511,8.6416 C24.0461,8.8366 24.0461,9.1536 23.8511,9.3486 L23.8511,9.3486 Z M10.2911,22.9096 C10.1481,23.0516 9.9681,23.1476 9.7701,23.1846 L6.1271,23.8726 L6.8151,20.2306 C6.8531,20.0326 6.9481,19.8516 7.0911,19.7086 L18.2821,8.5176 L21.4821,11.7176 L10.2911,22.9096 Z M24.5581,7.9346 L22.0651,5.4416 C21.4981,4.8746 20.5101,4.8746 19.9441,5.4416 L6.3851,19.0016 C6.0991,19.2866 5.9081,19.6476 5.8331,20.0446 L5.0091,24.4076 C4.9781,24.5696 5.0301,24.7366 5.1461,24.8536 C5.2411,24.9486 5.3691,24.9996 5.5001,24.9996 C5.5311,24.9996 5.5621,24.9966 5.5931,24.9916 L9.9551,24.1666 C10.3511,24.0926 10.7121,23.9026 10.9981,23.6166 L24.5581,10.0556 C25.1431,9.4706 25.1431,8.5196 24.5581,7.9346 L24.5581,7.9346 Z"/>
</svg>
