<?xml version="1.0" encoding="UTF-8"?>
<svg width="31px" height="30px" viewBox="0 0 31 30" version="1.1" xmlns="http://www.w3.org/2000/svg" xmlns:xlink="http://www.w3.org/1999/xlink">
    <title>Email_Large _30X30</title>
    <g id="Email_Large-_30X30" stroke="none" stroke-width="1" fill="none" fill-rule="evenodd" transform="translate(1.000000, 0.000000)">
        <path d="M23.5,23 L4.5,23 C4.224,23 4,22.775 4,22.5 L4,7.684 L12.836,16.49 C13.177,16.829 13.624,16.998 14.071,16.998 C14.519,16.998 14.966,16.829 15.307,16.49 L24,7.826 L24,22.5 C24,22.775 23.776,23 23.5,23 L23.5,23 Z M23.412,7 L14.602,15.781 C14.31,16.072 13.833,16.072 13.542,15.781 L4.731,7 L23.412,7 Z M23.5,6 L4.5,6 C3.673,6 3,6.673 3,7.5 L3,22.5 C3,23.327 3.673,24 4.5,24 L23.5,24 C24.327,24 25,23.327 25,22.5 L25,7.5 C25,6.673 24.327,6 23.5,6 L23.5,6 Z" id="Fill-2" fill="#000000"></path>
    </g>
</svg>