<?xml version="1.0" encoding="UTF-8"?>
<svg width="21px" height="20px" viewBox="0 0 21 20" version="1.1" xmlns="http://www.w3.org/2000/svg" xmlns:xlink="http://www.w3.org/1999/xlink">
    <title>Email_Small_20X20</title>
    <g id="Email_Small_20X20" stroke="none" stroke-width="1" fill="none" fill-rule="evenodd" transform="translate(1.000000, 0.000000)">
        <path d="M14.5,14 L4.5,14 C4.224,14 4,13.776 4,13.5 L4,6.184 L8.304,10.487 C8.634,10.818 9.074,11 9.542,11 C10.009,11 10.448,10.818 10.779,10.487 L15,6.267 L15,13.5 C15,13.776 14.776,14 14.5,14 L14.5,14 Z M14.5,5 C14.6,5 14.687,5.037 14.766,5.087 L10.072,9.78 C9.789,10.063 9.294,10.063 9.011,9.78 L4.284,5.054 C4.35,5.021 4.422,5 4.5,5 L14.5,5 Z M14.5,4 L4.5,4 C3.673,4 3,4.673 3,5.5 L3,13.5 C3,14.327 3.673,15 4.5,15 L14.5,15 C15.327,15 16,14.327 16,13.5 L16,5.5 C16,4.673 15.327,4 14.5,4 L14.5,4 Z" id="Fill-2" fill="#000000"></path>
    </g>
</svg>