<?xml version="1.0" encoding="UTF-8"?>
<svg width="31px" height="30px" viewBox="0 0 31 30" version="1.1" xmlns="http://www.w3.org/2000/svg" xmlns:xlink="http://www.w3.org/1999/xlink">
    <title>Error_Large _30X30</title>
    <g id="Error_Large-_30X30" stroke="none" stroke-width="1" fill="none" fill-rule="evenodd" transform="translate(1.000000, 0.000000)">
        <path d="M14.5,4 C20.29,4 25,8.71 25,14.5 C25,20.29 20.29,25 14.5,25 C8.71,25 4,20.29 4,14.5 C4,8.71 8.71,4 14.5,4 Z M14.5,5 C9.262,5 5,9.262 5,14.5 C5,19.738 9.262,24 14.5,24 C19.738,24 24,19.738 24,14.5 C24,9.262 19.738,5 14.5,5 Z M15,18 L15,19 L14,19 L14,18 L15,18 Z M15,10 L15,16 L14,16 L14,10 L15,10 Z" id="Combined-Shape" fill="#000000"></path>
    </g>
</svg>