<?xml version="1.0" encoding="UTF-8"?>
<svg width="31px" height="30px" viewBox="0 0 31 30" version="1.1" xmlns="http://www.w3.org/2000/svg" xmlns:xlink="http://www.w3.org/1999/xlink">
    <title>Events_Large _30X30</title>
    <g id="Events_Large-_30X30" stroke="none" stroke-width="1" fill="none" fill-rule="evenodd" transform="translate(1.000000, 0.000000)">
        <path d="M10,4 L10,5 L20,5 L20,4 L21,4 L21,5 L23.5,5 C24.327,5 25,5.673 25,6.5 L25,6.5 L25,23.5 C25,24.327 24.327,25 23.5,25 L23.5,25 L6.5,25 C5.673,25 5,24.327 5,23.5 L5,23.5 L5,6.5 C5,5.673 5.673,5 6.5,5 L6.5,5 L9,5 L9,4 L10,4 Z M24,10 L6,10 L6,23.5 C6,23.775 6.224,24 6.5,24 L6.5,24 L23.5,24 C23.776,24 24,23.775 24,23.5 L24,23.5 L24,10 Z M18.1465,14.1431 L18.8535,14.8501 L13.8335,19.8701 L11.1465,17.1831 L11.8535,16.4761 L13.8335,18.4561 L18.1465,14.1431 Z M9,6 L6.5,6 C6.224,6 6,6.225 6,6.5 L6,6.5 L6,9 L24,9 L24,6.5 C24,6.225 23.776,6 23.5,6 L23.5,6 L21,6 L21,7 L20,7 L20,6 L10,6 L10,7 L9,7 L9,6 Z" id="Combined-Shape" fill="#000000"></path>
    </g>
</svg>