<?xml version="1.0" encoding="UTF-8"?>
<svg width="31px" height="30px" viewBox="0 0 31 30" version="1.1" xmlns="http://www.w3.org/2000/svg" xmlns:xlink="http://www.w3.org/1999/xlink">
    <title>ExternalLink_Large _30X30</title>
    <g id="ExternalLink_Large-_30X30" stroke="none" stroke-width="1" fill="none" fill-rule="evenodd" transform="translate(1.000000, 0.000000)">
        <path d="M15,5.0029 L15,6.0029 L6.5,6.0029 C6.224,6.0029 6,6.2279 6,6.5029 L6,6.5029 L6,23.5029 C6,23.7779 6.224,24.0029 6.5,24.0029 L6.5,24.0029 L23.5,24.0029 C23.776,24.0029 24,23.7779 24,23.5029 L24,23.5029 L24,15.0029 L25,15.0029 L25,23.5029 C25,24.3299 24.327,25.0029 23.5,25.0029 L23.5,25.0029 L6.5,25.0029 C5.673,25.0029 5,24.3299 5,23.5029 L5,23.5029 L5,6.5029 C5,5.6759 5.673,5.0029 6.5,5.0029 L6.5,5.0029 L15,5.0029 Z M25,5.0029 L25,11.0029 L24,11.0029 L24,6.7069 L15.709,14.9979 L15.002,14.2909 L23.29,6.0029 L19,6.0029 L19,5.0029 L25,5.0029 Z" id="Combined-Shape" fill="#000000"></path>
    </g>
</svg>