<?xml version="1.0" encoding="UTF-8"?>
<svg width="25px" height="24px" viewBox="0 0 25 24" version="1.1" xmlns="http://www.w3.org/2000/svg" xmlns:xlink="http://www.w3.org/1999/xlink">
    <title>Facebook</title>
    <g id="Facebook" stroke="none" stroke-width="1" fill="none" fill-rule="evenodd" transform="translate(1.000000, 0.000000)">
        <path d="M20,12.0002 C20,7.5822 16.418,4.0002 12,4.0002 C7.582,4.0002 4,7.5822 4,12.0002 C4,15.9932 6.926,19.3032 10.75,19.9032 L10.75,14.3132 L8.719,14.3132 L8.719,12.0002 L10.75,12.0002 L10.75,10.2382 C10.75,8.2332 11.944,7.1252 13.772,7.1252 C14.647,7.1252 15.563,7.2812 15.563,7.2812 L15.563,9.2502 L14.554,9.2502 C13.56,9.2502 13.25,9.8672 13.25,10.5002 L13.25,12.0002 L15.469,12.0002 L15.114,14.3132 L13.25,14.3132 L13.25,19.9032 C17.075,19.3032 20,15.9932 20,12.0002" id="Fill-1" fill="#000000"></path>
    </g>
</svg>