<?xml version="1.0" encoding="UTF-8"?>
<svg width="25px" height="24px" viewBox="0 0 25 24" version="1.1" xmlns="http://www.w3.org/2000/svg" xmlns:xlink="http://www.w3.org/1999/xlink">
    <title>Folder_Medium_24X24</title>
    <g id="Folder_Medium_24X24" stroke="none" stroke-width="1" fill="none" fill-rule="evenodd" transform="translate(1.000000, 0.000000)">
        <path d="M19,17.5 C19,17.775 18.776,18 18.5,18 L5.5,18 C5.224,18 5,17.775 5,17.5 L5,8 L18.5,8 C18.776,8 19,8.225 19,8.5 L19,17.5 Z M5,5.5 C5,5.225 5.224,5 5.5,5 L10.965,5 C11.132,5 11.288,5.083 11.381,5.223 L12.566,7 L5,7 L5,5.5 Z M18.5,7 L13.818,7 L13.768,7 L12.213,4.668 C11.934,4.25 11.467,4 10.965,4 L5.5,4 C4.673,4 4,4.673 4,5.5 L4,7 L4,8 L4,17.5 C4,18.327 4.673,19 5.5,19 L18.5,19 C19.327,19 20,18.327 20,17.5 L20,8.5 C20,7.673 19.327,7 18.5,7 L18.5,7 Z" id="Fill-2" fill="#000000"></path>
    </g>
</svg>