<svg xmlns="http://www.w3.org/2000/svg" width="30" height="30" viewBox="0 0 30 30">
  <path fill-rule="evenodd" d="M20.5,4.9999 C21.327,4.9999 22,5.6729 22,6.4999 L22,6.4999 L22,8.9999 L24.503,8.9999 C25.329,8.9999 26.001,9.6719 26.001,10.4979 L26.001,10.4979 L26.001,25.0209 C26.001,25.4129 25.778,25.7559 25.419,25.9159 C25.288,25.9749 25.151,26.0029 25.016,26.0029 C24.78,26.0029 24.549,25.9169 24.363,25.7499 L24.363,25.7499 L21.309,22.9999 L9.501,22.9999 C8.673,22.9999 8.001,22.3269 8.001,21.4999 L8.001,21.4999 L8.001,19.6229 L5.637,21.7499 C5.452,21.9159 5.221,22.0029 4.985,22.0029 C4.85,22.0029 4.712,21.9749 4.582,21.9159 C4.223,21.7559 4,21.4129 4,21.0209 L4,21.0209 L4,6.4969 C4,5.6719 4.671,4.9999 5.497,4.9999 L5.497,4.9999 Z M24.503,9.9999 L22,9.9999 L22,17.4999 C22,18.3269 21.327,18.9999 20.5,18.9999 L20.5,18.9999 L9.001,18.9999 L9.001,21.4999 C9.001,21.7749 9.225,21.9999 9.501,21.9999 L9.501,21.9999 L21.501,21.9999 C21.624,21.9999 21.743,22.0459 21.835,22.1279 L21.835,22.1279 L25.032,25.0059 L25.001,10.4979 C25.001,10.2239 24.777,9.9999 24.503,9.9999 L24.503,9.9999 Z M20.5,5.9999 L5.497,5.9999 C5.223,5.9999 5,6.2229 5,6.4969 L5,6.4969 L5,21.0209 L8.166,18.1279 C8.257,18.0459 8.377,17.9999 8.5,17.9999 L8.5,17.9999 L20.5,17.9999 C20.776,17.9999 21,17.7749 21,17.4999 L21,17.4999 L21,6.4999 C21,6.2249 20.776,5.9999 20.5,5.9999 L20.5,5.9999 Z M15,13 L15,14 L8,14 L8,13 L15,13 Z M18,10 L18,11 L8,11 L8,10 L18,10 Z"/>
</svg>
