<?xml version="1.0" encoding="UTF-8"?>
<svg width="25px" height="24px" viewBox="0 0 25 24" version="1.1" xmlns="http://www.w3.org/2000/svg" xmlns:xlink="http://www.w3.org/1999/xlink">
    <title>Forums_Medium_24X24</title>
    <g id="Forums_Medium_24X24" stroke="none" stroke-width="1" fill="none" fill-rule="evenodd" transform="translate(1.000000, 0.000000)">
        <path d="M15.4995,3.9999 C16.3275,3.9999 16.9995,4.6729 16.9995,5.4999 L16.9995,5.4999 L16.9995,7.0019 L18.4995,6.9999 C19.3275,6.9999 19.9995,7.6729 19.9995,8.4999 L19.9995,8.4999 L19.9995,19.2939 C19.9995,19.6999 19.7575,20.0629 19.3815,20.2179 C19.2575,20.2699 19.1275,20.2949 18.9985,20.2949 C18.7385,20.2949 18.4835,20.1919 18.2915,20.0009 L18.2915,20.0009 L16.2925,17.9999 L7.4995,17.9999 C6.6725,17.9999 5.9995,17.3259 5.9995,16.4979 L5.9995,16.4979 L5.9995,15.7079 L4.7075,17.0019 L4.60651852,17.0899972 C4.43036111,17.2243722 4.21716667,17.2959 4.0005,17.2959 C3.8725,17.2959 3.7425,17.2709 3.6175,17.2189 C3.2425,17.0639 2.9995,16.7009 2.9995,16.2949 L2.9995,16.2949 L2.9995,5.4999 C2.9995,4.6729 3.6725,3.9999 4.4995,3.9999 L4.4995,3.9999 Z M18.4995,7.9999 L16.9995,8.0019 L16.9995,13.4999 C16.9995,14.3269 16.3275,14.9999 15.4995,14.9999 L15.4995,14.9999 L6.9995,14.9999 L6.9995,16.4979 C6.9995,16.7739 7.2245,16.9999 7.4995,16.9999 L7.4995,16.9999 L16.4995,16.9999 C16.6325,16.9999 16.7595,17.0529 16.8535,17.1469 L16.8535,17.1469 L18.9995,19.2939 L18.9995,8.4999 C18.9995,8.2249 18.7755,7.9999 18.4995,7.9999 L18.4995,7.9999 Z M15.4995,4.9999 L4.4995,4.9999 C4.2245,4.9999 3.9995,5.2249 3.9995,5.4999 L3.9995,5.4999 L3.9995,16.2949 L6.1455,14.1479 C6.1915,14.1019 6.2465,14.0649 6.3075,14.0389 C6.3685,14.0139 6.4335,13.9999 6.4995,13.9999 L6.4995,13.9999 L15.4995,13.9999 C15.7755,13.9999 15.9995,13.7749 15.9995,13.4999 L15.9995,13.4999 L15.9995,5.4999 C15.9995,5.2249 15.7755,4.9999 15.4995,4.9999 L15.4995,4.9999 Z M12,10 L12,11 L7,11 L7,10 L12,10 Z M13,8 L13,9 L7,9 L7,8 L13,8 Z" id="Combined-Shape" fill="#000000"></path>
    </g>
</svg>