<?xml version="1.0" encoding="UTF-8"?>
<svg width="25px" height="24px" viewBox="0 0 25 24" version="1.1" xmlns="http://www.w3.org/2000/svg" xmlns:xlink="http://www.w3.org/1999/xlink">
    <title>Google podcast</title>
    <g id="Google-podcast" stroke="none" stroke-width="1" fill="none" fill-rule="evenodd" transform="translate(1.000000, 0.000000)">
        <path d="M12.0039,4.3918 C12.5579,4.3918 13.0069,4.8408 13.0069,5.3948 C13.0069,5.4378 13.0049,5.4788 12.9989,5.5198 L12.9989,6.3608 C13.0049,6.4018 13.0069,6.4428 13.0069,6.4858 C13.0069,7.0388 12.5579,7.4888 12.0039,7.4888 C11.4499,7.4888 11.0009,7.0388 11.0009,6.4858 L11.0009,5.3948 C11.0009,4.8408 11.4499,4.3918 12.0039,4.3918 M15.5439,7.5688 C16.0589,7.5688 16.4829,7.9558 16.5399,8.4548 L16.5469,8.5718 L16.5469,9.6628 C16.5469,10.2168 16.0979,10.6658 15.5439,10.6658 C14.9899,10.6658 14.5409,10.2168 14.5409,9.6628 C14.5409,9.6208 14.5429,9.5788 14.5479,9.5378 L14.5479,8.6958 C14.5429,8.6548 14.5409,8.6138 14.5409,8.5718 C14.5409,8.0178 14.9899,7.5688 15.5439,7.5688 M8.3719,7.7608 C8.8869,7.7608 9.3109,8.1478 9.3689,8.6468 L9.3759,8.7648 L9.3759,12.3048 C9.3759,12.8588 8.9269,13.3078 8.3719,13.3078 C7.8179,13.3078 7.3689,12.8588 7.3689,12.3048 C7.3689,12.2628 7.3719,12.2218 7.3769,12.1818 L7.3769,8.8878 C7.3719,8.8468 7.3689,8.8058 7.3689,8.7648 C7.3689,8.2098 7.8179,7.7608 8.3719,7.7608 M18.9969,10.8398 C19.5119,10.8398 19.9359,11.2268 19.9929,11.7258 L19.9999,11.8428 L19.9999,12.9338 C19.9999,13.4878 19.5509,13.9368 18.9969,13.9368 C18.4419,13.9368 17.9929,13.4878 17.9929,12.9338 C17.9929,12.8918 17.9959,12.8498 18.0009,12.8088 L18.0009,11.9668 C17.9959,11.9268 17.9929,11.8848 17.9929,11.8428 C17.9929,11.2888 18.4419,10.8398 18.9969,10.8398 M5.0029,10.8398 C5.5179,10.8398 5.9419,11.2268 5.9999,11.7258 L6.0069,11.8428 L6.0069,12.9338 C6.0069,13.4878 5.5579,13.9368 5.0029,13.9368 C4.4489,13.9368 3.9999,13.4878 3.9999,12.9338 C3.9999,12.8918 4.0029,12.8508 4.0079,12.8098 L4.0079,11.9658 C4.0029,11.9258 3.9999,11.8848 3.9999,11.8428 C3.9999,11.2888 4.4489,10.8398 5.0029,10.8398 M12.0039,8.4768 C12.5579,8.4768 13.0069,8.9268 13.0069,9.4808 C13.0069,9.5218 13.0049,9.5628 12.9999,9.6038 L12.9999,15.1728 C13.0049,15.2138 13.0069,15.2548 13.0069,15.2958 C13.0069,15.8498 12.5579,16.2998 12.0039,16.2998 C11.4499,16.2998 11.0009,15.8498 11.0009,15.2958 L11.0009,9.4808 C11.0009,8.9268 11.4499,8.4768 12.0039,8.4768 M15.5439,11.6618 C16.0589,11.6618 16.4829,12.0488 16.5399,12.5478 L16.5469,12.6638 L16.5469,16.2048 C16.5469,16.7588 16.0979,17.2078 15.5439,17.2078 C14.9899,17.2078 14.5409,16.7588 14.5409,16.2048 C14.5409,16.1628 14.5429,16.1218 14.5479,16.0808 L14.5479,12.7878 C14.5429,12.7468 14.5409,12.7058 14.5409,12.6638 C14.5409,12.1108 14.9899,11.6618 15.5439,11.6618 M8.4559,14.1108 C9.0099,14.1108 9.4589,14.5598 9.4589,15.1138 L9.4519,15.2308 L9.4519,16.0878 C9.4569,16.1258 9.4589,16.1648 9.4589,16.2048 C9.4589,16.7588 9.0099,17.2078 8.4559,17.2078 C7.9019,17.2078 7.4529,16.7588 7.4529,16.2048 L7.4529,15.1138 C7.4529,14.5598 7.9019,14.1108 8.4559,14.1108 M12.0039,17.2948 C12.5579,17.2948 13.0069,17.7448 13.0069,18.2978 C13.0069,18.3408 13.0049,18.3818 12.9989,18.4228 L12.9989,19.2638 C13.0049,19.3048 13.0069,19.3468 13.0069,19.3888 C13.0069,19.9428 12.5579,20.3918 12.0039,20.3918 C11.4499,20.3918 11.0009,19.9428 11.0009,19.3888 L11.0009,18.2978 C11.0009,17.7448 11.4499,17.2948 12.0039,17.2948" id="Fill-3" fill="#000000"></path>
    </g>
</svg>