<svg id="Layer_1" xmlns="http://www.w3.org/2000/svg" width="24px" height="24px" viewBox="0 0 24 24"><defs><style>.cls-1{fill-rule:evenodd;}</style></defs><g id="_09-Icons-_-Social-_-Google-podcast" ><path id="_-Color" class="cls-1" d="M12,16.9a1,1,0,0,1,1,1h0v.9h0a1,1,0,0,1-2,0V17.9A1,1,0,0,1,12,16.9ZM8.5,13.7a1.1,1.1,0,0,1,1,1h0v.9h0a1,1,0,0,1-1,1,.9.9,0,0,1-1-1V14.7A1,1,0,0,1,8.5,13.7Zm7-2.4a.9.9,0,0,1,1,.9h0v3.5a.9.9,0,0,1-1,1,1,1,0,0,1-1-1h0V12.4h0A1,1,0,0,1,15.5,11.3ZM12,8.1a.9.9,0,0,1,1,1h0v5.6h0a1,1,0,0,1-2,0V9.1A.9.9,0,0,1,12,8.1ZM5,10.4a1.1,1.1,0,0,1,1,.9v1.2a.9.9,0,0,1-1,1,.9.9,0,0,1-1-1H4v-.8H4A1,1,0,0,1,5,10.4Zm14,0a1.1,1.1,0,0,1,1,.9v1.2a1,1,0,0,1-2,0h0v-.8h0A1,1,0,0,1,19,10.4ZM8.4,7.4a1.1,1.1,0,0,1,1,.9h0v3.5a1,1,0,0,1-1,1,.9.9,0,0,1-1-1h0V8.5h0A.9.9,0,0,1,8.4,7.4Zm7.1-.2a.9.9,0,0,1,1,.9h0V9.3a1,1,0,0,1-1,1,1.1,1.1,0,0,1-1-1v-1h0A1,1,0,0,1,15.5,7.2ZM12,4a.9.9,0,0,1,1,1h0V6h0a1,1,0,1,1-2,0V5A.9.9,0,0,1,12,4Z"/></g></svg>
