<svg xmlns="http://www.w3.org/2000/svg" width="24" height="24" viewBox="0 0 24 24">
  <path fill-rule="evenodd" d="M19.0000483,15.75 C19.0000483,15.886 18.885,16 18.75,16 L16.203,16 C15.761,15.468 15.079,14.947 14.007,14.598 L12.351,14.053 C12.191,14.001 12.076,13.867 12.077,13.734 C12.079,13.587 12.138,13.45 12.246,13.352 C12.891,12.76 13.675,11.694 13.749,10 C13.861,8.452 13.522,7.242 12.742,6.403 C12.522,6.167 12.284,5.987 12.042,5.838 C12.678,5.035 13.692,5 13.874,5 C13.978,5 14.903,5.02 15.541,5.705 C16.038,6.239 16.25,7.06 16.171,8.157 C16.12,9.329 15.595,10.05 15.164,10.448 C14.93,10.663 14.776,10.955 14.729,11.271 C14.646,11.841 15.04,12.456 15.607,12.643 L17.04,13.116 C19.004,13.758 19.001,15.176 19.0000483,15.251 L19.0000483,15.75 Z M16.0000554,18.75 C16.0000554,18.886 15.885,19 15.75,19 L4.25,19 C4.115,19 3.99994456,18.886 3.99994456,18.75 L3.99994456,18.048 C3.999,17.977 3.989,16.303 6.302,15.549 L7.951,15.007 C8.6,14.794 9.002,14.167 8.907,13.515 C8.856,13.171 8.687,12.852 8.431,12.615 C7.925,12.15 7.309,11.31 7.249,9.928 C7.157,8.669 7.407,7.712 7.991,7.085 C8.744,6.274 9.84,6.251 10.037,6.251 C10.16,6.251 11.256,6.274 12.009,7.085 C12.593,7.712 12.843,8.669 12.75,9.942 C12.691,11.31 12.075,12.15 11.569,12.615 C11.26,12.899 11.081,13.304 11.077,13.727 C11.073,14.292 11.469,14.817 12.04,15.004 L13.698,15.549 C16.011,16.303 16.001,17.977 16.0000554,18.063 L16.0000554,18.75 Z M17.35,12.165 L15.919,11.693 C15.805,11.655 15.707,11.5 15.719,11.417 C15.732,11.327 15.775,11.244 15.841,11.183 C16.411,10.657 17.104,9.714 17.169,8.215 C17.269,6.844 16.967,5.77 16.273,5.023 C15.366,4.05 14.116,4 13.81,4 C13.51,4 11.999,4.077 11.109,5.419 C10.581,5.266 10.137,5.251 9.963,5.251 C9.69,5.251 8.279,5.307 7.258,6.403 C6.478,7.242 6.139,8.452 6.25,9.985 C6.325,11.694 7.109,12.76 7.753,13.352 C7.843,13.434 7.9,13.541 7.917,13.66 C7.941,13.826 7.822,13.997 7.64,14.057 L5.993,14.598 C2.936,15.595 2.997,17.982 3,18.063 L3,18.75 C3,19.439 3.561,20 4.25,20 L15.75,20 C16.439,20 17,19.439 17,18.75 L16.999,18.084 C17.001,18.041 17.01,17.585 16.791,17 L18.75,17 C19.439,17 20,16.439 20,15.75 L20,15.271 C20.003,15.181 20.057,13.05 17.35,12.165 L17.35,12.165 Z"/>
</svg>
