<?xml version="1.0" encoding="UTF-8"?>
<svg width="25px" height="24px" viewBox="0 0 25 24" version="1.1" xmlns="http://www.w3.org/2000/svg" xmlns:xlink="http://www.w3.org/1999/xlink">
    <title>GroupFill_Medium_24X24</title>
    <g id="GroupFill_Medium_24X24" stroke="none" stroke-width="1" fill="none" fill-rule="evenodd" transform="translate(1.000000, 0.000000)">
        <path d="M9.52899506,6.25199115 C9.94502284,6.26171543 11.0657111,6.37342222 11.8751,7.2442 C12.5581,7.9762 12.8521,9.0602 12.7491,10.4782 C12.6831,12.0052 11.9831,12.9552 11.4091,13.4822 C11.1981,13.6762 11.0801,13.9402 11.0771,14.2302 C11.0751,14.5812 11.3301,14.9092 11.6951,15.0272 L11.6951,15.0272 L13.3511,15.5722 C15.8111294,16.3755529 15.9898621,18.1280988 15.9992266,18.512985 L15.9994911,18.5697787 L15.9994911,18.5697787 L15.9991,18.5842 L15.9991,19.2502 C15.9991,19.6632 15.6631,20.0002 15.2491,20.0002 L15.2491,20.0002 L3.7501,20.0002 C3.3371,20.0002 3.0001,19.6632 3.0001,19.2502 L3.0001,19.2502 L3.00042905,18.4768836 C3.01195467,18.1116524 3.19827647,16.3718176 5.6491,15.5722 L5.6491,15.5722 L7.2951,15.0322 C7.7121,14.8952 7.9721,14.4992 7.9121,14.0872 C7.8771,13.8512 7.7661,13.6422 7.5921,13.4832 C7.0171,12.9552 6.3171,12.0022 6.2491,10.4492 C6.1481,9.0552 6.4421,7.9762 7.1241,7.2442 C8.0041,6.2992 9.2271,6.2512 9.4631,6.2512 Z M13.8652228,4.50054279 C14.2467288,4.50781994 15.4138368,4.60121053 16.2731,5.523 C16.9671,6.269 17.2681,7.344 17.1691,8.715 C17.1041,10.214 16.4111,11.157 15.8411,11.683 C15.7751,11.744 15.7321,11.827 15.7191,11.917 C15.7061,12 15.8051,12.155 15.9191,12.193 L15.9191,12.193 L17.3501,12.665 C19.8182471,13.4719118 19.9911337,15.3146419 19.9993956,15.7010061 L19.9995112,15.7569314 L19.9995112,15.7569314 L19.9991,15.77 L20.0001,16.25 C20.0001,16.939 19.4391,17.5 18.7491,17.5 L18.7491,17.5 L16.8171,17.5 C16.5191,16.573 15.7351,15.299 13.6631,14.623 L13.6631,14.623 L12.1761,14.134 C12.8711,13.463 13.6701,12.311 13.7471,10.536 C13.8701,8.845 13.4871,7.508 12.6081,6.562 C12.2061,6.132 11.7521,5.847 11.3121,5.651 C12.2121,4.571 13.5311,4.5 13.8091,4.5 Z" id="Combined-Shape" fill="#000000"></path>
    </g>
</svg>