<?xml version="1.0" encoding="UTF-8"?>
<svg width="21px" height="20px" viewBox="0 0 21 20" version="1.1" xmlns="http://www.w3.org/2000/svg" xmlns:xlink="http://www.w3.org/1999/xlink">
    <title>HighlightColor_Small_20X20</title>
    <g id="HighlightColor_Small_20X20" stroke="none" stroke-width="1" fill="none" fill-rule="evenodd" transform="translate(1.000000, 0.000000)">
        <path d="M14.6162,6.6768 L10.5002,10.7928 L8.2072,8.4998 L12.3232,4.3838 C12.4212,4.2858 12.5792,4.2858 12.6772,4.3838 L14.6162,6.3228 C14.7142,6.4208 14.7142,6.5788 14.6162,6.6768 L14.6162,6.6768 Z M9.2932,11.9998 L7.3532,11.9998 L7.0002,11.6468 L7.0002,9.7068 L7.5002,9.2068 L9.7932,11.4998 L9.2932,11.9998 Z M15.3232,5.6158 L13.3842,3.6768 C12.8972,3.1888 12.1022,3.1888 11.6162,3.6768 L6.1462,9.1468 C6.0532,9.2398 6.0002,9.3668 6.0002,9.4998 L6.0002,11.6468 L4.8232,12.8228 C4.7622,12.8848 4.7362,12.9728 4.7572,13.0578 C4.7762,13.1418 4.8392,13.2098 4.9212,13.2378 L6.4212,13.7378 C6.4472,13.7458 6.4732,13.7498 6.5002,13.7498 C6.5652,13.7498 6.6292,13.7248 6.6772,13.6768 L7.3532,12.9998 L9.5002,12.9998 C9.6332,12.9998 9.7602,12.9478 9.8532,12.8538 L15.3232,7.3838 C15.8102,6.8968 15.8102,6.1038 15.3232,5.6158 L15.3232,5.6158 Z" id="Fill-2" fill="#000000"></path>
        <polygon id="Fill-4" fill="#000000" points="4 19 16 19 16 16 4 16"></polygon>
    </g>
</svg>