<svg xmlns="http://www.w3.org/2000/svg" width="24" height="24" viewBox="0 0 24 24">
  <path fill-rule="evenodd" d="M20,17.4951 C20,17.7731 19.776,18.0001 19.5,18.0001 L4.5,18.0001 C4.224,18.0001 4,17.7731 4,17.4951 L4,16.5061 C4,16.2261 4.224,16.0001 4.5,16.0001 L19.5,16.0001 C19.776,16.0001 20,16.2261 20,16.5061 L20,17.4951 Z M12,7.5001 C15.239,7.5001 17.875,10.1361 17.875,13.3911 C17.895,13.9971 18.089,14.5311 18.425,15.0001 L5.575,15.0001 C5.911,14.5291 6.105,13.9921 6.125,13.3751 C6.125,10.1361 8.761,7.5001 12,7.5001 L12,7.5001 Z M19.882,15.0561 L19.671,14.8881 C19.155,14.4771 18.895,13.9771 18.875,13.3751 C18.875,9.7531 16.058,6.7831 12.5,6.5251 L12.5,5.0001 L14,5.0001 L14,4.0001 L10,4.0001 L10,5.0001 L11.5,5.0001 L11.5,6.5251 C7.942,6.7831 5.125,9.7521 5.125,13.3591 C5.105,13.9771 4.845,14.4771 4.329,14.8881 L4.118,15.0561 C3.477,15.2261 3,15.8081 3,16.5061 L3,17.4951 C3,18.3251 3.673,19.0001 4.5,19.0001 L19.5,19.0001 C20.327,19.0001 21,18.3251 21,17.4951 L21,16.5061 C21,15.8081 20.523,15.2261 19.882,15.0561 L19.882,15.0561 Z"/>
</svg>
