<?xml version="1.0" encoding="UTF-8"?>
<svg width="31px" height="30px" viewBox="0 0 31 30" version="1.1" xmlns="http://www.w3.org/2000/svg" xmlns:xlink="http://www.w3.org/1999/xlink">
    <title>Hotels_Large _30X30</title>
    <g id="Hotels_Large-_30X30" stroke="none" stroke-width="1" fill="none" fill-rule="evenodd" transform="translate(1.000000, 0.000000)">
        <path d="M26,22.5 C26,22.775 25.776,23 25.5,23 L4.5,23 C4.224,23 4,22.775 4,22.5 L4,21.5 C4,21.225 4.224,21 4.5,21 L25.5,21 C25.776,21 26,21.225 26,21.5 L26,22.5 Z M6.875,17.622 C6.875,13.142 10.52,9.497 15,9.497 C19.48,9.497 23.125,13.142 23.125,17.638 C23.154,18.542 23.462,19.332 24.036,20 L5.964,20 C6.538,19.332 6.846,18.539 6.875,17.622 L6.875,17.622 Z M25.514,20.002 L25.268,19.806 C24.527,19.217 24.153,18.497 24.125,17.622 C24.125,12.76 20.299,8.784 15.5,8.522 L15.5,7 L17,7 L17,6 L15.5,6 L14.5,6 L13,6 L13,7 L14.5,7 L14.5,8.522 C9.701,8.784 5.875,12.759 5.875,17.606 C5.847,18.498 5.473,19.217 4.732,19.806 L4.486,20.002 C3.666,20.009 3,20.678 3,21.5 L3,22.5 C3,23.327 3.673,24 4.5,24 L25.5,24 C26.327,24 27,23.327 27,22.5 L27,21.5 C27,20.678 26.334,20.009 25.514,20.002 L25.514,20.002 Z" id="Fill-2" fill="#000000"></path>
    </g>
</svg>