<?xml version="1.0" encoding="UTF-8"?>
<svg width="21px" height="20px" viewBox="0 0 21 20" version="1.1" xmlns="http://www.w3.org/2000/svg" xmlns:xlink="http://www.w3.org/1999/xlink">
    <title>Image_Small_20X20</title>
    <g id="Image_Small_20X20" stroke="none" stroke-width="1" fill="none" fill-rule="evenodd" transform="translate(1.000000, 0.000000)">
        <path d="M14.5,4 C15.327,4 16,4.673 16,5.5 L16,5.5 L16,14.5 C16,15.327 15.327,16 14.5,16 L14.5,16 L5.5,16 C4.673,16 4,15.327 4,14.5 L4,14.5 L4,5.5 C4,4.673 4.673,4 5.5,4 L5.5,4 Z M7.486,10 L5,12.486 L5,14.5 C5,14.775 5.225,15 5.5,15 L5.5,15 L14.5,15 C14.776,15 15,14.776 15,14.5 L15,14.5 L15,14.486 L12.514,12 L11.354,13.16 C11.158,13.355 10.842,13.355 10.646,13.16 L10.646,13.16 L7.486,10 Z M14.5,5 L5.5,5 C5.225,5 5,5.225 5,5.5 L5,5.5 L5,11.072 L6.779,9.293 C7.167,8.903 7.803,8.903 8.193,9.293 L8.193,9.293 L11,12.1 L11.807,11.293 C12.196,10.903 12.831,10.903 13.221,11.293 L13.221,11.293 L15,13.072 L15,5.5 C15,5.225 14.775,5 14.5,5 L14.5,5 Z M12,7 C12.552,7 13,7.448 13,8 C13,8.552 12.552,9 12,9 C11.448,9 11,8.552 11,8 C11,7.448 11.448,7 12,7 Z" id="Combined-Shape" fill="#000000"></path>
    </g>
</svg>