<?xml version="1.0" encoding="UTF-8"?>
<svg width="25px" height="24px" viewBox="0 0 25 24" version="1.1" xmlns="http://www.w3.org/2000/svg" xmlns:xlink="http://www.w3.org/1999/xlink">
    <title>Instagram</title>
    <g id="Instagram" stroke="none" stroke-width="1" fill="none" fill-rule="evenodd" transform="translate(1.000000, 0.000000)">
        <path d="M16.271,6.769 C16.8,6.769 17.231,7.199 17.231,7.729 C17.231,8.259 16.8,8.689 16.271,8.689 C15.741,8.689 15.31,8.259 15.31,7.729 C15.31,7.199 15.741,6.769 16.271,6.769 L16.271,6.769 Z M12,9.333 C10.527,9.333 9.334,10.527 9.334,11.999 C9.334,13.472 10.527,14.666 12,14.666 C13.473,14.666 14.667,13.472 14.667,11.999 C14.667,10.527 13.473,9.333 12,9.333 L12,9.333 Z M12,7.892 C14.269,7.892 16.108,9.73 16.108,11.999 C16.108,14.269 14.269,16.108 12,16.108 C9.731,16.108 7.892,14.269 7.892,11.999 C7.892,9.73 9.731,7.892 12,7.892 L12,7.892 Z M12.717,5.441 L11.283,5.441 C10.36,5.443 9.898,5.447 9.505,5.458 L9.328,5.464 C9.152,5.47 8.978,5.478 8.767,5.488 C7.988,5.523 7.564,5.653 7.282,5.763 C6.909,5.908 6.642,6.082 6.362,6.361 C6.082,6.642 5.909,6.908 5.763,7.281 C5.654,7.563 5.524,7.987 5.488,8.767 C5.478,8.977 5.471,9.152 5.464,9.328 L5.458,9.505 C5.448,9.898 5.443,10.359 5.442,11.282 L5.442,12.717 C5.443,13.64 5.448,14.102 5.458,14.494 L5.464,14.672 C5.471,14.847 5.478,15.021 5.488,15.232 C5.524,16.012 5.654,16.436 5.763,16.718 C5.909,17.091 6.083,17.358 6.362,17.638 C6.642,17.917 6.909,18.091 7.282,18.236 C7.564,18.346 7.988,18.476 8.767,18.512 C8.943,18.519 9.093,18.526 9.24,18.532 L9.417,18.538 C9.83,18.551 10.289,18.556 11.283,18.558 L12.717,18.558 C13.641,18.557 14.102,18.552 14.495,18.54 L14.672,18.535 C14.848,18.529 15.022,18.521 15.233,18.512 C16.013,18.476 16.436,18.346 16.718,18.236 C17.091,18.091 17.358,17.917 17.638,17.638 C17.918,17.358 18.091,17.091 18.237,16.718 C18.346,16.436 18.476,16.012 18.512,15.232 C18.522,15.021 18.53,14.847 18.536,14.672 L18.542,14.494 C18.552,14.102 18.557,13.64 18.558,12.717 L18.558,11.282 C18.557,10.359 18.552,9.898 18.542,9.505 L18.536,9.328 C18.53,9.152 18.522,8.977 18.512,8.767 C18.476,7.987 18.346,7.563 18.237,7.281 C18.091,6.908 17.918,6.642 17.638,6.361 C17.358,6.082 17.091,5.908 16.718,5.763 C16.436,5.653 16.013,5.523 15.233,5.488 C15.022,5.478 14.848,5.47 14.672,5.464 L14.495,5.458 C14.102,5.447 13.641,5.443 12.717,5.441 L12.717,5.441 Z M12.94,4 C13.811,4.002 14.246,4.008 14.638,4.02 L14.909,4.031 C15.03,4.036 15.157,4.041 15.298,4.048 C16.15,4.086 16.732,4.222 17.241,4.419 C17.766,4.624 18.212,4.897 18.658,5.342 C19.102,5.787 19.375,6.233 19.581,6.759 C19.778,7.268 19.914,7.85 19.952,8.701 C19.96,8.879 19.967,9.031 19.972,9.181 L19.979,9.361 C19.992,9.754 19.998,10.189 20,11.06 L20,11.738 L20,11.999 L20,12.261 L20,12.939 C19.998,13.81 19.992,14.245 19.979,14.638 L19.972,14.818 C19.967,14.968 19.96,15.12 19.952,15.298 C19.914,16.149 19.778,16.731 19.581,17.24 C19.375,17.766 19.102,18.212 18.658,18.657 C18.212,19.102 17.766,19.375 17.241,19.58 C16.732,19.777 16.15,19.913 15.298,19.952 C15.121,19.959 14.968,19.966 14.819,19.972 L14.638,19.978 C14.246,19.991 13.811,19.997 12.94,19.999 L12.262,19.999 L12,19.999 L11.738,19.999 L11.061,19.999 C10.19,19.997 9.754,19.991 9.362,19.978 L9.182,19.972 C9.032,19.966 8.879,19.959 8.702,19.952 C7.85,19.913 7.269,19.777 6.759,19.58 C6.234,19.375 5.788,19.102 5.342,18.657 C4.898,18.212 4.625,17.766 4.42,17.24 C4.222,16.731 4.087,16.149 4.048,15.298 C4.042,15.156 4.036,15.03 4.031,14.908 L4.021,14.638 C4.008,14.245 4.002,13.81 4,12.939 L4,11.06 C4.002,10.189 4.008,9.754 4.021,9.361 L4.031,9.091 C4.036,8.969 4.042,8.843 4.048,8.701 C4.087,7.85 4.222,7.268 4.42,6.759 C4.625,6.233 4.898,5.787 5.342,5.342 C5.788,4.897 6.234,4.624 6.759,4.419 C7.269,4.222 7.85,4.086 8.702,4.048 C8.844,4.041 8.97,4.036 9.091,4.031 L9.362,4.02 C9.754,4.008 10.19,4.002 11.061,4 L12.94,4 Z" id="Fill-5" fill="#000000"></path>
    </g>
</svg>