<svg id="Layer_1" xmlns="http://www.w3.org/2000/svg" width="24px" height="24px" viewBox="0 0 24 24"><defs><style>.cls-1{fill-rule:evenodd;}</style></defs><g id="_09-Icons-_-Social-_-Instagram"><path id="_-Color" class="cls-1" d="M12.9,4h2.4l1.9.4a4.6,4.6,0,0,1,1.5.9,4.6,4.6,0,0,1,.9,1.5A6.9,6.9,0,0,1,20,8.7v3h0v3.6a7.8,7.8,0,0,1-.4,1.9,4.6,4.6,0,0,1-.9,1.5,4.6,4.6,0,0,1-1.5.9l-1.9.4H8.7l-1.9-.4a4.6,4.6,0,0,1-1.5-.9,4.6,4.6,0,0,1-.9-1.5A7.8,7.8,0,0,1,4,15.3V8.7a6.9,6.9,0,0,1,.4-1.9,4.6,4.6,0,0,1,.9-1.5,4.6,4.6,0,0,1,1.5-.9L8.7,4h4.2Zm-.2,1.4H8.8a3.8,3.8,0,0,0-1.5.3,1.5,1.5,0,0,0-.9.6,1.5,1.5,0,0,0-.6.9,3.8,3.8,0,0,0-.3,1.5v.7a8.2,8.2,0,0,0-.1,1.8v1.4a8.2,8.2,0,0,0,.1,1.8v.7a3.8,3.8,0,0,0,.3,1.5,1.5,1.5,0,0,0,.6.9,1.5,1.5,0,0,0,.9.6,3.8,3.8,0,0,0,1.5.3h6.4a3.8,3.8,0,0,0,1.5-.3,1.5,1.5,0,0,0,.9-.6,1.5,1.5,0,0,0,.6-.9,3.8,3.8,0,0,0,.3-1.5v-.7a8.2,8.2,0,0,0,.1-1.8V11.3a8.2,8.2,0,0,0-.1-1.8V8.8a3.8,3.8,0,0,0-.3-1.5,1.5,1.5,0,0,0-.6-.9,1.5,1.5,0,0,0-.9-.6,3.8,3.8,0,0,0-1.5-.3H12.7ZM12,7.9A4.1,4.1,0,1,1,7.9,12,4.1,4.1,0,0,1,12,7.9Zm0,1.4A2.7,2.7,0,1,0,14.7,12,2.7,2.7,0,0,0,12,9.3Zm4.3-2.5a.9.9,0,0,1,.9.9.9.9,0,0,1-.9,1,.9.9,0,0,1-1-1A.9.9,0,0,1,16.3,6.8Z"/></g></svg>
