<svg xmlns="http://www.w3.org/2000/svg" width="24" height="24" viewBox="0 0 24 24">
  <path fill-rule="evenodd" d="M12.9394383,4.00073355 C13.810537,4.00270502 14.2454273,4.00838171 14.6384207,4.02102394 L14.9086454,4.03092915 C15.0300778,4.03586168 15.1561585,4.0415249 15.2983741,4.04801378 C16.1498894,4.08685182 16.7314437,4.2221022 17.2403078,4.41988086 C17.7663838,4.6242966 18.212529,4.89784595 18.6573087,5.34259389 C19.1020566,5.78737359 19.375606,6.2335188 19.5800535,6.7595948 C19.7778004,7.26845884 19.9130508,7.85001321 19.9518888,8.70152847 C19.9599999,8.87929798 19.9668209,9.03185673 19.9725373,9.18163967 L19.9788787,9.36148264 C19.9915209,9.75447754 19.9971976,10.189372 19.999169,11.0604827 L19.999982,11.7380965 L19.999982,11.7380965 L20.0000315,11.9999672 C20.0000315,12.0904953 20.0000155,12.1777244 19.999982,12.261834 L19.999169,12.9394383 C19.9971976,13.810537 19.9915209,14.2454273 19.9788787,14.6384207 L19.9725373,14.8182632 C19.9668209,14.9680459 19.9599999,15.1206046 19.9518888,15.2983741 C19.9130508,16.1498894 19.7778004,16.7314437 19.5800535,17.2403078 C19.375606,17.7663838 19.1020566,18.212529 18.6573087,18.6573087 C18.212529,19.1020566 17.7663838,19.375606 17.2403078,19.5800535 C16.7314437,19.7778004 16.1498894,19.9130508 15.2983741,19.9518888 C15.1206046,19.9599999 14.9680459,19.9668209 14.8182632,19.9725373 L14.6384207,19.9788787 C14.2454273,19.9915209 13.810537,19.9971976 12.9394383,19.999169 L12.261834,19.999982 L12.261834,19.999982 L11.9999672,20.0000315 C11.9094377,20.0000315 11.8222073,20.0000155 11.7380965,19.999982 L11.0604827,19.999169 C10.189372,19.9971976 9.75447754,19.9915209 9.36148264,19.9788787 L9.18163967,19.9725373 C9.03185673,19.9668209 8.87929798,19.9599999 8.70152847,19.9518888 C7.85001321,19.9130508 7.26845884,19.7778004 6.7595948,19.5800535 C6.2335188,19.375606 5.78737359,19.1020566 5.34259389,18.6573087 C4.89784595,18.212529 4.6242966,17.7663838 4.41988086,17.2403078 C4.2221022,16.7314437 4.08685182,16.1498894 4.04801378,15.2983741 C4.0415249,15.1561585 4.03586168,15.0300778 4.03092915,14.9086454 L4.02102394,14.6384207 C4.00838171,14.2454273 4.00270502,13.810537 4.00073355,12.9394383 L4.00073355,11.0604827 C4.00270502,10.189372 4.00838171,9.75447754 4.02102394,9.36148264 L4.03092915,9.09125733 C4.03586168,8.9698248 4.0415249,8.84374408 4.04801378,8.70152847 C4.08685182,7.85001321 4.2221022,7.26845884 4.41988086,6.7595948 C4.6242966,6.2335188 4.89784595,5.78737359 5.34259389,5.34259389 C5.78737359,4.89784595 6.2335188,4.6242966 6.7595948,4.41988086 C7.26845884,4.2221022 7.85001321,4.08685182 8.70152847,4.04801378 C8.84374408,4.0415249 8.9698248,4.03586168 9.09125733,4.03092915 L9.36148264,4.02102394 C9.75447754,4.00838171 10.189372,4.00270502 11.0604827,4.00073355 Z M12.7175646,5.4417503 L11.2823592,5.4417503 C10.3593581,5.44304309 9.8981393,5.4475434 9.50557737,5.45877398 L9.32783848,5.46444804 C9.15211164,5.47062564 8.97812644,5.47835237 8.7672324,5.48797455 C7.98723248,5.52354168 7.56363429,5.65386981 7.28173301,5.76342928 C6.90830987,5.90855589 6.64181043,6.0819139 6.36187804,6.36187804 C6.0819139,6.64181043 5.90855589,6.90830987 5.76342928,7.28173301 C5.65386981,7.56363429 5.52354168,7.98723248 5.48797455,8.7672324 C5.47835237,8.97812644 5.47062564,9.15211164 5.46444804,9.32783848 L5.45877398,9.50557737 C5.4475434,9.8981393 5.44304309,10.3593581 5.4417503,11.2823592 L5.4417503,12.7175646 C5.44304309,13.6405526 5.4475434,14.1017664 5.45877398,14.4943264 L5.46444804,14.6720646 C5.47062564,14.8477909 5.47835237,15.0217761 5.48797455,15.2326702 C5.52354168,16.0126701 5.65386981,16.4362683 5.76342928,16.7181696 C5.90855589,17.0915927 6.08194566,17.3580922 6.36187804,17.6380245 C6.64181043,17.9179887 6.90830987,18.0913467 7.28173301,18.2364733 C7.56363429,18.3460328 7.98723248,18.4763609 8.7672324,18.511928 C8.94295759,18.5199465 9.09305301,18.5266487 9.23988758,18.532235 L9.41595545,18.5384159 C9.82980916,18.5516479 10.2882466,18.5567601 11.2823097,18.5581523 L12.7176154,18.5581523 C13.6406644,18.5568595 14.1018868,18.5523592 14.4944181,18.5411286 L14.6721405,18.5354545 C14.8478485,18.5292769 15.0218079,18.5215502 15.2326702,18.511928 C16.0126701,18.4763609 16.4362683,18.3460328 16.7181696,18.2364733 C17.0915927,18.0913467 17.3580922,17.9179887 17.6380245,17.6380245 C17.9179887,17.3580922 18.0913467,17.0915927 18.2364733,16.7181696 C18.3460328,16.4362683 18.4763609,16.0126701 18.511928,15.2326702 C18.5215502,15.0217761 18.5292769,14.8477909 18.5354545,14.6720646 L18.5411286,14.4943264 C18.5523592,14.1017664 18.5568595,13.6405526 18.5581523,12.7175646 L18.5581523,11.2823592 C18.5568595,10.3593581 18.5523592,9.8981393 18.5411286,9.50557737 L18.5354545,9.32783848 C18.5292769,9.15211164 18.5215502,8.97812644 18.511928,8.7672324 C18.4763609,7.98723248 18.3460328,7.56363429 18.2364733,7.28173301 C18.0913467,6.90830987 17.9179887,6.64181043 17.6380245,6.36187804 C17.3580922,6.0819139 17.0915927,5.90855589 16.7181696,5.76342928 C16.4362683,5.65386981 16.0126701,5.52354168 15.2326702,5.48797455 C15.0217761,5.47835237 14.8477909,5.47062564 14.6720646,5.46444804 L14.4943264,5.45877398 C14.1017664,5.4475434 13.6405526,5.44304309 12.7175646,5.4417503 Z M11.9999672,7.8918046 C14.2688327,7.8918046 16.108098,9.73106993 16.108098,11.9999672 C16.108098,14.2688327 14.2688327,16.108098 11.9999672,16.108098 C9.73106993,16.108098 7.8918046,14.2688327 7.8918046,11.9999672 C7.8918046,9.73106993 9.73106993,7.8918046 11.9999672,7.8918046 Z M11.9999672,9.33325791 C10.5271703,9.33325791 9.33325791,10.5271703 9.33325791,11.9999672 C9.33325791,13.4727323 10.5271703,14.6666447 11.9999672,14.6666447 C13.4727323,14.6666447 14.6666447,13.4727323 14.6666447,11.9999672 C14.6666447,10.5271703 13.4727323,9.33325791 11.9999672,9.33325791 Z M16.2704048,6.76947103 C16.8006091,6.76947103 17.2304316,7.19929347 17.2304316,7.7294978 C17.2304316,8.25970212 16.8006091,8.68949281 16.2704048,8.68949281 C15.7402322,8.68949281 15.3104098,8.25970212 15.3104098,7.7294978 C15.3104098,7.19929347 15.7402322,6.76947103 16.2704048,6.76947103 Z"/>
</svg>
