<?xml version="1.0" encoding="UTF-8"?>
<svg width="21px" height="20px" viewBox="0 0 21 20" version="1.1" xmlns="http://www.w3.org/2000/svg" xmlns:xlink="http://www.w3.org/1999/xlink">
    <title>Launch_Small_20X20</title>
    <g id="Launch_Small_20X20" stroke="none" stroke-width="1" fill="none" fill-rule="evenodd" transform="translate(1.000000, 0.000000)">
        <path d="M10,4 L10,5 L5.5,5 C5.224,5 5,5.224 5,5.5 L5,5.5 L5,14.5 C5,14.776 5.224,15 5.5,15 L5.5,15 L14.5,15 C14.776,15 15,14.776 15,14.5 L15,14.5 L15,10 L16,10 L16,14.5 C16,15.327 15.327,16 14.5,16 L14.5,16 L5.5,16 C4.673,16 4,15.327 4,14.5 L4,14.5 L4,5.5 C4,4.673 4.673,4 5.5,4 L5.5,4 L10,4 Z M16,4 L16,8 L15,8 L15,5.707 L10.707,10 L10,9.293 L14.293,5 L12,5 L12,4 L16,4 Z" id="Combined-Shape" fill="#000000"></path>
    </g>
</svg>