<?xml version="1.0" encoding="UTF-8"?>
<svg width="24px" height="24px" viewBox="0 0 24 24" version="1.1" xmlns="http://www.w3.org/2000/svg" xmlns:xlink="http://www.w3.org/1999/xlink">
    <title>Launch_Medium_24X24</title>
    <g id="Launch_Medium_24X24" stroke="none" stroke-width="1" fill="none" fill-rule="evenodd">
        <path d="M12,4 L12,5 L5.5,5 C5.224,5 5,5.225 5,5.5 L5,5.5 L5,18.5 C5,18.775 5.224,19 5.5,19 L5.5,19 L18.5,19 C18.776,19 19,18.775 19,18.5 L19,18.5 L19,12 L20,12 L20,18.5 C20,19.327 19.327,20 18.5,20 L18.5,20 L5.5,20 C4.673,20 4,19.327 4,18.5 L4,18.5 L4,5.5 C4,4.673 4.673,4 5.5,4 L5.5,4 L12,4 Z M20,4 L20,9 L19,9 L19,5.707 L12.71,11.997 L12.003,11.29 L18.293,5 L15,5 L15,4 L20,4 Z" id="Combined-Shape" fill="#000000"></path>
    </g>
</svg>