<svg xmlns="http://www.w3.org/2000/svg" width="30" height="30" viewBox="0 0 30 30">
  <path fill-rule="evenodd" d="M25.9053,11.416 C25.4623,8.724 23.4403,6.591 20.8743,6.109 C18.6473,5.688 16.4543,6.492 15.0003,8.215 C13.5463,6.492 11.3533,5.687 9.1253,6.109 C6.5593,6.591 4.5373,8.724 4.0943,11.416 C3.9053,12.568 4.0053,13.747 4.3833,14.825 C5.6333,18.828 12.1893,23.432 14.1703,24.749 C14.4233,24.916 14.7123,25 15.0023,25 C15.2913,25 15.5813,24.916 15.8343,24.748 C17.8153,23.431 24.3753,18.821 25.6133,14.834 C25.9943,13.754 26.0953,12.572 25.9053,11.416"/>
</svg>
