<svg xmlns="http://www.w3.org/2000/svg" width="20" height="20" viewBox="0 0 20 20">
  <path fill-rule="evenodd" d="M16.9385,7.4927 C16.6515,5.7567 15.3385,4.3817 13.6715,4.0707 C12.2965,3.8157 10.9415,4.2687 10.0005,5.2677 C9.0585,4.2687 7.7035,3.8177 6.3285,4.0707 C4.6615,4.3817 3.3485,5.7567 3.0615,7.4927 C2.9385,8.2337 3.0025,8.9907 3.2475,9.6837 C3.9955,12.0557 7.6355,14.7117 9.1675,15.7437 C9.4205,15.9147 9.7105,16.0007 10.0015,16.0007 C10.2915,15.9997 10.5825,15.9147 10.8345,15.7437 C12.3675,14.7107 16.0125,12.0507 16.7495,9.6927 C16.9965,8.9967 17.0625,8.2367 16.9385,7.4927"/>
</svg>
