<svg xmlns="http://www.w3.org/2000/svg" width="20" height="20" viewBox="0 0 20 20">
  <path fill-rule="evenodd" d="M7.0786,5.001 C6.8916,5.001 6.7026,5.018 6.5126,5.054 C5.2766,5.284 4.2636,6.354 4.0476,7.656 C3.9526,8.233 4.0026,8.822 4.1926,9.357 L4.1986,9.376 C4.8646,11.506 8.5976,14.154 9.7256,14.915 C9.8966,15.03 10.1066,15.029 10.2756,14.915 C11.4036,14.154 15.1346,11.509 15.8016,9.376 C15.9976,8.822 16.0476,8.233 15.9526,7.656 C15.7366,6.354 14.7236,5.284 13.4876,5.054 C12.2946,4.833 11.1136,5.325 10.4116,6.346 L9.9996,6.945 L9.5876,6.346 C8.9976,5.487 8.0706,5.001 7.0786,5.001 M10.0016,16.001 C9.7106,16.001 9.4206,15.915 9.1676,15.744 C7.6356,14.711 3.9956,12.056 3.2476,9.684 C3.0026,8.991 2.9386,8.233 3.0616,7.492 C3.3486,5.757 4.6616,4.382 6.3286,4.07 C7.7036,3.818 9.0586,4.269 9.9996,5.268 C10.9416,4.269 12.2966,3.816 13.6716,4.07 C15.3386,4.381 16.6516,5.757 16.9386,7.493 C17.0616,8.236 16.9966,8.997 16.7496,9.692 C16.0126,12.051 12.3676,14.71 10.8346,15.744 C10.5816,15.915 10.2916,16 10.0016,16.001"/>
</svg>
