<?xml version="1.0" encoding="UTF-8"?>
<svg width="25px" height="24px" viewBox="0 0 25 24" version="1.1" xmlns="http://www.w3.org/2000/svg" xmlns:xlink="http://www.w3.org/1999/xlink">
    <title>Link_Medium_24X24</title>
    <g id="Link_Medium_24X24" stroke="none" stroke-width="1" fill="none" fill-rule="evenodd" transform="translate(1.000000, 0.000000)">
        <path d="M7.7859,10.3591 C9.3999,8.7461 12.0259,8.7461 13.6399,10.3591 L13.6399,10.3591 L14.0689,10.7891 L13.3619,11.4961 L12.9329,11.0661 C11.7089,9.8451 9.7179,9.8431 8.4929,11.0661 L8.4929,11.0661 L5.9199,13.6411 C5.3269,14.2331 4.9999,15.0211 4.9999,15.8601 C4.9999,16.6991 5.3269,17.4871 5.9199,18.0801 C7.1059,19.2661 9.1729,19.2661 10.3599,18.0801 L10.3599,18.0801 L11.9429,16.4981 L12.6499,17.2051 L11.0669,18.7871 C10.2849,19.5691 9.2459,20.0001 8.1399,20.0001 C7.0339,20.0001 5.9939,19.5691 5.2129,18.7871 C4.4309,18.0061 3.9999,16.9661 3.9999,15.8601 C3.9999,14.7551 4.4309,13.7151 5.2129,12.9341 L5.2129,12.9341 Z M15.8606,3.9999 C16.9666,3.9999 18.0056,4.4309 18.7876,5.2129 C19.5696,5.9939 19.9996,7.0339 19.9996,8.1399 C19.9996,9.2449 19.5696,10.2849 18.7876,11.0669 L18.7876,11.0669 L16.2136,13.6409 C15.4066,14.4469 14.3466,14.8509 13.2866,14.8509 C12.2266,14.8509 11.1666,14.4469 10.3596,13.6409 L10.3596,13.6409 L9.9306,13.2109 L10.6376,12.5039 L11.0666,12.9339 C12.2926,14.1569 14.2836,14.1579 15.5066,12.9339 L15.5066,12.9339 L18.0806,10.3589 C18.6736,9.7669 18.9996,8.9789 18.9996,8.1399 C18.9996,7.3009 18.6736,6.5129 18.0806,5.9199 C16.8936,4.7339 14.8266,4.7339 13.6406,5.9199 L13.6406,5.9199 L12.0576,7.5019 L11.3506,6.7949 L12.9336,5.2129 C13.7146,4.4309 14.7546,3.9999 15.8606,3.9999 Z" id="Combined-Shape" fill="#000000"></path>
    </g>
</svg>