<?xml version="1.0" encoding="UTF-8"?>
<svg width="21px" height="20px" viewBox="0 0 21 20" version="1.1" xmlns="http://www.w3.org/2000/svg" xmlns:xlink="http://www.w3.org/1999/xlink">
    <title>Link_Small_20X20</title>
    <g id="Link_Small_20X20" stroke="none" stroke-width="1" fill="none" fill-rule="evenodd" transform="translate(1.000000, 0.000000)">
        <path d="M11.2969,8.703 L11.6119,9.018 L10.9039,9.725 L10.5899,9.41 C9.7459,8.564 8.3689,8.565 7.5229,9.41 L5.6349,11.297 C5.2259,11.707 4.9999,12.251 4.9999,12.831 C4.9999,13.41 5.2259,13.955 5.6349,14.365 C6.4549,15.185 7.8839,15.184 8.7029,14.365 L9.8639,13.204 L10.5709,13.911 L9.4099,15.072 C8.8119,15.67 8.0159,16 7.1689,16 C6.3229,16 5.5269,15.67 4.9279,15.072 C4.3299,14.473 3.9999,13.677 3.9999,12.831 C3.9999,11.984 4.3299,11.188 4.9279,10.59 L6.8149,8.703 C8.0509,7.467 10.0619,7.467 11.2969,8.703 Z M15.0714,4.9286 C15.6704,5.5266 16.0004,6.3226 16.0004,7.1686 C16.0004,8.0156 15.6704,8.8116 15.0714,9.4096 L13.1844,11.2976 C12.5674,11.9146 11.7554,12.2236 10.9434,12.2236 C10.1314,12.2236 9.3204,11.9146 8.7024,11.2976 L8.3874,10.9826 L9.0954,10.2756 L9.4104,10.5906 C10.2564,11.4366 11.6324,11.4356 12.4774,10.5906 L14.3644,8.7026 C14.7744,8.2926 15.0004,7.7486 15.0004,7.1686 C15.0004,6.5896 14.7744,6.0446 14.3644,5.6356 C13.5454,4.8156 12.1164,4.8166 11.2974,5.6356 L10.1364,6.7956 L9.4294,6.0886 L10.5904,4.9286 C11.7864,3.7306 13.8744,3.7306 15.0714,4.9286 Z" id="Combined-Shape" fill="#000000"></path>
    </g>
</svg>