<svg id="Layer_1" xmlns="http://www.w3.org/2000/svg" width="24px" height="24px" viewBox="0 0 24 24"><defs><style>.cls-1{fill-rule:evenodd;}</style></defs><g id="mask-2"><path id="path-1" class="cls-1" d="M17.6,17.6H15.3V13.9c0-.9-.1-2-1.3-2s-1.4,1-1.4,2v3.7H10.2V10h2.3v1h0a2.6,2.6,0,0,1,2.3-1.2c2.4,0,2.8,1.6,2.8,3.6ZM7.6,9A1.4,1.4,0,0,1,6.2,7.6,1.4,1.4,0,0,1,7.6,6.2,1.3,1.3,0,0,1,8.9,7.6,1.4,1.4,0,0,1,7.6,9ZM6.4,17.6H8.7V10H6.4ZM18.8,4H5.2A1.2,1.2,0,0,0,4,5.2V18.8A1.2,1.2,0,0,0,5.2,20H18.8A1.2,1.2,0,0,0,20,18.8V5.2A1.2,1.2,0,0,0,18.8,4Z"/></g><g id="_09-Icons-_-Social-_-Linkdin"><g id="_-Color"><path id="path-1-2" class="cls-1" d="M17.6,17.6H15.3V13.9c0-.9-.1-2-1.3-2s-1.4,1-1.4,2v3.7H10.2V10h2.3v1h0a2.6,2.6,0,0,1,2.3-1.2c2.4,0,2.8,1.6,2.8,3.6ZM7.6,9A1.4,1.4,0,0,1,6.2,7.6,1.4,1.4,0,0,1,7.6,6.2,1.3,1.3,0,0,1,8.9,7.6,1.4,1.4,0,0,1,7.6,9ZM6.4,17.6H8.7V10H6.4ZM18.8,4H5.2A1.2,1.2,0,0,0,4,5.2V18.8A1.2,1.2,0,0,0,5.2,20H18.8A1.2,1.2,0,0,0,20,18.8V5.2A1.2,1.2,0,0,0,18.8,4Z"/></g></g></svg>
