<?xml version="1.0" encoding="UTF-8"?>
<svg width="25px" height="24px" viewBox="0 0 25 24" version="1.1" xmlns="http://www.w3.org/2000/svg" xmlns:xlink="http://www.w3.org/1999/xlink">
    <title>LinkedIn</title>
    <g id="LinkedIn" stroke="none" stroke-width="1" fill="none" fill-rule="evenodd" transform="translate(1.000000, 0.000000)">
        <path d="M18.8164,4.3918 L5.1804,4.3918 C4.5294,4.3918 4.0004,4.9088 4.0004,5.5458 L4.0004,19.2378 C4.0004,19.8738 4.5294,20.3918 5.1804,20.3918 L18.8164,20.3918 C19.4694,20.3918 20.0004,19.8738 20.0004,19.2378 L20.0004,5.5458 C20.0004,4.9088 19.4694,4.3918 18.8164,4.3918 L18.8164,4.3918 Z M6.3714,18.0258 L8.7454,18.0258 L8.7454,10.3898 L6.3714,10.3898 L6.3714,18.0258 Z M7.5584,9.3468 C6.7974,9.3468 6.1834,8.7298 6.1834,7.9708 C6.1834,7.2108 6.7974,6.5948 7.5584,6.5948 C8.3164,6.5948 8.9334,7.2108 8.9334,7.9708 C8.9334,8.7298 8.3164,9.3468 7.5584,9.3468 L7.5584,9.3468 Z M17.6344,18.0258 L15.2624,18.0258 L15.2624,14.3118 C15.2624,13.4258 15.2474,12.2878 14.0294,12.2878 C12.7944,12.2878 12.6064,13.2528 12.6064,14.2478 L12.6064,18.0258 L10.2334,18.0258 L10.2334,10.3898 L12.5094,10.3898 L12.5094,11.4338 L12.5424,11.4338 C12.8594,10.8338 13.6334,10.2008 14.7884,10.2008 C17.1914,10.2008 17.6344,11.7818 17.6344,13.8378 L17.6344,18.0258 Z" id="Fill-9" fill="#000000"></path>
    </g>
</svg>