<?xml version="1.0" encoding="UTF-8"?>
<svg width="31px" height="30px" viewBox="0 0 31 30" version="1.1" xmlns="http://www.w3.org/2000/svg" xmlns:xlink="http://www.w3.org/1999/xlink">
    <title>Link_Large _30X30</title>
    <g id="Link_Large-_30X30" stroke="none" stroke-width="1" fill="none" fill-rule="evenodd" transform="translate(1.000000, 0.000000)">
        <path d="M9.7566,13.0198 C11.7486,11.0278 14.9916,11.0278 16.9836,13.0198 L16.9836,13.0198 L17.5266,13.5628 L16.8196,14.2698 L16.2766,13.7268 C14.6726,12.1238 12.0656,12.1248 10.4636,13.7268 L10.4636,13.7268 L7.2036,16.9868 C6.4276,17.7628 5.9996,18.7948 5.9996,19.8928 C5.9996,20.9908 6.4276,22.0228 7.2036,22.7988 C7.9796,23.5748 9.0126,24.0028 10.1106,24.0028 C11.2076,24.0028 12.2406,23.5748 13.0166,22.7988 L13.0166,22.7988 L15.0216,20.7938 L15.7286,21.5008 L13.7236,23.5058 C12.7586,24.4718 11.4746,25.0028 10.1106,25.0028 C8.7456,25.0028 7.4616,24.4718 6.4966,23.5058 C5.5316,22.5408 4.9996,21.2578 4.9996,19.8928 C4.9996,18.5278 5.5316,17.2448 6.4966,16.2788 L6.4966,16.2788 Z M19.8894,5.003 C21.2544,5.003 22.5384,5.534 23.5034,6.5 C24.4684,7.465 25.0004,8.748 25.0004,10.113 C25.0004,11.479 24.4684,12.762 23.5034,13.727 L23.5034,13.727 L20.2434,16.986 C19.2784,17.952 17.9944,18.483 16.6294,18.483 C15.2654,18.483 13.9814,17.952 13.0164,16.986 L13.0164,16.986 L12.4734,16.443 L13.1804,15.736 L13.7234,16.279 C14.5004,17.056 15.5324,17.483 16.6294,17.483 C17.7274,17.483 18.7594,17.056 19.5364,16.279 L19.5364,16.279 L22.7964,13.02 C23.5724,12.243 24.0004,11.211 24.0004,10.113 C24.0004,9.016 23.5724,7.983 22.7964,7.207 C22.0204,6.431 20.9874,6.003 19.8894,6.003 C18.7924,6.003 17.7594,6.431 16.9834,7.207 L16.9834,7.207 L14.9784,9.212 L14.2714,8.505 L16.2764,6.5 C17.2414,5.534 18.5244,5.003 19.8894,5.003 Z" id="Combined-Shape" fill="#000000"></path>
    </g>
</svg>