<?xml version="1.0" encoding="UTF-8"?>
<svg width="25px" height="24px" viewBox="0 0 25 24" version="1.1" xmlns="http://www.w3.org/2000/svg" xmlns:xlink="http://www.w3.org/1999/xlink">
    <title>LocationFill_Medium_24X24</title>
    <g id="LocationFill_Medium_24X24" stroke="none" stroke-width="1" fill="none" fill-rule="evenodd" transform="translate(1.000000, 0.000000)">
        <path d="M14.4536,10.4785 C14.2676,11.4545 13.4676,12.2515 12.4896,12.4365 C10.7276,12.7695 9.2126,11.2585 9.5466,9.5035 C9.7316,8.5285 10.5326,7.7305 11.5106,7.5455 C13.2716,7.2135 14.7876,8.7235 14.4536,10.4785 M18.9996,9.9995 C18.9996,6.1415 15.8596,3.0015 11.9996,3.0015 C8.1406,3.0015 4.9996,6.1415 4.9996,9.9995 C4.9996,10.0145 5.0006,10.0295 5.0016,10.0435 L4.9996,10.1955 C4.9996,13.0105 6.9946,16.4925 10.9286,20.5435 C11.2136,20.8385 11.5946,21.0015 11.9996,21.0015 L11.9996,21.0015 C12.4056,21.0015 12.7866,20.8385 13.0726,20.5445 C17.0056,16.4945 18.9996,13.0115 18.9996,10.1955 L18.9976,10.0435 C18.9996,10.0295 18.9996,10.0145 18.9996,9.9995" id="Fill-2" fill="#000000"></path>
    </g>
</svg>