<?xml version="1.0" encoding="UTF-8"?>
<svg width="24px" height="24px" viewBox="0 0 24 24" version="1.1" xmlns="http://www.w3.org/2000/svg" xmlns:xlink="http://www.w3.org/1999/xlink">
    <title>Location_Medium_24X24</title>
    <g id="Location_Medium_24X24" stroke="none" stroke-width="1" fill="none" fill-rule="evenodd">
        <path d="M12,2.9997 C15.86,2.9997 19,6.1397 19,9.9987 L19,9.9987 L18.992,10.4987 C18.855,13.2597 16.864,16.6367 13.072,20.5437 C12.786,20.8377 12.405,20.9997 12,20.9997 L12,20.9997 L11.8493887,20.9921648 C11.5012344,20.9571375 11.17825,20.80095 10.928,20.5437 C7.136,16.6367 5.146,13.2597 5.008,10.4987 L5.008,10.4987 L5.002,10.4987 L5.001,10.3327 C5.001,10.2857 5,10.2407 5,10.1937 L5,10.1937 L5.001,10.1387 L5,9.9987 C5,6.1397 8.14,2.9997 12,2.9997 Z M12,3.9997 C8.813,3.9997 6.199,6.4967 6.011,9.6367 L6.011,9.6367 L6,10.1937 C6,11.9447 6.98,15.0407 11.646,19.8467 C11.742,19.9457 11.867,19.9997 12,19.9997 C12.133,19.9997 12.259,19.9457 12.355,19.8467 C17.021,15.0397 18,11.9447 18,10.1937 L18,10.1937 L17.989,9.6367 C17.801,6.4967 15.187,3.9997 12,3.9997 Z M11.4184,7.0555 C12.4064,6.8695 13.4184,7.1755 14.1214,7.8785 C14.8244,8.5825 15.1324,9.5925 14.9444,10.5825 C14.7194,11.7695 13.7704,12.7185 12.5824,12.9445 C12.3914,12.9805 12.1994,12.9985 12.0084,12.9985 C11.2134,12.9985 10.4464,12.6885 9.8794,12.1215 C9.1754,11.4185 8.8674,10.4085 9.0554,9.4175 C9.2804,8.2285 10.2304,7.2795 11.4184,7.0555 Z M12.0024,8.0005 C11.8704,8.0005 11.7374,8.0125 11.6044,8.0385 C10.8284,8.1845 10.1844,8.8285 10.0374,9.6035 C9.9104,10.2785 10.1094,10.9385 10.5864,11.4145 C11.0614,11.8895 11.7204,12.0885 12.3964,11.9615 C13.1714,11.8145 13.8154,11.1705 13.9624,10.3965 C14.0904,9.7215 13.8904,9.0625 13.4144,8.5855 C13.0324,8.2045 12.5324,8.0005 12.0024,8.0005 Z" id="Combined-Shape" fill="#000000"></path>
    </g>
</svg>