<?xml version="1.0" encoding="UTF-8"?>
<svg width="21px" height="20px" viewBox="0 0 21 20" version="1.1" xmlns="http://www.w3.org/2000/svg" xmlns:xlink="http://www.w3.org/1999/xlink">
    <title>Location_Small_20X20</title>
    <g id="Location_Small_20X20" stroke="none" stroke-width="1" fill="none" fill-rule="evenodd" transform="translate(1.000000, 0.000000)">
        <path d="M9.5004,3.0105 C12.5324,3.0105 15.0004,5.4785 15.0004,8.5105 L15.0004,8.5105 L15.0004,8.6605 C15.0004,10.8185 13.5124,13.4655 10.5784,16.5265 C10.2924,16.8255 9.9094,16.9895 9.5004,16.9895 C9.0904,16.9895 8.7074,16.8255 8.4214,16.5265 C5.4874,13.4655 4.0004,10.8185 4.0004,8.6605 L4.0004,8.6605 L4.0024,8.5105 C4.0004,5.4785 6.4674,3.0105 9.5004,3.0105 Z M9.5004,4.0105 C7.0184,4.0105 5.0004,6.0295 5.0004,8.5105 L5.0004,8.5105 L5.0004,8.6115 C5.0004,10.5255 6.4334,13.0065 9.1434,15.8345 C9.3354,16.0345 9.6654,16.0345 9.8564,15.8345 C12.5664,13.0065 14.0004,10.5255 14.0004,8.6605 L14.0004,8.6605 L13.9984,8.5255 C13.9994,7.3085 13.5314,6.1785 12.6814,5.3285 C11.8324,4.4795 10.7024,4.0105 9.5004,4.0105 Z M9.0157,6.0568 C9.8457,5.8998 10.6847,6.1578 11.2717,6.7448 C11.8547,7.3288 12.1097,8.1678 11.9537,8.9878 C11.7657,9.9748 10.9747,10.7638 9.9847,10.9508 C9.8257,10.9818 9.6657,10.9958 9.5077,10.9958 C8.8427,10.9958 8.2017,10.7378 7.7287,10.2628 C7.1447,9.6788 6.8897,8.8408 7.0457,8.0208 C7.2337,7.0328 8.0257,6.2438 9.0157,6.0568 Z M9.5007,7.0108 C9.4017,7.0108 9.3017,7.0198 9.2007,7.0388 C8.6207,7.1488 8.1387,7.6298 8.0287,8.2068 C7.9327,8.7098 8.0817,9.2008 8.4357,9.5568 C8.7937,9.9148 9.2917,10.0648 9.7987,9.9688 C10.3797,9.8588 10.8617,9.3788 10.9717,8.8008 C11.0677,8.2988 10.9187,7.8068 10.5637,7.4518 C10.2777,7.1648 9.9007,7.0108 9.5007,7.0108 Z" id="Combined-Shape" fill="#000000"></path>
    </g>
</svg>