<?xml version="1.0" encoding="UTF-8"?>
<svg width="21px" height="20px" viewBox="0 0 21 20" version="1.1" xmlns="http://www.w3.org/2000/svg" xmlns:xlink="http://www.w3.org/1999/xlink">
    <title>LockFill_Small_20X20</title>
    <g id="LockFill_Small_20X20" stroke="none" stroke-width="1" fill="none" fill-rule="evenodd" transform="translate(1.000000, 0.000000)">
        <path d="M8,6 C8,4.897 8.897,4 10,4 C11.103,4 12,4.897 12,6 L12,8 L8,8 L8,6 Z M14.5,8 L13,8 L13,6 C13,4.346 11.654,3 10,3 C8.346,3 7,4.346 7,6 L7,8 L5.5,8 C4.673,8 4,8.672 4,9.5 L4,15.5 C4,16.327 4.673,17 5.5,17 L14.5,17 C15.327,17 16,16.327 16,15.5 L16,9.5 C16,8.672 15.327,8 14.5,8 L14.5,8 Z" id="Fill-2" fill="#000000"></path>
    </g>
</svg>