<?xml version="1.0" encoding="UTF-8"?>
<svg width="24px" height="24px" viewBox="0 0 24 24" version="1.1" xmlns="http://www.w3.org/2000/svg" xmlns:xlink="http://www.w3.org/1999/xlink">
    <title>More_Medium_24X24</title>
    <g id="More_Medium_24X24" stroke="none" stroke-width="1" fill="none" fill-rule="evenodd">
        <path d="M12.5,17 C13.329,17 14,17.672 14,18.5 C14,19.328 13.329,20 12.5,20 C11.671,20 11,19.328 11,18.5 C11,17.672 11.671,17 12.5,17 Z M12.5,11 C13.329,11 14,11.672 14,12.5 C14,13.328 13.329,14 12.5,14 C11.671,14 11,13.328 11,12.5 C11,11.672 11.671,11 12.5,11 Z M12.5,5 C13.329,5 14,5.672 14,6.5 C14,7.328 13.329,8 12.5,8 C11.671,8 11,7.328 11,6.5 C11,5.672 11.671,5 12.5,5 Z" id="Combined-Shape" fill="#000000"></path>
    </g>
</svg>