<?xml version="1.0" encoding="UTF-8"?>
<svg width="25px" height="24px" viewBox="0 0 25 24" version="1.1" xmlns="http://www.w3.org/2000/svg" xmlns:xlink="http://www.w3.org/1999/xlink">
    <title>Notifications_Medium_24X24</title>
    <g id="Notifications_Medium_24X24" stroke="none" stroke-width="1" fill="none" fill-rule="evenodd" transform="translate(1.000000, 0.000000)">
        <path d="M5.0103,17 L6.9043,14.394 C6.9673,14.309 7.0003,14.205 7.0003,14.1 L7.0003,9.995 C7.0003,7.786 8.4193,5.866 10.5323,5.217 C10.7523,5.149 10.8873,4.865 10.8753,4.636 C10.8753,4.01 11.3803,3.5 12.0003,3.5 C12.6203,3.5 13.1253,4.01 13.1153,4.711 C13.1023,4.94 13.2483,5.149 13.4683,5.217 C15.5803,5.864 17.0003,7.784 17.0003,9.995 L17.0003,14.1 C17.0003,14.205 17.0333,14.309 17.0953,14.394 L18.9893,17 L5.0103,17 Z M12.0003,19.5 C11.1733,19.5 10.5003,18.827 10.5003,18 L13.5003,18 C13.5003,18.827 12.8273,19.5 12.0003,19.5 L12.0003,19.5 Z M19.7983,16.412 L18.0003,13.937 L18.0003,9.995 C18.0003,7.466 16.4513,5.253 14.1103,4.379 C13.9833,3.321 13.0853,2.5 12.0003,2.5 C10.9143,2.5 10.0163,3.322 9.8903,4.38 C7.5483,5.255 6.0003,7.468 6.0003,9.995 L6.0003,13.937 L4.2013,16.412 C3.9793,16.718 3.9483,17.116 4.1193,17.453 C4.2913,17.791 4.6323,18 5.0103,18 L9.5003,18 C9.5003,19.379 10.6213,20.5 12.0003,20.5 C13.3783,20.5 14.5003,19.379 14.5003,18 L18.9893,18 C19.3673,18 19.7093,17.791 19.8813,17.453 C20.0523,17.116 20.0203,16.718 19.7983,16.412 L19.7983,16.412 Z" id="Fill-2" fill="#000000"></path>
    </g>
</svg>