<?xml version="1.0" encoding="UTF-8"?>
<svg width="31px" height="30px" viewBox="0 0 31 30" version="1.1" xmlns="http://www.w3.org/2000/svg" xmlns:xlink="http://www.w3.org/1999/xlink">
    <title>NotificationsFill_Large _30X30</title>
    <g id="NotificationsFill_Large-_30X30" stroke="none" stroke-width="1" fill="none" fill-rule="evenodd" transform="translate(1.000000, 0.000000)">
        <path d="M17.4918,25 C17.2318,26.418 15.9928,27.499 14.4998,27.499 C13.0078,27.499 11.7678,26.418 11.5088,25 L11.5088,25 Z M14.5003,3.9999 C15.7403,3.9999 16.7503,5.0099 16.7503,6.2499 C16.7503,6.2919 16.7403,6.3309 16.7373,6.3729 C19.7183,7.4339 22.0013,10.5089 22.0013,13.9259 L22.0013,13.9259 L22.0013,19.9839 L23.7983,22.3779 C24.0273,22.6819 24.0643,23.0829 23.8933,23.4239 C23.7233,23.7659 23.3803,23.9779 22.9993,23.9779 L22.9993,23.9779 L6.0013,23.9779 C5.6193,23.9779 5.2763,23.7659 5.1063,23.4239 C4.9363,23.0819 4.9723,22.6819 5.2023,22.3769 L5.2023,22.3769 L7.0013,19.9839 L7.0013,13.9259 C7.0013,10.5099 9.2833,7.4359 12.2623,6.3739 C12.2603,6.3319 12.2503,6.2929 12.2503,6.2499 C12.2503,5.0099 13.2593,3.9999 14.5003,3.9999 Z" id="Combined-Shape" fill="#000000"></path>
    </g>
</svg>