<?xml version="1.0" encoding="UTF-8"?>
<svg width="21px" height="20px" viewBox="0 0 21 20" version="1.1" xmlns="http://www.w3.org/2000/svg" xmlns:xlink="http://www.w3.org/1999/xlink">
    <title>Notifications_Small_20X20</title>
    <g id="Notifications_Small_20X20" stroke="none" stroke-width="1" fill="none" fill-rule="evenodd" transform="translate(1.000000, 0.000000)">
        <path d="M4.501,13.9971 L5.932,11.5491 C5.977,11.4731 6,11.3851 6,11.2971 L6,8.5001 C6,7.0291 6.94,5.7091 8.34,5.2141 C8.526,5.1481 8.656,4.9791 8.672,4.7831 C8.708,4.3361 9.064,4.0001 9.5,4.0001 C9.936,4.0001 10.292,4.3361 10.328,4.7831 C10.344,4.9791 10.474,5.1481 10.66,5.2141 C12.06,5.7091 13.001,7.0291 13.001,8.5001 L13,11.2971 C13,11.3861 13.023,11.4731 13.068,11.5491 L14.5,13.9971 L4.501,13.9971 Z M9.5,16.0001 C8.913,16.0001 8.446,15.5601 8.36,14.9971 L10.64,14.9971 C10.554,15.5601 10.087,16.0001 9.5,16.0001 L9.5,16.0001 Z M15.363,13.4921 L14,11.1621 L14.001,8.5001 C14.001,6.7061 12.916,5.0861 11.272,4.3801 C11.065,3.5741 10.352,3.0001 9.5,3.0001 C8.648,3.0001 7.935,3.5741 7.729,4.3801 C6.084,5.0861 5,6.7061 5,8.5001 L5,11.1621 L3.638,13.4921 C3.455,13.8051 3.453,14.1801 3.633,14.4941 C3.814,14.8091 4.138,14.9971 4.501,14.9971 L7.343,14.9971 C7.432,16.1151 8.359,17.0001 9.5,17.0001 C10.641,17.0001 11.568,16.1151 11.657,14.9971 L14.5,14.9971 C14.862,14.9971 15.186,14.8091 15.367,14.4951 C15.547,14.1801 15.546,13.8061 15.363,13.4921 L15.363,13.4921 Z" id="Fill-2" fill="#000000"></path>
    </g>
</svg>