<?xml version="1.0" encoding="UTF-8"?>
<svg width="20px" height="20px" viewBox="0 0 20 20" version="1.1" xmlns="http://www.w3.org/2000/svg" xmlns:xlink="http://www.w3.org/1999/xlink">
    <title>NumberedList_Small_20X20</title>
    <g id="NumberedList_Small_20X20" stroke="none" stroke-width="1" fill="none" fill-rule="evenodd">
        <path d="M6,14 L6,18 L3,18 L3,17 L5,17 L5,16.5 L4,16.5 L4,15.5 L5,15.5 L5,15 L3,15 L3,14 L6,14 Z M17,16 L17,17 L8,17 L8,16 L17,16 Z M6,8 L6,9.809 L4,10.809 L4,11 L6,11 L6,12 L3,12 L3,10.191 L5,9.191 L5,9 L3,9 L3,8 L6,8 Z M17,10 L17,11 L8,11 L8,10 L17,10 Z M5,2 L5,6 L4,6 L4,3 L3,3 L3,2 L5,2 Z M17,4 L17,5 L8,5 L8,4 L17,4 Z" id="Combined-Shape" fill="#000000"></path>
    </g>
</svg>