<?xml version="1.0" encoding="UTF-8"?>
<svg width="25px" height="24px" viewBox="0 0 25 24" version="1.1" xmlns="http://www.w3.org/2000/svg" xmlns:xlink="http://www.w3.org/1999/xlink">
    <title>Odnoklassniki</title>
    <g id="Odnoklassniki" stroke="none" stroke-width="1" fill="none" fill-rule="evenodd" transform="translate(1.000000, 0.000000)">
        <path d="M7.14750187,12.5877 C7.37581766,12.1557 7.97839384,11.787423 8.78347592,12.3135825 L9.01564539,12.4765889 L9.01564539,12.4765889 L9.133455,12.5507937 L9.133455,12.5507937 L9.29565002,12.6438111 L9.29565002,12.6438111 L9.5006506,12.7493701 C10.0276963,13.0054292 10.8914185,13.3127 12.0015019,13.3127 C13.0312102,13.3127 13.8493751,13.0477573 14.3830494,12.8048931 L14.6088944,12.6954148 C14.64308,12.6777781 14.6755158,12.6605333 14.7061685,12.6438111 L14.8684237,12.5507938 L14.8684237,12.5507938 L15.0280859,12.4485008 L15.0280859,12.4485008 L15.0825019,12.4097 C15.9555019,11.7507 16.6115019,12.1317 16.8555019,12.5877 C17.1728703,13.2216474 16.950488,13.5938219 16.3217018,14.0471853 L16.0488284,14.2336738 L16.0488284,14.2336738 L15.7345019,14.4337 C14.9272291,14.9282455 13.841444,15.1517165 13.0436379,15.249117 L12.8135019,15.2747 L15.9705019,18.3017 L15.9705019,18.3017 C16.8765019,19.1957 15.4025019,20.5917 14.4865019,19.7297 L12.2917529,17.609201 L12.2917529,17.609201 L12.0085019,17.3367 L9.53050187,19.7257 C8.61450187,20.5857 7.14050187,19.1767 8.05650187,18.2987 L11.2038729,15.2716186 L11.2038729,15.2716186 L10.9949573,15.2485449 C10.1997171,15.1534153 9.08650187,14.9403667 8.26150187,14.4307 L7.94718346,14.2317777 C7.11449079,13.6892152 6.7815545,13.3061737 7.14750187,12.5877 Z M11.9996019,4 C14.3186019,4 16.2116019,5.812 16.2116019,8.053 C16.2116019,10.283 14.3186019,12.095 11.9996019,12.095 C9.68060187,12.095 7.78760187,10.283 7.78760187,8.053 C7.78760187,5.812 9.68060187,4 11.9996019,4 Z M11.9996019,6.053 C10.8596019,6.053 9.93060187,6.946 9.93160026,8.053 C9.93160026,9.148 10.8606019,10.042 11.9996019,10.042 C13.1396019,10.042 14.0686019,9.148 14.0686019,8.053 C14.0686019,6.947 13.1396019,6.053 11.9996019,6.053 Z" id="Shape" fill="#000000"></path>
    </g>
</svg>