<svg id="Layer_1" xmlns="http://www.w3.org/2000/svg" width="24px" height="24px" viewBox="0 0 24 24"><defs><style>.cls-1{fill-rule:evenodd;}</style></defs><g id="_09-Icons-_-Social-_-Odnoklassniki"><g id="Group-5"><path id="Fill-1" class="cls-1" d="M7.1,12.6c-.4.8.1,1.2,1.2,1.8a6.9,6.9,0,0,0,2.9.9l-3.1,3c-1,.9.5,2.3,1.4,1.4L12,17.3l2.5,2.4c.9.9,2.4-.5,1.5-1.4l-3.2-3a6.9,6.9,0,0,0,2.9-.9h0c1.1-.6,1.6-1,1.2-1.8s-.9-.9-1.8-.2a5.5,5.5,0,0,1-3.1.9,5.5,5.5,0,0,1-3.1-.9c-.9-.7-1.5-.3-1.8.2"/><path id="Fill-3" class="cls-1" d="M12,6.1a2,2,0,0,1,2.1,2,2.1,2.1,0,0,1-4.2,0,2,2,0,0,1,2.1-2m0,6a4.1,4.1,0,0,0,4.2-4,4.2,4.2,0,0,0-8.4,0,4.1,4.1,0,0,0,4.2,4"/></g></g></svg>
