<svg xmlns="http://www.w3.org/2000/svg" width="24" height="24" viewBox="0 0 24 24">
  <path fill-rule="evenodd" d="M11.5,3 C16.187,3 20,6.813 20,11.5 C20,16.187 16.187,20 11.5,20 C6.813,20 3,16.187 3,11.5 C3,6.813 6.813,3 11.5,3 Z M11.5,4 C7.364,4 4,7.364 4,11.5 C4,15.636 7.364,19 11.5,19 C15.636,19 19,15.636 19,11.5 C19,7.364 15.636,4 11.5,4 Z M14,12.002 C15.104,12.002 16,12.897 16,14.002 C16,15.106 15.104,16.002 14,16.002 C12.896,16.002 12,15.106 12,14.002 C12,12.897 12.896,12.002 14,12.002 Z M14.6465,7.6484 L15.3535,8.3554 L8.3535,15.3554 L7.6465,14.6484 L14.6465,7.6484 Z M14,13.002 C13.449,13.002 13,13.45 13,14.002 C13,14.553 13.449,15.002 14,15.002 C14.551,15.002 15,14.553 15,14.002 C15,13.45 14.551,13.002 14,13.002 Z M9,7.002 C10.104,7.002 11,7.897 11,9.002 C11,10.106 10.104,11.002 9,11.002 C7.896,11.002 7,10.106 7,9.002 C7,7.897 7.896,7.002 9,7.002 Z M9,8.002 C8.449,8.002 8,8.45 8,9.002 C8,9.553 8.449,10.002 9,10.002 C9.551,10.002 10,9.553 10,9.002 C10,8.45 9.551,8.002 9,8.002 Z"/>
</svg>
