<?xml version="1.0" encoding="UTF-8"?>
<svg width="21px" height="20px" viewBox="0 0 21 20" version="1.1" xmlns="http://www.w3.org/2000/svg" xmlns:xlink="http://www.w3.org/1999/xlink">
    <title>Phone_Small_20X20</title>
    <g id="Phone_Small_20X20" stroke="none" stroke-width="1" fill="none" fill-rule="evenodd" transform="translate(1.000000, 0.000000)">
        <path d="M5.8281,5.0625 C4.8911,5.9625 4.8791,6.7395 5.1631,7.6995 C5.1651,7.7045 5.9191,9.8975 8.0101,11.9905 C10.1021,14.0805 12.2951,14.8345 12.3171,14.8425 C13.2641,15.1235 14.0401,15.1095 14.9421,14.1665 C15.0351,14.0645 15.0181,13.8775 14.8981,13.7565 L13.0691,11.9275 C12.9501,11.8085 12.8581,11.8085 12.7391,11.9275 L12.3161,12.3505 C11.9001,12.8335 11.0931,13.0005 10.4831,12.7005 C10.4491,12.6875 10.4151,12.6705 10.3851,12.6505 C9.7961,12.2655 9.2391,11.7935 8.7281,11.2495 C8.2061,10.7615 7.7351,10.2045 7.3491,9.6155 C7.3281,9.5835 7.3111,9.5495 7.2991,9.5145 C7.1951,9.3035 7.1401,9.0685 7.1401,8.8305 C7.1401,8.3825 7.3351,7.9565 7.6751,7.6605 L8.0721,7.2615 C8.1321,7.2015 8.1411,7.1325 8.1411,7.0965 C8.1411,7.0605 8.1321,6.9905 8.0731,6.9315 L6.2431,5.1015 C6.1241,4.9815 5.9391,4.9655 5.8281,5.0625 M13.2591,16.0015 C12.8221,16.0015 12.4061,15.9115 12.0161,15.7955 C11.9021,15.7575 9.5711,14.9635 7.3021,12.6985 C5.0361,10.4285 4.2421,8.0975 4.2091,7.9995 C3.8911,6.9235 3.7561,5.6615 5.1421,4.3345 C5.1451,4.3325 5.1471,4.3295 5.1501,4.3275 C5.6561,3.8635 6.4471,3.8935 6.9501,4.3945 L8.7791,6.2245 C9.0121,6.4565 9.1411,6.7665 9.1411,7.0965 C9.1411,7.4255 9.0121,7.7355 8.7791,7.9685 L8.3561,8.3915 C8.2101,8.5205 8.1401,8.6715 8.1401,8.8305 C8.1401,8.9265 8.1631,9.0155 8.2081,9.0975 C8.2121,9.1045 8.2161,9.1105 8.2191,9.1185 C8.5561,9.6225 8.9641,10.1015 9.4351,10.5425 C9.8981,11.0355 10.3781,11.4445 10.8821,11.7805 C10.8891,11.7845 10.8961,11.7875 10.9031,11.7915 C11.1191,11.9125 11.4161,11.8625 11.5851,11.6685 L12.0321,11.2205 C12.4981,10.7545 13.3111,10.7545 13.7761,11.2215 L15.6051,13.0495 C16.1071,13.5515 16.1361,14.3425 15.6731,14.8495 C14.8281,15.7315 14.0131,16.0015 13.2591,16.0015" id="Fill-2" fill="#000000"></path>
    </g>
</svg>