<?xml version="1.0" encoding="UTF-8"?>
<svg width="24px" height="24px" viewBox="0 0 24 24" version="1.1" xmlns="http://www.w3.org/2000/svg" xmlns:xlink="http://www.w3.org/1999/xlink">
    <title>Pinterest</title>
    <g id="Pinterest" stroke="none" stroke-width="1" fill="none" fill-rule="evenodd">
        <path d="M12.0068,4.4113 C7.5848,4.4113 3.9998,7.9813 3.9998,12.3853 C3.9998,15.7653 6.1088,18.6523 9.0868,19.8143 C9.0148,19.1833 8.9548,18.2133 9.1128,17.5233 C9.2588,16.9003 10.0498,13.5593 10.0498,13.5593 C10.0498,13.5593 9.8128,13.0803 9.8128,12.3783 C9.8128,11.2693 10.4578,10.4423 11.2618,10.4423 C11.9468,10.4423 12.2768,10.9543 12.2768,11.5643 C12.2768,12.2473 11.8418,13.2713 11.6108,14.2233 C11.4198,15.0163 12.0128,15.6663 12.7968,15.6663 C14.2208,15.6663 15.3148,14.1703 15.3148,12.0173 C15.3148,10.1083 13.9378,8.7753 11.9668,8.7753 C9.6868,8.7753 8.3498,10.4753 8.3498,12.2343 C8.3498,12.9163 8.6128,13.6513 8.9428,14.0523 C9.0078,14.1313 9.0148,14.2033 8.9948,14.2813 C8.9358,14.5313 8.7968,15.0763 8.7708,15.1873 C8.7378,15.3323 8.6528,15.3643 8.5008,15.2923 C7.4988,14.8263 6.8728,13.3763 6.8728,12.2013 C6.8728,9.6873 8.7048,7.3773 12.1648,7.3773 C14.9398,7.3773 17.1008,9.3473 17.1008,11.9853 C17.1008,14.7343 15.3608,16.9463 12.9488,16.9463 C12.1388,16.9463 11.3738,16.5263 11.1168,16.0273 C11.1168,16.0273 10.7148,17.5503 10.6158,17.9243 C10.4388,18.6203 9.9498,19.4863 9.6208,20.0173 C10.3718,20.2473 11.1628,20.3723 11.9928,20.3723 C16.4148,20.3723 19.9998353,16.8023 19.9998353,12.3983 C20.0128,7.9813 16.4288,4.4113 12.0068,4.4113" id="Fill-15" fill="#000000"></path>
    </g>
</svg>