<svg id="Layer_1" xmlns="http://www.w3.org/2000/svg" width="24px" height="24px" viewBox="0 0 24 24"><defs><style>.cls-1{fill-rule:evenodd;}</style></defs><g id="_09-Icons-_-Social-_-Pinterest"><path id="_-Color" class="cls-1" d="M12,4a8,8,0,0,0-8,8,7.8,7.8,0,0,0,5.1,7.4,8.8,8.8,0,0,1,0-2.3c.2-.6.9-3.9.9-3.9A3.5,3.5,0,0,1,9.8,12a1.7,1.7,0,0,1,1.5-1.9,1,1,0,0,1,1,1.1,17.1,17.1,0,0,1-.7,2.6,1.2,1.2,0,0,0,1.2,1.5c1.4,0,2.5-1.5,2.5-3.7A3.1,3.1,0,0,0,12,8.4a3.5,3.5,0,0,0-3.7,3.4,3.6,3.6,0,0,0,.6,1.9c.1,0,.1.1.1.2a3.7,3.7,0,0,0-.2.9c-.1.1-.1.2-.3.1a3.6,3.6,0,0,1-1.6-3.1C6.9,9.3,8.7,7,12.2,7a4.7,4.7,0,0,1,4.9,4.6c0,2.7-1.7,5-4.2,5a2.2,2.2,0,0,1-1.8-1l-.5,1.9a6.8,6.8,0,0,1-1,2.1A6.7,6.7,0,0,0,12,20,8,8,0,0,0,12,4Z"/></g></svg>
