<?xml version="1.0" encoding="UTF-8"?>
<svg width="31px" height="30px" viewBox="0 0 31 30" version="1.1" xmlns="http://www.w3.org/2000/svg" xmlns:xlink="http://www.w3.org/1999/xlink">
    <title>PlayButton_Large _30X30</title>
    <g id="PlayButton_Large-_30X30" stroke="none" stroke-width="1" fill="none" fill-rule="evenodd" transform="translate(1.000000, 0.000000)">
        <path d="M14.5,4 C20.29,4 25,8.71 25,14.5 C25,20.29 20.29,25 14.5,25 C8.71,25 4,20.29 4,14.5 C4,8.71 8.71,4 14.5,4 Z M14.5,5 C9.262,5 5,9.262 5,14.5 C5,19.738 9.262,24 14.5,24 C19.738,24 24,19.738 24,14.5 C24,9.262 19.738,5 14.5,5 Z M12.264,10.0594 C12.426,9.9714 12.625,9.9824 12.777,10.0844 L12.777,10.0844 L18.777,14.0834 C18.917,14.1754 19,14.3324 19,14.4994 C19,14.6664 18.917,14.8224 18.777,14.9154 L18.777,14.9154 L12.777,18.9164 C12.694,18.9714 12.597,19.0004 12.5,19.0004 C12.419,19.0004 12.338,18.9804 12.264,18.9404 C12.102,18.8534 12,18.6844 12,18.5004 L12,18.5004 L12,10.5004 C12,10.3154 12.102,10.1464 12.264,10.0594 Z M13,11.4344 L13,17.5654 L17.599,14.4994 L13,11.4344 Z" id="Combined-Shape" fill="#000000"></path>
    </g>
</svg>