<?xml version="1.0" encoding="UTF-8"?>
<svg width="25px" height="24px" viewBox="0 0 25 24" version="1.1" xmlns="http://www.w3.org/2000/svg" xmlns:xlink="http://www.w3.org/1999/xlink">
    <title>PlayButton_Medium_24X24</title>
    <g id="PlayButton_Medium_24X24" stroke="none" stroke-width="1" fill="none" fill-rule="evenodd" transform="translate(1.000000, 0.000000)">
        <path d="M11.5,3 C16.187,3 20,6.813 20,11.5 C20,16.187 16.187,20 11.5,20 C6.813,20 3,16.187 3,11.5 C3,6.813 6.813,3 11.5,3 Z M11.5,4 C7.364,4 4,7.364 4,11.5 C4,15.636 7.364,19 11.5,19 C15.636,19 19,15.636 19,11.5 C19,7.364 15.636,4 11.5,4 Z M9.764,8.0594 C9.926,7.9714 10.125,7.9814 10.277,8.0844 L10.277,8.0844 L14.777,11.0834 C14.917,11.1754 15,11.3324 15,11.4994 C15,11.6664 14.917,11.8224 14.777,11.9154 L14.777,11.9154 L10.277,14.9164 C10.194,14.9714 10.097,15.0004 10,15.0004 C9.919,15.0004 9.838,14.9804 9.764,14.9404 C9.602,14.8534 9.5,14.6844 9.5,14.5004 L9.5,14.5004 L9.5,8.5004 C9.5,8.3154 9.602,8.1464 9.764,8.0594 Z M10.5,9.4344 L10.5,13.5654 L13.599,11.4994 L10.5,9.4344 Z" id="Combined-Shape" fill="#000000"></path>
    </g>
</svg>