<?xml version="1.0" encoding="UTF-8"?>
<svg width="21px" height="20px" viewBox="0 0 21 20" version="1.1" xmlns="http://www.w3.org/2000/svg" xmlns:xlink="http://www.w3.org/1999/xlink">
    <title>PlayButton_Small_20X20</title>
    <g id="PlayButton_Small_20X20" stroke="none" stroke-width="1" fill="none" fill-rule="evenodd" transform="translate(1.000000, 0.000000)">
        <path d="M9.5,3 C13.084,3 16,5.916 16,9.5 C16,13.084 13.084,16 9.5,16 C5.916,16 3,13.084 3,9.5 C3,5.916 5.916,3 9.5,3 Z M9.5,4 C6.467,4 4,6.467 4,9.5 C4,12.533 6.467,15 9.5,15 C12.533,15 15,12.533 15,9.5 C15,6.467 12.533,4 9.5,4 Z M8,7 L12,9.5 L8,12 L8,7 Z" id="Combined-Shape" fill="#000000"></path>
    </g>
</svg>