<?xml version="1.0" encoding="UTF-8"?>
<svg width="24px" height="24px" viewBox="0 0 24 24" version="1.1" xmlns="http://www.w3.org/2000/svg" xmlns:xlink="http://www.w3.org/1999/xlink">
    <title>Podcast</title>
    <g id="Podcast" stroke="none" stroke-width="1" fill="none" fill-rule="evenodd">
        <path d="M12.002,9.631 C11.279,9.631 10.692,10.217 10.692,10.941 C10.692,11.664 11.279,12.25 12.002,12.25 C12.726,12.25 13.312,11.664 13.312,10.941 C13.312,10.217 12.726,9.631 12.002,9.631 L12.002,9.631 Z M11.856,7.635 C9.861,7.712 8.262,9.357 8.235,11.352 C8.219,12.665 8.877,13.828 9.884,14.515 C9.935,14.549 10.003,14.51 9.999,14.45 C9.985,14.219 9.981,14.016 9.992,13.806 C9.996,13.738 9.97,13.671 9.919,13.624 C9.308,13.049 8.933,12.227 8.956,11.319 C8.998,9.721 10.287,8.416 11.884,8.354 C13.62,8.287 15.054,9.68 15.054,11.401 C15.054,12.277 14.683,13.067 14.09,13.624 C14.04,13.671 14.013,13.738 14.017,13.806 C14.028,14.016 14.024,14.219 14.011,14.449 C14.007,14.51 14.075,14.549 14.126,14.515 C15.12,13.836 15.773,12.694 15.773,11.401 C15.773,9.274 14.001,7.552 11.856,7.635 L11.856,7.635 Z M11.985,5.77297604 C8.923,5.782 6.414,8.266 6.376,11.328 C6.346,13.809 7.929,15.931 10.14,16.709 C10.193,16.728 10.248,16.683 10.239,16.627 C10.211,16.434 10.184,16.241 10.158,16.05 C10.149,15.983 10.106,15.925 10.044,15.898 C8.297,15.134 7.076,13.381 7.096,11.351 C7.121,8.687 9.297,6.515 11.962,6.493 C14.686,6.471 16.908,8.681 16.908,11.4 C16.908,13.41 15.693,15.14 13.96,15.898 C13.898,15.925 13.855,15.983 13.846,16.05 C13.821,16.241 13.794,16.434 13.765,16.627 C13.756,16.683 13.811,16.728 13.864,16.709 C16.055,15.938 17.629,13.849 17.629,11.4 C17.628,8.292 15.096,5.764 11.985,5.77297604 L11.985,5.77297604 Z M12.001,12.78 C11.503,12.78 11.081,12.943 10.841,13.196 C10.716,13.329 10.649,13.464 10.629,13.657 C10.588,14.031 10.611,14.352 10.655,14.867 C10.696,15.357 10.775,16.011 10.879,16.677 C10.953,17.151 11.013,17.407 11.066,17.59 C11.155,17.887 11.485,18.147 12.001,18.147 C12.517,18.147 12.847,17.887 12.935,17.59 C12.989,17.407 13.049,17.151 13.122,16.677 C13.226,16.011 13.305,15.357 13.347,14.867 C13.391,14.352 13.413,14.031 13.373,13.657 C13.352,13.464 13.285,13.329 13.16,13.196 C12.92,12.943 12.499,12.78 12.001,12.78 L12.001,12.78 Z M15.6,4 C16.388,4 17.021,4.051 17.534,4.203 C18.016,4.346 18.366,4.563 18.66,4.789 C19.169,5.181 19.528,5.737 19.684,6.132 C19.997,6.928 20,7.831 20,8.4 L20,15.599 C20,16.169 19.997,17.072 19.684,17.868 C19.528,18.262 19.169,18.819 18.66,19.211 C18.366,19.437 18.016,19.653 17.533,19.796 C17.021,19.948 16.388,20 15.6,20 L8.4,20 C7.612,20 6.98,19.948 6.466,19.796 C5.984,19.653 5.634,19.437 5.34,19.211 C4.831,18.819 4.472,18.262 4.316,17.868 C4.034,17.151 4.004,16.348 4,15.78 L4,8.4 C4,7.831 4.003,6.928 4.316,6.132 C4.472,5.737 4.831,5.18 5.34,4.789 C5.634,4.563 5.984,4.346 6.466,4.203 C6.916,4.07 7.456,4.014 8.112,4.002 L8.4,4 L15.6,4 Z" id="Fill-19" fill="#000000"></path>
    </g>
</svg>