<svg id="Layer_1" xmlns="http://www.w3.org/2000/svg" width="24px" height="24px" viewBox="0 0 24 24"><defs><style>.cls-1{fill-rule:evenodd;}</style></defs><g id="mask-2"><path id="path-1" class="cls-1" d="M15.6,4l1.9.2a3.4,3.4,0,0,1,1.2.6,3.8,3.8,0,0,1,1,1.3A6.6,6.6,0,0,1,20,8.4v7.2a6.6,6.6,0,0,1-.3,2.3,3.8,3.8,0,0,1-1,1.3,3.4,3.4,0,0,1-1.2.6l-1.9.2H8.4l-1.9-.2a3.4,3.4,0,0,1-1.2-.6,3.8,3.8,0,0,1-1-1.3A5.6,5.6,0,0,1,4,15.8V8.4a6.6,6.6,0,0,1,.3-2.3,3.8,3.8,0,0,1,1-1.3,3.4,3.4,0,0,1,1.2-.6L8.1,4h7.5ZM12,12.8a1.6,1.6,0,0,0-1.2.4.8.8,0,0,0-.2.5,5.7,5.7,0,0,0,.1,1.2,14.1,14.1,0,0,0,.2,1.8,4.1,4.1,0,0,0,.2.9c.1.3.4.5.9.5s.8-.2.9-.5a4.1,4.1,0,0,0,.2-.9,14.1,14.1,0,0,0,.2-1.8,5.7,5.7,0,0,0,.1-1.2.8.8,0,0,0-.2-.5A1.6,1.6,0,0,0,12,12.8Zm0-7a5.6,5.6,0,0,0-1.9,10.9h.1v-.5l-.2-.2a5,5,0,0,1-2.9-4.5,4.9,4.9,0,1,1,9.8,0A5,5,0,0,1,14,15.9l-.2.2v.5h.1A5.6,5.6,0,0,0,12,5.8Zm-.1,1.8a4,4,0,0,0-3.7,3.8,3.8,3.8,0,0,0,1.7,3.1H10v-.6c0-.1,0-.1-.1-.2A2.7,2.7,0,0,1,9,11.3a2.9,2.9,0,0,1,2.9-2.9,3.1,3.1,0,0,1,3.2,3,2.9,2.9,0,0,1-1,2.2c-.1.1-.1.1-.1.2v.6h.1a3.8,3.8,0,0,0,1.7-3.1A3.9,3.9,0,0,0,11.9,7.6Zm.1,2a1.3,1.3,0,0,0-1.3,1.3,1.3,1.3,0,1,0,2.6,0A1.3,1.3,0,0,0,12,9.6Z"/></g><g id="_09-Icons-_-Social-_-Podcast"><g id="_-Color"><path id="path-1-2" class="cls-1" d="M15.6,4l1.9.2a3.4,3.4,0,0,1,1.2.6,3.8,3.8,0,0,1,1,1.3A6.6,6.6,0,0,1,20,8.4v7.2a6.6,6.6,0,0,1-.3,2.3,3.8,3.8,0,0,1-1,1.3,3.4,3.4,0,0,1-1.2.6l-1.9.2H8.4l-1.9-.2a3.4,3.4,0,0,1-1.2-.6,3.8,3.8,0,0,1-1-1.3A5.6,5.6,0,0,1,4,15.8V8.4a6.6,6.6,0,0,1,.3-2.3,3.8,3.8,0,0,1,1-1.3,3.4,3.4,0,0,1,1.2-.6L8.1,4h7.5ZM12,12.8a1.6,1.6,0,0,0-1.2.4.8.8,0,0,0-.2.5,5.7,5.7,0,0,0,.1,1.2,14.1,14.1,0,0,0,.2,1.8,4.1,4.1,0,0,0,.2.9c.1.3.4.5.9.5s.8-.2.9-.5a4.1,4.1,0,0,0,.2-.9,14.1,14.1,0,0,0,.2-1.8,5.7,5.7,0,0,0,.1-1.2.8.8,0,0,0-.2-.5A1.6,1.6,0,0,0,12,12.8Zm0-7a5.6,5.6,0,0,0-1.9,10.9h.1v-.5l-.2-.2a5,5,0,0,1-2.9-4.5,4.9,4.9,0,1,1,9.8,0A5,5,0,0,1,14,15.9l-.2.2v.5h.1A5.6,5.6,0,0,0,12,5.8Zm-.1,1.8a4,4,0,0,0-3.7,3.8,3.8,3.8,0,0,0,1.7,3.1H10v-.6c0-.1,0-.1-.1-.2A2.7,2.7,0,0,1,9,11.3a2.9,2.9,0,0,1,2.9-2.9,3.1,3.1,0,0,1,3.2,3,2.9,2.9,0,0,1-1,2.2c-.1.1-.1.1-.1.2v.6h.1a3.8,3.8,0,0,0,1.7-3.1A3.9,3.9,0,0,0,11.9,7.6Zm.1,2a1.3,1.3,0,0,0-1.3,1.3,1.3,1.3,0,1,0,2.6,0A1.3,1.3,0,0,0,12,9.6Z"/></g></g></svg>
