<?xml version="1.0" encoding="UTF-8"?>
<svg width="24px" height="24px" viewBox="0 0 24 24" version="1.1" xmlns="http://www.w3.org/2000/svg" xmlns:xlink="http://www.w3.org/1999/xlink">
    <title>Price_Medium_24X24</title>
    <g id="Price_Medium_24X24" stroke="none" stroke-width="1" fill="none" fill-rule="evenodd">
        <path d="M11.5,3 C16.187,3 20,6.813 20,11.5 C20,16.187 16.187,20 11.5,20 C6.813,20 3,16.187 3,11.5 C3,6.813 6.813,3 11.5,3 Z M11.5,4 C7.364,4 4,7.364 4,11.5 C4,15.636 7.364,19 11.5,19 C15.636,19 19,15.636 19,11.5 C19,7.364 15.636,4 11.5,4 Z M11.9998,6.5001 L11.9998,7.6491 C13.2948,7.8881 13.9088,8.9601 13.9378,9.0111 L13.9378,9.0111 L13.0628,9.4951 C13.0428,9.4611 12.5408,8.6011 11.4978,8.5971 C10.9738,8.6121 10.5338,8.7591 10.2638,9.0591 C10.0648,9.2811 9.9738,9.5651 10.0068,9.8581 C10.0698,10.4141 10.4928,10.6401 11.8188,11.0781 C12.9298,11.4611 13.8548,11.8711 13.9858,13.0281 C14.0528,13.6091 13.8738,14.1711 13.4808,14.6081 C13.1168,15.0151 12.5998,15.2681 11.9998,15.3591 L11.9998,15.3591 L11.9998,16.5001 L10.9998,16.5001 L10.9998,15.3501 C9.7058,15.1121 9.0908,14.0401 9.0628,13.9891 L9.0628,13.9891 L9.9358,13.5021 C9.9568,13.5391 10.4598,14.3981 11.5028,14.4031 C12.0238,14.3871 12.4668,14.2411 12.7358,13.9401 C12.9358,13.7191 13.0268,13.4341 12.9928,13.1411 C12.9368,12.6501 12.6158,12.4111 11.4988,12.0251 C10.2978,11.6281 9.1588,11.2511 9.0138,9.9721 C8.9468,9.3911 9.1268,8.8291 9.5188,8.3911 C9.8828,7.9851 10.3998,7.7311 10.9998,7.6401 L10.9998,7.6401 L10.9998,6.5001 L11.9998,6.5001 Z" id="Combined-Shape" fill="#000000"></path>
    </g>
</svg>