<?xml version="1.0" encoding="UTF-8"?>
<svg width="25px" height="24px" viewBox="0 0 25 24" version="1.1" xmlns="http://www.w3.org/2000/svg" xmlns:xlink="http://www.w3.org/1999/xlink">
    <title>Public_Medium_24X24</title>
    <g id="Public_Medium_24X24" stroke="none" stroke-width="1" fill="none" fill-rule="evenodd" transform="translate(1.000000, 0.000000)">
        <path d="M11.5,19 C11.331,19 11.166,18.985 11,18.975 L11,16.5 C11,16.224 10.776,16 10.5,16 L9.5,16 C9.224,16 9,15.775 9,15.5 L9,12.5 C9,12.366 8.947,12.238 8.852,12.145 L4.804,8.14 C6.04,5.688 8.573,4 11.5,4 C12.76,4 13.946,4.315 14.989,4.866 L15,6.497 C15.001,6.631 14.949,6.757 14.855,6.853 C14.76,6.947 14.634,7 14.5,7 L12.339,7 C12.207,7 12.08,7.053 11.986,7.146 L10.146,8.983 C10.053,9.077 10,9.204 10,9.337 L10,10.5 C10,11.325 10.672,11.999 11.499,12 L15.293,12 L17,13.707 L17,16.582 C15.629,18.064 13.674,19 11.5,19 M4,11.5 C4,10.673 4.14,9.879 4.388,9.135 L8,12.709 L8,15.5 C8,16.327 8.673,17 9.5,17 L10,17 L10,18.849 C6.581,18.152 4,15.122 4,11.5 M19,11.5 C19,12.856 18.632,14.127 18,15.226 L18,13.5 C18,13.367 17.947,13.24 17.854,13.146 L15.854,11.146 C15.76,11.053 15.633,11 15.5,11 L11.5,11 C11.224,11 11,10.775 11,10.5 L11,9.544 L12.546,8 L14.5,8 C14.902,8 15.281,7.843 15.564,7.557 C15.848,7.271 16.003,6.892 16,6.49 L15.993,5.51 C17.814,6.879 19,9.051 19,11.5 M11.5,3 C6.813,3 3,6.813 3,11.5 C3,16.187 6.813,20 11.5,20 C16.187,20 20,16.187 20,11.5 C20,6.813 16.187,3 11.5,3" id="Fill-2" fill="#000000"></path>
    </g>
</svg>