<?xml version="1.0" encoding="UTF-8"?>
<svg width="21px" height="20px" viewBox="0 0 21 20" version="1.1" xmlns="http://www.w3.org/2000/svg" xmlns:xlink="http://www.w3.org/1999/xlink">
    <title>Quote_Small_20X20</title>
    <g id="Quote_Small_20X20" stroke="none" stroke-width="1" fill="none" fill-rule="evenodd" transform="translate(1.000000, 0.000000)">
        <path d="M9,5 L9,10.5 C9,12.981 6.981,15 4.5,15 L4.5,15 L4,15 L4,14 L4.5,14 C6.43,14 8,12.43 8,10.5 L8,10.5 L8,10 L4,10 L4,5 L9,5 Z M16,5 L16,10.5 C16,12.981 13.981,15 11.5,15 L11.5,15 L11,15 L11,14 L11.5,14 C13.43,14 15,12.43 15,10.5 L15,10.5 L15,10 L11,10 L11,5 L16,5 Z" id="Combined-Shape" fill="#000000"></path>
    </g>
</svg>