<?xml version="1.0" encoding="UTF-8"?>
<svg width="31px" height="30px" viewBox="0 0 31 30" version="1.1" xmlns="http://www.w3.org/2000/svg" xmlns:xlink="http://www.w3.org/1999/xlink">
    <title>Reaction_Large _30X30</title>
    <g id="Reaction_Large-_30X30" stroke="none" stroke-width="1" fill="none" fill-rule="evenodd" transform="translate(1.000000, 0.000000)">
        <path d="M14.5,4 C20.29,4 25,8.71 25,14.5 C25,20.29 20.29,25 14.5,25 C8.71,25 4,20.29 4,14.5 C4,8.71 8.71,4 14.5,4 Z M14.5,5 C9.262,5 5,9.262 5,14.5 C5,19.738 9.262,24 14.5,24 C19.738,24 24,19.738 24,14.5 C24,9.262 19.738,5 14.5,5 Z M10.452,15.96 C11.198,17.553 12.75,18.542 14.5,18.542 C16.203,18.542 17.736,17.59 18.5,16.059 L18.5,16.059 L19.395,16.504 C18.461,18.378 16.585,19.542 14.5,19.542 C12.391,19.542 10.446,18.303 9.546,16.384 L9.546,16.384 Z M11,11 C11.553,11 12,11.447 12,12 C12,12.553 11.553,13 11,13 C10.447,13 10,12.553 10,12 C10,11.447 10.447,11 11,11 Z M18,11 C18.553,11 19,11.447 19,12 C19,12.553 18.553,13 18,13 C17.447,13 17,12.553 17,12 C17,11.447 17.447,11 18,11 Z" id="Combined-Shape" fill="#000000"></path>
    </g>
</svg>