<?xml version="1.0" encoding="UTF-8"?>
<svg width="21px" height="20px" viewBox="0 0 21 20" version="1.1" xmlns="http://www.w3.org/2000/svg" xmlns:xlink="http://www.w3.org/1999/xlink">
    <title>Reaction_Small_20X20</title>
    <g id="Reaction_Small_20X20" stroke="none" stroke-width="1" fill="none" fill-rule="evenodd" transform="translate(1.000000, 0.000000)">
        <path d="M9.5,3 C13.084,3 16,5.916 16,9.5 C16,13.084 13.084,16 9.5,16 C5.916,16 3,13.084 3,9.5 C3,5.916 5.916,3 9.5,3 Z M9.5,4 C6.467,4 4,6.467 4,9.5 C4,12.533 6.467,15 9.5,15 C12.533,15 15,12.533 15,9.5 C15,6.467 12.533,4 9.5,4 Z M7.252,10.2911 C7.667,11.1751 8.528,11.7251 9.5,11.7251 C10.446,11.7251 11.297,11.1971 11.721,10.3461 L11.721,10.3461 L12.616,10.7921 C12.021,11.9841 10.828,12.7251 9.5,12.7251 C8.157,12.7251 6.919,11.9361 6.347,10.7151 L6.347,10.7151 Z M7.3003,7.3021 C7.6873,7.3021 8.0003,7.6161 8.0003,8.0021 C8.0003,8.3891 7.6873,8.7021 7.3003,8.7021 C6.9133,8.7021 6.6003,8.3891 6.6003,8.0021 C6.6003,7.6161 6.9133,7.3021 7.3003,7.3021 Z M11.6973,7.3021 C12.0843,7.3021 12.3973,7.6161 12.3973,8.0021 C12.3973,8.3891 12.0843,8.7021 11.6973,8.7021 C11.3103,8.7021 10.9973,8.3891 10.9973,8.0021 C10.9973,7.6161 11.3103,7.3021 11.6973,7.3021 Z" id="Combined-Shape" fill="#000000"></path>
    </g>
</svg>