<?xml version="1.0" encoding="UTF-8"?>
<svg width="25px" height="24px" viewBox="0 0 25 24" version="1.1" xmlns="http://www.w3.org/2000/svg" xmlns:xlink="http://www.w3.org/1999/xlink">
    <title>Reply_Medium_24X24</title>
    <g id="Reply_Medium_24X24" stroke="none" stroke-width="1" fill="none" fill-rule="evenodd" transform="translate(1.000000, 0.000000)">
        <path d="M18.5,3.9997 C19.327,3.9997 20,4.6727 20,5.4997 L20,5.4997 L20,7.9977 L19,7.9977 L19,5.4997 C19,5.2247 18.776,4.9997 18.5,4.9997 L18.5,4.9997 L5.5,4.9997 C5.224,4.9997 5,5.2247 5,5.4997 L5,5.4997 L5,15.4997 C5,15.7757 5.224,15.9997 5.5,15.9997 L5.5,15.9997 L8.5,15.9997 C8.776,15.9997 9,16.2237 9,16.4997 L9,16.4997 L9,19.9287 L12.105,17.1087 L12.777,17.8487 L9.577,20.7547 C9.399,20.9177 9.175,21.0017 8.947,21.0017 C8.818,21.0017 8.687,20.9747 8.562,20.9197 C8.215,20.7667 8,20.4357 8,20.0567 L8,20.0567 L8,16.9997 L5.5,16.9997 C4.673,16.9997 4,16.3267 4,15.4997 L4,15.4997 L4,5.4997 C4,4.6727 4.673,3.9997 5.5,3.9997 L5.5,3.9997 Z M18.0664,9.1904 L21.3774,12.5014 L18.0664,15.8114 L17.3594,15.1044 L19.4634,13.0004 L15.5004,13.0004 C15.2244,13.0004 15.0004,13.2244 15.0004,13.5004 L15.0004,13.5004 L15.0004,18.0004 L14.0004,18.0004 L14.0004,13.5004 C14.0004,12.6724 14.6724,12.0004 15.5004,12.0004 L15.5004,12.0004 L19.4624,12.0004 L17.3594,9.8974 L18.0664,9.1904 Z" id="Combined-Shape" fill="#000000"></path>
    </g>
</svg>