<svg id="Layer_1" xmlns="http://www.w3.org/2000/svg" width="24px" height="24px" viewBox="0 0 24 24"><defs><style>.cls-1{fill-rule:evenodd;}</style></defs><g id="mask-2"><path id="path-1" class="cls-1" d="M4,9.3A10.7,10.7,0,0,1,14.7,20H12a8,8,0,0,0-8-8H4ZM4,4A16,16,0,0,1,20,20H17.3A13.3,13.3,0,0,0,4,6.7H4ZM6.7,14.7a2.7,2.7,0,0,1,0,5.3,2.7,2.7,0,1,1,0-5.3Z"/></g><g id="_09-Icons-_-Social-_-RSS"><g id="_-Color"><path id="path-1-2" class="cls-1" d="M4,9.3A10.7,10.7,0,0,1,14.7,20H12a8,8,0,0,0-8-8H4ZM4,4A16,16,0,0,1,20,20H17.3A13.3,13.3,0,0,0,4,6.7H4ZM6.7,14.7a2.7,2.7,0,0,1,0,5.3,2.7,2.7,0,1,1,0-5.3Z"/></g></g></svg>
