<?xml version="1.0" encoding="UTF-8"?>
<svg width="25px" height="24px" viewBox="0 0 25 24" version="1.1" xmlns="http://www.w3.org/2000/svg" xmlns:xlink="http://www.w3.org/1999/xlink">
    <title>RSS</title>
    <g id="RSS" stroke="none" stroke-width="1" fill="none" fill-rule="evenodd" transform="translate(1.000000, 0.000000)">
        <path d="M6.6665,15.0587 C8.1395,15.0587 9.3335,16.2517 9.3335,17.7247 C9.3335,19.1977 8.1395,20.3917 6.6665,20.3917 C5.1935,20.3917 3.9995,19.1977 3.9995,17.7247 C3.9995,16.2517 5.1935,15.0587 6.6665,15.0587 L6.6665,15.0587 Z M3.9995,4.3917 C12.8365,4.3917 19.9995,11.5547 19.9995,20.3917 L17.3335,20.3917 C17.3335,16.8557 15.9285,13.4637 13.4285,10.9637 C10.9275,8.4627 7.5365,7.0587 3.9995,7.0587 L3.9995,4.3917 Z M3.9995,9.7247 C9.8915,9.7247 14.6665,14.5007 14.6665,20.3917 L11.9995,20.3917 C11.9995,15.9737 8.4185,12.3917 3.9995,12.3917 L3.9995,9.7247 Z" id="Fill-24" fill="#000000"></path>
    </g>
</svg>