<?xml version="1.0" encoding="UTF-8"?>
<svg width="21px" height="20px" viewBox="0 0 21 20" version="1.1" xmlns="http://www.w3.org/2000/svg" xmlns:xlink="http://www.w3.org/1999/xlink">
    <title>Search_Small_20X20</title>
    <g id="Search_Small_20X20" stroke="none" stroke-width="1" fill="none" fill-rule="evenodd" transform="translate(1.000000, 0.000000)">
        <path d="M6.1714,11.8286 C4.6114,10.2686 4.6114,7.7306 6.1714,6.1716 C6.9514,5.3916 7.9754,5.0016 9.0004,5.0016 C10.0244,5.0016 11.0484,5.3916 11.8284,6.1716 C13.3884,7.7306 13.3884,10.2686 11.8284,11.8286 C10.2694,13.3886 7.7314,13.3886 6.1714,11.8286 L6.1714,11.8286 Z M16.0004,15.2906 L12.8544,12.1446 C14.4554,10.1826 14.3634,7.2926 12.5354,5.4646 C10.5864,3.5156 7.4134,3.5156 5.4644,5.4646 C3.5144,7.4136 3.5144,10.5856 5.4644,12.5356 C6.4394,13.5106 7.7194,13.9976 9.0004,13.9976 C10.1224,13.9976 11.2314,13.6006 12.1474,12.8526 L15.2934,15.9976 L16.0004,15.2906 Z" id="Fill-2" fill="#000000"></path>
    </g>
</svg>