<?xml version="1.0" encoding="UTF-8"?>
<svg width="21px" height="20px" viewBox="0 0 21 20" version="1.1" xmlns="http://www.w3.org/2000/svg" xmlns:xlink="http://www.w3.org/1999/xlink">
    <title>SettingsFill_Small_20X20</title>
    <g id="SettingsFill_Small_20X20" stroke="none" stroke-width="1" fill="none" fill-rule="evenodd" transform="translate(1.000000, 0.000000)">
        <path d="M10,12 C8.896,12 8,11.104 8,10 C8,8.896 8.896,8 10,8 C11.104,8 12,8.896 12,10 C12,11.104 11.104,12 10,12 M15.937,11.118 L15.433,10.827 C15.478,10.545 15.5,10.272 15.5,10 C15.5,9.728 15.478,9.455 15.433,9.173 L15.937,8.882 C16.237,8.708 16.452,8.428 16.542,8.093 C16.632,7.757 16.586,7.407 16.412,7.106 L15.712,5.893 C15.538,5.593 15.258,5.378 14.923,5.288 C14.587,5.198 14.237,5.244 13.937,5.418 L13.422,5.715 C12.995,5.375 12.519,5.102 12,4.9 L12,4.3 C12,3.583 11.417,3 10.7,3 L9.3,3 C8.583,3 8,3.583 8,4.3 L8,4.9 C7.481,5.102 7.005,5.375 6.578,5.715 L6.064,5.418 C5.764,5.244 5.414,5.196 5.077,5.288 C4.742,5.378 4.462,5.593 4.288,5.894 L3.588,7.106 C3.414,7.407 3.368,7.757 3.458,8.093 C3.548,8.428 3.763,8.708 4.063,8.882 L4.567,9.173 C4.522,9.455 4.5,9.728 4.5,10 C4.5,10.272 4.522,10.545 4.567,10.827 L4.063,11.118 C3.763,11.292 3.548,11.572 3.458,11.907 C3.368,12.243 3.414,12.593 3.588,12.894 L4.288,14.106 C4.461,14.407 4.742,14.622 5.077,14.712 C5.413,14.801 5.763,14.756 6.063,14.582 L6.578,14.285 C7.005,14.625 7.481,14.898 8,15.1 L8,15.7 C8,16.417 8.583,17 9.3,17 L10.7,17 C11.417,17 12,16.417 12,15.7 L12,15.1 C12.519,14.898 12.995,14.625 13.422,14.285 L13.936,14.582 C14.237,14.756 14.588,14.801 14.923,14.712 C15.258,14.622 15.539,14.407 15.712,14.106 L16.412,12.894 C16.586,12.593 16.632,12.243 16.542,11.907 C16.452,11.572 16.237,11.292 15.937,11.118" id="Fill-2" fill="#000000"></path>
    </g>
</svg>