<?xml version="1.0" encoding="UTF-8"?>
<svg width="31px" height="30px" viewBox="0 0 31 30" version="1.1" xmlns="http://www.w3.org/2000/svg" xmlns:xlink="http://www.w3.org/1999/xlink">
    <title>Settings_Large _30X30</title>
    <g id="Settings_Large-_30X30" stroke="none" stroke-width="1" fill="none" fill-rule="evenodd" transform="translate(1.000000, 0.000000)">
        <path d="M16.5002,4.0002 C17.3272,4.0002 18.0002,4.6732 18.0002,5.5002 L18.0002,5.5002 L18.0002,7.0512 C18.8622,7.3762 19.6602,7.8392 20.3802,8.4302 L20.3802,8.4302 L21.7272,7.6522 C22.0742,7.4522 22.4782,7.3982 22.8652,7.5022 C23.2522,7.6052 23.5762,7.8542 23.7762,8.2012 L23.7762,8.2012 L25.2762,10.7992 C25.6902,11.5142 25.4442,12.4332 24.7282,12.8472 L24.7282,12.8472 L23.3882,13.6212 C23.4622,14.0772 23.5002,14.5392 23.5002,15.0002 C23.5002,15.4612 23.4622,15.9232 23.3882,16.3792 L23.3882,16.3792 L24.7272,17.1522 C25.4442,17.5662 25.6902,18.4852 25.2762,19.2012 L25.2762,19.2012 L23.7762,21.7992 C23.5762,22.1452 23.2522,22.3942 22.8652,22.4982 C22.4782,22.6002 22.0742,22.5492 21.7272,22.3472 L21.7272,22.3472 L20.3802,21.5702 C19.6602,22.1612 18.8622,22.6242 18.0002,22.9492 L18.0002,22.9492 L18.0002,24.5002 C18.0002,25.3272 17.3272,26.0002 16.5002,26.0002 L16.5002,26.0002 L13.5002,26.0002 C12.6732,26.0002 12.0002,25.3272 12.0002,24.5002 L12.0002,24.5002 L12.0002,22.9492 C11.1382,22.6242 10.3402,22.1612 9.6202,21.5702 L9.6202,21.5702 L8.2732,22.3472 C7.5572,22.7642 6.6382,22.5152 6.2232,21.7992 L6.2232,21.7992 L4.7232,19.2012 C4.3102,18.4842 4.5572,17.5652 5.2732,17.1522 L5.2732,17.1522 L6.6122,16.3792 C6.5372,15.9232 6.5002,15.4612 6.5002,15.0002 C6.5002,14.5392 6.5372,14.0772 6.6122,13.6212 L6.6122,13.6212 L5.2732,12.8472 C4.5572,12.4342 4.3102,11.5152 4.7232,10.7992 L4.7232,10.7992 L6.2232,8.2012 C6.6382,7.4862 7.5572,7.2372 8.2732,7.6522 L8.2732,7.6522 L9.6202,8.4302 C10.3402,7.8392 11.1382,7.3762 12.0002,7.0512 L12.0002,7.0512 L12.0002,5.5002 C12.0002,4.6732 12.6732,4.0002 13.5002,4.0002 L13.5002,4.0002 Z M16.5002,5.0002 L13.5002,5.0002 C13.2242,5.0002 13.0002,5.2242 13.0002,5.5002 L13.0002,5.5002 L13.0002,7.4042 C13.0002,7.6202 12.8612,7.8112 12.6562,7.8792 C11.6802,8.2002 10.7892,8.7172 10.0102,9.4132 C9.8492,9.5572 9.6142,9.5802 9.4272,9.4722 L9.4272,9.4722 L7.7732,8.5172 C7.6582,8.4522 7.5232,8.4322 7.3932,8.4682 C7.2642,8.5032 7.1572,8.5852 7.0902,8.7012 L7.0902,8.7012 L5.5902,11.2992 C5.4522,11.5372 5.5342,11.8442 5.7732,11.9822 L5.7732,11.9822 L7.4182,12.9322 C7.6052,13.0402 7.7022,13.2562 7.6582,13.4672 C7.5532,13.9712 7.5002,14.4862 7.5002,15.0002 C7.5002,15.5132 7.5532,16.0292 7.6582,16.5332 C7.7022,16.7442 7.6052,16.9602 7.4182,17.0672 L7.4182,17.0672 L5.7732,18.0172 C5.5342,18.1562 5.4522,18.4632 5.5902,18.7012 L5.5902,18.7012 L7.0902,21.2992 C7.1572,21.4152 7.2642,21.4972 7.3932,21.5322 C7.5232,21.5682 7.6582,21.5482 7.7732,21.4822 L7.7732,21.4822 L9.4272,20.5272 C9.5042,20.4822 9.5912,20.4602 9.6772,20.4602 C9.7972,20.4602 9.9162,20.5032 10.0102,20.5872 C10.7892,21.2832 11.6802,21.8002 12.6562,22.1212 C12.8612,22.1882 13.0002,22.3802 13.0002,22.5962 L13.0002,22.5962 L13.0002,24.5002 C13.0002,24.7752 13.2242,25.0002 13.5002,25.0002 L13.5002,25.0002 L16.5002,25.0002 C16.7762,25.0002 17.0002,24.7752 17.0002,24.5002 L17.0002,24.5002 L17.0002,22.5962 C17.0002,22.3802 17.1392,22.1882 17.3442,22.1212 C18.3212,21.7992 19.2112,21.2832 19.9902,20.5872 C20.1512,20.4432 20.3872,20.4212 20.5732,20.5272 L20.5732,20.5272 L22.2272,21.4822 C22.3442,21.5492 22.4782,21.5682 22.6062,21.5322 C22.7362,21.4972 22.8432,21.4152 22.9102,21.2992 L22.9102,21.2992 L24.4102,18.7012 C24.5482,18.4622 24.4662,18.1562 24.2272,18.0172 L24.2272,18.0172 L22.5812,17.0672 C22.3942,16.9602 22.2982,16.7442 22.3422,16.5332 C22.4472,16.0292 22.5002,15.5132 22.5002,15.0002 C22.5002,14.4862 22.4472,13.9712 22.3422,13.4672 C22.2982,13.2562 22.3942,13.0402 22.5812,12.9322 L22.5812,12.9322 L24.2272,11.9822 C24.4662,11.8442 24.5482,11.5382 24.4102,11.2992 L24.4102,11.2992 L22.9102,8.7012 C22.8432,8.5852 22.7362,8.5032 22.6062,8.4682 C22.4762,8.4312 22.3432,8.4512 22.2282,8.5172 L22.2282,8.5172 L20.5732,9.4722 C20.3882,9.5802 20.1512,9.5572 19.9902,9.4132 C19.2112,8.7172 18.3212,8.2012 17.3442,7.8792 C17.1392,7.8112 17.0002,7.6202 17.0002,7.4042 L17.0002,7.4042 L17.0002,5.5002 C17.0002,5.2242 16.7762,5.0002 16.5002,5.0002 L16.5002,5.0002 Z M14.5085,11.535 C15.4305,11.404 16.3545,11.641 17.1025,12.202 C17.8495,12.764 18.3335,13.582 18.4645,14.508 C18.5965,15.434 18.3595,16.356 17.7975,17.103 C17.2365,17.85 16.4175,18.334 15.4915,18.465 C15.3245,18.488 15.1575,18.5 14.9915,18.5 C14.2395,18.5 13.5105,18.258 12.8975,17.798 C12.1505,17.236 11.6665,16.418 11.5355,15.492 C11.4035,14.566 11.6405,13.645 12.2025,12.898 C12.7635,12.15 13.5825,11.666 14.5085,11.535 Z M15.0055,12.5 C14.8875,12.5 14.7685,12.509 14.6485,12.525 C13.9875,12.619 13.4025,12.965 13.0015,13.498 C12.6005,14.032 12.4315,14.69 12.5255,15.352 C12.6195,16.013 12.9645,16.598 13.4985,16.998 C14.0325,17.399 14.6865,17.567 15.3515,17.475 C16.0125,17.381 16.5975,17.035 16.9985,16.502 C17.3995,15.968 17.5685,15.31 17.4745,14.648 C17.3805,13.987 17.0355,13.402 16.5015,13.002 C16.0635,12.673 15.5435,12.5 15.0055,12.5 Z" id="Combined-Shape" fill="#000000"></path>
    </g>
</svg>