<?xml version="1.0" encoding="UTF-8"?>
<svg width="25px" height="24px" viewBox="0 0 25 24" version="1.1" xmlns="http://www.w3.org/2000/svg" xmlns:xlink="http://www.w3.org/1999/xlink">
    <title>ShoppingBagFill_Medium_24X24</title>
    <g id="ShoppingBagFill_Medium_24X24" stroke="none" stroke-width="1" fill="none" fill-rule="evenodd" transform="translate(1.000000, 0.000000)">
        <path d="M9,7.9961 C9,6.3431 10.346,4.9981 12,4.9981 C13.654,4.9981 15,6.3431 15,7.9961 L15,7.9981 L9,7.9981 L9,7.9961 Z M20.697,8.4331 C20.459,8.1561 20.114,7.9981 19.75,7.9981 L16,7.9981 L16,7.9961 C16,5.7921 14.206,3.9981 12,3.9981 C9.794,3.9981 8,5.7921 8,7.9961 L8,7.9981 L4.25,7.9981 C3.886,7.9981 3.541,8.1561 3.303,8.4331 C3.065,8.7081 2.96,9.0731 3.014,9.4331 L4.258,17.7211 C4.369,18.4611 4.993,18.9981 5.741,18.9981 L18.259,18.9981 C19.007,18.9981 19.631,18.4611 19.742,17.7211 L20.986,9.4331 C21.04,9.0731 20.935,8.7081 20.697,8.4331 L20.697,8.4331 Z" id="Fill-2" fill="#000000"></path>
    </g>
</svg>