<?xml version="1.0" encoding="UTF-8"?>
<svg width="25px" height="24px" viewBox="0 0 25 24" version="1.1" xmlns="http://www.w3.org/2000/svg" xmlns:xlink="http://www.w3.org/1999/xlink">
    <title>SoundOn_Medium_24X24</title>
    <g id="SoundOn_Medium_24X24" stroke="none" stroke-width="1" fill="none" fill-rule="evenodd" transform="translate(1.000000, 0.000000)">
        <path d="M13.165,3.629 C13.313,3.496 13.525,3.463 13.703,3.543 C13.884,3.623 14,3.803 14,4 L14,4 L14,19 C14,19.197 13.884,19.377 13.703,19.457 C13.638,19.486 13.569,19.5 13.5,19.5 C13.379,19.5 13.259,19.456 13.166,19.371 L13.166,19.371 L8.312,14.998 L5.5,15 C4.673,15 4,14.327 4,13.5 L4,13.5 L4,9.5 C4,8.673 4.673,8 5.5,8 L5.5,8 L8.315,8 Z M13,5.124 L8.844,8.869 C8.778,8.929 8.699,8.969 8.612,8.987 C8.579,8.994 8.535,9 8.5,9 L8.5,9 L5.5,9 C5.224,9 5,9.225 5,9.5 L5,9.5 L5,13.5 C5,13.775 5.224,14 5.5,14 L5.5,14 L8.504,13.998 L8.584688,14.004552 C8.69,14.0218 8.7852,14.0722 8.858,14.145 L8.858,14.145 L13,17.877 L13,5.124 Z M17.9932,6.6553 C19.2872,7.9493 20.0002,9.6703 20.0002,11.5003 C20.0002,13.3303 19.2872,15.0513 17.9932,16.3443 L17.9932,16.3443 L17.2862,15.6373 C18.3912,14.5323 19.0002,13.0623 19.0002,11.5003 C19.0002,9.9373 18.3912,8.4673 17.2862,7.3623 L17.2862,7.3623 Z M16.2725,8.3955 C17.0645,9.2405 17.5005,10.3425 17.5005,11.4995 C17.5005,12.6575 17.0645,13.7595 16.2735,14.6045 L16.2735,14.6045 L15.5435,13.9205 C16.1605,13.2625 16.5005,12.4025 16.5005,11.4995 C16.5005,10.5975 16.1605,9.7385 15.5435,9.0795 L15.5435,9.0795 Z" id="Combined-Shape" fill="#000000"></path>
    </g>
</svg>