<svg id="Layer_1" xmlns="http://www.w3.org/2000/svg" width="24px" height="24px" viewBox="0 0 24 24"><defs><style>.cls-1{fill-rule:evenodd;}</style></defs><g id="mask-2"><path id="path-1" class="cls-1" d="M4.5,14.8l.3-1.2-.3-1.1H4.2L4,13.6l.2,1.1c0,.1.1.1.2.1Zm1.7.6.2-1.8L6.2,11H5.8l-.2,2.6.2,1.8h.4Zm1.6-.1L8,13.6l-.2-3.5H7.4l-.2,3.5.2,1.7.2.2Zm1.6,0,.2-1.7-.2-3.5-.2-.2-.3.2v5.2l.3.2A.2.2,0,0,0,9.4,15.3Zm1.7,0V9.6a.3.3,0,0,0-.3-.3.3.3,0,0,0-.3.3v5.7c0,.1.1.2.3.2Zm1.1.2h5.7a2,2,0,1,0,0-4l-.8.2a3.5,3.5,0,0,0-3.6-3.2l-1.3.2c-.2.1-.2.2-.2.3v6.3Z"/></g><g id="_09-Icons-_-Social-_-SoundCloud"><g id="_-Color"><path id="path-1-2" class="cls-1" d="M4.5,14.8l.3-1.2-.3-1.1H4.2L4,13.6l.2,1.1c0,.1.1.1.2.1Zm1.7.6.2-1.8L6.2,11H5.8l-.2,2.6.2,1.8h.4Zm1.6-.1L8,13.6l-.2-3.5H7.4l-.2,3.5.2,1.7.2.2Zm1.6,0,.2-1.7-.2-3.5-.2-.2-.3.2v5.2l.3.2A.2.2,0,0,0,9.4,15.3Zm1.7,0V9.6a.3.3,0,0,0-.3-.3.3.3,0,0,0-.3.3v5.7c0,.1.1.2.3.2Zm1.1.2h5.7a2,2,0,1,0,0-4l-.8.2a3.5,3.5,0,0,0-3.6-3.2l-1.3.2c-.2.1-.2.2-.2.3v6.3Z"/></g></g></svg>
