<?xml version="1.0" encoding="UTF-8"?>
<svg width="25px" height="24px" viewBox="0 0 25 24" version="1.1" xmlns="http://www.w3.org/2000/svg" xmlns:xlink="http://www.w3.org/1999/xlink">
    <title>SoundCloud</title>
    <g id="SoundCloud" stroke="none" stroke-width="1" fill="none" fill-rule="evenodd" transform="translate(1.000000, 0.000000)">
        <path d="M12.222,15.997 C12.227,15.997 17.9,16 17.938,16 C19.077,16 20,15.112 20,14.018 C20,12.922 19.077,12.034 17.938,12.034 C17.655,12.034 17.386,12.089 17.141,12.188 C16.978,10.401 15.419,9 13.518,9 C13.053,9 12.599,9.088 12.199,9.237 C12.044,9.296 12.001,9.353 12,9.471 L12,15.763 C12.001,15.883 12.099,15.985 12.222,15.997 M11.079,15.794 L11.2,14.149 L11.079,10.054 C11.076,9.941 10.949,9.849 10.793,9.849 C10.638,9.849 10.509,9.939 10.508,10.054 L10.4,14.146 C10.4,14.149 10.508,15.792 10.508,15.792 C10.511,15.902 10.638,15.995 10.793,15.995 C10.949,15.995 11.077,15.906 11.079,15.794 M9.448,15.814 L9.6,14.147 L9.448,10.576 C9.445,10.477 9.332,10.401 9.192,10.401 C9.051,10.401 8.939,10.478 8.935,10.576 L8.8,14.147 L8.935,15.814 C8.939,15.912 9.051,15.99 9.192,15.99 C9.332,15.988 9.443,15.912 9.448,15.814 M7.814,15.839 L8,14.147 L7.814,10.602 C7.809,10.519 7.709,10.453 7.588,10.453 C7.466,10.453 7.368,10.518 7.363,10.602 L7.2,14.147 L7.365,15.841 C7.369,15.924 7.468,15.988 7.59,15.988 C7.711,15.987 7.809,15.922 7.814,15.839 M6.178,15.867 L6.4,14.146 L6.178,11.482 C6.171,11.414 6.088,11.362 5.987,11.362 C5.886,11.362 5.802,11.416 5.797,11.482 L5.6,14.146 L5.797,15.867 C5.802,15.934 5.886,15.9870139 5.987,15.9870139 C6.088,15.988 6.171,15.935 6.178,15.867 M4.537,15.25 L4.8,14.135 L4.537,12.983 C4.531,12.949 4.464,12.924 4.384,12.924 C4.302,12.924 4.237,12.949 4.23,12.983 L4,14.135 L4.23,15.248 C4.237,15.282 4.302,15.309 4.384,15.309 C4.465,15.31 4.531,15.284 4.537,15.25" id="Fill-29" fill="#000000"></path>
    </g>
</svg>