<?xml version="1.0" encoding="UTF-8"?>
<svg width="24px" height="24px" viewBox="0 0 24 24" version="1.1" xmlns="http://www.w3.org/2000/svg" xmlns:xlink="http://www.w3.org/1999/xlink">
    <title>Spotify</title>
    <g id="Spotify" stroke="none" stroke-width="1" fill="none" fill-rule="evenodd">
        <path d="M12,4 C7.582,4 4,7.582 4,12 C4,16.419 7.582,20 12,20 C16.418,20 20,16.419 20,12 C20,7.582 16.418,4 12,4 M15.669,15.539 C15.525,15.774 15.218,15.849 14.983,15.705 C13.104,14.557 10.74,14.297 7.955,14.934 C7.688,14.995 7.42,14.827 7.358,14.559 C7.297,14.29 7.465,14.022 7.733,13.962 C10.781,13.265 13.395,13.564 15.504,14.854 C15.738,14.997 15.813,15.304 15.669,15.539 M16.647,13.36 C16.467,13.654 16.083,13.746 15.79,13.565 C13.64,12.244 10.361,11.861 7.818,12.634 C7.488,12.733 7.14,12.547 7.04,12.218 C6.94,11.889 7.126,11.54 7.456,11.44 C10.361,10.559 13.974,10.985 16.442,12.503 C16.735,12.684 16.828,13.067 16.647,13.36 M16.732,11.092 C14.153,9.561 9.9,9.42 7.438,10.167 C7.043,10.287 6.625,10.063 6.505,9.669 C6.385,9.273 6.608,8.855 7.004,8.735 C9.83,7.877 14.527,8.043 17.496,9.806 C17.852,10.017 17.968,10.476 17.758,10.83 C17.547,11.187 17.087,11.304 16.732,11.092" id="Fill-33" fill="#000000"></path>
    </g>
</svg>