<svg id="Layer_1" xmlns="http://www.w3.org/2000/svg" width="24px" height="24px" viewBox="0 0 24 24"><defs><style>.cls-1{fill-rule:evenodd;}</style></defs><g id="mask-2"><path id="path-1" class="cls-1" d="M16.7,11.1a13.1,13.1,0,0,0-9.3-.9.7.7,0,0,1-.9-.5.9.9,0,0,1,.5-1c2.8-.8,7.5-.7,10.5,1.1a.7.7,0,0,1,.3,1A.8.8,0,0,1,16.7,11.1Zm-.1,2.3c-.1.3-.5.3-.8.2a10.6,10.6,0,0,0-8-1,.7.7,0,0,1-.8-.4.7.7,0,0,1,.5-.8,11.9,11.9,0,0,1,8.9,1.1A.7.7,0,0,1,16.6,13.4Zm-.9,2.1a.5.5,0,0,1-.7.2,9.6,9.6,0,0,0-7-.8c-.3.1-.6-.1-.6-.3s.1-.6.3-.6q4.7-1,7.8.9A.5.5,0,0,1,15.7,15.5ZM12,4a8,8,0,1,0,8,8,8,8,0,0,0-8-8Z"/></g><g id="_09-Icons-_-Social-_-Spotify"><g id="_-Color"><path id="path-1-2" class="cls-1" d="M16.7,11.1a13.1,13.1,0,0,0-9.3-.9.7.7,0,0,1-.9-.5.9.9,0,0,1,.5-1c2.8-.8,7.5-.7,10.5,1.1a.7.7,0,0,1,.3,1A.8.8,0,0,1,16.7,11.1Zm-.1,2.3c-.1.3-.5.3-.8.2a10.6,10.6,0,0,0-8-1,.7.7,0,0,1-.8-.4.7.7,0,0,1,.5-.8,11.9,11.9,0,0,1,8.9,1.1A.7.7,0,0,1,16.6,13.4Zm-.9,2.1a.5.5,0,0,1-.7.2,9.6,9.6,0,0,0-7-.8c-.3.1-.6-.1-.6-.3s.1-.6.3-.6q4.7-1,7.8.9A.5.5,0,0,1,15.7,15.5ZM12,4a8,8,0,1,0,8,8,8,8,0,0,0-8-8Z"/></g></g></svg>
