<?xml version="1.0" encoding="UTF-8"?>
<svg width="25px" height="24px" viewBox="0 0 25 24" version="1.1" xmlns="http://www.w3.org/2000/svg" xmlns:xlink="http://www.w3.org/1999/xlink">
    <title>Stores_Medium_24X24</title>
    <g id="Stores_Medium_24X24" stroke="none" stroke-width="1" fill="none" fill-rule="evenodd" transform="translate(1.000000, 0.000000)">
        <path d="M18.251,19.6602 C18.061,19.8762 17.788,20.0002 17.5,20.0002 L6.5,20.0002 C6.209,20.0002 5.943,19.8802 5.751,19.6612 C5.561,19.4462 5.472,19.1592 5.508,18.8752 L5.618,18.0002 L18.379,18.0002 L18.491,18.8722 C18.529,19.1622 18.443,19.4412 18.251,19.6602 L18.251,19.6602 Z M6.948,7.4372 C6.979,7.1882 7.192,7.0002 7.444,7.0002 L9,7.0002 L9,8.0002 L10,8.0002 L10,7.0002 L14,7.0002 L14,8.0002 L15,8.0002 L15,7.0002 L16.524,7.0002 C16.774,7.0002 16.988,7.1872 17.02,7.4352 L18.251,17.0002 L5.744,17.0002 L6.948,7.4372 Z M10,5.9962 C10,4.8952 10.897,4.0002 12,4.0002 C13.103,4.0002 14,4.8952 14,5.9962 L14,6.0002 L10,6.0002 L10,5.9962 Z M19.483,18.7452 L18.012,7.3082 C17.916,6.5622 17.276,6.0002 16.524,6.0002 L15,6.0002 L15,5.9962 C15,4.3442 13.654,3.0002 12,3.0002 C10.346,3.0002 9,4.3442 9,5.9962 L9,6.0002 L7.444,6.0002 C6.689,6.0002 6.05,6.5642 5.956,7.3122 L4.516,18.7502 C4.444,19.3192 4.621,19.8922 5.001,20.3232 C5.38,20.7532 5.927,21.0002 6.5,21.0002 L17.5,21.0002 C18.075,21.0002 18.622,20.7532 19.002,20.3212 C19.381,19.8892 19.557,19.3142 19.483,18.7452 L19.483,18.7452 Z" id="Fill-2" fill="#000000"></path>
    </g>
</svg>