<svg xmlns="http://www.w3.org/2000/svg" width="20" height="20" viewBox="0 0 20 20">
  <path fill-rule="evenodd" d="M12.707,8.707 C12.316,9.098 11.684,9.098 11.293,8.707 C10.902,8.316 10.902,7.684 11.293,7.293 C11.684,6.902 12.316,6.902 12.707,7.293 C13.098,7.684 13.098,8.316 12.707,8.707 M14.5,4 L10.342,4 C9.808,4 9.306,4.208 8.928,4.586 L3.439,10.075 C2.854,10.66 2.854,11.611 3.439,12.196 L7.804,16.561 C8.087,16.844 8.464,17 8.865,17 C9.266,17 9.643,16.844 9.925,16.561 L15.414,11.072 C15.787,10.7 16,10.185 16,9.658 L16,5.5 C16,4.673 15.327,4 14.5,4"/>
</svg>
