<svg xmlns="http://www.w3.org/2000/svg" width="30" height="30" viewBox="0 0 30 30">
  <path fill-rule="evenodd" d="M23.501,5.0018 C24.328,5.0018 25.001,5.6748 25.001,6.5018 L25.001,6.5018 L25.001,14.1768 C25.001,14.8448 24.741,15.4728 24.269,15.9458 L24.269,15.9458 L14.651,25.5628 C14.358,25.8558 13.974,26.0008 13.59,26.0008 C13.206,26.0008 12.822,25.8558 12.529,25.5628 L12.529,25.5628 L4.44,17.4738 C3.855,16.8888 3.855,15.9378 4.44,15.3528 L4.44,15.3528 L14.059,5.7348 C14.531,5.2618 15.159,5.0018 15.826,5.0018 L15.826,5.0018 Z M23.501,6.0018 L15.826,6.0018 C15.432,6.0018 15.045,6.1618 14.766,6.4418 L14.766,6.4418 L5.147,16.0598 C4.953,16.2548 4.953,16.5718 5.147,16.7668 L5.147,16.7668 L13.236,24.8558 C13.432,25.0508 13.749,25.0518 13.944,24.8558 L13.944,24.8558 L23.562,15.2388 C23.845,14.9538 24.001,14.5768 24.001,14.1768 L24.001,14.1768 L24.001,6.5018 C24.001,6.2268 23.777,6.0018 23.501,6.0018 L23.501,6.0018 Z M16.7325,9.7355 C17.6765,8.7905 19.3245,8.7905 20.2675,9.7355 C20.7395,10.2085 20.9995,10.8355 20.9995,11.5025 C20.9995,12.1705 20.7395,12.7985 20.2675,13.2705 C19.7955,13.7435 19.1675,14.0025 18.4995,14.0025 C17.8315,14.0025 17.2045,13.7435 16.7325,13.2705 C16.2605,12.7985 15.9995,12.1705 15.9995,11.5025 C15.9995,10.8355 16.2605,10.2085 16.7325,9.7355 Z M18.4995,10.0025 C18.0995,10.0025 17.7225,10.1595 17.4395,10.4425 C17.1565,10.7255 16.9995,11.1025 16.9995,11.5025 C16.9995,11.9045 17.1555,12.2805 17.4395,12.5635 C18.0055,13.1295 18.9945,13.1295 19.5605,12.5635 C19.8445,12.2805 19.9995,11.9045 19.9995,11.5025 C19.9995,11.1025 19.8435,10.7255 19.5605,10.4425 C19.2775,10.1595 18.9005,10.0025 18.4995,10.0025 Z"/>
</svg>
