<svg xmlns="http://www.w3.org/2000/svg" width="20" height="20" viewBox="0 0 20 20">
  <path fill-rule="evenodd" d="M14.5,3.9997 C15.327,3.9997 16,4.6727 16,5.4997 L16,5.4997 L16,9.6577 C16,10.1847 15.787,10.6997 15.414,11.0727 L15.414,11.0727 L9.925,16.5607 C9.643,16.8437 9.266,16.9997 8.865,16.9997 C8.464,16.9997 8.087,16.8437 7.804,16.5607 L7.804,16.5607 L3.439,12.1957 C2.854,11.6107 2.854,10.6597 3.439,10.0747 L3.439,10.0747 L8.928,4.5857 C9.306,4.2077 9.808,3.9997 10.342,3.9997 L10.342,3.9997 Z M14.5,4.9997 L10.342,4.9997 C10.075,4.9997 9.824,5.1037 9.635,5.2927 L9.635,5.2927 L4.146,10.7817 C3.952,10.9767 3.952,11.2937 4.146,11.4887 L4.146,11.4887 L8.511,15.8537 C8.701,16.0427 9.031,16.0427 9.218,15.8537 L9.218,15.8537 L14.707,10.3657 C14.893,10.1787 15,9.9207 15,9.6577 L15,9.6577 L15,5.4997 C15,5.2237 14.776,4.9997 14.5,4.9997 L14.5,4.9997 Z M11.293,7.293 C11.684,6.902 12.316,6.902 12.707,7.293 C13.098,7.684 13.098,8.316 12.707,8.707 C12.316,9.098 11.684,9.098 11.293,8.707 C10.902,8.316 10.902,7.684 11.293,7.293 Z"/>
</svg>
