<?xml version="1.0" encoding="UTF-8"?>
<svg width="20px" height="20px" viewBox="0 0 20 20" version="1.1" xmlns="http://www.w3.org/2000/svg" xmlns:xlink="http://www.w3.org/1999/xlink">
    <title>TextStyle2_Small_20X20</title>
    <g id="TextStyle2_Small_20X20" stroke="none" stroke-width="1" fill="none" fill-rule="evenodd">
        <path d="M13,4.0003 L13,5.0003 L9,5.0003 L9,16.0003 L8,16.0003 L8,5.0003 L4,5.0003 L4,4.0003 L13,4.0003 Z M13.9998,10.0003 C15.1028,10.0003 15.9998,10.8973 15.9998,12.0003 C15.9998,12.4583 15.8058,12.8973 15.4658,13.2063 L15.4658,13.2063 L13.4868,15.0003 L15.9998,15.0003 L15.9998,16.0003 L11.9998,16.0003 L11.9998,14.9983 L14.7938,12.4663 C14.9248,12.3473 14.9998,12.1773 14.9998,12.0003 C14.9998,11.4483 14.5518,11.0003 13.9998,11.0003 C13.4478,11.0003 12.9998,11.4483 12.9998,12.0003 L12.9998,12.0003 L11.9998,12.0003 C11.9998,10.8973 12.8978,10.0003 13.9998,10.0003 Z" id="Combined-Shape" fill="#000000"></path>
    </g>
</svg>