<svg id="Layer_1" xmlns="http://www.w3.org/2000/svg" width="24px" height="24px" viewBox="0 0 24 24"><defs><style>.cls-1{fill-rule:evenodd;}</style></defs><g id="_09-Icons-_-Social-_-TikTok"><path id="Fill-1" class="cls-1" d="M19,8.7v1.9a7.5,7.5,0,0,1-2.6-.5A4.2,4.2,0,0,1,15,9.2v5.9a4.5,4.5,0,0,1-1.5,3.4,4.2,4.2,0,0,1-2.8,1.4H10a5.1,5.1,0,0,1-3.1-1.1c-.1-.1-.3-.2-.4-.4A4.5,4.5,0,0,1,5,14.7a4.9,4.9,0,0,1,5-4.6h.7v2.6H10a2.4,2.4,0,0,0-2.4,2.4,2.4,2.4,0,0,0,1.2,2,3.5,3.5,0,0,0,1.1.3h.8A2.4,2.4,0,0,0,12.4,15V4H15v.8a4,4,0,0,0,1.6,2.4A3.8,3.8,0,0,0,19,8h0Z"/></g></svg>
