<?xml version="1.0" encoding="UTF-8"?>
<svg width="25px" height="24px" viewBox="0 0 25 24" version="1.1" xmlns="http://www.w3.org/2000/svg" xmlns:xlink="http://www.w3.org/1999/xlink">
    <title>TikTok</title>
    <g id="TikTok" stroke="none" stroke-width="1" fill="none" fill-rule="evenodd" transform="translate(1.000000, 0.000000)">
        <path d="M19.2500776,8.6144 L19.2500776,10.5044 C18.358,10.5044 17.493,10.3294 16.677,9.9854 C16.151,9.7634 15.663,9.4784 15.216,9.1334 L15.229,14.9484 C15.224,16.2584 14.705,17.4884 13.768,18.4144 C13.005,19.1694 12.038,19.6494 10.99,19.8044 C10.743,19.8414 10.493,19.8594 10.24,19.8594 C9.117,19.8594 8.053,19.4964 7.181,18.8254 C7.017,18.6984 6.86,18.5624 6.711,18.4144 C5.695,17.4104 5.171,16.0494 5.26,14.6174 C5.326,13.5274 5.764,12.4874 6.49,11.6724 C7.452,10.5944 8.8,9.9964 10.24,9.9964 C10.493,9.9964 10.743,10.0154 10.99,10.0514 L10.99,10.7504 L10.99,12.6944 C10.757,12.6164 10.507,12.5734 10.247,12.5734 C8.932,12.5734 7.867,13.6474 7.888,14.9644 C7.899,15.8054 8.36,16.5424 9.038,16.9474 C9.357,17.1384 9.724,17.2574 10.115,17.2784 C10.423,17.2954 10.717,17.2524 10.99,17.1634 C11.93,16.8524 12.607,15.9694 12.607,14.9284 L12.611,11.0334 L12.611,3.9244 L15.212,3.9244 C15.215,4.1814 15.241,4.4334 15.29,4.6774 C15.486,5.6634 16.042,6.5194 16.816,7.1034 C17.491,7.6124 18.332,7.9144 19.242,7.9144 C19.242,7.9144 19.251,7.9144 19.2500776,7.9134 L19.2500776,8.6144 Z" id="Fill-38" fill="#000000"></path>
    </g>
</svg>