<svg xmlns="http://www.w3.org/2000/svg" width="24" height="24" viewBox="0 0 24 24">
  <path fill-rule="evenodd" d="M19,8.69023361 L19,10.5798719 C18.1089226,10.5798719 17.243115,10.4052497 16.4271047,10.0606529 C15.9019101,9.83955332 15.4132334,9.55404929 14.9657224,9.2087886 L14.9790017,15.0244393 C14.97369,16.333774 14.455135,17.5640972 13.5176194,18.4903254 C12.7547261,19.2445872 11.7879962,19.7246323 10.7402628,19.8799996 C10.4932686,19.9165176 10.2429546,19.9351085 9.98998479,19.9351085 C8.8672236,19.9351085 7.80289114,19.5719209 6.93110791,18.9013184 C6.76710908,18.7745015 6.61041385,18.6377251 6.46102221,18.4903254 C5.44515904,17.4864135 4.92129235,16.1252897 5.00959941,14.6931218 C5.07665965,13.6028948 5.51354721,12.5631289 6.24058654,11.7484465 C7.20266872,10.6701708 8.54984935,10.0719403 9.98998479,10.0719403 C10.2429546,10.0719403 10.4932686,10.0911952 10.7402628,10.1277132 L10.7402628,10.8262021 L10.7402628,12.7696214 C10.5065479,12.6919377 10.2568979,12.6494441 9.99728838,12.6494441 C8.68197796,12.6494441 7.6176455,13.7230721 7.63756439,15.0397104 C7.64951572,15.8816153 8.11030594,16.6179501 8.78821202,17.0236314 C9.10757815,17.2141888 9.47408565,17.3330381 9.86582373,17.3542849 C10.1725746,17.370884 10.4667101,17.3283904 10.7402628,17.2387554 C11.6797703,16.9280208 12.3576763,16.0449502 12.3576763,15.0038564 L12.3609961,11.1097143 L12.3609961,4 L14.9624026,4 C14.9650585,4.25761759 14.991617,4.50925951 15.0400863,4.75293388 C15.2359553,5.73958268 15.7923562,6.5954308 16.5665369,7.17905415 C17.2417871,7.68831366 18.0817001,7.9897528 18.9919932,7.9897528 C18.9926571,7.9897528 19.0006247,7.9897528 19,7.98908884 L19,8.69023361 Z"/>
</svg>
