<svg id="Layer_1" xmlns="http://www.w3.org/2000/svg" width="24px" height="24px" viewBox="0 0 24 24"><defs><style>.cls-1{fill-rule:evenodd;}</style></defs><g id="mask-2"><path id="path-1" class="cls-1" d="M13.9,20c-2.4,0-4.2-1.2-4.2-4.2V11.1H7.5V8.5A4.7,4.7,0,0,0,11,4h2.5V8.1h2.9v3H13.5v4.1c0,1.2.6,1.7,1.6,1.7h1.4V20H13.9"/></g><g id="_09-Icons-_-Social-_-Tumblr"><g id="_-Color"><path id="path-1-2" class="cls-1" d="M13.9,20c-2.4,0-4.2-1.2-4.2-4.2V11.1H7.5V8.5A4.7,4.7,0,0,0,11,4h2.5V8.1h2.9v3H13.5v4.1c0,1.2.6,1.7,1.6,1.7h1.4V20H13.9"/></g></g></svg>
