<svg id="Layer_1" xmlns="http://www.w3.org/2000/svg" width="24px" height="24px" viewBox="0 0 24 24"><defs><style>.cls-1{fill-rule:evenodd;}</style></defs><g id="mask-2"><path id="path-1" class="cls-1" d="M18.1,7.5a3.8,3.8,0,0,0,1.5-1.8l-2.1.8a3.3,3.3,0,0,0-3.6-.9,3.4,3.4,0,0,0-2.1,3.1,2.2,2.2,0,0,0,.1.8A9.1,9.1,0,0,1,5.1,6a3.3,3.3,0,0,0-.4,1.7,3.1,3.1,0,0,0,1.2,2.8L4.1,10h0A3.5,3.5,0,0,0,7,13.3l-.7.2H5.7a3.3,3.3,0,0,0,3.1,2.3,6.5,6.5,0,0,1-4,1.4H4a9,9,0,0,0,9.5.3,9.4,9.4,0,0,0,4.9-8.3V8.7A8.5,8.5,0,0,0,20,7Z"/></g><g id="_09-Icons-_-Social-_-Twitter"><g id="_-Color"><path id="path-1-2" class="cls-1" d="M18.1,7.5a3.8,3.8,0,0,0,1.5-1.8l-2.1.8a3.3,3.3,0,0,0-3.6-.9,3.4,3.4,0,0,0-2.1,3.1,2.2,2.2,0,0,0,.1.8A9.1,9.1,0,0,1,5.1,6a3.3,3.3,0,0,0-.4,1.7,3.1,3.1,0,0,0,1.2,2.8L4.1,10h0A3.5,3.5,0,0,0,7,13.3l-.7.2H5.7a3.3,3.3,0,0,0,3.1,2.3,6.5,6.5,0,0,1-4,1.4H4a9,9,0,0,0,9.5.3,9.4,9.4,0,0,0,4.9-8.3V8.7A8.5,8.5,0,0,0,20,7Z"/></g></g></svg>
