<?xml version="1.0" encoding="UTF-8"?>
<svg width="25px" height="24px" viewBox="0 0 25 24" version="1.1" xmlns="http://www.w3.org/2000/svg" xmlns:xlink="http://www.w3.org/1999/xlink">
    <title>Twitter</title>
    <g id="Twitter" stroke="none" stroke-width="1" fill="none" fill-rule="evenodd" transform="translate(1.000000, 0.000000)">
        <path d="M18.373,7.8849 C19.056,7.4679 19.566,6.8159 19.812,6.0469 C19.169,6.4339 18.466,6.7069 17.732,6.8549 C16.81,5.8589 15.381,5.5349 14.128,6.0369 C12.874,6.5379 12.05,7.7639 12.047,9.1309 C12.049,9.3849 12.077,9.6389 12.133,9.8869 C9.494,9.7529 7.035,8.4889 5.37,6.4099 C5.074,6.9169 4.92,7.4939 4.922,8.0829 C4.828,9.1549 5.283,10.1999 6.127,10.8529 C5.537,10.7659 4.955,10.6269 4.389,10.4359 L4.389,10.4779 C4.502,12.1079 5.692,13.4519 7.279,13.7399 C7.041,13.8179 6.793,13.8579 6.543,13.8569 C6.356,13.8579 6.171,13.8369 5.988,13.7969 C6.429,15.1559 7.671,16.0839 9.082,16.1079 C7.925,17.0339 6.492,17.5359 5.018,17.5309 C4.761,17.5319 4.505,17.5169 4.25,17.4849 C7.125,19.3509 10.775,19.4789 13.77,17.8189 C16.766,16.1579 18.628,12.9739 18.629,9.5139 C18.629,9.3699 18.618,9.2269 18.618,9.0819 C19.259,8.6119 19.811,8.0289 20.25,7.3619 C19.653,7.6309 19.02,7.8069 18.373,7.8849" id="Fill-41" fill="#000000"></path>
    </g>
</svg>