<?xml version="1.0" encoding="UTF-8"?>
<svg width="17px" height="16px" viewBox="0 0 17 16" version="1.1" xmlns="http://www.w3.org/2000/svg" xmlns:xlink="http://www.w3.org/1999/xlink">
    <title>Video_XSmall_16X16</title>
    <g id="Video_XSmall_16X16" stroke="none" stroke-width="1" fill="none" fill-rule="evenodd" transform="translate(1.000000, 0.000000)">
        <path d="M12.5928,5.0898 C12.3428,4.9568 12.0398,4.9718 11.8018,5.1288 L9.9998,6.3338 L9.9998,4.9998 C9.9998,4.4478 9.5508,3.9998 8.9998,3.9998 L2.9998,3.9998 C2.4488,3.9998 1.9998,4.4478 1.9998,4.9998 L1.9998,10.9998 C1.9998,11.5518 2.4488,11.9998 2.9998,11.9998 L8.9998,11.9998 C9.5508,11.9998 9.9998,11.5518 9.9998,10.9998 L9.9998,9.6648 L11.8018,10.8698 C11.9318,10.9558 12.0808,10.9998 12.2298,10.9998 C12.3548,10.9998 12.4788,10.9698 12.5928,10.9088 C12.8438,10.7738 12.9998,10.5138 12.9998,10.2288 L12.9998,5.7718 C12.9998,5.4858 12.8438,5.2248 12.5928,5.0898" id="Fill-2" fill="#000000"></path>
    </g>
</svg>