<svg xmlns="http://www.w3.org/2000/svg" width="30" height="30" viewBox="0 0 30 30">
  <path fill-rule="evenodd" d="M26.0024,20.7344 L21.0004,17.5374 L21.0004,12.4554 L26.0024,9.2664 L26.0024,20.7344 Z M20.0004,21.5004 C20.0004,21.7754 19.7754,22.0004 19.5004,22.0004 L4.5004,22.0004 C4.2244,22.0004 4.0004,21.7754 4.0004,21.5004 L4.0004,8.5004 C4.0004,8.2244 4.2244,8.0004 4.5004,8.0004 L19.5004,8.0004 C19.7754,8.0004 20.0004,8.2244 20.0004,8.5004 L20.0004,21.5004 Z M26.4834,8.3894 C26.1644,8.2144 25.7734,8.2274 25.4644,8.4224 L21.0004,11.2694 L21.0004,8.5004 C21.0004,7.6724 20.3274,7.0004 19.5004,7.0004 L4.5004,7.0004 C3.6724,7.0004 3.0004,7.6724 3.0004,8.5004 L3.0004,21.5004 C3.0004,22.3274 3.6724,23.0004 4.5004,23.0004 L19.5004,23.0004 C20.3274,23.0004 21.0004,22.3274 21.0004,21.5004 L21.0004,18.7224 L25.4634,21.5764 C25.6274,21.6814 25.8144,21.7344 26.0024,21.7344 C26.1674,21.7344 26.3324,21.6934 26.4824,21.6114 C26.8034,21.4354 27.0024,21.0994 27.0024,20.7334 L27.0024,9.2664 C27.0024,8.9014 26.8034,8.5654 26.4834,8.3894 L26.4834,8.3894 Z"/>
</svg>
