<?xml version="1.0" encoding="UTF-8"?>
<svg width="21px" height="20px" viewBox="0 0 21 20" version="1.1" xmlns="http://www.w3.org/2000/svg" xmlns:xlink="http://www.w3.org/1999/xlink">
    <title>VideoFill_Small_20X20</title>
    <g id="VideoFill_Small_20X20" stroke="none" stroke-width="1" fill="none" fill-rule="evenodd" transform="translate(1.000000, 0.000000)">
        <path d="M10.5,4 C11.327,4 12,4.673 12,5.5 L12,5.5 L12,13.5 C12,14.327 11.327,15 10.5,15 L10.5,15 L3.5,15 C2.673,15 2,14.327 2,13.5 L2,13.5 L2,5.5 C2,4.673 2.673,4 3.5,4 L3.5,4 Z M15.6335,5.1307 C15.9105,4.9617 16.2585,4.9557 16.5415,5.1157 C16.8245,5.2757 16.9995,5.5757 16.9995,5.9007 L16.9995,5.9007 L16.9995,13.0997 C16.9995,13.4247 16.8245,13.7247 16.5415,13.8847 C16.4045,13.9617 16.2525,13.9996993 16.1005,13.9996993 C15.9375,13.9996993 15.7765,13.9567 15.6335,13.8697 L15.6335,13.8697 L12.9995,12.2707 L12.9995,6.7297 Z" id="Combined-Shape" fill="#000000"></path>
    </g>
</svg>