<?xml version="1.0" encoding="UTF-8"?>
<svg width="25px" height="24px" viewBox="0 0 25 24" version="1.1" xmlns="http://www.w3.org/2000/svg" xmlns:xlink="http://www.w3.org/1999/xlink">
    <title>Vimeo</title>
    <g id="Vimeo" stroke="none" stroke-width="1" fill="none" fill-rule="evenodd" transform="translate(1.000000, 0.000000)">
        <path d="M19.992,8.20785547 C19.921,9.76885547 18.833,11.9048555 16.729,14.6168555 C14.554,17.4498555 12.713,18.8668555 11.207,18.8668555 C10.275,18.8668555 9.486,18.0048555 8.841,16.2788555 C8.41,14.6968555 7.98,13.1158555 7.55,11.5338555 C7.071,9.80985547 6.557,8.94585547 6.008,8.94585547 C5.888,8.94585547 5.47,9.19885547 4.753,9.70085547 L4,8.72885547 C4.789,8.03385547 5.569,7.33985547 6.335,6.64385547 C7.388,5.73085547 8.179,5.25185547 8.705,5.20385547 C9.95,5.08385547 10.717,5.93685547 11.005,7.76285547 C11.316,9.73085547 11.531,10.9568555 11.652,11.4368555 C12.011,13.0698555 12.406,13.8868555 12.837,13.8868555 C13.172,13.8868555 13.675,13.3558555 14.346,12.2968555 C15.016,11.2358555 15.375,10.4298555 15.423,9.87585547 C15.518,8.96085547 15.159,8.50285547 14.346,8.50285547 C13.963,8.50285547 13.568,8.59085547 13.161,8.76585547 C13.948,6.18485547 15.45,4.93185547 17.668,5.00285547 C19.312,5.05185547 20.087,6.11985547 19.992,8.20785547" id="Fill-43" fill="#000000"></path>
    </g>
</svg>