<svg id="Layer_1" xmlns="http://www.w3.org/2000/svg" width="24px" height="24px" viewBox="0 0 24 24"><defs><style>.cls-1{fill-rule:evenodd;}</style></defs><g id="_09-Icons-_-Social-_-Vimeo"><path id="_-Color" class="cls-1" d="M20,8.3c-.1,1.5-1.2,3.7-3.3,6.4s-4,4.2-5.5,4.2-1.7-.8-2.4-2.6S8,13.2,7.5,11.6,6.6,9,6,9l-1.2.8L4,8.8,6.3,6.7A5.1,5.1,0,0,1,8.7,5.3c1.3-.1,2,.7,2.3,2.5a23.9,23.9,0,0,0,.7,3.7c.3,1.6.7,2.5,1.1,2.5s.9-.6,1.5-1.6a5.5,5.5,0,0,0,1.1-2.5c.1-.9-.2-1.3-1.1-1.3l-1.1.2c.7-2.5,2.3-3.8,4.5-3.7S20.1,6.2,20,8.3"/></g></svg>
