<?xml version="1.0" encoding="UTF-8"?>
<svg width="21px" height="20px" viewBox="0 0 21 20" version="1.1" xmlns="http://www.w3.org/2000/svg" xmlns:xlink="http://www.w3.org/1999/xlink">
    <title>VisibleFill_Small_20X20</title>
    <g id="VisibleFill_Small_20X20" stroke="none" stroke-width="1" fill="none" fill-rule="evenodd" transform="translate(1.000000, 0.000000)">
        <path d="M10,4 C14.173,4 16.523,7.728 17.339,9.331 C17.553,9.75 17.553,10.25 17.34,10.669 C16.523,12.272 14.173,16 10,16 C5.827,16 3.477,12.272 2.661,10.669 C2.447,10.25 2.447,9.75 2.66,9.331 C2.66,9.331 2.661,9.331 2.661,9.331 L2.72508077,9.20688208 C3.59563938,7.54393 5.931325,4 10,4 Z M10,7 C8.346,7 7,8.346 7,10 C7,11.654 8.346,13 10,13 C11.654,13 13,11.654 13,10 C13,8.346 11.654,7 10,7 Z M10,8 C11.103,8 12,8.897 12,10 C12,11.103 11.103,12 10,12 C8.897,12 8,11.103 8,10 C8,8.897 8.897,8 10,8 Z" id="Combined-Shape" fill="#000000"></path>
    </g>
</svg>