<svg xmlns="http://www.w3.org/2000/svg" width="30" height="30" viewBox="0 0 30 30">
  <path fill-rule="evenodd" d="M15.0002,6.0002 C21.4012,6.0002 25.0192,11.6582 26.2782,14.0922 C26.5722,14.6602 26.5722,15.3402 26.2772,15.9092 C25.0192,18.3422 21.4012,24.0002 15.0002,24.0002 C8.6002,24.0002 4.9812,18.3422 3.7222,15.9082 C3.4282,15.3402 3.4282,14.6602 3.7222,14.0922 C4.9812,11.6582 8.6002,6.0002 15.0002,6.0002 Z M15.0002,7.0002 C9.1492,7.0002 5.7852,12.2802 4.6102,14.5512 L4.6102,14.5512 C4.4632,14.8372 4.4632,15.1632 4.6102,15.4482 C5.7852,17.7202 9.1492,23.0002 15.0002,23.0002 C20.8522,23.0002 24.2152,17.7202 25.3892,15.4492 C25.5372,15.1632 25.5372,14.8372 25.3892,14.5522 C24.2152,12.2802 20.8522,7.0002 15.0002,7.0002 Z M15,10.5 C17.481,10.5 19.5,12.519 19.5,15 C19.5,17.481 17.481,19.5 15,19.5 C12.519,19.5 10.5,17.481 10.5,15 C10.5,12.519 12.519,10.5 15,10.5 Z M15,11.5 C13.07,11.5 11.5,13.07 11.5,15 C11.5,16.93 13.07,18.5 15,18.5 C16.93,18.5 18.5,16.93 18.5,15 C18.5,13.07 16.93,11.5 15,11.5 Z"/>
</svg>
