<?xml version="1.0" encoding="UTF-8"?>
<svg width="21px" height="20px" viewBox="0 0 21 20" version="1.1" xmlns="http://www.w3.org/2000/svg" xmlns:xlink="http://www.w3.org/1999/xlink">
    <title>Visible_Small_20X20</title>
    <g id="Visible_Small_20X20" stroke="none" stroke-width="1" fill="none" fill-rule="evenodd" transform="translate(1.000000, 0.000000)">
        <path d="M9.9997,4.0003 C14.1727,4.0003 16.5227,7.7283 17.3397,9.3303 C17.5527,9.7503 17.5527,10.2503 17.3397,10.6693 C16.5227,12.2723 14.1727,16.0003 9.9997,16.0003 C5.8267,16.0003 3.4767,12.2723 2.6607,10.6693 C2.4477,10.2503 2.4477,9.7503 2.6597,9.3313 C2.6597,9.3303 2.6607,9.3303 2.6607,9.3303 L2.72478077,9.20625522 C3.59533937,7.54423 5.931025,4.0003 9.9997,4.0003 Z M9.9997,5.0003 C6.3807,5.0003 4.2847,8.3453 3.5517,9.7843 C3.4827,9.9193 3.4827,10.0803 3.5517,10.2153 C4.2847,11.6533 6.3807,15.0003 9.9997,15.0003 C13.6197,15.0003 15.7157,11.6533 16.4487,10.2153 C16.5167,10.0803 16.5167,9.9193 16.4487,9.7843 C15.7157,8.3463 13.6197,5.0003 9.9997,5.0003 Z M10,7 C11.654,7 13,8.346 13,10 C13,11.654 11.654,13 10,13 C8.346,13 7,11.654 7,10 C7,8.346 8.346,7 10,7 Z M10,8 C8.897,8 8,8.897 8,10 C8,11.103 8.897,12 10,12 C11.103,12 12,11.103 12,10 C12,8.897 11.103,8 10,8 Z" id="Combined-Shape" fill="#000000"></path>
    </g>
</svg>