<svg xmlns="http://www.w3.org/2000/svg" width="24" height="24" viewBox="0 0 24 24">
  <path fill-rule="evenodd" d="M20.4518,7.67725 C20.5688,7.28675 20.4518,7.00025 19.8948,7.00025 L18.0523,7.00025 C17.5843,7.00025 17.3683,7.24775 17.2513,7.52125 C17.2513,7.52125 16.3148,9.80425 14.9873,11.28775 C14.5583,11.71675 14.3628,11.85375 14.1288,11.85375 C14.0113,11.85375 13.8418,11.71675 13.8418,11.32675 L13.8418,7.67725 C13.8418,7.20875 13.7063,7.00025 13.3158,7.00025 L10.4208,7.00025 C10.1288,7.00025 9.9523,7.21725 9.9523,7.42325 C9.9523,7.86725 10.6158,7.96975 10.6843,9.21875 L10.6843,11.93175 C10.6843,12.52625 10.5768,12.63425 10.3423,12.63425 C9.7178,12.63425 8.1988,10.34075 7.2978,7.71625 C7.1218,7.20625 6.9443,7.00025 6.4738,7.00025 L4.6313,7.00025 C4.1053,7.00025 4.0003,7.24775 4.0003,7.52125 C4.0003,8.00875 4.6248,10.42875 6.9078,13.62925 C8.4298,15.81525 10.5748,17.00025 12.5263,17.00025 C13.6973,17.00025 13.8418,16.73675 13.8418,16.28325 L13.8418,14.63175 C13.8418,14.10525 13.9533,14.00025 14.3238,14.00025 C14.5968,14.00025 15.0658,14.13675 16.1583,15.19075 C17.4073,16.43975 17.6133,17.00025 18.3158,17.00025 L20.1578,17.00025 C20.6843,17.00025 20.9473,16.73675 20.7953,16.21775 C20.6293,15.69975 20.0328,14.94875 19.2418,14.05875 C18.8128,13.55125 18.1688,13.00475 17.9733,12.73175 C17.6998,12.38025 17.7778,12.22425 17.9733,11.91225 C17.9733,11.91225 20.2173,8.75025 20.4518,7.67725"/>
</svg>
