<?xml version="1.0" encoding="UTF-8"?>
<svg width="25px" height="24px" viewBox="0 0 25 24" version="1.1" xmlns="http://www.w3.org/2000/svg" xmlns:xlink="http://www.w3.org/1999/xlink">
    <title>VKontakte</title>
    <g id="VKontakte" stroke="none" stroke-width="1" fill="none" fill-rule="evenodd" transform="translate(1.000000, 0.000000)">
        <path d="M19.4511,7.67678 C19.5681,7.28578 19.4511,6.99978 18.8941,6.99978 L17.0521,6.99978 C16.5841,6.99978 16.3681,7.24678 16.2511,7.52078 C16.2511,7.52078 15.3141,9.80378 13.9871,11.28678 C13.5571,11.71678 13.3621,11.85378 13.1291,11.85378 C13.0111,11.85378 12.8421,11.71678 12.8421,11.32578 L12.8421,7.67678 C12.8421,7.20778 12.7061,6.99978 12.3151,6.99978 L9.4211,6.99978 C9.1291,6.99978 8.9521,7.21678 8.9521,7.42278 C8.9521,7.86678 9.6151,7.96978 9.6831,9.21878 L9.6831,11.93178 C9.6831,12.52678 9.5761,12.63378 9.3421,12.63378 C8.7181,12.63378 7.1981,10.34078 6.2981,7.71578 C6.1211,7.20578 5.9441,6.99978 5.4731,6.99978 L3.6311,6.99978 C3.1051,6.99978 3.0001,7.24678 3.0001,7.52078 C3.0001,8.00878 3.6251,10.42878 5.9071,13.62878 C7.4301,15.81478 9.5741,16.99978 11.5261,16.99978 C12.6971,16.99978 12.8421,16.73678 12.8421,16.28278 L12.8421,14.63178 C12.8421,14.10478 12.9531,13.99978 13.3231,13.99978 C13.5971,13.99978 14.0651,14.13678 15.1581,15.19078 C16.4071,16.43978 16.6131,16.99978 17.3151,16.99978 L19.1571,16.99978 C19.6831,16.99978 19.9471,16.73678 19.7951,16.21778 C19.6291,15.69878 19.0321,14.94778 18.2411,14.05878 C17.8121,13.55078 17.1691,13.00478 16.9721,12.73178 C16.6991,12.37978 16.7771,12.22378 16.9721,11.91178 C16.9721,11.91178 19.2171,8.74978 19.4511,7.67678" id="Fill-1" fill="#000000"></path>
    </g>
</svg>