<svg id="Layer_1" xmlns="http://www.w3.org/2000/svg" width="24px" height="24px" viewBox="0 0 24 24"><defs><style>.cls-1{fill-rule:evenodd;}</style></defs><g id="_09-Icons-_-Social-_-Youtube"><path id="_-Color" class="cls-1" d="M12.3,6.4a40.2,40.2,0,0,1,6,.3,2.2,2.2,0,0,1,1.4,1.4,19,19,0,0,1,.3,3.8h0a19,19,0,0,1-.3,3.8,2.2,2.2,0,0,1-1.4,1.4,43.6,43.6,0,0,1-6.1.3h-.4a43.6,43.6,0,0,1-6.1-.3,2.2,2.2,0,0,1-1.4-1.4A19,19,0,0,1,4,12.1v-.2a19,19,0,0,1,.3-3.8A2.2,2.2,0,0,1,5.7,6.7a40.2,40.2,0,0,1,6-.3ZM10.4,9.6v4.8L14.5,12Z"/></g></svg>
