<?xml version="1.0" encoding="UTF-8"?>
<svg width="25px" height="24px" viewBox="0 0 25 24" version="1.1" xmlns="http://www.w3.org/2000/svg" xmlns:xlink="http://www.w3.org/1999/xlink">
    <title>Youtube</title>
    <g id="Youtube" stroke="none" stroke-width="1" fill="none" fill-rule="evenodd" transform="translate(1.000000, 0.000000)">
        <path d="M10.363,9.257 L10.363,14.015 L14.545,11.636 L10.363,9.257 Z M12.28,6 C13.352,6.006 17.181,6.047 18.251,6.336 C18.939,6.521 19.481,7.067 19.665,7.76 C19.962,8.876 19.995,11.07 19.999,11.544 L19.999,11.625 L20,11.636 C20,11.636 20,11.639 19.999,11.646 L19.999,11.727 C19.995,12.201 19.962,14.396 19.665,15.512 C19.481,16.204 18.939,16.75 18.251,16.936 C17.145,17.234 13.094,17.268 12.182,17.272 L11.817,17.272 C10.905,17.268 6.854,17.234 5.748,16.936 C5.06,16.75 4.518,16.204 4.334,15.512 C4.037,14.396 4.004,12.201 4,11.727 L4,11.544 C4.004,11.07 4.037,8.876 4.334,7.76 C4.518,7.067 5.06,6.521 5.748,6.336 C6.818,6.047 10.647,6.006 11.718,6 L12.28,6 Z" id="Fill-44" fill="#000000"></path>
    </g>
</svg>