<svg xmlns="http://www.w3.org/2000/svg" width="32" height="32" viewBox="0 0 32 32">
  <path fill-rule="evenodd" d="M22.8854885,16.374 L17.4194885,26.733 C17.3324885,26.898 17.1634885,27 16.9774885,27 L16.5014885,27 L16.5014885,18.189 C17.5014885,17.961 18.2514885,17.068 18.2514885,16 C18.2514885,14.76 17.2414885,13.75 16.0014885,13.75 C14.7604885,13.75 13.7514885,14.76 13.7514885,16 C13.7514885,17.068 14.5014885,17.961 15.5014885,18.189 L15.5014885,27 L15.0254885,27 C14.8394885,27 14.6694885,26.898 14.5834885,26.733 L9.11648852,16.374 C8.97348852,16.102 8.96248852,15.785 9.08548852,15.504 L11.9434885,9 L20.0584885,9 L22.9164885,15.504 C23.0404885,15.785 23.0294885,16.102 22.8854885,16.374 M16.0014885,17.25 C15.3114885,17.25 14.7514885,16.689 14.7514885,16 C14.7514885,15.311 15.3114885,14.75 16.0014885,14.75 C16.6904885,14.75 17.2514885,15.311 17.2514885,16 C17.2514885,16.689 16.6904885,17.25 16.0014885,17.25 M10.5014885,7.5 L10.5014885,5.5 C10.5014885,5.225 10.7254885,5 11.0014885,5 L21.0014885,5 C21.2774885,5 21.5014885,5.225 21.5014885,5.5 L21.5014885,7.5 C21.5014885,7.775 21.2774885,8 21.0014885,8 L11.0014885,8 C10.7254885,8 10.5014885,7.775 10.5014885,7.5 M23.8314885,15.102 L21.1444885,8.985 C21.9034885,8.912 22.5014885,8.278 22.5014885,7.5 L22.5014885,5.5 C22.5014885,4.673 21.8284885,4 21.0014885,4 L11.0014885,4 C10.1744885,4 9.50148852,4.673 9.50148852,5.5 L9.50148852,7.5 C9.50148852,8.278 10.0984885,8.912 10.8584885,8.985 L8.17048852,15.102 C7.92348852,15.662 7.94548852,16.297 8.23248852,16.841 L13.6984885,27.2 C13.9584885,27.693 14.4674885,28 15.0254885,28 L16.9774885,28 C17.5354885,28 18.0434885,27.693 18.3034885,27.2 L23.7704885,16.841 C24.0564885,16.297 24.0794885,15.662 23.8314885,15.102"/>
</svg>
