<svg xmlns="http://www.w3.org/2000/svg" width="32" height="32" viewBox="0 0 32 32">
  <path fill-rule="evenodd" d="M11,6 L11,7 L21,7 L21,6 L22,6 L22,7 L24.5,7 C25.327,7 26,7.673 26,8.5 L26,8.5 L26,25.5 C26,26.327 25.327,27 24.5,27 L24.5,27 L7.5,27 C6.673,27 6,26.327 6,25.5 L6,25.5 L6,8.5 C6,7.673 6.673,7 7.5,7 L7.5,7 L10,7 L10,6 L11,6 Z M25,12 L7,12 L7,25.5 C7,25.775 7.224,26 7.5,26 L7.5,26 L24.5,26 C24.776,26 25,25.775 25,25.5 L25,25.5 L25,12 Z M13,20 L13,22 L11,22 L11,20 L13,20 Z M17,20 L17,22 L15,22 L15,20 L17,20 Z M21,20 L21,22 L19,22 L19,20 L21,20 Z M13,16 L13,18 L11,18 L11,16 L13,16 Z M17,16 L17,18 L15,18 L15,16 L17,16 Z M21,16 L21,18 L19,18 L19,16 L21,16 Z M10,8 L7.5,8 C7.224,8 7,8.225 7,8.5 L7,8.5 L7,11 L25,11 L25,8.5 C25,8.225 24.776,8 24.5,8 L24.5,8 L22,8 L22,9 L21,9 L21,8 L11,8 L11,9 L10,9 L10,8 Z"/>
</svg>
