<svg xmlns="http://www.w3.org/2000/svg" width="32" height="32" viewBox="0 0 32 32">
  <path fill-rule="evenodd" d="M18.683,7 C19.154,7 19.604,7.226 19.885,7.604 L19.885,7.604 L20.776,8.799 C20.87,8.925 21.02,9 21.177,9 L21.177,9 L25.5,9 C26.327,9 27,9.673 27,10.5 L27,10.5 L27,23.5 C27,24.327 26.327,25 25.5,25 L25.5,25 L6.5,25 C5.673,25 5,24.327 5,23.5 L5,23.5 L5,10.5 C5,9.673 5.673,9 6.5,9 L6.5,9 L10.834,9 C10.988,9 11.136,8.928 11.23,8.807 L11.23,8.807 L12.181,7.58 C12.462,7.217 12.905,7 13.366,7 L13.366,7 Z M18.683,8 L13.366,8 C13.212,8 13.064,8.072 12.971,8.192 L12.971,8.192 L12.02,9.42 C11.738,9.783 11.295,10 10.834,10 L10.834,10 L6.5,10 C6.224,10 6,10.225 6,10.5 L6,10.5 L6,23.5 C6,23.775 6.224,24 6.5,24 L6.5,24 L25.5,24 C25.776,24 26,23.775 26,23.5 L26,23.5 L26,10.5 C26,10.225 25.776,10 25.5,10 L25.5,10 L21.177,10 C20.706,10 20.256,9.774 19.975,9.396 L19.975,9.396 L19.084,8.201 C18.99,8.075 18.84,8 18.683,8 L18.683,8 Z M16,12 C18.481,12 20.5,14.019 20.5,16.5 C20.5,18.981 18.481,21 16,21 C13.519,21 11.5,18.981 11.5,16.5 C11.5,14.019 13.519,12 16,12 Z M16,13 C14.07,13 12.5,14.57 12.5,16.5 C12.5,18.43 14.07,20 16,20 C17.93,20 19.5,18.43 19.5,16.5 C19.5,14.57 17.93,13 16,13 Z"/>
</svg>
