<svg xmlns="http://www.w3.org/2000/svg" width="32" height="32" viewBox="0 0 32 32">
  <path fill-rule="evenodd" d="M7.5,6 C7.224,6 7,6.225 7,6.5 L7,19.5 C7,19.775 7.224,20 7.5,20 L11.5,20 C11.776,20 12,20.224 12,20.5 L12,24.867 C12,24.938 12.043,24.973 12.079,24.989 C12.115,25.004 12.168,25.014 12.223,24.967 L17.668,20.126 C17.759,20.045 17.877,20 18,20 L24.5,20 C24.776,20 25,19.775 25,19.5 L25,6.5 C25,6.225 24.776,6 24.5,6 L7.5,6 Z M12.138,26.003 C11.98,26.003 11.821,25.97 11.669,25.901 C11.256,25.716 11,25.319 11,24.867 L11,21 L7.5,21 C6.673,21 6,20.327 6,19.5 L6,6.5 C6,5.673 6.673,5 7.5,5 L24.5,5 C25.327,5 26,5.673 26,6.5 L26,19.5 C26,20.327 25.327,21 24.5,21 L18.19,21 L12.887,25.715 C12.673,25.904 12.408,26.003 12.138,26.003 L12.138,26.003 Z"/>
</svg>
