<svg xmlns="http://www.w3.org/2000/svg" width="32" height="32" viewBox="0 0 32 32">
  <path fill-rule="evenodd" d="M18.5,5 C19.327,5 20,5.673 20,6.5 L20,6.5 L20,8 L26,8 L26,9 L24,9 L24,24.5 C24,25.879 22.878,27 21.5,27 L21.5,27 L10.5,27 C9.122,27 8,25.879 8,24.5 L8,24.5 L8,9 L6,9 L6,8 L12,8 L12,6.5 C12,5.673 12.673,5 13.5,5 L13.5,5 Z M23,9 L9,9 L9,24.5 C9,25.327 9.673,26 10.5,26 L10.5,26 L21.5,26 C22.327,26 23,25.327 23,24.5 L23,24.5 L23,9 Z M14,13 L14,22 L13,22 L13,13 L14,13 Z M19,13 L19,22 L18,22 L18,13 L19,13 Z M18.5,6 L13.5,6 C13.224,6 13,6.225 13,6.5 L13,6.5 L13,8 L19,8 L19,6.5 C19,6.225 18.776,6 18.5,6 L18.5,6 Z"/>
</svg>
