<svg xmlns="http://www.w3.org/2000/svg" width="32" height="32" viewBox="0 0 32 32">
  <path fill-rule="evenodd" d="M17.083,5 C17.484,5 17.861,5.156 18.144,5.439 L18.144,5.439 L24.561,11.855 C24.84,12.135 25,12.521 25,12.916 L25,12.916 L25,25.5 C25,26.327 24.327,27 23.5,27 L23.5,27 L8.5,27 C7.673,27 7,26.327 7,25.5 L7,25.5 L7,6.5 C7,5.673 7.673,5 8.5,5 L8.5,5 Z M17,6 L8.5,6 C8.224,6 8,6.225 8,6.5 L8,6.5 L8,25.5 C8,25.775 8.224,26 8.5,26 L8.5,26 L23.5,26 C23.776,26 24,25.775 24,25.5 L24,25.5 L24,13 L18.5,13 C17.673,13 17,12.327 17,11.5 L17,11.5 L17,6 Z M20,21 L20,22 L12,22 L12,21 L20,21 Z M20,17 L20,18 L12,18 L12,17 L20,17 Z M18,6.709 L18,11.5 C18,11.775 18.224,12 18.5,12 L18.5,12 L23.291,12 L18,6.709 Z"/>
</svg>
