<svg xmlns="http://www.w3.org/2000/svg" width="32" height="32" viewBox="0 0 32 32">
  <path fill-rule="evenodd" d="M24.8508116,10.33225 L23.1888116,11.99425 L19.9888116,8.79425 L21.6508116,7.13225 L21.6518116,7.13225 C21.7458116,7.03725 21.8708116,6.98525 22.0048116,6.98525 C22.1378116,6.98525 22.2638116,7.03725 22.3578116,7.13225 L24.8508116,9.62525 C25.0458116,9.82025 25.0458116,10.13725 24.8508116,10.33225 L24.8508116,10.33225 Z M11.2908116,23.89325 C11.1478116,24.03525 10.9678116,24.13125 10.7698116,24.16825 L7.12681162,24.85625 L7.81481162,21.21425 C7.85281162,21.01625 7.94781162,20.83525 8.09081162,20.69225 L19.2818116,9.50125 L22.4818116,12.70125 L11.2908116,23.89325 Z M25.5578116,8.91825 L23.0648116,6.42525 C22.4978116,5.85825 21.5098116,5.85825 20.9438116,6.42525 L7.38481162,19.98525 C7.09881162,20.27025 6.90781162,20.63125 6.83281162,21.02825 L6.00881162,25.39125 C5.97781162,25.55325 6.02981162,25.72025 6.14581162,25.83725 C6.24081162,25.93225 6.36881162,25.98325 6.49981162,25.98325 C6.53081162,25.98325 6.56181162,25.98025 6.59281162,25.97525 L10.9548116,25.15025 C11.3508116,25.07625 11.7118116,24.88625 11.9978116,24.60025 L25.5578116,11.03925 C26.1428116,10.45425 26.1428116,9.50325 25.5578116,8.91825 L25.5578116,8.91825 Z"/>
</svg>
