<svg xmlns="http://www.w3.org/2000/svg" width="32" height="32" viewBox="0 0 32 32">
  <path fill-rule="evenodd" d="M25.5,24 L6.5,24 C6.224,24 6,23.775 6,23.5 L6,8.684 L14.836,17.49 C15.177,17.829 15.624,17.998 16.071,17.998 C16.519,17.998 16.966,17.829 17.307,17.49 L26,8.826 L26,23.5 C26,23.775 25.776,24 25.5,24 L25.5,24 Z M25.412,8 L16.602,16.781 C16.31,17.072 15.833,17.072 15.542,16.781 L6.731,8 L25.412,8 Z M25.5,7 L6.5,7 C5.673,7 5,7.673 5,8.5 L5,23.5 C5,24.327 5.673,25 6.5,25 L25.5,25 C26.327,25 27,24.327 27,23.5 L27,8.5 C27,7.673 26.327,7 25.5,7 L25.5,7 Z"/>
</svg>
