<svg xmlns="http://www.w3.org/2000/svg" width="32" height="32" viewBox="0 0 32 32">
  <path fill-rule="evenodd" d="M16,6 L16,7 L7.5,7 C7.224,7 7,7.225 7,7.5 L7,7.5 L7,24.5 C7,24.775 7.224,25 7.5,25 L7.5,25 L24.5,25 C24.776,25 25,24.775 25,24.5 L25,24.5 L25,16 L26,16 L26,24.5 C26,25.327 25.327,26 24.5,26 L24.5,26 L7.5,26 C6.673,26 6,25.327 6,24.5 L6,24.5 L6,7.5 C6,6.673 6.673,6 7.5,6 L7.5,6 L16,6 Z M26,6 L26,12 L25,12 L25,7.704 L16.709,15.995 L16.002,15.288 L24.29,7 L20,7 L20,6 L26,6 Z"/>
</svg>
