<svg xmlns="http://www.w3.org/2000/svg" width="32" height="32" viewBox="0 0 32 32">
  <path fill-rule="evenodd" d="M28.6265,13.6325 C28.9655,13.3015 29.0845,12.8175 28.9385,12.3665 C28.7925,11.9165 28.4105,11.5945 27.9415,11.5265 L20.5785,10.4565 C20.5015,10.4445 20.4345,10.3965 20.4005,10.3275 L17.1075,3.6545 L17.1075,3.6535 C16.8975,3.2295 16.4735,2.9655 16.0005,2.9655 L15.9995,2.9655 C15.5255,2.9655 15.1025,3.2295 14.8925,3.6545 L11.5985,10.3275 C11.5645,10.3965 11.4985,10.4445 11.4225,10.4565 L4.0575,11.5265 C3.5895,11.5945 3.2075,11.9165 3.0615,12.3665 C2.9155,12.8175 3.0345,13.3015 3.3735,13.6325 L8.7025,18.8265 C8.7575,18.8805 8.7835,18.9585 8.7705,19.0345 L7.5125,26.3695 C7.4325,26.8355 7.6205,27.2985 8.0035,27.5765 C8.2195,27.7345 8.4735,27.8145 8.7285,27.8145 C8.9245,27.8145 9.1215,27.7665 9.3045,27.6705 L15.8895,24.2085 C15.9595,24.1725 16.0415,24.1725 16.1085,24.2075 L22.6955,27.6705 C23.1155,27.8915 23.6135,27.8555 23.9965,27.5765 C24.3795,27.2985 24.5675,26.8355 24.4875,26.3695 L23.2305,19.0355 C23.2165,18.9585 23.2425,18.8805 23.2975,18.8265 L28.6265,13.6325 Z"/>
</svg>
