<svg xmlns="http://www.w3.org/2000/svg" width="32" height="32" viewBox="0 0 32 32">
  <path fill-rule="evenodd" d="M16,3.966 C15.956,3.966 15.848,3.979 15.789,4.097 L12.496,10.77 C12.317,11.133 11.969,11.386 11.567,11.445 L4.202,12.515 C4.072,12.534 4.026,12.634 4.012,12.675 C3.999,12.717 3.978,12.824 4.072,12.917 L9.4,18.111 C9.691,18.394 9.824,18.803 9.755,19.204 L8.498,26.538 C8.476,26.668 8.556,26.742 8.591,26.768 C8.627,26.793 8.721,26.846 8.838,26.786 L15.426,23.323 C15.785,23.133 16.215,23.134 16.574,23.322 L23.162,26.786 C23.277,26.846 23.374,26.793 23.409,26.768 C23.444,26.742 23.524,26.668 23.502,26.538 L22.245,19.204 C22.176,18.803 22.309,18.394 22.6,18.111 L27.928,12.917 C28.022,12.824 28.001,12.717 27.988,12.675 C27.974,12.634 27.928,12.534 27.798,12.515 L20.434,11.445 C20.031,11.386 19.683,11.133 19.504,10.769 L16.211,4.097 C16.152,3.979 16.044,3.966 16,3.966 M8.728,27.814 C8.473,27.814 8.22,27.734 8.003,27.577 C7.62,27.299 7.432,26.836 7.512,26.369 L8.77,19.035 C8.783,18.958 8.758,18.881 8.702,18.826 L3.374,13.633 C3.035,13.302 2.915,12.817 3.061,12.367 C3.208,11.916 3.589,11.594 4.058,11.526 L11.422,10.456 C11.499,10.445 11.565,10.397 11.599,10.328 L14.893,3.654 C15.102,3.23 15.526,2.966 16,2.966 C16.474,2.966 16.898,3.23 17.107,3.654 L20.401,10.327 C20.435,10.397 20.501,10.445 20.579,10.456 L27.942,11.526 C28.411,11.594 28.792,11.916 28.939,12.367 C29.085,12.817 28.965,13.302 28.626,13.633 L23.298,18.826 C23.242,18.881 23.217,18.958 23.23,19.035 L24.488,26.369 C24.568,26.836 24.38,27.299 23.997,27.577 C23.614,27.855 23.116,27.892 22.696,27.671 L16.109,24.208 C16.042,24.173 15.959,24.172 15.891,24.208 L9.304,27.671 C9.122,27.767 8.924,27.814 8.728,27.814"/>
</svg>
