<svg xmlns="http://www.w3.org/2000/svg" width="32" height="32" viewBox="0 0 32 32">
  <path fill-rule="evenodd" d="M21.5,5 C22.327,5 23,5.673 23,6.5 L23,6.5 L23,9 L25.503,9 C26.329,9 27.001,9.672 27.001,10.498 L27.001,10.498 L27.001,25.021 C27.001,25.413 26.778,25.756 26.419,25.916 C26.288,25.975 26.151,26.003 26.016,26.003 C25.78,26.003 25.549,25.917 25.363,25.75 L25.363,25.75 L22.309,23 L10.501,23 C9.673,23 9.001,22.327 9.001,21.5 L9.001,21.5 L9.001,19.623 L6.637,21.75 C6.452,21.916 6.221,22.003 5.985,22.003 C5.85,22.003 5.712,21.975 5.582,21.916 C5.223,21.756 5,21.413 5,21.021 L5,21.021 L5,6.497 C5,5.672 5.671,5 6.497,5 L6.497,5 Z M25.503,10 L23,10 L23,17.5 C23,18.327 22.327,19 21.5,19 L21.5,19 L10.001,19 L10.001,21.5 C10.001,21.775 10.225,22 10.501,22 L10.501,22 L22.501,22 C22.624,22 22.743,22.046 22.835,22.128 L22.835,22.128 L26.032,25.006 L26.001,10.498 C26.001,10.224 25.777,10 25.503,10 L25.503,10 Z M21.5,6 L6.497,6 C6.223,6 6,6.223 6,6.497 L6,6.497 L6,21.021 L9.166,18.128 C9.257,18.046 9.377,18 9.5,18 L9.5,18 L21.5,18 C21.776,18 22,17.775 22,17.5 L22,17.5 L22,6.5 C22,6.225 21.776,6 21.5,6 L21.5,6 Z M16,13.0001 L16,14.0001 L9,14.0001 L9,13.0001 L16,13.0001 Z M19,10.0001 L19,11.0001 L9,11.0001 L9,10.0001 L19,10.0001 Z"/>
</svg>
