<svg xmlns="http://www.w3.org/2000/svg" width="32" height="32" viewBox="0 0 32 32">
  <path fill-rule="evenodd" d="M27,23.5 C27,23.775 26.776,24 26.5,24 L5.5,24 C5.224,24 5,23.775 5,23.5 L5,22.5 C5,22.225 5.224,22 5.5,22 L26.5,22 C26.776,22 27,22.225 27,22.5 L27,23.5 Z M7.875,18.622 C7.875,14.142 11.52,10.497 16,10.497 C20.48,10.497 24.125,14.142 24.125,18.638 C24.154,19.542 24.462,20.332 25.036,21 L6.964,21 C7.538,20.332 7.846,19.539 7.875,18.622 L7.875,18.622 Z M26.514,21.002 L26.268,20.806 C25.527,20.217 25.153,19.497 25.125,18.622 C25.125,13.76 21.299,9.784 16.5,9.522 L16.5,8 L18,8 L18,7 L16.5,7 L15.5,7 L14,7 L14,8 L15.5,8 L15.5,9.522 C10.701,9.784 6.875,13.759 6.875,18.606 C6.847,19.498 6.473,20.217 5.732,20.806 L5.486,21.002 C4.666,21.009 4,21.678 4,22.5 L4,23.5 C4,24.327 4.673,25 5.5,25 L26.5,25 C27.327,25 28,24.327 28,23.5 L28,22.5 C28,21.678 27.334,21.009 26.514,21.002 L26.514,21.002 Z"/>
</svg>
