<svg xmlns="http://www.w3.org/2000/svg" width="32" height="32" viewBox="0 0 32 32">
  <path fill-rule="evenodd" d="M24.5,6 C25.327,6 26,6.673 26,7.5 L26,7.5 L26,24.5 C26,25.327 25.327,26 24.5,26 L24.5,26 L7.5,26 C6.673,26 6,25.327 6,24.5 L6,24.5 L6,7.5 C6,6.673 6.673,6 7.5,6 L7.5,6 Z M12.197,16.222 C11.905,15.932 11.431,15.93 11.137,16.222 L11.137,16.222 L7,20.358 L7,24.5 C7,24.775 7.225,25 7.5,25 L7.5,25 L24.5,25 C24.775,25 25,24.775 25,24.5 L25,24.5 L25,23.759 L20.885,19.644 C20.743,19.502 20.556,19.424 20.355,19.424 L20.355,19.424 C20.154,19.424 19.966,19.502 19.824,19.644 L19.824,19.644 L18.075,21.393 C17.88,21.588 17.563,21.588 17.368,21.393 L17.368,21.393 Z M24.5,7 L7.5,7 C7.225,7 7,7.225 7,7.5 L7,7.5 L7,18.944 L10.43,15.515 C11.112,14.834 12.222,14.832 12.904,15.515 L12.904,15.515 L17.722,20.332 L19.117,18.937 C19.448,18.605 19.888,18.424 20.354,18.424 L20.354,18.424 C20.823,18.424 21.263,18.606 21.592,18.937 L21.592,18.937 L25,22.345 L25,7.5 C25,7.225 24.775,7 24.5,7 L24.5,7 Z M19.5,10 C20.879,10 22,11.121 22,12.5 C22,13.879 20.879,15 19.5,15 C18.121,15 17,13.879 17,12.5 C17,11.121 18.121,10 19.5,10 Z M19.5,11 C18.673,11 18,11.673 18,12.5 C18,13.327 18.673,14 19.5,14 C20.327,14 21,13.327 21,12.5 C21,11.673 20.327,11 19.5,11 Z"/>
</svg>
