<svg xmlns="http://www.w3.org/2000/svg" width="30" height="30" viewBox="0 0 30 30">
  <path fill-rule="evenodd" d="M23.5,5.0029 C24.327,5.0029 25,5.6759 25,6.5029 L25,6.5029 L25,23.5029 C25,24.3299 24.327,25.0029 23.5,25.0029 L23.5,25.0029 L6.5,25.0029 C5.673,25.0029 5,24.3299 5,23.5029 L5,23.5029 L5,6.5029 C5,5.6759 5.673,5.0029 6.5,5.0029 L6.5,5.0029 Z M11.197,15.2249 C10.905,14.9349 10.431,14.9329 10.137,15.2249 L10.137,15.2249 L6,19.3609 L6,23.5029 C6,23.7779 6.225,24.0029 6.5,24.0029 L6.5,24.0029 L23.5,24.0029 C23.775,24.0029 24,23.7779 24,23.5029 L24,23.5029 L24,22.7619 L19.885,18.6469 C19.743,18.5049 19.556,18.4269 19.355,18.4269 L19.355,18.4269 C19.154,18.4269 18.966,18.5049 18.824,18.6469 L18.824,18.6469 L17.075,20.3959 C16.88,20.5909 16.563,20.5909 16.368,20.3959 L16.368,20.3959 Z M23.5,6.0029 L6.5,6.0029 C6.225,6.0029 6,6.2279 6,6.5029 L6,6.5029 L6,17.9469 L9.43,14.5179 C10.112,13.8369 11.222,13.8349 11.904,14.5179 L11.904,14.5179 L16.722,19.3349 L18.117,17.9399 C18.448,17.6079 18.888,17.4269 19.354,17.4269 L19.354,17.4269 C19.823,17.4269 20.263,17.6089 20.592,17.9399 L20.592,17.9399 L24,21.3479 L24,6.5029 C24,6.2279 23.775,6.0029 23.5,6.0029 L23.5,6.0029 Z M18.5,9.0029 C19.879,9.0029 21,10.1239 21,11.5029 C21,12.8819 19.879,14.0029 18.5,14.0029 C17.121,14.0029 16,12.8819 16,11.5029 C16,10.1239 17.121,9.0029 18.5,9.0029 Z M18.5,10.0029 C17.673,10.0029 17,10.6759 17,11.5029 C17,12.3299 17.673,13.0029 18.5,13.0029 C19.327,13.0029 20,12.3299 20,11.5029 C20,10.6759 19.327,10.0029 18.5,10.0029 Z"/>
</svg>
