<svg xmlns="http://www.w3.org/2000/svg" width="32" height="32" viewBox="0 0 32 32">
  <path fill-rule="evenodd" d="M26.9040898,11.417478 C26.4610898,8.72547801 24.4390898,6.59247801 21.8730898,6.11047801 C19.6460898,5.68947801 17.4530898,6.49347801 15.9990898,8.21647801 C14.5450898,6.49347801 12.3520898,5.68847801 10.1240898,6.11047801 C7.55808978,6.59247801 5.53608978,8.72547801 5.09308978,11.417478 C4.90408978,12.569478 5.00408978,13.748478 5.38208978,14.826478 C6.63208978,18.829478 13.1880898,23.433478 15.1690898,24.750478 C15.4220898,24.917478 15.7110898,25.001478 16.0010898,25.001478 C16.2900898,25.001478 16.5800898,24.917478 16.8330898,24.749478 C18.8140898,23.432478 25.3740898,18.822478 26.6120898,14.835478 C26.9930898,13.755478 27.0940898,12.573478 26.9040898,11.417478"/>
</svg>
