<svg xmlns="http://www.w3.org/2000/svg" width="32" height="32" viewBox="0 0 32 32">
  <path fill-rule="evenodd" d="M11.2807883,7.00132786 C10.9597883,7.00132786 10.6347883,7.03132786 10.3077883,7.09232786 C8.18778827,7.49032786 6.44878827,9.33532786 6.07978827,11.5783279 C5.91678827,12.5683279 6.00278827,13.5793279 6.32778827,14.5023279 L6.33378827,14.5203279 C7.24378827,17.4513279 11.7807883,21.2963279 15.7217883,23.9163279 C15.8907883,24.0273279 16.1097883,24.0283279 16.2797883,23.9153279 C20.2187883,21.2963279 24.7527883,17.4523279 25.6627883,14.5203279 C25.9937883,13.5793279 26.0797883,12.5683279 25.9177883,11.5783279 C25.5477883,9.33532786 23.8087883,7.49032786 21.6887883,7.09232786 C19.6367883,6.71232786 17.6137883,7.56232786 16.4117883,9.32232786 C16.2247883,9.59432786 15.7717883,9.59432786 15.5857883,9.32232786 C14.5737883,7.84132786 12.9827883,7.00132786 11.2807883,7.00132786 M16.0007883,25.0003279 C15.7107883,25.0003279 15.4217883,24.9163279 15.1687883,24.7493279 C13.1877883,23.4323279 6.63178827,18.8283279 5.38178827,14.8253279 C5.00378827,13.7473279 4.90378827,12.5683279 5.09378827,11.4163279 C5.53578827,8.72432786 7.55778827,6.59132786 10.1237883,6.10932786 C12.3527883,5.69032786 14.5437883,6.49332786 15.9987883,8.21532786 C17.4527883,6.49232786 19.6467883,5.69132786 21.8727883,6.10932786 C24.4387883,6.59132786 26.4607883,8.72432786 26.9037883,11.4163279 C27.0937883,12.5723279 26.9927883,13.7543279 26.6127883,14.8343279 C25.3737883,18.8213279 18.8137883,23.4313279 16.8327883,24.7483279 C16.5797883,24.9163279 16.2897883,25.0003279 16.0007883,25.0003279"/>
</svg>
