<svg xmlns="http://www.w3.org/2000/svg" width="32" height="32" viewBox="0 0 32 32">
  <path fill-rule="evenodd" d="M10.757,14.0168 C12.749,12.0248 15.992,12.0248 17.984,14.0168 L17.984,14.0168 L18.527,14.5598 L17.82,15.2668 L17.277,14.7238 C15.673,13.1208 13.066,13.1218 11.464,14.7238 L11.464,14.7238 L8.204,17.9838 C7.428,18.7598 7,19.7918 7,20.8898 C7,21.9878 7.428,23.0198 8.204,23.7958 C8.98,24.5718 10.013,24.9998 11.111,24.9998 C12.208,24.9998 13.241,24.5718 14.017,23.7958 L14.017,23.7958 L16.022,21.7908 L16.729,22.4978 L14.724,24.5028 C13.759,25.4688 12.475,25.9998 11.111,25.9998 C9.746,25.9998 8.462,25.4688 7.497,24.5028 C6.532,23.5378 6,22.2548 6,20.8898 C6,19.5248 6.532,18.2418 7.497,17.2758 L7.497,17.2758 Z M20.8898,6 C22.2548,6 23.5388,6.531 24.5038,7.497 C25.4688,8.462 26.0008,9.745 26.0008,11.11 C26.0008,12.476 25.4688,13.759 24.5038,14.724 L24.5038,14.724 L21.2438,17.983 C20.2788,18.949 18.9948,19.48 17.6298,19.48 C16.2658,19.48 14.9818,18.949 14.0168,17.983 L14.0168,17.983 L13.4738,17.44 L14.1808,16.733 L14.7238,17.276 C15.5008,18.053 16.5328,18.48 17.6298,18.48 C18.7278,18.48 19.7598,18.053 20.5368,17.276 L20.5368,17.276 L23.7968,14.017 C24.5728,13.24 25.0008,12.208 25.0008,11.11 C25.0008,10.013 24.5728,8.98 23.7968,8.204 C23.0208,7.428 21.9878,7 20.8898,7 C19.7928,7 18.7598,7.428 17.9838,8.204 L17.9838,8.204 L15.9788,10.209 L15.2718,9.502 L17.2768,7.497 C18.2418,6.531 19.5248,6 20.8898,6 Z"/>
</svg>
