<svg xmlns="http://www.w3.org/2000/svg" width="32" height="32" viewBox="0 0 32 32">
  <path fill-rule="evenodd" d="M7.00115003,24 L8.90015003,21.474 C8.96515003,21.387 9.00015003,21.281 9.00015003,21.173 L9.00015003,14.948 C9.00015003,11.991 10.97215,9.194 13.68915,8.298 C13.92315,8.221 14.06615,7.984 14.02615,7.741 C14.01315,7.662 14.00015,7.582 14.00015,7.5 C14.00015,6.673 14.67315,6 15.50015,6 C16.32715,6 17.00015,6.673 17.00015,7.5 C17.00015,7.582 16.98715,7.661 16.97415,7.74 C16.93415,7.983 17.07715,8.22 17.31115,8.297 C20.02815,9.192 22.00015,11.989 22.00015,14.948 L22.00015,21.173 C22.00015,21.281 22.03515,21.387 22.10015,21.474 L23.99915,24 L7.00115003,24 Z M15.50015,27 C14.39715,27 13.50015,26.103 13.50015,25 L17.50015,25 C17.50015,26.103 16.60315,27 15.50015,27 L15.50015,27 Z M24.79915,23.399 L24.79915,23.398 L23.00015,21.006 L23.00015,14.948 C23.00015,11.708 20.91915,8.634 18.00015,7.483 C17.99115,6.112 16.87315,5 15.50015,5 C14.12615,5 13.00815,6.113 13.00015,7.484 C10.08115,8.637 8.00015003,11.71 8.00015003,14.948 L8.00015003,21.006 L6.20115003,23.399 C5.97215003,23.704 5.93615003,24.106 6.10615003,24.447 C6.27715003,24.788 6.62015003,25 7.00115003,25 L12.50015,25 C12.50015,26.654 13.84615,28 15.50015,28 C17.15415,28 18.50015,26.654 18.50015,25 L23.99915,25 C24.38015,25 24.72315,24.788 24.89415,24.447 C25.06415,24.106 25.02815,23.704 24.79915,23.399 L24.79915,23.399 Z"/>
</svg>
