<svg xmlns="http://www.w3.org/2000/svg" width="32" height="32" viewBox="0 0 32 32">
  <path fill-rule="evenodd" d="M19.491577,25.0001 C19.231577,26.4181 17.992577,27.4991 16.499577,27.4991 C15.007577,27.4991 13.767577,26.4181 13.508577,25.0001 L13.508577,25.0001 Z M16.500077,4 C17.740077,4 18.750077,5.01 18.750077,6.25 C18.750077,6.292 18.740077,6.331 18.737077,6.373 C21.718077,7.434 24.001077,10.509 24.001077,13.926 L24.001077,13.926 L24.001077,19.984 L25.798077,22.378 C26.027077,22.682 26.064077,23.083 25.893077,23.424 C25.723077,23.766 25.380077,23.978 24.999077,23.978 L24.999077,23.978 L8.00107704,23.978 C7.61907704,23.978 7.27607704,23.766 7.10607704,23.424 C6.93607704,23.082 6.97207704,22.682 7.20207704,22.377 L7.20207704,22.377 L9.00107704,19.984 L9.00107704,13.926 C9.00107704,10.51 11.283077,7.436 14.262077,6.374 C14.260077,6.332 14.250077,6.293 14.250077,6.25 C14.250077,5.01 15.259077,4 16.500077,4 Z"/>
</svg>
