<svg xmlns="http://www.w3.org/2000/svg" width="32" height="32" viewBox="0 0 32 32">
  <path fill-rule="evenodd" d="M16.5,6 C22.29,6 27,10.71 27,16.5 C27,22.29 22.29,27 16.5,27 C10.71,27 6,22.29 6,16.5 C6,10.71 10.71,6 16.5,6 Z M16.5,7 C11.262,7 7,11.262 7,16.5 C7,21.738 11.262,26 16.5,26 C21.738,26 26,21.738 26,16.5 C26,11.262 21.738,7 16.5,7 Z M19.75,17.502 C20.993,17.502 22,18.51 22,19.752 C22,20.994 20.993,22.002 19.75,22.002 C18.507,22.002 17.5,20.994 17.5,19.752 C17.5,18.51 18.507,17.502 19.75,17.502 Z M20.6465,11.6485 L21.3535,12.3555 L12.3535,21.3555 L11.6465,20.6485 L20.6465,11.6485 Z M19.75,18.502 C19.061,18.502 18.5,19.063 18.5,19.752 C18.5,20.441 19.061,21.002 19.75,21.002 C20.439,21.002 21,20.441 21,19.752 C21,19.063 20.439,18.502 19.75,18.502 Z M13.25,11.002 C14.493,11.002 15.5,12.01 15.5,13.252 C15.5,14.494 14.493,15.502 13.25,15.502 C12.007,15.502 11,14.494 11,13.252 C11,12.01 12.007,11.002 13.25,11.002 Z M13.25,12.002 C12.561,12.002 12,12.563 12,13.252 C12,13.941 12.561,14.502 13.25,14.502 C13.939,14.502 14.5,13.941 14.5,13.252 C14.5,12.563 13.939,12.002 13.25,12.002 Z"/>
</svg>
