<svg xmlns="http://www.w3.org/2000/svg" width="32" height="32" viewBox="0 0 32 32">
  <path fill-rule="evenodd" d="M16.5,6 C22.29,6 27,10.71 27,16.5 C27,22.29 22.29,27 16.5,27 C10.71,27 6,22.29 6,16.5 C6,10.71 10.71,6 16.5,6 Z M16.5,7 C11.262,7 7,11.262 7,16.5 C7,21.738 11.262,26 16.5,26 C21.738,26 26,21.738 26,16.5 C26,11.262 21.738,7 16.5,7 Z M14.264,12.0594 C14.426,11.9714 14.625,11.9824 14.777,12.0844 L14.777,12.0844 L20.777,16.0834 C20.917,16.1754 21,16.3324 21,16.4994 C21,16.6664 20.917,16.8224 20.777,16.9154 L20.777,16.9154 L14.777,20.9164 C14.694,20.9714 14.597,21.0004 14.5,21.0004 C14.419,21.0004 14.338,20.9804 14.264,20.9404 C14.102,20.8534 14,20.6844 14,20.5004 L14,20.5004 L14,12.5004 C14,12.3154 14.102,12.1464 14.264,12.0594 Z M15,13.4344 L15,19.5654 L19.599,16.4994 L15,13.4344 Z"/>
</svg>
