<svg xmlns="http://www.w3.org/2000/svg" width="32" height="32" viewBox="0 0 32 32">
  <path fill-rule="evenodd" d="M16.5,6 C22.29,6 27,10.71 27,16.5 C27,22.29 22.29,27 16.5,27 C10.71,27 6,22.29 6,16.5 C6,10.71 10.71,6 16.5,6 Z M16.5,7 C11.262,7 7,11.262 7,16.5 C7,21.738 11.262,26 16.5,26 C21.738,26 26,21.738 26,16.5 C26,11.262 21.738,7 16.5,7 Z M12.452,17.96 C13.198,19.553 14.75,20.542 16.5,20.542 C18.203,20.542 19.736,19.59 20.5,18.059 L20.5,18.059 L21.395,18.504 C20.461,20.378 18.585,21.542 16.5,21.542 C14.391,21.542 12.446,20.303 11.546,18.384 L11.546,18.384 Z M13,13 C13.553,13 14,13.447 14,14 C14,14.553 13.553,15 13,15 C12.447,15 12,14.553 12,14 C12,13.447 12.447,13 13,13 Z M20,13 C20.553,13 21,13.447 21,14 C21,14.553 20.553,15 20,15 C19.447,15 19,14.553 19,14 C19,13.447 19.447,13 20,13 Z"/>
</svg>
