<svg xmlns="http://www.w3.org/2000/svg" width="32" height="32" viewBox="0 0 32 32">
  <path fill-rule="evenodd" d="M17.977116,5 C18.804116,5 19.477116,5.673 19.477116,6.5 L19.477116,6.5 L19.477116,8.051 C20.339116,8.376 21.137116,8.839 21.857116,9.43 L21.857116,9.43 L23.204116,8.652 C23.551116,8.452 23.955116,8.398 24.342116,8.502 C24.729116,8.605 25.053116,8.854 25.253116,9.201 L25.253116,9.201 L26.753116,11.799 C27.167116,12.514 26.921116,13.433 26.205116,13.847 L26.205116,13.847 L24.865116,14.621 C24.939116,15.077 24.977116,15.539 24.977116,16 C24.977116,16.461 24.939116,16.923 24.865116,17.379 L24.865116,17.379 L26.204116,18.152 C26.921116,18.566 27.167116,19.485 26.753116,20.201 L26.753116,20.201 L25.253116,22.799 C25.053116,23.145 24.729116,23.394 24.342116,23.498 C23.955116,23.6 23.551116,23.549 23.204116,23.347 L23.204116,23.347 L21.857116,22.57 C21.137116,23.161 20.339116,23.624 19.477116,23.949 L19.477116,23.949 L19.477116,25.5 C19.477116,26.327 18.804116,27 17.977116,27 L17.977116,27 L14.977116,27 C14.150116,27 13.477116,26.327 13.477116,25.5 L13.477116,25.5 L13.477116,23.949 C12.615116,23.624 11.817116,23.161 11.097116,22.57 L11.097116,22.57 L9.75011604,23.347 C9.03411604,23.764 8.11511604,23.515 7.70011604,22.799 L7.70011604,22.799 L6.20011604,20.201 C5.78711604,19.484 6.03411604,18.565 6.75011604,18.152 L6.75011604,18.152 L8.08911604,17.379 C8.01411604,16.923 7.97711604,16.461 7.97711604,16 C7.97711604,15.539 8.01411604,15.077 8.08911604,14.621 L8.08911604,14.621 L6.75011604,13.847 C6.03411604,13.434 5.78711604,12.515 6.20011604,11.799 L6.20011604,11.799 L7.70011604,9.201 C8.11511604,8.486 9.03411604,8.237 9.75011604,8.652 L9.75011604,8.652 L11.097116,9.43 C11.817116,8.839 12.615116,8.376 13.477116,8.051 L13.477116,8.051 L13.477116,6.5 C13.477116,5.673 14.150116,5 14.977116,5 L14.977116,5 Z M17.977116,6 L14.977116,6 C14.701116,6 14.477116,6.224 14.477116,6.5 L14.477116,6.5 L14.477116,8.404 C14.477116,8.62 14.338116,8.811 14.133116,8.879 C13.157116,9.2 12.266116,9.717 11.487116,10.413 C11.326116,10.557 11.091116,10.58 10.904116,10.472 L10.904116,10.472 L9.25011604,9.517 C9.13511604,9.452 9.00011604,9.432 8.87011604,9.468 C8.74111604,9.503 8.63411604,9.585 8.56711604,9.701 L8.56711604,9.701 L7.06711604,12.299 C6.92911604,12.537 7.01111604,12.844 7.25011604,12.982 L7.25011604,12.982 L8.89511604,13.932 C9.08211604,14.04 9.17911604,14.256 9.13511604,14.467 C9.03011604,14.971 8.97711604,15.486 8.97711604,16 C8.97711604,16.513 9.03011604,17.029 9.13511604,17.533 C9.17911604,17.744 9.08211604,17.96 8.89511604,18.067 L8.89511604,18.067 L7.25011604,19.017 C7.01111604,19.156 6.92911604,19.463 7.06711604,19.701 L7.06711604,19.701 L8.56711604,22.299 C8.63411604,22.415 8.74111604,22.497 8.87011604,22.532 C9.00011604,22.568 9.13511604,22.548 9.25011604,22.482 L9.25011604,22.482 L10.904116,21.527 C10.981116,21.482 11.068116,21.46 11.154116,21.46 C11.274116,21.46 11.393116,21.503 11.487116,21.587 C12.266116,22.283 13.157116,22.8 14.133116,23.121 C14.338116,23.188 14.477116,23.38 14.477116,23.596 L14.477116,23.596 L14.477116,25.5 C14.477116,25.775 14.701116,26 14.977116,26 L14.977116,26 L17.977116,26 C18.253116,26 18.477116,25.775 18.477116,25.5 L18.477116,25.5 L18.477116,23.596 C18.477116,23.38 18.616116,23.188 18.821116,23.121 C19.798116,22.799 20.688116,22.283 21.467116,21.587 C21.628116,21.443 21.864116,21.421 22.050116,21.527 L22.050116,21.527 L23.704116,22.482 C23.821116,22.549 23.955116,22.568 24.083116,22.532 C24.213116,22.497 24.320116,22.415 24.387116,22.299 L24.387116,22.299 L25.887116,19.701 C26.025116,19.462 25.943116,19.156 25.704116,19.017 L25.704116,19.017 L24.058116,18.067 C23.871116,17.96 23.775116,17.744 23.819116,17.533 C23.924116,17.029 23.977116,16.513 23.977116,16 C23.977116,15.486 23.924116,14.971 23.819116,14.467 C23.775116,14.256 23.871116,14.04 24.058116,13.932 L24.058116,13.932 L25.704116,12.982 C25.943116,12.844 26.025116,12.538 25.887116,12.299 L25.887116,12.299 L24.387116,9.701 C24.320116,9.585 24.213116,9.503 24.083116,9.468 C23.953116,9.431 23.820116,9.451 23.705116,9.517 L23.705116,9.517 L22.050116,10.472 C21.865116,10.58 21.628116,10.557 21.467116,10.413 C20.688116,9.717 19.798116,9.201 18.821116,8.879 C18.616116,8.811 18.477116,8.62 18.477116,8.404 L18.477116,8.404 L18.477116,6.5 C18.477116,6.224 18.253116,6 17.977116,6 L17.977116,6 Z M15.985416,12.5348 C16.907416,12.4038 17.831416,12.6408 18.579416,13.2018 C19.326416,13.7638 19.810416,14.5818 19.941416,15.5078 C20.073416,16.4338 19.836416,17.3558 19.274416,18.1028 C18.713416,18.8498 17.894416,19.3338 16.968416,19.4648 C16.801416,19.4878 16.634416,19.4998 16.468416,19.4998 C15.716416,19.4998 14.987416,19.2578 14.374416,18.7978 C13.627416,18.2358 13.143416,17.4178 13.012416,16.4918 C12.880416,15.5658 13.117416,14.6448 13.679416,13.8978 C14.240416,13.1498 15.059416,12.6658 15.985416,12.5348 Z M16.482416,13.4998 C16.364416,13.4998 16.245416,13.5088 16.125416,13.5248 C15.464416,13.6188 14.879416,13.9648 14.478416,14.4978 C14.077416,15.0318 13.908416,15.6898 14.002416,16.3518 C14.096416,17.0128 14.441416,17.5978 14.975416,17.9978 C15.509416,18.3988 16.163416,18.5668 16.828416,18.4748 C17.489416,18.3808 18.074416,18.0348 18.475416,17.5018 C18.876416,16.9678 19.045416,16.3098 18.951416,15.6478 C18.857416,14.9868 18.512416,14.4018 17.978416,14.0018 C17.540416,13.6728 17.020416,13.4998 16.482416,13.4998 Z"/>
</svg>
