<svg xmlns="http://www.w3.org/2000/svg" width="40" height="40" viewBox="0 0 40 40">
  <path fill-rule="evenodd" d="M28.2236,27.5166 L24.5776,23.8706 C25.4626,22.8246 25.9996,21.4746 25.9996,19.9996 C25.9996,16.6916 23.3086,13.9996 19.9996,13.9996 C18.5256,13.9996 17.1756,14.5376 16.1296,15.4226 L12.6506,11.9436 C14.6886,10.7866 17.1286,9.9996 19.9996,9.9996 C27.6706,9.9996 32.2706,15.6066 34.3286,18.9486 C34.7286,19.5966 34.7286,20.4036 34.3286,21.0516 C33.1556,22.9576 31.1506,25.5976 28.2236,27.5166 L28.2236,27.5166 Z M23.1466,23.8536 C22.2846,24.5586 21.1986,24.9996 19.9996,24.9996 C17.2436,24.9996 14.9996,22.7566 14.9996,19.9996 C14.9996,18.8016 15.4416,17.7156 16.1466,16.8536 L23.1466,23.8536 Z M16.8536,16.1466 C17.7156,15.4416 18.8016,14.9996 19.9996,14.9996 C22.7566,14.9996 24.9996,17.2436 24.9996,19.9996 C24.9996,21.1986 24.5586,22.2846 23.8536,23.1466 L16.8536,16.1466 Z M19.9996,29.9996 C12.3286,29.9996 7.7296,24.3936 5.6706,21.0516 C5.2716,20.4036 5.2716,19.5966 5.6706,18.9486 C6.8446,17.0416 8.8496,14.4026 11.7766,12.4836 L15.4226,16.1296 C14.5366,17.1756 13.9996,18.5256 13.9996,19.9996 C13.9996,23.3086 16.6916,25.9996 19.9996,25.9996 C21.4746,25.9996 22.8246,25.4626 23.8696,24.5776 L27.3496,28.0566 C25.3116,29.2136 22.8706,29.9996 19.9996,29.9996 L19.9996,29.9996 Z M35.1806,21.5776 C35.7796,20.6046 35.7796,19.3956 35.1806,18.4226 C33.4346,15.5896 28.4606,8.9996 19.9996,8.9996 C16.8276,8.9996 14.1466,9.9266 11.9406,11.2336 L7.8536,7.1466 L7.1466,7.8536 L11.0796,11.7876 C7.8966,13.9326 5.8226,16.7946 4.8196,18.4226 C4.2206,19.3956 4.2206,20.6046 4.8196,21.5776 C6.5656,24.4106 11.5386,30.9996 19.9996,30.9996 C23.1716,30.9996 25.8536,30.0736 28.0596,28.7666 L32.1466,32.8536 L32.8536,32.1466 L28.9196,28.2126 C32.1036,26.0676 34.1776,23.2046 35.1806,21.5776 L35.1806,21.5776 Z"/>
</svg>
