<svg xmlns="http://www.w3.org/2000/svg" width="30" height="30" viewBox="0 0 30 30">
  <path fill-rule="evenodd" d="M22.7495,24.6621 C22.5565,24.8801 22.2905,25.0001 21.9995,25.0001 L8.0005,25.0001 C7.7095,25.0001 7.4435,24.8801 7.2505,24.6621 C7.0585,24.4431 6.9715,24.1641 7.0075,23.8761 L7.2425,22.0001 L22.7575,22.0001 L22.9925,23.8751 C23.0285,24.1641 22.9415,24.4431 22.7495,24.6621 L22.7495,24.6621 Z M8.8125,9.4381 C8.8445,9.1881 9.0575,9.0001 9.3095,9.0001 L10.9995,9.0001 L10.9995,11.0001 L11.9995,11.0001 L11.9995,9.0001 L17.9995,9.0001 L17.9995,11.0001 L18.9995,11.0001 L18.9995,9.0001 L20.6905,9.0001 C20.9425,9.0001 21.1555,9.1881 21.1875,9.4381 L22.6325,21.0001 L7.3675,21.0001 L8.8125,9.4381 Z M11.9995,6.9981 C11.9995,5.3451 13.3455,4.0001 14.9995,4.0001 C16.6545,4.0001 17.9995,5.3451 17.9995,6.9981 L17.9995,8.0001 L11.9995,8.0001 L11.9995,6.9981 Z M23.9845,23.7511 L22.1795,9.3131 C22.0855,8.5641 21.4455,8.0001 20.6905,8.0001 L18.9995,8.0001 L18.9995,6.9981 C18.9995,4.7941 17.2055,3.0001 14.9995,3.0001 C12.7945,3.0001 10.9995,4.7941 10.9995,6.9981 L10.9995,8.0001 L9.3095,8.0001 C8.5545,8.0001 7.9145,8.5641 7.8205,9.3131 L6.0155,23.7521 C5.9445,24.3201 6.1215,24.8931 6.5005,25.3231 C6.8805,25.7541 7.4275,26.0001 8.0005,26.0001 L21.9995,26.0001 C22.5725,26.0001 23.1195,25.7541 23.4995,25.3231 C23.8785,24.8931 24.0555,24.3201 23.9845,23.7511 L23.9845,23.7511 Z"/>
</svg>
