<svg xmlns="http://www.w3.org/2000/svg" width="32" height="32" viewBox="0 0 32 32">
  <path fill-rule="evenodd" d="M23.7493826,26.662 C23.5563826,26.88 23.2903826,27 22.9993826,27 L9.00038264,27 C8.70938264,27 8.44338264,26.88 8.25038264,26.662 C8.05838264,26.443 7.97138264,26.164 8.00738264,25.876 L8.24238264,24 L23.7573826,24 L23.9923826,25.875 C24.0283826,26.164 23.9413826,26.443 23.7493826,26.662 L23.7493826,26.662 Z M9.81238264,11.438 C9.84438264,11.188 10.0573826,11 10.3093826,11 L11.9993826,11 L11.9993826,13 L12.9993826,13 L12.9993826,11 L18.9993826,11 L18.9993826,13 L19.9993826,13 L19.9993826,11 L21.6903826,11 C21.9423826,11 22.1553826,11.188 22.1873826,11.438 L23.6323826,23 L8.36738264,23 L9.81238264,11.438 Z M12.9993826,8.998 C12.9993826,7.345 14.3453826,6 15.9993826,6 C17.6543826,6 18.9993826,7.345 18.9993826,8.998 L18.9993826,10 L12.9993826,10 L12.9993826,8.998 Z M24.9843826,25.751 L23.1793826,11.313 C23.0853826,10.564 22.4453826,10 21.6903826,10 L19.9993826,10 L19.9993826,8.998 C19.9993826,6.794 18.2053826,5 15.9993826,5 C13.7943826,5 11.9993826,6.794 11.9993826,8.998 L11.9993826,10 L10.3093826,10 C9.55438264,10 8.91438264,10.564 8.82038264,11.313 L7.01538264,25.752 C6.94438264,26.32 7.12138264,26.893 7.50038264,27.323 C7.88038264,27.754 8.42738264,28 9.00038264,28 L22.9993826,28 C23.5723826,28 24.1193826,27.754 24.4993826,27.323 C24.8783826,26.893 25.0553826,26.32 24.9843826,25.751 L24.9843826,25.751 Z"/>
</svg>
