<svg xmlns="http://www.w3.org/2000/svg" width="32" height="32" viewBox="0 0 32 32">
  <path fill-rule="evenodd" d="M25.49975,6 C26.32675,6 26.99975,6.673 26.99975,7.5 L26.99975,7.5 L26.99975,15.175 C26.99975,15.843 26.73975,16.471 26.26775,16.944 L26.26775,16.944 L16.64975,26.561 C16.35675,26.854 15.97275,26.999 15.58875,26.999 C15.20475,26.999 14.82075,26.854 14.52775,26.561 L14.52775,26.561 L6.43875,18.472 C5.85375,17.887 5.85375,16.936 6.43875,16.351 L6.43875,16.351 L16.05775,6.733 C16.52975,6.26 17.15775,6 17.82475,6 L17.82475,6 Z M25.49975,7 L17.82475,7 C17.43075,7 17.04375,7.16 16.76475,7.44 L16.76475,7.44 L7.14575,17.058 C6.95175,17.253 6.95175,17.57 7.14575,17.765 L7.14575,17.765 L15.23475,25.854 C15.43075,26.049 15.74775,26.05 15.94275,25.854 L15.94275,25.854 L25.56075,16.237 C25.84375,15.952 25.99975,15.575 25.99975,15.175 L25.99975,15.175 L25.99975,7.5 C25.99975,7.225 25.77575,7 25.49975,7 L25.49975,7 Z M18.73125,10.7337 C19.67525,9.7887 21.32325,9.7887 22.26625,10.7337 C22.73825,11.2067 22.99825,11.8337 22.99825,12.5007 C22.99825,13.1687 22.73825,13.7967 22.26625,14.2687 C21.79425,14.7417 21.16625,15.0007 20.49825,15.0007 C19.83025,15.0007 19.20325,14.7417 18.73125,14.2687 C18.25925,13.7967 17.99825,13.1687 17.99825,12.5007 C17.99825,11.8337 18.25925,11.2067 18.73125,10.7337 Z M20.49825,11.0007 C20.09825,11.0007 19.72125,11.1577 19.43825,11.4407 C19.15525,11.7237 18.99825,12.1007 18.99825,12.5007 C18.99825,12.9027 19.15425,13.2787 19.43825,13.5617 C20.00425,14.1277 20.99325,14.1277 21.55925,13.5617 C21.84325,13.2787 21.99825,12.9027 21.99825,12.5007 C21.99825,12.1007 21.84225,11.7237 21.55925,11.4407 C21.27625,11.1577 20.89925,11.0007 20.49825,11.0007 Z"/>
</svg>
