<svg xmlns="http://www.w3.org/2000/svg" width="32" height="32" viewBox="0 0 32 32">
  <path fill-rule="evenodd" d="M27.002,21.734 L22,18.537 L22,13.455 L27.002,10.266 L27.002,21.734 Z M21,22.5 C21,22.775 20.775,23 20.5,23 L5.5,23 C5.224,23 5,22.775 5,22.5 L5,9.5 C5,9.224 5.224,9 5.5,9 L20.5,9 C20.775,9 21,9.224 21,9.5 L21,22.5 Z M27.483,9.389 C27.164,9.214 26.773,9.227 26.464,9.422 L22,12.269 L22,9.5 C22,8.672 21.327,8 20.5,8 L5.5,8 C4.672,8 4,8.672 4,9.5 L4,22.5 C4,23.327 4.672,24 5.5,24 L20.5,24 C21.327,24 22,23.327 22,22.5 L22,19.722 L26.463,22.576 C26.627,22.681 26.814,22.734 27.002,22.734 C27.167,22.734 27.332,22.693 27.482,22.611 C27.803,22.435 28.002,22.099 28.002,21.733 L28.002,10.266 C28.002,9.901 27.803,9.565 27.483,9.389 L27.483,9.389 Z"/>
</svg>
