<svg xmlns="http://www.w3.org/2000/svg" width="32" height="32" viewBox="0 0 32 32">
  <path fill-rule="evenodd" d="M16.4985,7 C22.8995,7 26.5175,12.658 27.7765,15.092 C28.0705,15.66 28.0705,16.34 27.7755,16.909 C26.5175,19.342 22.8995,25 16.4985,25 C10.0985,25 6.4795,19.342 5.2205,16.908 C4.9265,16.34 4.9265,15.66 5.2205,15.092 C6.4795,12.658 10.0985,7 16.4985,7 Z M16.4985,8 C10.6475,8 7.2835,13.28 6.1085,15.551 L6.1085,15.551 C5.9615,15.837 5.9615,16.163 6.1085,16.448 C7.2835,18.72 10.6475,24 16.4985,24 C22.3505,24 25.7135,18.72 26.8875,16.449 C27.0355,16.163 27.0355,15.837 26.8875,15.552 C25.7135,13.28 22.3505,8 16.4985,8 Z M16.4983,11.4998 C18.9793,11.4998 20.9983,13.5188 20.9983,15.9998 C20.9983,18.4808 18.9793,20.4998 16.4983,20.4998 C14.0173,20.4998 11.9983,18.4808 11.9983,15.9998 C11.9983,13.5188 14.0173,11.4998 16.4983,11.4998 Z M16.4983,12.4998 C14.5683,12.4998 12.9983,14.0698 12.9983,15.9998 C12.9983,17.9298 14.5683,19.4998 16.4983,19.4998 C18.4283,19.4998 19.9983,17.9298 19.9983,15.9998 C19.9983,14.0698 18.4283,12.4998 16.4983,12.4998 Z"/>
</svg>
