<svg xmlns="http://www.w3.org/2000/svg" width="24" height="24" viewBox="0 0 24 24">
  <path fill-rule="evenodd" d="M18,16 L18,18 L20,18 L20,19 L18,19 L18,21 L17,21 L17,19 L15,19 L15,18 L17,18 L17,16 L18,16 Z M11.1839735,4.00084196 C11.6155996,4.00769339 12.9802091,4.1074 13.9758,5.1784 C14.7688,6.0324 15.1128,7.2594 14.9988,8.8284 C14.9228,10.5514 14.1208,11.6344 13.4608,12.2374 C13.3618,12.3284 13.2998,12.4504 13.2868,12.5834 C13.2698,12.7594 13.4358,12.9214 13.6058,12.9774 L13.6058,12.9774 L15.2728,13.5224 C15.5698,13.6184 15.8538,13.7334 16.1138,13.8644 L16.1138,13.8644 L16.5608,14.0884 L16.1108,14.9824 L15.6648,14.7564 C15.4568,14.6524 15.2248,14.5574 14.9648,14.4744 L14.9648,14.4744 L13.2978,13.9284 C12.6528,13.7194 12.2298,13.1124 12.2918,12.4834 C12.3298,12.1064 12.5048,11.7564 12.7858,11.4994 C13.3058,11.0244 13.9388,10.1654 14.0008,8.7694 C14.0948,7.4754 13.8398,6.5014 13.2438,5.8604 C12.4668,5.0244 11.3318,5.0004 11.2048,5.0004 L11.1625495,5.00075734 C10.8766889,5.00557284 9.82268889,5.07084444 9.0898,5.8604 C8.4928,6.5014 8.2388,7.4754 8.3318,8.7554 C8.3948,10.1654 9.0278,11.0244 9.5478,11.4994 C9.8288,11.7564 10.0038,12.1064 10.0418,12.4834 C10.1038,13.1124 9.6808,13.7194 9.0358,13.9284 L9.0358,13.9284 L7.3698,14.4734 C5.1424129,15.1946581 5.00658668,16.7385384 4.99996918,16.9936909 L4.9998,17.5004 C4.9998,17.7754 5.2238,18.0004 5.4998,18.0004 L5.4998,18.0004 L12.9998,18.0004 L12.9998,19.0004 L5.4998,19.0004 C4.6728,19.0004 3.9998,18.3274 3.9998,17.5004 L3.9998,17.5004 L3.99938356,16.9817812 C4.00603823,16.5861604 4.18166842,14.4545053 7.0618,13.5224 L7.0618,13.5224 L8.7268,12.9774 C8.8978,12.9214 9.0638,12.7594 9.0468,12.5834 C9.0328,12.4504 8.9708,12.3284 8.8728,12.2374 C8.2128,11.6344 7.4108,10.5514 7.3338,8.8144 C7.2198,7.2594 7.5638,6.0324 8.3568,5.1784 C9.3998,4.0564 10.8488,4.0004 11.1288,4.0004 Z"/>
</svg>
