<svg xmlns="http://www.w3.org/2000/svg" width="20" height="20" viewBox="0 0 20 20">
  <path fill-rule="evenodd" d="M9.379,3.1348 C9.774,2.9558 10.226,2.9548 10.621,3.1348 L10.621,3.1348 L15.121,5.1798 C15.655,5.4218 16,5.9578 16,6.5458 L16,6.5458 L16,9.5518 C16,12.1998 14.571,14.6258 12.271,15.8828 L12.271,15.8828 L10.774,16.7848 C10.536,16.9288 10.268,17.0008 10,17.0008 C9.732,17.0008 9.464,16.9288 9.226,16.7848 L9.226,16.7848 L7.711,15.8718 C5.429,14.6258 4,12.1998 4,9.5518 L4,9.5518 L4,6.5458 C4,5.9578 4.345,5.4218 4.88,5.1788 L4.88,5.1788 Z M10,3.9998 C9.93,3.9998 9.859,4.0148 9.793,4.0448 L9.793,4.0448 L5.293,6.0898 C5.115,6.1708 5,6.3498 5,6.5458 L5,6.5458 L5,9.5518 C5,11.8338 6.229,13.9238 8.209,15.0048 L8.209,15.0048 L9.742,15.9278 C9.901,16.0238 10.099,16.0238 10.258,15.9278 L10.258,15.9278 L11.772,15.0148 C13.771,13.9238 15,11.8338 15,9.5518 L15,9.5518 L15,6.5458 C15,6.3498 14.885,6.1708 14.707,6.0908 L14.707,6.0908 L10.207,4.0448 C10.141,4.0148 10.07,3.9998 10,3.9998 Z M10,6.981 L10.821,8.622 L12.644,8.891 L11.328,10.174 L11.634,11.981 L10,11.133 L8.366,11.981 L8.672,10.174 L7.356,8.891 L9.179,8.622 L10,6.981 Z"/>
</svg>
