<svg xmlns="http://www.w3.org/2000/svg" width="24" height="24" viewBox="0 0 24 24">
  <path fill-rule="evenodd" d="M10.917,3.1181 C11.287,2.9621 11.713,2.9611 12.084,3.1191 L12.084,3.1191 L18.083,5.6461 C18.64,5.8821 19,6.4241 19,7.0271 L19,7.0271 L19,12.2461 C19,15.3461 17.203,18.1821 14.311,19.6471 L14.311,19.6471 L12.233,20.8091 C12.003,20.9371 11.751,21.0011 11.5,21.0011 C11.249,21.0011 10.997,20.9371 10.768,20.8091 L10.768,20.8091 L10.767,20.8091 L8.671,19.6381 C5.797,18.1821 4,15.3461 4,12.2461 L4,12.2461 L4,7.0271 C4,6.4241 4.36,5.8821 4.917,5.6461 L4.917,5.6461 Z M11.695,4.0401 C11.569,3.9851 11.431,3.9861 11.306,4.0391 L11.306,4.0391 L5.305,6.5681 C5.12,6.6461 5,6.8261 5,7.0271 L5,7.0271 L5,12.2461 C5,14.9671 6.587,17.4611 9.142,18.7551 L9.142,18.7551 L11.255,19.9361 C11.406,20.0201 11.594,20.0201 11.746,19.9361 L11.746,19.9361 L13.84,18.7651 C16.413,17.4611 18,14.9671 18,12.2461 L18,12.2461 L18,7.0271 C18,6.8261 17.88,6.6461 17.695,6.5681 L17.695,6.5681 Z M11.0527,8.2781 C11.2207,7.9381 11.7787,7.9381 11.9477,8.2781 L11.9477,8.2781 L12.7627,9.9181 L14.5737,10.1861 C14.7607,10.2141 14.9167,10.3461 14.9757,10.5261 C15.0337,10.7061 14.9857,10.9041 14.8497,11.0371 L14.8497,11.0371 L13.5427,12.3191 L13.8467,14.1251 C13.8787,14.3121 13.8017,14.5011 13.6477,14.6121 C13.5607,14.6761 13.4577,14.7081 13.3537,14.7081 C13.2747,14.7081 13.1957,14.6891 13.1227,14.6511 L13.1227,14.6511 L11.4997,13.8051 L9.8777,14.6511 C9.7087,14.7381 9.5067,14.7241 9.3517,14.6121 C9.1987,14.5011 9.1217,14.3121 9.1527,14.1251 L9.1527,14.1251 L9.4567,12.3191 L8.1497,11.0371 C8.0137,10.9041 7.9657,10.7061 8.0247,10.5261 C8.0827,10.3461 8.2387,10.2141 8.4267,10.1861 L8.4267,10.1861 L10.2377,9.9181 Z M11.4997,9.6241 L11.0167,10.5971 C10.9437,10.7431 10.8037,10.8451 10.6417,10.8681 L10.6417,10.8681 L9.5677,11.0281 L10.3437,11.7891 C10.4597,11.9031 10.5127,12.0671 10.4867,12.2281 L10.4867,12.2281 L10.3057,13.3001 L11.2687,12.7971 C11.3417,12.7591 11.4207,12.7401 11.4997,12.7401 C11.5797,12.7401 11.6587,12.7591 11.7317,12.7971 L11.7317,12.7971 L12.6937,13.3001 L12.5137,12.2281 C12.4867,12.0671 12.5397,11.9031 12.6567,11.7891 L12.6567,11.7891 L13.4317,11.0281 L12.3577,10.8681 C12.1967,10.8451 12.0557,10.7431 11.9837,10.5971 L11.9837,10.5971 L11.4997,9.6241 Z"/>
</svg>
