<svg xmlns="http://www.w3.org/2000/svg" width="24" height="24" viewBox="0 0 24 24">
  <path fill-rule="evenodd" d="M16.9404,12.5947 L12.5774,20.7367 C12.4904,20.8987 12.3214,20.9997 12.1364,20.9997 L12.0004,20.9997 L12.0004,14.4287 C12.8604,14.2047 13.5004,13.4287 13.5004,12.4997 C13.5004,11.3977 12.6034,10.4997 11.5004,10.4997 C10.3974,10.4997 9.5004,11.3977 9.5004,12.4997 C9.5004,13.4287 10.1394,14.2047 11.0004,14.4287 L11.0004,20.9997 L10.8634,20.9997 C10.6784,20.9997 10.5094,20.8997 10.4224,20.7367 L6.0594,12.5947 C5.9854,12.4577 5.9804,12.2917 6.0444,12.1517 L8.3924,6.9997 L14.6074,6.9997 L16.9554,12.1527 C17.0194,12.2917 17.0144,12.4577 16.9404,12.5947 M11.5004,13.4997 C10.9484,13.4997 10.5004,13.0517 10.5004,12.4997 C10.5004,11.9487 10.9484,11.4997 11.5004,11.4997 C12.0514,11.4997 12.5004,11.9487 12.5004,12.4997 C12.5004,13.0517 12.0514,13.4997 11.5004,13.4997 M7.0004,5.7497 L7.0004,4.2497 C7.0004,4.1127 7.1124,3.9997 7.2504,3.9997 L15.7504,3.9997 C15.8874,3.9997 16.0004,4.1127 16.0004,4.2497 L16.0004,5.7497 C16.0004,5.8877 15.8874,5.9997 15.7504,5.9997 L7.2504,5.9997 C7.1124,5.9997 7.0004,5.8877 7.0004,5.7497 M17.8654,11.7377 L15.7074,6.9997 L15.7504,6.9997 C16.4394,6.9997 17.0004,6.4397 17.0004,5.7497 L17.0004,4.2497 C17.0004,3.5607 16.4394,2.9997 15.7504,2.9997 L7.2504,2.9997 C6.5604,2.9997 6.0004,3.5607 6.0004,4.2497 L6.0004,5.7497 C6.0004,6.4397 6.5604,6.9997 7.2504,6.9997 L7.2934,6.9997 L5.1354,11.7367 C4.9414,12.1587 4.9584,12.6567 5.1774,13.0677 L9.5414,21.2087 C9.8024,21.6977 10.3094,21.9997 10.8634,21.9997 L12.1364,21.9997 C12.6904,21.9997 13.1964,21.6977 13.4594,21.2087 L17.8224,13.0677 C18.0424,12.6567 18.0584,12.1587 17.8654,11.7377"/>
</svg>
