<svg xmlns="http://www.w3.org/2000/svg" width="20" height="20" viewBox="0 0 20 20">
  <path fill-rule="evenodd" d="M3.5,15.25 C4.19,15.25 4.75,15.81 4.75,16.5 C4.75,17.19 4.19,17.75 3.5,17.75 C2.81,17.75 2.25,17.19 2.25,16.5 C2.25,15.81 2.81,15.25 3.5,15.25 Z M17,16 L17,17 L7,17 L7,16 L17,16 Z M3.5,9.25 C4.19,9.25 4.75,9.81 4.75,10.5 C4.75,11.19 4.19,11.75 3.5,11.75 C2.81,11.75 2.25,11.19 2.25,10.5 C2.25,9.81 2.81,9.25 3.5,9.25 Z M17,10 L17,11 L7,11 L7,10 L17,10 Z M3.5,3.25 C4.19,3.25 4.75,3.81 4.75,4.5 C4.75,5.19 4.19,5.75 3.5,5.75 C2.81,5.75 2.25,5.19 2.25,4.5 C2.25,3.81 2.81,3.25 3.5,3.25 Z M17,4 L17,5 L7,5 L7,4 L17,4 Z"/>
</svg>
