<svg xmlns="http://www.w3.org/2000/svg" width="24" height="24" viewBox="0 0 24 24">
  <path fill-rule="evenodd" d="M18.5,19 L5.5,19 C5.224,19 5,18.775 5,18.5 L5,10 L19,10 L19,18.5 C19,18.775 18.776,19 18.5,19 M5.5,6 L7,6 L7,7 L8,7 L8,6 L16,6 L16,7 L17,7 L17,6 L18.5,6 C18.776,6 19,6.225 19,6.5 L19,9 L5,9 L5,6.5 C5,6.225 5.224,6 5.5,6 M18.5,5 L17,5 L17,4 L16,4 L16,5 L8,5 L8,4 L7,4 L7,5 L5.5,5 C4.673,5 4,5.673 4,6.5 L4,18.5 C4,19.327 4.673,20 5.5,20 L18.5,20 C19.327,20 20,19.327 20,18.5 L20,6.5 C20,5.673 19.327,5 18.5,5"/>
</svg>
