<svg xmlns="http://www.w3.org/2000/svg" width="24" height="24" viewBox="0 0 24 24">
  <path fill-rule="evenodd" d="M4.9937,15.9971 L4.9937,18.4971 C4.9937,18.7721 5.2177,18.9971 5.4937,18.9971 L5.4937,18.9971 L17.4937,18.9971 C17.7697,18.9971 17.9937,18.7721 17.9937,18.4971 L17.9937,18.4971 L17.9937,15.9971 L18.9937,15.9971 L18.9937,18.4971 C18.9937,19.3241 18.3207,19.9971 17.4937,19.9971 L17.4937,19.9971 L5.4937,19.9971 C4.6657,19.9971 3.9937,19.3241 3.9937,18.4971 L3.9937,18.4971 L3.9937,15.9971 L4.9937,15.9971 Z M11.9933,4 L11.9933,14.078 L15.0293,11.043 L15.7363,11.75 L11.4933,15.992 L7.2513,11.75 L7.9583,11.043 L10.9933,14.078 L10.9933,4 L11.9933,4 Z"/>
</svg>
