<svg xmlns="http://www.w3.org/2000/svg" width="20" height="20" viewBox="0 0 20 20">
  <path fill-rule="evenodd" d="M14.8511,6.7397 L14.3161,7.2747 L12.7251,5.6837 L13.2601,5.1487 L13.2611,5.1487 C13.3561,5.0527 13.4841,4.9997 13.6201,4.9997 C13.7551,4.9997 13.8831,5.0527 13.9791,5.1487 L14.8511,6.0207 C14.9471,6.1167 15.0001,6.2447 15.0001,6.3807 C15.0001,6.5157 14.9471,6.6437 14.8511,6.7397 L14.8511,6.7397 Z M7.1341,14.4567 C7.1041,14.4867 7.0671,14.5067 7.0251,14.5137 L5.1271,14.8727 L5.4861,12.9747 C5.4941,12.9327 5.5141,12.8957 5.5441,12.8647 L12.0181,6.3907 L13.6091,7.9817 L7.1341,14.4567 Z M15.5581,5.3137 L14.6861,4.4417 C14.1161,3.8717 13.1221,3.8717 12.5531,4.4417 L4.8381,12.1567 C4.6641,12.3297 4.5481,12.5487 4.5031,12.7897 L4.0091,15.4067 C3.9781,15.5697 4.0301,15.7367 4.1461,15.8537 C4.2411,15.9477 4.3691,15.9997 4.5001,15.9997 C4.5311,15.9997 4.5621,15.9967 4.5931,15.9907 L7.2101,15.4967 C7.4511,15.4517 7.6701,15.3357 7.8421,15.1627 L15.5581,7.4477 C15.8431,7.1617 16.0001,6.7837 16.0001,6.3807 C16.0001,5.9777 15.8431,5.5987 15.5581,5.3137 L15.5581,5.3137 Z"/>
</svg>
