<svg xmlns="http://www.w3.org/2000/svg" width="20" height="20" viewBox="0 0 20 20">
  <path fill-rule="evenodd" d="M9.8745,13.5571 C10.0185,13.5571 10.1615,13.5921 10.2925,13.6611 L13.6645,15.4331 L13.0205,11.6781 C12.9705,11.3871 13.0665,11.0901 13.2785,10.8841 L16.0055,8.2251 L12.2365,7.6771 C11.9435,7.6361 11.6905,7.4521 11.5605,7.1861 L9.8745,3.7711 L8.1885,7.1871 C8.0575,7.4531 7.8055,7.6361 7.5135,7.6781 L3.7435,8.2251 L6.4715,10.8851 C6.6825,11.0891 6.7795,11.3861 6.7295,11.6781 L6.0855,15.4321 L9.4575,13.6611 C9.5875,13.5921 9.7305,13.5571 9.8745,13.5571 M5.9475,16.5192182 C5.7625,16.5192182 5.5795,16.4611 5.4215,16.3471 C5.1435,16.1451 5.0065,15.8081 5.0645,15.4701 L5.7445,11.5091 L2.8955,8.7951 C2.6495,8.5561 2.5625,8.2031 2.6695,7.8761 C2.7755,7.5491 3.0525,7.3151 3.3925,7.2661 L7.3705,6.6881 L9.0705,3.1411 C9.2225,2.8331 9.5305,2.6411 9.8745,2.6411 L9.8745,2.6411 C10.2185,2.6411 10.5265,2.8321 10.6795,3.1401 L10.6795,3.1411 L12.4575,6.7451 L16.3565,7.2661 C16.6975,7.3151 16.9745,7.5491 17.0805,7.8761 C17.1865,8.2031 17.0995,8.5561 16.8535,8.7961 L13.9765,11.6001 L14.6855,15.4701 C14.7435,15.8091 14.6055,16.1451 14.3275,16.3481 C14.0485,16.5491 13.6875,16.5751 13.3835,16.4151 L9.8275,14.5451 L6.3655,16.4151 C6.2335,16.4851 6.0905,16.5192182 5.9475,16.5192182"/>
</svg>
