<svg xmlns="http://www.w3.org/2000/svg" width="20" height="20" viewBox="0 0 20 20">
  <path fill-rule="evenodd" d="M11.5,4 C12.225,4 13,4.523 13,5.991 L13,5.991 L13,7 L14.5,7 C15.327,7 16,7.673 16,8.5 L16,8.5 L16.007,16.78 C16.007,17.105 15.813,17.395 15.514,17.52 C15.415,17.561 15.31,17.581 15.207,17.581 C14.999,17.581 14.796,17.5 14.643,17.347 L14.643,17.347 L13.293,16 L7.5,16 C6.676,16 6.003,15.33 6,14.505 L6,14.505 L5.995,13 L5.707,13 L4.367,14.344 C4.213,14.499 4.009,14.58 3.801,14.58 C3.698,14.58 3.594,14.561 3.495,14.52 C3.194,14.396 3,14.105 3,13.78 L3,13.78 L3,5.5 C3,4.673 3.673,4 4.5,4 L4.5,4 Z M14.5,8 L13,8 L13,11.502 C13,12.328 12.327,13 11.5,13 L11.5,13 L6.995,13 L7,14.501 C7.001,14.776 7.225,15 7.5,15 L7.5,15 L13.5,15 C13.632,15 13.759,15.053 13.853,15.146 L13.853,15.146 L15.007,16.298 L15,8.5 C15,8.224 14.776,8 14.5,8 L14.5,8 Z M11.5,5 L4.5,5 C4.224,5 4,5.224 4,5.5 L4,5.5 L4,13.296 L5.146,12.147 C5.24,12.053 5.367,12 5.5,12 L5.5,12 L11.5,12 C11.776,12 12,11.777 12,11.502 L12,11.502 L12,5.991 C12,5.693 11.951,5 11.5,5 L11.5,5 Z M9,9 L9,10 L6,10 L6,9 L9,9 Z M10,7 L10,8 L6,8 L6,7 L10,7 Z"/>
</svg>
