<svg xmlns="http://www.w3.org/2000/svg" width="24" height="24" viewBox="0 0 24 24">
  <path fill-rule="evenodd" d="M12.0038673,16.9031861 C12.5579433,16.9031861 13.0070754,17.352494 13.0070754,17.9063942 C13.0070754,17.9487094 13.0044558,17.9904125 12.99937,18.0313502 L12.99937,18.8718683 C13.0044558,18.9127984 13.0070754,18.9544902 13.0070754,18.9967919 C13.0070754,19.5508679 12.5579433,20 12.0038673,20 C11.4497913,20 11.0006592,19.5508679 11.0006592,18.9967919 L11.0006592,17.9063942 C11.0006592,17.352494 11.4497913,16.9031861 12.0038673,16.9031861 Z M8.45616348,13.7191826 C9.01006372,13.7191826 9.45937157,14.1683147 9.45937157,14.7223907 L9.45262003,14.8393895 L9.45262003,15.6957895 C9.45707918,15.7341701 9.45937157,15.7732115 9.45937157,15.8127884 C9.45937157,16.3668644 9.01006372,16.8159965 8.45616348,16.8159965 C7.90208745,16.8159965 7.45295539,16.3668644 7.45295539,15.8127884 L7.45313118,14.7223907 C7.45295539,14.1683147 7.90208745,13.7191826 8.45616348,13.7191826 Z M15.5438365,11.2694353 C16.0583357,11.2694353 16.4823475,11.6566971 16.5402956,12.1556445 L16.5470446,12.2726434 L16.5470446,15.8127884 C16.5470446,16.3668644 16.0979125,16.8159965 15.5438365,16.8159965 C14.9897605,16.8159965 14.5406284,16.3668644 14.5406284,15.8127884 C14.5406284,15.7711101 14.5431697,15.7300256 14.5481058,15.6896814 L14.5481058,12.3957503 C14.5431697,12.3554061 14.5406284,12.3143217 14.5406284,12.2726434 C14.5406284,11.7185673 14.9897605,11.2694353 15.5438365,11.2694353 Z M12.0038673,8.08543177 C12.5579433,8.08543177 13.0070754,8.53456383 13.0070754,9.08863986 C13.0070754,9.13031814 13.0045341,9.17140263 12.999598,9.21174683 L12.999598,14.7811878 C13.0045341,14.8215415 13.0070754,14.8626372 13.0070754,14.9043287 C13.0070754,15.458229 12.5579433,15.9075368 12.0038673,15.9075368 C11.4497913,15.9075368 11.0006592,15.458229 11.0006592,14.9043287 L11.0006592,9.08863986 C11.0006592,8.53456383 11.4497913,8.08543177 12.0038673,8.08543177 Z M5.00320809,10.4479895 C5.51770725,10.4479895 5.94171902,10.8352513 5.99966713,11.3341987 L6.00641617,11.4511975 L6.00641617,12.5415953 C6.00641617,13.0956713 5.55728411,13.5448033 5.00320809,13.5448033 C4.44913206,13.5448033 4,13.0956713 4,12.5415953 C4,12.4999302 4.00254129,12.4588569 4.00747739,12.4185222 L4.00747739,11.5743045 C4.00254129,11.5339603 4,11.4928758 4,11.4511975 C4,10.8971215 4.44913206,10.4479895 5.00320809,10.4479895 Z M18.9967919,10.4479895 C19.5112911,10.4479895 19.9353028,10.8352513 19.993251,11.3341987 L20,11.4511975 L20,12.5415953 C20,13.0956713 19.5508679,13.5448033 18.9967919,13.5448033 C18.4427159,13.5448033 17.9935838,13.0956713 17.9935838,12.5415953 C17.9935838,12.499646 17.9961599,12.4582967 18.0011626,12.417697 L18.0011626,11.5751319 C17.9961599,11.5345207 17.9935838,11.4931601 17.9935838,11.4511975 C17.9935838,10.8971215 18.4427159,10.4479895 18.9967919,10.4479895 Z M8.37243097,7.36922288 C8.88693014,7.36922288 9.3109419,7.75648471 9.36889002,8.25543211 L9.37563905,8.37243097 L9.37563905,11.912576 C9.37563905,12.466652 8.92650699,12.9157841 8.37243097,12.9157841 C7.81835494,12.9157841 7.36922288,12.466652 7.36922288,11.912576 C7.36922288,11.8708977 7.37176418,11.8298132 7.37670027,11.789469 L7.37670027,8.49553794 C7.37176418,8.45519374 7.36922288,8.41410925 7.36922288,8.37243097 C7.36922288,7.81835494 7.81835494,7.36922288 8.37243097,7.36922288 Z M15.5438365,7.17679631 C16.0583357,7.17679631 16.4823475,7.56405813 16.5402956,8.06300554 L16.5470446,8.18000439 L16.5470446,9.27040211 C16.5470446,9.82447814 16.0979125,10.273786 15.5438365,10.273786 C14.9897605,10.273786 14.5406284,9.82447814 14.5406284,9.27040211 C14.5406284,9.22845287 14.5432045,9.18710355 14.5482072,9.14650387 L14.5482072,8.30393871 C14.5432045,8.26332757 14.5406284,8.22196694 14.5406284,8.18000439 C14.5406284,7.62592837 14.9897605,7.17679631 15.5438365,7.17679631 Z M12.0038673,4 C12.5579433,4 13.0070754,4.44913206 13.0070754,5.00338387 C13.0070754,5.04568562 13.0044558,5.08737631 12.99937,5.12830256 L12.99937,5.96864898 C13.0044558,6.00958753 13.0070754,6.05129063 13.0070754,6.0936058 C13.0070754,6.64768183 12.5579433,7.09681389 12.0038673,7.09681389 C11.4497913,7.09681389 11.0006592,6.64768183 11.0006592,6.0936058 L11.0006592,5.00338387 C11.0006592,4.44913206 11.4497913,4 12.0038673,4 Z"/>
</svg>
