<svg xmlns="http://www.w3.org/2000/svg" width="20" height="20" viewBox="0 0 20 20">
  <path fill-rule="evenodd" d="M16,15 L4,15.004 L4,14 L4.282,14 L4.296,14.019 L4.32,14 L15.68,14 L15.704,14.019 L15.718,14 L16,14 L16,15 Z M5.628,11.372 C5.628,8.961 7.589,7 10,7 C12.411,7 14.372,8.961 14.372,11.372 L14.373,11.876 C14.386,12.292 14.502,12.664 14.7,13 L5.299,13 C5.498,12.662 5.615,12.286 5.628,11.861 L5.628,11.372 Z M16.04,13.008 L15.936,12.925 C15.565,12.63 15.386,12.287 15.372,11.861 L15.372,11.372 C15.372,8.581 13.225,6.307 10.5,6.051 L10.5,5 L12,5 L12,4 L10.5,4 L10.5,3.995 L9.5,3.995 L9.5,4 L8,4 L8,5 L9.5,5 L9.5,6.051 C6.775,6.307 4.628,8.581 4.628,11.372 L4.628,11.845 C4.614,12.287 4.435,12.63 4.064,12.925 L3.96,13.008 C3.428,13.03 3,13.461 3,13.996 L3,15.004 C3,15.553 3.449,16 4,16 L16,16 C16.551,16 17,15.553 17,15.004 L17,13.996 C17,13.461 16.572,13.03 16.04,13.008 L16.04,13.008 Z"/>
</svg>
