<svg xmlns="http://www.w3.org/2000/svg" width="24" height="24" viewBox="0 0 24 24">
  <path fill-rule="evenodd" d="M18.5,3.9996 C19.327,3.9996 20,4.6726 20,5.4996 L20,5.4996 L20,18.4996 C20,19.3276 19.327,19.9996 18.5,19.9996 L18.5,19.9996 L5.5,19.9996 C4.673,19.9996 4,19.3276 4,18.4996 L4,18.4996 L4,5.4996 C4,4.6726 4.673,3.9996 5.5,3.9996 L5.5,3.9996 Z M8.933,12.1466 C8.743,11.9556 8.415,11.9576 8.227,12.1466 L8.227,12.1466 L5,15.3716 L5,18.4996 C5,18.7756 5.224,18.9996 5.5,18.9996 L5.5,18.9996 L18.5,18.9996 C18.776,18.9996 19,18.7756 19,18.4996 L19,18.4996 L19,18.0556 L15.791,14.8476 C15.603,14.6596 15.275,14.6586 15.084,14.8476 L15.084,14.8476 L13.713,16.2186 C13.518,16.4136 13.201,16.4136 13.006,16.2186 L13.006,16.2186 Z M18.5,4.9996 L5.5,4.9996 C5.224,4.9996 5,5.2246 5,5.4996 L5,5.4996 L5,13.9576 L7.519,11.4396 C8.084,10.8736 9.074,10.8716 9.64,11.4396 L9.64,11.4396 L13.359,15.1586 L14.377,14.1406 C14.944,13.5746 15.933,13.5746 16.499,14.1406 L16.499,14.1406 L19,16.6416 L19,5.4996 C19,5.2246 18.776,4.9996 18.5,4.9996 L18.5,4.9996 Z M15,7 C16.103,7 17,7.897 17,9 C17,10.103 16.103,11 15,11 C13.897,11 13,10.103 13,9 C13,7.897 13.897,7 15,7 Z M15,8 C14.449,8 14,8.448 14,9 C14,9.552 14.449,10 15,10 C15.551,10 16,9.552 16,9 C16,8.448 15.551,8 15,8 Z"/>
</svg>
