<svg xmlns="http://www.w3.org/2000/svg" width="20" height="20" viewBox="0 0 20 20">
  <path fill-rule="evenodd" d="M6.5582,8.6169 C7.8462,7.3279 10.0962,7.3279 11.3832,8.6169 L11.3832,8.6169 L11.7262,8.9589 L11.0192,9.6679 L10.6762,9.3249 C9.7652,8.4109 8.1762,8.4119 7.2652,9.3239 L7.2652,9.3239 L5.2062,11.3829 C4.2662,12.3229 4.2662,13.8539 5.2062,14.7939 C6.1492,15.7349 7.6802,15.7329 8.6172,14.7939 L8.6172,14.7939 L9.6462,13.7649 L10.3532,14.4719 L9.3242,15.5009 C8.6592,16.1659 7.7852,16.4979 6.9112,16.4979 C6.0382,16.4979 5.1642,16.1659 4.4992,15.5009 C3.1702,14.1709 3.1702,12.0059 4.4992,10.6759 L4.4992,10.6759 Z M10.676,4.499 C12.006,3.17 14.171,3.168 15.501,4.499 C16.83,5.829 16.83,7.994 15.501,9.324 L15.501,9.324 L13.441,11.383 C12.798,12.027 11.94,12.383 11.029,12.383 C10.118,12.383 9.261,12.027 8.617,11.383 L8.617,11.383 L8.273,11.041 L8.98,10.332 L9.324,10.675 C10.234,11.589 11.824,11.588 12.734,10.676 L12.734,10.676 L14.794,8.617 C15.733,7.677 15.733,6.146 14.794,5.206 C13.853,4.266 12.322,4.268 11.383,5.206 L11.383,5.206 L10.354,6.235 L9.647,5.528 Z"/>
</svg>
