<svg xmlns="http://www.w3.org/2000/svg" width="24" height="24" viewBox="0 0 24 24">
  <path fill-rule="evenodd" d="M11.9996,4.00006667 C14.3182667,4.00006667 16.2116,5.81206667 16.2116,8.05206667 C16.2116,10.2827333 14.3182667,12.0947333 11.9996,12.0947333 C9.68026667,12.0947333 7.78693333,10.2827333 7.78693333,8.05206667 C7.78693333,5.81206667 9.68026667,4.00006667 11.9996,4.00006667 Z M11.9996,6.05273333 C10.8596,6.05273333 9.93026667,6.94606667 9.93093262,8.05206667 C9.93093262,9.14806667 10.8602667,10.0420667 11.9996,10.0420667 C13.1389333,10.0420667 14.0682667,9.14806667 14.0682667,8.05206667 C14.0682667,6.94673333 13.1389333,6.05273333 11.9996,6.05273333 Z M8.05606667,18.2986 L11.2030657,15.2714952 L10.9949255,15.2482582 C10.1998954,15.1535954 9.0864,14.9402667 8.2614,14.4306 L7.94717577,14.2316773 C7.11471856,13.6891115 6.78175088,13.3060386 7.1474,12.5872667 C7.3754,12.1552667 7.97855789,11.7872888 8.78341866,12.3131964 L9.01551728,12.4761802 L9.01551728,12.4761802 L9.13329583,12.5504125 L9.13329583,12.5504125 L9.29544938,12.6434642 C9.78562222,12.9111185 10.7322889,13.3126 12.0007333,13.3126 C13.1894833,13.3126 14.0959417,12.9597354 14.6086174,12.695087 L14.8680771,12.5504125 L14.8680771,12.5504125 L15.0820667,12.4092667 L15.0820667,12.4092667 C15.9554,11.7499333 16.6114,12.1312667 16.8547333,12.5872667 C17.215014,13.3060386 16.8814813,13.6885778 16.0489646,14.2334189 L15.7347333,14.4332667 C14.9268545,14.9284182 13.8412898,15.1513934 13.0430278,15.2489491 L12.8127333,15.2746 L15.9700667,18.3019333 L15.9700667,18.3019333 C16.8760667,19.1952667 15.4020667,20.5919333 14.4860667,19.7292667 L12.0080667,17.3359333 L9.53006667,19.7259333 C8.61473333,20.5852667 7.14006667,19.1766 8.05606667,18.2986 Z"/>
</svg>
