<svg xmlns="http://www.w3.org/2000/svg" width="24" height="24" viewBox="0 0 24 24">
  <path fill-rule="evenodd" d="M6.188,5.1338 C4.846,6.4208 4.834,7.5758 5.23,8.9148 C5.235,8.9288 6.273,11.9548 9.158,14.8428 C12.044,17.7268 15.072,18.7658 15.102,18.7758 C16.425,19.1678 17.581,19.1548 18.871,17.8068 C19.064,17.5948 19.04,17.2268 18.808,16.9938 L16.313,14.4998 C16.118,14.3048 15.802,14.3048 15.606,14.4998 L15.03,15.0758 C14.499,15.6908 13.491,15.8948 12.728,15.5138 C12.691,15.5008 12.657,15.4838 12.624,15.4618 C11.834,14.9448 11.085,14.3118 10.398,13.5788 C9.687,12.9118 9.053,12.1628 8.538,11.3748 C8.516,11.3418 8.499,11.3068 8.485,11.2708 C8.352,11.0028 8.282,10.7058 8.282,10.4048 C8.282,9.8468 8.525,9.3158 8.949,8.9468 L9.5,8.3938 C9.695,8.1978 9.695,7.8818 9.5,7.6868 L7.003,5.1898 C6.774,4.9608 6.41,4.9348 6.188,5.1338 M16.436,19.9998 C15.861,19.9998 15.313,19.8808 14.801,19.7298 C14.653,19.6808 11.514,18.6098 8.45,15.5498 C5.39,12.4858 4.32,9.3468 4.276,9.2148 C3.859,7.8058 3.683,6.1478 5.501,4.4058 C5.504,4.4038 5.507,4.4018 5.51,4.3988 C6.128,3.8308 7.096,3.8688 7.712,4.4848 L10.207,6.9798 C10.792,7.5648 10.792,8.5158 10.207,9.1008 L9.63,9.6778 C9.399,9.8798 9.282,10.1368 9.282,10.4048 C9.282,10.5648 9.322,10.7208 9.398,10.8588 C9.403,10.8668 9.408,10.8758 9.412,10.8848 C9.877,11.5858 10.447,12.2538 11.105,12.8728 C11.743,13.5508 12.412,14.1198 13.114,14.5878 C13.124,14.5918 13.133,14.5968 13.142,14.6018 C13.511,14.8068 14.015,14.7208 14.299,14.3948 L14.899,13.7928 C15.484,13.2068 16.436,13.2088 17.021,13.7928 L19.513,16.2848 C20.13,16.9038 20.168,17.8698 19.601,18.4898 C18.495,19.6458 17.425,19.9998 16.436,19.9998"/>
</svg>
