<svg xmlns="http://www.w3.org/2000/svg" width="24" height="24" viewBox="0 0 24 24">
  <path fill-rule="evenodd" d="M14.1494,12.5996 C14.0564,12.6936 14.0034,12.8196 14.0034,12.9516 L13.9984,16.8916 L7.1074,9.9986 L11.0524,9.9986 C11.1854,9.9986 11.3124,9.9466 11.4054,9.8526 L15.9584,5.2996 L17.3274,6.6686 L18.6874,8.0286 L14.1494,12.5996 Z M20.9984,8.9256 L19.7474,7.6736 L15.0704,2.9966 L14.3634,3.7036 L15.2514,4.5926 L10.8444,8.9986 L5.8994,8.9986 C5.6974,8.9986 5.5144,9.1206 5.4374,9.3076 C5.3594,9.4946 5.4024,9.7096 5.5454,9.8526 L9.4904,13.7976 L3.9984,19.2896 L4.7064,19.9966 L10.1984,14.5046 L14.1434,18.4506 C14.2394,18.5456 14.3674,18.5966 14.4974,18.5966 C14.5614,18.5966 14.6264,18.5836 14.6884,18.5586 C14.8754,18.4816 14.9964,18.2996 14.9974,18.0976 L15.0034,13.1586 L19.3954,8.7366 L20.2914,9.6326 L20.9984,8.9256 Z"/>
</svg>
