<svg xmlns="http://www.w3.org/2000/svg" width="24" height="24" viewBox="0 0 24 24">
  <path fill-rule="evenodd" d="M12.0065717,4 C7.58483538,4 4,7.57014343 4,11.9737578 C4,15.3535811 6.10872669,18.2411971 9.08730314,19.4028063 C9.01481566,18.772781 8.95550773,17.801492 9.11366223,17.1124018 C9.25863719,16.4889392 10.0494097,13.1484925 10.0494097,13.1484925 C10.0494097,13.1484925 9.81217794,12.6694108 9.81217794,11.9671951 C9.81217794,10.858088 10.4579755,10.0311798 11.2619275,10.0311798 C11.9472637,10.0311798 12.2767523,10.5430754 12.2767523,11.1534124 C12.2767523,11.8359398 11.8418274,12.8597309 11.6111854,13.8113317 C11.420082,14.6054261 12.0131614,15.2551397 12.7973442,15.2551397 C14.2207347,15.2551397 15.3146367,13.7588296 15.3146367,11.6062431 C15.3146367,9.69647885 13.9373745,8.36423783 11.967033,8.36423783 C9.6869723,8.36423783 8.3492488,10.0639936 8.3492488,11.8228143 C8.3492488,12.5053417 8.61283964,13.2403712 8.94232818,13.6406998 C9.00822589,13.719453 9.01481566,13.7916434 8.99504635,13.8703965 C8.93573841,14.1197816 8.79735322,14.6644909 8.77099414,14.7760579 C8.73804529,14.9204387 8.65237826,14.9532525 8.50081353,14.8810621 C7.49916835,14.4151059 6.87314012,12.9647352 6.87314012,11.7900005 C6.87314012,9.27646198 8.70509643,6.96636917 12.1647262,6.96636917 C14.9390197,6.96636917 17.1004646,8.93519827 17.1004646,11.5734293 C17.1004646,14.3232272 15.3607651,16.5348786 12.9489089,16.5348786 C12.1383671,16.5348786 11.3739537,16.1148617 11.1169526,15.6160917 C11.1169526,15.6160917 10.7149766,17.1386528 10.61613,17.5127304 C10.4382062,18.2083833 9.95056313,19.0746681 9.62107459,19.606252 C10.3723085,19.8359487 11.163081,19.9606412 11.9933921,19.9606412 C16.4151284,19.9606412 20,16.3904978 20,11.9868834 C20.0131433,7.57014343 16.4283079,4 12.0065717,4 Z"/>
</svg>
