<svg xmlns="http://www.w3.org/2000/svg" width="24" height="24" viewBox="0 0 24 24">
  <path fill-rule="evenodd" d="M15.5999873,4 C16.3873593,4 17.0200292,4.0514402 17.5337318,4.20366249 C18.0155783,4.34641063 18.3663127,4.56279011 18.6602022,4.78902524 C19.1690723,5.18089909 19.5280092,5.73707637 19.6835379,6.13212946 C19.9341642,6.76889426 19.9863242,7.47422903 19.9971631,8.0221011 L20,8.39994913 L20,8.39994913 L20,15.5999237 C20,16.1686272 19.9967572,17.0717238 19.6834743,17.8677434 C19.5279456,18.2627965 19.1690723,18.8190373 18.6601386,19.2108476 C18.3663127,19.4371463 18.0155147,19.6534622 17.5336682,19.7962103 C17.0200292,19.9484326 16.3873593,19.9998728 15.5999237,19.9998728 L8.40001272,19.9998728 C7.61264068,19.9998728 6.97997075,19.9484326 6.4662682,19.7962103 C5.9844217,19.6534622 5.63368729,19.4371463 5.3397978,19.2108476 C4.8309277,18.8189737 4.47199084,18.2627965 4.31646214,17.8677434 C4.03450753,17.151383 4.00373689,16.3482387 4.0004023,15.7801422 L4,8.39994913 C4,7.83118204 4.00317925,6.92808546 4.31646214,6.13212946 C4.47199084,5.73707637 4.83086412,5.18083551 5.3397978,4.78902524 C5.6336237,4.56272652 5.9844217,4.34641063 6.4662682,4.20366249 C6.9157023,4.07046798 7.45626947,4.01443477 8.11190921,4.00250763 L8.40001272,4 L15.5999873,4 Z M12.000763,12.7806956 C11.5028931,12.7806956 11.0811979,12.9430915 10.8411013,13.1964138 C10.715839,13.3286069 10.6495835,13.4641063 10.6287277,13.6571501 C10.5998419,13.9241614 10.6031704,14.1646681 10.6233962,14.4678374 L10.6547975,14.8674254 L10.6547975,14.8674254 L10.6749318,15.0871538 L10.6749318,15.0871538 L10.7280473,15.5760888 L10.7280473,15.5760888 L10.7967346,16.1133321 L10.7967346,16.1133321 L10.8791251,16.6776881 L10.8791251,16.6776881 L10.9318459,16.9945287 L10.9318459,16.9945287 L11.0029598,17.3462443 L11.0029598,17.3462443 L11.0668913,17.5906403 L11.0668913,17.5906403 C11.1551472,17.8875183 11.4849622,18.1471355 12.000763,18.1471355 C12.5165003,18.1471355 12.8463153,17.8874547 12.9345711,17.5906403 L12.9765262,17.4373599 L12.9765262,17.4373599 L13.0212771,17.2432044 L13.0212771,17.2432044 L13.0696165,16.9945287 L13.0696165,16.9945287 L13.1223374,16.6776881 L13.1223374,16.6776881 L13.1651287,16.3934457 L13.1651287,16.3934457 L13.2409012,15.8399966 L13.2409012,15.8399966 L13.3020361,15.3242581 L13.3020361,15.3242581 L13.346665,14.8674254 L13.346665,14.8674254 L13.3780663,14.4677985 C13.398292,14.1646097 13.4016205,13.9241159 13.3727348,13.6571501 C13.3518789,13.4641699 13.2856235,13.3286069 13.1603612,13.1964138 C12.9202645,12.9430915 12.4985693,12.7806956 12.000763,12.7806956 Z M11.985757,5.77327301 C8.92331659,5.7820309 6.41393781,8.26648439 6.3760412,11.328734 C6.3452661,13.8093724 7.92878489,15.9313283 10.1399504,16.709099 C10.1936161,16.7279837 10.2481083,16.6834107 10.2396516,16.627138 C10.2106568,16.4345393 10.1833153,16.2409868 10.1581993,16.0506772 C10.1492974,15.9834043 10.1064412,15.9254149 10.0443187,15.8982641 C8.29662364,15.1347364 7.07623832,13.3819546 7.09582247,11.3516246 C7.12151078,8.68716221 9.29725949,6.51497425 11.9617219,6.49341896 C14.6856362,6.47141858 16.9086285,8.6808673 16.9086285,11.3997584 C16.9086285,13.4097412 15.6935843,15.1410313 13.9594964,15.8984549 C13.8973739,15.9256056 13.854772,15.9837858 13.8459337,16.0509951 C13.8208177,16.2412412 13.7934762,16.4347301 13.764545,16.627138 C13.7560247,16.6834107 13.8105169,16.7279837 13.8641826,16.7091626 C16.0542379,15.9388313 17.6285369,13.849876 17.6285369,11.399822 C17.6284097,8.29185477 15.0956317,5.76441788 11.985757,5.77327301 Z M11.8555351,7.63514974 C9.86125771,7.712469 8.26127043,9.35671139 8.23570929,11.3523876 C8.21892287,12.6649075 8.87677243,13.8276849 9.8836396,14.5155465 C9.93418961,14.5500731 10.0026706,14.5109048 9.99891906,14.4497361 C9.98493037,14.2198131 9.98067019,14.0163413 9.99243339,13.8069562 C9.99631207,13.7381573 9.96935207,13.6711388 9.91918357,13.6240224 C9.30787817,13.0501049 8.93247282,12.227634 8.95638075,11.3196414 C8.99847396,9.7217524 10.286768,8.41641763 11.8840847,8.3545495 C13.6201437,8.28734024 15.0538564,9.68010428 15.0538564,11.4014752 C15.0538564,12.2769123 14.6829656,13.0672728 14.0901634,13.6238952 C14.0398677,13.6710752 14.0128442,13.7380937 14.0167228,13.8069562 C14.0285496,14.0163413 14.0242259,14.2198131 14.0103008,14.449609 C14.0065492,14.5108412 14.075221,14.549946 14.1258981,14.5154193 C15.1199847,13.8360781 15.7738284,12.693775 15.7738284,11.4014752 C15.7738284,9.27366949 14.0014625,7.55198067 11.8555351,7.63514974 Z M12.0019711,9.63139823 C11.2788199,9.63139823 10.6925669,10.2176512 10.6925669,10.940866 C10.6925669,11.6640173 11.2788199,12.2502702 12.0019711,12.2502702 C12.725186,12.2502702 13.3114389,11.6640173 13.3114389,10.940866 C13.3114389,10.2176512 12.725186,9.63139823 12.0019711,9.63139823 Z"/>
</svg>
