<svg xmlns="http://www.w3.org/2000/svg" width="24" height="24" viewBox="0 0 24 24">
  <path fill-rule="evenodd" d="M13.481,14.6084 C13.117,15.0144 12.6,15.2684 12,15.3594 L12,16.5004 L11,16.5004 L11,15.3504 C9.706,15.1124 9.091,14.0404 9.063,13.9894 L9.936,13.5024 C9.957,13.5394 10.46,14.3984 11.502,14.4034 C12.059,14.3974 12.467,14.2414 12.736,13.9404 C12.936,13.7184 13.026,13.4344 12.993,13.1414 C12.937,12.6504 12.616,12.4114 11.499,12.0254 C10.298,11.6284 9.159,11.2514 9.014,9.9714 C8.947,9.3904 9.127,8.8294 9.519,8.3914 C9.883,7.9854 10.4,7.7314 11,7.6404 L11,6.5004 L12,6.5004 L12,7.6494 C13.294,7.8874 13.909,8.9604 13.938,9.0104 L13.063,9.4954 C13.043,9.4614 12.541,8.6014 11.498,8.5964 C11.009,8.6244 10.533,8.7584 10.264,9.0594 C10.064,9.2814 9.974,9.5654 10.007,9.8584 C10.07,10.4144 10.493,10.6394 11.819,11.0784 C12.93,11.4614 13.855,11.8714 13.986,13.0284 C14.053,13.6094 13.874,14.1714 13.481,14.6084 M11.5,3.0004 C6.813,3.0004 3,6.8134 3,11.5004 C3,16.1864 6.813,20.0004 11.5,20.0004 C16.187,20.0004 20,16.1864 20,11.5004 C20,6.8134 16.187,3.0004 11.5,3.0004"/>
</svg>
