<svg xmlns="http://www.w3.org/2000/svg" width="24" height="24" viewBox="0 0 24 24">
  <path fill-rule="evenodd" d="M17,16.582 C15.526,18.176 13.378,19.137 11.009,18.984 C11.005,18.98 11.003,18.978 11,18.975 L11,16.5 C11,16.224 10.776,16 10.5,16 L9.5,16 C9.224,16 9,15.776 9,15.5 L9,12.604 C9,12.404 8.92,12.212 8.777,12.071 L4.804,8.14 C6.04,5.688 8.573,4 11.5,4 C12.76,4 13.946,4.315 14.989,4.866 L15,6.497 C15.001,6.631 14.949,6.757 14.855,6.853 C14.76,6.947 14.634,7 14.5,7 L12.443,7 C12.244,7 12.054,7.079 11.913,7.22 L10.22,8.91 C10.079,9.051 10,9.241 10,9.44 L10,10.5 C10,11.325 10.675,12 11.5,12 L14.982,12 C15.181,12 15.372,12.079 15.513,12.22 L16.78,13.487 C16.921,13.628 17,13.818 17,14.018 L17,16.582 Z M12.94,3.119 C7.132,2.16 2.158,7.136 3.12,12.943 C3.702,16.462 6.541,19.3 10.06,19.881 C15.868,20.84 20.842,15.864 19.88,10.057 C19.298,6.538 16.459,3.7 12.94,3.119 L12.94,3.119 Z"/>
</svg>
