<svg xmlns="http://www.w3.org/2000/svg" width="24" height="24" viewBox="0 0 24 24">
  <path fill-rule="evenodd" d="M11.5,3 C16.187,3 20,6.813 20,11.5 C20,16.187 16.187,20 11.5,20 C6.813,20 3,16.187 3,11.5 C3,6.813 6.813,3 11.5,3 Z M11.5,4 C7.364,4 4,7.364 4,11.5 C4,15.636 7.364,19 11.5,19 C15.636,19 19,15.636 19,11.5 C19,7.364 15.636,4 11.5,4 Z M8.352,12.6248 C8.933,13.8638 10.139,14.6338 11.5,14.6338 C12.824,14.6338 14.016,13.8938 14.611,12.7008 L14.611,12.7008 L15.505,13.1488 C14.741,14.6818 13.206,15.6338 11.5,15.6338 C9.773,15.6338 8.183,14.6188 7.447,13.0488 L7.447,13.0488 Z M8.5,8.5 C9.052,8.5 9.5,8.947 9.5,9.5 C9.5,10.053 9.052,10.5 8.5,10.5 C7.948,10.5 7.5,10.053 7.5,9.5 C7.5,8.947 7.948,8.5 8.5,8.5 Z M14.5,8.5 C15.052,8.5 15.5,8.947 15.5,9.5 C15.5,10.053 15.052,10.5 14.5,10.5 C13.948,10.5 13.5,10.053 13.5,9.5 C13.5,8.947 13.948,8.5 14.5,8.5 Z"/>
</svg>
