<svg xmlns="http://www.w3.org/2000/svg" width="24" height="24" viewBox="0 0 24 24">
  <path fill-rule="evenodd" d="M13.0006,2.9998 C13.8286,2.9998 14.5006,3.6728 14.5006,4.4998 L14.5006,4.4998 L14.5006,5.4628 C15.1896,5.7268 15.8286,6.0968 16.4086,6.5698 L16.4086,6.5698 L17.2486,6.0848 C17.5966,5.8838 18.0016,5.8318 18.3876,5.9348 C18.7746,6.0378 19.0976,6.2868 19.2976,6.6338 L19.2976,6.6338 L20.2986,8.3648 C20.7126,9.0818 20.4666,10.0018 19.7496,10.4148 L19.7496,10.4148 L18.9146,10.8968 C18.9746,11.2658 19.0036,11.6348 19.0036,11.9998 C19.0036,12.3648 18.9746,12.7348 18.9146,13.1038 L18.9146,13.1038 L19.7496,13.5848 C20.4666,13.9978 20.7126,14.9178 20.2986,15.6348 L20.2986,15.6348 L19.2976,17.3658 C19.0976,17.7128 18.7746,17.9618 18.3876,18.0658 C18.0016,18.1668 17.5966,18.1148 17.2486,17.9148 L17.2486,17.9148 L16.4086,17.4308 C15.8286,17.9038 15.1896,18.2738 14.5006,18.5368 L14.5006,18.5368 L14.5006,19.4998 C14.5006,20.3268 13.8286,20.9998 13.0006,20.9998 L13.0006,20.9998 L10.9986,20.9998 C10.1716,20.9998 9.4986,20.3268 9.4986,19.4998 L9.4986,19.4998 L9.4986,18.5368 C8.8106,18.2738 8.1716,17.9038 7.5916,17.4308 L7.5916,17.4308 L6.7506,17.9148 C6.4036,18.1148 5.9986,18.1668 5.6126,18.0658 C5.2256,17.9618 4.9026,17.7128 4.7026,17.3658 L4.7026,17.3658 L3.7016,15.6348 C3.2876,14.9178 3.5336,13.9978 4.2506,13.5848 L4.2506,13.5848 L5.0846,13.1038 C5.0256,12.7348 4.9956,12.3648 4.9956,11.9998 C4.9956,11.6348 5.0256,11.2658 5.0846,10.8968 L5.0846,10.8968 L4.2506,10.4148 C3.5336,10.0018 3.2876,9.0818 3.7016,8.3648 L3.7016,8.3648 L4.7026,6.6338 C4.9026,6.2868 5.2256,6.0378 5.6126,5.9348 C5.9986,5.8318 6.4036,5.8838 6.7506,6.0848 L6.7506,6.0848 L7.5916,6.5698 C8.1716,6.0968 8.8106,5.7268 9.4986,5.4628 L9.4986,5.4628 L9.4986,4.5008 C9.4986,3.6738 10.1726,2.9998 10.9996,2.9998 L10.9996,2.9998 Z M13.0006,3.9998 L10.9996,3.9998 C10.7236,3.9998 10.4986,4.2248 10.4986,4.5008 L10.4986,4.5008 L10.4986,5.8168 C10.4986,6.0328 10.3596,6.2258 10.1526,6.2918 C9.3516,6.5508 8.6216,6.9748 7.9826,7.5508 C7.8216,7.6968 7.5856,7.7198 7.3976,7.6128 L7.3976,7.6128 L6.2506,6.9498 C6.1356,6.8848 6.0006,6.8638 5.8716,6.9008 C5.7426,6.9358 5.6356,7.0178 5.5686,7.1338 L5.5686,7.1338 L4.5676,8.8648 C4.4296,9.1048 4.5116,9.4108 4.7506,9.5498 L4.7506,9.5498 L5.8906,10.2078 C6.0786,10.3158 6.1756,10.5318 6.1306,10.7448 C6.0406,11.1628 5.9956,11.5848 5.9956,11.9998 C5.9956,12.4148 6.0406,12.8368 6.1306,13.2548 C6.1756,13.4678 6.0786,13.6848 5.8906,13.7918 L5.8906,13.7918 L4.7506,14.4498 C4.5116,14.5888 4.4296,14.8958 4.5676,15.1348 L4.5676,15.1348 L5.5686,16.8658 C5.6356,16.9828 5.7426,17.0648 5.8716,17.0998 C5.9996,17.1348 6.1346,17.1148 6.2506,17.0498 L6.2506,17.0498 L7.3976,16.3878 C7.4756,16.3428 7.5616,16.3208 7.6476,16.3208 C7.7686,16.3208 7.8886,16.3638 7.9826,16.4488 C8.6216,17.0258 9.3516,17.4488 10.1526,17.7078 C10.3596,17.7748 10.4986,17.9668 10.4986,18.1838 L10.4986,18.1838 L10.4986,19.4998 C10.4986,19.7758 10.7236,19.9998 10.9986,19.9998 L10.9986,19.9998 L13.0006,19.9998 C13.2766,19.9998 13.5006,19.7758 13.5006,19.4998 L13.5006,19.4998 L13.5006,18.1838 C13.5006,17.9668 13.6406,17.7748 13.8476,17.7078 C14.6476,17.4488 15.3776,17.0258 16.0166,16.4488 C16.1786,16.3038 16.4136,16.2808 16.6016,16.3878 L16.6016,16.3878 L17.7486,17.0498 C17.8646,17.1148 17.9986,17.1358 18.1286,17.0998 C18.2576,17.0648 18.3646,16.9828 18.4316,16.8658 L18.4316,16.8658 L19.4326,15.1348 C19.5706,14.8958 19.4886,14.5888 19.2496,14.4498 L19.2496,14.4498 L18.1086,13.7918 C17.9216,13.6848 17.8246,13.4678 17.8696,13.2548 C17.9586,12.8368 18.0036,12.4148 18.0036,11.9998 C18.0036,11.5848 17.9586,11.1628 17.8696,10.7448 C17.8246,10.5318 17.9216,10.3158 18.1086,10.2078 L18.1086,10.2078 L19.2496,9.5498 C19.4886,9.4108 19.5706,9.1048 19.4326,8.8648 L19.4326,8.8648 L18.4316,7.1338 C18.3646,7.0178 18.2576,6.9358 18.1286,6.9008 C17.9996,6.8648 17.8646,6.8838 17.7486,6.9498 L17.7486,6.9498 L16.6016,7.6128 C16.4136,7.7198 16.1786,7.6968 16.0166,7.5508 C15.3776,6.9748 14.6476,6.5508 13.8476,6.2918 C13.6406,6.2258 13.5006,6.0328 13.5006,5.8168 L13.5006,5.8168 L13.5006,4.4998 C13.5006,4.2248 13.2766,3.9998 13.0006,3.9998 L13.0006,3.9998 Z M11.5786,9.0302 C13.2076,8.7952 14.7366,9.9402 14.9706,11.5782 C15.0826,12.3722 14.8796,13.1612 14.3986,13.8022 C13.9166,14.4422 13.2146,14.8572 12.4206,14.9702 C12.2786,14.9902 12.1376,15.0002 11.9966,15.0002 C10.5296,15.0002 9.2426,13.9172 9.0296,12.4222 C8.9176,11.6282 9.1206,10.8392 9.6016,10.1982 C10.0836,9.5572 10.7856,9.1422 11.5786,9.0302 Z M12.0016,10.0002 C11.9086,10.0002 11.8146,10.0072 11.7196,10.0202 C11.1896,10.0962 10.7226,10.3722 10.4016,10.7992 C10.0806,11.2252 9.9446,11.7522 10.0196,12.2812 C10.1756,13.3732 11.1856,14.1352 12.2806,13.9792 C12.8096,13.9042 13.2776,13.6282 13.5986,13.2012 C13.9196,12.7742 14.0556,12.2482 13.9796,11.7192 C13.8386,10.7222 12.9806,10.0002 12.0016,10.0002 Z"/>
</svg>
