<svg xmlns="http://www.w3.org/2000/svg" width="24" height="24" viewBox="0 0 24 24">
  <path fill-rule="evenodd" d="M13.1651,3.629 C13.3121,3.496 13.5241,3.463 13.7031,3.543 C13.8841,3.623 14.0001,3.803 14.0001,4 L14.0001,4 L14.0001,19 C14.0001,19.197 13.8841,19.377 13.7031,19.457 C13.6381,19.486 13.5691,19.5 13.5001,19.5 C13.3791,19.5 13.2591,19.456 13.1651,19.371 L13.1651,19.371 L8.3111,14.998 L5.5001,15 C4.6731,15 4.0001,14.327 4.0001,13.5 L4.0001,13.5 L4.0001,9.5 C4.0001,8.673 4.6731,8 5.5001,8 L5.5001,8 L8.3151,8 Z M20.2915,9.002 L20.9985,9.709 L19.2065,11.5 L20.9985,13.291 L20.2915,13.998 L18.4995,12.207 L16.7085,13.998 L16.0015,13.291 L17.7925,11.5 L16.0015,9.709 L16.7085,9.002 L18.4995,10.793 L20.2915,9.002 Z"/>
</svg>
