<svg xmlns="http://www.w3.org/2000/svg" width="24" height="24" viewBox="0 0 24 24">
  <path fill-rule="evenodd" d="M4.53714286,15.25 L4.8,14.1347403 L4.53714286,12.9837662 C4.53061224,12.9496753 4.46367347,12.9237013 4.38367347,12.9237013 C4.30204082,12.9237013 4.23673469,12.9496753 4.23020408,12.9837662 L4,14.1347403 L4.23020408,15.2483766 C4.23673469,15.2824675 4.30204082,15.3084416 4.38367347,15.3084416 C4.46530612,15.3100649 4.53061224,15.2840909 4.53714286,15.25 Z M6.17795918,15.8668831 L6.4,14.1461039 L6.17795918,11.4821429 C6.17142857,11.413961 6.08816327,11.362013 5.98693878,11.362013 C5.88571429,11.362013 5.80244898,11.4155844 5.79755102,11.4821429 L5.6,14.1461039 L5.79755102,15.8668831 C5.80244898,15.9334416 5.88571429,15.9870489 5.98693878,15.9870489 C6.08816327,15.9886364 6.17142857,15.9350649 6.17795918,15.8668831 Z M7.81387755,15.8392857 L8,14.1477273 L7.81387755,10.6022727 C7.80897959,10.5194805 7.70938776,10.4529221 7.58857143,10.4529221 C7.46612245,10.4529221 7.36816327,10.5178571 7.36326531,10.6022727 L7.2,14.1477273 L7.36489796,15.8409091 C7.36979592,15.9237013 7.4677551,15.9886364 7.59020408,15.9886364 C7.71102041,15.987013 7.80897959,15.9220779 7.81387755,15.8392857 Z M9.44816327,15.8149351 L9.6,14.1477273 L9.44816327,10.5762987 C9.44489796,10.4772727 9.3322449,10.400974 9.19183673,10.400974 C9.05142857,10.400974 8.93877551,10.4788961 8.9355102,10.5762987 L8.8,14.1477273 L8.9355102,15.8149351 C8.93877551,15.9123377 9.05142857,15.9902597 9.19183673,15.9902597 C9.3322449,15.9886364 9.44326531,15.9123377 9.44816327,15.8149351 Z M11.0791837,15.7938312 L11.2,14.1493506 L11.0791837,10.0535714 C11.0759184,9.94155844 10.9485714,9.84902597 10.7934694,9.84902597 C10.6383673,9.84902597 10.5093878,9.93993506 10.5077551,10.0535714 L10.4,14.1461039 C10.4,14.1493506 10.5077551,15.7922078 10.5077551,15.7922078 C10.5110204,15.9025974 10.6383673,15.9951299 10.7934694,15.9951299 C10.9485714,15.9951299 11.077551,15.9058442 11.0791837,15.7938312 Z M12.2220408,15.9967532 C12.2269388,15.9967532 17.9004082,16 17.9379592,16 C19.077551,16 20,15.112013 20,14.0178571 C20,12.9220779 19.077551,12.0340909 17.9379592,12.0340909 C17.6555102,12.0340909 17.3861224,12.0892857 17.1412245,12.1883117 C16.9779592,10.400974 15.4187755,9 13.5183673,9 C13.0530612,9 12.5991837,9.08766234 12.1991837,9.23701299 C12.0440816,9.29545455 12.0016327,9.3538961 12,9.47077922 L12,15.762987 C12.0016327,15.8831169 12.0995918,15.9853896 12.2220408,15.9967532 Z"/>
</svg>
