<svg xmlns="http://www.w3.org/2000/svg" width="20" height="20" viewBox="0 0 20 20">
  <path fill-rule="evenodd" d="M14.876,15.8296 C14.78,15.9396 14.646,15.9996 14.5,15.9996 L5.5,15.9996 C5.354,15.9996 5.22,15.9396 5.124,15.8296 C5.028,15.7196 4.985,15.5796 5.004,15.4336 L5.195,13.9996 L14.805,13.9996 L14.996,15.4336 C15.015,15.5796 14.972,15.7196 14.876,15.8296 L14.876,15.8296 Z M6.07,7.4336 C6.103,7.1866 6.316,6.9996 6.565,6.9996 L13.435,6.9996 C13.684,6.9996 13.897,7.1866 13.93,7.4336 L14.671,12.9996 L5.329,12.9996 L6.07,7.4336 Z M10,3.9996 C11.082,3.9996 11.96,4.8916 11.994,5.9996 L8.006,5.9996 C8.04,4.8916 8.918,3.9996 10,3.9996 L10,3.9996 Z M15.987,15.3026 L14.921,7.3026 C14.823,6.5596 14.184,5.9996 13.435,5.9996 L12.994,5.9996 C12.959,4.3406 11.633,2.9996 10,2.9996 C8.367,2.9996 7.041,4.3406 7.006,5.9996 L6.565,5.9996 C5.816,5.9996 5.177,6.5596 5.079,7.3026 L4.013,15.3026 C3.956,15.7306 4.087,16.1626 4.372,16.4886 C4.657,16.8136 5.068,16.9996 5.5,16.9996 L14.5,16.9996 C14.932,16.9996 15.343,16.8136 15.628,16.4886 C15.913,16.1626 16.044,15.7306 15.987,15.3026 L15.987,15.3026 Z"/>
</svg>
