<svg xmlns="http://www.w3.org/2000/svg" width="24" height="24" viewBox="0 0 24 24">
  <path fill-rule="evenodd" d="M18.5,3.9995 C19.327,3.9995 20,4.6725 20,5.4995 L20,5.4995 L20,11.5195 C20,12.0535 19.792,12.5555 19.414,12.9335 L19.414,12.9335 L11.788,20.5595 C11.496,20.8525 11.111,20.9985 10.728,20.9985 C10.343,20.9985 9.959,20.8525 9.667,20.5595 L9.667,20.5595 L3.44,14.3325 C3.157,14.0505 3.001,13.6735 3.001,13.2725 C3.001,12.8725 3.157,12.4955 3.439,12.2115 L3.439,12.2115 L11.066,4.5855 C11.444,4.2075 11.946,3.9995 12.48,3.9995 L12.48,3.9995 Z M18.5,4.9995 L12.48,4.9995 C12.213,4.9995 11.962,5.1045 11.773,5.2925 L11.773,5.2925 L4.147,12.9185 C4.053,13.0135 4.001,13.1385 4.001,13.2725 C4.001,13.4065 4.053,13.5315 4.147,13.6255 L4.147,13.6255 L10.374,19.8525 C10.569,20.0475 10.886,20.0485 11.081,19.8525 L11.081,19.8525 L18.707,12.2265 C18.896,12.0375 19,11.7865 19,11.5195 L19,11.5195 L19,5.4995 C19,5.2245 18.776,4.9995 18.5,4.9995 L18.5,4.9995 Z M13.586,7.586 C14.341,6.83 15.659,6.83 16.414,7.586 C17.194,8.365 17.194,9.635 16.414,10.414 C16.037,10.792 15.534,11 15,11 C14.466,11 13.963,10.792 13.586,10.414 C12.806,9.635 12.806,8.366 13.586,7.586 Z M15,8 C14.733,8 14.482,8.104 14.293,8.293 C13.903,8.683 13.903,9.317 14.293,9.707 C14.671,10.084 15.329,10.084 15.707,9.707 C16.097,9.317 16.097,8.683 15.707,8.293 C15.518,8.104 15.267,8 15,8 Z"/>
</svg>
