<svg xmlns="http://www.w3.org/2000/svg" width="24" height="24" viewBox="0 0 24 24">
  <path fill-rule="evenodd" d="M16.0605,10.0605 C15.4745,10.6465 14.5255,10.6465 13.9395,10.0605 C13.3535,9.4745 13.3535,8.5255 13.9395,7.9395 C14.5255,7.3535 15.4745,7.3535 16.0605,7.9395 C16.6465,8.5255 16.6465,9.4745 16.0605,10.0605 M18.4995,3.9995 L12.4805,3.9995 C11.9465,3.9995 11.4445,4.2075 11.0665,4.5855 L3.4395,12.2115 C3.1565,12.4955 3.0005,12.8725 3.0005,13.2725 C3.0005,13.6735 3.1565,14.0505 3.4395,14.3325 L9.6665,20.5595 C9.9585,20.8525 10.3435,20.9985 10.7275,20.9985 C11.1115,20.9985 11.4955,20.8525 11.7885,20.5595 L19.4145,12.9335 C19.7915,12.5555 19.9995,12.0535 19.9995,11.5195 L19.9995,5.4995 C19.9995,4.6725 19.3275,3.9995 18.4995,3.9995"/>
</svg>
