<svg xmlns="http://www.w3.org/2000/svg" width="24" height="24" viewBox="0 0 24 24">
  <path fill-rule="evenodd" d="M17.5215,18.2158 C17.4205,18.6698 17.0105,18.9998 16.5445,18.9998 L9.0005,18.9998 L9.0005,11.6348 L10.9125,8.4398 C10.9465,8.3818 10.9685,8.3188 10.9785,8.2518 L11.4345,4.9998 L11.5005,4.9998 C12.3275,4.9998 13.0005,5.6728 13.0005,6.4998 L13.0005,10.4998 C13.0005,10.7768 13.2235,10.9998 13.5005,10.9998 L18.4925,10.9998 C18.6455,10.9998 18.7875,11.0688 18.8825,11.1878 C18.9785,11.3058 19.0145,11.4588 18.9805,11.6088 L17.5215,18.2158 Z M8.0005,18.9998 L5.5005,18.9998 C5.2245,18.9998 5.0005,18.7758 5.0005,18.4998 L5.0005,12.4998 C5.0005,12.2248 5.2245,11.9998 5.5005,11.9998 L8.0005,11.9998 L8.0005,18.9998 Z M19.6625,10.5608 C19.3765,10.2038 18.9505,9.9998 18.4925,9.9998 L14.0005,9.9998 L14.0005,6.4998 C14.0005,5.1208 12.8785,3.9998 11.5005,3.9998 L11.0005,3.9998 C10.7505,3.9998 10.5395,4.1838 10.5045,4.4308 L10.0015,8.0128 L8.2135,10.9998 L5.5005,10.9998 C4.6725,10.9998 4.0005,11.6728 4.0005,12.4998 L4.0005,18.4998 C4.0005,19.3268 4.6725,19.9998 5.5005,19.9998 L8.5005,19.9998 C8.5325,19.9998 8.5605,19.9868 8.5905,19.9818 L8.5905,19.9998 L16.5445,19.9998 C17.4755,19.9998 18.2975,19.3398 18.4985,18.4308 L19.9575,11.8238 C20.0565,11.3778 19.9485,10.9168 19.6625,10.5608 L19.6625,10.5608 Z"/>
</svg>
