<svg xmlns="http://www.w3.org/2000/svg" width="24" height="24" viewBox="0 0 24 24">
  <path fill-rule="evenodd" d="M18.1226667,7.08135111 C18.8055317,6.66465834 19.3169089,6.01199053 19.5626667,5.24348742 C18.9194683,5.63014147 18.2161259,5.90322058 17.4826667,6.05106635 C16.5599469,5.05555981 15.1313399,4.73140095 13.8778987,5.23312453 C12.6244575,5.7348481 11.7999078,6.96089358 11.7973333,8.32677404 C11.7986193,8.58141966 11.827232,8.83516796 11.8826667,9.08354144 C9.24393678,8.94918852 6.7856588,7.68534465 5.12,5.60673578 C4.82455056,6.11305613 4.66974922,6.69095442 4.672,7.27919173 C4.57824656,8.35090489 5.03325618,9.39648405 5.87733333,10.0489604 C5.28677707,9.96258718 4.70494228,9.82330086 4.13866667,9.63273836 L4.13866667,9.67490111 C4.25165246,11.3047252 5.44255689,12.6484755 7.02933333,12.9365686 C6.79155666,13.014355 6.54318899,13.0537558 6.29333333,13.053327 C6.10686389,13.0539549 5.92088056,13.0340174 5.73866667,12.9938667 C6.17914398,14.3530396 7.42067732,15.2802976 8.832,15.3041695 C7.67518213,16.2309251 6.24255289,16.7328402 4.768,16.7279733 C4.51130221,16.7284346 4.25481897,16.7129096 4,16.6814862 C6.87479471,18.5476405 10.5250826,18.6756039 13.5202243,17.0152243 C16.5153661,15.3548448 18.3782122,12.1706337 18.3786667,8.71056322 C18.3786667,8.56677741 18.368,8.42299161 18.368,8.27812471 C19.0089164,7.80808747 19.5616345,7.22555774 20,6.55810051 C19.4037231,6.82714767 18.7708334,7.00354678 18.1226667,7.08135111 Z"/>
</svg>
