<svg xmlns="http://www.w3.org/2000/svg" width="24" height="24" viewBox="0 0 24 24">
  <path fill-rule="evenodd" d="M14.4995,5 C15.3265,5 15.9995,5.673 15.9995,6.5 L15.9995,6.5 L15.9995,17.5 C15.9995,18.327 15.3265,19 14.4995,19 L14.4995,19 L3.4995,19 C2.6725,19 1.9995,18.327 1.9995,17.5 L1.9995,17.5 L1.9995,6.5 C1.9995,5.673 2.6725,5 3.4995,5 L3.4995,5 Z M20.4615,6.741 C20.7695,6.546 21.1595,6.532 21.4805,6.707 C21.8005,6.883 22.0005,7.219 22.0005,7.584 L22.0005,7.584 L22.0005,16.416 C22.0005,16.778 21.8025,17.113 21.4855,17.29 C21.3345,17.374 21.1675,17.416 20.9995,17.416 C20.8155,17.416 20.6325,17.365 20.4715,17.266 L20.4715,17.266 L17.0005,15.105 L17.0005,8.951 Z"/>
</svg>
