<svg xmlns="http://www.w3.org/2000/svg" width="24" height="24" viewBox="0 0 24 24">
  <path fill-rule="evenodd" d="M21,16.416 L17,13.928 L17,10.139 L21,7.584 L21,16.416 Z M16,17.5 C16,17.775 15.776,18 15.5,18 L3.5,18 C3.224,18 3,17.775 3,17.5 L3,6.5 C3,6.225 3.224,6 3.5,6 L15.5,6 C15.776,6 16,6.225 16,6.5 L16,17.5 Z M21.48,6.707 C21.16,6.532 20.769,6.546 20.462,6.741 L17,8.951 L17,6.5 C17,5.673 16.327,5 15.5,5 L3.5,5 C2.673,5 2,5.673 2,6.5 L2,17.5 C2,18.327 2.673,19 3.5,19 L15.5,19 C16.327,19 17,18.327 17,17.5 L17,15.105 L20.472,17.266 C20.633,17.365 20.816,17.416 21,17.416 C21.167,17.416 21.334,17.374 21.485,17.29 C21.803,17.113 22,16.778 22,16.416 L22,7.584 C22,7.219 21.801,6.883 21.48,6.707 L21.48,6.707 Z"/>
</svg>
