<svg xmlns="http://www.w3.org/2000/svg" width="20" height="20" viewBox="0 0 20 20">
  <path fill-rule="evenodd" d="M11.641,4.0004 C12.146,4.0004 12.614,4.2524 12.892,4.6734 L12.892,4.6734 L13.769,6.0004 L15.5,6.0004 C16.327,6.0004 17,6.6724 17,7.5004 L17,7.5004 L17,14.5004 C17,15.3274 16.327,16.0004 15.5,16.0004 L15.5,16.0004 L4.5,16.0004 C3.673,16.0004 3,15.3274 3,14.5004 L3,14.5004 L3,7.5004 C3,6.6734 3.673,6.0004 4.5,6.0004 L4.5,6.0004 L6.236,6.0004 L7.15,4.6594 C7.429,4.2494 7.892,4.0034 8.388,4.0034 L8.388,4.0034 L11.639,4.0004 Z M10,7.5004 C8.346,7.5004 7,8.8454 7,10.5004 C7,11.4484 7.458,12.3524 8.224,12.9164 C8.746,13.3014 9.363,13.4994 10,13.4994 C10.312,13.4994 10.628,13.4514 10.94,13.3554 C11.842,13.0754 12.575,12.3414 12.855,11.4404 C13.149,10.4914 12.989,9.5014 12.417,8.7234 C11.852,7.9574 10.949,7.5004 10,7.5004 Z M10,8.5 C10.632,8.5 11.234,8.805 11.611,9.317 C11.994,9.836 12.099,10.502 11.9,11.144 C11.716,11.735 11.235,12.216 10.644,12.4 C10.002,12.599 9.335,12.494 8.817,12.111 C8.305,11.734 8,11.132 8,10.5 C8,9.397 8.897,8.5 10,8.5 Z"/>
</svg>
