<svg xmlns="http://www.w3.org/2000/svg" width="24" height="24" viewBox="0 0 24 24">
  <path fill-rule="evenodd" d="M19.5,18 L4.5,18 C4.224,18 4,17.775 4,17.5 L4,6.865 L10.997,13.862 C11.29,14.155 11.674,14.301 12.058,14.301 C12.442,14.301 12.826,14.155 13.119,13.862 L20,6.98 L20,17.5 C20,17.775 19.776,18 19.5,18 M19.556,6.012 L12.412,13.155 C12.216,13.352 11.899,13.351 11.704,13.155 L4.549,6 L19.5,6 C19.52,6 19.537,6.009 19.556,6.012 M19.5,5 L4.5,5 C3.673,5 3,5.673 3,6.5 L3,17.5 C3,18.327 3.673,19 4.5,19 L19.5,19 C20.327,19 21,18.327 21,17.5 L21,6.5 C21,5.673 20.327,5 19.5,5"/>
</svg>
