<svg xmlns="http://www.w3.org/2000/svg" width="20" height="20" viewBox="0 0 20 20">
  <path fill-rule="evenodd" d="M16,16 L16,19 L4,19 L4,16 L16,16 Z M11.6162,3.6768 C12.0698,3.22133333 12.7925733,3.19096889 13.2828761,3.58570667 L13.3842,3.6768 L15.3232,5.6158 C15.7777333,6.07126667 15.8080356,6.79242222 15.4141067,7.28250104 L15.3232,7.3838 L9.8532,12.8538 C9.7788,12.929 9.68264,12.97732 9.579056,12.99364 L9.5002,12.9998 L7.3532,12.9998 L6.6772,13.6768 C6.6292,13.7248 6.5652,13.7498 6.5002,13.7498 L6.460325,13.7468 L6.460325,13.7468 L6.4212,13.7378 L4.9212,13.2378 C4.8392,13.2098 4.7762,13.1418 4.7572,13.0578 C4.74145,12.99405 4.7521375,12.9286125 4.7842,12.8737219 L4.8232,12.8228 L6.0002,11.6468 L6.0002,9.4998 C6.0002,9.3934 6.03412,9.29084 6.095304,9.206456 L6.1462,9.1468 L11.6162,3.6768 Z M7.5002,9.2068 L7.0002,9.7068 L7.0002,11.6468 L7.3532,11.9998 L9.2932,11.9998 L9.7932,11.4998 L7.5002,9.2068 Z M12.6772,4.3838 C12.5955333,4.30213333 12.4722,4.28852222 12.3766444,4.34296667 L12.3232,4.3838 L8.2072,8.4998 L10.5002,10.7928 L14.6162,6.6768 C14.6978667,6.59513333 14.7114778,6.4718 14.6570333,6.37624444 L14.6162,6.3228 L12.6772,4.3838 Z"/>
</svg>
