<svg xmlns="http://www.w3.org/2000/svg" width="24" height="24" viewBox="0 0 24 24">
  <path fill-rule="evenodd" d="M20.9219,8.4561 C20.5569,6.2411 18.8899,4.4871 16.7729,4.0901 C14.9729,3.7521 13.1989,4.3791 11.9999,5.7381 C10.8009,4.3791 9.0259,3.7521 7.2269,4.0901 C5.1099,4.4871 3.4429,6.2411 3.0779,8.4561 C2.9219,9.4021 3.0039,10.3711 3.3159,11.2571 C4.2969,14.3921 9.1369,17.8931 11.1729,19.2541 C11.4249,19.4221 11.7139,19.5061 12.0019,19.5061 C12.2909,19.5061 12.5789,19.4221 12.8309,19.2541 C14.8669,17.8931 19.7109,14.3871 20.6809,11.2661 C20.9959,10.3781 21.0789,9.4061 20.9219,8.4561"/>
</svg>
