<svg xmlns="http://www.w3.org/2000/svg" width="30" height="30" viewBox="0 0 30 30">
  <path fill-rule="evenodd" d="M10.2822,7.001 C9.9612,7.001 9.6362,7.031 9.3092,7.092 C7.1892,7.49 5.4502,9.335 5.0812,11.578 C4.9182,12.568 5.0042,13.579 5.3292,14.502 L5.3352,14.52 C6.2452,17.451 10.7822,21.296 14.7232,23.916 C14.8922,24.027 15.1112,24.028 15.2812,23.915 C19.2202,21.296 23.7542,17.452 24.6642,14.52 C24.9952,13.579 25.0812,12.568 24.9192,11.578 C24.5492,9.335 22.8102,7.49 20.6902,7.092 C18.6382,6.712 16.6152,7.562 15.4132,9.322 C15.2262,9.594 14.7732,9.594 14.5872,9.322 C13.5752,7.841 11.9842,7.001 10.2822,7.001 M15.0022,25 C14.7122,25 14.4232,24.916 14.1702,24.749 C12.1892,23.432 5.6332,18.828 4.3832,14.825 C4.0052,13.747 3.9052,12.568 4.0952,11.416 C4.5372,8.724 6.5592,6.591 9.1252,6.109 C11.3542,5.69 13.5452,6.493 15.0002,8.215 C16.4542,6.492 18.6482,5.691 20.8742,6.109 C23.4402,6.591 25.4622,8.724 25.9052,11.416 C26.0952,12.572 25.9942,13.754 25.6142,14.834 C24.3752,18.821 17.8152,23.431 15.8342,24.748 C15.5812,24.916 15.2912,25 15.0022,25"/>
</svg>
