<svg xmlns="http://www.w3.org/2000/svg" width="30" height="30" viewBox="0 0 30 30">
  <path fill-rule="evenodd" d="M6.001,22 L7.9,19.474 C7.965,19.387 8,19.281 8,19.173 L8,12.948 C8,9.991 9.972,7.194 12.689,6.298 C12.923,6.221 13.066,5.984 13.026,5.741 C13.013,5.662 13,5.582 13,5.5 C13,4.673 13.673,4 14.5,4 C15.327,4 16,4.673 16,5.5 C16,5.582 15.987,5.661 15.974,5.74 C15.934,5.983 16.077,6.22 16.311,6.297 C19.028,7.192 21,9.989 21,12.948 L21,19.173 C21,19.281 21.035,19.387 21.1,19.474 L22.999,22 L6.001,22 Z M14.5,25 C13.397,25 12.5,24.103 12.5,23 L16.5,23 C16.5,24.103 15.603,25 14.5,25 L14.5,25 Z M23.799,21.399 L23.799,21.398 L22,19.006 L22,12.948 C22,9.708 19.919,6.634 17,5.483 C16.991,4.112 15.873,3 14.5,3 C13.126,3 12.008,4.113 12,5.484 C9.081,6.637 7,9.71 7,12.948 L7,19.006 L5.201,21.399 C4.972,21.704 4.936,22.106 5.106,22.447 C5.277,22.788 5.62,23 6.001,23 L11.5,23 C11.5,24.654 12.846,26 14.5,26 C16.154,26 17.5,24.654 17.5,23 L22.999,23 C23.38,23 23.723,22.788 23.894,22.447 C24.064,22.106 24.028,21.704 23.799,21.399 L23.799,21.399 Z"/>
</svg>
