<svg xmlns="http://www.w3.org/2000/svg" width="24" height="24" viewBox="0 0 24 24">
  <path fill-rule="evenodd" d="M9,16.5 C9.829,16.5 10.5,17.172 10.5,18 C10.5,18.828 9.829,19.5 9,19.5 C8.172,19.5 7.5,18.828 7.5,18 C7.5,17.172 8.172,16.5 9,16.5 Z M15,16.5 C15.829,16.5 16.5,17.172 16.5,18 C16.5,18.828 15.829,19.5 15,19.5 C14.171,19.5 13.5,18.828 13.5,18 C13.5,17.172 14.171,16.5 15,16.5 Z M9,10.5 C9.829,10.5 10.5,11.172 10.5,12 C10.5,12.828 9.829,13.5 9,13.5 C8.172,13.5 7.5,12.828 7.5,12 C7.5,11.172 8.172,10.5 9,10.5 Z M15,10.5 C15.829,10.5 16.5,11.172 16.5,12 C16.5,12.828 15.829,13.5 15,13.5 C14.171,13.5 13.5,12.828 13.5,12 C13.5,11.172 14.171,10.5 15,10.5 Z M9,4.5 C9.829,4.5 10.5,5.172 10.5,6 C10.5,6.828 9.829,7.5 9,7.5 C8.172,7.5 7.5,6.828 7.5,6 C7.5,5.172 8.172,4.5 9,4.5 Z M15,4.5 C15.829,4.5 16.5,5.172 16.5,6 C16.5,6.828 15.829,7.5 15,7.5 C14.171,7.5 13.5,6.828 13.5,6 C13.5,5.172 14.171,4.5 15,4.5 Z"/>
</svg>
