<svg xmlns="http://www.w3.org/2000/svg" width="24" height="24" viewBox="0 0 24 24">
  <path fill-rule="evenodd" d="M4,9.33333333 C9.7960206,9.33333333 14.5123239,13.9561525 14.6629549,19.7158357 L14.6666667,20 L12,20 C12,15.6650857 8.55216223,12.1354571 4.24917933,12.0038068 L4,12 L4,9.33333333 Z M4,4 C12.7313589,4 19.8292047,10.993901 19.9969636,19.6851293 L20,20 L17.3333333,20 C17.3333333,16.4637801 15.9285755,13.0723946 13.4280904,10.5719096 C11.0169084,8.16072758 7.77732533,6.76840413 4.3782925,6.67202794 L4,6.66666667 L4,4 Z M6.66666667,14.6666667 C8.139426,14.6666667 9.33333333,15.860574 9.33333333,17.3333333 C9.33333333,18.8060927 8.139426,20 6.66666667,20 C5.19390733,20 4,18.8060927 4,17.3333333 C4,15.860574 5.19390733,14.6666667 6.66666667,14.6666667 Z"/>
</svg>
