<svg xmlns="http://www.w3.org/2000/svg" width="20" height="20" viewBox="0 0 20 20">
  <path fill-rule="evenodd" d="M10.6999,2.9996 C11.4169,2.9996 11.9999,3.5826 11.9999,4.2996 L11.9999,4.2996 L11.9999,4.9006 C12.5189,5.1016 12.9949,5.3746 13.4219,5.7146 L13.4219,5.7146 L13.9369,5.4176 C14.2379,5.2446 14.5879,5.1976 14.9229,5.2886 C15.2579,5.3776 15.5379,5.5926 15.7119,5.8936 L15.7119,5.8936 L16.4119,7.1066 C16.5859,7.4066 16.6319,7.7566 16.5419,8.0926 C16.4519,8.4276 16.2369,8.7076 15.9369,8.8816 L15.9369,8.8816 L15.4329,9.1726 C15.4779,9.4556 15.4999,9.7276 15.4999,9.9996 C15.4999,10.2716 15.4779,10.5446 15.4329,10.8276 L15.4329,10.8276 L15.9369,11.1176 C16.2369,11.2916 16.4519,11.5726 16.5419,11.9076 C16.6319,12.2436 16.5859,12.5936 16.4119,12.8936 L16.4119,12.8936 L15.7129,14.1056 C15.5389,14.4066 15.2579,14.6226 14.9229,14.7116 C14.5889,14.8006 14.2369,14.7556 13.9359,14.5816 L13.9359,14.5816 L13.4219,14.2856 C12.9949,14.6246 12.5189,14.8976 11.9999,15.0996 L11.9999,15.0996 L11.9999,15.7006 C11.9999,16.4166 11.4169,16.9996 10.6999,16.9996 L10.6999,16.9996 L9.2999,16.9996 C8.5829,16.9996 7.9999,16.4166 7.9999,15.7006 L7.9999,15.7006 L7.9999,15.0996 C7.4809,14.8976 7.0049,14.6246 6.5779,14.2856 L6.5779,14.2856 L6.0639,14.5816 C5.7629,14.7556 5.4129,14.8006 5.0769,14.7116 C4.7419,14.6226 4.4619,14.4066 4.2879,14.1056 L4.2879,14.1056 L3.5879,12.8936 C3.4139,12.5936 3.3679,12.2436 3.4579,11.9076 C3.5479,11.5726 3.7629,11.2916 4.0629,11.1186 L4.0629,11.1186 L4.5669,10.8276 C4.5219,10.5446 4.4999,10.2716 4.4999,9.9996 C4.4999,9.7276 4.5219,9.4556 4.5669,9.1726 L4.5669,9.1726 L4.0639,8.8826 C3.7629,8.7076 3.5479,8.4276 3.4579,8.0926 C3.3679,7.7566 3.4139,7.4066 3.5879,7.1056 L3.5879,7.1056 L4.2879,5.8936 C4.4619,5.5926 4.7419,5.3776 5.0769,5.2886 C5.4139,5.1966 5.7639,5.2436 6.0639,5.4186 L6.0639,5.4186 L6.5779,5.7146 C7.0049,5.3746 7.4809,5.1016 7.9999,4.9006 L7.9999,4.9006 L7.9999,4.2996 C7.9999,3.5826 8.5829,2.9996 9.2999,2.9996 L9.2999,2.9996 Z M10.6999,3.9996 L9.2999,3.9996 C9.1339,3.9996 8.9999,4.1346 8.9999,4.2996 L8.9999,4.2996 L8.9999,5.2546 C8.9999,5.4726 8.8589,5.6656 8.6509,5.7306 C8.0129,5.9326 7.4479,6.2566 6.9719,6.6936 C6.8099,6.8406 6.5729,6.8666 6.3839,6.7576 L6.3839,6.7576 L5.5639,6.2846 C5.4189,6.2016 5.2359,6.2506 5.1529,6.3936 L5.1529,6.3936 L4.4539,7.6066 C4.3709,7.7496 4.4209,7.9336 4.5639,8.0166 L4.5639,8.0166 L5.3749,8.4846 C5.5639,8.5936 5.6609,8.8126 5.6129,9.0256 C5.5369,9.3686 5.4999,9.6866 5.4999,9.9996 C5.4999,10.3126 5.5369,10.6316 5.6129,10.9746 C5.6609,11.1866 5.5639,11.4066 5.3749,11.5156 L5.3749,11.5156 L4.5639,11.9836 C4.4209,12.0666 4.3709,12.2506 4.4539,12.3936 L4.4539,12.3936 L5.1539,13.6056 C5.1939,13.6756 5.2589,13.7256 5.3369,13.7466 C5.4119,13.7666 5.4939,13.7556 5.5629,13.7166 L5.5629,13.7166 L6.3839,13.2426 C6.4619,13.1976 6.5479,13.1756 6.6339,13.1756 C6.7559,13.1756 6.8769,13.2206 6.9719,13.3066 C7.4479,13.7436 8.0129,14.0676 8.6509,14.2686 C8.8589,14.3346 8.9999,14.5276 8.9999,14.7456 L8.9999,14.7456 L8.9999,15.7006 C8.9999,15.8656 9.1339,15.9996 9.2999,15.9996 L9.2999,15.9996 L10.6999,15.9996 C10.8659,15.9996 10.9999,15.8656 10.9999,15.7006 L10.9999,15.7006 L10.9999,14.7456 C10.9999,14.5276 11.1409,14.3346 11.3489,14.2686 C11.9869,14.0676 12.5519,13.7436 13.0279,13.3066 C13.1899,13.1586 13.4279,13.1336 13.6159,13.2426 L13.6159,13.2426 L14.4369,13.7156 C14.5059,13.7556 14.5869,13.7666 14.6639,13.7466 C14.7409,13.7256 14.8059,13.6756 14.8459,13.6056 L14.8459,13.6056 L15.5459,12.3936 C15.6289,12.2506 15.5799,12.0666 15.4359,11.9836 L15.4359,11.9836 L14.6249,11.5156 C14.4359,11.4066 14.3389,11.1866 14.3869,10.9746 C14.4629,10.6316 14.4999,10.3126 14.4999,9.9996 C14.4999,9.6866 14.4629,9.3686 14.3869,9.0256 C14.3389,8.8126 14.4359,8.5936 14.6249,8.4846 L14.6249,8.4846 L15.4369,8.0166 C15.5799,7.9336 15.6289,7.7496 15.5459,7.6066 L15.5459,7.6066 L14.8459,6.3936 C14.7639,6.2506 14.5799,6.2016 14.4369,6.2836 L14.4369,6.2836 L13.6159,6.7576 C13.4279,6.8666 13.1899,6.8406 13.0279,6.6936 C12.5519,6.2566 11.9869,5.9326 11.3489,5.7306 C11.1409,5.6656 10.9999,5.4726 10.9999,5.2546 L10.9999,5.2546 L10.9999,4.2996 C10.9999,4.1346 10.8659,3.9996 10.6999,3.9996 L10.6999,3.9996 Z M10,8 C11.103,8 12,8.897 12,10 C12,11.103 11.103,12 10,12 C8.897,12 8,11.103 8,10 C8,8.897 8.897,8 10,8 Z M10,9 C9.449,9 9,9.449 9,10 C9,10.551 9.449,11 10,11 C10.551,11 11,10.551 11,10 C11,9.449 10.551,9 10,9 Z"/>
</svg>
