<svg xmlns="http://www.w3.org/2000/svg" width="24" height="24" viewBox="0 0 24 24">
  <path fill-rule="evenodd" d="M16.7322881,11.0921749 C14.1535412,9.56072746 9.89995582,9.41991569 7.43823364,10.1670587 C7.04283343,10.2870449 6.62479252,10.0638859 6.50499743,9.66858125 C6.38520235,9.27298998 6.60817024,8.85523566 7.00376151,8.73505845 C9.82964546,7.87729124 14.5273515,8.0429409 17.4960534,9.80518969 C17.8516174,10.0163118 17.96826,10.4755263 17.75752,10.8305172 C17.546589,11.1860812 17.0869923,11.303297 16.7322881,11.0921749 Z M16.6478392,13.360448 C16.4669047,13.6540129 16.0830637,13.7461042 15.7898809,13.5658383 C13.6399699,12.2443667 10.3616541,11.861481 7.81815794,12.6335574 C7.48829156,12.7331956 7.13998782,12.5472935 7.03977646,12.2180003 C6.94042487,11.8882295 7.12642251,11.5404989 7.4557157,11.440192 C10.361272,10.5584467 13.9733709,10.9854674 16.44264,12.5029674 C16.7358227,12.6835198 16.828105,13.0675519 16.6478392,13.360448 Z M15.6689395,15.5388271 C15.5251663,15.7745961 15.2182272,15.8484411 14.983318,15.7047634 C13.1047132,14.5565838 10.7401454,14.2973144 7.95543508,14.9333556 C7.68709026,14.9948772 7.41960522,14.8267437 7.35837025,14.5583989 C7.29694422,14.2901496 7.4645045,14.0226646 7.7334225,13.9614296 C10.7808414,13.2648221 13.394839,13.5645964 15.5034809,14.8531101 C15.7385811,14.9966923 15.8126172,15.3038224 15.6689395,15.5388271 Z M12,4 C7.58181579,4 4,7.58172026 4,11.9999045 C4,16.4185663 7.58181579,20 12,20 C16.4183753,20 20,16.4185663 20,11.9999045 C20,7.58172026 16.4183753,4 12,4 L12,4 Z"/>
</svg>
