<svg xmlns="http://www.w3.org/2000/svg" width="20" height="20" viewBox="0 0 20 20">
  <path fill-rule="evenodd" d="M16,12.5977 C16,12.6997 15.936,12.7507 15.898,12.7727 C15.859,12.7927 15.783,12.8207 15.696,12.7687 L13,11.1327 L13,8.0397 L15.697,6.4037 C15.784,6.3527 15.86,6.3787 15.898,6.3997 C15.936,6.4217 16,6.4727 16,6.5747 L16,12.5977 Z M12,13.4997 C12,13.7757 11.776,13.9997 11.5,13.9997 L3.5,13.9997 C3.224,13.9997 3,13.7757 3,13.4997 L3,5.4997 C3,5.2237 3.224,4.9997 3.5,4.9997 L11.5,4.9997 C11.776,4.9997 12,5.2237 12,5.4997 L12,13.4997 Z M16.388,5.5287 C16.005,5.3127 15.553,5.3197 15.178,5.5487 L13,6.8707 L13,5.4997 C13,4.6727 12.327,3.9997 11.5,3.9997 L3.5,3.9997 C2.673,3.9997 2,4.6727 2,5.4997 L2,13.4997 C2,14.3267 2.673,14.9997 3.5,14.9997 L11.5,14.9997 C12.327,14.9997 13,14.3267 13,13.4997 L13,12.3017 L15.177,13.6237 C15.371,13.7417 15.585,13.8007 15.8,13.8007 C16.001,13.8007 16.203,13.7477 16.388,13.6437 C16.771,13.4287 17,13.0367 17,12.5977 L17,6.5747 C17,6.1357 16.771,5.7437 16.388,5.5287 L16.388,5.5287 Z"/>
</svg>
