<svg xmlns="http://www.w3.org/2000/svg" xmlns:xlink="http://www.w3.org/1999/xlink" width="15" height="24" viewBox="0 0 15 24">
  <g fill="none" fill-rule="evenodd">
    <path fill="#CBD3DC" d="M9.75,11.1381104 C10.2823219,11.2824569 10.6666667,11.6958656 10.6666667,12.1833333 L10.6666667,14.9333333 C10.6666667,15.8446032 9.77123617,16.5833333 8.66666667,16.5833333 L5.33333333,16.5833333 C4.22876383,16.5833333 3.33333333,15.8446032 3.33333333,14.9333333 L3.33333333,12.1833333 C3.33333333,11.6958656 3.71767807,11.2824569 4.25,11.1381104 L4.25,9.82291667 C4.25,8.49398149 5.48121694,7.41666667 7,7.41666667 C8.51878306,7.41666667 9.75,8.49398149 9.75,9.82291667 L9.75,11.1381104 Z M7,8.33333333 C5.98747796,8.33333333 5.16666667,8.9132659 5.16666667,9.62864897 L5.16666667,11.0833333 L8.83333333,11.0833333 L8.83333333,9.62864897 C8.83333333,8.9132659 8.01252204,8.33333333 7,8.33333333 Z M9,1 L11,1 L11,3 L9,3 L9,1 Z M13,1 L15,1 L15,3 L13,3 L13,1 Z M13,6 L15,6 L15,8 L13,8 L13,6 Z M13,11 L15,11 L15,13 L13,13 L13,11 Z M13,16 L15,16 L15,18 L13,18 L13,16 Z M9,21 L11,21 L11,23 L9,23 L9,21 Z M13,21 L15,21 L15,23 L13,23 L13,21 Z"/>
  </g>
</svg>
