<svg xmlns="http://www.w3.org/2000/svg" width="26" height="26" viewBox="0 0 26 26">
  <path fill-rule="evenodd" d="M18.490652,16.2806492 C19.1298338,16.9197675 19.1674327,17.932184 18.6034488,18.6143872 L18.490652,18.7382588 L13.7307367,23.4907026 C13.0915549,24.1298209 12.0776022,24.1674161 11.3943297,23.6034882 L11.2702635,23.4907026 L6.50934795,18.7382588 C5.87016621,18.1000804 5.83256728,17.0877192 6.39655117,16.4046867 L6.50934795,16.2806492 L11.2702635,11.5282054 C11.9094453,10.890027 12.923398,10.8524871 13.6066705,11.4155857 L13.7307367,11.5282054 L18.490652,16.2806492 Z M17.5010617,10.1982402 L16.1688055,11.4904575 L13.1512252,8.59145679 C12.7831545,8.2349486 12.1870398,8.2349486 11.818969,8.59145679 L8.8313945,11.4614974 L7.4991383,10.1692801 L10.4867128,7.29923946 C11.5889248,6.23071354 13.3812695,6.23071354 14.4834814,7.29923946 L17.5010617,10.1982402 Z M16.5008694,4.65958099 L15.1176034,5.99473908 L13.1872322,4.1642643 C12.8041585,3.79577265 12.1850394,3.79577265 11.8019658,4.1642643 L9.88259665,5.98375423 L8.49933064,4.64859614 L10.4186997,2.82910621 C11.5629198,1.72363126 13.4252779,1.72363126 14.5704982,2.82910621 L16.5008694,4.65958099 Z"/>
</svg>
