<svg xmlns="http://www.w3.org/2000/svg" width="26" height="26" viewBox="0 0 26 26">
  <path d="M16.30035,7.50925 C16.94035,6.87019118 17.9541631,6.83259948 18.6373075,7.39647491 L18.76135,7.50925 L23.52035,12.26825 C24.16035,12.9073088 24.1979971,13.9210666 23.6332912,14.6042077 L23.52035,14.72825 L18.76135,19.48825 C18.1222912,20.1273088 17.1085334,20.1649005 16.4245586,19.6010251 L16.30035,19.48825 L11.54135,14.72825 C10.9022912,14.0891912 10.8646995,13.0754334 11.4285749,12.3922923 L11.54135,12.26825 L16.30035,7.50925 Z M10.20955,8.49865 L11.50355,9.83065 L8.60055,12.84765 C8.24355,13.21565 8.24355,13.81165 8.60055,14.17965 L11.47455,17.16665 L10.18055,18.49865 L7.30655,15.51165 C6.23655,14.40965 6.23655,12.61765 7.30655,11.51565 L10.20955,8.49865 Z M4.66325,9.49865 L6.00025,10.88165 L4.16725,12.81165 C3.79825,13.19465 3.79825,13.81365 4.16725,14.19665 L5.98925,16.11565 L4.65225,17.49865 L2.83025,15.57965 C1.72325,14.43565 1.72325,12.57365 2.83025,11.42865 L4.66325,9.49865 Z"/>
</svg>
