<svg xmlns="http://www.w3.org/2000/svg" width="26" height="26" viewBox="0 0 26 26">
  <path d="M15.887,14.517 L16.818,15.345 C16.467,15.807 16.25,16.376 16.25,17 C16.25,18.517 17.483,19.75 19,19.75 C20.517,19.75 21.75,18.517 21.75,17 C21.75,16.456 21.5856543,15.9530864 21.3110425,15.5263759 L21.203,15.37 L22.135,14.543 C22.668,15.223 23,16.068 23,17 C23,19.209 21.209,21 19,21 C16.791,21 15,19.209 15,17 C15,16.1355833 15.2856944,15.3442708 15.7546395,14.6915341 L15.887,14.517 Z M7,13 C9.209,13 11,14.791 11,17 C11,19.209 9.209,21 7,21 C4.791,21 3,19.209 3,17 C3,14.791 4.791,13 7,13 Z M13,5 C16.7786042,5 19.8688134,8.01148828 19.9959321,11.7597693 L20,12 L20.014,12 L21.301,10.298 C21.496,10.102 21.754,10.003 22.012,10.003 C22.265,10.003 22.517,10.099 22.709,10.291 C23.0680769,10.6491538 23.0948462,11.2126568 22.7916673,11.6024028 L22.709,11.696 L19.025,14.967 L15.341,11.696 C14.953,11.308 14.95,10.679 15.338,10.291 C15.532,10.097 15.785,10 16.038,10 C16.2488333,10 16.4603611,10.0673611 16.6367037,10.2020833 L16.738,10.291 L18,12 C18,9.243 15.757,7 13,7 C10.3155526,7 8.11840859,9.12650069 8.00462846,11.7834415 L8,12.101 C7.677,12.035 7.343,12 7,12 C6.74275,12 6.4905625,12.0196875 6.24428125,12.057375 L6,12.101 L6,12 C6,8.141 9.141,5 13,5 Z"/>
</svg>
