<svg xmlns="http://www.w3.org/2000/svg" width="32" height="32" viewBox="0 0 32 32">
  <path d="M19.203,6 C19.575,6 19.877,6.297 19.877,6.664 L19.877,8.11 C19.887,8.57 20.159,8.982 20.573,9.18 L20.689,9.229 C21.1532347,9.43414192 21.6952312,9.34072145 22.064,8.992 L23.107,7.982 C23.3712544,7.74984789 23.7667456,7.74984789 24.031,7.982 L25.951,9.874 C26.1862026,10.1317397 26.1862026,10.5262603 25.951,10.784 L24.954,11.83 C24.63,12.16 24.523,12.64 24.668,13.07 L24.714,13.185 C24.888,13.657 25.339,13.975 25.849,13.985 L27.317,13.985 C27.5000251,13.9823901 27.6763514,14.0537861 27.806,14.183 C27.9347144,14.3110411 28.0049028,14.486512 28,14.668 L28,17.342 C27.9967001,17.7110911 27.6950954,18.0077734 27.326,18.005 L25.858,18.005 C25.348,18.016 24.898,18.334 24.723,18.805 C24.514,19.263 24.609,19.8 24.963,20.161 L25.997,21.171 C26.2315949,21.4285918 26.2315949,21.8224082 25.997,22.08 L24.077,23.972 C23.8146157,24.2080666 23.4163843,24.2080666 23.154,23.972 L22.083,23.008 C21.7471481,22.6903451 21.2643142,22.5821105 20.825,22.726 L20.708,22.771 C20.2313117,22.9395035 19.907951,23.384572 19.895,23.89 L19.895,25.336 C19.8936789,25.5134314 19.8219249,25.6830703 19.6955243,25.8075955 C19.5691237,25.9321207 19.3984313,26.001331 19.221,26.0000269 L16.923,26.0000269 C16.6798875,26.0018631 16.446007,25.907002 16.2728806,25.736314 C16.0997542,25.565626 16.0015853,25.3331144 15.9999602,25.09 L15.9999602,20.434 C16.0083834,20.1627384 16.137928,19.9095209 16.353,19.744 C16.5698498,19.5768155 16.8491397,19.5132076 17.117,19.57 C17.729,19.697 18.365,19.669 18.963,19.488 C20.1842364,19.1269019 21.1245512,18.1485793 21.437,16.914 C21.7227556,15.8206703 21.4779433,14.6566081 20.776,13.771 C20.0668862,12.877729 18.9864941,12.3600258 17.846,12.367 C17.582,12.367 17.319,12.394 17.061,12.448 C16.7938591,12.4880509 16.5224721,12.4103554 16.317,12.235 C16.1135673,12.0613241 15.997493,11.8064732 15.9999602,11.539 L15.9999602,6.909 C15.9999602,6.407 16.413,6 16.923,6 L19.203,6 L19.203,6 Z M12,17 C13.1045695,17 14,17.8954305 14,19 L14,24 C14,25.1045695 13.1045695,26 12,26 L7,26 C5.8954305,26 5,25.1045695 5,24 L5,19 C5,17.8954305 5.8954305,17 7,17 L12,17 Z M12,6 C13.1045695,6 14,6.8954305 14,8 L14,13 C14,14.1045695 13.1045695,15 12,15 L7,15 C5.8954305,15 5,14.1045695 5,13 L5,8 C5,6.8954305 5.8954305,6 7,6 L12,6 Z"/>
</svg>
