<svg xmlns="http://www.w3.org/2000/svg" width="32" height="32" viewBox="0 0 32 32">
  <path d="M11.0018986,19 C12.1054196,19 13,19.8867064 13,20.9981014 L13,25.0018986 C13,26.1054196 12.1132936,27 11.0018986,27 L6.99810135,27 C5.89458045,27 5,26.1132936 5,25.0018986 L5,20.9981014 C5,19.8945804 5.88670635,19 6.99810135,19 L11.0018986,19 Z M21.0018986,19 C22.1054196,19 23,19.8867064 23,20.9981014 L23,25.0018986 C23,26.1054196 22.1132936,27 21.0018986,27 L16.9981014,27 C15.8945804,27 15,26.1132936 15,25.0018986 L15,20.9981014 C15,19.8945804 15.8867064,19 16.9981014,19 L21.0018986,19 Z M11.0018986,9 C12.1054196,9 13,9.88670635 13,10.9981014 L13,15.0018986 C13,16.1054196 12.1132936,17 11.0018986,17 L6.99810135,17 C5.89458045,17 5,16.1132936 5,15.0018986 L5,10.9981014 C5,9.89458045 5.88670635,9 6.99810135,9 L11.0018986,9 Z M26.9941413,3 C28.1019465,3 29,3.89706013 29,5.00585866 L29,14.9941413 C29,16.1019465 28.1029399,17 26.9941413,17 L17.0058587,17 C15.8980535,17 15,16.1029399 15,14.9941413 L15,5.00585866 C15,3.89805351 15.8970601,3 17.0058587,3 L26.9941413,3 Z M23,6 L21,6 L21,9 L18,9 L18,11 L21,11 L21,14 L23,14 L23,11 L26,11 L26,9 L23,9 L23,6 Z"/>
</svg>
