<svg xmlns="http://www.w3.org/2000/svg" width="32" height="32" viewBox="0 0 32 32">
  <path d="M22,9 C22,10.1045695 22.8954305,11 24,11 C25.1045695,11 26,10.1045695 26,9 C27.5976809,9 28.9036609,10.24892 28.9949073,11.8237272 L29,12 L29,25 C29,26.5976809 27.75108,27.9036609 26.1762728,27.9949073 L26,28 L6,28 C4.40231912,28 3.09633912,26.75108 3.00509269,25.1762728 L3,25 L3,12 C3,10.3431458 4.34314575,9 6,9 C6,10.1045695 6.8954305,11 8,11 C9.0543618,11 9.91816512,10.1841222 9.99451426,9.14926234 L10,9 L22,9 Z M16.93,14.1 L15.07,14.1 L11.15,23.9 L12.93,23.9 L13.73,21.9 L18.27,21.9 L19.07,23.9 L20.85,23.9 L16.93,14.1 Z M16,16.23 L17.55,20.1 L14.45,20.1 L16,16.23 Z M26,8 L26,9 L22,9 L22,8 L26,8 Z M10,8 L10,9 L6,9 L6,8 L10,8 Z M18,3 C19.6568542,3 21,4.34314575 21,6 L21,7 L19,7 L19,6 C19,5.44771525 18.5522847,5 18,5 L14,5 C13.4477153,5 13,5.44771525 13,6 L13,7 L11,7 L11,6 C11,4.34314575 12.3431458,3 14,3 L18,3 Z"/>
</svg>
