<svg xmlns="http://www.w3.org/2000/svg" xmlns:xlink="http://www.w3.org/1999/xlink" width="32" height="32" viewBox="0 0 32 32">
    <path id="backtotop-a" d="M20.673,18.27 C20.481,18.424 20.24,18.5 20,18.5 C19.729,18.5 19.457,18.403 19.26,18.21 L16.582,15.597 L13.72,18.229 C13.336,18.582 12.703,18.592 12.306,18.251 C11.908,17.912 11.897,17.35 12.28,16.997 L16.625,13 L20.739,17.016 C21.111,17.379 21.081,17.94 20.673,18.27 L20.673,18.27 Z M28,11 C28,7.687 25.314,5 22,5 L11,5 C7.687,5 5,7.687 5,11 L5,22 C5,25.314 7.687,28 11,28 L22,28 C25.314,28 28,25.314 28,22 L28,11 Z"/>
</svg>
