<svg xmlns="http://www.w3.org/2000/svg" width="32" height="32" viewBox="0 0 32 32">
  <path d="M20.499,3 L11.499,3 C11.2228576,3 10.999,2.77614237 10.999,2.5 L10.999,1.5 C10.999,1.22385763 11.2228576,1 11.499,1 L20.499,1 C20.7751424,1 20.999,1.22385763 20.999,1.5 L20.999,2.5 C20.999,2.77614237 20.7751424,3 20.499,3 M20.661,5 L11.337,5 C11.1327098,5 10.9489959,5.12437115 10.873,5.314 L7,15 L15,31 L15.5,31 L15.5,17.929 C14.6068212,17.6987079 13.9875727,16.8866602 14.0018274,15.9643806 C14.0160821,15.0421011 14.6601308,14.2495788 15.56,14.047 C16.1532449,13.9136678 16.7749343,14.0571726 17.2497176,14.4370381 C17.7245009,14.8169036 18.0009165,15.3919565 18.001,16 C18.001,16.931 17.361,17.706 16.501,17.929 L16.501,31 L17.001,31 L25.001,15 L21.123,5.314 C21.0474139,5.12538228 20.8651952,5.00126807 20.662,5"/>
</svg>
