<svg xmlns="http://www.w3.org/2000/svg" width="32" height="32" viewBox="0 0 32 32">
  <path d="M26.849,25.5 L6.151,25.5 C5.52353017,25.5 4.93245824,25.2054178 4.55456294,24.7045051 C4.17666764,24.2035924 4.05575953,23.5543669 4.228,22.951 L5.5,18.5 L12.1,18.5 L12.1,21.5 L13.946,21.5 L13.946,18.5 L18.576,18.5 C18.3331875,19.4853864 18.1693349,20.4885656 18.086,21.5 L20.062,21.5 C20.0403551,20.4908409 20.1455109,19.4829574 20.375,18.5 L27.5,18.5 L28.772,22.951 C28.9442405,23.5543669 28.8233324,24.2035924 28.4454371,24.7045051 C28.0675418,25.2054178 27.4764698,25.5 26.849,25.5 Z M23.04,14.39 L23.04,12.523 L16.826,12.523 L16.826,14.523 L20.58,14.523 C19.9030381,15.2332707 19.3816089,16.0768894 19.049,17 L13.949,17 L13.949,12.523 L12.478,12.523 C12.421,12.903 12.015,13.393 10.001,13.393 L10.001,15 L12.1,15 L12.1,17 L5.5,17 L5.5,9.5 C5.5,7.84314575 6.84314575,6.5 8.5,6.5 L10.062,6.5 L10.062,7 C10.062,7.82842712 10.7335729,8.5 11.562,8.5 C12.3904271,8.5 13.062,7.82842712 13.062,7 L13.062,6.5 L19.937,6.5 L19.937,7 C19.937,7.82842712 20.6085729,8.5 21.437,8.5 C22.2654271,8.5 22.937,7.82842712 22.937,7 L22.937,6.5 L24.5,6.5 C26.1568542,6.5 27.5,7.84314575 27.5,9.5 L27.5,17 L20.85,17 C21.2676064,15.9095867 22.0386826,14.9906328 23.04,14.39 Z M10.062,4 C10.062,3.17157288 10.7335729,2.5 11.562,2.5 C12.3904271,2.5 13.062,3.17157288 13.062,4 L13.062,6.5 L10.062,6.5 L10.062,4 Z M19.937,4 C19.937,3.17157288 20.6085729,2.5 21.437,2.5 C22.2654271,2.5 22.937,3.17157288 22.937,4 L22.937,6.5 L19.937,6.5 L19.937,4 Z M24,29.5 L9,29.5 C7.61928813,29.5 6.5,28.3807119 6.5,27 L26.5,27 C26.5,28.3807119 25.3807119,29.5 24,29.5 Z"/>
</svg>
