<svg xmlns="http://www.w3.org/2000/svg" width="26" height="26" viewBox="0 0 26 26">
  <path fill-rule="evenodd" d="M9.49945313,8.50097133 C9.04330535,9.10764218 8.31747272,9.5 7.5,9.5 C6.11928813,9.5 5,8.38071187 5,7 C5,5.61928813 6.11928813,4.5 7.5,4.5 C8.70968176,4.5 9.7186941,5.35916789 9.9501074,6.50057405 L12.1988374,6.5 C14.131834,6.5 15.6988374,8.06700338 15.6988374,10 C15.6988374,11.0596833 15.2190601,12.0582115 14.4012073,12.7202315 L14.233171,12.8480671 L12.9293053,13.7793998 C12.2551865,14.2609133 12.0990489,15.1977384 12.5805624,15.8718573 C12.8308444,16.2222521 13.2178486,16.4460331 13.640988,16.4914363 L13.8011626,16.5 L16.4997831,16.5000451 C16.9558841,15.8927961 17.6820708,15.5 18.5,15.5 C19.8807119,15.5 21,16.6192881 21,18 C21,19.3807119 19.8807119,20.5 18.5,20.5 C17.2906746,20.5 16.2819003,19.6413382 16.0500973,18.5004345 L13.8011626,18.5 C12.6708338,18.5 11.6100858,17.9541201 10.9530955,17.0343337 C9.86830648,15.5156291 10.1705285,13.4254889 11.6084334,12.2718813 L11.766829,12.1519329 L13.0706947,11.2206002 C13.4648888,10.9390329 13.6988374,10.4844267 13.6988374,10 C13.6988374,9.22030388 13.1039493,8.57955132 12.3432974,8.50686658 L12.1988374,8.5 L9.49945313,8.50097133 Z"/>
</svg>
