<svg xmlns="http://www.w3.org/2000/svg" width="32" height="32" viewBox="0 0 32 32">
  <path d="M23,4 C25.7614237,4 28,6.23857625 28,9 L28,23 C28,25.7614237 25.7614237,28 23,28 L9,28 C6.23857625,28 4,25.7614237 4,23 L4,9 C4,6.23857625 6.23857625,4 9,4 L23,4 Z M12,21 L8,21 L8,23 C8,23.5128358 8.38604019,23.9355072 8.88337887,23.9932723 L9,24 L12,24 L12,21 Z M24,21 L14,21 L14,24 L23,24 C23.5128358,24 23.9355072,23.6139598 23.9932723,23.1166211 L24,23 L24,21 Z M12,16 L8,16 L8,19 L12,19 L12,16 Z M24,16 L14,16 L14,19 L24,19 L24,16 Z M12,11 L8.5,11 C8.25454011,11 8.05039163,11.1768752 8.00805567,11.4101244 L8,11.5 L8,14 L12,14 L12,11 Z M23.5,11 L14,11 L14,14 L24,14 L24,11.5 C24,11.2545401 23.8231248,11.0503916 23.5898756,11.0080557 L23.5,11 Z"/>
</svg>
