<svg xmlns="http://www.w3.org/2000/svg" width="24" height="24" viewBox="0 0 24 24">
  <path d="M3.09,20.592 L3,20.591 C6.66,17.967 4.3,16.547 6.61,14.23 C7.22,13.621 7.99,13.353 8.73,13.353 C9.18,13.353 9.62,13.462 10.02,13.646 L10,13.591 C11.18,11.374 13.53,7.8 14.87,6.459 C16.75,4.585 18.04,4 18.98,4 C19.71,4 20.22,4.359 20.62,4.741 C21.49,5.641 22.24,7.146 18.9,10.488 C17.49,11.894 13.74,14.209 11.45,15.361 C11.62,16.066 11.47,16.853 11,17.568 L11,17.591 L10.97,17.614 C10.85,17.798 10.7,17.978 10.53,18.148 C8.18,20.501 3.75,20.592 3.09,20.592 M8.73,14.353 C8.36,14.353 7.81,14.455 7.32,14.938 C7.09,15.17 6.92,15.384 6.8,15.591 L8,15.591 L8,17.591 C8.28,17.653 8.53,17.68 8.75,17.68 C10.53,17.68 10.52,15.91 10.52,15.91 C10.52,15.529 10.39,15.17 10.11,14.888 C9.77,14.553 9.26,14.353 8.73,14.353"/>
</svg>
