<svg xmlns="http://www.w3.org/2000/svg" width="26" height="26" viewBox="0 0 26 26">
  <path d="M16,7 C17.5978214,7 18.9036709,8.24878444 18.9949078,9.82371269 L19,10 L19,16 L22,16 L22,19 L19,19 L19,22 L16,22 L16,11 C16,10.4874286 15.6145765,10.0645306 15.1167533,10.0067318 L15,10 L11,10 L11,7 L16,7 Z M10,4 L10,15 C10,15.5125714 10.3854235,15.9354694 10.8832467,15.9932682 L11,16 L15,16 L15,19 L10,19 C8.40217857,19 7.09632908,17.7512156 7.00509216,16.1762873 L7,16 L7,10 L4,10 L4,7 L7,7 L7,4 L10,4 Z"/>
</svg>
