<svg xmlns="http://www.w3.org/2000/svg" width="26" height="26" viewBox="0 0 26 26">
  <path d="M20,17.3481 L20,18.4301 C20,19.0861 19.622,19.6771 19.036,19.9371 C17.57,20.5881 15.411,21.0001 13,21.0001 C10.59,21.0001 8.43,20.5881 6.964,19.9371 C6.42307692,19.6971 6.05938462,19.1750645 6.00663268,18.5802097 L6,18.4301 L6,17.3481 C7.364,18.2981 9.986,18.9421 13,18.9421 C15.8884167,18.9421 18.4168194,18.3506486 19.8230106,17.4652318 L20,17.3481 Z M20,13.6963 L20,14.7783 C20,15.4343 19.622,16.0253 19.036,16.2853 C17.57,16.9363 15.411,17.3483 13,17.3483 C10.59,17.3483 8.43,16.9363 6.964,16.2853 C6.42307692,16.0453 6.05938462,15.5232645 6.00663268,14.9284097 L6,14.7783 L6,13.6963 C7.364,14.6463 9.986,15.2903 13,15.2903 C15.8884167,15.2903 18.4168194,14.6988486 19.8230106,13.8134318 L20,13.6963 Z M20,10.145 L20,11.227 C20,11.883 19.622,12.474 19.036,12.734 C17.57,13.385 15.411,13.797 13,13.797 C10.59,13.797 8.43,13.385 6.964,12.734 C6.42307692,12.494 6.05938462,11.9719645 6.00663268,11.3771097 L6,11.227 L6,10.145 C7.364,11.095 9.986,11.739 13,11.739 C15.8884167,11.739 18.4168194,11.1475486 19.8230106,10.2621318 L20,10.145 Z M13,5 C15.411,5 17.57,5.412 19.036,6.063 C19.5769231,6.303 19.9406154,6.8250355 19.9933673,7.4198903 L20,7.57 C20,8.231 19.622,8.822 19.036,9.082 C17.57,9.733 15.411,10.145 13,10.145 C10.589,10.145 8.43,9.733 6.964,9.082 C6.42307692,8.842 6.05938462,8.3199645 6.00663268,7.7251097 L6,7.575 C6,6.914 6.378,6.323 6.964,6.063 C8.43,5.412 10.589,5 13,5 Z"/>
</svg>
