<svg xmlns="http://www.w3.org/2000/svg" width="26" height="26" viewBox="0 0 26 26">
  <path d="M13,5 C17.418,5 21,8.582 21,13 C21,17.419 17.418,21 13,21 C8.582,21 5,17.419 5,13 C5,8.582 8.582,5 13,5 Z M13.989,16 L11.989,16 L11.989,18 L13.989,18 L13.989,16 Z M12.958,7.749 C12.445,7.749 11.98,7.821 11.565,7.994 C11.15,8.167 10.795,8.379 10.501,8.687 C10.207,8.995 9.978,9.304 9.815,9.724 C9.652,10.144 9.565,11 9.556,11 L9.556,11 L11.614,11 C11.614,11 11.642,10.622 11.698,10.403 C11.754,10.184 11.84,10.103 11.957,9.939 C12.074,9.776 12.223,9.645 12.405,9.547 C12.587,9.449 12.804,9.4 13.056,9.4 C13.429,9.4 13.721,9.503 13.931,9.708 C14.141,9.914 14.246,10.231 14.246,10.66 C14.246,10.847 14.218,11.01 14.162,11.15 C14.106,11.29 14.032,11.419 13.938,11.535 C13.845,11.652 13.737,11.759 13.616,11.857 C13.494,11.955 13.363,12.06 13.223,12.172 C13.083,12.284 12.945,12.403 12.809,12.529 C12.673,12.655 12.547,12.805 12.436,12.977 C12.324,13.15 12.223,13.348 12.144,13.572 C12.065,13.796 11.989,14.062 11.989,14.37 L11.989,14.37 L11.989,15 L13.989,15 L13.989,14.468 C13.989,14.263 14.031,14.083 14.124,13.929 C14.217,13.775 14.281,13.635 14.407,13.509 C14.533,13.383 14.67,13.267 14.82,13.159 C14.969,13.052 15.118,12.942 15.268,12.83 C15.417,12.718 15.562,12.595 15.702,12.459 C15.842,12.324 15.968,12.165 16.08,11.983 C16.192,11.801 16.281,11.587 16.346,11.339 C16.411,11.092 16.444,10.799 16.444,10.463 C16.444,10.193 16.386,9.9 16.269,9.587 C16.152,9.275 15.958,8.982 15.689,8.711 C15.417,8.44 15.061,8.211 14.617,8.028 C14.173,7.846 13.62,7.749 12.958,7.749 Z"/>
</svg>
