<svg xmlns="http://www.w3.org/2000/svg" width="32" height="32" viewBox="0 0 32 32">
  <path d="M20.9766,19.4843 L19.2626,17.8563 C19.4466,17.4383 19.5516,16.9793 19.5516,16.4943 C19.5516,14.6193 18.0316,13.0983 16.1566,13.0983 C15.6106,13.0983 15.1016,13.2403 14.6446,13.4683 L12.6266,11.5523 C13.5776,10.8973 14.7266,10.5093 15.9676,10.5093 C19.2246,10.5093 21.8656,13.1503 21.8656,16.4073 C21.8656,17.5393 21.5296,18.5863 20.9766,19.4843 L20.9766,19.4843 Z M15.9676,22.3033 C12.7106,22.3033 10.0716,19.6643 10.0716,16.4073 C10.0716,15.2103 10.4326,14.1003 11.0446,13.1703 L13.0706,15.0943 C12.8756,15.5223 12.7616,15.9933 12.7616,16.4943 C12.7616,18.3693 14.2816,19.8883 16.1566,19.8883 C16.7176,19.8883 17.2406,19.7403 17.7056,19.4983 L19.4436,21.1483 C18.4666,21.8663 17.2726,22.3033 15.9676,22.3033 L15.9676,22.3033 Z M24.6536,22.9763 C27.7346,20.0633 28.9996,16.4073 28.9996,16.4073 C28.9996,16.4073 25.5496,6.1313 15.9996,6.1313 C13.2166,6.1313 10.9656,7.0153 9.1536,8.2533 L6.0566,5.3113 C5.6036,4.8793 4.8866,4.9003 4.4576,5.3523 C4.0266,5.8053 4.0456,6.5213 4.4986,6.9513 L7.3786,9.6883 C4.2736,12.6583 2.9996,16.4073 2.9996,16.4073 C2.9996,16.4073 6.4496,26.5033 15.9996,26.5033 C18.7946,26.5033 21.0536,25.6273 22.8706,24.4033 L25.9436,27.3223 C26.1626,27.5313 26.4426,27.6343 26.7226,27.6343 C27.0216,27.6343 27.3206,27.5153 27.5416,27.2823 C27.9726,26.8293 27.9546,26.1123 27.5006,25.6823 L24.6536,22.9763 Z"/>
</svg>
