<svg xmlns="http://www.w3.org/2000/svg" width="26" height="26" viewBox="0 0 26 26">
  <path d="M12.934,16.5856385 C10.941,16.5856385 9.327,14.9706385 9.327,12.9786385 C9.327,12.2466385 9.547,11.5666385 9.922,10.9986385 L11.162,12.1756385 C11.042,12.4376385 10.972,12.7256385 10.972,13.0316385 C10.972,14.1786385 11.902,15.1086385 13.049,15.1086385 C13.393,15.1086385 13.711,15.0176385 13.997,14.8696385 L15.06,15.8786385 C14.462,16.3176385 13.732,16.5856385 12.934,16.5856385 L12.934,16.5856385 Z M12.934,9.37063847 C14.926,9.37063847 16.541,10.9856385 16.541,12.9786385 C16.541,13.6706385 16.336,14.3116385 15.997,14.8606385 L14.95,13.8646385 C15.062,13.6096385 15.126,13.3286385 15.126,13.0316385 C15.126,11.8846385 14.196,10.9546385 13.049,10.9546385 C12.715,10.9546385 12.404,11.0406385 12.123,11.1806385 L10.89,10.0086385 C11.471,9.60763847 12.174,9.37063847 12.934,9.37063847 L12.934,9.37063847 Z M18.246,16.9976385 C20.132,15.2156385 20.907,12.9786385 20.907,12.9786385 C20.907,12.9786385 18.795,6.69163847 12.954,6.69163847 C11.25,6.69163847 9.873,7.23263847 8.765,7.98963847 L6.871,6.19063847 C6.593,5.92563847 6.155,5.93963847 5.892,6.21563847 C5.628,6.49263847 5.64,6.93063847 5.917,7.19363847 L7.679,8.86763847 C5.78,10.6846385 5,12.9786385 5,12.9786385 C5,12.9786385 7.111,19.1546385 12.954,19.1546385 C14.663,19.1546385 16.045,18.6186385 17.157,17.8706385 L19.036,19.6556385 C19.17,19.7836385 19.341,19.8466385 19.513,19.8466385 C19.696,19.8466385 19.878,19.7746385 20.014,19.6306385 C20.278,19.3546385 20.267,18.9156385 19.99,18.6526385 L18.246,16.9976385 Z"/>
</svg>
