<svg xmlns="http://www.w3.org/2000/svg" width="26" height="26" viewBox="0 0 26 26">
  <path d="M12,15 L10,13 L12,11 L14,13 L12,15 Z M21.293,18.293 L12.707,9.707 C12.316,9.316 11.684,9.316 11.293,9.707 L8.707,12.293 C8.316,12.684 8.316,13.316 8.707,13.707 L17.293,22.293 C17.684,22.684 18.316,22.684 18.707,22.293 L21.293,19.707 C21.684,19.316 21.684,18.684 21.293,18.293 L21.293,18.293 Z M6.586,7.171 C6.195,6.781 5.562,6.781 5.172,7.171 C4.781,7.562 4.781,8.195 5.172,8.586 L5.879,9.293 C6.27,9.684 6.902,9.684 7.293,9.293 C7.684,8.902 7.684,8.269 7.293,7.879 L6.586,7.171 Z M16.586,8.829 L17.293,8.121 C17.684,7.731 17.684,7.098 17.293,6.707 C16.902,6.316 16.27,6.316 15.879,6.707 L15.172,7.414 C14.781,7.805 14.781,8.438 15.172,8.829 C15.562,9.219 16.195,9.219 16.586,8.829 L16.586,8.829 Z M5,12 L4,12 C3.447,12 3,12.448 3,13 C3,13.552 3.447,14 4,14 L5,14 C5.552,14 6,13.552 6,13 C6,12.448 5.552,12 5,12 L5,12 Z M11,7 C11.552,7 12,6.552 12,6 L12,5 C12,4.448 11.552,4 11,4 C10.447,4 10,4.448 10,5 L10,6 C10,6.552 10.447,7 11,7 L11,7 Z"/>
</svg>
