<svg xmlns="http://www.w3.org/2000/svg" width="26" height="26" viewBox="0 0 26 26">
  <path d="M12.5857788,6 C12.9484788,6 13.2795888,6.19602 13.4559078,6.505683 L13.5087788,6.613 L18.4627788,18.418 C18.5883621,18.7195833 18.3946399,19.0497361 18.0872701,19.1026672 L18.0007788,19.11 L15.1107788,19.11 C14.9273502,19.11 14.7600849,19.0086122 14.6732161,18.8511778 L14.6367788,18.768 L13.7507788,16.11 L8.75077878,16.11 L7.86477878,18.768 C7.80649306,18.9428571 7.65710531,19.0692245 7.48084875,19.1017609 L7.39077878,19.11 L4.50077878,19.11 C4.17444545,19.11 3.9430635,18.8049792 4.01229093,18.5007286 L4.03877878,18.418 L8.99277878,6.613 C9.13317878,6.2791 9.44205878,6.04969 9.79621778,6.007147 L9.91577878,6 L12.5857788,6 Z M11.2507788,9.481 L9.75077878,13.11 L12.7507788,13.11 L11.2507788,9.481 Z M21,6 L21,8 L23,8 L23,10 L21,10 L21,12 L19,12 L19,10 L17,10 L17,8 L19,8 L19,6 L21,6 Z"/>
</svg>
