<svg xmlns="http://www.w3.org/2000/svg" width="26" height="26" viewBox="0 0 26 26">
  <path d="M18,10.4946365 L14,10.4946365 L14.7299983,4.60889463 C14.7459998,4.3638303 14.6040714,4.13591355 14.3774477,4.04274856 C14.150824,3.94958358 13.8901769,4.01200158 13.7299993,4.19779511 L7.20000557,12.9010727 C6.97274255,13.204903 6.93618662,13.6114021 7.10557847,13.9510947 C7.27497032,14.2907872 7.62123311,14.5053635 8,14.5053635 L12,14.5053635 L11.2700017,20.3911054 C11.2540002,20.6361697 11.3959286,20.8640865 11.6225523,20.9572514 C11.849176,21.0504164 12.1098231,20.9879984 12.2700007,20.8022049 L18.7999944,12.0989273 C19.0272574,11.795097 19.0638134,11.3885979 18.8944215,11.0489053 C18.7250297,10.7092128 18.3787669,10.4946365 18,10.4946365 Z"/>
</svg>
