<svg xmlns="http://www.w3.org/2000/svg" width="26" height="26" viewBox="0 0 26 26">
  <path d="M10.9774032,17.035 L10.1694032,17.842 C9.81640316,18.196 9.35740316,18.391 8.87840316,18.391 C8.42340316,18.391 7.99340316,18.212 7.66740316,17.887 C7.33440316,17.554 7.15540316,17.115 7.16240316,16.652 C7.16940316,16.181 7.36540316,15.73 7.71240316,15.384 L10.9984032,12.097 C11.3284032,11.768 11.7484032,11.586 12.1794032,11.586 C12.6284032,11.586 13.0704032,11.78 13.4214032,12.133 C13.8304032,12.541 14.5404032,12.541 14.9504032,12.133 C15.3714032,11.711 15.3714032,11.026 14.9504032,10.605 C14.1834032,9.839 13.2004032,9.417 12.1784032,9.417 C11.1754032,9.417 10.2124032,9.826 9.47040316,10.57 L6.18440316,13.856 C5.43740316,14.601 5.01740316,15.583 5.00040316,16.618 C4.98540316,17.671 5.38940316,18.664 6.13940316,19.414 C6.87740316,20.154 7.85040316,20.56 8.87840316,20.56 C9.92940316,20.56 10.9304032,20.138 11.6994032,19.37 L12.5064032,18.563 C12.9274032,18.141 12.9274032,17.456 12.5064032,17.035 C12.0974032,16.627 11.3864032,16.627 10.9774032,17.035 M19.4094032,6.146 C18.6694032,5.407 17.6964032,5 16.6694032,5 C15.6194032,5 14.6174032,5.423 13.8484032,6.191 L12.9704032,7.069 C12.7674032,7.273 12.6544032,7.545 12.6544032,7.833 C12.6544032,8.122 12.7674032,8.393 12.9704032,8.597 C13.3794032,9.005 14.0894032,9.005 14.4994032,8.597 L15.3774032,7.719 C15.7314032,7.365 16.1914032,7.169 16.6694032,7.169 C17.1244032,7.169 17.5554032,7.348 17.8804032,7.674 C18.5704032,8.363 18.5504032,9.462 17.8354032,10.177 L14.5494032,13.463 C14.2104032,13.803 13.7724032,13.99 13.3194032,13.99 C12.8674032,13.99 12.4304032,13.804 12.0904032,13.464 C11.6814032,13.055 10.9694032,13.057 10.5624032,13.464 C10.3584032,13.668 10.2464032,13.939 10.2464032,14.228 C10.2464032,14.517 10.3584032,14.788 10.5624032,14.992 C11.3104032,15.739 12.2894032,16.15 13.3194032,16.15 C14.3504032,16.15 15.3304032,15.739 16.0784032,14.991 L19.3644032,11.705 C20.9354032,10.134 20.9554032,7.692 19.4094032,6.146"/>
</svg>
