<svg xmlns="http://www.w3.org/2000/svg" width="24" height="24" viewBox="0 0 24 24">
  <path d="M15,18.625 L8,18.625 C6.9,18.625 6,17.729 6,16.625 L6,11.625 C6,10.52 6.9,9.625 8,9.625 L8,8.604 C8,6.583 9.54,5 11.5,5 C13.46,5 15,6.583 15,8.604 L15,9.625 C16.1,9.625 17,10.52 17,11.625 L17,16.625 C17,17.729 16.1,18.625 15,18.625 M11.5,12.126 C10.67,12.126 10,12.796 10,13.625 C10,14.278 10.42,14.827 11,15.033 L11,16.125 C11,16.402 11.22,16.625 11.5,16.625 C11.78,16.625 12,16.402 12,16.125 L12,15.033 C12.58,14.827 13,14.278 13,13.625 C13,12.796 12.33,12.126 11.5,12.126 M11.5,7 C10.64,7 10,7.689 10,8.604 L10,9.625 L13,9.625 L13,8.604 C13,7.689 12.36,7 11.5,7"/>
</svg>
