<svg xmlns="http://www.w3.org/2000/svg" width="24" height="24" viewBox="0 0 24 24">
  <path d="M12,10 C13.1,10 14,10.895 14,12 L14,17 C14,18.104 13.1,19 12,19 L7,19 C5.899,19 5,18.104 5,17 L5,12 C5,10.895 5.899,10 7,10 L12,10 Z M20,17 L20,19 L15,19 L15,17 L20,17 Z M19,12 C19.55,12 20,12.447 20,13 L20,15 C20,15.553 19.55,16 19,16 L16,16 C15.45,16 15,15.553 15,15 L15,13 C15,12.447 15.45,12 16,12 L19,12 Z M20,9 L20,11 L15,11 L15,9 L20,9 Z M11,4 C11.55,4 12,4.448 12,5 L12,8 C12,8.553 11.55,9 11,9 L9,9 C8.45,9 8,8.553 8,8 L8,5 C8,4.448 8.45,4 9,4 L11,4 Z M7,4 L7,9 L5,9 L5,4 L7,4 Z M15,4 L15,9 L13,9 L13,4 L15,4 Z"/>
</svg>
