<svg xmlns="http://www.w3.org/2000/svg" width="32" height="32" viewBox="0 0 32 32">
  <path d="M25.5,25.0030013 C25.88,25.0030013 26.12,24.593 25.939,24.253 L22.219,17.573 C22.0453456,17.2546249 21.7116548,17.0565324 21.349,17.0565324 C20.9863452,17.0565324 20.6526544,17.2546249 20.479,17.573 L17.692,22.58 C17.6399064,22.6738509 17.54164,22.7327182 17.4343134,22.7343694 C17.3269867,22.7360206 17.226956,22.680204 17.172,22.588 L16.478,21.434 C16.2974215,21.1317733 15.9713482,20.9466308 15.6192835,20.9464259 C15.2672188,20.946221 14.9409303,21.1309837 14.76,21.433 L13.07,24.243 C12.9764498,24.3979018 12.9737025,24.5912133 13.0628131,24.748711 C13.1519236,24.9062087 13.3190413,25.0034124 13.5,25.0030013 L25.5,25.0030013 L25.5,25.0030013 Z M15.5,14.003 C14.67,14.003 14,14.673 14,15.503 C14,16.323 14.67,17.003 15.5,17.003 C16.33,17.003 17,16.323 17,15.503 C17,14.673 16.33,14.003 15.5,14.003 Z M26,11.003 C27.66,11.003 29,12.343 29,14.003 L29,25.003 C28.9983443,26.6586826 27.6556834,28 26,28 L13,28 C11.3443166,28 10.0016557,26.6586826 10,25.003 L10,14.003 C10,12.343 11.34,11.003 13,11.003 L26,11.003 Z M24,7.99999992 L24,8.99999992 L13,8.99999992 C10.2385763,8.99999992 8,11.2385763 8,13.9999999 L8,21.003 L6,21.003 C4.8954305,21.003 4,20.1075695 4,19.003 L4,5.99999992 C4,4.8954305 4.8954305,3.99999992 6,3.99999992 L10.172,3.99999992 C10.7022461,3.99999992 11.2108509,4.21026795 11.586,4.585 L13,5.99999992 L22,5.99999992 C23.1045695,5.99999992 24,6.8954305 24,7.99999992 Z"/>
</svg>
