<svg xmlns="http://www.w3.org/2000/svg" width="32" height="32" viewBox="0 0 32 32">
  <path d="M25.2296,23.8148 C25.6186,24.2048 25.6116,24.8338 25.2226,25.2218 C24.8336,25.6118 24.2046,25.6188 23.8156,25.2298 L23.1156,24.5298 C22.7336,24.1478 22.7336,23.5108 23.1226,23.1228 C23.5106,22.7338 24.1476,22.7338 24.5296,23.1158 L25.2296,23.8148 Z M12.2186,4.0028 C11.2636,3.9808 10.2946,4.1158 9.3476,4.4548 C9.3266,4.4608 9.3196,4.4688 9.3056,4.4688 L9.1286,4.5328 L8.8746,4.6308 L14.2906,10.0478 C13.9516,10.9958 13.4066,11.8788 12.6426,12.6428 C11.8786,13.4068 10.9956,13.9518 10.0476,14.2908 L4.6306,8.8748 L4.5326,9.1278 L4.4686,9.3048 C4.4686,9.3198 4.4616,9.3268 4.4546,9.3478 C4.1156,10.2948 3.9806,11.2638 4.0016,12.2188 C4.0446,14.2118 4.8226,16.1358 6.2926,17.6068 C8.3296,19.6428 11.2216,20.3858 13.9726,19.6288 L21.6936,27.3508 C23.2426,28.8998 25.7666,28.8918 27.3296,27.3298 C28.8926,25.7668 28.8996,23.2428 27.3506,21.6938 L19.6286,13.9718 C20.3856,11.2218 19.6436,8.3298 17.6066,6.2938 C16.1356,4.8228 14.2126,4.0438 12.2186,4.0028 L12.2186,4.0028 Z"/>
</svg>
