<svg xmlns="http://www.w3.org/2000/svg" width="24" height="24" viewBox="0 0 24 24">
  <path d="M17,19 L13,19 C11.9,19 11,18.099 11,17 L11,16 L10,16 C8.9,16 8,15.099 8,14 L8,13 L7,13 C5.9,13 5,12.1 5,11 L5,7 C5,5.9 5.9,5 7,5 L11,5 C12.1,5 13,5.895 13,7 L13,8 L14,8 C15.1,8 16,8.895 16,10 L16,11 L17,11 C18.1,11 19,11.895 19,13 L19,17 C19,18.104 18.1,19 17,19 L17,19 Z M13,17 L17,17 L17,13 L13,13 L13,17 Z M10,10 L10,14 L11,14 L11,12.992 C11,11.888 11.97,11 13.08,11 L14,11 L14,10 L10,10 L10,10 Z"/>
</svg>
