<svg xmlns="http://www.w3.org/2000/svg" xmlns:xlink="http://www.w3.org/1999/xlink" width="24" height="24" viewBox="0 0 24 24">
    <path d="M17,19 L13,19 C11.89,19 11,18.104 11,17 L11,16 L10,16 C8.89,16 8,15.105 8,14 L8,13 L7,13 C5.89,13 5,12.105 5,11 L5,7 C5,5.895 5.89,5 7,5 L11,5 C12.1,5 13,5.895 13,7 L13,8 L14,8 C15.1,8 16,8.895 16,10 L16,11 L17,11 C18.1,11 19,11.895 19,13 L19,17 C19,18.104 18.1,19 17,19 M10,10 L10,14 L11,14 L11,13 C11,11.895 11.89,11 13,11 L14,11 L14,10 L10,10 M7,7 L7,11 L8,11 L8,10 C8,8.895 8.89,8 10,8 L11,8 L11,7 L7,7"/>
</svg>
