<svg xmlns="http://www.w3.org/2000/svg" width="26" height="26" viewBox="0 0 26 26">
  <path d="M20,15 L15,20 L13,20 L20,13 L20,15 Z M20,20 L18,20 L20,18 L20,20 Z M11,19 L11,17 L17,11 L19,11 L11,19 Z M11,12 L12,11 L14,11 L11,14 L11,12 Z M19,9 C20.5978214,9 21.9036709,10.2487844 21.9949078,11.8237127 L22,12 L22,19 C22,20.5978214 20.7512156,21.9036709 19.1762873,21.9949078 L19,22 L12,22 C10.4021786,22 9.09632908,20.7512156 9.00509216,19.1762873 L9,19 L9,12 C9,10.4021786 10.2487844,9.09632908 11.8237127,9.00509216 L12,9 L19,9 Z M16,5 C17.0538182,5 17.9181157,5.81639669 17.9945109,6.85080841 L18,7 L11,7 C8.85793939,7 7.10892929,8.68409917 7.00489568,10.8003715 L7,11 L7,18 C5.94618182,18 5.0818843,17.1836033 5.00548911,16.1491916 L5,16 L5,8 C5,6.40217857 6.24878444,5.09632908 7.82371269,5.00509216 L8,5 L16,5 Z"/>
</svg>
