<svg xmlns="http://www.w3.org/2000/svg" xmlns:xlink="http://www.w3.org/1999/xlink" width="32" height="32" viewBox="0 0 32 32">
  <defs>
    <path id="pages-a" d="M22,3 C24.762,3 27,5.238 27,8 L27,8 L27,24 C27,26.762 24.762,29 22,29 L22,29 L10,29 C7.238,29 5,26.762 5,24 L5,24 L5,8 C5,5.238 7.238,3 10,3 L10,3 Z M21,8 L11,8 C10.448,8 10,8.448 10,9 L10,9 L10,23 C10,23.552 10.448,24 11,24 L11,24 L21,24 C21.552,24 22,23.552 22,23 L22,23 L22,9 C22,8.448 21.552,8 21,8 L21,8 Z M19,19 L19,21 L13,21 L13,19 L19,19 Z M19,15 L19,17 L13,17 L13,15 L19,15 Z M19,11 L19,13 L13,13 L13,11 L19,11 Z"/>
  </defs>
  <use xlink:href="#pages-a"/>
</svg>
