<svg xmlns="http://www.w3.org/2000/svg" width="24" height="24" viewBox="0 0 24 24">
  <path d="M18.2,20.471 C17.9,20.471 17.61,20.465 17.36,20.465 L10,20.465 C10,20.465 11.05,19.11 14.63,19.11 C16.54,19.11 18.81,18 20.12,18 C20.78,18 21.19,18.282 21.19,19.132 C21.19,20.356 19.53,20.471 18.2,20.471 M3.08,20.592 L3,20.591 C6.66,17.967 4.3,16.547 6.62,14.23 C7.22,13.621 7.99,13.351 8.73,13.351 C9.19,13.351 9.62,13.462 10.02,13.646 L10,13.591 C11.18,11.374 13.53,7.8 14.87,6.459 C16.75,4.585 18.04,4 18.98,4 C19.71,4 20.22,4.359 20.62,4.741 C21.49,5.641 22.24,7.146 18.9,10.488 C17.5,11.894 13.74,14.209 11.45,15.361 C11.62,16.075 11.46,16.871 10.98,17.591 L11,17.591 L10.93,17.655 C10.81,17.823 10.69,17.992 10.53,18.148 C8.18,20.501 3.75,20.592 3.08,20.592 M8.73,14.351 C8.36,14.351 7.81,14.453 7.32,14.938 C6.71,15.548 6.53,16.031 6.43,16.591 C6.21,17.779 7,18.591 7,18.591 C7.04,18.593 7.08,18.593 7.12,18.593 C8.47,18.593 9.69,17.574 9.83,17.441 C10.65,16.62 10.76,15.547 10.11,14.888 C9.77,14.553 9.26,14.351 8.73,14.351"/>
</svg>
