<svg xmlns="http://www.w3.org/2000/svg" width="26" height="26" viewBox="0 0 26 26">
  <path d="M14.944,14.2113917 L17.772,11.3823917 L19.186,12.7963917 L20.774,12.0033917 C21.384,11.6983917 21.516,10.8843917 21.034,10.4013917 L18.479,7.84739169 L15.925,5.29339169 C15.442,4.81039169 14.629,4.94239169 14.324,5.55239169 L13.53,7.14039169 L14.944,8.55439169 L12.116,11.3823917 C12.116,11.3823917 9.722,8.98939169 6.587,11.3583917 C6.112,11.7163917 6.087,12.4253917 6.507,12.8453917 L9.279,15.6173917 C6.56,18.6243917 5,21.2373917 5,21.2373917 C5,21.2373917 7.612,19.6763917 10.62,16.9573917 L13.481,19.8193917 C13.901,20.2393917 14.61,20.2143917 14.968,19.7403917 C17.338,16.6053917 14.944,14.2113917 14.944,14.2113917"/>
</svg>
