<svg xmlns="http://www.w3.org/2000/svg" width="26" height="26" viewBox="0 0 26 26">
  <path d="M10.634,16.6747995 C10.61,17.0777995 10.385,17.4947995 10.003,17.8477995 C9.201,18.5887995 8.01,19.0287995 7.018,19.2067995 C7.335,18.5787995 7.439,18.0087995 7.363,17.3787995 C7.287,16.7637995 7.241,16.3567995 7.815,15.8267995 C8.242,15.4307995 8.73,15.3477995 9.064,15.3477995 C9.164,15.3477995 9.264,15.3587995 9.363,15.3737995 C9.066,16.0667995 8.853,16.6357995 8.752,16.9817995 C9.144,16.8847995 9.794,16.6767995 10.589,16.3827995 C10.609,16.4787995 10.641,16.5707995 10.634,16.6747995 M20.872,5.78579945 C19.839,4.86479945 18.112,4.06479945 14.277,7.60779945 C12.498,9.24979945 10.849,12.1667995 9.808,14.3847995 C9.566,14.3277995 9.319,14.2877995 9.064,14.2877995 C8.34,14.2877995 7.595,14.5297995 7.003,15.0767995 C4.75,17.1577995 8.238,18.2967995 4,20.2777995 C4,20.2777995 4.525,20.3507995 5.313,20.3507995 C6.791,20.3507995 9.197,20.0917995 10.815,18.5967995 C11.681,17.7967995 11.943,16.8007995 11.674,15.9617995 C14.061,14.9987995 17.15,13.4957995 18.901,11.8787995 C22.736,8.33579945 21.869,6.74079945 20.872,5.78579945"/>
</svg>
