<svg xmlns="http://www.w3.org/2000/svg" width="26" height="26" viewBox="0 0 26 26">
  <path d="M18.5,16 C19.881,16 21,17.119 21,18.5 C21,19.881 19.881,21 18.5,21 C17.119,21 16,19.881 16,18.5 C16,17.119 17.119,16 18.5,16 Z M7.5,16 C8.881,16 10,17.119 10,18.5 C10,19.881 8.881,21 7.5,21 C6.119,21 5,19.881 5,18.5 C5,17.119 6.119,16 7.5,16 Z M14,17 C14.5135,17 14.935602,17.3862857 14.9932824,17.8834315 L15,18 C15,18.552 14.553,19 14,19 L12,19 C11.447,19 11,18.552 11,18 C11,17.448 11.447,17 12,17 L14,17 Z M8,11 C8.553,11 9,11.448 9,12 L9,14 C9,14.5125714 8.61457653,14.9354694 8.11675328,14.9932682 L8,15 C7.447,15 7,14.552 7,14 L7,12 C7,11.448 7.447,11 8,11 Z M18,11 C18.553,11 19,11.448 19,12 L19,14 C19,14.5125714 18.6145765,14.9354694 18.1167533,14.9932682 L18,15 C17.447,15 17,14.552 17,14 L17,12 C17,11.448 17.447,11 18,11 Z M18.5,5 C19.881,5 21,6.119 21,7.5 C21,8.881 19.881,10 18.5,10 C17.119,10 16,8.881 16,7.5 C16,6.119 17.119,5 18.5,5 Z M7.5,5 C8.881,5 10,6.119 10,7.5 C10,8.881 8.881,10 7.5,10 C6.119,10 5,8.881 5,7.5 C5,6.119 6.119,5 7.5,5 Z M14,7 C14.5135,7 14.935602,7.38628571 14.9932824,7.88343149 L15,8 C15,8.552 14.553,9 14,9 L12,9 C11.447,9 11,8.552 11,8 C11,7.448 11.447,7 12,7 L14,7 Z"/>
</svg>
