<svg xmlns="http://www.w3.org/2000/svg" width="26" height="26" viewBox="0 0 26 26">
  <path d="M12.874,15.627 C11.375,15.627 10.161,14.414 10.161,12.917 C10.161,11.419 11.375,10.206 12.874,10.206 C14.373,10.206 15.587,11.419 15.587,12.917 C15.587,14.414 14.373,15.627 12.874,15.627 M20.911,11.055 L19.205,10.713 C19.119,10.466 19.019,10.227 18.907,9.996 L19.873,8.547 C20.167,8.106 20.108,7.518 19.733,7.143 L18.663,6.072 C18.447,5.857 18.163,5.746 17.875,5.746 C17.662,5.746 17.447,5.808 17.259,5.933 L15.811,6.898 C15.578,6.786 15.339,6.687 15.093,6.6 L14.751,4.895 C14.647,4.374 14.19,4 13.66,4 L12.146,4 C11.615,4 11.158,4.374 11.055,4.895 L10.713,6.6 C10.467,6.687 10.228,6.787 9.996,6.898 L8.547,5.933 C8.358,5.808 8.145,5.746 7.931,5.746 C7.643,5.746 7.358,5.857 7.143,6.072 L6.072,7.143 C5.697,7.518 5.639,8.106 5.934,8.547 L6.898,9.996 C6.787,10.228 6.687,10.466 6.601,10.713 L4.895,11.055 C4.375,11.158 4,11.615 4,12.146 L4,13.66 C4,14.19 4.375,14.647 4.895,14.751 L6.601,15.092 C6.687,15.339 6.787,15.578 6.898,15.81 L5.934,17.258 C5.639,17.7 5.697,18.288 6.072,18.663 L7.143,19.733 C7.358,19.948 7.643,20.059 7.931,20.059 C8.145,20.059 8.359,19.998 8.547,19.872 L9.996,18.907 C10.228,19.019 10.467,19.119 10.714,19.205 L11.055,20.911 C11.158,21.431 11.615,21.806 12.146,21.806 L13.66,21.806 C14.19,21.806 14.647,21.431 14.751,20.911 L15.093,19.205 C15.34,19.119 15.578,19.019 15.811,18.907 L17.259,19.872 C17.447,19.998 17.662,20.059 17.875,20.059 C18.163,20.059 18.447,19.948 18.663,19.733 L19.733,18.663 C20.108,18.288 20.167,17.7 19.873,17.258 L18.907,15.81 C19.02,15.578 19.119,15.338 19.205,15.092 L20.911,14.751 C21.432,14.647 21.806,14.19 21.806,13.66 L21.806,12.146 C21.806,11.615 21.432,11.158 20.911,11.055"/>
</svg>
