<svg xmlns="http://www.w3.org/2000/svg" width="32" height="32" viewBox="0 0 32 32">
  <path d="M25.226,9.8201 C24.961,9.3341 24.345,9.1511 23.851,9.4111 C23.356,9.6711 23.169,10.2741 23.434,10.7601 C24.372,12.4851 24.869,14.4321 24.869,16.3911 C24.869,18.3511 24.372,20.2991 23.434,22.0221 C23.169,22.5081 23.356,23.1131 23.851,23.3731 C24.003,23.4521 24.167,23.4901 24.329,23.4901 C24.692,23.4901 25.043,23.2991 25.226,22.9631 C26.323,20.9511 26.902,18.6781 26.902,16.3911 C26.902,14.1041 26.323,11.8331 25.226,9.8201 Z M12.6723,6.4158 C18.2853,6.4158 22.8363,10.8818 22.8363,16.3918 C22.8363,21.9008 18.2853,26.3668 12.6723,26.3668 C10.9484333,26.3668 9.32997111,25.9399556 7.90878652,25.1960267 L7.6073,25.0318 L2.0003,26.8658 L3.8683,21.3628 C3.0083,19.8978 2.5083,18.2038 2.5083,16.3918 C2.5083,10.8818 7.0593,6.4158 12.6723,6.4158 Z M26.491,6.1691 C26.957,5.8611 27.588,5.9861 27.9,6.4451 C29.907,9.3981 30.967,12.8381 30.967,16.3911 C30.967,19.9451 29.907,23.3841 27.9,26.3381 C27.705,26.6271 27.382,26.7821 27.053,26.7821 C26.86,26.7821 26.664,26.7281 26.491,26.6141 C26.024,26.3081 25.898,25.6901 26.209,25.2311 C27.993,22.6071 28.934,19.5491 28.934,16.3911 C28.934,13.2331 27.993,10.1761 26.209,7.5511 C25.898,7.0931 26.024,6.4741 26.491,6.1691 Z"/>
</svg>
