<svg xmlns="http://www.w3.org/2000/svg" width="32" height="32" viewBox="0 0 32 32">
  <path d="M14.0001902,5.9181 C14.0001902,5.9101 13.965253,5.1881 14.4563698,4.6671 C14.8716229,4.2261 15.5813465,4.0011 16.5595872,4.0011 C17.5308405,4.0011 18.2196017,4.2181 18.6069052,4.6471 C19.0630848,5.1511 19.0011961,5.8631 19.0011961,5.8631 L18.9932104,7.9921 L20.98962,7.9921 L20.98962,6.0331 C21.0185679,5.6851 21.0535051,4.4011 20.1161908,3.3371 C19.3345965,2.4501 18.1387472,2.0001 16.5595872,2.0001 C14.9884129,2.0001 13.7815833,2.4461 12.9740357,3.3261 C11.9099494,4.4821 11.995795,5.9091 12.005777,5.9841 L12.005777,7.9921 L14.0021866,7.9921 L14.0001902,5.9181 Z M25.1640611,7.9921 L21.0866441,7.9921 L21.0866441,11.9841 C21.0866441,12.2611 20.9755345,12.9921 20.0672899,12.9921 C19.1590453,12.9921 19.0479356,12.2611 19.0479356,11.9841 L19.0479356,7.9921 L13.9511644,7.9921 L13.9511644,11.9841 C13.9511644,12.2611 13.7921452,12.9921 12.9318102,12.9921 C12.0714752,12.9921 11.9124559,12.2611 11.9124559,11.9841 L11.9124559,7.9921 L7.83503898,7.9921 L6.00937553,26.8031 C5.89622721,27.9771 6.83607182,28.9921 8.03890983,28.9921 L24.9612096,28.9921 C26.1630282,28.9921 27.1049116,27.9771 26.9907439,26.8031 L25.1640611,7.9921 Z"/>
</svg>
