<svg xmlns="http://www.w3.org/2000/svg" width="26" height="26" viewBox="0 0 26 26">
  <path d="M19.364,8.224 C18.954,7.671 18.17,7.555 17.615,7.965 C17.06,8.376 16.945,9.16 17.356,9.714 L19.052,12 L7.658,12 L9.362,9.716 C9.775,9.163 9.661,8.38 9.107,7.967 C8.555,7.555 7.769,7.668 7.358,8.222 L3.77,13.03 L7.294,17.777 C7.539,18.107 7.917,18.282 8.299,18.282 C8.557,18.282 8.819,18.202 9.043,18.036 C9.597,17.624 9.713,16.841 9.301,16.287 L7.605,14 L19,14 L17.296,16.285 C16.883,16.837 16.997,17.62 17.551,18.034 C17.774,18.201 18.037,18.282 18.297,18.282 C18.677,18.282 19.054,18.108 19.3,17.779 L22.887,12.971 L19.364,8.224 Z"/>
</svg>
