<svg xmlns="http://www.w3.org/2000/svg" width="32" height="32" viewBox="0 0 32 32">
  <path d="M22.5790781,9.55 C22.9112901,9.55161651 23.220779,9.71892811 23.4040781,9.996 L23.4690781,10.1 L27.2990781,17.52 C28.5190781,19.87 28.1490781,22.85 26.1990781,24.6 C25.1790781,25.51 23.8890781,26 22.5690781,26 C20.8876513,25.9970256 19.3028241,25.2138476 18.2790781,23.88 C17.2290781,22.52 16.7690781,20.65 17.3290781,18.69 C17.3960781,18.457 17.4920781,18.236 17.5950781,18.018 L17.6990781,17.8 L18.2490781,16.74 L21.6790781,10.1 C21.8590781,9.75 22.2090781,9.55 22.5790781,9.55 L22.5790781,9.55 Z M13.3690781,6 C13.7790781,6 14.1460781,6.232 14.3370781,6.597 L14.3890781,6.71 L17.2890781,14.24 L15.9290781,16.88 C15.7590781,17.2 15.5490781,17.63 15.4090781,18.14 C15.2730781,18.62 15.1760781,19.113 15.1320781,19.598 L15.1090781,19.96 L9.05907815,19.96 C8.73793175,19.963118 8.44349542,20.1393974 8.28907815,20.421 L8.23907815,20.531 L7.21907815,23.301 C7.11139174,23.6038256 6.84585576,23.8228639 6.52807815,23.871 L6.40907815,23.881 L4.86907815,23.881 C4.29507815,23.881 3.88907815,23.322 4.02707815,22.764 L4.05907815,22.66 L10.1990781,6.71 C10.3540781,6.32 10.6990781,6.052 11.0980781,6.007 L11.2190781,6 L13.3690781,6 Z M12.5890781,10.67 C12.5431016,10.5323013 12.4215943,10.4336479 12.2773881,10.4169345 C12.1331819,10.4002212 11.9923311,10.4684676 11.9160781,10.592 L11.8790781,10.67 L9.69907815,16.58 C9.66071284,16.6852492 9.66970985,16.8019441 9.723755,16.9000686 C9.77780015,16.9981931 9.87161842,17.06817 9.98107815,17.092 L10.0590781,17.1 L14.4090781,17.1 C14.5213833,17.0992374 14.6278183,17.0497259 14.7007491,16.9643201 C14.7736798,16.8789144 14.8059124,16.7660389 14.7890781,16.655 L14.7690781,16.58 L12.5890781,10.67 L12.5890781,10.67 Z"/>
</svg>
