<svg xmlns="http://www.w3.org/2000/svg" width="26" height="26" viewBox="0 0 26 26">
  <path d="M18.5561856,5.03067439 C21.9731012,6.88645218 23.6950227,10.8246285 22.7374144,14.5934895 C21.7798061,18.3623504 18.3868992,21.0006753 14.4986412,21 C12.2465758,21.0048321 10.0862132,20.108194 8.49935013,18.5100116 L9.89918471,17.1000404 C11.7733754,18.9861899 14.6062067,19.5427441 17.0545673,18.5058278 C19.502928,17.4689114 21.0745798,15.0469944 21.0243662,12.3883641 C20.9741525,9.72973376 19.3121687,7.36890254 16.8263999,6.42519548 C14.3406311,5.48148842 11.5308364,6.14463599 9.7292048,8.10022448 L8.25937849,6.7302525 C10.8988196,3.87482004 15.1392699,3.17489661 18.5561856,5.03067439 Z M9.49918312,14.0001038 C9.77531985,14.0001038 9.99917289,14.2239569 9.99917289,14.5000936 C9.99917289,14.7762303 9.77531985,15.0000834 9.49918312,15.0000834 L4.49987162,15.0000834 C4.22373489,15.0000834 3.99988184,14.7762303 3.99988184,14.5000936 C3.99988184,14.2239569 4.22373489,14.0001038 4.49987162,14.0001038 L9.49918312,14.0001038 Z M13.9987003,9.00020607 C14.5509198,9.00020607 14.9985821,9.44791217 14.9985821,10.0001856 L14.998,12.04 L16.9983458,12.0401439 C17.511121,12.0401439 17.9337424,12.4261762 17.9915007,12.9235047 L17.997,13.02 L17.9915007,13.116743 C17.9337424,13.6140715 17.511121,14.0001038 16.9983458,14.0001038 L12.9988184,14.0001038 L12.9988184,10.0001856 C12.9988184,9.48736027 13.384813,9.06469759 13.8820929,9.00693367 L13.9987003,9.00020607 Z M7.49941944,12.0001447 C7.77555616,12.0001447 7.99940921,12.2239978 7.99940921,12.5001345 C7.99940921,12.7762712 7.77555616,13.0001243 7.49941944,13.0001243 L3.49998977,13.0001243 C3.22385305,13.0001243 3,12.7762712 3,12.5001345 C3,12.2239978 3.22385305,12.0001447 3.49998977,12.0001447 L7.49941944,12.0001447 Z M9.49918312,10.0001856 C9.77531985,10.0001856 9.99917289,10.2240387 9.99917289,10.5001754 C9.99917289,10.7763121 9.77531985,11.0001652 9.49918312,11.0001652 L4.49987162,11.0001652 C4.22373489,11.0001652 3.99988184,10.7763121 3.99988184,10.5001754 C3.99988184,10.2240387 4.22373489,10.0001856 4.49987162,10.0001856 L9.49918312,10.0001856 Z"/>
</svg>
