<svg xmlns="http://www.w3.org/2000/svg" width="26" height="26" viewBox="0 0 26 26">
  <path d="M16.2,12.5 L17.8,12.5 L21,20.5 L19.4,20.5 L18.76,18.9 L15.24,18.9 L14.6,20.5 L13,20.5 L16.2,12.5 Z M12.45,16.5 L11.65,18.5 L6,18.5 L6,16.5 L12.45,16.5 Z M17,14.5 L15.88,17.3 L18.12,17.3 L17,14.5 Z M7,5.5 L7,6.5 C7,7.6045695 7.8954305,8.5 9,8.5 C10.0543618,8.5 10.9181651,7.68412221 10.9945143,6.64926234 L11,6.5 L11,5.5 L13,5.5 L13,6.5 C13,7.6045695 13.8954305,8.5 15,8.5 C16.0543618,8.5 16.9181651,7.68412221 16.9945143,6.64926234 L17,6.5 L17,5.5 L19,5.5 L18.56,10.58 C18.4497971,10.5460684 18.336731,10.5227843 18.2223542,10.5103911 L18.05,10.5 L16.2,10.5 C15.4350328,10.4992595 14.7419062,10.9342006 14.4063319,11.6112767 L14.34,11.76 L12.85,15.5 L6,15.5 L5,5.5 L7,5.5 Z"/>
</svg>
