<svg xmlns="http://www.w3.org/2000/svg" width="18" height="18" viewBox="0 0 18 18">
  <path d="M15,6 C15.5522847,6 16,6.44771525 16,7 L16,14 C16,14.5522847 15.5522847,15 15,15 L6,15 C5.44771525,15 5,14.5522847 5,14 L5,12.5701759 L3.94131815,12.7759628 C3.39918043,12.8813437 2.87426287,12.5272823 2.76888197,11.9851446 L1.43321901,5.11375433 C1.32783811,4.57161661 1.68189947,4.04669905 2.2240372,3.94131815 L11.0586818,2.2240372 C11.6008196,2.1186563 12.1257371,2.47271766 12.231118,3.01485538 L12.8113714,6 L15,6 Z M6,7 L6,14 L15,14 L15,7 L6,7 Z M11.2494908,3.20566438 L2.41484619,4.92294534 L3.75050916,11.7943356 L5,11.5514592 L5,7 C5,6.44771525 5.44771525,6 6,6 L11.7926547,6 L11.2494908,3.20566438 Z M12.618034,10.5002823 L9.7235719,11.947231 C9.47657302,12.0707064 9,12.0131822 9,11.5 L9,9.5 C9,9.22385763 9.24263358,8.8727422 9.72364169,9.05280385 L12.618034,10.5002823 Z"/>
</svg>
