<svg xmlns="http://www.w3.org/2000/svg" width="24" height="24" viewBox="0 0 24 24">
  <path d="M13,4 L12.999,9 L18,9 C19.1045695,9 20,9.8954305 20,11 L20,14 C20,15.1045695 19.1045695,16 18,16 L13,16 L13,21 L12,21 L12,15.999 L7,16 C5.8954305,16 5,15.1045695 5,14 L5,11 C5,9.8954305 5.8954305,9 7,9 L11.999,8.999 L12,4 L13,4 Z M7,10 C6.44771525,10 6,10.4477153 6,11 L6,14 C6,14.5522847 6.44771525,15 7,15 L18,15 C18.5522847,15 19,14.5522847 19,14 L19,11 C19,10.4477153 18.5522847,10 18,10 L7,10 Z"/>
</svg>
