<svg xmlns="http://www.w3.org/2000/svg" width="25" height="24" viewBox="0 0 25 24">
  <path d="M19,18 C19,18.5522847 18.5522847,19 18,19 L6,19 C5.44771525,19 5,18.5522847 5,18 L5,10 C4.44771525,10 4,9.55228475 4,9 L4,6 C4,5.44771525 4.44771525,5 5,5 L19,5 C19.5522847,5 20,5.44771525 20,6 L20,9 C20,9.55228475 19.5522847,10 19,10 L19,18 Z M5,9 L19,9 L19,6 L5,6 L5,9 Z M18,10 L6,10 L6,18 L18,18 L18,10 Z M9,12 L15,12 L15,13 L9,13 L9,12 Z M10,14 L14,14 L14,15 L10,15 L10,14 Z" transform="translate(1)"/>
</svg>
