<svg xmlns="http://www.w3.org/2000/svg" width="18" height="18" viewBox="0 0 18 18">
  <path d="M7.13739937,10.8577736 C6.94688043,10.6647698 6.9488948,10.3538632 7.14189859,10.1633443 L7.14583332,10.1595034 L8.89356654,8.4724912 C9.63116793,7.72526962 10.8270561,7.72526962 11.5646575,8.4724912 C12.3022589,9.21971278 12.3022589,10.4311983 11.5646575,11.1784199 L8.60638641,14.0255505 C7.32384796,15.3248165 5.24444228,15.3248165 3.96190384,14.0255505 C2.67936539,12.7262845 2.67936539,10.6197581 3.96190384,9.32049215 L9.38691444,3.97444949 C10.6694529,2.6751835 12.7574453,2.68223193 14.0336456,3.97444949 C15.3098459,5.26666705 15.3098459,7.30521893 14.0704622,8.56076742 C14.0726917,8.5585088 14.0025891,8.63964296 13.8601544,8.8041699 C13.6822895,9.00965682 13.3715196,9.03202316 13.1660474,8.85414124 L13.1629215,8.8514119 C12.9566927,8.66980999 12.9355961,8.35584265 13.1156757,8.14828328 C13.2772956,7.96195963 13.3629981,7.86386051 13.3727629,7.85396836 C14.226818,6.98877421 14.226818,5.55044545 13.3508148,4.70251465 C12.5,3.77233691 10.9818235,3.77233691 10.0846137,4.68124856 L4.65960314,10.0272912 C3.76239338,10.9362029 3.76239338,12.4098398 4.65960314,13.3187514 C5.5568129,14.2276631 7.01147734,14.2276631 7.9086871,13.3187514 L10.8669582,10.4716208 C11.2192309,10.1147536 11.2192309,9.5361575 10.8669582,9.17929026 C10.5146855,8.82242303 9.94353855,8.82242303 9.59126584,9.17929026 L7.84353263,10.8663025 C7.64556648,11.0573908 7.33069237,11.0535876 7.13739937,10.8577736 Z"/>
</svg>
