<svg xmlns="http://www.w3.org/2000/svg" width="24" height="24" viewBox="0 0 24 24">
  <path fill-rule="evenodd" d="M15,5 C15.5522847,5 16,5.44771525 16,6 L16,9 L19,9 C19.5522847,9 20,9.44771525 20,10 L20,19 C20,19.5522847 19.5522847,20 19,20 L10,20 C9.44771525,20 9,19.5522847 9,19 L9,16 L6,16 C5.44771525,16 5,15.5522847 5,15 L5,6 C5,5.44771525 5.44771525,5 6,5 L15,5 Z M19,10 L16,10 L16,15 C16,15.5522847 15.5522847,16 15,16 L10,16 L10,19 L19,19 L19,10 Z M15,6.706 L6.706,15 L10.292,15 L15,10.292 L15,6.706 Z M15,11.706 L11.706,15 L15,15 L15,11.706 Z M14.292,6 L10.706,6 L6,10.706 L6,14.292 L14.292,6 Z M9.292,6 L6,6 L6,9.292 L9.292,6 Z"/>
</svg>
