<svg xmlns="http://www.w3.org/2000/svg" width="24" height="24" viewBox="0 0 24 24">
  <path d="M19,4 C19.5522847,4 20,4.44771525 20,5 L20,19 C20,19.5522847 19.5522847,20 19,20 L5,20 C4.44771525,20 4,19.5522847 4,19 L4,5 C4,4.44771525 4.44771525,4 5,4 L19,4 Z M19,10.706 L10.706,19 L14.292,19 L19,14.292 L19,10.706 Z M19,15.706 L15.706,19 L19,19 L19,15.706 Z M19,5.706 L5.706,19 L9.292,19 L19,9.292 L19,5.706 Z M18.292,5 L14.706,5 L5,14.706 L5,18.292 L18.292,5 Z M13.292,5 L9.706,5 L5,9.706 L5,13.292 L13.292,5 Z M8.292,5 L5,5 L5,8.292 L8.292,5 Z"/>
</svg>
