<svg xmlns="http://www.w3.org/2000/svg" width="19" height="18" viewBox="0 0 19 18">
  <path d="M11,3 C11.5522847,3 12,3.44771525 12,4 L12,6 L14,6 C14.5522847,6 15,6.44771525 15,7 L15,14 C15,14.5522847 14.5522847,15 14,15 L7,15 C6.44771525,15 6,14.5522847 6,14 L6,12 L4,12 C3.44771525,12 3,11.5522847 3,11 L3,4 C3,3.44771525 3.44771525,3 4,3 L11,3 Z M12,11 C12,11.5522847 11.5522847,12 11,12 L7,12 L7,14 L14,14 L14,7 L12,7 L12,11 Z M11,4.706 L4.706,11 L7.292,11 L11,7.292 L11,4.706 Z M11,8.706 L8.706,11 L11,11 L11,8.706 Z M10.292,4 L7.706,4 L4,7.706 L4,10.292 L10.292,4 Z M6.292,4 L4,4 L4,6.292 L6.292,4 Z" transform="translate(1)"/>
</svg>
