<svg xmlns="http://www.w3.org/2000/svg" width="19" height="18" viewBox="0 0 19 18">
  <path d="M14,3 C14.5522847,3 15,3.44771525 15,4 L15,14 C15,14.5522847 14.5522847,15 14,15 L4,15 C3.44771525,15 3,14.5522847 3,14 L3,4 C3,3.44771525 3.44771525,3 4,3 L14,3 Z M14,4.706 L4.706,14 L7.292,14 L14,7.292 L14,4.706 Z M14,8.706 L8.706,14 L11.292,14 L14,11.292 L14,8.706 Z M14,12.706 L12.706,14 L14,14 L14,12.706 Z M13.292,4 L10.706,4 L4,10.706 L4,13.292 L13.292,4 Z M9.292,4 L6.706,4 L4,6.706 L4,9.292 L9.292,4 Z M5.292,4 L4,4 L4,5.292 L5.292,4 Z" transform="translate(1)"/>
</svg>
