<svg xmlns="http://www.w3.org/2000/svg" width="24" height="24" viewBox="0 0 24 24">
  <path d="M18,18 L19,18 L19,19 L4,19 L4,18 L5,18 L5,13 C5,12.4477153 5.44771525,12 6,12 L9,12 L9,10 C9,9.44771525 9.44771525,9 10,9 L13,9 L13,6 C13,5.44771525 13.4477153,5 14,5 L17,5 C17.5522847,5 18,5.44771525 18,6 L18,18 Z M17,16 L14,16 L14,18 L17,18 L17,16 Z M13,14 L10,14 L10,18 L13,18 L13,14 Z M9,16 L6,16 L6,18 L9,18 L9,16 Z M17,6 L14,6 L14,15 L17,15 L17,6 Z M9,13 L6,13 L6,15 L9,15 L9,13 Z M13,10 L10,10 L10,13 L13,13 L13,10 Z"/>
</svg>
