<svg xmlns="http://www.w3.org/2000/svg" width="18" height="18" viewBox="0 0 18 18">
  <path d="M5.0989142,5 L3,5 L3,4 L5.9010858,4 L6.34553025,6 L14.2098067,6 C14.6516345,6 15.0868769,6.3432098 14.9917198,6.96915046 L13.9034013,12 L6.59009805,12 L5.0989142,5 Z M7.40990195,11 L13.0965987,11 L13.9619146,7 L6.60990195,7 L7.40990195,11 Z M8,15 C7.44771525,15 7,14.5522847 7,14 C7,13.4477153 7.44771525,13 8,13 C8.55228475,13 9,13.4477153 9,14 C9,14.5522847 8.55228475,15 8,15 Z M13,15 C12.4477153,15 12,14.5522847 12,14 C12,13.4477153 12.4477153,13 13,13 C13.5522847,13 14,13.4477153 14,14 C14,14.5522847 13.5522847,15 13,15 Z"/>
</svg>
