<svg xmlns="http://www.w3.org/2000/svg" width="18" height="18" viewBox="0 0 18 18">
  <path d="M5.87964541,2.17449083 L5.93188945,2.24806449 L6.953,3.99991861 L13,4 C14.0543618,4 14.9181651,4.81587779 14.9945143,5.85073766 L15,6 L15,11 C15,12.0543618 14.1841222,12.9181651 13.1492623,12.9945143 L13,13 L12.203,12.9999186 L12.9318895,14.2480645 C13.0710296,14.4865904 12.9904615,14.7927493 12.7519355,14.9318895 C12.5399124,15.0555696 12.274451,15.005653 12.1203546,14.8255092 L12.0681105,14.7519355 L11.046,12.9999186 L8.651,13 L5.77737049,14.9159565 C5.69523247,14.970721 5.59872084,14.999945 5.5,14.999945 C5.25454011,14.999945 5.05039163,14.8230698 5.00805567,14.5898206 L5,14.499945 L5,13 L4.85073766,12.9945143 C3.86762078,12.9219826 3.08213523,12.1387735 3.00604447,11.1566505 L3,11 L3,6 C3,4.9456382 3.81587779,4.08183488 4.85073766,4.00548574 L5,4 L5.796,3.99991861 L5.06811055,2.75193551 C4.92897041,2.51340956 5.00953853,2.20725069 5.24806449,2.06811055 C5.46008756,1.94443042 5.72554898,1.99434695 5.87964541,2.17449083 Z M5.03672752,4.99932532 L4.92431496,5.00277525 C4.44538412,5.03810947 4.06305131,5.41115676 4.00706479,5.88073418 L4,6 L3.9992564,10.961443 L4.00305667,11.0794062 C4.03783309,11.5282744 4.37126097,11.8950657 4.77560298,11.9793555 L4.88746517,11.9951889 L6,12.0360772 L5.998,13.565 L8.3481976,12 L10.463,11.9999186 L6.379,4.99891861 L5.03672752,4.99932532 Z M7.536,4.99891861 L11.62,11.9999186 L12.9632725,12.0006747 L13.075685,11.9972247 C13.5546159,11.9618905 13.9369487,11.5888432 13.9929352,11.1192658 L14,11 L14.0006747,6.03672752 L13.9972247,5.92431496 C13.9618905,5.44538412 13.5888432,5.06305131 13.1192658,5.00706479 L13,5 L7.536,4.99891861 Z"/>
</svg>
