<svg xmlns="http://www.w3.org/2000/svg" width="18" height="18" viewBox="0 0 18 18">
  <path fill="#162D3D" d="M13,4 C14.0543618,4 14.9181651,4.81587779 14.9945143,5.85073766 L15,6 L15,11 C15,12.0543618 14.1841222,12.9181651 13.1492623,12.9945143 L13,13 L8.651,13 L5.77737049,14.9159565 C5.69523247,14.970721 5.59872084,14.999945 5.5,14.999945 C5.25454011,14.999945 5.05039163,14.8230698 5.00805567,14.5898206 L5,14.499945 L5,13 L4.85073766,12.9945143 C3.86762078,12.9219826 3.08213523,12.1387735 3.00604447,11.1566505 L3,11 L3,6 C3,4.9456382 3.81587779,4.08183488 4.85073766,4.00548574 L5,4 L13,4 Z"/>
</svg>
