<svg xmlns="http://www.w3.org/2000/svg" width="18" height="18" viewBox="0 0 18 18">
  <path d="M12,5 C13.1045695,5 14,5.8954305 14,7 L14,11 C14,12.1045695 13.1045695,13 12,13 L9.66666667,13 L5.768,15.924 C5.5,16.1352844 5.00574179,15.9912262 5,15.54 L5,13 C3.8954305,13 3,12.1045695 3,11 L3,7 C3,5.8954305 3.8954305,5 5,5 L12,5 Z M5,6 C4.44771525,6 4,6.44771525 4,7 L4,11 C4,11.5522847 4.44771525,12 5,12 L6,12 L6,14.5 L9.33333333,12 L12,12 C12.5522847,12 13,11.5522847 13,11 L13,7 C13,6.44771525 12.5522847,6 12,6 L5,6 Z"/>
</svg>
