<svg xmlns="http://www.w3.org/2000/svg" width="18" height="18" viewBox="0 0 18 18">
  <path d="M13,7 C13,6.44771525 12.5522847,6 12,6 L5,6 C4.44771525,6 4,6.44771525 4,7 L4,11 C4,11.5522847 4.44771525,12 5,12 L6,12 L6,13 L5,13 C3.8954305,13 3,12.1045695 3,11 L3,7 C3,5.8954305 3.8954305,5 5,5 L12,5 C13.1045695,5 14,5.8954305 14,7 L13,7 Z M14.2960457,12 L11.5,12 C10.1192881,12 9,13.1192881 9,14.5 L9,16 L8,16 L8,14.5 C8,12.5670034 9.56700338,11 11.5,11 L14.2928932,11 L13.1473948,9.84660979 C12.9544044,9.65228989 12.9554735,9.33831557 13.1497827,9.14531445 C13.3442949,8.95211166 13.6584257,8.95260256 13.8523332,9.14641233 L16.2071068,11.5 L13.8504178,13.8605382 C13.6586007,14.0526685 13.3473498,14.0529225 13.1552194,13.8611054 L13.1537261,13.8596081 C12.961046,13.66558 12.9605951,13.3525646 13.1527154,13.1579822 L14.2960457,12 Z"/>
</svg>
