<svg xmlns="http://www.w3.org/2000/svg" width="24" height="24" viewBox="0 0 24 24">
  <path d="M19,10 L19,8 C19,7.447 18.553,7 18,7 L6,7 C5.447,7 5,7.447 5,8 L5,16 C5,16.553 5.447,17 6,17 L12,17 L12,18 L6,18 C4.896,18 4,17.104 4,16 L4,8 C4,6.896 4.896,6 6,6 L18,6 C19.104,6 20,6.896 20,8 L20,10 L19,10 Z M8,11 L8,10 L16,10 L16,11 L8,11 Z M8,14 L8,13 L13,13 L13,14 L8,14 Z M19,16 C16.790861,16 15,17.790861 15,20 L15,21 L14,21 L14,20 C14,17.2385763 16.2385763,15 19,15 L21.2928932,14.9970152 L19.1479627,12.853471 C18.9527006,12.6583351 18.9525982,12.3418549 19.1477342,12.1465928 C19.343123,11.9512039 19.6597151,11.9511694 19.8550322,12.1464015 L23.2071068,15.4970152 L19.8548602,18.8510626 C19.6597029,19.0463247 19.3432055,19.0464097 19.1479433,18.8512524 C18.9525635,18.6558726 18.9525004,18.3392726 19.1477076,18.1439099 L21.2928932,15.9970152 L19,16 Z"/>
</svg>
