<svg xmlns="http://www.w3.org/2000/svg" width="24" height="24" viewBox="0 0 24 24">
  <path d="M19,4 C19.5522847,4 20,4.44771525 20,5 L20,19 C20,19.5522847 19.5522847,20 19,20 L5,20 C4.44771525,20 4,19.5522847 4,19 L4,5 C4,4.44771525 4.44771525,4 5,4 L19,4 Z M19,5 L5,5 L5,19 L19,19 L19,5 Z M15.8535534,10.1464466 C16.0271197,10.320013 16.0464049,10.5894374 15.9114088,10.7843055 L15.8535534,10.8535534 L11.5,15.2071068 L9.14644661,12.8535534 C8.95118446,12.6582912 8.95118446,12.3417088 9.14644661,12.1464466 C9.32001296,11.9728803 9.58943736,11.9535951 9.7843055,12.0885912 L9.85355339,12.1464466 L11.5,13.793 L15.1464466,10.1464466 C15.3417088,9.95118446 15.6582912,9.95118446 15.8535534,10.1464466 Z"/>
</svg>
