<svg xmlns="http://www.w3.org/2000/svg" width="18" height="18" viewBox="0 0 18 18">
  <path d="M14,3 C14.5522847,3 15,3.44771525 15,4 L15,14 C15,14.5522847 14.5522847,15 14,15 L4,15 C3.44771525,15 3,14.5522847 3,14 L3,4 C3,3.44771525 3.44771525,3 4,3 L14,3 Z M14,4 L4,4 L4,14 L14,14 L14,4 Z M11.8535534,7.14644661 C12.0271197,7.32001296 12.0464049,7.58943736 11.9114088,7.7843055 L11.8535534,7.85355339 L8.5,11.2071068 L7.14644661,9.85355339 C6.95118446,9.65829124 6.95118446,9.34170876 7.14644661,9.14644661 C7.32001296,8.97288026 7.58943736,8.95359511 7.7843055,9.08859116 L7.85355339,9.14644661 L8.5,9.793 L11.1464466,7.14644661 C11.3417088,6.95118446 11.6582912,6.95118446 11.8535534,7.14644661 Z"/>
</svg>
