<svg xmlns="http://www.w3.org/2000/svg" width="24" height="24" viewBox="0 0 24 24">
  <path d="M12,21 C7.02943725,21 3,16.9705627 3,12 C3,7.02943725 7.02943725,3 12,3 C16.9705627,3 21,7.02943725 21,12 C21,16.9705627 16.9705627,21 12,21 Z M12,20 C16.418278,20 20,16.418278 20,12 C20,7.581722 16.418278,4 12,4 C7.581722,4 4,7.581722 4,12 C4,16.418278 7.581722,20 12,20 Z M11.8535534,14.8496784 C11.6582912,15.0449406 11.3417088,15.0449406 11.1464466,14.8496784 C10.9511845,14.6544163 10.9511845,14.3378338 11.1464466,14.1425716 L13.2929623,11.9963306 L11.1464466,9.85355339 C10.9511845,9.65829124 10.9511845,9.34170876 11.1464466,9.14644661 C11.3417088,8.95118446 11.6582912,8.95118446 11.8535534,9.14644661 L14.7071758,11.9963306 L11.8535534,14.8496784 Z"/>
</svg>
