<svg xmlns="http://www.w3.org/2000/svg" width="18" height="18" viewBox="0 0 18 18">
  <g fill="none" fill-rule="evenodd">
    <path fill="#162D3D" d="M14.8597212,8.14512634 C15.0549834,8.34038849 15.0549834,8.65697098 14.8597212,8.85223312 L11.2137854,12.5 L14.8597212,16.1465919 C15.0549834,16.3418541 15.0549834,16.6584366 14.8597212,16.8536987 C14.6644591,17.0489609 14.3478766,17.0489609 14.1526144,16.8536987 L9.79957183,12.5 L14.1526144,8.14512634 C14.3478766,7.9498642 14.6644591,7.9498642 14.8597212,8.14512634 Z" transform="translate(-22 3)"/>
    <path fill="#000" fill-rule="nonzero" d="M11.9873285,13.9293402 C12.2801551,14.2223 12.280047,14.6971737 11.9870872,14.9900003 C11.6941273,15.2828269 11.2192536,15.2827189 10.926427,14.989759 L5.4393398,9.49748316 L10.9266684,4.00520731 C11.2196283,3.71238076 11.694502,3.71248884 11.9873286,4.00544872 C12.2801551,4.29840859 12.2800471,4.77328231 11.9870872,5.06610886 L7.5606602,9.49796587 L11.9873285,13.9293402 Z"/>
  </g>
</svg>
