<svg xmlns="http://www.w3.org/2000/svg" width="24" height="24" viewBox="0 0 24 24">
  <path d="M12,21 C7.02943725,21 3,16.9705627 3,12 C3,7.02943725 7.02943725,3 12,3 C16.9705627,3 21,7.02943725 21,12 C21,16.9705627 16.9705627,21 12,21 Z M12,20 C16.418278,20 20,16.418278 20,12 C20,7.581722 16.418278,4 12,4 C7.581722,4 4,7.581722 4,12 C4,16.418278 7.581722,20 12,20 Z M14.8496784,11.8563252 L11.9963306,14.7099476 L9.14644661,11.8563252 C8.95118446,11.661063 8.95118446,11.3444805 9.14644661,11.1492184 C9.34170876,10.9539562 9.65829124,10.9539562 9.85355339,11.1492184 L11.9963306,13.295734 L14.1425716,11.1492184 C14.3378338,10.9539562 14.6544163,10.9539562 14.8496784,11.1492184 C15.0449406,11.3444805 15.0449406,11.661063 14.8496784,11.8563252 Z"/>
</svg>
