<svg xmlns="http://www.w3.org/2000/svg" width="18" height="18" viewBox="0 0 18 18">
  <path d="M9,16 C5.13400675,16 2,12.8659932 2,9 C2,5.13400675 5.13400675,2 9,2 C12.8659932,2 16,5.13400675 16,9 C16,12.8659932 12.8659932,16 9,16 Z M9,15 C12.3137085,15 15,12.3137085 15,9 C15,5.6862915 12.3137085,3 9,3 C5.6862915,3 3,5.6862915 3,9 C3,12.3137085 5.6862915,15 9,15 Z M9.84001581,11.6296445 C9.6490725,11.8255841 9.3354419,11.8296344 9.13950226,11.6386911 L9.13499977,11.6342471 L6.5,9 L9.13935849,6.35988726 C9.33026353,6.16892767 9.63982598,6.16888344 9.83078557,6.35978848 C9.83382368,6.36282573 9.83682163,6.36590288 9.83977864,6.36901915 C10.0330563,6.57270638 10.0318297,6.89242154 9.83699469,7.09461968 L8.001,9 L9.84191541,10.9091229 C10.0359912,11.1103893 10.0351501,11.4294042 9.84001581,11.6296445 Z"/>
</svg>
