<svg xmlns="http://www.w3.org/2000/svg" width="18" height="18" viewBox="0 0 18 18">
  <path d="M5,10.1363636 C5,12.2170985 6.91939144,14 9,14 C11.0806086,14 13,12.2170985 13,10.1363636 C13,8.37874017 11.6767411,6.05957632 9,3.22316699 C6.32325892,6.05957632 5,8.37874017 5,10.1363636 Z M14,10.1363636 C14,12.7865375 11.6170859,15 9,15 C6.38291411,15 4,12.7865375 4,10.1363636 C4,7.97447635 5.67777896,5 9,1.78188207 C12.3485281,5 14,7.97447635 14,10.1363636 Z M10,8 C11.1045695,8 12,8.8954305 12,10 C12,11.1045695 11.1045695,12 10,12 L10,8 Z"/>
</svg>
