<svg xmlns="http://www.w3.org/2000/svg" width="18" height="18" viewBox="0 0 18 18">
  <path d="M9,4 L9,5 L5,5 L5,14 L14,14 L14,10 L15,10 L15,14 C15,14.5522847 14.5522847,15 14,15 L5,15 C4.44771525,15 4,14.5522847 4,14 L4,5 C4,4.44771525 4.44771525,4 5,4 L9,4 Z M14.2071068,3.5 L15.5,4.79289322 C15.8905243,5.18341751 15.8905243,5.81658249 15.5,6.20710678 L9.70710678,12 L7,12 L7,9.29289322 L12.7928932,3.5 C13.1834175,3.10947571 13.8165825,3.10947571 14.2071068,3.5 Z M12,5.70689322 L8,9.706 L8,11 L9.292,11 L13.293,6.99989322 L12,5.70689322 Z M13.5,4.207 L12.707,4.99989322 L14,6.29289322 L14.793,5.5 L13.5,4.207 Z"/>
</svg>
