<svg xmlns="http://www.w3.org/2000/svg" width="24" height="24" viewBox="0 0 24 24">
  <path d="M13,5 L13,6 L6,6 L6,19 L19,19 L19,12 L20,12 L20,19 C20,19.5522847 19.5522847,20 19,20 L6,20 C5.44771525,20 5,19.5522847 5,19 L5,6 C5,5.44771525 5.44771525,5 6,5 L13,5 Z M19.2071068,4.5 L20.5,5.79289322 C20.8905243,6.18341751 20.8905243,6.81658249 20.5,7.20710678 L12.7071068,15 L10,15 L10,12.2928932 L17.7928932,4.5 C18.1834175,4.10947571 18.8165825,4.10947571 19.2071068,4.5 Z M16.5,7.20689322 L11,12.706 L11,14 L12.292,14 L17.793,8.49989322 L16.5,7.20689322 Z M18.5,5.207 L17.207,6.49989322 L18.5,7.79289322 L19.793,6.5 L18.5,5.207 Z"/>
</svg>
