<svg xmlns="http://www.w3.org/2000/svg" width="18" height="18" viewBox="0 0 18 18">
  <path d="M8,5 L8,3 L9,3 L9,8 C9,8.55228475 8.55228475,9 8,9 L8,14 C8,14.5522847 7.55228475,15 7,15 L6,15 C5.44771525,15 5,14.5522847 5,14 L5,9 C4.44771525,9 4,8.55228475 4,8 L4,3 L5,3 L5,5 L6,5 L6,3 L7,3 L7,5 L8,5 Z M8,6 L5,6 L5,8 L6,8 L6,14 L7,14 L7,8 L8,8 L8,6 Z M11,11.0068767 C10.9830426,10.4065664 10.852996,10.0179868 10.6429788,9.82058597 C10.2054892,9.40937791 10,8.79291017 10,8 L10,5 C10,3.8954305 10.8954305,3 12,3 L13,3 C13.5522847,3 14,3.44771525 14,4 L14,14 C14,14.5522847 13.5522847,15 13,15 L12,15 C11.4477153,15 11,14.5522847 11,14 L11,11.0068767 Z M12,14 L13,14 L13,4 L12,4 C11.4477153,4 11,4.44771525 11,5 L11,8 C11,8.54042316 11.1181238,8.89479462 11.3278604,9.09193161 C11.7643092,9.50216147 11.9773157,10.1609213 12,11.0068767 L12,14 Z"/>
</svg>
