<svg xmlns="http://www.w3.org/2000/svg" width="18" height="18" viewBox="0 0 18 18">
  <path d="M13,5 L13.9944699,5 L14,8 L3,8 L3,14 L7,14 L7,15 L3,15 C2.44771525,15 2,14.5522847 2,14 L2,5 C2,4.44771525 2.44771525,4 3,4 L5,4 L5,3 L6,3 L6,4 L10,4 L10,3 L11,3 L11,4 L13,4 C13.5522847,4 14,4.44771525 14,5 L13,5 Z M3,5 L3,7 L13,7 L13,5 L11,5 L11.012739,6 L10.0048879,6 L9.99213861,5 L5.99915748,5 L5.99915748,6 L5,6 L5,5 L3,5 Z M12.5,16 C10.5670034,16 9,14.4329966 9,12.5 C9,10.5670034 10.5670034,9 12.5,9 C14.4329966,9 16,10.5670034 16,12.5 C16,14.4329966 14.4329966,16 12.5,16 Z M12.5,15.25 C14.0187831,15.25 15.25,14.0187831 15.25,12.5 C15.25,10.9812169 14.0187831,9.75 12.5,9.75 C10.9812169,9.75 9.75,10.9812169 9.75,12.5 C9.75,14.0187831 10.9812169,15.25 12.5,15.25 Z M12,11 L13,11 L13,13 L12,13 L12,11 Z"/>
</svg>
