<svg xmlns="http://www.w3.org/2000/svg" width="24" height="24" viewBox="0 0 24 24">
  <path d="M8,4 L8,5 L16,5 L16,4 L17,4 L17,5 L19,5 C19.5522847,5 20,5.44771525 20,6 L20,19 C20,19.5522847 19.5522847,20 19,20 L5,20 C4.44771525,20 4,19.5522847 4,19 L4,6 C4,5.44771525 4.44771525,5 5,5 L7,5 L7,4 L8,4 Z M19,10 L5,10 L5,19 L19,19 L19,10 Z M15.8535534,12.1464466 C16.0271197,12.320013 16.0464049,12.5894374 15.9114088,12.7843055 L15.8535534,12.8535534 L11.8535534,16.8535534 C11.679987,17.0271197 11.4105626,17.0464049 11.2156945,16.9114088 L11.1464466,16.8535534 L9.14644661,14.8535534 C8.95118446,14.6582912 8.95118446,14.3417088 9.14644661,14.1464466 C9.32001296,13.9728803 9.58943736,13.9535951 9.7843055,14.0885912 L9.85355339,14.1464466 L11.5,15.793 L15.1464466,12.1464466 C15.3417088,11.9511845 15.6582912,11.9511845 15.8535534,12.1464466 Z M16,6 L8,6 L8,7 L7,7 L7,6 L5,6 L5,9 L19,9 L19,6 L17,6 L17,7 L16,7 L16,6 Z"/>
</svg>
