<svg xmlns="http://www.w3.org/2000/svg" width="24" height="24" viewBox="0 0 24 24">
  <path d="M17,5 L19,5 C19.5522847,5 20,5.44771525 20,6 L20,11 L19,11 L19,10 L5,10 L5,19 L13,19 L13,20 L5,20 C4.44771525,20 4,19.5522847 4,19 L4,6 C4,5.44771525 4.44771525,5 5,5 L7,5 L7,4 L8,4 L8,5 L16,5 L16,4 L17,4 L17,5 Z M17,6 L17,7 L16,7 L16,6 L8,6 L8,7 L7,7 L7,6 L5,6 L5,9 L19,9 L19,6 L17,6 Z M19.5,21.25 C21.5710678,21.25 23.25,19.5710678 23.25,17.5 C23.25,15.4289322 21.5710678,13.75 19.5,13.75 C17.4289322,13.75 15.75,15.4289322 15.75,17.5 C15.75,19.5710678 17.4289322,21.25 19.5,21.25 Z M19.5,22 C17.0147186,22 15,19.9852814 15,17.5 C15,15.0147186 17.0147186,13 19.5,13 C21.9852814,13 24,15.0147186 24,17.5 C24,19.9852814 21.9852814,22 19.5,22 Z M20,17 L22,17 L22,18 L19,18 L19,15 L20,15 L20,17 Z"/>
</svg>
