<svg xmlns="http://www.w3.org/2000/svg" width="24" height="24" viewBox="0 0 24 24">
  <path d="M14,19 L14,20 L5,20 C4.44771525,20 4,19.5522847 4,19 L4,6 C4,5.44771525 4.44771525,5 5,5 L7,5 L7,4 L8,4 L8,5 L16,5 L16,4 L17,4 L17,5 L19,5 C19.5522847,5 20,5.44771525 20,6 L20,14 L19,14 L19,10 L5,10 L5,19 L14,19 Z M19,6 L17,6 L17,7 L16,7 L16,6 L8,6 L8,7 L7,7 L7,6 L5,6 L5,9 L19,9 L19,6 Z M22.8679096,15.1464466 C23.0627823,15.3413193 23.0627823,15.6572703 22.8679096,15.8521429 L18.4954686,20.2071593 L16.1430318,17.8511382 C15.9478748,17.6556839 15.9479953,17.339068 16.143301,17.1437623 C16.3383621,16.9487013 16.6546186,16.9487013 16.8496796,17.1437623 L18.4954686,18.7929457 L22.1599734,15.1456152 C22.3558281,14.9506784 22.6725133,14.9510503 22.8679096,15.1464466 Z"/>
</svg>
