<svg xmlns="http://www.w3.org/2000/svg" width="24" height="24" viewBox="0 0 24 24">
  <path d="M1.739,1.99995562 L2.472,2.99995562 L1,3 L1,13 L9.806,12.9999556 L11,14.6279556 L11,16 L12.006,15.9999556 L12.6911108,17 L2,17 L2,16 L5,16 L5,14 L1,14 C0.44771525,14 0,13.5522847 0,13 L0,3 C0,2.44771525 0.44771525,1.99995562 1,1.99995562 L1.739,1.99995562 Z M10,14 L6,14 L6,16 L10,16 L10,14 Z M2.84355718,0.136605839 L2.9032025,0.204318168 L13.9032025,15.2043182 C14.0665031,15.4270008 14.0183644,15.7399019 13.7956818,15.9032025 C13.5977418,16.0483586 13.3285179,16.0264515 13.1564428,15.8633942 L13.0967975,15.7956818 L2.0967975,0.795681832 C1.93349694,0.572999241 1.98163558,0.260098069 2.20431817,0.0967975021 C2.40225825,-0.0483585571 2.67148215,-0.0264515379 2.84355718,0.136605839 Z M5.46,1.99995562 L15,1.99995562 C15.5522847,1.99995562 16,2.44771525 16,3 L16,13 C16,13.5522847 15.5522847,14 15,14 L14.26,14 L13.527,12.9999556 L15,13 L15,3 L6.193,2.99995562 L5.46,1.99995562 Z"/>
</svg>
