<svg xmlns="http://www.w3.org/2000/svg" width="19" height="18" viewBox="0 0 19 18">
  <path d="M3,3 L3,16 L2,16 L2,3 L3,3 Z M15,3 L15,16 L14,16 L14,3 L15,3 Z M8,4 L9,4 C10.1045695,4 11,4.8954305 11,6 L11,13 C11,14.1045695 10.1045695,15 9,15 L8,15 C6.8954305,15 6,14.1045695 6,13 L6,6 C6,4.8954305 6.8954305,4 8,4 Z M9,5 L8,5 C7.44771525,5 7,5.44771525 7,6 L7,13 C7,13.5522847 7.44771525,14 8,14 L9,14 C9.55228475,14 10,13.5522847 10,13 L10,6 C10,5.44771525 9.55228475,5 9,5 Z" transform="translate(1)"/>
</svg>
