<svg xmlns="http://www.w3.org/2000/svg" width="24" height="24" viewBox="0 0 24 24">
  <path d="M21,4 L21,21 L20,21 L20,4 L21,4 Z M5,4 L5,21 L4,21 L4,4 L5,4 Z M14,5 C15.1045695,5 16,5.8954305 16,7 L16,18 C16,19.1045695 15.1045695,20 14,20 L11,20 C9.8954305,20 9,19.1045695 9,18 L9,7 C9,5.8954305 9.8954305,5 11,5 L14,5 Z M14,6 L11,6 C10.4477153,6 10,6.44771525 10,7 L10,18 C10,18.5522847 10.4477153,19 11,19 L14,19 C14.5522847,19 15,18.5522847 15,18 L15,7 C15,6.44771525 14.5522847,6 14,6 Z"/>
</svg>
