<svg xmlns="http://www.w3.org/2000/svg" width="24" height="24" viewBox="0 0 24 24">
  <path d="M20,17 L20,18 L3,18 L3,17 L20,17 Z M11.5,11 C12.3284271,11 13,11.6715729 13,12.5 C13,13.3284271 12.3284271,14 11.5,14 C10.6715729,14 10,13.3284271 10,12.5 C10,11.6715729 10.6715729,11 11.5,11 Z M8,12 L8,13 L3,13 L3,12 L8,12 Z M20,12 L20,13 L15,13 L15,12 L20,12 Z M11.5,12 C11.2238576,12 11,12.2238576 11,12.5 C11,12.7761424 11.2238576,13 11.5,13 C11.7761424,13 12,12.7761424 12,12.5 C12,12.2238576 11.7761424,12 11.5,12 Z M20,7 L20,8 L3,8 L3,7 L20,7 Z"/>
</svg>
