<svg xmlns="http://www.w3.org/2000/svg" width="18" height="18" viewBox="0 0 18 18">
  <path d="M15,13 L15,14 L2,14 L2,13 L15,13 Z M8.5,8 C9.32842712,8 10,8.67157288 10,9.5 C10,10.3284271 9.32842712,11 8.5,11 C7.67157288,11 7,10.3284271 7,9.5 C7,8.67157288 7.67157288,8 8.5,8 Z M6,9 L6,10 L2,10 L2,9 L6,9 Z M15,9 L15,10 L11,10 L11,9 L15,9 Z M8.5,9 C8.22385763,9 8,9.22385763 8,9.5 C8,9.77614237 8.22385763,10 8.5,10 C8.77614237,10 9,9.77614237 9,9.5 C9,9.22385763 8.77614237,9 8.5,9 Z M15,5 L15,6 L2,6 L2,5 L15,5 Z"/>
</svg>
