<svg xmlns="http://www.w3.org/2000/svg" width="25" height="24" viewBox="0 0 25 24">
  <path d="M16,17 L16,19 C16,19.5522847 15.5522847,20 15,20 L7,20 C6.44771525,20 6,19.5522847 6,19 L6,8 C6,7.44771525 6.44771525,7 7,7 L9,7 L9,5 C9,4.44771525 9.44771525,4 10,4 L14.7099045,4 L19,8.2995551 L19,16 C19,16.5522847 18.5522847,17 18,17 L16,17 Z M15,17 L10,17 C9.44771525,17 9,16.5522847 9,16 L9,8 L7,8 L7,19 L15,19 L15,17 Z M10,5 L10,16 L18,16 L18,9 L14,9 L14,5 L10,5 Z M15,5.70710678 L15,8 L17.2928932,8 L15,5.70710678 Z" transform="translate(1)"/>
</svg>
