<svg xmlns="http://www.w3.org/2000/svg" width="24" height="24" viewBox="0 0 24 24">
  <path d="M12,20 L7,20 C6.44771525,20 6,19.5522847 6,19 L6,6 C6,5.44771525 6.44771525,5 7,5 L12.7099045,5 L17,9.2995551 L17,11 L16,11 L16,10 L12,10 L12,6 L7,6 L7,19 L12,19 L12,20 Z M13,6.70710678 L13,9 L15.2928932,9 L13,6.70710678 Z M18.2928932,17 L13,17 L13,16 L18.2928932,16 L16.1479627,13.8564558 C15.9527006,13.6613199 15.9525982,13.3448398 16.1477342,13.1495776 C16.343123,12.9541888 16.6597151,12.9541543 16.8550322,13.1493863 L20.2071068,16.5 L16.8548602,19.8540474 C16.6597029,20.0493095 16.3432055,20.0493945 16.1479433,19.8542372 C15.9525635,19.6588574 15.9525004,19.3422574 16.1477076,19.1468948 L18.2928932,17 Z"/>
</svg>
