<svg xmlns="http://www.w3.org/2000/svg" width="18" height="18" viewBox="0 0 18 18">
  <path d="M15,5 C15.5522847,5 16,5.44771525 16,6 L16,12 C16,12.5522847 15.5522847,13 15,13 L3,13 C2.44771525,13 2,12.5522847 2,12 L2,6 C2,5.44771525 2.44771525,5 3,5 L15,5 Z M15,6 L3,6 L3,12 L15,12 L15,6 Z M9.7843055,7.58859116 L9.85355339,7.64644661 L11.5,9.293 L13.1464466,7.64644661 C13.320013,7.47288026 13.5894374,7.45359511 13.7843055,7.58859116 L13.8535534,7.64644661 C14.0271197,7.82001296 14.0464049,8.08943736 13.9114088,8.2843055 L13.8535534,8.35355339 L11.5,10.7071068 L9.14644661,8.35355339 C8.95118446,8.15829124 8.95118446,7.84170876 9.14644661,7.64644661 C9.32001296,7.47288026 9.58943736,7.45359511 9.7843055,7.58859116 Z"/>
</svg>
