<svg xmlns="http://www.w3.org/2000/svg" width="24" height="24" viewBox="0 0 24 24">
  <path d="M19,7 C19.5522847,7 20,7.44771525 20,8 L20,16 C20,16.5522847 19.5522847,17 19,17 L5,17 C4.44771525,17 4,16.5522847 4,16 L4,8 C4,7.44771525 4.44771525,7 5,7 L19,7 Z M19,8 L5,8 L5,16 L19,16 L19,8 Z M12.7843055,11.0885912 L12.8535534,11.1464466 L14.5,12.793 L16.1464466,11.1464466 C16.320013,10.9728803 16.5894374,10.9535951 16.7843055,11.0885912 L16.8535534,11.1464466 C17.0271197,11.320013 17.0464049,11.5894374 16.9114088,11.7843055 L16.8535534,11.8535534 L14.5,14.2071068 L12.1464466,11.8535534 C11.9511845,11.6582912 11.9511845,11.3417088 12.1464466,11.1464466 C12.320013,10.9728803 12.5894374,10.9535951 12.7843055,11.0885912 Z"/>
</svg>
