<svg xmlns="http://www.w3.org/2000/svg" width="18" height="18" viewBox="0 0 18 18">
  <path d="M15,5.7453877 L15,13 C15,13.5522847 14.5522847,14 14,14 L4,14 C3.44771525,14 3,13.5522847 3,13 L3,5.7453877 L8.11774245,2.02339319 C8.64371822,1.64086536 9.35628178,1.64086536 9.88225755,2.02339319 L15,5.7453877 Z M14,7.60207025 L9.94283566,10.8809072 C9.39285389,11.3253803 8.60714611,11.3253803 8.05716434,10.8809072 L4,7.60207025 L4,13 L14,13 L14,7.60207025 Z M9,10.357131 C12.3557638,7.64815991 14.0336456,6.28986351 14.0336456,6.28224182 C14.0336456,6.27462013 12.3557638,5.05328907 9,2.61824866 L3.96148682,6.28224182 L9,10.357131 Z"/>
</svg>
