<svg xmlns="http://www.w3.org/2000/svg" width="18" height="18" viewBox="0 0 18 18">
  <path d="M4,5 L14,5 C14.5522847,5 15,5.44771525 15,6 L15,13 C15,13.5522847 14.5522847,14 14,14 L4,14 C3.44771525,14 3,13.5522847 3,13 L3,6 C3,5.44771525 3.44771525,5 4,5 Z M14,7.55512138 L9.63323779,11.1279268 C9.26487191,11.4293171 8.73512809,11.4293171 8.36676221,11.1279268 L4,7.55512138 L4,13 L14,13 L14,7.55512138 Z M3.99666738,6.47350069 L9,10.3539695 L14.0140686,6.45847751 L14.0140686,6 L3.99666738,6 L3.99666738,6.47350069 Z"/>
</svg>
