<svg xmlns="http://www.w3.org/2000/svg" width="18" height="18" viewBox="0 0 18 18">
  <path d="M3.00084252,6.85 L2.99124403,5 L14,5 C14.5522847,5 15,5.44771525 15,6 L15,13 C15,13.5522847 14.5522847,14 14,14 L2.00084252,14 L2,13 L14,13 L14,7.55512138 L9.63323779,11.1279268 C9.26487191,11.4293171 8.73512809,11.4293171 8.36676221,11.1279268 L3.00084252,6.85 Z M3.99666738,6.47350069 L9,10.3539695 L14.0140686,6.45847751 L14.0140686,6 L3.99666738,6 L3.99666738,6.47350069 Z M2,11 L6,11 L6,12 L2,12 L2,11 Z M2,9 L5,9 L5,10 L2,10 L2,9 Z"/>
</svg>
