<svg xmlns="http://www.w3.org/2000/svg" width="18" height="18" viewBox="0 0 18 18">
  <path d="M12,4 C12.5522847,4 13,4.44771525 13,5 L13,6 L12,6 L12,5 L6,5 L6,14 L12,14 L12,13 L13,13 L13,14 C13,14.5522847 12.5522847,15 12,15 L6,15 C5.44771525,15 5,14.5522847 5,14 L5,5 C5,4.44771525 5.44771525,4 6,4 L12,4 Z M10.2156945,7.08859116 C10.3862041,6.97046961 10.6137959,6.97046961 10.7843055,7.08859116 L10.8535534,7.14644661 L10.9114088,7.2156945 C11.0295304,7.38620412 11.0295304,7.61379588 10.9114088,7.7843055 L10.8535534,7.85355339 L9.707,9 L16,9 L16,10 L9.707,10 L10.8535534,11.1464466 L10.9114088,11.2156945 C11.0464049,11.4105626 11.0271197,11.679987 10.8535534,11.8535534 C10.679987,12.0271197 10.4105626,12.0464049 10.2156945,11.9114088 L10.1464466,11.8535534 L8.14644661,9.85355339 C7.97288026,9.67998704 7.95359511,9.41056264 8.08859116,9.2156945 L8.14644661,9.14644661 L10.1464466,7.14644661 L10.2156945,7.08859116 Z"/>
</svg>
