<svg xmlns="http://www.w3.org/2000/svg" width="24" height="24" viewBox="0 0 24 24">
  <path d="M17,5 C17.5522847,5 18,5.44771525 18,6 L18,7 L17,7 L17,6 L8,6 L8,19 L17,19 L17,18 L18,18 L18,19 C18,19.5522847 17.5522847,20 17,20 L8,20 C7.44771525,20 7,19.5522847 7,19 L7,6 C7,5.44771525 7.44771525,5 8,5 L17,5 Z M15.2074102,9.08859116 C15.3779198,8.97046961 15.6055116,8.97046961 15.7760212,9.08859116 L15.8452691,9.14644661 L15.9031246,9.2156945 C16.0212461,9.38620412 16.0212461,9.61379588 15.9031246,9.7843055 L15.8452691,9.85355339 L13.6987157,12 L21.9917157,12 L21.9917157,13 L13.6987157,13 L15.8452691,15.1464466 L15.9031246,15.2156945 C16.0381206,15.4105626 16.0188355,15.679987 15.8452691,15.8535534 C15.6717028,16.0271197 15.4022784,16.0464049 15.2074102,15.9114088 L15.1381623,15.8535534 L12.1523045,12.8676955 L12.0921348,12.7956777 C11.9692884,12.6183477 11.9692884,12.3816523 12.0921348,12.2043223 L12.1523045,12.1323045 L15.1381623,9.14644661 L15.2074102,9.08859116 Z"/>
</svg>
