<svg xmlns="http://www.w3.org/2000/svg" width="24" height="24" viewBox="0 0 24 24">
  <path d="M16,5 C16.5522847,5 17,5.44771525 17,6 L17,7 L16,7 L16,6 L7,6 L7,19 L16,19 L16,18 L17,18 L17,19 C17,19.5522847 16.5522847,20 16,20 L7,20 C6.44771525,20 6,19.5522847 6,19 L6,6 C6,5.44771525 6.44771525,5 7,5 L16,5 Z M17.7843055,9.08859116 L17.8535534,9.14644661 L20.8394113,12.1323045 C21.0199203,12.3128135 21.0399768,12.5930149 20.8995809,12.7956777 L20.8394113,12.8676955 L17.8535534,15.8535534 C17.6582912,16.0488155 17.3417088,16.0488155 17.1464466,15.8535534 C16.9728803,15.679987 16.9535951,15.4105626 17.0885912,15.2156945 L17.1464466,15.1464466 L19.293,13 L11,13 L11,12 L19.293,12 L17.1464466,9.85355339 C16.9728803,9.67998704 16.9535951,9.41056264 17.0885912,9.2156945 L17.1464466,9.14644661 C17.320013,8.97288026 17.5894374,8.95359511 17.7843055,9.08859116 Z"/>
</svg>
