<svg xmlns="http://www.w3.org/2000/svg" width="18" height="18" viewBox="0 0 18 18">
  <path d="M12,4 C12.5522847,4 13,4.44771525 13,5 L13,6 L12,6 L12,5 L6,5 L6,14 L12,14 L12,13 L13,13 L13,14 C13,14.5522847 12.5522847,15 12,15 L6,15 C5.44771525,15 5,14.5522847 5,14 L5,5 C5,4.44771525 5.44771525,4 6,4 L12,4 Z M13.7843055,7.08859116 L13.8535534,7.14644661 L15.8535534,9.14644661 C16.0488155,9.34170876 16.0488155,9.65829124 15.8535534,9.85355339 L13.8535534,11.8535534 C13.6582912,12.0488155 13.3417088,12.0488155 13.1464466,11.8535534 C12.9728803,11.679987 12.9535951,11.4105626 13.0885912,11.2156945 L13.1464466,11.1464466 L14.293,10 L8,10 L8,9 L14.293,9 L13.1464466,7.85355339 C12.9728803,7.67998704 12.9535951,7.41056264 13.0885912,7.2156945 L13.1464466,7.14644661 C13.320013,6.97288026 13.5894374,6.95359511 13.7843055,7.08859116 Z"/>
</svg>
