<svg xmlns="http://www.w3.org/2000/svg" width="24" height="24" viewBox="0 0 24 24">
  <path d="M11,6 L11,7 L7,7 C6.44771525,7 6,7.44771525 6,8 L6,17 C6,17.5522847 6.44771525,18 7,18 L16,18 C16.5522847,18 17,17.5522847 17,17 L17,13 L18,13 L18,17 C18,18.1045695 17.1045695,19 16,19 L7,19 C5.8954305,19 5,18.1045695 5,17 L5,8 C5,6.8954305 5.8954305,6 7,6 L11,6 Z M18,6 L18,10 L17,10 L17,7.75 L11.9040467,12.8434838 C11.69694,13.0505906 11.3611535,13.0505906 11.1540467,12.8434838 C10.94694,12.636377 10.94694,12.3005906 11.1540467,12.0934838 L16.25,7 L14,7 L14,6 L18,6 Z"/>
</svg>
