<svg xmlns="http://www.w3.org/2000/svg" width="24" height="24" viewBox="0 0 24 24">
  <path d="M12,3 C16.9705664,3 21,7.02943359 21,12 C21,16.4921602 17.7088301,20.2154883 13.40625,20.8906641 L13.40625,14.6015625 L15.5033203,14.6015625 L15.9023438,12 L13.40625,12 L13.40625,10.3117441 C13.40625,9.60000586 13.7549121,8.90625 14.8729336,8.90625 L16.0078125,8.90625 L16.0078125,6.69140625 C16.0078125,6.69140625 14.9778574,6.515625 13.9931836,6.515625 C11.9373867,6.515625 10.59375,7.7615625 10.59375,10.0171875 L10.59375,12 L8.30859375,12 L8.30859375,14.6015625 L10.59375,14.6015625 L10.59375,20.8906641 C6.29116992,20.2154883 3,16.4921602 3,12 C3,7.02943359 7.02943359,3 12,3 Z"/>
</svg>
