<svg xmlns="http://www.w3.org/2000/svg" width="24" height="24" viewBox="0 0 24 24">
  <path d="M12,21.3263688 C11.0907446,21.758309 10.0735973,22 9,22 C5.13400675,22 2,18.8659932 2,15 C2,12.6027762 3.20502181,10.4870003 5.04237604,9.22536176 C5.4278492,5.72388884 8.39582544,3 12,3 C15.6041746,3 18.5721508,5.72388884 18.957624,9.22536176 C20.7949782,10.4870003 22,12.6027762 22,15 C22,18.8659932 18.8659932,22 15,22 C13.9264027,22 12.9092554,21.758309 12,21.3263688 L12,21.3263688 Z M13.082318,20.6870083 C13.6844726,20.8899812 14.3293881,21 15,21 C18.3137085,21 21,18.3137085 21,15 C21,13.2141401 20.219776,11.6105113 18.9816048,10.5113904 C18.8238431,12.6964092 17.663162,14.6035126 15.957624,15.7746382 C15.7350846,17.7960902 14.6518168,19.5583794 13.082318,20.6870083 L13.082318,20.6870083 Z M12,8.67363116 C12.9092554,8.24169105 13.9264027,8 15,8 C16.009234,8 16.9685836,8.21358045 17.8353153,8.59800781 C17.2039581,5.96058379 14.8309385,4 12,4 C9.16906149,4 6.79604186,5.96058379 6.16468467,8.59800781 C7.03141636,8.21358045 7.99076598,8 9,8 C10.0735973,8 11.0907446,8.24169105 12,8.67363116 L12,8.67363116 Z M13.082318,9.31299169 C14.71958,10.4903492 15.8277185,12.3572647 15.9816048,14.4886096 C17.219776,13.3894887 18,11.7858599 18,10 C18,9.9333466 17.9989132,9.86694704 17.9967562,9.80081809 C17.1149696,9.29146747 16.0915227,9 15,9 C14.3293881,9 13.6844726,9.11001882 13.082318,9.31299169 L13.082318,9.31299169 Z M10.917682,20.6870083 C9.34818316,19.5583794 8.26491538,17.7960902 8.04237604,15.7746382 C6.33683798,14.6035126 5.17615687,12.6964092 5.01839516,10.5113904 C3.78022401,11.6105113 3,13.2141401 3,15 C3,18.3137085 5.6862915,21 9,21 C9.67061186,21 10.3155274,20.8899812 10.917682,20.6870083 L10.917682,20.6870083 Z M12,20.1973068 C13.4035521,19.3853958 14.4476886,18.0212595 14.8353153,16.4019922 C13.9685836,16.7864195 13.009234,17 12,17 C10.990766,17 10.0314164,16.7864195 9.16468467,16.4019922 C9.55231141,18.0212595 10.5964479,19.3853958 12,20.1973068 L12,20.1973068 Z M10.917682,9.31299169 C10.3155274,9.11001882 9.67061186,9 9,9 C7.90847728,9 6.88503044,9.29146747 6.00324379,9.80081809 C6.00108685,9.86694704 6,9.9333466 6,10 C6,11.7858599 6.78022401,13.3894887 8.01839516,14.4886096 C8.17228153,12.3572647 9.28042001,10.4903492 10.917682,9.31299169 L10.917682,9.31299169 Z M12,9.80269317 C10.2065959,10.8401214 9,12.7791529 9,15 C9,15.0666534 9.00108685,15.133053 9.00324379,15.1991819 C9.88503044,15.7085325 10.9084773,16 12,16 C13.0915227,16 14.1149696,15.7085325 14.9967562,15.1991819 C14.9989132,15.133053 15,15.0666534 15,15 C15,12.7791529 13.7934041,10.8401214 12,9.80269317 L12,9.80269317 Z"/>
</svg>
