<svg xmlns="http://www.w3.org/2000/svg" width="18" height="18" viewBox="0 0 18 18">
  <path d="M4,11 L4,14 L7,14 L7,15 L4,15 C3.44771525,15 3,14.5522847 3,14 L3,11 L4,11 Z M15,11 L15,14 C15,14.5522847 14.5522847,15 14,15 L11,15 L11,14 L14,14 L14,11 L15,11 Z M9,6 C10.6568542,6 12,7.34314575 12,9 C12,10.6568542 10.6568542,12 9,12 C7.34314575,12 6,10.6568542 6,9 C6,7.34314575 7.34314575,6 9,6 Z M9,7 C7.8954305,7 7,7.8954305 7,9 C7,10.1045695 7.8954305,11 9,11 C10.1045695,11 11,10.1045695 11,9 C11,7.8954305 10.1045695,7 9,7 Z M14,3 C14.5522847,3 15,3.44771525 15,4 L15,7 L14,7 L14,4 L11,4 L11,3 L14,3 Z M7,3 L7,4 L4,4 L4,7 L3,7 L3,4 C3,3.44771525 3.44771525,3 4,3 L7,3 Z"/>
</svg>
