<svg xmlns="http://www.w3.org/2000/svg" width="24" height="24" viewBox="0 0 24 24">
  <path d="M5,16 L5,19 L8,19 L8,20 L5,20 C4.44771525,20 4,19.5522847 4,19 L4,16 L5,16 Z M19,16 L19,19 C19,19.5522847 18.5522847,20 18,20 L15,20 L15,19 L18,19 L18,16 L19,16 Z M11.5,9 C13.4329966,9 15,10.5670034 15,12.5 C15,14.4329966 13.4329966,16 11.5,16 C9.56700338,16 8,14.4329966 8,12.5 C8,10.5670034 9.56700338,9 11.5,9 Z M11.5,10 C10.1192881,10 9,11.1192881 9,12.5 C9,13.8807119 10.1192881,15 11.5,15 C12.8807119,15 14,13.8807119 14,12.5 C14,11.1192881 12.8807119,10 11.5,10 Z M8,5 L8,6 L5,6 L5,9 L4,9 L4,6 C4,5.44771525 4.44771525,5 5,5 L8,5 Z M18,5 C18.5522847,5 19,5.44771525 19,6 L19,9 L18,9 L18,6 L15,6 L15,5 L18,5 Z"/>
</svg>
