<svg xmlns="http://www.w3.org/2000/svg" width="18" height="18" viewBox="0 0 18 18">
  <path d="M4,12 L4,14 L6,14 L6,15 L4,15 C3.44771525,15 3,14.5522847 3,14 L3,12 L4,12 Z M14,12 L14,14 C14,14.5522847 13.5522847,15 13,15 L11,15 L11,14 L13,14 L13,12 L14,12 Z M8.5,7 C9.88071187,7 11,8.11928813 11,9.5 C11,10.8807119 9.88071187,12 8.5,12 C7.11928813,12 6,10.8807119 6,9.5 C6,8.11928813 7.11928813,7 8.5,7 Z M8.5,8 C7.67157288,8 7,8.67157288 7,9.5 C7,10.3284271 7.67157288,11 8.5,11 C9.32842712,11 10,10.3284271 10,9.5 C10,8.67157288 9.32842712,8 8.5,8 Z M13,4 C13.5522847,4 14,4.44771525 14,5 L14,7 L13,7 L13,5 L11,5 L11,4 L13,4 Z M6,4 L6,5 L4,5 L4,7 L3,7 L3,5 C3,4.44771525 3.44771525,4 4,4 L6,4 Z"/>
</svg>
