<svg xmlns="http://www.w3.org/2000/svg" width="24" height="24" viewBox="0 0 24 24">
  <path d="M20,10 L19,10 L19,8 L5,8 L5,19 L11,19 L11,20 L5,20 C4.44771525,20 4,19.5522847 4,19 L4,5 C4,4.44771525 4.44771525,4 5,4 L9.38196601,4 C9.76073807,4 10.1070012,4.21400238 10.2763932,4.5527864 L11.5,7 L19,7 C19.5522847,7 20,7.44771525 20,8 L20,10 Z M5,7 L10.381966,7 L9.38196601,5 L5,5 L5,7 Z M19.3088429,19.0159497 C18.5390075,19.6317636 17.5625069,20 16.5,20 C14.0147186,20 12,17.9852814 12,15.5 C12,13.0147186 14.0147186,11 16.5,11 C18.9852814,11 21,13.0147186 21,15.5 C21,16.5625069 20.6317636,17.5390075 20.0159497,18.3088429 L21.8535534,20.1464466 C22.0488155,20.3417088 22.0488155,20.6582912 21.8535534,20.8535534 C21.6582912,21.0488155 21.3417088,21.0488155 21.1464466,20.8535534 L19.3088429,19.0159497 Z M16.5,19 C18.4329966,19 20,17.4329966 20,15.5 C20,13.5670034 18.4329966,12 16.5,12 C14.5670034,12 13,13.5670034 13,15.5 C13,17.4329966 14.5670034,19 16.5,19 Z"/>
</svg>
