<svg xmlns="http://www.w3.org/2000/svg" width="18" height="18" viewBox="0 0 18 18">
  <path d="M9,15 L2,15 L2,14 L3,14 L3,11.5 C3,8.63097872 5.19674999,6.2750359 8,6.02242151 L8,5 L7,5 L7,4 L10,4 L10,5 L9,5 L9,6.02242151 C10.9259084,6.19597441 12.5655451,7.3623111 13.4032224,9.00574387 C12.9509094,9 13,9 12.2476745,9.00815958 C11.4411594,7.79759702 10.0637241,7 8.5,7 C6.01471863,7 4,9.01471863 4,11.5 C4,11.6126697 4.00168096,12.446003 4.00504288,14 L9,14 L9,15 Z M15.1464466,11.1464466 C15.3417088,10.9511845 15.6582912,10.9511845 15.8535534,11.1464466 C16.0488155,11.3417088 16.0488155,11.6582912 15.8535534,11.8535534 L12.5,15.2071068 L11.1464466,13.8535534 C10.9511845,13.6582912 10.9511845,13.3417088 11.1464466,13.1464466 C11.3417088,12.9511845 11.6582912,12.9511845 11.8535534,13.1464466 L12.5,13.7928932 L15.1464466,11.1464466 Z"/>
</svg>
