<svg xmlns="http://www.w3.org/2000/svg" width="24" height="24" viewBox="0 0 24 24">
  <path fill-rule="evenodd" d="M15,5 C15.5522847,5 16,5.44771525 16,6 L16,9 L19,9 C19.5522847,9 20,9.44771525 20,10 L20,19 C20,19.5522847 19.5522847,20 19,20 L10,20 C9.44771525,20 9,19.5522847 9,19 L9,16 L6,16 C5.44771525,16 5,15.5522847 5,15 L5,6 C5,5.44771525 5.44771525,5 6,5 L15,5 Z M19,10.706 L16,13.706 L16,15 C16,15.5522847 15.5522847,16 15,16 L13.706,16 L10.706,19 L14.292,19 L19,14.292 L19,10.706 Z M19,15.706 L15.706,19 L19,19 L19,15.706 Z M12.291,16 L10,16 L10,18.292 L12.291,16 Z M15,6 L6,6 L6,15 L15,15 L15,6 Z M16,12.291 L18.292,10 L16,10 L16,12.291 Z"/>
</svg>
