<svg xmlns="http://www.w3.org/2000/svg" width="24" height="24" viewBox="0 0 24 24">
  <path d="M9,8 C7.8954305,8 7,7.1045695 7,6 C7,4.8954305 7.8954305,4 9,4 C10.1516383,4 10.9849717,4.63661002 11.5,5.90983006 C12.0150283,4.63661002 12.8483617,4 14,4 C15.1045695,4 16,4.8954305 16,6 C16,7.1045695 15.1045695,8 14,8 L18,8 C18.5522847,8 19,8.44771525 19,9 L19,12 L18,12 L18,18 C18,18.5522847 17.5522847,19 17,19 L6,19 C5.44771525,19 5,18.5522847 5,18 L5,12 L4,12 L4,9 C4,8.44771525 4.44771525,8 5,8 L9,8 Z M12,9 L12,11 L18,11 L18,9 L12,9 Z M11,9 L5,9 L5,11 L11,11 L11,9 Z M11,12 L6,12 L6,18 L11,18 L11,12 Z M12,12 L12,18 L17,18 L17,12 L12,12 Z M14,7 C14.5522847,7 15,6.55228475 15,6 C15,5.44771525 14.5522847,5 14,5 C13.1439485,5 12.539174,5.59034866 12.1926468,7 L14,7 Z M9,7 L10.8073532,7 C10.460826,5.59034866 9.85605153,5 9,5 C8.44771525,5 8,5.44771525 8,6 C8,6.55228475 8.44771525,7 9,7 Z"/>
</svg>
