<svg xmlns="http://www.w3.org/2000/svg" width="24" height="24" viewBox="0 0 24 24">
  <path d="M12.1300001,19 C8.71470521,19 6,16.2852416 6,12.8699999 C6,9.4547582 8.71470521,6.73999977 12.1300001,6.73999977 C13.793874,6.73999977 15.1950002,7.35298914 16.2458315,8.40387367 L14.5819576,9.98014725 C14.1441156,9.54230531 13.3559788,9.01686304 12.1299469,9.01686304 C10.0282843,9.01686304 8.36441037,10.768284 8.36441037,12.8699999 C8.36441037,14.9717157 10.0282843,16.7231367 12.1299469,16.7231367 C14.5819576,16.7231367 15.4576415,14.9717157 15.6327889,14.0959786 L12.1299469,14.0959786 L12.1299469,11.9942628 L17.9096522,11.9942628 C17.9972525,12.3445576 17.9972525,12.6072521 17.9972525,13.0451473 C17.9973057,16.5479893 15.6328421,19 12.1300001,19 Z"/>
</svg>
