<svg xmlns="http://www.w3.org/2000/svg" width="24" height="24" viewBox="0 0 24 24">
  <path d="M20,6 L20,18 C20,18.5522847 19.5522847,19 19,19 L5,19 C4.44771525,19 4,18.5522847 4,18 L4,6 C4,5.44771525 4.44771525,5 5,5 L19,5 C19.5522847,5 20,5.44771525 20,6 Z M19,6 L5,6 L5,18 L19,18 L19,6 Z M8,15 L8,17 L6,17 L6,15 L8,15 Z M11,15 L11,17 L9,17 L9,15 L11,15 Z M8,12 L8,14 L6,14 L6,12 L8,12 Z M18,10 L18,12 L16,12 L16,10 L18,10 Z M18,7 L18,9 L16,9 L16,7 L18,7 Z M15,7 L15,9 L13,9 L13,7 L15,7 Z"/>
</svg>
