<svg xmlns="http://www.w3.org/2000/svg" width="18" height="18" viewBox="0 0 18 18">
  <path d="M7,7.5 C7,7.57074667 7,7.73741334 7,8 L6.00574179,8 L6,7.5 C6,5.89052429 6.89052429,5 8.5,5 C10.1094757,5 11,5.89052429 11,7.5 L11,7.88196601 C11,8.75655713 10.5351562,9.5322876 9.7236068,9.9472136 C9.2763932,10.1339111 9,10.57652 9,11 L8,11 C8,10.1977479 8.43734741,9.44892883 9.2763932,9.0527864 C9.72346479,8.8417085 10,8.37778507 10,7.88196601 L10,7.5 C10,6.44280904 9.55719096,6 8.5,6 C7.44280904,6 7,6.44280904 7,7.5 Z M8,12 L9,12 L9,13 L8,13 L8,12 Z"/>
</svg>
