<svg xmlns="http://www.w3.org/2000/svg" width="18" height="18" viewBox="0 0 18 18">
  <path d="M9,2 C12.8659932,2 16,5.13400675 16,9 C16,12.8659932 12.8659932,16 9,16 C5.13400675,16 2,12.8659932 2,9 C2,5.13400675 5.13400675,2 9,2 Z M9,3 C5.6862915,3 3,5.6862915 3,9 C3,12.3137085 5.6862915,15 9,15 C10.225696,15 11.3655513,14.6324723 12.3153738,14.0016091 L9,14 L9,13 L13.4716261,13.0006557 C13.9882614,12.4235945 14.394835,11.7459376 14.6583461,11.0006859 L9,11 L9,10 L14.9169061,10.0008069 C14.9715542,9.67534412 15,9.34099399 15,9 C15,8.65914411 14.9715772,8.3249267 14.9169725,7.99958857 L9,8 L9,7 L14.6586844,7.00027121 C14.3953028,6.2549814 13.9888522,5.5772688 13.4723307,5.0001315 L9,5 L9,4 L12.3175358,3.99982758 C11.3672813,3.36808573 10.2266262,3 9,3 Z"/>
</svg>
