<svg xmlns="http://www.w3.org/2000/svg" width="18" height="18" viewBox="0 0 18 18">
  <path d="M10,11 L8,11 L8,14 C8,14.5522847 7.55228475,15 7,15 L5,15 C4.44771525,15 4,14.5522847 4,14 L4,9.7 L3.85254761,9.85205775 C3.66514638,10.0453121 3.35656408,10.0500569 3.16330976,9.86265569 C2.96460026,9.66402767 2.96440602,9.35057325 3.15753601,9.15696395 L9,3.3 L14.8539712,9.15729805 C15.0472321,9.3506687 15.0471876,9.66408172 14.8538718,9.85739746 C14.6612449,10.0500244 14.3489349,10.0500244 14.156308,9.85739746 L14,9.7 L14,14 C14,14.5522847 13.5522847,15 13,15 L11.0010187,14.9997453 C10.4488334,14.9997453 10.0011594,14.5521852 10.0010188,14 L10,11 Z M5,8.7 L5,14 L7,14 L7,11 C7,10.4477153 7.44771525,10 8,10 L10,10 C10.5522847,10 11,10.4477153 11,11 L11,14 L13,14 L13,8.7 L9,4.7 L5,8.7 Z"/>
</svg>
