<svg xmlns="http://www.w3.org/2000/svg" width="18" height="18" viewBox="0 0 18 18">
  <path d="M3,5 L15,5 C15.5522847,5 16,5.44771525 16,6 L16,13 C16,13.5522847 15.5522847,14 15,14 L3,14 C2.44771525,14 2,13.5522847 2,13 L2,6 C2,5.44771525 2.44771525,5 3,5 Z M3,6 L3,13 L15,13 L15,6 L3,6 Z M11.1464466,7.14644661 C11.3417088,6.95118446 11.6582912,6.95118446 11.8535534,7.14644661 C12.0488155,7.34170876 12.0488155,7.65829124 11.8535534,7.85355339 L8.5,11.2071068 L7.14644661,9.85355339 C6.95118446,9.65829124 6.95118446,9.34170876 7.14644661,9.14644661 C7.34170876,8.95118446 7.65829124,8.95118446 7.85355339,9.14644661 L8.5,9.79289322 L11.1464466,7.14644661 Z"/>
</svg>
