<svg xmlns="http://www.w3.org/2000/svg" width="24" height="24" viewBox="0 0 24 24">
  <path d="M11,6 L9,6 L9,5 L14,5 L14,6 L12,6 L12,7.01639665 C15.7450659,7.26277217 18.7535827,10.2562174 19,14 L19,14.7928932 L20,15.7928932 L20,17 L3,17 L3,15.7928932 L4,14.7928932 L4,14 C4.24641732,10.2562174 7.25493411,7.26277217 11,7.01639665 L11,6 Z M5,15.2071068 L4.20710678,16 L18.7928932,16 L18,15.2071068 L17.9974575,14 C17.742145,10.6437761 14.9216149,8 11.5,8 C8.07838512,8 5.25531243,10.6437761 5,14 L5,15.2071068 Z M3,18 L20,18 L20,19 L3,19 L3,18 Z"/>
</svg>
