<svg xmlns="http://www.w3.org/2000/svg" width="24" height="24" viewBox="0 0 24 24">
  <path d="M16.381966,6 C16.7607381,6 17.1070012,6.21400238 17.2763932,6.5527864 L20,12 L20,18 C20,18.5522847 19.5522847,19 19,19 L5,19 C4.44771525,19 4,18.5522847 4,18 L4,12 L6.7236068,6.5527864 C6.89299881,6.21400238 7.23926193,6 7.61803399,6 L16.381966,6 Z M12,16 C10.3434801,16 9.00054204,14.6573962 9,13.0010029 L5,13 L5,18 L19,18 L19,13 L15,13 L14.9949073,13.1762728 C14.9036609,14.75108 13.5976809,16 12,16 Z M10,13 C10,14.1045695 10.8954305,15 12,15 C13.1045695,15 14,14.1045695 14,13 L14,11.998 L14.8286475,11.998172 L18.881,12 L16.381,7 L7.61803399,7 L5.118,12 L10,11.998 L10,13 Z"/>
</svg>
