<svg xmlns="http://www.w3.org/2000/svg" width="18" height="18" viewBox="0 0 18 18">
  <path d="M12.3,5.4 L15,9 L15,9 L15,13 C15,13.5522847 14.5522847,14 14,14 L4,14 C3.44771525,14 3,13.5522847 3,13 L3,9 L3,9 L5.7,5.4 C5.88885438,5.14819416 6.1852427,5 6.5,5 L11.5,5 C11.8147573,5 12.1111456,5.14819416 12.3,5.4 Z M9,12 C7.8954305,12 7,11.1045695 7,10 L4,10 L4,13 L14,13 L14,10 L11,10 C11,11.1045695 10.1045695,12 9,12 Z M11.5,6 L6.5,6 L4.25,9 L8,9 L8,10 C8,10.5522847 8.44771525,11 9,11 C9.55228475,11 10,10.5522847 10,10 L10,9 L13.75,9 L11.5,6 Z"/>
</svg>
