<svg xmlns="http://www.w3.org/2000/svg" width="24" height="24" viewBox="0 0 24 24">
  <path d="M11.5,3 C12.8807119,3 14,4.11928813 14,5.5 C14,6.70932545 13.1413382,7.71809967 12.0004345,7.94990271 L12.0009499,10.0355804 C13.6966339,10.2786039 15,11.7370932 15,13.5 C15,14.1002892 14.8488776,14.665282 14.5826023,15.1590086 L16.7537784,16.7109455 C17.2043851,16.2710606 17.8205378,16 18.5,16 C19.8807119,16 21,17.1192881 21,18.5 C21,19.8807119 19.8807119,21 18.5,21 C17.1192881,21 16,19.8807119 16,18.5 C16,18.1589058 16.06831,17.8337663 16.1919961,17.5375154 L13.9876067,15.9620754 C13.3532513,16.6029676 12.4729916,17 11.5,17 C10.5270084,17 9.64674871,16.6029676 9.01239332,15.9620754 L6.80800394,17.5375154 C6.93168999,17.8337663 7,18.1589058 7,18.5 C7,19.8807119 5.88071187,21 4.5,21 C3.11928813,21 2,19.8807119 2,18.5 C2,17.1192881 3.11928813,16 4.5,16 C5.17946225,16 5.79561489,16.2710606 6.24622156,16.7109455 L8.41739767,15.1590086 C8.15112241,14.665282 8,14.1002892 8,13.5 C8,11.7367468 9.30387842,10.2780307 11.0000497,10.0354373 L11.000574,7.9501074 C9.85916789,7.7186941 9,6.70968176 9,5.5 C9,4.11928813 10.1192881,3 11.5,3 Z M18.5,17 C17.6715729,17 17,17.6715729 17,18.5 C17,19.3284271 17.6715729,20 18.5,20 C19.3284271,20 20,19.3284271 20,18.5 C20,17.6715729 19.3284271,17 18.5,17 Z M4.5,17 C3.67157288,17 3,17.6715729 3,18.5 C3,19.3284271 3.67157288,20 4.5,20 C5.32842712,20 6,19.3284271 6,18.5 C6,17.6715729 5.32842712,17 4.5,17 Z M11.5,11 C10.1192881,11 9,12.1192881 9,13.5 C9,14.8807119 10.1192881,16 11.5,16 C12.8807119,16 14,14.8807119 14,13.5 C14,12.1192881 12.8807119,11 11.5,11 Z M11.5,4 C10.6715729,4 10,4.67157288 10,5.5 C10,6.32842712 10.6715729,7 11.5,7 C12.3284271,7 13,6.32842712 13,5.5 C13,4.67157288 12.3284271,4 11.5,4 Z"/>
</svg>
