<svg xmlns="http://www.w3.org/2000/svg" width="18" height="18" viewBox="0 0 18 18">
  <path d="M11,3 C11.5522847,3 12,3.44771525 12,4 L12,6 L14,6 C14.5522847,6 15,6.44771525 15,7 L15,14 C15,14.5522847 14.5522847,15 14,15 L7,15 C6.44771525,15 6,14.5522847 6,14 L6,12 L4,12 C3.44771525,12 3,11.5522847 3,11 L3,4 C3,3.44771525 3.44771525,3 4,3 L11,3 Z M14,7 L12,7 L12,11 C12,11.5522847 11.5522847,12 11,12 L7,12 L7,14 L14,14 L14,7 Z M11,4 L4,4 L4,11 L6,11 L6,7 C6,6.44771525 6.44771525,6 7,6 L11,6 L11,4 Z"/>
</svg>
