<svg xmlns="http://www.w3.org/2000/svg" width="18" height="18" viewBox="0 0 18 18">
  <path d="M8.5,2 C9.32842712,2 10,2.67157288 10,3.5 C10,4.1528467 9.58293192,4.70828193 9.00070296,4.91439849 L9.00043449,7.05009729 C10.1413382,7.28190033 11,8.29067455 11,9.5 C11,9.85781829 10.9248272,10.198079 10.7894128,10.5058509 L12.7940567,12.1761681 C13.0044505,12.0637394 13.2447817,12 13.5,12 C14.3284271,12 15,12.6715729 15,13.5 C15,14.3284271 14.3284271,15 13.5,15 C12.6715729,15 12,14.3284271 12,13.5 C12,13.2929907 12.0419338,13.0957755 12.1177703,12.9163857 L10.2087617,11.3248768 C9.76175805,11.7436088 9.16082071,12 8.5,12 C7.83917929,12 7.23824195,11.7436088 6.79123832,11.3248768 L4.8822297,12.9163857 C4.95806619,13.0957755 5,13.2929907 5,13.5 C5,14.3284271 4.32842712,15 3.5,15 C2.67157288,15 2,14.3284271 2,13.5 C2,12.6715729 2.67157288,12 3.5,12 C3.75521833,12 3.99554951,12.0637394 4.20594334,12.1761681 L6.21058718,10.5058509 C6.07517282,10.198079 6,9.85781829 6,9.5 C6,8.29031824 6.85916789,7.2813059 8.00057405,7.0498926 L8.00029246,4.91475048 C7.41754351,4.70891488 7,4.15321869 7,3.5 C7,2.67157288 7.67157288,2 8.5,2 Z M13.5,13 C13.2238576,13 13,13.2238576 13,13.5 C13,13.7761424 13.2238576,14 13.5,14 C13.7761424,14 14,13.7761424 14,13.5 C14,13.2238576 13.7761424,13 13.5,13 Z M3.5,13 C3.22385763,13 3,13.2238576 3,13.5 C3,13.7761424 3.22385763,14 3.5,14 C3.77614237,14 4,13.7761424 4,13.5 C4,13.2238576 3.77614237,13 3.5,13 Z M8.5,8 C7.67157288,8 7,8.67157288 7,9.5 C7,10.3284271 7.67157288,11 8.5,11 C9.32842712,11 10,10.3284271 10,9.5 C10,8.67157288 9.32842712,8 8.5,8 Z M8.5,3 C8.22385763,3 8,3.22385763 8,3.5 C8,3.77614237 8.22385763,4 8.5,4 C8.77614237,4 9,3.77614237 9,3.5 C9,3.22385763 8.77614237,3 8.5,3 Z"/>
</svg>
