<svg xmlns="http://www.w3.org/2000/svg" width="24" height="24" viewBox="0 0 24 24">
  <path d="M13,19 L18,19 L18,6 L13,6 L13,19 Z M19,6 L19,19 C19,19.5522847 18.5522847,20 18,20 L12,20 L12,5 L18,5 C18.5522847,5 19,5.44771525 19,6 Z M5,7 L10,7 L10,6 L5,6 L5,7 Z M11,5 L11,8 L4,8 L4,6 C4,5.44771525 4.44771525,5 5,5 L11,5 Z M5,11 L10,11 L10,10 L5,10 L5,11 Z M11,9 L11,12 L4,12 L4,9 L11,9 Z M5,15 L10,15 L10,14 L5,14 L5,15 Z M11,13 L11,16 L4,16 L4,13 L11,13 Z M5,19 L10,19 L10,18 L5,18 L5,19 Z M11,17 L11,20 L5,20 C4.44771525,20 4,19.5522847 4,19 L4,17 L11,17 Z"/>
</svg>
