<svg xmlns="http://www.w3.org/2000/svg" width="24" height="24" viewBox="0 0 24 24">
  <path d="M5,6 L5,7 L18,7 L18,6 L5,6 Z M19,6 L19,8 L4,8 L4,6 C4,5.44771525 4.44771525,5 5,5 L18,5 C18.5522847,5 19,5.44771525 19,6 Z M5,10 L5,11 L18,11 L18,10 L5,10 Z M19,9 L19,12 L4,12 L4,9 L19,9 Z M5,14 L5,15 L18,15 L18,14 L5,14 Z M19,13 L19,16 L4,16 L4,13 L19,13 Z M5,18 L5,19 L18,19 L18,18 L5,18 Z M19,17 L19,19 C19,19.5522847 18.5522847,20 18,20 L5,20 C4.44771525,20 4,19.5522847 4,19 L4,17 L19,17 Z"/>
</svg>
