<svg xmlns="http://www.w3.org/2000/svg" width="24" height="24" viewBox="0 0 24 24">
  <path d="M5,5 L5,9.293 L8,12.293 L9.5,10.7928932 L11.5,12.793 L18.1464466,6.14644661 C18.3417088,5.95118446 18.6582912,5.95118446 18.8535534,6.14644661 C19.0271197,6.32001296 19.0464049,6.58943736 18.9114088,6.7843055 L18.8535534,6.85355339 L11.5,14.2071068 L9.5,12.207 L8.707,13 L11.5,15.793 L18.1464466,9.14644661 L18.2156945,9.08859116 C18.4105626,8.95359511 18.679987,8.97288026 18.8535534,9.14644661 C19.0271197,9.32001296 19.0464049,9.58943736 18.9114088,9.7843055 L18.8535534,9.85355339 L11.5,17.2071068 L8,13.707 L5,16.706 L5,18 L19,18 L19,19 L4,19 L4,5 L5,5 Z M5,10.707 L5,15.292 L7.293,13 L5,10.707 Z"/>
</svg>
