<svg xmlns="http://www.w3.org/2000/svg" width="18" height="18" viewBox="0 0 18 18">
  <path d="M4,4 L4,7.293 L5.5,8.793 L7,7.29289322 L9,9.293 L14.1464466,4.14644661 C14.3417088,3.95118446 14.6582912,3.95118446 14.8535534,4.14644661 C15.0271197,4.32001296 15.0464049,4.58943736 14.9114088,4.7843055 L14.8535534,4.85355339 L9,10.7071068 L7,8.707 L6.207,9.5 L9,12.293 L14.1464466,7.14644661 C14.320013,6.97288026 14.5894374,6.95359511 14.7843055,7.08859116 L14.8535534,7.14644661 C15.0271197,7.32001296 15.0464049,7.58943736 14.9114088,7.7843055 L14.8535534,7.85355339 L9,13.7071068 L5.5,10.207 L4,11.706 L4,14 L15,14 L15,15 L3,15 L3,4 L4,4 Z M4,8.707 L4,10.292 L4.793,9.5 L4,8.707 Z"/>
</svg>
