<svg xmlns="http://www.w3.org/2000/svg" width="24" height="24" viewBox="0 0 24 24">
  <path d="M5.33333333,4 L18.6666667,4 C19.3191292,4 20,4.696 20,5.33333333 L20,18.6666667 C20,19.304 19.3191292,20 18.6666667,20 L5.33333333,20 C4.68220414,20 4,19.304 4,18.6666667 L4,5.33333333 C4,4.696 4.68220414,4 5.33333333,4 Z M18.3610891,17.3333333 L18.3610891,12.2813188 C18.3610891,11.1419759 17.7992011,9.33333333 15.3333333,9.33333333 C14.1790791,9.33333333 13.2228515,10.2609753 12.9063982,10.8614198 L12.9063982,9.33333333 L10.6666667,9.33333333 L10.6666667,17.3333333 L13.0277558,17.3333333 L13.0277558,13.9582909 C13.0277558,12.9618465 13.4315212,12 14.6666667,12 C15.8844783,12 16,12.7346667 16,13.62 L16,17.3333333 L18.3610891,17.3333333 Z M8,8 C8.7591322,8 9.33333333,7.42666667 9.33333333,6.66666667 C9.33333333,5.90711111 8.7591322,5.33333333 8,5.33333333 C7.2377566,5.33333333 6.66666667,5.90711111 6.66666667,6.66666667 C6.66666667,7.42666667 7.2377566,8 8,8 Z M6.66666667,17.3333333 L9.02775576,17.3333333 L9.02775576,9.33333333 L6.66666667,9.33333333 L6.66666667,17.3333333 Z"/>
</svg>
