<svg xmlns="http://www.w3.org/2000/svg" width="18" height="18" viewBox="0 0 18 18">
  <path d="M14.1123087,3 C14.6016556,3 15,3.38733333 15,3.86533333 L15,3.86533333 L15,14.134 C15,14.612 14.6016556,15 14.1123087,15 L14.1123087,15 L3.88502458,15 C3.39667769,15 3,14.612 3,14.134 L3,14.134 L3,3.86533333 C3,3.38733333 3.39667769,3 3.88502458,3 L3.88502458,3 Z M11.2032479,7.93133333 C10.3375571,7.93133333 9.75687434,8.406 9.51953441,8.85633333 L9.51953441,8.85633333 L9.49486706,8.85633333 L9.49486706,8 L7.78881967,8 L7.78881967,14 L9.56653572,14 L9.56653572,10.9676667 C9.56653572,10.2203333 9.70787298,9.49666667 10.634232,9.49666667 C11.5475907,9.49666667 11.5589244,10.351 11.5589244,11.015 L11.5589244,14 L13.3386405,14 L13.3386405,10.6593333 C13.3386405,9.117 13.0056313,7.93133333 11.2032479,7.93133333 Z M7,8 L5,8 L5,14 L7,14 L7,8 Z M6,5 C5.42831745,5 4.96730465,5.46233333 4.96730465,6.032 C4.96730465,6.602 5.42831745,7.06433333 6,7.06433333 C6.56934915,7.06433333 7.03136198,6.602 7.03136198,6.032 C7.03136198,5.46233333 6.56934915,5 6,5 Z"/>
</svg>
