<svg xmlns="http://www.w3.org/2000/svg" width="18" height="18" viewBox="0 0 18 18">
  <path d="M4.73752049,4 L13.2602572,4 C13.6680463,4 14,4.32277778 14,4.72111111 L14,13.2783333 C14,13.6766667 13.6680463,14 13.2602572,14 L4.73752049,14 C4.33056474,14 4,13.6766667 4,13.2783333 L4,4.72111111 C4,4.32277778 4.33056474,4 4.73752049,4 Z M12.6155338,13 L12.6155338,10.3827778 C12.6155338,9.0975 12.338026,8.10944444 10.8360399,8.10944444 C10.1146309,8.10944444 9.63072862,8.505 9.43294535,8.88027778 L9.41238922,8.88027778 L9.41238922,8.22777778 L7.99068306,8.22777778 L7.99068306,13 L9.4721131,13 L9.4721131,10.6397222 C9.4721131,10.0169444 9.58989415,9.41388889 10.36186,9.41388889 C11.1229923,9.41388889 11.132437,10.1258333 11.132437,10.6791667 L11.132437,13 L12.6155338,13 Z M5.85381101,7.57597222 C6.32826863,7.57597222 6.71327933,7.19069444 6.71327933,6.71569444 C6.71327933,6.24097222 6.32826863,5.85569444 5.85381101,5.85569444 C5.37740889,5.85569444 4.99323155,6.24097222 4.99323155,6.71569444 C4.99323155,7.19069444 5.37740889,7.57597222 5.85381101,7.57597222 Z M4.99323155,13 L6.47799501,13 L6.47799501,8.22777778 L4.99323155,8.22777778 L4.99323155,13 Z"/>
</svg>
