<svg xmlns="http://www.w3.org/2000/svg" width="24" height="24" viewBox="0 0 24 24">
  <path d="M11.5,20 C7.16666667,16.6666667 5,13.5 5,10.5 C5,6.91014913 7.91014913,4 11.5,4 C15.0898509,4 18,6.91014913 18,10.5 C18,13.5 15.8333333,16.6666667 11.5,20 Z M17,10.5 C17,7.46243388 14.5375661,5 11.5,5 C8.46243388,5 6,7.46243388 6,10.5 C6,12.9913563 7.8001189,15.7487322 11.5,18.7277004 C15.1998811,15.7487322 17,12.9913563 17,10.5 Z M11.5,14 C9.5670034,14 8,12.4329966 8,10.5 C8,8.56700338 9.5670034,7 11.5,7 C13.4329966,7 15,8.56700338 15,10.5 C15,12.4329966 13.4329966,14 11.5,14 Z M11.5,13 C12.8807119,13 14,11.8807119 14,10.5 C14,9.11928813 12.8807119,8 11.5,8 C10.1192881,8 9,9.11928813 9,10.5 C9,11.8807119 10.1192881,13 11.5,13 Z"/>
</svg>
