<svg xmlns="http://www.w3.org/2000/svg" width="18" height="18" viewBox="0 0 18 18">
  <path d="M9,15.5 C5.66666667,12.8333333 4,10.3690476 4,8.10714286 C4,5.37978862 6.23857625,3 9,3 C11.7614237,3 14,5.37978862 14,8.10714286 C14,10.3690476 12.3333333,12.8333333 9,15.5 Z M13,8.10714286 C13,5.89246213 11.1703143,4 9,4 C6.8296857,4 5,5.89246213 5,8.10714286 C5,9.86725311 6.30381349,11.9168744 9,14.2047449 C11.6961865,11.9168744 13,9.86725311 13,8.10714286 Z M9,9 C9.55228475,9 10,8.55228475 10,8 C10,7.44771525 9.55228475,7 9,7 C8.44771525,7 8,7.44771525 8,8 C8,8.55228475 8.44771525,9 9,9 Z M9,10 C7.8954305,10 7,9.1045695 7,8 C7,6.8954305 7.8954305,6 9,6 C10.1045695,6 11,6.8954305 11,8 C11,9.1045695 10.1045695,10 9,10 Z"/>
</svg>
