<svg xmlns="http://www.w3.org/2000/svg" width="18" height="18" viewBox="0 0 18 18">
  <path d="M9.5,3 C11.4329966,3 13,4.56700338 13,6.5 L13,7 C13.5522847,7 14,7.44771525 14,8 L14,13 C14,14.1045695 13.1045695,15 12,15 L7,15 C5.8954305,15 5,14.1045695 5,13 L5,8 C5,7.44771525 5.44771525,7 6,7 L9,7 L12,7 L12,6.5 C12,5.11928813 10.8807119,4 9.5,4 C8.68209108,4 7.95592007,4.39277665 7.49981691,5 L6.33681558,5 C6.89854755,3.81752633 8.10380202,3 9.5,3 Z M6,8 L6,13 C6,13.5522847 6.44771525,14 7,14 L12,14 C12.5522847,14 13,13.5522847 13,13 L13,8 L6,8 Z M10,10 L10,12 L9,12 L9,10 L10,10 Z"/>
</svg>
