<svg xmlns="http://www.w3.org/2000/svg" width="18" height="18" viewBox="0 0 18 18">
  <path d="M6,6.5 C6,4.56700338 7.56700338,3 9.5,3 C11.4329966,3 13,4.56700338 13,6.5 C13,6.61317378 13,6.77984045 13,7 C13.5522847,7 14,7.44771525 14,8 L14,13 C14,14.1045695 13.1045695,15 12,15 L7,15 C5.8954305,15 5,14.1045695 5,13 L5,8 C5,7.44771525 5.44771525,7 6,7 C6,6.77984045 6,6.61317378 6,6.5 Z M12.0010662,7 C12.0003554,6.78082195 12,6.61415528 12,6.5 C12,5.11928813 10.8807119,4 9.5,4 C8.11928813,4 7,5.11928813 7,6.5 C7,6.61415528 7,6.78082195 7,7 L12.0010662,7 Z M6,8 L6,13 C6,13.5522847 6.44771525,14 7,14 L12,14 C12.5522847,14 13,13.5522847 13,13 L13,8 L6,8 Z M10,12 L9,12 L9,10 L10,10 L10,12 Z"/>
</svg>
