<svg xmlns="http://www.w3.org/2000/svg" width="24" height="24" viewBox="0 0 24 24">
  <path d="M9.59805807,5.00970966 L14.5,5.989 L18.8040721,5.12904486 C18.8685849,5.11615519 18.9342122,5.10966317 19,5.10966317 C19.5128358,5.10966317 19.9355072,5.49570336 19.9932723,5.99304205 L20,6.10966317 L20,18.090098 C20,18.5270557 19.7172804,18.9083312 19.3101248,19.0408499 L19.1961161,19.0706787 L14.5980581,19.9902903 L14.4019419,19.9902903 L9.5,19.01 L5.19609933,19.8707034 C5.13153154,19.8836158 5.06584626,19.8901194 5,19.8901194 C4.48716416,19.8901194 4.06449284,19.5040792 4.00672773,19.0067405 L4,18.8901194 L4,6.90990195 C4,6.47294435 4.28271958,6.09166877 4.68987516,5.95915013 L4.80388386,5.92932128 L9.40194193,5.00970966 L9.59805807,5.00970966 Z M9.5,6.01 L5,6.91 L5,18.889 L9.40194193,18.0097097 L9.59805807,18.0097097 L14.5,18.989 L19,18.089 L19,6.11 L14.5980581,6.99029034 L14.4019419,6.99029034 L9.5,6.01 Z M15,16 L15,18 L14,18 L14,16 L15,16 Z M10,15 L10,17 L9,17 L9,15 L10,15 Z M15,12 L15,14 L14,14 L14,12 L15,12 Z M10,11 L10,13 L9,13 L9,11 L10,11 Z M15,8 L15,10 L14,10 L14,8 L15,8 Z M10,7 L10,9 L9,9 L9,7 L10,7 Z"/>
</svg>
