<svg xmlns="http://www.w3.org/2000/svg" width="18" height="18" viewBox="0 0 18 18">
  <path fill-rule="evenodd" d="M8.35355339,9.64644661 C8.52711974,9.82001296 8.54640489,10.0894374 8.41140884,10.2843055 L8.35355339,10.3535534 L5.706,13 L8,13 L8,14 L4,14 L4,10 L5,10 L5,12.292 L7.64644661,9.64644661 C7.84170876,9.45118446 8.15829124,9.45118446 8.35355339,9.64644661 Z M14,4 L14,8 L13,8 L13,5.706 L10.3535534,8.35355339 C10.1582912,8.54881554 9.84170876,8.54881554 9.64644661,8.35355339 C9.47288026,8.17998704 9.45359511,7.91056264 9.58859116,7.7156945 L9.64644661,7.64644661 L12.292,5 L10,5 L10,4 L14,4 Z"/>
</svg>
