<svg xmlns="http://www.w3.org/2000/svg" width="24" height="24" viewBox="0 0 24 24">
  <path d="M10.8535534,13.1464466 C11.0271197,13.320013 11.0464049,13.5894374 10.9114088,13.7843055 L10.8535534,13.8535534 L6.706,18 L10,18 L10,19 L5,19 L5,14 L6,14 L6,17.292 L10.1464466,13.1464466 C10.3417088,12.9511845 10.6582912,12.9511845 10.8535534,13.1464466 Z M19,5 L19,10 L18,10 L18,6.706 L13.8535534,10.8535534 C13.6582912,11.0488155 13.3417088,11.0488155 13.1464466,10.8535534 C12.9511845,10.6582912 12.9511845,10.3417088 13.1464466,10.1464466 L17.292,6 L14,6 L14,5 L19,5 Z"/>
</svg>
