<svg xmlns="http://www.w3.org/2000/svg" width="18" height="18" viewBox="0 0 18 18">
  <path d="M15.8535534,11.1464466 C16.0271197,11.320013 16.0464049,11.5894374 15.9114088,11.7843055 L15.8535534,11.8535534 L12.5,15.2071068 L11.1464466,13.8535534 C10.9511845,13.6582912 10.9511845,13.3417088 11.1464466,13.1464466 C11.320013,12.9728803 11.5894374,12.9535951 11.7843055,13.0885912 L11.8535534,13.1464466 L12.5,13.793 L15.1464466,11.1464466 C15.3417088,10.9511845 15.6582912,10.9511845 15.8535534,11.1464466 Z M14,6 C14.5522847,6 15,6.44771525 15,7 L15,9 L14,9 L14,7 L4,7 L4,14 L9,14 L9,15 L4,15 C3.44771525,15 3,14.5522847 3,14 L3,7 C3,6.44771525 3.44771525,6 4,6 L14,6 Z M13,4 L13,5 L5,5 L5,4 L13,4 Z"/>
</svg>
