<svg xmlns="http://www.w3.org/2000/svg" width="24" height="24" viewBox="0 0 24 24">
  <path d="M21.8535534,15.1464466 C22.0271197,15.320013 22.0464049,15.5894374 21.9114088,15.7843055 L21.8535534,15.8535534 L17.5,20.2071068 L15.1464466,17.8535534 C14.9511845,17.6582912 14.9511845,17.3417088 15.1464466,17.1464466 C15.320013,16.9728803 15.5894374,16.9535951 15.7843055,17.0885912 L15.8535534,17.1464466 L17.5,18.793 L21.1464466,15.1464466 C21.3417088,14.9511845 21.6582912,14.9511845 21.8535534,15.1464466 Z M19,7 C19.5522847,7 20,7.44771525 20,8 L20,14 L19,14 L19,8 L5,8 L5,18 L13,18 L13,19 L5,19 C4.44771525,19 4,18.5522847 4,18 L4,8 C4,7.44771525 4.44771525,7 5,7 L19,7 Z M18,5 L18,6 L6,6 L6,5 L18,5 Z"/>
</svg>
