<svg xmlns="http://www.w3.org/2000/svg" width="24" height="24" viewBox="0 0 24 24">
  <g fill="none" fill-rule="evenodd">
    <path fill="#000" fill-rule="nonzero" d="M10,20 L10,19 L11.9999663,18.9999663 L12.0003933,16.9776139 C9.19695546,16.7251845 6.99996634,14.3691554 6.99996634,11.5 L6.99996634,10 L8,10 L8,11.5 C8,13.9852814 10.0147186,16 12.5,16 C13.5672186,16 14.5476664,15.6284904 15.3190722,15.0077426 L14.726325,14.2007701 C14.1213187,14.7000658 13.345686,15 12.5,15 C10.5670034,15 9,13.4329966 9,11.5 L9,7.5 C9,7.17600341 9.04402391,6.86228915 9.12641619,6.56451277 L7.0967975,3.79568183 C6.93349694,3.57299924 6.98163558,3.26009807 7.20431817,3.0967975 C7.40225825,2.95164144 7.67148215,2.97354846 7.84355718,3.13660584 L7.9032025,3.20431817 L9.60729792,5.5290502 C10.2374715,4.60595002 11.2979721,4 12.5,4 C14.4329966,4 16,5.56700338 16,7.5 L16,11.5 C16,12.2187787 15.7833303,12.8869515 15.4117413,13.4427681 L16.0317748,14.2889454 C16.5971966,13.5738992 16.9500937,12.6830747 16.995102,11.7118357 L17,11.5 L17,10 L18,10 L18,11.5 C18,12.8858064 17.4874712,14.1519054 16.6416277,15.1190828 L18.9032025,18.2043182 C19.0665031,18.4270008 19.0183644,18.7399019 18.7956818,18.9032025 C18.5977418,19.0483586 18.3285179,19.0264515 18.1564428,18.8633942 L18.0967975,18.7956818 L15.9109209,15.8148652 C15.0962383,16.45975 14.0946241,16.878814 13.0006121,16.9775233 L12.9999663,18.9999663 L15,19 L15,20 L10,20 Z M9.99996634,7.75496634 L9.99996634,11.5 C9.99996634,12.8807119 11.1192881,14 12.5,14 C13.1248021,14 13.696071,13.7707967 14.1343121,13.3918847 L9.99996634,7.75496634 Z M12.5,5 C11.5114903,5 10.6569794,5.57371686 10.2512799,6.40633791 L14.7649485,12.5597067 C14.8937591,12.2848695 14.9740181,11.9827447 14.9946823,11.6643757 L15,11.5 L15,7.5 C15,6.11928813 13.8807119,5 12.5,5 Z"/>
    <path fill="#FFF" fill-rule="nonzero" d="M6.6129545,2.29039251 C5.94490673,2.78029421 5.80049081,3.71899772 6.29039251,4.3870455 L17.2903925,19.3870455 L17.4060507,19.5243871 C17.9921245,20.0853428 18.7998535,20.1402149 19.3870455,19.7096075 C20.0550933,19.2197058 20.1995092,18.2810023 19.7096075,17.6129545 L8.70960749,2.6129545 L8.59394928,2.47561287 L8.53138835,2.41073514 C8.00787553,1.9146572 7.20014645,1.85978508 6.6129545,2.29039251 Z M7.84355718,3.13660584 L7.9032025,3.20431817 L18.9032025,18.2043182 C19.0665031,18.4270008 19.0183644,18.7399019 18.7956818,18.9032025 C18.5977418,19.0483586 18.3285179,19.0264515 18.1564428,18.8633942 L18.0967975,18.7956818 L7.0967975,3.79568183 C6.93349694,3.57299924 6.98163558,3.26009807 7.20431817,3.0967975 C7.40225825,2.95164144 7.67148215,2.97354846 7.84355718,3.13660584 Z"/>
  </g>
</svg>
