<svg xmlns="http://www.w3.org/2000/svg" width="18" height="18" viewBox="0 0 18 18">
  <path d="M16,9 L16,10 L2,10 L2,9 L16,9 Z M12,13 L6,13 L6,15 L12,15 L12,13 Z M13,13 L13,15 C13,15.5522847 12.5522847,16 12,16 L6,16 C5.44771525,16 5,15.5522847 5,15 L5,13 C5,12.4477153 5.44771525,12 6,12 L12,12 C12.5522847,12 13,12.4477153 13,13 Z M13,4 L13,6 C13,6.55228475 12.5522847,7 12,7 L6,7 C5.44771525,7 5,6.55228475 5,6 L5,4 C5,3.44771525 5.44771525,3 6,3 L12,3 C12.5522847,3 13,3.44771525 13,4 Z"/>
</svg>
