<svg xmlns="http://www.w3.org/2000/svg" width="24" height="24" viewBox="0 0 24 24">
  <path d="M9,7.00798298 L16.015966,7.00798298 C16.5574815,7.00798298 17.007983,6.55564244 17.007983,6.00206393 L17.007983,3.01390204 C17.007983,2.45013772 16.567143,2.00798298 16.015966,2.00798298 L9,2.00798298 C8.4584845,2.00798298 8.00798298,2.46032352 8.00798298,3.01390204 L8.00798298,6.00206393 C8.00798298,6.56582825 8.44882302,7.00798298 9,7.00798298 Z M9,8.00798298 C7.89983938,8.00798298 7.00798298,7.12142815 7.00798298,6.00206393 L7.00798298,3.01390204 C7.00798298,1.90606354 7.90815915,1.00798298 9,1.00798298 L16.015966,1.00798298 C17.1161266,1.00798298 18.007983,1.89453782 18.007983,3.01390204 L18.007983,6.00206393 C18.007983,7.10990243 17.1078068,8.00798298 16.015966,8.00798298 L9,8.00798298 Z M8.99201702,23.0059191 C7.8918564,23.0059191 7,22.1193642 7,21 L7,18.0118381 C7,16.9039996 7.90017617,16.0059191 8.99201702,16.0059191 L16.007983,16.0059191 C17.1081436,16.0059191 18,16.8924739 18,18.0118381 L18,21 C18,22.1078385 17.0998238,23.0059191 16.007983,23.0059191 L8.99201702,23.0059191 Z M2,12.5 L2,11.5 L22,11.5 L22,12.5 L2,12.5 Z"/>
</svg>
