<svg xmlns="http://www.w3.org/2000/svg" width="24" height="24" viewBox="0 0 24 24">
  <path d="M17,9 L17,16.015966 C17,16.5574815 17.4523405,17.007983 18.0059191,17.007983 L20.9940809,17.007983 C21.5578453,17.007983 22,16.567143 22,16.015966 L22,9 C22,8.4584845 21.5476595,8.00798298 20.9940809,8.00798298 L18.0059191,8.00798298 C17.4421547,8.00798298 17,8.44882302 17,9 Z M16,9 C16,7.89983938 16.8865548,7.00798298 18.0059191,7.00798298 L20.9940809,7.00798298 C22.1019194,7.00798298 23,7.90815915 23,9 L23,16.015966 C23,17.1161266 22.1134452,18.007983 20.9940809,18.007983 L18.0059191,18.007983 C16.8980806,18.007983 16,17.1078068 16,16.015966 L16,9 Z M1,9 C1,7.89983938 1.88655484,7.00798298 3.00591905,7.00798298 L5.99408095,7.00798298 C7.10191945,7.00798298 8,7.90815915 8,9 L8,16.015966 C8,17.1161266 7.11344516,18.007983 5.99408095,18.007983 L3.00591905,18.007983 C1.89808055,18.007983 1,17.1078068 1,16.015966 L1,9 Z M11.5,2 L12.5,2 L12.5,22 L11.5,22 L11.5,2 Z"/>
</svg>
