<svg xmlns="http://www.w3.org/2000/svg" width="24" height="24" viewBox="0 0 24 24">
  <path d="M7,15 C7.55228475,15 8,15.4477153 8,16 L8,18 C8,18.5522847 7.55228475,19 7,19 L5,19 C4.44771525,19 4,18.5522847 4,18 L4,16 C4,15.4477153 4.44771525,15 5,15 L7,15 Z M20,17 L20,18 L10,18 L10,17 L20,17 Z M7,16 L5,16 L5,18 L7,18 L7,16 Z M7.85355339,10.1464466 C8.02711974,10.320013 8.04640489,10.5894374 7.91140884,10.7843055 L7.85355339,10.8535534 L5.5,13.2071068 L4.14644661,11.8535534 C3.95118446,11.6582912 3.95118446,11.3417088 4.14644661,11.1464466 C4.32001296,10.9728803 4.58943736,10.9535951 4.7843055,11.0885912 L4.85355339,11.1464466 L5.5,11.793 L7.14644661,10.1464466 C7.34170876,9.95118446 7.65829124,9.95118446 7.85355339,10.1464466 Z M20,12 L20,13 L10,13 L10,12 L20,12 Z M7.85355339,5.14644661 C8.02711974,5.32001296 8.04640489,5.58943736 7.91140884,5.7843055 L7.85355339,5.85355339 L5.5,8.20710678 L4.14644661,6.85355339 C3.95118446,6.65829124 3.95118446,6.34170876 4.14644661,6.14644661 C4.32001296,5.97288026 4.58943736,5.95359511 4.7843055,6.08859116 L4.85355339,6.14644661 L5.5,6.793 L7.14644661,5.14644661 C7.34170876,4.95118446 7.65829124,4.95118446 7.85355339,5.14644661 Z M20,7 L20,8 L10,8 L10,7 L20,7 Z"/>
</svg>
