<svg xmlns="http://www.w3.org/2000/svg" width="18" height="18" viewBox="0 0 18 18">
  <path d="M6,12 L6,15 L3,15 L3,12 L6,12 Z M15,13 L15,14 L7,14 L7,13 L15,13 Z M5,13 L4,13 L4,14 L5,14 L5,13 Z M3.7843055,8.08859116 L3.85355339,8.14644661 L4.5,8.793 L5.14644661,8.14644661 C5.32001296,7.97288026 5.58943736,7.95359511 5.7843055,8.08859116 L5.85355339,8.14644661 C6.02711974,8.32001296 6.04640489,8.58943736 5.91140884,8.7843055 L5.85355339,8.85355339 L4.5,10.2071068 L3.14644661,8.85355339 C2.95118446,8.65829124 2.95118446,8.34170876 3.14644661,8.14644661 C3.32001296,7.97288026 3.58943736,7.95359511 3.7843055,8.08859116 Z M15,9 L15,10 L7,10 L7,9 L15,9 Z M3.7843055,4.08859116 L3.85355339,4.14644661 L4.5,4.793 L5.14644661,4.14644661 C5.32001296,3.97288026 5.58943736,3.95359511 5.7843055,4.08859116 L5.85355339,4.14644661 C6.02711974,4.32001296 6.04640489,4.58943736 5.91140884,4.7843055 L5.85355339,4.85355339 L4.5,6.20710678 L3.14644661,4.85355339 C2.95118446,4.65829124 2.95118446,4.34170876 3.14644661,4.14644661 C3.32001296,3.97288026 3.58943736,3.95359511 3.7843055,4.08859116 Z M15,5 L15,6 L7,6 L7,5 L15,5 Z"/>
</svg>
