<svg xmlns="http://www.w3.org/2000/svg" width="18" height="18" viewBox="0 0 18 18">
  <path d="M13,4.07650484 L7,4.9336477 L7,13 C7,14.1045695 5.88071187,15 4.5,15 C3.11928813,15 2,14.1045695 2,13 C2,11.8954305 3.11928813,11 4.5,11 C5.06280296,11 5.58216973,11.1487779 6,11.3998535 L6,4.0663523 L13.4584361,3.00086143 L14,3 L14,12 C14,13.1045695 12.8807119,14 11.5,14 C10.1192881,14 9,13.1045695 9,12 C9,10.8954305 10.1192881,10 11.5,10 C12.0589754,10 12.5751035,10.1467612 12.9914612,10.3947452 L13,4.07650484 Z M11.5,11 C10.6286629,11 10,11.5029303 10,12 C10,12.4970697 10.6286629,13 11.5,13 C12.3713371,13 13,12.5 13,12 C13,11.5 12.3056389,11 11.5,11 Z M4.5,14 C5.37133713,14 6,13.4970697 6,13 C6,12.5029303 5.37133713,12 4.5,12 C3.62866287,12 3,12.5029303 3,13 C3,13.4970697 3.62866287,14 4.5,14 Z"/>
</svg>
