<svg xmlns="http://www.w3.org/2000/svg" width="24" height="24" viewBox="0 0 24 24">
  <path d="M18,5 L9,6.4 L9,15.5 C8.5,15.2 7.8,15 7,15 C5.3,15 4,15.9 4,17 C4,18.1 5.3,19 7,19 C8.7,19 10,18.1 10,17 L10,16.9 L10,7.3 L17,6.2 L17,14.5 C16.5,14.2 15.8,14 15,14 L15,14 C13.3,14 12,14.9 12,16 C12,17.1 13.3,18 15,18 C16.7,18 18,17.1 18,16 L18,16 L18,5 Z M7,18 C5.8,18 5,17.4 5,17 C5,16.6 5.8,16 7,16 C8.2,16 9,16.6 9,17 C9,17.4 8.2,18 7,18 Z M15,17 C13.8,17 13,16.4 13,16 C13,15.6 13.8,15 15,15 C16.2,15 17,15.6 17,16 C17,16.4 16.2,17 15,17 Z"/>
</svg>
