<svg xmlns="http://www.w3.org/2000/svg" width="24" height="24" viewBox="0 0 24 24">
  <path d="M9.5,6 L19,6 C19.5522847,6 20,6.44771525 20,7 L20,20 C20,20.5522847 19.5522847,21 19,21 L4,21 C3.44771525,21 3,20.5522847 3,20 L3,4 C3,3.44771525 3.44771525,3 4,3 L7.38196601,3 C7.76073807,3 8.10700119,3.21400238 8.2763932,3.5527864 L9.5,6 Z M4,7 L4,20 L19,20 L19,7 L4,7 Z M7.38196601,4 L4,4 L4,6 L8.38196601,6 L7.38196601,4 Z M12,13 L15,13 L15,14 L12,14 L12,17 L11,17 L11,14 L8,14 L8,13 L11,13 L11,10 L12,10 L12,13 Z"/>
</svg>
