<svg xmlns="http://www.w3.org/2000/svg" width="24" height="24" viewBox="0 0 24 24">
  <path d="M9.92874646,4.24275212 L12.5076053,8.5405581 C13.2666961,8.19344859 14.1107569,8 15,8 C18.3137085,8 21,10.6862915 21,14 C21,17.3137085 18.3137085,20 15,20 C12.0273203,20 9.55956212,17.8381738 9.08311059,15.0009065 L3.5,15 C3.18608093,15 2.8367157,14.662735 3.07125354,14.2427521 L9.07125354,4.24275212 C9.28173828,3.89295959 9.76989746,3.94740295 9.92874646,4.24275212 Z M15,9 C14.2991904,9 13.6320559,9.14418029 13.0266411,9.40449624 L15.9287465,14.2427521 C16.1239476,14.5296062 15.9287465,15 15.5,15 L10.1001898,15.0008452 C10.5637866,17.2826644 12.5813407,19 15,19 C17.7614237,19 20,16.7614237 20,14 C20,11.2385763 17.7614237,9 15,9 Z M9.5,5.47182532 L4.38309519,14 L14.6169048,14 L9.5,5.47182532 Z"/>
</svg>
