<svg xmlns="http://www.w3.org/2000/svg" width="18" height="18" viewBox="0 0 18 18">
  <path d="M10,15 L4.00496281,15 C3.45267806,15 3.00496281,14.5522847 3.00496281,14 C3.00496281,13.9667702 3.00661913,13.9335611 3.00992562,13.9004963 L4.00496281,5.90049628 C4.05608299,5.38929448 4.48624855,5 5,5 L6,5 L6,4 C6,2.8954305 7.11928813,2 8.5,2 C9.88071187,2 11,2.8954305 11,4 L11,5 L12,5 C12.5137514,5 12.943917,5.38929448 12.9950372,5.90049628 L13.3782612,8.98157928 L12.3722335,8.99272064 L12,6 L5,6 L4.00496281,14 L10,14 L10,15 Z M7,5 L10,5 L10,4 C10,3.5029303 9.37133713,3 8.5,3 C7.62866287,3 7,3.5029303 7,4 L7,5 Z M13,12 L13,10 L14,10 L14,12 L16,12 L16,13 L14,13 L14,15 L13,15 L13,13 L11,13 L11,12 L13,12 Z"/>
</svg>
