<svg xmlns="http://www.w3.org/2000/svg" width="24" height="24" viewBox="0 0 24 24">
  <path d="M13,19.9965367 C10.9469201,19.9978723 8.28025339,19.9990267 5,20 C4.44771525,20 4,19.5522847 4,19 C4,18.9660614 4.67054277,15.2487091 6.0116283,7.84794282 C6.08667933,7.36011113 6.50642892,7 7,7 L8,7 L8,6 C8,4.34314575 9.56700338,3 11.5,3 C13.4329966,3 15,4.34314575 15,6 L15,7 L16,7 C16.4935711,7 16.9133207,7.36011113 16.9883717,7.84794282 L17.561473,11 L16.5454545,11 L16,8 L7,8 L5,19 L13,19 L13,19.9965367 Z M9,7 L14,7 L14,6 C14,4.93258279 12.9119867,4 11.5,4 C10.0880133,4 9,4.93258279 9,6 L9,7 Z M19,16 L22,16 L22,17 L19,17 L19,20 L18,20 L18,17 L15,17 L15,16 L18,16 L18,13 L19,13 L19,16 Z"/>
</svg>
