<svg xmlns="http://www.w3.org/2000/svg" width="18" height="18" viewBox="0 0 18 18">
  <path d="M12,7 L5,7 L4.00496281,15 L12.9950372,15 L12,7 Z M6,6 L6,5 C6,3.8954305 7.11928813,3 8.5,3 C9.88071187,3 11,3.8954305 11,5 L11,6 L12,6 C12.5137514,6 12.943917,6.38929448 12.9950372,6.90049628 L13.9900744,14.9004963 C14.0450288,15.4500401 13.6440848,15.9400828 13.0945409,15.9950372 C13.0614761,15.9983437 13.028267,16 12.9950372,16 L4.00496281,16 C3.45267806,16 3.00496281,15.5522847 3.00496281,15 C3.00496281,14.9667702 3.00661913,14.9335611 3.00992562,14.9004963 L4.00496281,6.90049628 C4.05608299,6.38929448 4.48624855,6 5,6 L6,6 Z M7,6 L10,6 L10,5 C10,4.5029303 9.37133713,4 8.5,4 C7.62866287,4 7,4.5029303 7,5 L7,6 Z"/>
</svg>
