<svg xmlns="http://www.w3.org/2000/svg" width="24" height="24" viewBox="0 0 24 24">
  <path d="M16,4 C16.5522847,4 17,4.44771525 17,5 L17,6 L19,6 C19.5128358,6 19.9355072,6.38604019 19.9932723,6.88337887 L20,7 L20,17 C20,17.5128358 19.6139598,17.9355072 19.1166211,17.9932723 L19,18 L17,18 L17,19 C17,19.5522847 16.5522847,20 16,20 L7,20 C6.44771525,20 6,19.5522847 6,19 L6,18 L4,18 C3.44771525,18 3,17.5522847 3,17 L3,7 C3,6.44771525 3.44771525,6 4,6 L6,6 L6,5 C6,4.44771525 6.44771525,4 7,4 L16,4 Z M16,5 L7,5 L7,19 L16,19 L16,5 Z M6,7 L4,7 L4,17 L6,17 L6,7 Z M19,7 L17,7 L17,17 L19,17 L19,7 Z M14,11 L14,12 L9,12 L9,11 L14,11 Z M14,9 L14,10 L9,10 L9,9 L14,9 Z M14,7 L14,8 L9,8 L9,7 L14,7 Z"/>
</svg>
