<svg xmlns="http://www.w3.org/2000/svg" width="18" height="18" viewBox="0 0 18 18">
  <path d="M12,3 L12,4 L6,4 L6,14 L12,14 L12,15 L6,15 C5.44771525,15 5,14.5522847 5,14 L5,13 L4,13 C3.44771525,13 3,12.5522847 3,12 L3,6 C3,5.44771525 3.44771525,5 4,5 L5,5 L5,4 C5,3.44771525 5.44771525,3 6,3 L12,3 Z M15,5 L15,6 C16.1045695,6 17,6.8954305 17,8 L16,8 C16,7.44771525 15.5522847,7 15,7 L14,7 C13.4477153,7 13,7.44771525 13,8 C13,8.55228475 13.4477153,9 14,9 L15,9 C16.1045695,9 17,9.8954305 17,11 C17,12.1045695 16.1045695,13 15,13 L15,14 L14,14 L14,13 C12.8954305,13 12,12.1045695 12,11 L13,11 C13,11.5522847 13.4477153,12 14,12 L15,12 C15.5522847,12 16,11.5522847 16,11 C16,10.4477153 15.5522847,10 15,10 L14,10 C12.8954305,10 12,9.1045695 12,8 C12,6.8954305 12.8954305,6 14,6 L14,5 L15,5 Z M5,6 L4,6 L4,12 L5,12 L5,6 Z M11,9 L11,10 L7,10 L7,9 L11,9 Z M11,7 L11,8 L7,8 L7,7 L11,7 Z M11,5 L11,6 L7,6 L7,5 L11,5 Z"/>
</svg>
