<svg xmlns="http://www.w3.org/2000/svg" width="18" height="18" viewBox="0 0 18 18">
  <path d="M12,3 C12.5522847,3 13,3.44771525 13,4 L13,5 L14,5 C14.5128358,5 14.9355072,5.38604019 14.9932723,5.88337887 L15,6 L15,12 C15,12.5128358 14.6139598,12.9355072 14.1166211,12.9932723 L14,13 L13,13 L13,14 C13,14.5522847 12.5522847,15 12,15 L6,15 C5.44771525,15 5,14.5522847 5,14 L5,13 L4,13 C3.44771525,13 3,12.5522847 3,12 L3,6 C3,5.44771525 3.44771525,5 4,5 L5,5 L5,4 C5,3.44771525 5.44771525,3 6,3 L12,3 Z M12,4 L6,4 L6,14 L12,14 L12,4 Z M5,6 L4,6 L4,12 L5,12 L5,6 Z M14,6 L13,6 L13,12 L14,12 L14,6 Z M11,9 L11,10 L7,10 L7,9 L11,9 Z M11,7 L11,8 L7,8 L7,7 L11,7 Z M11,5 L11,6 L7,6 L7,5 L11,5 Z"/>
</svg>
