<svg xmlns="http://www.w3.org/2000/svg" width="24" height="24" viewBox="0 0 24 24">
  <path d="M9.55809941,7 C10.3865265,7 11.0580994,7.67157288 11.0580994,8.5 L11.0580994,15.5 C11.0580994,16.3284271 10.3865265,17 9.55809941,17 C8.72967229,17 8.05809941,16.3284271 8.05809941,15.5 L8.05809941,8.5 C8.05809941,7.67157288 8.72967229,7 9.55809941,7 Z M9.55809941,8 C9.28195704,8 9.05809941,8.22385763 9.05809941,8.5 L9.05809941,15.5 C9.05809941,15.7761424 9.28195704,16 9.55809941,16 C9.83424179,16 10.0580994,15.7761424 10.0580994,15.5 L10.0580994,8.5 C10.0580994,8.22385763 9.83424179,8 9.55809941,8 Z M14.5580994,7 C15.3865265,7 16.0580994,7.67157288 16.0580994,8.5 L16.0580994,15.5 C16.0580994,16.3284271 15.3865265,17 14.5580994,17 C13.7296723,17 13.0580994,16.3284271 13.0580994,15.5 L13.0580994,8.5 C13.0580994,7.67157288 13.7296723,7 14.5580994,7 Z M14.5580994,8 C14.281957,8 14.0580994,8.22385763 14.0580994,8.5 L14.0580994,15.5 C14.0580994,15.7761424 14.281957,16 14.5580994,16 C14.8342418,16 15.0580994,15.7761424 15.0580994,15.5 L15.0580994,8.5 C15.0580994,8.22385763 14.8342418,8 14.5580994,8 Z"/>
</svg>
