<svg xmlns="http://www.w3.org/2000/svg" width="18" height="18" viewBox="0 0 18 18">
  <path d="M7.5,5 C8.32842712,5 9,5.67157288 9,6.5 L9,11.5 C9,12.3284271 8.32842712,13 7.5,13 C6.67157288,13 6,12.3284271 6,11.5 L6,6.5 C6,5.67157288 6.67157288,5 7.5,5 Z M11.5,5 C12.3284271,5 13,5.67157288 13,6.5 L13,11.5 C13,12.3284271 12.3284271,13 11.5,13 C10.6715729,13 10,12.3284271 10,11.5 L10,6.5 C10,5.67157288 10.6715729,5 11.5,5 Z M7.5,6 C7.22385763,6 7,6.22385763 7,6.5 L7,11.5 C7,11.7761424 7.22385763,12 7.5,12 C7.77614237,12 8,11.7761424 8,11.5 L8,6.5 C8,6.22385763 7.77614237,6 7.5,6 Z M11.5,6 C11.2238576,6 11,6.22385763 11,6.5 L11,11.5 C11,11.7761424 11.2238576,12 11.5,12 C11.7761424,12 12,11.7761424 12,11.5 L12,6.5 C12,6.22385763 11.7761424,6 11.5,6 Z"/>
</svg>
