<svg xmlns="http://www.w3.org/2000/svg" width="18" height="18" viewBox="0 0 18 18">
  <path d="M10,4.46489566 L10,9 L9,9 L9,4.46489566 C7.66474507,7.02868967 7,8.895537 7,10 C7,11.2432549 7.43848116,12.220139 8.35011732,13 L9,13 L9,14 L8.50414444,14 L8.2660492,15 L10.5,15 L10.5,16 L8.2660492,16 C7.71376445,16 7.2660492,15.5522847 7.2660492,15 C7.2660492,14.9219968 7.27517584,14.8442615 7.29324298,14.7683795 L7.56236951,13.6380481 C6.52078984,12.6857603 6,11.4730776 6,10 C6,8.45870054 6.99775369,5.9196474 8.99326106,2.38284058 C9.21473694,1.85716248 9.80995178,1.89227295 10.0081828,2.38539985 C12.0027276,5.92087229 13,8.45907234 13,10 L12,10 C12,8.895537 11.3352549,7.02868967 10,4.46489566 Z M13,13 L13,11 L14,11 L14,13 L16,13 L16,14 L14,14 L14,16 L13,16 L13,14 L11,14 L11,13 L13,13 Z"/>
</svg>
