<svg xmlns="http://www.w3.org/2000/svg" width="18" height="18" viewBox="0 0 18 18">
  <path d="M12.4803746,9.18438628 L14.6022902,10.5332243 C14.977582,10.771786 15.1502479,11.2295144 15.0260189,11.6565072 L14.3125072,14.1087871 C14.1795558,14.5657598 13.742955,14.8657096 13.2687033,14.8258925 C10.8578892,14.6234859 8.65581854,13.5254458 6.66249127,11.5317722 C4.65993818,9.52887119 3.56101433,7.31560409 3.36571972,4.89197087 C3.32871306,4.43321962 3.60962491,4.00847117 4.0462483,3.86293004 L6.47464956,3.05346296 C6.93443478,2.90020122 7.43793645,3.098705 7.66943015,3.52450105 L8.86913699,5.73117208 C9.10844983,6.17135019 8.98507787,6.72068611 8.58052642,7.01626272 L7.72315144,7.64268489 L10.5515786,10.471112 L11.0707092,9.54096273 C11.3398652,9.058704 12,8.85870361 12.4803746,9.18438628 Z"/>
</svg>
