<svg xmlns="http://www.w3.org/2000/svg" width="18" height="18" viewBox="0 0 18 18">
  <path d="M4,6 L5,6 L5.7236068,4.5527864 C5.89299881,4.21400238 6.23926193,4 6.61803399,4 L11.381966,4 C11.7607381,4 12.1070012,4.21400238 12.2763932,4.5527864 L13,6 L14,6 C14.5522847,6 15,6.44771525 15,7 L15,13 C15,13.5522847 14.5522847,14 14,14 L4,14 C3.44771525,14 3,13.5522847 3,13 L3,7 C3,6.44771525 3.44771525,6 4,6 Z M4,7 L4,13 L14,13 L14,7 L13,7 C12.6212279,7 12.2749648,6.78599762 12.1055728,6.4472136 L11.381966,5 L6.61803399,5 L5.89442719,6.4472136 C5.72503518,6.78599762 5.37877206,7 5,7 L4,7 Z M9,12 C7.34314575,12 6,10.6568542 6,9 C6,7.34314575 7.34314575,6 9,6 C10.6568542,6 12,7.34314575 12,9 C12,10.6568542 10.6568542,12 9,12 Z M9,11 C10.1045695,11 11,10.1045695 11,9 C11,7.8954305 10.1045695,7 9,7 C7.8954305,7 7,7.8954305 7,9 C7,10.1045695 7.8954305,11 9,11 Z"/>
</svg>
