<svg xmlns="http://www.w3.org/2000/svg" width="24" height="24" viewBox="0 0 24 24">
  <path d="M11.5,2 C16.7467051,2 21,6.25329488 21,11.5 C21,16.7467051 16.7467051,21 11.5,21 C6.25329488,21 2,16.7467051 2,11.5 C2,6.25329488 6.25329488,2 11.5,2 Z M3,11.5 C3,16.0267505 6.53858773,19.7270195 11.0005248,19.9855686 L11.0005248,3.01443136 C6.53858773,3.27298054 3,6.97324955 3,11.5 Z M19.9855108,12.0004728 L12,12 L12.0004728,19.9855108 C16.2086722,19.7411732 19.5953287,16.4354118 19.9662733,12.2623957 L19.9855108,12.0004728 Z M12.0004728,3.01448923 L12,11 L19.9855686,11.0005248 C19.7366153,6.70418951 16.2966755,3.26393647 12.0004728,3.01448923 Z"/>
</svg>
