<svg xmlns="http://www.w3.org/2000/svg" width="18" height="18" viewBox="0 0 18 18">
  <path d="M8.5,1 C12.6421356,1 16,4.35786438 16,8.5 C16,12.6421356 12.6421356,16 8.5,16 C4.35786438,16 1,12.6421356 1,8.5 C1,4.35786438 4.35786438,1 8.5,1 Z M2,8.5 C2,11.9218429 4.64412846,14.7261164 8.00067087,14.9811062 L8.00067087,2.01889382 C4.64412846,2.27388358 2,5.07815715 2,8.5 Z M14.9810299,9.00033196 L9,9 L9.00033196,14.9810299 C12.191269,14.7381279 14.7381279,12.191269 14.9810299,9.00033196 Z M9.00033196,2.01897008 L9,8 L14.9811062,8.00067087 C14.7386615,4.8092646 12.1916033,2.26189756 9.00033196,2.01897008 Z"/>
</svg>
