<svg xmlns="http://www.w3.org/2000/svg" width="24" height="24" viewBox="0 0 24 24">
  <path d="M17.5,6 C18.191254,6.00068063 18.5429926,6.0017 18.5552158,6.00305813 C18.8296692,6.03355296 19.0274367,6.28076235 18.9969419,6.55521576 L17.9475214,16 L6.0524786,16 C5.3508262,9.67896505 5,6.51229838 5,6.5 C5,6.22385763 5.22385763,6 5.5,6 L6.5,6 C6.77614237,6 7,6.22385763 7,6.5 L7,7 C7,8.1045695 7.8954305,9 9,9 C10.1045695,9 11,8.1045695 11,7 L11,6.5 C11,6.22385763 11.2238576,6 11.5,6 L12.5,6 C12.7761424,6 13,6.22385763 13,6.5 L13,7 C13,8.1045695 13.8954305,9 15,9 C16.1045695,9 17,8.1045695 17,7 L17,6.5 C17,6.22385763 17.2238576,6 17.5,6 Z M17.830699,7.99601686 C17.4199893,9.16328941 16.3077068,10 15,10 C13.3431458,10 12,8.65685425 12,7 C12,8.65685425 10.6568542,10 9,10 C7.69229324,10 6.58001072,9.16328941 6.16930105,7.99601686 L6.9475214,15 L17.0524786,15 L17.830699,7.99601686 Z M6,17 L18,17 L18,18 L6,18 L6,17 Z"/>
</svg>
