<svg xmlns="http://www.w3.org/2000/svg" width="18" height="18" viewBox="0 0 18 18">
  <path d="M4.5,4 C4.77614237,4 5,4.22385763 5,4.5 L5,5 C5,5.82842712 5.67157288,6.5 6.5,6.5 C7.32842712,6.5 8,5.82842712 8,5 L8,4.5 C8,4.22385763 8.22385763,4 8.5,4 L9.5,4 C9.77614237,4 10,4.22385763 10,4.5 L10,5 C10,5.82842712 10.6715729,6.5 11.5,6.5 C12.3284271,6.5 13,5.82842712 13,5 L13,4.5 C13,4.22385763 13.2238576,4 13.5,4 L14.5,4 C14.7761424,4 15,4.22385763 15,4.5 C15,4.51580129 14.6471304,7.34913462 13.9413911,13 L4.05860889,13 C3.35286963,7.34913462 3,4.51580129 3,4.5 C3,4.22385763 3.22385763,4 3.5,4 L4.5,4 Z M4.18440224,5.94408903 L4.94139111,12 L13.0586089,12 L13.8155978,5.94408903 C13.4430984,6.85679414 12.5466636,7.5 11.5,7.5 C10.1192881,7.5 9,6.38071187 9,5 C9,6.38071187 7.88071187,7.5 6.5,7.5 C5.45333643,7.5 4.55690164,6.85679414 4.18440224,5.94408903 Z M4,14 L14,14 L14,15 L4,15 L4,14 Z"/>
</svg>
