<svg xmlns="http://www.w3.org/2000/svg" width="25" height="24" viewBox="0 0 25 24">
  <path d="M8,20 C7.44771525,20 7,19.5522847 7,19 L7,18 L5,18 C3.8954305,18 3,17.1045695 3,16 L3,8 C3,6.8954305 3.8954305,6 5,6 L7,6 C7,4.8954305 7.8954305,4 9,4 L15,4 C16.1045695,4 17,4.8954305 17,6 L19,6 C20.1045695,6 21,6.8954305 21,8 L21,16 C21,17.1045695 20.1045695,18 19,18 L17,18 L17,19 C17,19.5522847 16.5522847,20 16,20 L8,20 Z M8,14 L8,19 L16,19 L16,14 L8,14 Z M17,17 L19,17 C19.5522847,17 20,16.5522847 20,16 L20,8 C20,7.44771525 19.5522847,7 19,7 L5,7 C4.44771525,7 4,7.44771525 4,8 L4,16 C4,16.5522847 4.44771525,17 5,17 L7,17 L7,14 L6,14 L6,13 L18,13 L18,14 L17,14 L17,17 Z M16,6 C16,5.44771525 15.5522847,5 15,5 L9,5 C8.44771525,5 8,5.44771525 8,6 L16,6 Z M14,9 L17,9 L17,10 L14,10 L14,9 Z" transform="translate(1)"/>
</svg>
