<svg xmlns="http://www.w3.org/2000/svg" width="25" height="24" viewBox="0 0 25 24">
  <path d="M16,16.0836684 L16,16.5 C16,17.3284271 15.3284271,18 14.5,18 L9.5,18 C8.67157288,18 8,17.3284271 8,16.5 L8,13.94599 L4,12.8771507 L4,9.12284929 L19.4235583,5.00183264 L20,5 L20,17.0029453 L19.440281,17.0029453 L16,16.0836684 L16,16.0836684 Z M15,15.8164586 L9,14.2131998 L9,16.5 C9,16.7761424 9.22385763,17 9.5,17 L14.5,17 C14.7761424,17 15,16.7761424 15,16.5 L15,15.8164586 L15,15.8164586 Z M19,6.16286499 L5,9.87715071 L5,12.1228493 L19,15.837135 L19,6.16286499 Z" transform="translate(1)"/>
</svg>
