<svg xmlns="http://www.w3.org/2000/svg" width="18" height="18" viewBox="0 0 18 18">
  <path d="M10.5,15 L7.5,15 C6.67157288,15 6,14.3284271 6,13.5 L6,11.718263 L3,10.8818979 L3,7.12029606 L14.181882,4.00386342 L15,4 L15,14 L14.18,13.9987519 C14.18,13.9987519 13.4533333,13.7961657 12,13.3909932 C12,14.3217926 11.3284271,15 10.5,15 Z M7,11.9970514 L7,13.5 C7,13.7761424 7.22385763,14 7.5,14 L10.5,14 C10.7761424,14 11,13.7761424 11,13.5 L11,13.1122049 L7,11.9970514 Z M4,7.87970394 L4,10.1181021 L14,12.9 L14,5.09266625 L4,7.87970394 Z"/>
</svg>
