<svg xmlns="http://www.w3.org/2000/svg" width="24" height="24" viewBox="0 0 24 24">
  <path d="M19.2102633,4.06953261 C19.5246293,3.96474395 19.8644213,4.13463994 19.96921,4.44900593 L19.9922525,4.54263324 L20,4.63874259 L20,17.3612574 C20,17.6926283 19.7313708,17.9612574 19.4,17.9612574 L19.3038907,17.9535099 L19.2102633,17.9304674 L11.21,15.2625798 L11.8059335,18.835601 C11.8967286,19.3803713 11.5287089,19.8955989 10.9839386,19.9863939 C10.9296071,19.9954492 10.8746204,20 10.8195396,20 L8.84712709,20 C8.35828794,20 7.94109783,19.646587 7.86073316,19.164399 L7.166,14.9995798 L6.5,15 C5.22974508,15 4.18075921,14.0526345 4.02105111,12.8259123 L4.00531768,12.6643757 L4,12.5 L4,9.5 C4,8.1745166 5.03153594,7.08996133 6.33562431,7.00531768 L6.5,7 L10.416,7 L19.2102633,4.06953261 Z"/>
</svg>
