<svg xmlns="http://www.w3.org/2000/svg" width="24" height="24" viewBox="0 0 24 24">
  <path d="M6,15 C7.1045695,15 8,15.8954305 8,17 C8,18.1045695 7.1045695,19 6,19 C4.8954305,19 4,18.1045695 4,17 C4,15.8954305 4.8954305,15 6,15 Z M20,17 L20,18 L10,18 L10,17 L20,17 Z M6,16 C5.44771525,16 5,16.4477153 5,17 C5,17.5522847 5.44771525,18 6,18 C6.55228475,18 7,17.5522847 7,17 C7,16.4477153 6.55228475,16 6,16 Z M6,10 C7.1045695,10 8,10.8954305 8,12 C8,13.1045695 7.1045695,14 6,14 C4.8954305,14 4,13.1045695 4,12 C4,10.8954305 4.8954305,10 6,10 Z M20,12 L20,13 L10,13 L10,12 L20,12 Z M6,11 C5.44771525,11 5,11.4477153 5,12 C5,12.5522847 5.44771525,13 6,13 C6.55228475,13 7,12.5522847 7,12 C7,11.4477153 6.55228475,11 6,11 Z M6,5 C7.1045695,5 8,5.8954305 8,7 C8,8.1045695 7.1045695,9 6,9 C4.8954305,9 4,8.1045695 4,7 C4,5.8954305 4.8954305,5 6,5 Z M20,7 L20,8 L10,8 L10,7 L20,7 Z"/>
</svg>
