<svg xmlns="http://www.w3.org/2000/svg" width="18" height="18" viewBox="0 0 18 18">
  <path d="M12,11.2948673 L12,9.5 C12,7.56700338 10.4329966,6 8.5,6 C6.56700338,6 5,7.56700338 5,9.5 L5,14 L4,14 L4,9.5 C4,7.01471863 6.01471863,5 8.5,5 C10.9852814,5 13,7.01471863 13,9.5 L13,11.2948673 L14.1539502,10.1446995 C14.3476599,9.95162469 14.6611317,9.95188198 14.8545243,10.1452745 C15.0479003,10.3386505 15.0481118,10.6521097 14.8549968,10.8457464 L12.5,13.2071068 L10.1544004,10.8456947 C9.96185501,10.6518513 9.96204378,10.3388855 10.1548228,10.1452745 C10.3466915,9.95257793 10.6584432,9.95190673 10.8511397,10.1437753 L12,11.2948673 Z"/>
</svg>
