<svg xmlns="http://www.w3.org/2000/svg" width="24" height="24" viewBox="0 0 24 24">
  <path d="M9.06066017,10.25 C9.23422652,10.4235664 9.25351167,10.6929908 9.11851562,10.8878589 L9.06066017,10.9571068 C8.88709382,11.1306731 8.61766942,11.1499583 8.42280128,11.0149622 L8.35355339,10.9571068 L5,7.60355339 L8.35355339,4.25 C8.54881554,4.05473785 8.86539803,4.05473785 9.06066017,4.25 C9.23422652,4.42356635 9.25351167,4.69299075 9.11851562,4.88785889 L9.06066017,4.95710678 L7.017,6.99955339 L14.1035534,7 C17.4172619,7 20.1035534,9.6862915 20.1035534,13 C20.1035534,16.2383969 17.5379785,18.8775718 14.3284917,18.9958615 L14.1035534,19 L11.1035534,19 L11.1035534,18 L14.1035534,18 C16.8649771,18 19.1035534,15.7614237 19.1035534,13 C19.1035534,10.3112453 16.9812467,8.11818189 14.320443,8.00461951 L14.1035534,8 L6.811,7.99955339 L9.06066017,10.25 Z" transform="matrix(-1 0 0 1 25.104 0)"/>
</svg>
