<svg xmlns="http://www.w3.org/2000/svg" width="24" height="24" viewBox="0 0 24 24">
  <path d="M11,13 L11,19 L6,19 C5.44771525,19 5,18.5522847 5,18 L5,13 L11,13 Z M18,13 L18,18 C18,18.5522847 17.5522847,19 17,19 L12,19 L12,13 L18,13 Z M10,14 L6,14 L6,18 L10,18 L10,14 Z M17,14 L13,14 L13,18 L17,18 L17,14 Z M11,6 L11,12 L5,12 L5,7 C5,6.44771525 5.44771525,6 6,6 L11,6 Z M18,4 C19.1045695,4 20,4.8954305 20,6 L20,12 L12,12 L12,4 L18,4 Z M10,7 L6,7 L6,11 L10,11 L10,7 Z M18,5 L13,5 L13,11 L19,11 L19,6 C19,5.48716416 18.6139598,5.06449284 18.1166211,5.00672773 L18,5 Z"/>
</svg>
