<svg xmlns="http://www.w3.org/2000/svg" width="18" height="18" viewBox="0 0 18 18">
  <path d="M8,10 L8,14 L5,14 C4.44771525,14 4,13.5522847 4,13 L4,10 L8,10 Z M13,10 L13,13 C13,13.5522847 12.5522847,14 12,14 L9,14 L9,10 L13,10 Z M7,11 L5,11 L5,13 L7,13 L7,11 Z M12,11 L10,11 L10,13 L12,13 L12,11 Z M8,5 L8,9 L4,9 L4,6 C4,5.44771525 4.44771525,5 5,5 L8,5 Z M13,3 C14.1045695,3 15,3.8954305 15,5 L15,9 L9,9 L9,3 L13,3 Z M7,6 L5,6 L5,8 L7,8 L7,6 Z M13,4 L10,4 L10,8 L14,8 L14,5 C14,4.48716416 13.6139598,4.06449284 13.1166211,4.00672773 L13,4 Z"/>
</svg>
