<svg xmlns="http://www.w3.org/2000/svg" width="18" height="18" viewBox="0 0 18 18">
  <path d="M4,8 L4,14 L10,14 L10,15 L4,15 C3.44771525,15 3,14.5522847 3,14 L3,5 C3,4.44771525 3.44771525,4 4,4 L14,4 C14.2761424,4 14.5261424,4.11192881 14.7071068,4.29289322 C14.8880712,4.47385763 15,4.72385763 15,5 L15,8 L4,8 Z M14,7 L14,5 L4,5 L4,7 L14,7 Z M17.2071068,12.5 L14.8498657,14.8590511 C14.6567143,15.0523507 14.3434339,15.0524709 14.1501343,14.8593196 C13.9564311,14.6656165 13.9556837,14.3520105 14.1483279,14.1575212 L15.2948673,13 L12,13 L12,12 L15.2948673,12 L14.1474284,10.843568 C13.9555245,10.65016 13.9566757,10.3378238 14.15,10.1458356 C14.3435516,9.95362177 14.6560631,9.95400875 14.8491381,10.1467013 L17.2071068,12.5 Z"/>
</svg>
