<svg xmlns="http://www.w3.org/2000/svg" width="24" height="24" viewBox="0 0 24 24">
  <path d="M13,18 L13,19 L5,19 C4.44771525,19 4,18.5522847 4,18 L4,6 C4,5.44771525 4.44771525,5 5,5 L19,5 C19.5522847,5 20,5.44771525 20,6 L20,10 L19,10 L19,9 L5,9 L5,18 L13,18 Z M19,8 L19,6 L5,6 L5,8 L19,8 Z M20.2928932,16 L15,16 L15,15 L20.2928932,15 L18.1479627,12.8564558 C17.9527006,12.6613199 17.9525982,12.3448398 18.1477342,12.1495776 C18.343123,11.9541888 18.6597151,11.9541543 18.8550322,12.1493863 L22.2071068,15.5 L18.8548602,18.8540474 C18.6597029,19.0493095 18.3432055,19.0493945 18.1479433,18.8542372 C17.9525635,18.6588574 17.9525004,18.3422574 18.1477076,18.1468948 L20.2928932,16 Z"/>
</svg>
