<svg xmlns="http://www.w3.org/2000/svg" width="24" height="24" viewBox="0 0 24 24">
  <path d="M6,8 L6,6 C6,5.44771525 6.44771525,5 7,5 L19,5 C19.5522847,5 20,5.44771525 20,6 L20,16 C20,16.5522847 19.5522847,17 19,17 L17,17 L17,19 C17,19.5522847 16.5522847,20 16,20 L4,20 C3.44771525,20 3,19.5522847 3,19 L3,9 C3,8.44771525 3.44771525,8 4,8 L6,8 Z M16,9 L4,9 L4,11 L16,11 L16,9 Z M16,19 L16,12 L4,12 L4,19 L16,19 Z M7,8 L16,8 C16.5522847,8 17,8.44771525 17,9 L17,16 L19,16 L19,6 L7,6 L7,8 Z"/>
</svg>
