<svg xmlns="http://www.w3.org/2000/svg" width="18" height="18" viewBox="0 0 18 18">
  <path d="M9,16 C5.13400675,16 2,12.8659932 2,9 C2,5.13400675 5.13400675,2 9,2 C12.8659932,2 16,5.13400675 16,9 C16,12.8659932 12.8659932,16 9,16 Z M9,15 C12.3137085,15 15,12.3137085 15,9 C15,5.6862915 12.3137085,3 9,3 C5.6862915,3 3,5.6862915 3,9 C3,12.3137085 5.6862915,15 9,15 Z M11.8848284,10.8260771 C11.5260871,12.0812211 10.3703397,13 9,13 C7.62595472,13 6.4676639,12.0762454 6.11227891,10.8158876 C6.59025574,10.6805267 6.11227891,10.8158876 7.07588228,10.5475635 C7.31400628,11.3859408 8.08529254,12 9,12 C9.91510189,12 10.6866589,11.3854111 10.9244255,10.5464788 C11.2613068,10.6460724 10.9244255,10.5475635 11.8848284,10.8260771 Z M7,7 C7.55228475,7 8,7.44771525 8,8 C8,8.55228475 7.55228475,9 7,9 C6.44771525,9 6,8.55228475 6,8 C6,7.44771525 6.44771525,7 7,7 Z M11,7 C11.5522847,7 12,7.44771525 12,8 C12,8.55228475 11.5522847,9 11,9 C10.4477153,9 10,8.55228475 10,8 C10,7.44771525 10.4477153,7 11,7 Z"/>
</svg>
