<svg xmlns="http://www.w3.org/2000/svg" width="24" height="24" viewBox="0 0 24 24">
  <path d="M16,20 L4,20 C3.44771525,20 3,19.5522847 3,19 L3,17 L16,17 L16,20 Z M4,19 L15,19 L15,18 L4,18 L4,19 Z M13,16 L3,16 L3,13 L13,13 L13,16 Z M4,15 L12,15 L12,14 L4,14 L4,15 Z M10,12 L3,12 L3,9 L10,9 L10,12 Z M4,11 L9,11 L9,10 L4,10 L4,11 Z M7,8 L3,8 L3,6 C3,5.44771525 3.44771525,5 4,5 L7,5 L7,8 Z M4,7 L6,7 L6,6 L4,6 L4,7 Z M19,6.70710678 L19,20 L18,20 L18,6.70710678 L15.8799429,8.8484282 C15.6866246,9.0436855 15.3716219,9.04525737 15.1763646,8.85193907 C14.9791508,8.6547341 14.978619,8.33800511 15.1734155,8.14189592 L18.5,4.79289322 L21.8634684,8.14374614 C22.0587298,8.33827523 22.0593235,8.6542629 21.8647944,8.84952435 C21.6687108,9.04560922 21.3520067,9.0460502 21.1560421,8.85117395 L19,6.70710678 Z"/>
</svg>
