<svg xmlns="http://www.w3.org/2000/svg" width="24" height="24" viewBox="0 0 24 24">
  <path d="M11,8 L4.5,16 L11,16 L11,17 L3,17 L3,16 L9.5,8 L3,8 L3,7 L11,7 L11,8 Z M18,18.2955205 L20.1503387,16.1564808 C20.3462654,15.9615836 20.662963,15.9620007 20.8583756,16.1574133 C21.053222,16.3522598 21.053222,16.6681682 20.8583756,16.8630147 L20.8576229,16.8637658 L17.5,20.2071068 L14.1504805,16.8641721 C13.9552185,16.669294 13.9549074,16.353023 14.1497855,16.157761 L14.1501328,16.1574133 C14.3454645,15.9620817 14.6621003,15.9618891 14.8576694,16.156983 L17,18.2941081 L17,5 L18,5 L18,18.2955205 Z"/>
</svg>
