<svg xmlns="http://www.w3.org/2000/svg" width="18" height="18" viewBox="0 0 18 18">
  <path d="M4,4 L11,4 L11,7 L3,7 L3,5 C3,4.44771525 3.44771525,4 4,4 Z M4,5 L4,6 L10,6 L10,5 L4,5 Z M3,8 L9,8 L9,11 L3,11 L3,8 Z M4,9 L4,10 L8,10 L8,9 L4,9 Z M3,12 L7,12 L7,15 L4,15 C3.44771525,15 3,14.5522847 3,14 L3,12 Z M4,13 L4,14 L6,14 L6,13 L4,13 Z M15.8519116,12.1450118 C16.0403743,12.3389382 16.0387795,12.6480845 15.8483263,12.8400564 L13.5,15.2071068 L11.1520318,12.8447258 C10.9593048,12.6508158 10.9592321,12.3377007 11.1518691,12.1437012 C11.3434739,11.9507413 11.6552251,11.9496427 11.8481851,12.1412474 L13,13.2928932 L13,4 L14,4 L14,13.2928932 L15.1663258,12.1383705 C15.3557449,11.9508683 15.6612999,11.9524223 15.8488021,12.1418413 L15.8519116,12.1450118 Z"/>
</svg>
