<svg xmlns="http://www.w3.org/2000/svg" width="18" height="18" viewBox="0 0 18 18">
  <path d="M12.7667482,9.47487373 L11.1478909,7.84741743 C10.9548552,7.65335627 10.9553847,7.33964448 11.1490745,7.14623611 C11.3427361,6.95285602 11.6564266,6.95286114 11.8500818,7.14624756 L13.473855,8.76776695 L15.1467264,7.14286375 C15.3443606,6.95089656 15.6597519,6.95398674 15.8535867,7.1497895 C16.0453958,7.34354596 16.0438172,7.6561086 15.8500608,7.84791771 L14.1809618,9.47487373 L15.8403819,11.1496248 C16.0339943,11.345026 16.0325442,11.6603837 15.8371431,11.8539961 C15.8329669,11.8581341 15.8287178,11.8621978 15.8243977,11.8661853 C15.6135023,12.0608465 15.2858237,12.0517187 15.0860918,11.845619 L13.473855,10.1819805 L11.8460666,11.8591842 C11.6565946,12.0544081 11.344737,12.0590709 11.1495131,11.8695989 C10.950106,11.6722299 10.946676,11.3567503 11.1383371,11.1585809 L12.7667482,9.47487373 Z M9,3.99720634 L9,14 L8.32308983,14.0018032 L5.34746819,12 L4,12 C3.44771525,12 3,11.5522847 3,11 L3,7 C3,6.44771525 3.44771525,6 4,6 L5.34861218,6 L8.35280268,3.99720634 L9,3.99720634 Z M5.65138782,7 L4,7 L4,11 L5.65253181,11 L8,12.5792227 L8,5.43425855 L5.65138782,7 Z"/>
</svg>
