<svg xmlns="http://www.w3.org/2000/svg" width="18" height="18" viewBox="0 0 18 18">
  <path d="M10.5,6 C11.9445388,6 13.184683,6.87511708 13.7191982,8.12411668 C15.7318573,7.55907922 17,9.11928813 17,10.5 C17,11.8254834 15.9952553,13 14.5,13 C13.0587674,13 10.8921007,13 8,13 L7.9999017,7.05089169 C8.6350217,6.4023412 9.52052494,6 10.5,6 Z M5,8.76471656 L5,13 L4,13 L4,9 C4,8.77397156 4.83381321,8.76471656 5,8.76471656 Z M7.00151619,8.05031732 L7,13 L6,13 L5.99951464,8.05010637 C6.16121197,8.01725046 6.83949129,8.01732302 7.00151619,8.05031732 Z M2.99992752,9.26760632 L2.99992752,12.7323937 C2.40216612,12.3865739 2,11.7402524 2,11 C2,10.2597476 2.40216612,9.61342606 2.99992752,9.26760632 Z"/>
</svg>
