<svg xmlns="http://www.w3.org/2000/svg" width="18" height="18" viewBox="0 0 18 18">
  <path d="M13,4 C13.5522847,4 14,4.44771525 14,5 L14,14 C14,14.5522847 13.5522847,15 13,15 L4,15 C3.44771525,15 3,14.5522847 3,14 L3,5 C3,4.44771525 3.44771525,4 4,4 L13,4 Z M13,5 L4,5 L4,14 L13,14 L13,5 Z M10.8535534,8.14644661 C11.0271197,8.32001296 11.0464049,8.58943736 10.9114088,8.7843055 L10.8535534,8.85355339 L7.5,12.2071068 L6.14644661,10.8535534 C5.95118446,10.6582912 5.95118446,10.3417088 6.14644661,10.1464466 C6.32001296,9.97288026 6.58943736,9.95359511 6.7843055,10.0885912 L6.85355339,10.1464466 L7.5,10.793 L10.1464466,8.14644661 C10.3417088,7.95118446 10.6582912,7.95118446 10.8535534,8.14644661 Z"/>
</svg>
