<svg xmlns="http://www.w3.org/2000/svg" width="24" height="24" viewBox="0 0 24 24">
  <path d="M18,4 C19.1045695,4 20,4.8954305 20,6 L20,18 C20,19.1045695 19.1045695,20 18,20 L6,20 C4.8954305,20 4,19.1045695 4,18 L4,6 C4,4.8954305 4.8954305,4 6,4 L18,4 Z M18,5 L6,5 C5.48716416,5 5.06449284,5.38604019 5.00672773,5.88337887 L5,6 L5,18 C5,18.5128358 5.38604019,18.9355072 5.88337887,18.9932723 L6,19 L18,19 C18.5128358,19 18.9355072,18.6139598 18.9932723,18.1166211 L19,18 L19,6 C19,5.48716416 18.6139598,5.06449284 18.1166211,5.00672773 L18,5 Z M14.8535534,10.1464466 C15.0488155,10.3417088 15.0488155,10.6582912 14.8535534,10.8535534 L11,14.7071068 L9.14644661,12.8535534 C8.95118446,12.6582912 8.95118446,12.3417088 9.14644661,12.1464466 C9.34170876,11.9511845 9.65829124,11.9511845 9.85355339,12.1464466 L11,13.2928932 L14.1464466,10.1464466 C14.3417088,9.95118446 14.6582912,9.95118446 14.8535534,10.1464466 Z"/>
</svg>
