<svg xmlns="http://www.w3.org/2000/svg" width="18" height="18" viewBox="0 0 18 18">
  <path d="M11.7071068,2 L16,6.29289322 L16,11.7071068 L11.7071068,16 L6.29289322,16 L2,11.7071068 L2,6.29289322 L6.29289322,2 L11.7071068,2 Z M9,10 C8.44771525,10 8,10.4477153 8,11 C8,11.5522847 8.44771525,12 9,12 C9.55228475,12 10,11.5522847 10,11 C10,10.4477153 9.55228475,10 9,10 Z M9,5 C8.48716416,5 8.06449284,5.38604019 8.00672773,5.88337887 L8,6 L8,8 C8,8.55228475 8.44771525,9 9,9 C9.51283584,9 9.93550716,8.61395981 9.99327227,8.11662113 L10,8 L10,6 C10,5.44771525 9.55228475,5 9,5 Z"/>
</svg>
