<svg xmlns="http://www.w3.org/2000/svg" width="17" height="15" viewBox="0 0 17 15">
  <path d="M1173.42523,667.534617 L1180.85594,680.392241 C1181.1518,680.904185 1180.97737,681.559469 1180.46633,681.855858 C1180.30353,681.950279 1180.11874,682 1179.93062,682 L1165.0692,682 C1164.4787,682 1164,681.520452 1164,680.928901 C1164,680.740449 1164.04963,680.555332 1164.14389,680.392241 L1171.57459,667.534617 C1171.87046,667.022673 1172.52458,666.847931 1173.03562,667.144319 C1173.1973,667.238087 1173.33163,667.372655 1173.42523,667.534617 Z M1172,678 L1172,679 L1173,679 L1173,678 L1172,678 Z M1172,672 L1172,677 L1173,677 L1173,672 L1172,672 Z" transform="translate(-1164 -667)"/>
</svg>
