<svg xmlns="http://www.w3.org/2000/svg" width="18" height="18" viewBox="0 0 18 18">
  <path d="M9,16 C5.13400675,16 2,12.8659932 2,9 C2,5.13400675 5.13400675,2 9,2 C12.8659932,2 16,5.13400675 16,9 C16,12.8659932 12.8659932,16 9,16 Z M10.9393398,7 L8.5,9.43933983 L7.06066017,8 C6.76776695,7.70710678 6.29289322,7.70710678 6,8 C5.70710678,8.29289322 5.70710678,8.76776695 6,9.06066017 L8.5,11.5606602 L12,8.06066017 C12.2928932,7.76776695 12.2928932,7.29289322 12,7 C11.7071068,6.70710678 11.232233,6.70710678 10.9393398,7 Z"/>
</svg>
