<svg xmlns="http://www.w3.org/2000/svg" width="24" height="24" viewBox="0 0 24 24">
  <path d="M20.6762281,16.4439502 C21.3394859,17.5746099 20.9511638,19.0233988 19.8088864,19.6799109 C19.4440973,19.8895697 19.0297764,20 18.6079519,20 L5.3916543,20 C4.0707801,20 3,18.9401105 3,17.6326705 C3,17.2151362 3.11156502,16.8050293 3.3233781,16.4439502 L9.93152689,5.17899911 C10.5947847,4.04833946 12.0584603,3.66396688 13.2007377,4.32047894 C13.560335,4.52715379 13.8592808,4.82305909 14.0680793,5.17899911 L20.6762281,16.4439502 Z M12,8 C11.4477153,8 11,8.44771525 11,9 L11,13 C11,13.5522847 11.4477153,14 12,14 C12.5522848,14 13,13.5522847 13,13 L13,9 C13,8.44771525 12.5522848,8 12,8 Z M12,16 C11.4477153,16 11,16.4477153 11,17 C11,17.5522847 11.4477153,18 12,18 C12.5522848,18 13,17.5522847 13,17 C13,16.4477153 12.5522848,16 12,16 Z"/>
</svg>
