<svg xmlns="http://www.w3.org/2000/svg" width="24" height="24" viewBox="0 0 24 24">
  <path d="M15.7071068,3 L21,8.29289322 L21,15.7071068 L15.7071068,21 L8.29289322,21 L3,15.7071068 L3,8.29289322 L8.29289322,3 L15.7071068,3 Z M15.293,4 L8.706,4 L4,8.706 L4,15.293 L8.707,20 L15.292,20 L20,15.292 L20,8.707 L15.293,4 Z M12,15 C12.5522847,15 13,15.4477153 13,16 C13,16.5128358 12.6139598,16.9355072 12.1166211,16.9932723 L12,17 C11.4477153,17 11,16.5522847 11,16 C11,15.4871642 11.3860402,15.0644928 11.8833789,15.0067277 L12,15 Z M12,7 C12.5522847,7 13,7.44771525 13,8 L13,12 C13,12.5128358 12.6139598,12.9355072 12.1166211,12.9932723 L12,13 C11.4477153,13 11,12.5522847 11,12 L11,8 C11,7.48716416 11.3860402,7.06449284 11.8833789,7.00672773 L12,7 Z"/>
</svg>
