<svg xmlns="http://www.w3.org/2000/svg" width="18" height="18" viewBox="0 0 18 18">
  <path d="M10.7037499,3.9623322 L15.7092882,11.9592754 C15.9070807,12.2850514 16.000829,12.6448689 16.000061,13 C15.9984263,13.6741191 15.6560657,14.3313518 15.0376694,14.7068067 C14.7247801,14.8967752 14.3657565,14.9972317 13.9997131,14.9972317 L4,14.9999236 C2.8954305,14.9999236 2,14.1045695 2,13 C2,12.6339566 2.10045645,12.2749331 2.29042497,11.9620437 L7.28459986,3.9623322 C7.66164996,3.34130849 8.32287747,2.99867105 9,2.99992355 C9.35233944,3.00069152 9.70898264,3.09451612 10.0321312,3.29071343 C10.3066867,3.45740786 10.5370555,3.68777667 10.7037499,3.9623322 Z M9,6 C8.44771525,6 8,6.44771525 8,7 L8,9 C8,9.55228475 8.44771525,10 9,10 C9.55228475,10 10,9.55228475 10,9 L10,7 C10,6.44771525 9.55228475,6 9,6 Z M9,11 C8.44771525,11 8,11.4477153 8,12 C8,12.5522847 8.44771525,13 9,13 C9.55228475,13 10,12.5522847 10,12 C10,11.4477153 9.55228475,11 9,11 Z"/>
</svg>
