<svg xmlns="http://www.w3.org/2000/svg" width="18" height="18" viewBox="0 0 18 18">
  <path d="M11.7071068,2 L16,6.29289322 L16,11.7071068 L11.7071068,16 L6.29289322,16 L2,11.7071068 L2,6.29289322 L6.29289322,2 L11.7071068,2 Z M11.293,3 L6.706,3 L3,6.706 L3,11.293 L6.707,15 L11.292,15 L15,11.292 L15,6.707 L11.293,3 Z M9,10 C9.55228475,10 10,10.4477153 10,11 C10,11.5522847 9.55228475,12 9,12 C8.44771525,12 8,11.5522847 8,11 C8,10.4477153 8.44771525,10 9,10 Z M9,5 C9.55228475,5 10,5.44771525 10,6 L10,8 C10,8.55228475 9.55228475,9 9,9 C8.44771525,9 8,8.55228475 8,8 L8,6 C8,5.44771525 8.44771525,5 9,5 Z"/>
</svg>
