<svg xmlns="http://www.w3.org/2000/svg" width="18" height="18" viewBox="0 0 18 18">
  <path d="M9,16 C5.13400675,16 2,12.8659932 2,9 C2,5.13400675 5.13400675,2 9,2 C12.8659932,2 16,5.13400675 16,9 C16,12.8659932 12.8659932,16 9,16 Z M9,5 C8.44771525,5 8,5.44771525 8,6 L8,8 C8,8.55228475 8.44771525,9 9,9 C9.55228475,9 10,8.55228475 10,8 L10,6 C10,5.44771525 9.55228475,5 9,5 Z M9,10 C8.44771525,10 8,10.4477153 8,11 C8,11.5522847 8.44771525,12 9,12 C9.55228475,12 10,11.5522847 10,11 C10,10.4477153 9.55228475,10 9,10 Z"/>
</svg>
