<svg xmlns="http://www.w3.org/2000/svg" width="24" height="24" viewBox="0 0 24 24">
  <path d="M15.7071068,3 L21,8.29289322 L21,15.7071068 L15.7071068,21 L8.29289322,21 L3,15.7071068 L3,8.29289322 L8.29289322,3 L15.7071068,3 Z M12,15 C11.4477153,15 11,15.4477153 11,16 C11,16.5522847 11.4477153,17 12,17 C12.5522847,17 13,16.5522847 13,16 C13,15.4477153 12.5522847,15 12,15 Z M12,7 C11.4871642,7 11.0644928,7.38604019 11.0067277,7.88337887 L11,8 L11,12 C11,12.5522847 11.4477153,13 12,13 C12.5128358,13 12.9355072,12.6139598 12.9932723,12.1166211 L13,12 L13,8 C13,7.44771525 12.5522847,7 12,7 Z"/>
</svg>
