<svg xmlns="http://www.w3.org/2000/svg" width="24" height="24" viewBox="0 0 24 24">
  <path d="M17,4 C18.1045695,4 19,4.8954305 19,6 L19,18 C19,19.1045695 18.1045695,20 17,20 L7,20 C5.8954305,20 5,19.1045695 5,18 L5,6 C5,4.8954305 5.8954305,4 7,4 L17,4 Z M17,5 L7,5 C6.48716416,5 6.06449284,5.38604019 6.00672773,5.88337887 L6,6 L6,18 C6,18.5128358 6.38604019,18.9355072 6.88337887,18.9932723 L7,19 L17,19 C17.5128358,19 17.9355072,18.6139598 17.9932723,18.1166211 L18,18 L18,6 C18,5.48716416 17.6139598,5.06449284 17.1166211,5.00672773 L17,5 Z M13,16 L13,17 L11,17 L11,16 L13,16 Z"/>
</svg>
