<svg xmlns="http://www.w3.org/2000/svg" width="25" height="24" viewBox="0 0 25 24">
  <path d="M19,11.7071068 L11.2071068,19.5 C10.8165825,19.8905243 10.1834175,19.8905243 9.79289322,19.5 L4.5,14.2071068 C4.10947571,13.8165825 4.10947571,13.1834175 4.5,12.7928932 L12.2928932,5 L19,5 L19,11.7071068 Z M18,6 L12.7071068,6 L5.20710678,13.5 L10.5,18.7928932 L18,11.2928932 L18,6 Z M15,10 C14.4477153,10 14,9.55228475 14,9 C14,8.44771525 14.4477153,8 15,8 C15.5522847,8 16,8.44771525 16,9 C16,9.55228475 15.5522847,10 15,10 Z" transform="translate(1)"/>
</svg>
