<svg xmlns="http://www.w3.org/2000/svg" width="18" height="18" viewBox="0 0 18 18">
  <path d="M15,3 L15,8.70710678 L8.85355339,14.8535534 C8.65829124,15.0488155 8.34170876,15.0488155 8.14644661,14.8535534 L3.14644661,9.85355339 C2.95118446,9.65829124 2.95118446,9.34170876 3.14644661,9.14644661 L9.29289322,3 L15,3 Z M14,4 L9.70710678,4 L4.20710678,9.5 L8.5,13.7928932 L14,8.29289322 L14,4 Z M12,5 C12.5522847,5 13,5.44771525 13,6 C13,6.55228475 12.5522847,7 12,7 C11.4477153,7 11,6.55228475 11,6 C11,5.44771525 11.4477153,5 12,5 Z"/>
</svg>
