<svg xmlns="http://www.w3.org/2000/svg" width="18" height="18" viewBox="0 0 18 18">
  <path d="M14,8 L14,14 C14,14.5522847 13.5522847,15 13,15 L5,15 C4.44771525,15 4,14.5522847 4,14 L4,8 C3.44798999,8 3.00046903,7.55256126 3.0003676,7.00055126 L3,5 C3,4.44771525 3.44771525,4 4,4 L14,4 C14.5522847,4 15,4.44771525 15,5 L15.005999,6.99699599 C15.0076581,7.54927824 14.5612898,7.99833642 14.0090076,7.99999549 L14,8 Z M4,5 L4,7 L14,7 L14,5 L4,5 Z M5,8 L5,14 L13,14 L13,8 L5,8 Z M7,9 L11,9 L11,10 L7,10 L7,9 Z"/>
</svg>
