<svg xmlns="http://www.w3.org/2000/svg" width="24" height="24" viewBox="0 0 24 24">
  <path d="M17,8 L17,15 C17,16.1045695 16.1045695,17 15,17 L8,17 L8,18 C8,18.5522847 8.44771525,19 9,19 L18,19 C18.5522847,19 19,18.5522847 19,18 L19,9 C19,8.44771525 18.5522847,8 18,8 L17,8 Z M17,7 L18,7 C19.1045695,7 20,7.8954305 20,9 L20,18 C20,19.1045695 19.1045695,20 18,20 L9,20 C7.8954305,20 7,19.1045695 7,18 L7,17 L6,17 C4.8954305,17 4,16.1045695 4,15 L4,6 C4,4.8954305 4.8954305,4 6,4 L15,4 C16.1045695,4 17,4.8954305 17,6 L17,7 Z M6,5 C5.44771525,5 5,5.44771525 5,6 L5,15 C5,15.5522847 5.44771525,16 6,16 L15,16 C15.5522847,16 16,15.5522847 16,15 L16,6 C16,5.44771525 15.5522847,5 15,5 L6,5 Z M13.1464466,8.14644661 C13.3417088,7.95118446 13.6582912,7.95118446 13.8535534,8.14644661 C14.0488155,8.34170876 14.0488155,8.65829124 13.8535534,8.85355339 L10,12.7071068 L8.14644661,10.8535534 C7.95118446,10.6582912 7.95118446,10.3417088 8.14644661,10.1464466 C8.34170876,9.95118446 8.65829124,9.95118446 8.85355339,10.1464466 L10,11.2928932 L13.1464466,8.14644661 Z"/>
</svg>
