<svg xmlns="http://www.w3.org/2000/svg" width="18" height="18" viewBox="0 0 18 18">
  <path d="M12,6 L13,6 C13.5522847,6 14,6.44771525 14,7 L14,14 C14,14.5522847 13.5522847,15 13,15 L6,15 C5.44771525,15 5,14.5522847 5,14 L5,13 L4,13 C3.44771525,13 3,12.5522847 3,12 L3,5 C3,4.44771525 3.44771525,4 4,4 L11,4 C11.5522847,4 12,4.44771525 12,5 L12,6 Z M5.99915748,13 L6,14 L13,14 L13,7 L11.985072,7 L11.9969599,11.9976213 C11.9982736,12.5499045 11.5516246,12.9986834 10.9993414,12.9999972 L5.99915748,13 Z M4,5 L4,12 L11,12 L11,5 L4,5 Z M9.14600053,6.14647143 C9.34124896,5.95119558 9.65783145,5.95117335 9.85310731,6.14642179 C10.0483832,6.34167022 10.0484054,6.65825271 9.85315695,6.85352857 L6.50002483,10.2071316 L5.14644661,8.85355339 C4.95118446,8.65829124 4.95118446,8.34170876 5.14644661,8.14644661 C5.34170876,7.95118446 5.65829124,7.95118446 5.85355339,8.14644661 L6.49997517,8.79286839 L9.14600053,6.14647143 Z"/>
</svg>
