<svg xmlns="http://www.w3.org/2000/svg" width="18" height="18" viewBox="0 0 18 18">
  <path d="M9.5,2 C10.8807119,2 12,3.11928813 12,4.5 L12.0010266,10.0515567 C12.6190155,10.6827339 13,11.5468751 13,12.5 C13,14.4329966 11.4329966,16 9.5,16 C7.56700338,16 6,14.4329966 6,12.5 C6,11.5466052 6.38120037,10.6822445 6.99949854,10.0510205 L7,4.5 C7,3.11928813 8.11928813,2 9.5,2 Z M9.5,3 C8.67157288,3 8,3.67157288 8,4.5 L8.00004507,10.4997831 C7.39279608,10.9558841 7,11.6820708 7,12.5 C7,13.8807119 8.11928813,15 9.5,15 C10.8807119,15 12,13.8807119 12,12.5 C12,11.6825273 11.6076422,10.9566946 11.0009713,10.5005469 L11,4.5 C11,3.67157288 10.3284271,3 9.5,3 Z M10,5 L10.000703,11.0856015 C10.5829319,11.2917181 11,11.8471533 11,12.5 C11,13.3284271 10.3284271,14 9.5,14 C8.67157288,14 8,13.3284271 8,12.5 C8,11.8467813 8.41754351,11.2910851 9.00029246,11.0852495 L9,5 L10,5 Z"/>
</svg>
