<svg xmlns="http://www.w3.org/2000/svg" width="24" height="24" viewBox="0 0 24 24">
  <path d="M19,5 C19.5522847,5 20,5.44771525 20,6 L20,18 C20,18.5522847 19.5522847,19 19,19 L4,19 C3.44771525,19 3,18.5522847 3,18 L3,6 C3,5.44771525 3.44771525,5 4,5 L19,5 Z M14,6 L4,6 L4,18 L14,18 L14,6 Z M19,14 L15,14 L15,18 L19,18 L19,14 Z M9.48028837,8.35820058 C9.88354778,9.5 11.7055354,14.5834798 11.970871,15.3318318 C12.1924133,15.9300232 11.2858124,16.2715759 11.029129,15.6681682 C10.8935964,15.3022372 10.6948413,14.7460282 10.4328638,13.999541 L7.56686376,13.999541 C7.22457329,14.9578526 7.02590902,15.5140616 6.97087096,15.6681682 C6.72677612,16.2878876 5.80741882,15.9525909 6.02912904,15.3318318 C6.25657991,14.7047682 8.21685791,9.21212769 8.51971163,8.35820058 C8.68701172,7.89816284 9.25531006,7.89816284 9.48028837,8.35820058 Z M19,6 L15,6 L15,13 L19,13 L19,6 Z M9,9.98660687 L7.92386376,12.999541 L10.0758638,12.999541 L9,9.98660687 Z"/>
</svg>
