<svg xmlns="http://www.w3.org/2000/svg" width="24" height="24" viewBox="0 0 24 24">
  <path d="M10.062,9.23 L12.1396204,3 L13,3 C14.1045695,3 15,3.8954305 15,5 L15,9 L19.0173959,9 C20.1219654,9 21.0173959,9.8954305 21.0173959,11 C21.0173959,11.131704 21.0043865,11.2630859 20.9785572,11.3922323 L19.5785572,18.3922323 C19.3915875,19.3270807 18.5707579,20 17.6173959,20 L10.2928932,20 L9,18.707 L9,10.292 L10.062,9.23 Z M5,10 L7,10 C7.55228475,10 8,10.4477153 8,11 L8,20 C8,20.5522847 7.55228475,21 7,21 L5,21 C4.44771525,21 4,20.5522847 4,20 L4,11 C4,10.4477153 4.44771525,10 5,10 Z"/>
</svg>
