<svg xmlns="http://www.w3.org/2000/svg" width="24" height="24" viewBox="0 0 24 24">
  <path d="M11.5,3 C16.7467051,3 21,7.25329488 21,12.5 C21,17.7467051 16.7467051,22 11.5,22 C6.25329488,22 2,17.7467051 2,12.5 C2,7.25329488 6.25329488,3 11.5,3 Z M11.5,4 C6.80557963,4 3,7.80557963 3,12.5 C3,17.1944204 6.80557963,21 11.5,21 C16.1944204,21 20,17.1944204 20,12.5 C20,7.80557963 16.1944204,4 11.5,4 Z M12,7 L12,12.293 L14.8535534,15.1464466 C15.0488155,15.3417088 15.0488155,15.6582912 14.8535534,15.8535534 C14.679987,16.0271197 14.4105626,16.0464049 14.2156945,15.9114088 L14.1464466,15.8535534 L11.1464466,12.8535534 C11.0351265,12.7422333 10.9872707,12.5914816 11.002879,12.4462587 L11,12.4 L11,7 L12,7 Z"/>
</svg>
