<svg xmlns="http://www.w3.org/2000/svg" width="18" height="18" viewBox="0 0 18 18">
  <path d="M8.5,1 C12.6421356,1 16,4.35786438 16,8.5 C16,12.6421356 12.6421356,16 8.5,16 C4.35786438,16 1,12.6421356 1,8.5 C1,4.35786438 4.35786438,1 8.5,1 Z M8.5,2 C4.91014913,2 2,4.91014913 2,8.5 C2,12.0898509 4.91014913,15 8.5,15 C12.0898509,15 15,12.0898509 15,8.5 C15,4.91014913 12.0898509,2 8.5,2 Z M9,4 L9,8.293 L11.8535534,11.1464466 C12.0488155,11.3417088 12.0488155,11.6582912 11.8535534,11.8535534 C11.679987,12.0271197 11.4105626,12.0464049 11.2156945,11.9114088 L11.1464466,11.8535534 L8.14644661,8.85355339 L8.10896102,8.81166225 L8.06674743,8.74976515 L8.03761056,8.6905951 L8.01661082,8.62813914 L8.00544807,8.57406693 L8.00182199,8.54281541 L8,4 L9,4 Z"/>
</svg>
