<svg xmlns="http://www.w3.org/2000/svg" width="18" height="18" viewBox="0 0 18 18">
  <path d="M4,5 L6,5 L6,4 C6,3.44771525 6.44771525,3 7,3 L11,3 C11.5522847,3 12,3.44771525 12,4 L12,5 L14,5 C14.5522847,5 15,5.44771525 15,6 L15,13 C15,13.5522847 14.5522847,14 14,14 L4,14 C3.44771525,14 3,13.5522847 3,13 L3,6 C3,5.44771525 3.44771525,5 4,5 Z M7,4 L7,5 L11,5 L11,4 L7,4 Z M4,6 L4,8 L6,8 L6,7 L7,7 L7,8 L11,8 L11,7 L12,7 L12,8 L14,8 L14,6 L4,6 Z M4,9 L4,13 L14,13 L14,9 L12,9 L12,10 L11,10 L11,9 L7,9 L7,10 L6,10 L6,9 L4,9 Z"/>
</svg>
