<svg xmlns="http://www.w3.org/2000/svg" width="24" height="24" viewBox="0 0 24 24">
  <path d="M8,8 L8,7 C8,5.8954305 8.8954305,5 10,5 L14,5 C15.1045695,5 16,5.8954305 16,7 L16,8 L19,8 C19.5522847,8 20,8.44771525 20,9 L20,18 C20,18.5522847 19.5522847,19 19,19 L5,19 C4.44771525,19 4,18.5522847 4,18 L4,9 C4,8.44771525 4.44771525,8 5,8 L8,8 Z M9,8 L15,8 L15,7 C15,6.44771525 14.5522847,6 14,6 L10,6 C9.44771525,6 9,6.44771525 9,7 L9,8 Z M19,9 L5,9 L5,12 L8,12 L8,11 L9,11 L9,12 L15,12 L15,11 L16,11 L16,12 L19,12 L19,9 Z M5,13 L5,18 L19,18 L19,13 L16,13 L16,14 L15,14 L15,13 L9,13 L9,14 L8,14 L8,13 L5,13 Z"/>
</svg>
