<svg xmlns="http://www.w3.org/2000/svg" width="24" height="24" viewBox="0 0 24 24">
  <path d="M10,20 L7,20 C6.44771525,20 6,19.5522847 6,19 L6,6 C6,5.44771525 6.44771525,5 7,5 L12.7099045,5 L17,9.2995551 L17,10 L12,10 L12,6 L7,6 L7,19 L10,19 L10,20 Z M13,6.70710678 L13,9 L15.2928932,9 L13,6.70710678 Z M13.7071068,20 L14.8522924,21.1468948 C15.0474996,21.3422574 15.0474365,21.6588574 14.8520567,21.8542372 C14.6567945,22.0493945 14.3402971,22.0493095 14.1451398,21.8540474 L11.7928932,19.5 L14.1449678,17.1493863 C14.3402849,16.9541543 14.656877,16.9541888 14.8522658,17.1495776 C15.0474018,17.3448398 15.0472994,17.6613199 14.8520373,17.8564558 L13.7071068,19 L19,19 L19,20 L13.7071068,20 Z M17.2928932,15 L12,15 L12,14 L17.2928932,14 L16.1479627,12.8564558 C15.9527006,12.6613199 15.9525982,12.3448398 16.1477342,12.1495776 C16.343123,11.9541888 16.6597151,11.9541543 16.8550322,12.1493863 L19.2071068,14.5 L16.8548602,16.8540474 C16.6597029,17.0493095 16.3432055,17.0493945 16.1479433,16.8542372 C15.9525635,16.6588574 15.9525004,16.3422574 16.1477076,16.1468948 L17.2928932,15 Z"/>
</svg>
