<svg xmlns="http://www.w3.org/2000/svg" width="24" height="24" viewBox="0 0 24 24">
  <path d="M5,3 L19,3 C19.5522847,3 20,3.44771525 20,4 L20,6 C20,6.55228475 19.5522847,7 19,7 L5,7 C4.44771525,7 4,6.55228475 4,6 L4,4 C4,3.44771525 4.44771525,3 5,3 Z M5,4 L5,6 L19,6 L19,4 L5,4 Z M6,9 L18,9 C18.5522847,9 19,9.44771525 19,10 L19,18 C19,18.5522847 18.5522847,19 18,19 L6,19 C5.44771525,19 5,18.5522847 5,18 L5,10 C5,9.44771525 5.44771525,9 6,9 Z M6,10 L6,18 L18,18 L18,10 L6,10 Z M9,12 L15,12 L15,13 L9,13 L9,12 Z M10,14 L14,14 L14,15 L10,15 L10,14 Z"/>
</svg>
