<svg xmlns="http://www.w3.org/2000/svg" width="18" height="18" viewBox="0 0 18 18">
  <path d="M5,7 L13,7 C13.5522847,7 14,7.44771525 14,8 L14,14 C14,14.5522847 13.5522847,15 13,15 L5,15 C4.44771525,15 4,14.5522847 4,14 L4,8 C4,7.44771525 4.44771525,7 5,7 Z M5,8 L5,14 L13,14 L13,8 L5,8 Z M4,2 L14,2 C14.5522847,2 15,2.44771525 15,3 L15,4 C15,4.55228475 14.5522847,5 14,5 L4,5 C3.44771525,5 3,4.55228475 3,4 L3,3 C3,2.44771525 3.44771525,2 4,2 Z M4,3 L4,4 L14,4 L14,3 L4,3 Z M7,9 L11,9 L11,10 L7,10 L7,9 Z"/>
</svg>
