<svg xmlns="http://www.w3.org/2000/svg" width="18" height="18" viewBox="0 0 18 18">
  <path d="M6,11.2948673 L7.15331045,10.1448728 C7.34654262,9.95240355 7.65921539,9.95302202 7.85168463,10.1462542 C8.04444957,10.339851 8.04442896,10.6527593 7.8516995,10.8462695 L5.5,13.2071068 L3.14445942,10.8428858 C2.95116439,10.6514756 2.94963639,10.3396104 3.14104655,10.1463154 L3.1427488,10.1446048 C3.3367355,9.95061809 3.65065425,9.94870272 3.84699363,10.1403078 L5,11.2948673 L5,9.5 C5,7.01471863 7.01471863,5 9.5,5 C11.9852814,5 14,7.01471863 14,9.5 L14,14 L13,14 L13,9.5 C13,7.56700338 11.4329966,6 9.5,6 C7.56700338,6 6,7.56700338 6,9.5 L6,11.2948673 Z"/>
</svg>
