<svg xmlns="http://www.w3.org/2000/svg" width="24" height="24" viewBox="0 0 24 24">
  <path d="M8.95710678,10.25 C9.13067313,10.4235664 9.14995828,10.6929908 9.01496223,10.8878589 L8.95710678,10.9571068 C8.78354043,11.1306731 8.51411603,11.1499583 8.31924789,11.0149622 L8.25,10.9571068 L4.89644661,7.60355339 L8.25,4.25 C8.44526215,4.05473785 8.76184464,4.05473785 8.95710678,4.25 C9.13067313,4.42356635 9.14995828,4.69299075 9.01496223,4.88785889 L8.95710678,4.95710678 L6.91344661,6.99955339 L14,7 C17.3137085,7 20,9.6862915 20,13 C20,16.2383969 17.4344251,18.8775718 14.2249383,18.9958615 L14,19 L11,19 L11,18 L14,18 C16.7614237,18 19,15.7614237 19,13 C19,10.3112453 16.8776933,8.11818189 14.2168896,8.00461951 L14,8 L6.70744661,7.99955339 L8.95710678,10.25 Z"/>
</svg>
