<svg xmlns="http://www.w3.org/2000/svg" width="18" height="18" viewBox="0 0 18 18">
  <path d="M4.5,7.63600094 L3.70679672,9.74988694 L5.29279672,9.74988694 L4.5,7.63600094 Z M12.5,7.63600094 L11.7067967,9.74988694 L13.2927967,9.74988694 L12.5,7.63600094 Z M0.797753117,13.2366574 L3.65730374,5.61118909 C3.94139099,4.84136963 5.06611633,4.84136963 5.34269626,5.61118909 L8.20224688,13.2366574 L8.20224688,13.2366574 C8.49647306,14.1050817 7.25285685,14.7439381 6.79775312,13.7633426 L5.85479672,11.2498869 L5.85479672,11.2498869 L3.14479672,11.2498869 L2.20224688,13.7633426 L2.20224688,13.7633426 C1.78026399,14.7130922 0.476684104,14.1369563 0.797753117,13.2366574 Z M8.79775312,13.2366574 L11.6573037,5.61118909 C11.941391,4.84136963 13.0661163,4.84136963 13.3426963,5.61118909 L16.2022469,13.2366574 L16.2022469,13.2366574 C16.4964731,14.1050817 15.2528569,14.7439381 14.7977531,13.7633426 L13.8547967,11.2498869 L13.8547967,11.2498869 L11.1447967,11.2498869 L10.2022469,13.7633426 L10.2022469,13.7633426 C9.78026399,14.7130922 8.4766841,14.1369563 8.79775312,13.2366574 Z"/>
</svg>
