<svg xmlns="http://www.w3.org/2000/svg" width="24" height="24" viewBox="0 0 24 24">
  <path d="M16.5,20 C14.5670034,20 13,18.4329966 13,16.5 C13,14.5670034 14.5670034,13 16.5,13 C18.4329966,13 20,14.5670034 20,16.5 C20,18.4329966 18.4329966,20 16.5,20 Z M18.5858017,15.1213051 L15.1213051,18.5858017 C15.5165216,18.8475616 15.9904588,19 16.5,19 C17.8807119,19 19,17.8807119 19,16.5 C19,15.9904588 18.8475616,15.5165216 18.5858017,15.1213051 Z M17.8786949,14.4141983 C17.4834784,14.1524384 17.0095412,14 16.5,14 C15.1192881,14 14,15.1192881 14,16.5 C14,17.0095412 14.1524384,17.4834784 14.4141983,17.8786949 L17.8786949,14.4141983 Z M12,20 L7,20 C6.44771525,20 6,19.5522847 6,19 L6,17 C6,14.4353804 7.60905341,12.2465753 9.87270435,11.3880407 C8.74765126,10.68015 8,9.42738667 8,8 C8,5.790861 9.790861,4 12,4 C14.209139,4 16,5.790861 16,8 C16,9.42738667 15.2523487,10.68015 14.1272957,11.3880407 C13.8392195,11.573004 13.4634542,11.7769904 13,12 L13,10.829 C14.165,10.417 15,9.307 15,8 C15,6.343 13.657,5 12,5 C10.343,5 9,6.343 9,8 C9,9.307 9.835,10.417 11,10.829 L11,12.1 C8.718,12.564 7,14.581 7,17 L7,19 L12,19 L12,20 Z"/>
</svg>
