<svg xmlns="http://www.w3.org/2000/svg" width="18" height="18" viewBox="0 0 18 18">
  <path d="M4,13 C4,10.8948158 5.30102603,9.09350251 7.14289226,8.35624595 C6.44680015,7.80685854 6,6.95560715 6,6 C6,4.34314575 7.34314575,3 9,3 C10.6568542,3 12,4.34314575 12,6 C12,6.95560715 11.5531998,7.80685854 10.8571077,8.35624595 C12.698974,9.09350251 14,10.8948158 14,13 L14,14 C14,14.5522847 13.5522847,15 13,15 L5,15 C4.44771525,15 4,14.5522847 4,14 L4,13 Z M5,13 L5,14 L13,14 L13,13 C13,11.1361606 11.7252272,9.57006028 10,9.12601749 L10,7.73243561 C10.5978014,7.38662619 11,6.74028236 11,6 C11,4.8954305 10.1045695,4 9,4 C7.8954305,4 7,4.8954305 7,6 C7,6.74028236 7.40219863,7.38662619 8,7.73243561 L8,9.12601749 C6.27477279,9.57006028 5,11.1361606 5,13 Z"/>
</svg>
