<svg xmlns="http://www.w3.org/2000/svg" width="24" height="24" viewBox="0 0 24 24">
  <path d="M19.2928932,17 L14,17 L14,16 L19.2928932,16 L17.1479627,13.8564558 C16.9527006,13.6613199 16.9525982,13.3448398 17.1477342,13.1495776 C17.343123,12.9541888 17.6597151,12.9541543 17.8550322,13.1493863 L21.2071068,16.5 L17.8548602,19.8540474 C17.6597029,20.0493095 17.3432055,20.0493945 17.1479433,19.8542372 C16.9525635,19.6588574 16.9525004,19.3422574 17.1477076,19.1468948 L19.2928932,17 Z M12,20 L7,20 C6.44771525,20 6,19.5522847 6,19 L6,17 C6,14.4353804 7.60905341,12.2465753 9.87270435,11.3880407 C8.74765126,10.68015 8,9.42738667 8,8 C8,5.790861 9.790861,4 12,4 C14.209139,4 16,5.790861 16,8 C16,9.42738667 15.2523487,10.68015 14.1272957,11.3880407 C13.8392195,11.573004 13.4634542,11.7769904 13,12 L13,10.829 C14.165,10.417 15,9.307 15,8 C15,6.343 13.657,5 12,5 C10.343,5 9,6.343 9,8 C9,9.307 9.835,10.417 11,10.829 L11,12.1 C8.718,12.564 7,14.581 7,17 L7,19 L12,19 L12,20 Z"/>
</svg>
