<svg xmlns="http://www.w3.org/2000/svg" width="24" height="24" viewBox="0 0 24 24">
  <path d="M15.7071068,17 L17.8522924,19.1468948 C18.0474996,19.3422574 18.0474365,19.6588574 17.8520567,19.8542372 C17.6567945,20.0493945 17.3402971,20.0493095 17.1451398,19.8540474 L13.7928932,16.5 L17.1449678,13.1493863 C17.3402849,12.9541543 17.656877,12.9541888 17.8522658,13.1495776 C18.0474018,13.3448398 18.0472994,13.6613199 17.8520373,13.8564558 L15.7071068,16 L21,16 L21,17 L15.7071068,17 Z M12,20 L7,20 C6.44771525,20 6,19.5522847 6,19 L6,17 C6,14.4353804 7.60905341,12.2465753 9.87270435,11.3880407 C8.74765126,10.68015 8,9.42738667 8,8 C8,5.790861 9.790861,4 12,4 C14.209139,4 16,5.790861 16,8 C16,9.42738667 15.2523487,10.68015 14.1272957,11.3880407 C13.8392195,11.573004 13.4634542,11.7769904 13,12 L13,10.829 C14.165,10.417 15,9.307 15,8 C15,6.343 13.657,5 12,5 C10.343,5 9,6.343 9,8 C9,9.307 9.835,10.417 11,10.829 L11,12.1 C8.718,12.564 7,14.581 7,17 L7,19 L12,19 L12,20 Z"/>
</svg>
