<svg xmlns="http://www.w3.org/2000/svg" width="18" height="18" viewBox="0 0 18 18">
  <path d="M10,9 L10,7.73243561 C10.5978014,7.38662619 11,6.74028236 11,6 C11,4.8954305 10.1045695,4 9,4 C7.8954305,4 7,4.8954305 7,6 C7,6.74028236 7.40219863,7.38662619 8,7.73243561 L8,9.12601749 C6.27477279,9.57006028 5,11.1361606 5,13 L5,14 L9,14 L9,15 L5,15 C4.44771525,15 4,14.5522847 4,14 L4,13 C4,10.8948158 5.30102603,9.09350251 7.14289226,8.35624595 C6.44680015,7.80685854 6,6.95560715 6,6 C6,4.34314575 7.34314575,3 9,3 C10.6568542,3 12,4.34314575 12,6 C12,6.89068124 11.6118504,7.69070528 10.9954753,8.24014804 L11,9 L10,9 Z M13.5,11.7928932 L15.1464466,10.1464466 C15.3417088,9.95118446 15.6582912,9.95118446 15.8535534,10.1464466 C16.0488155,10.3417088 16.0488155,10.6582912 15.8535534,10.8535534 L14.2071068,12.5 L15.8535534,14.1464466 C16.0488155,14.3417088 16.0488155,14.6582912 15.8535534,14.8535534 C15.6582912,15.0488155 15.3417088,15.0488155 15.1464466,14.8535534 L13.5,13.2071068 L11.8535534,14.8535534 C11.6582912,15.0488155 11.3417088,15.0488155 11.1464466,14.8535534 C10.9511845,14.6582912 10.9511845,14.3417088 11.1464466,14.1464466 L12.7928932,12.5 L11.1464466,10.8535534 C10.9511845,10.6582912 10.9511845,10.3417088 11.1464466,10.1464466 C11.3417088,9.95118446 11.6582912,9.95118446 11.8535534,10.1464466 L13.5,11.7928932 Z"/>
</svg>
