<svg xmlns="http://www.w3.org/2000/svg" width="18" height="18" viewBox="0 0 18 18">
  <path d="M13,3 L13,15 C13,15.5522847 12.5522847,16 12,16 L5,16 C4.44771525,16 4,15.5522847 4,15 L4,3 C4,2.44771525 4.44771525,2 5,2 L12,2 C12.5522847,2 13,2.44771525 13,3 Z M12,3 L5,3 L5,15 L12,15 L12,3 Z M10.1464466,7.14644661 C10.3417088,6.95118446 10.6582912,6.95118446 10.8535534,7.14644661 C11.0488155,7.34170876 11.0488155,7.65829124 10.8535534,7.85355339 L7.5,11.2071068 L6.14644661,9.85355339 C5.95118446,9.65829124 5.95118446,9.34170876 6.14644661,9.14644661 C6.34170876,8.95118446 6.65829124,8.95118446 6.85355339,9.14644661 L7.5,9.79289322 L10.1464466,7.14644661 Z"/>
</svg>
