<svg xmlns="http://www.w3.org/2000/svg" width="24" height="24" viewBox="0 0 24 24">
  <path d="M2.84355718,0.136605839 L2.9032025,0.204318168 L13.9032025,15.2043182 C14.0665031,15.4270008 14.0183644,15.7399019 13.7956818,15.9032025 C13.7214543,15.957636 13.6372025,15.9885763 13.5518086,15.9973898 L13.4663629,15.9988784 C13.3528051,15.9911639 13.2424803,15.9449228 13.1564428,15.8633942 L13.0967975,15.7956818 L2.0967975,0.795681832 C1.93349694,0.572999241 1.98163558,0.260098069 2.20431817,0.0967975021 C2.2785457,0.0423639799 2.36279752,0.0114237031 2.44819143,0.00261018061 L2.53363707,0.00112163208 C2.64719493,0.00883605165 2.75751966,0.0550771508 2.84355718,0.136605839 Z M2.473,2.99912163 L3.206,3.99912163 L2,3.99996634 C1.4865,3.99996634 1.06439796,4.38542347 1.00671757,4.88324672 L1,5 L1,12 C1,12.5135 1.38542347,12.935602 1.88324672,12.9932824 L2,13 L9.806,12.9991216 L10.4949979,13.9381891 C10.3916457,13.9645348 10.2850849,13.9828243 10.1760246,13.9923485 L10,14 L2,14 C0.946181818,14 0.0818842975,13.1836033 0.00548910594,12.1491916 L0,12 L0,5 C0,3.94618182 0.816396694,3.0818843 1.85080841,3.00548911 L2,3 L2.473,2.99912163 Z M6.192,2.99912163 L10,3 C11.0538182,3 11.9181157,3.81639669 11.9945109,4.85080841 L12,5 L12,6 L16,4 L16,13 L12.094,11.0461216 L11,9.55512163 L11,9.5 L15,11.382 L15,5.618 L11,7.5 L11,5 C11,4.4865 10.6145765,4.06439796 10.1167533,4.00671757 L10,3.99996634 L6.926,3.99912163 L6.192,2.99912163 Z M5.406,6.99912163 L4,7 C3.75466667,7 3.55041975,6.82301235 3.50806036,6.58983813 L3.5,6.5 C3.5,6.25466667 3.67698765,6.05041975 3.91016187,6.00806036 L4,6 L4.673,5.99912163 L5.406,6.99912163 Z" />
</svg>
