<svg xmlns="http://www.w3.org/2000/svg" width="24" height="24" viewBox="0 0 24 24">
  <path d="M12,4 C17.0881603,4 21,7.57707812 21,12 C21,13.0161605 20.7877292,14.0140623 20.3798639,14.9461513 L20.31,15.094 L20.9897765,18.3994068 C21.0529889,18.7071809 20.8215955,18.9882837 20.5206775,18.9997597 L20.4370542,18.996022 L17.173,18.581 L17.045898,18.6618802 C15.7844205,19.4147467 14.3171173,19.8677212 12.7369718,19.9751302 L12.3703621,19.9937618 L12,20 C6.91183971,20 3,16.4229219 3,12 C3,7.57707812 6.91183971,4 12,4 Z M15,11 C14.4477153,11 14,11.4477153 14,12 C14,12.5522847 14.4477153,13 15,13 C15.5522847,13 16,12.5522847 16,12 C16,11.4477153 15.5522847,11 15,11 Z M12,11 C11.4477153,11 11,11.4477153 11,12 C11,12.5522847 11.4477153,13 12,13 C12.5522847,13 13,12.5522847 13,12 C13,11.4477153 12.5522847,11 12,11 Z M9,11 C8.44771525,11 8,11.4477153 8,12 C8,12.5522847 8.44771525,13 9,13 C9.55228475,13 10,12.5522847 10,12 C10,11.4477153 9.55228475,11 9,11 Z"/>
</svg>
