<svg xmlns="http://www.w3.org/2000/svg" width="18" height="18" viewBox="0 0 18 18">
  <path d="M10,3 C10.5522847,3 11,3.44771525 11,4 L12,4 C12.5522847,4 13,4.44771525 13,5 L13,14 C13,14.5522847 12.5522847,15 12,15 L5,15 C4.44771525,15 4,14.5522847 4,14 L4,5 C4,4.44771525 4.44771525,4 5,4 L6,4 C6,3.44771525 6.44771525,3 7,3 L10,3 Z M6,5 L5,5 L5,14 L12,14 L12,5 L11,5 L11,6 L6,6 L6,5 Z M11,11 L11,12 L6,12 L6,11 L11,11 Z M11,9 L11,10 L6,10 L6,9 L11,9 Z M11,7 L11,8 L6,8 L6,7 L11,7 Z M10,4 L7,4 L7,5 L10,5 L10,4 Z"/>
</svg>
