<svg xmlns="http://www.w3.org/2000/svg" width="24" height="24" viewBox="0 0 24 24">
  <path d="M18.2510909,7.325776 C18.9395455,7.505032 19.4816364,8.033208 19.6656364,8.703944 C19.9742797,9.82606585 19.9980215,12.0735963 19.9998478,12.4127304 L19.9998478,12.4992682 C19.9980215,12.8383918 19.9742797,15.0858597 19.6656364,16.208144 C19.4816364,16.878792 18.9395455,17.406968 18.2510909,17.586312 C17.039013,17.9026946 12.2828407,17.9117341 12.0120488,17.9119924 L12,17.912 C12,17.912 6.99663636,17.912 5.74890909,17.586312 C5.06054545,17.406968 4.51836364,16.878792 4.33436364,16.208144 C4.05144056,15.1793834 4.00791393,13.205156 4.00121753,12.6220508 L4.00121753,12.2899443 C4.00791393,11.7068232 4.05144056,9.73255569 4.33436364,8.703944 C4.51836364,8.033208 5.06054545,7.505032 5.74890909,7.325776 C6.78274026,7.05584731 10.3949308,7.00957383 11.6030141,7.00164123 L12.3969859,7.00164123 C13.6050692,7.00957383 17.2172597,7.05584731 18.2510909,7.325776 Z M10,10 L10,15 L15,12.5000955 L10,10 Z"/>
</svg>
