<svg xmlns="http://www.w3.org/2000/svg" width="18" height="18" viewBox="0 0 18 18">
  <path d="M14.7492273,6.24922581 C15,7.14045161 15,9 15,9 C15,9 15,10.8594839 14.7492273,11.7508387 C14.6112273,12.2425161 14.2046591,12.6297419 13.6883182,12.7612258 C12.7525227,13 9,13 9,13 C9,13 5.24747727,13 4.31168182,12.7612258 C3.79540909,12.6297419 3.38877273,12.2425161 3.25077273,11.7508387 C3,10.8594839 3,9 3,9 C3,9 3,7.14045161 3.25077273,6.24922581 C3.38877273,5.75748387 3.79540909,5.37025806 4.31168182,5.23883871 C5.24747727,5 9,5 9,5 C9,5 12.7525227,5 13.6883182,5.23883871 C14.2046591,5.37025806 14.6112273,5.75748387 14.7492273,6.24922581 Z M13.7866088,6.52008696 C13.746309,6.37648565 13.6159053,6.25229027 13.4410203,6.2077782 C13.1800186,6.14116396 12.4235558,6.08061403 11.412552,6.04385688 C10.8858674,6.02470817 10.3196473,6.01235651 9.75315846,6.00549122 C9.41314768,6.00137062 9.14925624,6 9,6 C8.85074376,6 8.58685232,6.00137062 8.24684154,6.00549122 C7.68035271,6.01235651 7.1141326,6.02470817 6.58744796,6.04385688 C5.57644416,6.08061403 4.81998142,6.14116396 4.55836899,6.20793387 C4.38413239,6.25228652 4.25368084,6.3765217 4.21339115,6.52008696 C4.1552278,6.72679478 4.10434257,7.06353278 4.06739672,7.48015749 C4.03813535,7.81012709 4.01908133,8.16823555 4.00847661,8.52699211 C4.00210611,8.74250543 4,8.90875384 4,9 C4,9.0912532 4.00210646,9.25751453 4.00847804,9.47304461 C4.01908456,9.83182909 4.03814179,10.1899654 4.06740811,10.5199607 C4.10435419,10.9365499 4.15523708,11.2732728 4.21356861,11.480609 C4.25366991,11.6234851 4.38416893,11.7477655 4.55891701,11.7922703 C4.81994197,11.8588725 5.57641436,11.9194068 6.58743816,11.9561548 C7.11412523,11.9752984 7.68034742,11.9876468 8.24683827,11.9945102 C8.58685022,11.9986297 8.85074274,12 9,12 C9.14925726,12 9.41314978,11.9986297 9.75316173,11.9945102 C10.3196526,11.9876468 10.8858748,11.9752984 11.4125618,11.9561548 C12.4235856,11.9194068 13.180058,11.8588725 13.4415479,11.7921518 C13.6158688,11.7477618 13.74632,11.6235212 13.7865986,11.4800139 C13.8447629,11.2732728 13.8956458,10.9365499 13.9325919,10.5199607 C13.9618582,10.1899654 13.9809154,9.83182909 13.991522,9.47304461 C13.9978935,9.25751453 14,9.0912532 14,9 C14,8.90875384 13.9978939,8.74250543 13.9915234,8.52699211 C13.9809187,8.16823555 13.9618647,7.81012709 13.9326033,7.48015749 C13.8956574,7.06353278 13.8447722,6.72679478 13.7866088,6.52008696 Z M8,7 L11,9 L8,11 L8,7 Z"/>
</svg>
