<svg xmlns="http://www.w3.org/2000/svg" width="24" height="24" viewBox="0 0 24 24">
  <path d="M19.6656364,8.703944 C20,9.919576 20,12.456 20,12.456 C20,12.456 20,14.992336 19.6656364,16.208144 C19.4816364,16.878792 18.9395455,17.406968 18.2510909,17.586312 C17.0033636,17.912 12,17.912 12,17.912 C12,17.912 6.99663636,17.912 5.74890909,17.586312 C5.06054545,17.406968 4.51836364,16.878792 4.33436364,16.208144 C4,14.992336 4,12.456 4,12.456 C4,12.456 4,9.919576 4.33436364,8.703944 C4.51836364,8.033208 5.06054545,7.505032 5.74890909,7.325776 C6.99663636,7 12,7 12,7 C12,7 17.0033636,7 18.2510909,7.325776 C18.9395455,7.505032 19.4816364,8.033208 19.6656364,8.703944 Z M18.7014441,8.96914829 C18.6125484,8.64509722 18.3438001,8.38325673 17.9984643,8.29333985 C17.6200243,8.19453086 16.6011746,8.11110285 15.2280126,8.06003044 C14.52297,8.03380759 13.7656084,8.01690633 13.007972,8.00751333 C12.7425835,8.00422311 12.4962158,8.00210852 12.2752882,8.00093466 C12.1431985,8.00023282 12.0485979,7.99999999 12,7.99999999 C11.9514021,7.99999999 11.8568015,8.00023282 11.7247118,8.00093466 C11.5037842,8.00210852 11.2574165,8.00422311 10.992028,8.00751333 C10.2343916,8.01690633 9.47703003,8.03380759 8.77198745,8.06003044 C7.39882536,8.11110285 6.3799757,8.19453086 6.00091355,8.29350207 C5.65624891,8.3832558 5.3874386,8.64514459 5.29855588,8.96914829 C5.21338295,9.27880797 5.14248654,9.75876273 5.09133809,10.3488109 C5.05159265,10.8073139 5.02580941,11.3030392 5.01146707,11.7993985 C5.0028543,12.097469 5,12.3279596 5,12.456 C5,12.5840503 5.00285479,12.8145589 5.01146902,13.1126526 C5.02581378,13.6090506 5.05160138,14.1048147 5.09135355,14.5633534 C5.14250199,15.1533476 5.21339475,15.6332781 5.29872628,15.94356 C5.38742817,16.266863 5.65628563,16.5287977 6.00147179,16.6187315 C6.37993542,16.7175199 7.398795,16.8009262 8.77197742,16.8519856 C9.47702249,16.8782015 10.2343862,16.8950982 10.9920247,16.9044887 C11.2574138,16.907778 11.5037821,16.909892 11.7247104,16.9110656 C11.8568005,16.9117672 11.9514014,16.912 12,16.912 C12.0485986,16.912 12.1431995,16.9117672 12.2752896,16.9110656 C12.4962179,16.909892 12.7425862,16.907778 13.0079753,16.9044887 C13.7656138,16.8950982 14.5229775,16.8782015 15.2280226,16.8519856 C16.601205,16.8009262 17.6200646,16.7175199 17.9990018,16.618608 C18.3437634,16.5287968 18.6125588,16.2669103 18.7014343,15.9429754 C18.7866052,15.6332781 18.857498,15.1533476 18.9086465,14.5633534 C18.9483986,14.1048147 18.9741862,13.6090506 18.988531,13.1126526 C18.9971452,12.8145589 19,12.5840503 19,12.456 C19,12.3279596 18.9971457,12.097469 18.9885329,11.7993985 C18.9741906,11.3030392 18.9484073,10.8073139 18.9086619,10.3488109 C18.8575135,9.75876273 18.786617,9.27880797 18.7014441,8.96914829 Z M10,15 L10,10 L15,12.5000955 L10,15 Z"/>
</svg>
