<svg xmlns="http://www.w3.org/2000/svg" width="18" height="18" viewBox="0 0 18 18">
  <path d="M13.6883182,5.23883871 C14.2046591,5.37025806 14.6112273,5.75748387 14.7492273,6.24922581 C14.9772025,7.05943109 14.9979275,8.66990296 14.9998116,8.95602012 L14.9998116,9.04397848 C14.9979275,9.33008691 14.9772025,10.9405161 14.7492273,11.7508387 C14.6112273,12.2425161 14.2046591,12.6297419 13.6883182,12.7612258 C12.8461023,12.9761226 9.72233727,12.9976123 9.10600643,12.9997612 L8.89399357,12.9997612 C8.27766273,12.9976123 5.15389773,12.9761226 4.31168182,12.7612258 C3.79540909,12.6297419 3.38877273,12.2425161 3.25077273,11.7508387 C3.04559504,11.0215484 3.00829001,9.64417169 3.00150727,9.1674162 L3.00150727,8.83257895 C3.00829001,8.35581125 3.04559504,6.97841056 3.25077273,6.24922581 C3.38877273,5.75748387 3.79540909,5.37025806 4.31168182,5.23883871 C5.09151136,5.03980645 7.82740152,5.00663441 8.71770297,5.00110573 L9.28229703,5.00110573 C10.1725985,5.00663441 12.9084886,5.03980645 13.6883182,5.23883871 Z M8,7 L8,11 L11,9 L8,7 Z"/>
</svg>
