<svg xmlns="http://www.w3.org/2000/svg" width="24" height="24" viewBox="0 0 24 24">
  <path d="M18.8458964,18.8450916 C18.650626,19.040362 18.3340371,19.0403851 18.1387382,18.8451431 L15.7291059,16.4362127 C14.5923385,17.4110487 13.1149477,18 11.5,18 C7.91014913,18 5,15.0898509 5,11.5 C5,7.91014913 7.91014913,5 11.5,5 C15.0898509,5 18,7.91014913 18,11.5 C18,13.1149477 17.4110487,14.5923385 16.4362127,15.7291059 L18.8458449,18.1380363 C19.0411071,18.3332415 19.0411532,18.6497779 18.8459479,18.8450401 L18.8458964,18.8450916 Z M11.5,17 C14.5375661,17 17,14.5375661 17,11.5 C17,8.46243388 14.5375661,6 11.5,6 C8.46243388,6 6,8.46243388 6,11.5 C6,14.5375661 8.46243388,17 11.5,17 Z M14,11 L14,12 L9,12 L9,11 L14,11 Z"/>
</svg>
