<svg xmlns="http://www.w3.org/2000/svg" width="24" height="24" viewBox="0 0 24 24">
  <path d="M18.8549958,18.8540978 C18.6597244,19.0493692 18.3431348,19.0493948 18.1478318,18.8541551 L15.7291059,16.4362127 C14.5923385,17.4110487 13.1149477,18 11.5,18 C7.91014913,18 5,15.0898509 5,11.5 C5,7.91014913 7.91014913,5 11.5,5 C15.0898509,5 18,7.91014913 18,11.5 C18,13.1149477 17.4110487,14.5923385 16.4362127,15.7291059 L18.8549386,18.1470483 C19.0502007,18.3422472 19.050252,18.6587784 18.8550531,18.8540405 L18.8549958,18.8540978 Z M11.5,17 C14.5375661,17 17,14.5375661 17,11.5 C17,8.46243388 14.5375661,6 11.5,6 C8.46243388,6 6,8.46243388 6,11.5 C6,14.5375661 8.46243388,17 11.5,17 Z M12,11 L14,11 L14,12 L12,12 L12,14 L11,14 L11,12 L9,12 L9,11 L11,11 L11,9 L12,9 L12,11 Z"/>
</svg>
