<svg xmlns="http://www.w3.org/2000/svg" width="18" height="18" viewBox="0 0 18 18">
  <path d="M14.8715273,14.1520526 C15.0656289,14.3452009 15.0664018,14.6591289 14.8732536,14.8532306 C14.6780207,15.0484432 14.3631276,15.0490504 14.168029,14.8554731 L12.0211212,12.7253063 C11.0671477,13.5211554 9.83949394,14 8.5,14 C5.46243388,14 3,11.5375661 3,8.5 C3,5.46243388 5.46243388,3 8.5,3 C11.5375661,3 14,5.46243388 14,8.5 C14,9.83827977 13.5220231,11.064922 12.7274697,12.0185263 L14.8715273,14.1520526 Z M8.5,13 C10.9852814,13 13,10.9852814 13,8.5 C13,6.01471863 10.9852814,4 8.5,4 C6.01471863,4 4,6.01471863 4,8.5 C4,10.9852814 6.01471863,13 8.5,13 Z M11,8 L11,9 L6,9 L6,8 L11,8 Z"/>
</svg>
