<svg xmlns="http://www.w3.org/2000/svg" width="18" height="24" viewBox="0 0 18 24">
  <path d="M2,10 L9,10 C10.1045695,10 11,10.8954305 11,12 L11,17 C11,18.6568542 9.65685425,20 8,20 L3,20 C1.34314575,20 0,18.6568542 0,17 L0,12 C0,10.8954305 0.8954305,10 2,10 Z M2,11 C1.44771525,11 1,11.4477153 1,12 L1,17 C1,18.1045695 1.8954305,19 3,19 L8,19 C9.1045695,19 10,18.1045695 10,17 L10,12 C10,11.4477153 9.55228475,11 9,11 L2,11 Z M5.5,6 C7.43299662,6 9,7.56700338 9,9.5 L9,10 L2,10 L2,9.5 C2,7.56700338 3.56700338,6 5.5,6 Z M5.5,7 C4.11928813,7 3,8.11928813 3,9.5 L3,10 L8,10 L8,9.5 C8,8.11928813 6.88071187,7 5.5,7 Z M6,14 L7,14 L7,15 L6,15 L6,17 L5,17 L5,15 L4,15 L4,14 L5,14 L5,13 L6,13 L6,14 Z M6,1 L8,1 L8,3 L6,3 L6,1 Z M10,1 L12,1 L12,3 L10,3 L10,1 Z M10,6 L12,6 L12,8 L10,8 L10,6 Z M6,21 L8,21 L8,23 L6,23 L6,21 Z M10,21 L12,21 L12,23 L10,23 L10,21 Z"/>
</svg>
