<svg xmlns="http://www.w3.org/2000/svg" width="30" height="30" viewBox="0 0 30 30">
  <path d="M15,4 C21.0751322,4 26,8.92486775 26,15 C26,21.0751322 21.0751322,26 15,26 C8.92486775,26 4,21.0751322 4,15 C4,8.92486775 8.92486775,4 15,4 Z M15,5 C9.4771525,5 5,9.4771525 5,15 C5,20.5228475 9.4771525,25 15,25 C20.5228475,25 25,20.5228475 25,15 C25,9.4771525 20.5228475,5 15,5 Z M10.8535534,18.1464466 C12.096151,19.3890442 13.4708015,20 15,20 C16.5291985,20 17.903849,19.3890442 19.1464466,18.1464466 C19.3417088,17.9511845 19.6582912,17.9511845 19.8535534,18.1464466 C20.0488155,18.3417088 20.0488155,18.6582912 19.8535534,18.8535534 C18.4294843,20.2776225 16.8041349,21 15,21 C13.1958651,21 11.5705157,20.2776225 10.1464466,18.8535534 C9.95118446,18.6582912 9.95118446,18.3417088 10.1464466,18.1464466 C10.3417088,17.9511845 10.6582912,17.9511845 10.8535534,18.1464466 Z M19,12 C19.5522847,12 20,12.4477153 20,13 C20,13.5522847 19.5522847,14 19,14 C18.4477153,14 18,13.5522847 18,13 C18,12.4477153 18.4477153,12 19,12 Z M11,12 C11.5522847,12 12,12.4477153 12,13 C12,13.5522847 11.5522847,14 11,14 C10.4477153,14 10,13.5522847 10,13 C10,12.4477153 10.4477153,12 11,12 Z"/>
</svg>
