<svg xmlns="http://www.w3.org/2000/svg" width="30" height="30" viewBox="0 0 30 30">
  <path d="M15,4 C21.0751322,4 26,8.92486775 26,15 C26,21.0751322 21.0751322,26 15,26 C8.92486775,26 4,21.0751322 4,15 C4,8.92486775 8.92486775,4 15,4 Z M15,5 C9.4771525,5 5,9.4771525 5,15 C5,20.5228475 9.4771525,25 15,25 C20.5228475,25 25,20.5228475 25,15 C25,9.4771525 20.5228475,5 15,5 Z M15,17 C16.8041349,17 18.4294843,17.7223775 19.8535534,19.1464466 C20.0488155,19.3417088 20.0488155,19.6582912 19.8535534,19.8535534 C19.6582912,20.0488155 19.3417088,20.0488155 19.1464466,19.8535534 C17.903849,18.6109558 16.5291985,18 15,18 C13.4708015,18 12.096151,18.6109558 10.8535534,19.8535534 C10.6582912,20.0488155 10.3417088,20.0488155 10.1464466,19.8535534 C9.95118446,19.6582912 9.95118446,19.3417088 10.1464466,19.1464466 C11.5705157,17.7223775 13.1958651,17 15,17 Z M17.5703029,12.0048795 L17.6581139,12.0256584 L20.6581139,13.0256584 C20.9200855,13.1129822 21.0616655,13.3961422 20.9743416,13.6581139 C20.8967204,13.8909776 20.6643645,14.028717 20.4296971,13.9951205 L20.3418861,13.9743416 L17.3418861,12.9743416 C17.0799145,12.8870178 16.9383345,12.6038578 17.0256584,12.3418861 C17.1032796,12.1090224 17.3356355,11.971283 17.5703029,12.0048795 Z M12.4296971,12.0048795 C12.6643645,11.971283 12.8967204,12.1090224 12.9743416,12.3418861 C13.0519629,12.5747498 12.9487218,12.8243549 12.74083,12.9382782 L12.6581139,12.9743416 L9.65811388,13.9743416 L9.57030295,13.9951205 C9.33563551,14.028717 9.10327958,13.8909776 9.02565835,13.6581139 C8.94803712,13.4252502 9.05127821,13.1756451 9.25917003,13.0617218 L9.34188612,13.0256584 L12.3418861,12.0256584 L12.4296971,12.0048795 Z"/>
</svg>
