<svg xmlns="http://www.w3.org/2000/svg" width="30" height="30" viewBox="0 0 30 30">
  <path d="M15,4 C21.0751322,4 26,8.92486775 26,15 C26,21.0751322 21.0751322,26 15,26 C8.92486775,26 4,21.0751322 4,15 C4,8.92486775 8.92486775,4 15,4 Z M15,5 C9.4771525,5 5,9.4771525 5,15 C5,20.5228475 9.4771525,25 15,25 C20.5228475,25 25,20.5228475 25,15 C25,9.4771525 20.5228475,5 15,5 Z M18.5,18 C18.7761424,18 19,18.2238576 19,18.5 C19,18.7454599 18.8231248,18.9496084 18.5898756,18.9919443 L18.5,19 L11.5,19 C11.2238576,19 11,18.7761424 11,18.5 C11,18.2545401 11.1768752,18.0503916 11.4101244,18.0080557 L11.5,18 L18.5,18 Z M19,12 C19.5522847,12 20,12.4477153 20,13 C20,13.5522847 19.5522847,14 19,14 C18.4477153,14 18,13.5522847 18,13 C18,12.4477153 18.4477153,12 19,12 Z M11,12 C11.5522847,12 12,12.4477153 12,13 C12,13.5522847 11.5522847,14 11,14 C10.4477153,14 10,13.5522847 10,13 C10,12.4477153 10.4477153,12 11,12 Z"/>
</svg>
