<svg xmlns="http://www.w3.org/2000/svg" width="24" height="24" viewBox="0 0 24 24">
  <path d="M12.5,17.5 L12.5,19 L11,19 L11,17.5 L12.5,17.5 Z M11.7,5.8 C14.0865993,5.8 15.4,7.11340068 15.4,9.5 C15.4,10.9426471 14.9157118,11.7315557 13.8100533,12.6016131 L13.4465523,12.8771014 C12.6821812,13.4488632 12.4329728,13.7590241 12.4031422,14.3653391 L12.4,14.5 L12.4,16 L11,16 L11,14.5 C11,13.3258257 11.4166673,12.6849965 12.41411,11.9042322 L12.78,11.6275 C13.7030543,10.9352093 14,10.4980392 14,9.5 C14,7.88659932 13.3134007,7.2 11.7,7.2 C10.1773106,7.2 9.54685977,7.83201686 9.42171935,9.79437885 L9.40987467,10.0179292 L8.011155,9.95806876 C8.13308845,7.1089306 9.32614896,5.8 11.7,5.8 Z"/>
</svg>
