<svg xmlns="http://www.w3.org/2000/svg" width="36" height="36" viewBox="0 0 36 36">
  <path d="M5.70710678,19 L7.85355339,21.1464466 C8.04881554,21.3417088 8.04881554,21.6582912 7.85355339,21.8535534 C7.65829124,22.0488155 7.34170876,22.0488155 7.14644661,21.8535534 L4.14644661,18.8535534 C3.95118446,18.6582912 3.95118446,18.3417088 4.14644661,18.1464466 L7.14644661,15.1464466 C7.34170876,14.9511845 7.65829124,14.9511845 7.85355339,15.1464466 C8.04881554,15.3417088 8.04881554,15.6582912 7.85355339,15.8535534 L5.70710678,18 L17,18 L17,6.70710678 L14.8535534,8.85355339 C14.6582912,9.04881554 14.3417088,9.04881554 14.1464466,8.85355339 C13.9511845,8.65829124 13.9511845,8.34170876 14.1464466,8.14644661 L17.1464466,5.14644661 C17.3417088,4.95118446 17.6582912,4.95118446 17.8535534,5.14644661 L20.8535534,8.14644661 C21.0488155,8.34170876 21.0488155,8.65829124 20.8535534,8.85355339 C20.6582912,9.04881554 20.3417088,9.04881554 20.1464466,8.85355339 L18,6.70710678 L18,18 L29.2928932,18 L27.1464466,15.8535534 C26.9511845,15.6582912 26.9511845,15.3417088 27.1464466,15.1464466 C27.3417088,14.9511845 27.6582912,14.9511845 27.8535534,15.1464466 L30.8535534,18.1464466 C31.0488155,18.3417088 31.0488155,18.6582912 30.8535534,18.8535534 L27.8535534,21.8535534 C27.6582912,22.0488155 27.3417088,22.0488155 27.1464466,21.8535534 C26.9511845,21.6582912 26.9511845,21.3417088 27.1464466,21.1464466 L29.2928932,19 L18,19 L18,30.2928932 L20.1464466,28.1464466 C20.3417088,27.9511845 20.6582912,27.9511845 20.8535534,28.1464466 C21.0488155,28.3417088 21.0488155,28.6582912 20.8535534,28.8535534 L17.8535534,31.8535534 C17.6582912,32.0488155 17.3417088,32.0488155 17.1464466,31.8535534 L14.1464466,28.8535534 C13.9511845,28.6582912 13.9511845,28.3417088 14.1464466,28.1464466 C14.3417088,27.9511845 14.6582912,27.9511845 14.8535534,28.1464466 L17,30.2928932 L17,19 L5.70710678,19 Z"/>
</svg>
