<svg xmlns="http://www.w3.org/2000/svg" width="30" height="30" viewBox="0 0 30 30">
  <path d="M24.5445,10.4930271 C24.5445,10.2780271 24.5445,10.0630271 24.5345,9.86002706 C25.4987949,9.16093627 26.3316567,8.29658828 26.9945,7.30702706 C26.0950985,7.70328696 25.1421839,7.96476565 24.1665,8.08302706 C25.1962564,7.46856135 25.966152,6.49916855 26.3315,5.35702706 C25.3815,5.91902706 24.3295,6.32702706 23.2065,6.55202706 C22.2757891,5.55776237 20.9733974,4.99550591 19.6115,4.99997326 C16.8940017,5.00057805 14.6907075,7.20252959 14.6885,9.92002706 C14.6885,10.3090271 14.7295,10.6870271 14.8215,11.0440271 C10.8608854,10.8469393 7.17058341,8.97615871 4.6705,5.89802706 C4.235347,6.64922756 4.00596948,7.50189106 4.0055,8.37002706 C4.00293522,10.017032 4.82797364,11.5551501 6.2015,12.4640271 C5.42090776,12.4422975 4.65716924,12.2319778 3.9755,11.8510271 L3.9755,11.9110271 C3.97616813,14.2564779 5.62948982,16.2766003 7.9285,16.7410271 C7.50582122,16.8563006 7.06961544,16.9144838 6.6315,16.9140271 C6.3145,16.9140271 6.0085,16.8840271 5.7015,16.8230271 C6.34259377,18.8299383 8.19101532,20.2053956 10.2975,20.2430271 C8.23178312,21.8591324 5.60923013,22.5895774 3.0055,22.2740271 C5.24428025,23.7329987 7.8602928,24.5066461 10.5325,24.5001108 C19.5915,24.5001108 24.5445,16.9960271 24.5445,10.4930271 Z"/>
</svg>
