<svg xmlns="http://www.w3.org/2000/svg" width="30" height="30" viewBox="0 0 30 30">
  <path d="M15,3 C8.373,3 3,8.35 3,14.95 C3,20.016 6.16,24.344 10.625,26.085 C10.516,25.141 10.427,23.685 10.665,22.652 C10.881,21.718 12.067,16.712 12.067,16.712 C12.067,16.712 11.711,15.993 11.711,14.941 C11.711,13.279 12.679,12.039 13.884,12.039 C14.911,12.039 15.404,12.807 15.404,13.721 C15.404,14.744 14.754,16.279 14.407,17.705 C14.121,18.895 15.01,19.869 16.185,19.869 C18.319,19.869 19.958,17.626 19.958,14.4 C19.958,11.538 17.894,9.541 14.941,9.541 C11.523,9.541 9.519,12.089 9.519,14.725 C9.519,15.748 9.914,16.849 10.407,17.449 C10.492861,17.5413249 10.5233117,17.6722628 10.487,17.793 C10.397,18.167 10.19,18.983 10.151,19.151 C10.101,19.367 9.973,19.416 9.746,19.308 C8.244,18.61 7.306,16.436 7.306,14.675 C7.306,10.908 10.052,7.445 15.237,7.445 C19.395,7.445 22.635,10.397 22.635,14.351 C22.635,18.472 20.027,21.787 16.412,21.787 C15.198,21.787 14.052,21.157 13.667,20.41 L12.916,23.252 C12.649,24.295 11.919,25.593 11.425,26.39 C12.551,26.734 13.735,26.921 14.98,26.921 C21.607,26.921 26.9802208,21.571 26.9802208,14.971 C27,8.35 21.627,3 15,3 Z"/>
</svg>
