<svg xmlns="http://www.w3.org/2000/svg" width="30" height="30" viewBox="0 0 30 30">
  <path d="M15,3 C8.373,3 3,8.405 3,15.073 C3,21.1 7.388,26.094 13.125,27 L13.125,18.563 L10.078,18.563 L10.078,15.073 L13.125,15.073 L13.125,12.413 C13.125,9.388 14.917,7.716 17.658,7.716 C18.97,7.716 20.344,7.952 20.344,7.952 L20.344,10.923 L18.83,10.923 C17.339,10.923 16.874,11.853 16.874,12.809 L16.874,15.073 L20.202,15.073 L19.67,18.563 L16.874,18.563 L16.874,27 C22.612,26.094 27,21.1 27,15.073 C27,8.405 21.627,3 15,3 Z"/>
</svg>
