<svg xmlns="http://www.w3.org/2000/svg" width="24" height="17"><path fill="#FFF" fill-rule="evenodd" d="M10.334.014L12.267 0c1.352.005 7.449.056 9.11.507a3.023 3.023 0 012.121 2.147c.44 1.656.494 4.886.501 5.67l-.005.696c-.019 1.136-.106 3.852-.496 5.324a3.026 3.026 0 01-2.121 2.148c-1.673.453-7.844.501-9.138.506l-1.406-.007c-2.185-.023-6.798-.117-8.21-.5a3.019 3.019 0 01-2.121-2.145C.046 12.624.004 9.201 0 8.593l.009-.785c.025-1.219.121-3.75.493-5.153A3.021 3.021 0 012.623.508C3.935.152 8.011.046 10.334.014zM10 5v7l6-3.5L10 5z"/></svg>