<svg xmlns="http://www.w3.org/2000/svg" width="30" height="30" viewBox="0 0 30 30">
  <path d="M8,3 C5.23857625,3 3,5.23857625 3,8 L3,22 C3,24.7614237 5.23857625,27 8,27 L22,27 C23.3260824,27 24.597852,26.4732158 25.5355339,25.5355339 C26.4732158,24.597852 27,23.3260824 27,22 L27,8 C27,5.23857625 24.7614237,3 22,3 L8,3 Z M11,22 L8,22 L8,11 L11,11 L11,22 Z M9.5,9.732 C8.534,9.732 7.75,8.942 7.75,7.968 C7.75,6.994 8.534,6.204 9.5,6.204 C10.466,6.204 11.25,6.994 11.25,7.968 C11.25,8.942 10.467,9.732 9.5,9.732 Z M23,22 L20,22 L20,16.396 C20,13.028 16,13.283 16,16.396 L16,22 L13,22 L13,11 L16,11 L16,12.765 C17.396,10.179 23,9.988 23,15.241 L23,22 Z"/>
</svg>
