<svg xmlns="http://www.w3.org/2000/svg" width="30" height="30" viewBox="0 0 30 30">
  <path d="M14.766,3 L15.338,3 C18.336,3 18.758,3.016 20,3.072 C21.277,3.13 22.15,3.333 22.912,3.63 C23.702,3.937 24.371,4.347 25.038,5.014 C25.6484531,5.61358505 26.1207657,6.33911724 26.422,7.14 C26.719,7.903 26.922,8.775 26.98,10.052 C27.037,11.307 27.051,11.724 27.052,14.808 L27.052,15.192 C27.052,18.276 27.037,18.693 26.98,19.948 C26.922,21.225 26.719,22.098 26.422,22.86 C26.1207657,23.6608828 25.6484531,24.386415 25.038,24.986 C24.438415,25.5964531 23.7128828,26.0687657 22.912,26.37 C22.149,26.667 21.277,26.87 20,26.928 C18.745,26.985 18.328,26.999 15.244,27 L14.86,27 C11.776,27 11.359,26.985 10.104,26.928 C8.827,26.87 7.954,26.667 7.192,26.37 C6.39111724,26.0687657 5.66558505,25.5964531 5.066,24.986 C4.45552185,24.3864354 3.98320543,23.6608973 3.682,22.86 C3.385,22.097 3.182,21.225 3.124,19.948 C3.068,18.706 3.053,18.284 3.052,15.286 L3.052,14.714 C3.052,11.716 3.068,11.294 3.124,10.052 C3.182,8.775 3.385,7.902 3.682,7.14 C3.98320543,6.33910266 4.45552185,5.61356458 5.066,5.014 C5.66556458,4.40352185 6.39110266,3.93120543 7.192,3.63 C7.955,3.333 8.827,3.13 10.104,3.072 C11.346,3.016 11.768,3.001 14.766,3 L15.338,3 L14.766,3 Z M15.241,5.162 L14.863,5.162 C11.833,5.162 11.443,5.176 10.203,5.232 C9.033,5.285 8.398,5.481 7.975,5.645 C7.415,5.863 7.015,6.123 6.595,6.543 C6.175,6.963 5.915,7.363 5.697,7.923 C5.533,8.346 5.337,8.981 5.284,10.151 C5.228,11.391 5.214,11.781 5.214,14.811 L5.214,15.189 C5.214,18.219 5.228,18.609 5.284,19.849 C5.337,21.019 5.533,21.654 5.697,22.077 C5.915,22.637 6.175,23.037 6.595,23.457 C7.015,23.877 7.415,24.137 7.975,24.355 C8.398,24.519 9.033,24.715 10.203,24.768 C11.443,24.824 11.833,24.838 14.863,24.838 L15.241,24.838 C18.271,24.838 18.661,24.824 19.901,24.768 C21.071,24.715 21.706,24.519 22.129,24.355 C22.689,24.137 23.089,23.877 23.509,23.457 C23.929,23.037 24.189,22.637 24.407,22.077 C24.571,21.654 24.767,21.019 24.82,19.849 C24.876,18.609 24.89,18.219 24.89,15.189 L24.89,14.811 C24.89,11.781 24.876,11.391 24.82,10.151 C24.767,8.981 24.571,8.346 24.407,7.923 C24.2145901,7.40165501 23.9077296,6.93008766 23.509,6.543 C23.089,6.123 22.689,5.863 22.129,5.645 C21.706,5.481 21.071,5.285 19.901,5.232 C18.661,5.176 18.271,5.162 15.241,5.162 Z M20.3884486,11.919 C21.4891839,13.8255294 21.4891839,16.1744706 20.3884486,18.081 C19.2877133,19.9875295 17.2534706,21.162 15.052,21.162 C11.6488214,21.162 8.89,18.4031786 8.89,15 C8.89,11.5968214 11.6488214,8.838 15.052,8.838 C17.2534706,8.838 19.2877133,10.0124705 20.3884486,11.919 Z M15.052,11 C12.842861,11 11.052,12.790861 11.052,15 C11.052,17.209139 12.842861,19 15.052,19 C17.261139,19 19.052,17.209139 19.052,15 C19.052,12.790861 17.261139,11 15.052,11 Z M21.458,7.154 C22.25329,7.154 22.898,7.79870996 22.898,8.594 C22.898,9.38929004 22.25329,10.034 21.458,10.034 C20.66271,10.034 20.018,9.38929004 20.018,8.594 C20.018,7.79870996 20.66271,7.154 21.458,7.154 Z"/>
</svg>
