<svg xmlns="http://www.w3.org/2000/svg" width="12" height="12" viewBox="0 0 12 12">
  <path d="M1.84119607,5.16755828 L0.0980965316,3.40737506 C-0.0876234605,3.20915028 0.00173113486,2.92918281 0.270397261,2.87125664 L2.64189389,2.52078481 L3.83751067,0.103605352 C3.88454552,0.010944608 3.99609108,-0.0251595414 4.08665466,0.0229644775 C4.12299935,0.0422774556 4.15204322,0.0733972731 4.16922308,0.111434593 L5.29035591,2.52078481 L7.715229,2.87112902 C7.88840214,2.87112902 8.15201994,3.17655017 7.88840214,3.40737506 L6.15264587,5.16755828 L6.76163567,7.73116913 C6.7978427,7.88392932 6.64299825,8.06506304 6.44220982,7.97677026 L3.99692776,6.74301867 L1.55356418,7.97200555 C1.41786288,8.06119747 1.17710882,7.92507553 1.22527467,7.71871945 L1.84119607,5.16755828 Z" transform="translate(2 2)"/>
</svg>
