<svg xmlns="http://www.w3.org/2000/svg" width="24" height="24" viewBox="0 0 24 24">
  <path d="M15.4923972,17.786 C16.4848086,16.9681996 19.917,13.685934 19.917,10.429484 C19.917,8.09133078 17.9313604,5.968 15.4923972,5.968 C13.0534339,5.968 11,8.09133078 11,10.429484 C11,13.6914659 14.499169,16.9691215 15.4923972,17.786 Z M15.5,5 C18.5326154,5 21,7.5592 21,10.4198667 C21,14.7038667 15.9882308,18.6425333 15.775,18.7984 L15.5,19 L15.225,18.7984 C15.0117692,18.6425333 10,14.7038667 10,10.4198667 C10,7.5592 12.4673846,5 15.5,5 Z M15.5,12 C16.328,12 17,11.3265 17,10.5 C17,9.67275 16.328,9 15.5,9 C14.672,9 14,9.67275 14,10.5 C14,11.3265 14.672,12 15.5,12 Z M15.5,8 C16.8783333,8 18,9.12083333 18,10.5 C18,11.8783333 16.8783333,13 15.5,13 C14.1216667,13 13,11.8783333 13,10.5 C13,9.12083333 14.1216667,8 15.5,8 Z M4.5,16 L9.5,16 C9.77614237,16 10,16.2238576 10,16.5 C10,16.7761424 9.77614237,17 9.5,17 L4.5,17 C4.22385763,17 4,16.7761424 4,16.5 C4,16.2238576 4.22385763,16 4.5,16 Z M4.5,12 L7.5,12 C7.77614237,12 8,12.2238576 8,12.5 C8,12.7761424 7.77614237,13 7.5,13 L4.5,13 C4.22385763,13 4,12.7761424 4,12.5 C4,12.2238576 4.22385763,12 4.5,12 Z M4.5,8 L6.5,8 C6.77614237,8 7,8.22385763 7,8.5 C7,8.77614237 6.77614237,9 6.5,9 L4.5,9 C4.22385763,9 4,8.77614237 4,8.5 C4,8.22385763 4.22385763,8 4.5,8 Z"/>
</svg>
