<svg xmlns="http://www.w3.org/2000/svg" width="24" height="24" viewBox="0 0 24 24">
  <path d="M15,5 C17.7569231,5 20,7.5592 20,10.4198667 C20,14.7038667 15.4438462,18.6425333 15.25,18.7984 L15,19 L14.75,18.7984 C14.5561538,18.6425333 10,14.7038667 10,10.4198667 C10,7.5592 12.2430769,5 15,5 Z M15,8 C13.8973333,8 13,8.89666667 13,10 C13,11.1026667 13.8973333,12 15,12 C16.1026667,12 17,11.1026667 17,10 C17,8.89666667 16.1026667,8 15,8 Z M5,15 L9,15 C9.55228475,15 10,15.4477153 10,16 C10,16.5522847 9.55228475,17 9,17 L5,17 C4.44771525,17 4,16.5522847 4,16 C4,15.4477153 4.44771525,15 5,15 Z M5,11 L7,11 C7.55228475,11 8,11.4477153 8,12 C8,12.5522847 7.55228475,13 7,13 L5,13 C4.44771525,13 4,12.5522847 4,12 C4,11.4477153 4.44771525,11 5,11 Z M5,7 L6,7 C6.55228475,7 7,7.44771525 7,8 C7,8.55228475 6.55228475,9 6,9 L5,9 C4.44771525,9 4,8.55228475 4,8 C4,7.44771525 4.44771525,7 5,7 Z"/>
</svg>
