<svg xmlns="http://www.w3.org/2000/svg" width="24" height="24" viewBox="0 0 24 24">
  <path fill-rule="evenodd" d="M13.092,8 C13.0327811,7.83987151 13.0016572,7.67071984 13,7.5 C13,7.324 13.036,7.157 13.092,7 C13.299,6.419 13.849,6 14.5,6 C15.151,6 15.701,6.419 15.908,7 C15.964,7.157 16,7.324 16,7.5 C16,7.676 15.964,7.843 15.908,8 C15.701,8.581 15.151,9 14.5,9 C13.8663207,8.99826759 13.3023783,8.59774033 13.092,8 L13.092,8 Z M16.949,7 C16.7103858,5.83684048 15.6873815,5.00139391 14.5,5 C13.293,5 12.283,5.86 12.051,7 L5,7 L5.005,8 L12.051,8 C12.283,9.14 13.293,10 14.5,10 C15.707,10 16.717,9.14 16.949,8 L19,8 L19,7 L16.949,7 Z M13.092,18 C13.0327811,17.8398715 13.0016572,17.6707198 13,17.5 C13,17.324 13.036,17.157 13.092,17 C13.299,16.419 13.849,16 14.5,16 C15.151,16 15.701,16.419 15.908,17 C15.964,17.157 16,17.324 16,17.5 C16,17.676 15.964,17.843 15.908,18 C15.701,18.581 15.151,19 14.5,19 C13.8663207,18.9982676 13.3023783,18.5977403 13.092,18 L13.092,18 Z M16.949,17 C16.7103858,15.8368405 15.6873815,15.0013939 14.5,15 C13.293,15 12.283,15.86 12.051,17 L5,17 L5,18 L12.051,18 C12.283,19.14 13.293,20 14.5,20 C15.707,20 16.717,19.14 16.949,18 L19,18 L19,17 L16.949,17 Z M8.092,13 C8.03278112,12.8398715 8.00165722,12.6707198 8,12.5 C8,12.324 8.036,12.157 8.092,12 C8.299,11.419 8.849,11 9.5,11 C10.151,11 10.701,11.419 10.908,12 C10.964,12.157 11,12.324 11,12.5 C11,12.676 10.964,12.843 10.908,13 C10.701,13.581 10.151,14 9.5,14 C8.86632065,13.9982676 8.30237827,13.5977403 8.092,13 L8.092,13 Z M11.949,12 C11.7103858,10.8368405 10.6873815,10.0013939 9.5,10 C8.293,10 7.283,10.86 7.051,12 L5,12 L5,13 L7.051,13 C7.283,14.14 8.293,15 9.5,15 C10.707,15 11.717,14.14 11.949,13 L18.995,13 L18.995,12 L11.95,12 L11.949,12 Z"/>
</svg>
