<svg xmlns="http://www.w3.org/2000/svg" width="24" height="24" viewBox="0 0 24 24">
  <path d="M13.011,7.534 C12.814,7.335 12.492,7.336 12.294,7.531 C12.096,7.728 12.095,8.048 12.292,8.246 L14.729,10.688 C14.828,10.788 14.958,10.838 15.088,10.838 C15.217,10.838 15.347,10.788 15.446,10.69 C15.644,10.494 15.645,10.175 15.448,9.976 L13.011,7.534 Z M12.638,12.176 L10.798,10.343 C9.575,9.124 9.575,7.14 10.797,5.922 C11.39,5.333 12.176,5.008 13.012,5.008 C13.849,5.008 14.634,5.333 15.227,5.922 L17.066,7.755 C18.289,8.973 18.289,10.958 17.066,12.177 C15.881,13.356 13.821,13.354 12.638,12.176 Z M15.949,5.212 C15.164,4.43 14.121,4 13.012,4 C11.903,4 10.86,4.43 10.075,5.212 C8.459,6.822 8.459,9.443 10.076,11.054 L10.644,11.619 L5,17.103 L7.88,20 L8.599,19.288 L6.518,17.103 L8.012,15.634 L10.123,17.751 L10.842,17.039 L8.733,14.924 L11.363,12.336 L11.915,12.887 C12.7,13.668 13.743,14.099 14.853,14.099 C15.962,14.099 17.004,13.668 17.787,12.888 C19.405,11.276 19.405,8.656 17.787,7.045 L15.949,5.212 Z"/>
</svg>
