<svg xmlns="http://www.w3.org/2000/svg" width="24" height="24" viewBox="0 0 24 24">
  <path d="M11.711,9.762 C11.405,9.456 11.236,9.05 11.236,8.618 C11.236,8.186 11.405,7.78 11.711,7.474 C12.016,7.169 12.422,7 12.855,7 C13.286,7 13.692,7.169 13.998,7.474 L15.825,9.302 C16.131,9.607 16.3,10.013 16.3,10.446 C16.3,10.878 16.131,11.284 15.825,11.59 C15.521,11.895 15.114,12.063 14.683,12.063 C14.25,12.063 13.844,11.895 13.538,11.589 L11.711,9.762 Z M10.129,14.595 L11.9,12.814 C11.906,12.808 11.908,12.8 11.914,12.794 L12.124,13.003 C12.83,13.71 13.756,14.063 14.683,14.063 C15.607,14.063 16.533,13.71 17.24,13.004 C18.653,11.591 18.652,9.3 17.24,7.887 L15.412,6.06 C14.706,5.354 13.78,5 12.855,5 C11.929,5 11.003,5.354 10.296,6.06 C8.884,7.473 8.884,9.763 10.297,11.176 L10.503,11.382 L6.878,14.929 C6.312,15.496 6,16.249 6,17.051 C6,17.813 6.319,18.597 6.805,19.082 C6.968,19.245 7.227,19.344 7.464,19.344 C7.72,19.344 7.976,19.246 8.171,19.051 C8.562,18.66 8.561,18.026 8.171,17.637 C8.085,17.551 8,17.318 8,17.051 C8,16.783 8.104,16.533 8.275,16.361 L8.681,15.974 L10.172,17.465 C10.366,17.66 10.623,17.758 10.878,17.758 C11.134,17.758 11.391,17.66 11.585,17.465 C11.976,17.074 11.976,16.441 11.585,16.051 L10.129,14.595 Z"/>
</svg>
