<svg xmlns="http://www.w3.org/2000/svg" width="24" height="24" viewBox="0 0 24 24">
  <path fill-rule="evenodd" d="M12,0 C18.627,0 24,5.373 24,12 C24,18.627 18.627,24 12,24 C5.373,24 0,18.627 0,12 C0,5.373 5.373,0 12,0 Z M12,16 L11.8834315,16.0067318 C11.3862857,16.0645306 11,16.4874286 11,17 C11,17.552 11.448,18 12,18 C12.552,18 13,17.552 13,17 C13,16.448 12.552,16 12,16 L12,16 Z M12,7 L11.8834315,7.00673178 C11.3862857,7.06453061 11,7.48742857 11,8 L11,8 L11,13 C11,13.552 11.448,14 12,14 C12.552,14 13,13.552 13,13 L13,13 L13,8 C13,7.448 12.552,7 12,7 L12,7 Z"/>
</svg>
