<svg xmlns="http://www.w3.org/2000/svg" width="24" height="24" viewBox="0 0 24 24">
  <path d="M11.496,6 C11.496,5.448 11.946,5 12.5,5 C13.054,5 13.504,5.448 13.504,6 C13.504,6.552 13.054,7 12.5,7 C11.946,7 11.496,6.552 11.496,6 Z M17.496,12.5 C17.496,14.377 16,16.693 13,16.971 L13,10.5 L15,10.5 L15,9.5 L13,9.5 L13,7.929 C14,7.705 14.507,6.929 14.507,6 C14.507,4.897 13.606,4 12.5,4 C11.393,4 10.493,4.897 10.493,6 C10.493,6.929 11,7.705 12,7.929 L12,9.5 L10,9.5 L10,10.5 L12,10.5 L12,16.971 C9,16.693 7.504,14.377 7.504,12.5 L6.5,12.5 C6.5,15.347 9,17.737 12,17.976 L12,19.5 L13,19.5 L13,17.976 C16,17.737 18.5,15.347 18.5,12.5 L17.496,12.5 Z"/>
</svg>
