<svg xmlns="http://www.w3.org/2000/svg" width="24" height="24" viewBox="0 0 24 24">
  <path fill-rule="evenodd" d="M18.41,5 C19.2881328,5 20,5.71186725 20,6.59 L20,17.41 C20,18.2881328 19.2881328,19 18.41,19 L5.59,19 C4.71186725,19 4,18.2881328 4,17.41 L4,6.59 C4,5.71186725 4.71186725,5 5.59,5 L18.41,5 Z M18.41,5.99982973 L5.59,5.99982973 C5.43269939,5.99726371 5.28103549,6.05854518 5.16979033,6.16979033 C5.05854518,6.28103549 4.99726371,6.43269939 4.99982973,6.59 L4.99982973,17.41 C4.99726371,17.5673006 5.05854518,17.7189645 5.16979033,17.8302097 C5.28103549,17.9414548 5.43269939,18.0027363 5.59,18.0001703 L18.41,18.0001703 C18.5673006,18.0027363 18.7189645,17.9414548 18.8302097,17.8302097 C18.9414548,17.7189645 19.0027363,17.5673006 19.0001703,17.41 L19.0001703,6.59 C19.0027363,6.43269939 18.9414548,6.28103549 18.8302097,6.16979033 C18.7189645,6.05854518 18.5673006,5.99726371 18.41,5.99982973 Z M9.8,11.03 L10.5,12.9 L12.37,13.6 L10.5,14.31 L9.8,16.17 L9.09,14.31 L7.23,13.6 L9.09,12.9 L9.8,11.03 Z M14.62,8.32 L15.17,9.78 L16.63,10.33 L15.17,10.88 L14.62,12.33 L14.07,10.88 L12.62,10.33 L14.07,9.78 L14.62,8.32 Z"/>
</svg>
