<svg xmlns="http://www.w3.org/2000/svg" width="24" height="24" viewBox="0 0 24 24">
  <path d="M6,5 C5.44771525,5 5,5.44771525 5,6 L5,18 C5,18.5522847 5.44771525,19 6,19 L18,19 C18.5522847,19 19,18.5522847 19,18 L19,6 C19,5.44771525 18.5522847,5 18,5 L6,5 Z M6,4 L18,4 C19.1045695,4 20,4.8954305 20,6 L20,18 C20,19.1045695 19.1045695,20 18,20 L6,20 C4.8954305,20 4,19.1045695 4,18 L4,6 C4,4.8954305 4.8954305,4 6,4 Z M11,8 L8,8 L8,12 L11,12 L11,8 Z M12,8 L12,16 L16,16 L16,8 L12,8 Z M8,7 L16,7 C16.5522847,7 17,7.44771525 17,8 L17,16 C17,16.5522847 16.5522847,17 16,17 L8,17 C7.44771525,17 7,16.5522847 7,16 L7,8 C7,7.44771525 7.44771525,7 8,7 Z M11,16 L11,13 L8,13 L8,16 L11,16 Z"/>
</svg>
