<svg xmlns="http://www.w3.org/2000/svg" width="24" height="24" viewBox="0 0 24 24">
  <path fill-rule="evenodd" d="M17.5,14 C18.3284271,14 19,14.6715729 19,15.5 L19,17.5 C19,18.3284271 18.3284271,19 17.5,19 L15.5,19 C14.6715729,19 14,18.3284271 14,17.5 L14,15.5 C14,14.6715729 14.6715729,14 15.5,14 L17.5,14 Z M10.5,8 C11.3284271,8 12,8.67157288 12,9.5 L12,17.5 C12,18.3284271 11.3284271,19 10.5,19 L7.5,19 C6.67157288,19 6,18.3284271 6,17.5 L6,9.5 C6,8.67157288 6.67157288,8 7.5,8 L10.5,8 Z M17.5,15 L15.5,15 C15.2238576,15 15,15.2238576 15,15.5 L15,17.5 C15,17.7761424 15.2238576,18 15.5,18 L17.5,18 C17.7761424,18 18,17.7761424 18,17.5 L18,15.5 C18,15.2238576 17.7761424,15 17.5,15 Z M10.5,9 L7.5,9 C7.22385763,9 7,9.22385763 7,9.5 L7,17.5 C7,17.7761424 7.22385763,18 7.5,18 L10.5,18 C10.7761424,18 11,17.7761424 11,17.5 L11,9.5 C11,9.22385763 10.7761424,9 10.5,9 Z M17.5,5 C18.3284271,5 19,5.67157288 19,6.5 L19,10.5 C19,11.3284271 18.3284271,12 17.5,12 L15.5,12 C14.6715729,12 14,11.3284271 14,10.5 L14,6.5 C14,5.67157288 14.6715729,5 15.5,5 L17.5,5 Z M17.5,6 L15.5,6 C15.2238576,6 15,6.22385763 15,6.5 L15,10.5 C15,10.7761424 15.2238576,11 15.5,11 L17.5,11 C17.7761424,11 18,10.7761424 18,10.5 L18,6.5 C18,6.22385763 17.7761424,6 17.5,6 Z M12,5 L12,6 L6,6 L6,5 L12,5 Z"/>
</svg>
