<svg xmlns="http://www.w3.org/2000/svg" width="24" height="24" viewBox="0 0 24 24">
  <path d="M6,4 L18,4 C19.1045695,4 20,4.8954305 20,6 L20,18 C20,19.1045695 19.1045695,20 18,20 L6,20 C4.8954305,20 4,19.1045695 4,18 L4,6 C4,4.8954305 4.8954305,4 6,4 Z M7.2,6 C6.5372583,6 6,6.5372583 6,7.2 L6,16.8 C6,17.4627417 6.5372583,18 7.2,18 L16.8,18 C17.4627417,18 18,17.4627417 18,16.8 L18,7.2 C18,6.5372583 17.4627417,6 16.8,6 L7.2,6 Z M10,8 C10.5522847,8 11,8.44771525 11,9 L11,11 C11,11.5522847 10.5522847,12 10,12 L9,12 C8.44771525,12 8,11.5522847 8,11 L8,9 C8,8.44771525 8.44771525,8 9,8 L10,8 Z M12,9 C12,8.44771525 12.4477153,8 13,8 L15,8 C15.5522847,8 16,8.44771525 16,9 L16,15 C16,15.5522847 15.5522847,16 15,16 L13,16 C12.4477153,16 12,15.5522847 12,15 L12,9 Z M11,15 C11,15.5522847 10.5522847,16 10,16 L9,16 C8.44771525,16 8,15.5522847 8,15 L8,14 C8,13.4477153 8.44771525,13 9,13 L10,13 C10.5522847,13 11,13.4477153 11,14 L11,15 Z"/>
</svg>
