<svg xmlns="http://www.w3.org/2000/svg" width="24" height="24" viewBox="0 0 24 24">
  <path fill-rule="evenodd" d="M17.5,14 C18.3284271,14 19,14.6715729 19,15.5 L19,17.5 C19,18.3284271 18.3284271,19 17.5,19 L15.5,19 C14.6715729,19 14,18.3284271 14,17.5 L14,15.5 C14,14.6715729 14.6715729,14 15.5,14 L17.5,14 Z M10.5,9 C11.3284271,9 12,9.6105208 12,10.3636364 L12,17.6363636 C12,18.3894792 11.3284271,19 10.5,19 L7.5,19 C6.67157288,19 6,18.3894792 6,17.6363636 L6,10.3636364 C6,9.6105208 6.67157288,9 7.5,9 L10.5,9 Z M17.5,5 C18.3284271,5 19,5.67157288 19,6.5 L19,10.5 C19,11.3284271 18.3284271,12 17.5,12 L15.5,12 C14.6715729,12 14,11.3284271 14,10.5 L14,6.5 C14,5.67157288 14.6715729,5 15.5,5 L17.5,5 Z M12,5 L12,7 L6,7 L6,5 L12,5 Z"/>
</svg>
