<svg xmlns="http://www.w3.org/2000/svg" width="24" height="24" viewBox="0 0 24 24">
  <path d="M6.5,11.923 C6.8072,11.923 7.10032,11.97228 7.382432,12.05036 L7.629,12.126 L7.629,12.126 C7.74766667,12.166 7.86322222,12.2131111 7.97537037,12.2658519 L8.22,12.392 L8.22,12.392 C8.367,12.475 8.508,12.57 8.641,12.673 L8.759,12.77 L8.759,12.77 C8.873,12.866 8.982,12.969 9.084,13.08 L9.156125,13.164875 L9.156125,13.164875 L9.226,13.252 C9.307,13.353 9.387,13.456 9.456,13.566 L9.531125,13.696625 L9.531125,13.696625 L9.601,13.831 C9.65,13.928 9.704,14.024 9.745,14.126 C9.794,14.248 9.828,14.377 9.863,14.506 C9.886,14.587 9.916,14.665 9.932,14.749 C9.975,14.967 10,15.192 10,15.423 C10,17.356 8.433,18.923 6.5,18.923 C4.567,18.923 3,17.356 3,15.423 C3,15.192 3.025,14.967 3.068,14.749 C3.084,14.665 3.114,14.587 3.137,14.506 C3.172,14.377 3.206,14.248 3.255,14.126 L3.324,13.976625 L3.324,13.976625 L3.399,13.831 C3.446,13.741 3.49,13.651 3.544,13.566 L3.6545,13.405625 L3.6545,13.405625 L3.774,13.252 C3.821,13.194 3.866,13.135 3.916,13.08 C4.018,12.969 4.127,12.866 4.241,12.77 L4.359,12.673 L4.359,12.673 C4.44766667,12.6043333 4.53988889,12.5392222 4.63507407,12.4788519 L4.859,12.349 L4.859,12.349 C4.96766667,12.291 5.07988889,12.2378889 5.19537037,12.1911481 L5.389875,12.119625 L5.389875,12.119625 L5.408,12.114 C5.754,12 6.116,11.923 6.5,11.923 Z M20.3794,13.443 C20.7694,14.003 21.0004,14.693 21.0004,15.423 C21.0004,17.353 19.4294,18.923 17.5004,18.923 C15.5704,18.923 14.0004,17.353 14.0004,15.423 C14.0004,14.83675 14.1458688,14.281125 14.4100094,13.7896211 L14.5304,13.583 L15.2804,14.283 C15.0994,14.623 15.0004,15.013 15.0004,15.423 C15.0004,16.803 16.1204,17.923 17.5004,17.923 C18.8794,17.923 20.0004,16.803 20.0004,15.423 C20.0004,15.0287143 19.9048898,14.6491224 19.7390589,14.3157114 L19.6504,14.153 L20.3794,13.443 Z M6.5,12.923 C6.329,12.923 6.162,12.941 6,12.974 C4.86,13.206 4,14.216 4,15.423 C4,16.801 5.121,17.923 6.5,17.923 C7.879,17.923 9,16.801 9,15.423 C9,14.216 8.14,13.206 7,12.974 C6.838,12.941 6.671,12.923 6.5,12.923 Z M12,5 C15.2289091,5 17.8771405,7.52136364 17.9958468,10.7001789 L18,10.923 L18,12.044 L20.26,9.911 L21,10.61 L17.5,13.911 L14,10.61 L14.74,9.911 L17,12.043 L17,10.923 C17,8.237 14.703,6.051 12,6.051 C9.36813158,6.051 7.1211759,8.12346122 7.0047377,10.7120169 L7,10.974 L6.66874074,10.932 C6.61311111,10.9265556 6.557,10.923 6.5,10.923 L6.33125926,10.932 L6.33125926,10.932 L6,10.974 L6,10.923 C6,7.64 8.696,5 12,5 Z"/>
</svg>
