<svg xmlns="http://www.w3.org/2000/svg" xmlns:xlink="http://www.w3.org/1999/xlink" width="24" height="24" viewBox="0 0 24 24">
  <defs>
    <path id="appmarket-a" d="M17.5020465,10.5 C16.5000465,10.5 15.5000465,9 15.5000465,9 C15.5000465,9 14.8750465,10.5 13.5000465,10.5 C12.1250465,10.5 11.5000465,9 11.5000465,9 C11.5000465,9 11.1070465,10.5 9.49104653,10.5 C7.87504653,10.5 7.50004653,9 7.50004653,9 C7.50004653,9 6.58804653,10.502 5.50204653,10.502 C4.41704653,10.502 4.00104653,9.859 4.00104653,9 L5.12204653,6 L18.3830465,6 L19.0000465,8.997 C18.9950465,9.826 18.5050465,10.5 17.5020465,10.5 L17.5020465,10.5 Z M9.00004653,15 L9.00004653,11.4 C10.2970465,11.672 11.0500465,11.094 11.5020465,10.5 C11.9530465,11.088 12.5630465,11.609 14.0000465,11.4 L14.0000465,15 L9.00004653,15 Z M17.0000465,17 C17.0000465,17.552 16.5530465,18 16.0000465,18 L7.00004653,18 C6.44704653,18 6.00004653,17.552 6.00004653,17 L6.00004653,11.448 C6.61604653,11.338 7.14204653,10.952 7.49804653,10.5 C7.63804653,10.685 7.81304653,10.92 8.00004653,11.059 L8.00004653,16 L15.0000465,16 L15.0000465,11.063 C15.1940465,10.921 15.3560465,10.692 15.5000465,10.5 C15.8570465,10.944 16.3960465,11.324 17.0000465,11.442 L17.0000465,17 Z M19.3070465,5.424 C19.2700465,5.18 19.0600465,5 18.8130465,5 L4.74104653,5 C4.51604653,5 4.31804653,5.15 4.26004653,5.367 C4.26004653,5.367 3,8.953 3,8.997 C2.99604653,9.658 3.25004653,10.282 3.71704653,10.754 C4.06804653,11.111 4.51004653,11.349 5.00004653,11.448 L5.00004653,17 C5.00004653,18.104 5.89604653,19 7.00004653,19 L16.0000465,19 C17.1050465,19 18.0000465,18.104 18.0000465,17 L18.0000465,11.453 C19.1320465,11.236 19.9980465,10.277 20.0000465,9 L19.3070465,5.424 Z"/>
  </defs>
  <use fill-rule="evenodd" xlink:href="#appmarket-a"/>
</svg>
