<svg xmlns="http://www.w3.org/2000/svg" xmlns:xlink="http://www.w3.org/1999/xlink" width="24" height="24" viewBox="0 0 24 24">
  <defs>
    <path id="appmarketbold-a" d="M16,17 L8,17 L8,11 C8,11 8.354,13 10,13 C11.646,13 12,11 12,11 C12,11 12.375,13 14,13 C15.625,13 16,11 16,11 L16,17 Z M20,11 L18.078,5 L6.078,5 L4,11 C4,11 4.375,13 6,13 L6,16.992 C6,16.992 5,17.013 5,17.996 C5,18.979 6.078,19 6.078,19 L18.078,19 C18.078,19 19,18.972 19,17.996 C19,17.021 18,16.992 18,16.992 L18,13 C19.625,13 20,11 20,11 L20,11 Z"/>
  </defs>
  <use fill-rule="evenodd" xlink:href="#appmarketbold-a"/>
</svg>
