<svg xmlns="http://www.w3.org/2000/svg" width="24" height="24" viewBox="0 0 24 24">
  <path fill-rule="evenodd" d="M11,7 L8,7 C6.896,7 6,7.896 6,9 L6,12 L11,12 L11,7 Z M11,13 L11,18 L8,18 C6.896,18 6,17.104 6,16 L6,16 L6,13 L11,13 Z M17,13 L17,16 C17,17.104 16.104,18 15,18 L15,18 L12,18 L12,13 L17,13 Z M10,14 L7,14 L7,16 C7,16.551 7.449,17 8,17 L8,17 L10,17 L10,14 Z M16,14 L13,14 L13,17 L15,17 C15.551,17 16,16.551 16,16 L16,16 L16,14 Z M17,5 C18.104,5 19,5.896 19,7 L19,7 L19,12 L12,12 L12,5 L17,5 Z M10,8 L10,11 L7,11 L7,9 C7,8.449 7.449,8 8,8 L10,8 Z M17,6 L13,6 L13,11 L18,11 L18,7 C18,6.449 17.551,6 17,6 L17,6 Z"/>
</svg>
