<svg xmlns="http://www.w3.org/2000/svg" width="24" height="24" viewBox="0 0 24 24">
  <path d="M11,5 C12.104,5 13,5.896 13,7 L13,7 L13,8 L14,8 C15.104,8 16,8.896 16,10 L16,10 L16,11 L17,11 C18.104,11 19,11.896 19,13 L19,13 L19,17 C19,18.104 18.104,19 17,19 L17,19 L13,19 C11.9,19 11,18.1 11,17 L11,17 L11,16 L10,16 C8.9,16 8,15.1 8,14 L8,14 L8,13 L7,13 C5.9,13 5,12.1 5,11 L5,11 L5,7 C5,5.9 5.9,5 7,5 L7,5 Z M17,13 L13,13 L13,17 L17,17 L17,13 Z M14,10 L10,10 L10,14 L11,14 L11,12.992 C11,11.888 11.974,11 13.078,11 L13.078,11 L14,11 L14,10 Z M11,7 L7,7 L7,11 L8,11 L8,9.992 C8,8.888 8.974,8 10.078,8 L10.078,8 L11,8 L11,7 Z"/>
</svg>
