<svg xmlns="http://www.w3.org/2000/svg" width="24" height="24" viewBox="0 0 24 24">
  <path d="M18,17.5 C18,17.776 17.776,18 17.5,18 L12.5,18 C12.224,18 12,17.776 12,17.5 L12,12.5 C12,12.224 12.224,12 12.5,12 L17.5,12 C17.776,12 18,12.224 18,12.5 L18,17.5 Z M11,12.5 L11,15 L9.5,15 C9.224,15 9,14.776 9,14.5 L9,9.5 C9,9.224 9.224,9 9.5,9 L14.5,9 C14.776,9 15,9.224 15,9.5 L15,11 L12.5,11 C11.672,11 11,11.672 11,12.5 L11,12.5 Z M8,9.5 L8,12 L6.5,12 C6.224,12 6,11.776 6,11.5 L6,6.5 C6,6.224 6.224,6 6.5,6 L11.5,6 C11.776,6 12,6.224 12,6.5 L12,8 L9.5,8 C8.672,8 8,8.672 8,9.5 L8,9.5 Z M17.5,11 L16,11 L16,9.5 C16,8.672 15.328,8 14.5,8 L13,8 L13,6.5 C13,5.672 12.328,5 11.5,5 L6.5,5 C5.672,5 5,5.672 5,6.5 L5,11.5 C5,12.328 5.672,13 6.5,13 L8,13 L8,14.5 C8,15.328 8.672,16 9.5,16 L11,16 L11,17.5 C11,18.328 11.672,19 12.5,19 L17.5,19 C18.328,19 19,18.328 19,17.5 L19,12.5 C19,11.672 18.328,11 17.5,11 L17.5,11 Z"/>
</svg>
