<svg xmlns="http://www.w3.org/2000/svg" width="24" height="24" viewBox="0 0 24 24">
  <path fill-rule="evenodd" d="M18.5,5 C19.3284271,5 20,5.67157288 20,6.5 L20,16.5 C20,17.3284271 19.3284271,18 18.5,18 L5.5,18 C4.67157288,18 4,17.3284271 4,16.5 L4,6.5 C4,5.67157288 4.67157288,5 5.5,5 L18.5,5 Z M18.5,6 L5.5,6 C5.22385763,6 5,6.22385763 5,6.5 L5,16.5 C5,16.7761424 5.22385763,17 5.5,17 L18.5,17 C18.7761424,17 19,16.7761424 19,16.5 L19,6.5 C19,6.22385763 18.7761424,6 18.5,6 Z M14.49,9 C14.8886264,8.99464883 15.2727721,9.149265 15.5565419,9.4292763 C15.8403118,9.7092876 16.0000359,10.0913377 16.0000037,10.49 L16.0000037,12 C16.0013472,13.2098912 15.2757863,14.3021759 14.16,14.77 L13.77,13.84 C14.5126199,13.5302158 14.9972468,12.8055792 14.9999968,12.0010062 L14.49,12 C14.0948274,12 13.7158401,11.8430183 13.4364109,11.5635891 C13.1919103,11.3190886 13.0411587,10.9983638 13.0072911,10.6572682 L13,10.51 C12.9946488,10.1113736 13.149265,9.72722792 13.4292763,9.44345807 C13.6742862,9.19515946 13.9974195,9.04183334 14.3414472,9.00740553 L14.49,9 Z M9.49,9 C9.88862641,8.99464883 10.2727721,9.149265 10.5565419,9.4292763 C10.8403118,9.7092876 11.0000359,10.0913377 11.0000037,10.49 L11.0000037,12 C11.0013472,13.2098912 10.2757863,14.3021759 9.16,14.77 L8.77,13.84 C9.51261985,13.5302158 9.99724681,12.8055792 9.99999681,12.0010062 L9.49,12 C9.09482743,12 8.7158401,11.8430183 8.4364109,11.5635891 C8.19191034,11.3190886 8.04115867,10.9983638 8.00729107,10.6572682 L8.00000001,10.51 C7.99464883,10.1113736 8.149265,9.72722792 8.4292763,9.44345807 C8.67428619,9.19515946 8.99741951,9.04183334 9.34144718,9.00740553 L9.49,9 Z"/>
</svg>
