<svg xmlns="http://www.w3.org/2000/svg" width="24" height="24" viewBox="0 0 24 24">
  <path d="M14,16 L9,16 C8.447,16 8,15.553 8,15 C8,14.447 8.447,14 9,14 L14,14 C14.553,14 15,14.447 15,15 C15,15.553 14.553,16 14,16 M9,9 L12,9 C12.553,9 13,9.447 13,10 C13,10.553 12.553,11 12,11 L9,11 C8.447,11 8,10.553 8,10 C8,9.447 8.447,9 9,9 M17,11 L16.302,11 C15.947,11 16,10.604 16,10.248 L16,9.967 C16,7.776 13.884,6 11.692,6 L8.959,6 C6.772,6 5,7.772 5,9.959 L5,15.033 C5,17.224 6.776,19 8.967,19 L14.041,19 C16.228,19 18,17.228 18,15.041 L18,11.892 C18,11.34 17.553,11 17,11"/>
</svg>
