<svg xmlns="http://www.w3.org/2000/svg" width="24" height="24" viewBox="0 0 24 24">
  <path d="M10.0027192,10 L13.0054384,10 C14.0063448,10 14.0063448,8 13.0054384,8 L10.0027192,8 L10.0027192,10 Z M10.0027192,13 L10.0027192,16 L13.0054384,16 C15.0072512,16 15.0072512,13 13.0054384,13 L10.0027192,13 Z M13.7881472,19 L9.00181279,19 C7.89681213,19 7,18.104 7,17 L7,7 C7,5.896 7.89681213,5 9.00181279,5 L12.9153568,5 C14.3976992,5 15.5627542,5.64 16.3204403,6.792 C17.1391818,8.034 17.2072434,9.618 16.4885926,10.937 C16.3414594,11.208 16.1723062,11.45 15.9771295,11.674 C17.0561065,12.25 17.8578326,13.367 17.9789422,14.573 C18.0930456,15.724 17.7407265,16.812 16.9880449,17.639 C16.1993307,18.504 15.0322738,19 13.7881472,19 L13.7881472,19 Z"/>
</svg>
