<svg xmlns="http://www.w3.org/2000/svg" width="24" height="24" viewBox="0 0 24 24">
  <path fill-rule="evenodd" d="M9,8 L15,8 L15,7 L9,7 L9,8 Z M16,5 C17.05,5 17.9177686,5.82004132 17.9944872,6.85130541 L18,7 L18,15 L8,15 C7.48928571,15 7.06479592,15.3880102 7.0067602,15.883801 L7,16 L7,17 C7,17.5107143 7.3880102,17.9352041 7.88380102,17.9932398 L8,18 L17.73,18 C17.4069231,18.5538462 16.8367456,18.9372781 16.1689076,18.9929904 L16,19 L8,19 C6.95,19 6.0822314,18.1799587 6.00551277,17.1486946 L6,17 L6,7 C6,5.95 6.82004132,5.0822314 7.85130541,5.00551277 L8,5 L16,5 Z M18,16 L18,17 L8,17 L8,16 L18,16 Z"/>
</svg>
