<svg xmlns="http://www.w3.org/2000/svg" width="24" height="24" viewBox="0 0 24 24">
  <path d="M7.5,5 C6.11928813,5 5,6.11928813 5,7.5 C5,8.88071187 6.11928813,10 7.5,10 L16.5,10 C17.8807119,10 19,8.88071187 19,7.5 C19,6.11928813 17.8807119,5 16.5,5 L7.5,5 Z M7.5,4 L16.5,4 C18.4329966,4 20,5.56700338 20,7.5 C20,9.43299662 18.4329966,11 16.5,11 L7.5,11 C5.56700338,11 4,9.43299662 4,7.5 C4,5.56700338 5.56700338,4 7.5,4 Z M7.5,14 C6.11928813,14 5,15.1192881 5,16.5 C5,17.8807119 6.11928813,19 7.5,19 L16.5,19 C17.8807119,19 19,17.8807119 19,16.5 C19,15.1192881 17.8807119,14 16.5,14 L7.5,14 Z M7.5,13 L16.5,13 C18.4329966,13 20,14.5670034 20,16.5 C20,18.4329966 18.4329966,20 16.5,20 L7.5,20 C5.56700338,20 4,18.4329966 4,16.5 C4,14.5670034 5.56700338,13 7.5,13 Z M16.5,6 C17.3284271,6 18,6.67157288 18,7.5 C18,8.32842712 17.3284271,9 16.5,9 C15.6715729,9 15,8.32842712 15,7.5 C15,6.67157288 15.6715729,6 16.5,6 Z M7.5,15 C8.32842712,15 9,15.6715729 9,16.5 C9,17.3284271 8.32842712,18 7.5,18 C6.67157288,18 6,17.3284271 6,16.5 C6,15.6715729 6.67157288,15 7.5,15 Z"/>
</svg>
