<svg xmlns="http://www.w3.org/2000/svg" width="24" height="24" viewBox="0 0 24 24">
  <path d="M10,6 L14,6 L14,5 L10,5 L10,6 Z M18,17.5 C18,17.776 17.776,18 17.5,18 L15,18 L15,19 L17.5,19 C18.327,19 19,18.327 19,17.5 L19,15 L18,15 L18,17.5 Z M18,14 L19,14 L19,10 L18,10 L18,14 Z M17.5,5 L15,5 L15,6 L17.5,6 C17.776,6 18,6.224 18,6.5 L18,9 L19,9 L19,6.5 C19,5.673 18.327,5 17.5,5 L17.5,5 Z M5,14 L6,14 L6,10 L5,10 L5,14 Z M6,17.5 L6,15 L5,15 L5,17.5 C5,18.327 5.673,19 6.5,19 L9,19 L9,18 L6.5,18 C6.224,18 6,17.776 6,17.5 L6,17.5 Z M10,19 L14,19 L14,18 L10,18 L10,19 Z M5,6.5 L5,9 L6,9 L6,6.5 C6,6.224 6.224,6 6.5,6 L9,6 L9,5 L6.5,5 C5.673,5 5,5.673 5,6.5 L5,6.5 Z"/>
</svg>
