<svg xmlns="http://www.w3.org/2000/svg" width="24" height="24" viewBox="0 0 24 24">
  <path d="M17.429,15.736 C17.062,15.37 16.469,15.369 16.103,15.736 C15.737,16.101 15.737,16.695 16.103,17.061 L16.869,17.829 C17.053,18.012 17.292,18.104 17.533,18.104 C17.773,18.104 18.012,18.012 18.196,17.83 C18.562,17.464 18.562,16.87 18.196,16.504 L17.429,15.736 Z M19,11.007 C18.449,11.007 18,11.455 18,12.007 C18,12.56 18.449,13.007 19,13.007 L20,13.007 C20.553,13.007 21,12.56 21,12.007 C21,11.455 20.553,11.007 20,11.007 L19,11.007 Z M11.922,13.625 C10.922,13.625 10.222,12.605 10.222,11.5 C10.222,10.395 10.922,9.387 11.922,9.387 L11.922,13.625 Z M9,11.5 C9,13.433 10.568,15 12.5,15 C14.433,15 16,13.433 16,11.5 C16,9.567 14.433,8 12.5,8 C10.568,8 9,9.567 9,11.5 Z M7.589,5.896 C7.223,5.53 6.629,5.53 6.263,5.896 C5.898,6.262 5.898,6.856 6.263,7.222 L7.031,7.99 C7.214,8.174 7.454,8.264 7.694,8.264 C7.934,8.264 8.174,8.174 8.357,7.99 C8.723,7.624 8.723,7.03 8.357,6.664 L7.589,5.896 Z M10.922,18 L10.922,19 C10.922,19.552 11.369,20 11.922,20 C12.475,20 12.922,19.552 12.922,19 L12.922,18 C12.922,17.448 12.475,17 11.922,17 C11.369,17 10.922,17.448 10.922,18 Z M6.263,16.504 C5.898,16.87 5.898,17.464 6.263,17.83 C6.447,18.012 6.687,18.104 6.926,18.104 C7.166,18.104 7.407,18.012 7.589,17.83 L8.357,17.062 C8.723,16.696 8.723,16.102 8.357,15.736 C7.991,15.37 7.397,15.37 7.031,15.736 L6.263,16.504 Z M17.429,7.99 L18.196,7.222 C18.562,6.856 18.562,6.262 18.196,5.896 C17.828,5.529 17.235,5.531 16.869,5.897 L16.103,6.665 C15.737,7.031 15.737,7.625 16.103,7.99 C16.286,8.174 16.526,8.264 16.766,8.264 C17.006,8.264 17.245,8.173 17.429,7.99 Z M12.922,5 L12.922,4 C12.922,3.448 12.475,3 11.922,3 C11.369,3 10.922,3.448 10.922,4 L10.922,5 C10.922,5.552 11.369,6 11.922,6 C12.475,6 12.922,5.552 12.922,5 Z M6,11.007 L5,11.007 C4.449,11.007 4,11.455 4,12.007 C4,12.56 4.449,13.007 5,13.007 L6,13.007 C6.553,13.007 7,12.56 7,12.007 C7,11.455 6.553,11.007 6,11.007 Z"/>
</svg>
