<svg xmlns="http://www.w3.org/2000/svg" width="24" height="24" viewBox="0 0 24 24">
  <path d="M7.3572,15.1357 L8.0642,15.8427 L5.9432,17.9637 L5.2362,17.2567 L7.3572,15.1357 Z M11.6,8.1 C13.53,8.1 15.1,9.67 15.1,11.6 C15.1,13.53 13.53,15.1 11.6,15.1 C9.67,15.1 8.1,13.53 8.1,11.6 C8.1,9.67 9.67,8.1 11.6,8.1 Z M11.6,9.1 C10.222,9.1 9.1,10.222 9.1,11.6 C9.1,12.978 10.222,14.1 11.6,14.1 C12.978,14.1 14.1,12.978 14.1,11.6 C14.1,10.222 12.978,9.1 11.6,9.1 Z M17.9642,5.9437 L17.2572,5.2357 L15.1352,7.3577 L15.8422,8.0647 L17.9642,5.9437 Z M5.2362,5.9437 L7.3572,8.0647 L8.0642,7.3577 L5.9432,5.2357 L5.2362,5.9437 Z M12.2,17 L12.2,20.2 L11,20.2 L11,17 L12.2,17 Z M15.8422,15.1357 L17.9642,17.2567 L17.2572,17.9637 L15.1352,15.8427 L15.8422,15.1357 Z M20.2,11 L20.2,12.2 L17,12.2 L17,11 L20.2,11 Z M6.2,11 L6.2,12.2 L3,12.2 L3,11 L6.2,11 Z M12.2,3 L12.2,6.2 L11,6.2 L11,3 L12.2,3 Z"/>
</svg>
