<svg xmlns="http://www.w3.org/2000/svg" width="24" height="24" viewBox="0 0 24 24">
  <path fill-rule="evenodd" d="M6.922,17.008 L16.922,17.008 L16.922,11.008 L6.922,11.008 L6.922,17.008 Z M6.922,9.008 L7.922,9.008 L7.922,8.008 L6.922,8.008 L6.922,9.008 Z M8.922,9.008 L9.922,9.008 L9.922,8.008 L8.922,8.008 L8.922,9.008 Z M10.922,9.008 L11.922,9.008 L11.922,8.008 L10.922,8.008 L10.922,9.008 Z M16,6 L8,6 C6.344,6 5,7.343 5,9 L5,16 C5,17.657 6.344,19 8,19 L16,19 C17.657,19 19,17.657 19,16 L19,9 C19,7.343 17.657,6 16,6 L16,6 Z"/>
</svg>
