<svg xmlns="http://www.w3.org/2000/svg" width="24" height="24" viewBox="0 0 24 24">
  <path fill-rule="evenodd" d="M10,8 L11,8 L11,7 L10,7 L10,8 Z M19,9 L5,9 L5,6.5 C5,6.225 5.225,6 5.5,6 L18.5,6 C18.775,6 19,6.225 19,6.5 L19,9 Z M19,17.5 C19,17.775 18.775,18 18.5,18 L5.5,18 C5.225,18 5,17.775 5,17.5 L5,10 L19,10 L19,17.5 Z M18.5,5 L5.5,5 C4.673,5 4,5.673 4,6.5 L4,17.5 C4,18.327 4.673,19 5.5,19 L18.5,19 C19.327,19 20,18.327 20,17.5 L20,6.5 C20,5.673 19.327,5 18.5,5 L18.5,5 Z M8,8 L9,8 L9,7 L8,7 L8,8 Z M6,8 L7,8 L7,7 L6,7 L6,8 Z"/>
</svg>
