<svg xmlns="http://www.w3.org/2000/svg" width="24" height="24" viewBox="0 0 24 24">
  <path d="M20,16 C20,16.087 19.972,16.164 19.951,16.244 L17.717,14.01 C17.893,13.713 18,13.37 18,13 L18,7.5 L20,9.5 L20,16 Z M19,17 L7.5,17 L5.5,15 L16,15 C16.37,15 16.713,14.893 17.01,14.717 L19.244,16.951 C19.164,16.972 19.086,17 19,17 L19,17 Z M5,8 C5,7.447 5.447,7 6,7 L17,7 L17,13 C17,13.553 16.553,14 16,14 L5,14 L5,8 Z M20.561,8.561 L18.439,6.439 C18.158,6.158 17.776,6 17.379,6 L6,6 C4.896,6 4,6.896 4,8 L4,14.379 C4,14.776 4.158,15.158 4.439,15.439 L6.561,17.561 C6.842,17.842 7.224,18 7.621,18 L19,18 C20.104,18 21,17.104 21,16 L21,9.621 C21,9.224 20.842,8.842 20.561,8.561 L20.561,8.561 Z"/>
</svg>
