<svg xmlns="http://www.w3.org/2000/svg" width="24" height="24" viewBox="0 0 24 24">
  <path fill-rule="evenodd" d="M15,5 C15.5107143,5 15.9352041,5.3880102 15.9932398,5.88380102 L16,6 L16,7 C17.5910714,7 18.9031888,8.25529337 18.994882,9.82441008 L19,10 L19,16 C19,17.5910714 17.7447066,18.9031888 16.1755899,18.994882 L16,19 L8,19 C6.40892857,19 5.09681122,17.7447066 5.00511798,16.1755899 L5,16 L5,10 C5,9.18 5.34,8.42 5.88,7.88 C6.375,7.385 7.05486111,7.05805556 7.79634259,7.00700231 L8,7 L8,6 C8,5.45 8.45,5 9,5 C9.51071429,5 9.93520408,5.3880102 9.9932398,5.88380102 L10,6 L10,7 L14,7 L14,6 C14,5.45 14.45,5 15,5 Z M17,10 L7,10 L7,17 L17,17 L17,10 Z M10,14 L10,16 L8,16 L8,14 L10,14 Z M13,14 L13,16 L11,16 L11,14 L13,14 Z M16,14 L16,16 L14,16 L14,14 L16,14 Z M10,11 L10,13 L8,13 L8,11 L10,11 Z M13,11 L13,13 L11,13 L11,11 L13,11 Z M16,11 L16,13 L14,13 L14,11 L16,11 Z"/>
</svg>
