<svg xmlns="http://www.w3.org/2000/svg" width="24" height="24" viewBox="0 0 24 24">
  <path d="M9,15 L6,15 L6,9 L9,9 L9,10 L7,10 L7,14 L9,14 L9,15 Z M15,11 L17,11 L17,9 L18,9 L18,15 L17,15 L17,12 L15,12 L15,15 L14,15 L14,9 L15,9 L15,11 Z M13,9 L13,13 L11,13 L11,15 L10,15 L10,9 L13,9 Z M12,10 L11,10 L11,12 L12,12 L12,10 Z M6,6 L18,6 C19.1045695,6 20,6.8954305 20,8 L20,16 C20,17.1045695 19.1045695,18 18,18 L6,18 C4.8954305,18 4,17.1045695 4,16 L4,8 C4,6.8954305 4.8954305,6 6,6 Z M6,7 C5.44771525,7 5,7.44771525 5,8 L5,16 C5,16.5522847 5.44771525,17 6,17 L18,17 C18.5522847,17 19,16.5522847 19,16 L19,8 C19,7.44771525 18.5522847,7 18,7 L6,7 Z"/>
</svg>
