<svg xmlns="http://www.w3.org/2000/svg" width="24" height="24" viewBox="0 0 24 24">
  <path d="M7,14 L7,10 L9,10 L9,9 L6,9 L6,15 L9,15 L9,14 L7,14 Z M15,11 L15,9 L14,9 L14,15 L15,15 L15,12 L17,12 L17,15 L18,15 L18,9 L17,9 L17,11 L15,11 Z M12,10 L12,12 L11,12 L11,10 L12,10 Z M13,9 L10,9 L10,15 L11,15 L11,13 L13,13 L13,9 Z M6.25,6 L17.75,6 C18.9926407,6 20,6.8954305 20,8 L20,16 C20,17.1045695 18.9926407,18 17.75,18 L6.25,18 C5.00735931,18 4,17.1045695 4,16 L4,8 C4,6.8954305 5.00735931,6 6.25,6 Z"/>
</svg>
