<svg xmlns="http://www.w3.org/2000/svg" width="24" height="24" viewBox="0 0 24 24">
  <path d="M7.5,4 C8.03169231,4 8.64347929,4.40984615 8.93423213,4.88110696 L9,5 L12.5,13 L10,13 L9,10 L6.046,10 L5,13 L2.5,13 L6,5 C6.253,4.482 6.923,4 7.5,4 Z M7.5,6 L6.5,8 L8.504,8 L7.5,6 Z M17,14 L21,17 L17,20 L17,18 L6,18 L6,20 L2,17 L6,14 L6,16 L17,16 L17,14 Z M14,4 L16.5,11 L19,4 L21.5,4 L18,12 C17.746,12.519 17.076,13 16.5,13 C15.9673846,13 15.3555266,12.5893018 15.0655548,12.1186964 L15,12 L11.5,4 L14,4 Z"/>
</svg>
