<svg xmlns="http://www.w3.org/2000/svg" width="24" height="24" viewBox="0 0 24 24">
  <path fill-rule="evenodd" d="M9,12 L16,12 L16,11 L9,11 L9,12 Z M19,14 C19,14.552 18.553,15 18,15 L14.547,15 C14.46,15.024 14.377,15.046 14.291,15.07 L10,17.621 L10,15.5 C10,15.224 9.776,15 9.5,15 L7,15 C6.447,15 6,14.552 6,14 L6,7 C6,6.448 6.447,6 7,6 L18,6 C18.553,6 19,6.448 19,7 L19,14 Z M18,5 L7,5 C5.896,5 5,5.896 5,7 L5,14 C5,15.104 5.896,16 7,16 L9,16 L9,18.5 C9,18.68 9.097,18.846 9.253,18.935 C9.33,18.978 9.414,19 9.5,19 C9.588,19 9.677,18.977 9.756,18.93 L14.684,16 L18,16 C19.104,16 20,15.104 20,14 L20,7 C20,5.896 19.104,5 18,5 L18,5 Z M9,10 L13,10 L13,9 L9,9 L9,10 Z"/>
</svg>
