<svg xmlns="http://www.w3.org/2000/svg" width="24" height="24" viewBox="0 0 24 24">
  <path d="M11,6 L20,6 L20,7 L11,7 L11,6 Z M11,11 L20,11 L20,12 L11,12 L11,11 Z M11,16 L17,16 L17,17 L11,17 L11,16 Z M5,15 L8,15 L8,18 L5,18 L5,15 Z M6,16 L6,17 L7,17 L7,16 L6,16 Z M5.5,12.5 L4.5,12.5 L4.5,11 L6,11 L6,12 L6.5,12 L6.5,11 L7.5,11 L7.5,10 L9,10 L9,11.5 L8,11.5 L8,12.5 L7,12.5 L7,13.5 L5.5,13.5 L5.5,12.5 Z M5.5,7.5 L4.5,7.5 L4.5,6 L6,6 L6,7 L6.5,7 L6.5,6 L7.5,6 L7.5,5 L9,5 L9,6.5 L8,6.5 L8,7.5 L7,7.5 L7,8.5 L5.5,8.5 L5.5,7.5 Z"/>
</svg>
