<svg xmlns="http://www.w3.org/2000/svg" width="24" height="24" viewBox="0 0 24 24">
  <path fill-rule="evenodd" d="M12,5 C15.8659932,5 19,8.13400675 19,12 C19,13.8565154 18.2625021,15.6369928 16.9497475,16.9497475 C15.6369928,18.2625021 13.8565154,19 12,19 C8.13400675,19 5,15.8659932 5,12 C5,8.13400675 8.13400675,5 12,5 Z M12,6 C8.6862915,6 6,8.6862915 6,12 C6,15.3137085 8.6862915,18 12,18 C15.3137085,18 18,15.3137085 18,12 C18,8.6862915 15.3137085,6 12,6 Z M9.88495742,9.1732886 L12.034,11.323 L14.1770956,9.18035967 L14.8842024,9.88746645 L12.741,12.03 L14.8842024,14.1725335 L14.1770956,14.8796403 L12.034,12.736 L9.88495742,14.8867114 L9.17785063,14.1796046 L11.327,12.03 L9.17785063,9.88039539 L9.88495742,9.1732886 Z"/>
</svg>
