<svg xmlns="http://www.w3.org/2000/svg" width="18" height="18" viewBox="0 0 18 18">
  <path d="M10.505,4 L10.495,4 C9.117,4 8,5.117 8,6.495 L7,6 C5.896,6 5,6.896 5,8 L5,9 L4.5,9 C3.119,9 2,10.119 2,11.5 C2,12.881 3.119,14 4.5,14 L13,14 C14.657,14 16,12.657 16,11 C16,9.343 14.657,8 13,8 L13,6.495 C13,5.117 11.883,4 10.505,4 M10.505,4.9 C11.385,4.9 12.1,5.615 12.1,6.495 L12.1,8 L12.1,8.9 L13,8.9 C14.158,8.9 15.1,9.842 15.1,11 C15.1,12.158 14.158,13.1 13,13.1 L4.5,13.1 C3.618,13.1 2.901,12.382 2.901,11.5 C2.901,10.618 3.618,9.9 4.5,9.9 L5,9.9 L5.901,9.9 L5.901,9 L5.901,8 C5.901,7.455 6.299,7.001 6.819,6.915 L7.601,7.302 L8.901,7.945 L8.901,6.495 C8.901,5.615 9.615,4.9 10.495,4.9 L10.505,4.9"/>
</svg>
