<svg xmlns="http://www.w3.org/2000/svg" width="24" height="24" viewBox="0 0 24 24">
  <path d="M13.333,6 C10.341,6 9.416,8.736 9.13,10 L8.133,10 C6.402,10 5,11.402 5,13.133 L5,14 L4.499,14 C3.119,14 2,15.118 2,16.498 C2,17.878 3.119,18.997 4.498,18.997 L4.501,18.997 L17.682,18.997 C20.669,18.993 22.945,15.945 21.608,12.793 C20.955,11.254 19.354,10.333 17.682,10.333 L17.667,10.333 C17.667,10.333 17.525,6 13.333,6 M13.333,7 C16.435,7 16.652,10.025 16.667,10.365 L16.714,11.333 L17.682,11.333 C19.01,11.333 20.218,12.077 20.687,13.184 C21.173,14.327 21.085,15.536 20.448,16.501 C19.829,17.437 18.795,17.998 17.682,18 L4.498,18 C3.672,18 3,17.325 3,16.498 C3,15.672 3.672,15 4.499,15 L5,15 L6,15 L6,14 L6,13.133 C6,11.957 6.957,11 8.133,11 L9.13,11 L9.929,11 L10.105,10.221 C10.437,8.751 11.269,7 13.333,7"/>
</svg>
