<svg xmlns="http://www.w3.org/2000/svg" width="24" height="24" viewBox="0 0 24 24">
  <path d="M10,5 L10,7 L9.208,7 C8.784,7 8.485,7.22 8.434,7.435 L8.426,7.5 L8.426,9.879 L8.419,9.997 C8.33140945,10.7198176 8.03222034,11.4006467 7.559,11.954 L7.518,11.999 L7.561,12.047 C7.794,12.321 7.993,12.634 8.146,12.991 L8.233,13.211 C8.303,13.407 8.355,13.606 8.39,13.804 L8.419,14.003 L8.426,14.121 L8.426,16.5 C8.426,16.713 8.686,16.952 9.085,16.994 L9.208,17 L10,17 L10,19 L9.208,19 C7.764,19 6.525,18.004 6.432,16.663 L6.426,16.5 L6.426,14.195 L6.414,14.121 L6.387,14.002 L6.35,13.884 C6.2,13.466 5.896,13.144 5.527,12.908 C5.23242969,12.7291253 5.04285521,12.4185464 5.01841451,12.074787 C4.99397382,11.7310277 5.13770024,11.3967516 5.404,11.178 L5.514,11.1 C5.896,10.857 6.2,10.534 6.349,10.116 C6.378,10.037 6.399,9.959 6.414,9.879 L6.426,9.804 L6.426,7.5 C6.426,6.132 7.609,5.083 9.036,5.005 L9.208,5 L10,5 Z M14.81,5 C16.253,5 17.491,5.996 17.584,7.337 L17.59,7.5 L17.59,9.806 L17.602,9.877 C17.61,9.917 17.619,9.957 17.63,9.997 L17.667,10.116 C17.817,10.534 18.121,10.856 18.49,11.092 C19.13,11.487 19.168,12.375 18.613,12.822 L18.503,12.9 C18.121,13.143 17.817,13.466 17.668,13.884 C17.639,13.963 17.618,14.042 17.602,14.123 L17.59,14.193 L17.59,16.5 C17.59,17.868 16.407,18.917 14.981,18.995 L14.81,19 L14.018,19 L14.018,17 L14.81,17 C15.233,17 15.533,16.78 15.583,16.565 L15.591,16.5 L15.591,14.121 L15.599,13.997 C15.6877311,13.27629 15.9868531,12.5977004 16.459,12.046 L16.499,12 L16.457,11.953 C16.2155182,11.6696294 16.0182874,11.3513629 15.872,11.009 L15.786,10.789 C15.7247476,10.6185089 15.6762801,10.4436919 15.641,10.266 L15.599,10.003 L15.591,9.879 L15.591,7.5 C15.591,7.287 15.331,7.048 14.933,7.006 L14.81,7 L14.018,7 L14.018,5 L14.81,5 L14.81,5 Z"/>
</svg>
