<svg xmlns="http://www.w3.org/2000/svg" width="24" height="24" viewBox="0 0 24 24">
  <path d="M10.1114303,3.20942308 L10.2055231,3.2925 L19.3985231,12.4855 C19.7885231,12.8755 19.7885231,13.5085 19.3985231,13.8995 C19.0376,14.2595 18.4704758,14.2871923 18.0778295,13.9825769 L17.9835231,13.8995 L17.4845231,13.4005 L10.3095231,19.2415 C9.55868979,19.8525556 8.48585337,19.8338765 7.75736898,19.2191598 L7.63252313,19.1045 L3.58652313,15.0575 C2.90085646,14.3727778 2.81013732,13.3036142 3.34722014,12.5172068 L3.44852313,12.3815 L5.59952313,9.7395 C5.09852313,9.4505 4.65752313,9.1345 4.31752313,8.7935 L4.16452313,8.6315 C3.69452313,8.1025 3.48152313,7.5435 3.52752313,6.9715 C3.57452313,6.4055 3.86252313,5.9695 4.36252313,5.7115 C5.36646757,5.19205556 7.09737189,5.51998765 8.40111915,5.94385665 L8.62652313,6.0195 L9.28952313,5.2055 L8.79152313,4.7065 C8.40052313,4.3165 8.40052313,3.6825 8.79152313,3.2925 C9.1524462,2.9325 9.71957046,2.90480769 10.1114303,3.20942308 Z M10.7115231,6.6275 L8.14952313,9.7745 C9.77252313,10.3525 11.5325231,10.7195 12.5305231,10.7565 C12.8065231,10.7655 13.0215231,10.9965 13.0115231,11.2745 C13.0015231,11.5505 12.7695231,11.7655 12.4935231,11.7555 C11.3665231,11.7135 9.32252313,11.3035 7.47352313,10.6045 L7.47352313,10.6045 L6.18652313,12.1875 L13.5465231,14.0275 L16.0645231,11.9785 L10.7115231,6.6275 Z M7.95052313,6.8505 C6.82352313,6.5065 5.45552313,6.2725 4.82152313,6.6005 C4.63152313,6.6985 4.54352313,6.8335 4.52552313,7.0535 C4.50152313,7.3475 4.62752313,7.6475 4.91252313,7.9675 L4.91252313,7.9675 L5.05705665,8.11528717 C5.36393129,8.40813265 5.77523741,8.6845 6.24752313,8.9425 L6.24752313,8.9425 Z M19.3298382,15.6275235 L19.4254231,15.4543 L19.4254231,15.4543 L19.7640667,16.0814607 L19.7640667,16.0814607 L20.0890554,16.7175117 L20.0890554,16.7175117 L20.3471346,17.2547481 L20.3471346,17.2547481 L20.510653,17.6184621 C20.7456894,18.1596639 20.9254231,18.6673385 20.9254231,18.9543 C20.9254231,19.7833 20.2534231,20.4543 19.4254231,20.4543 C18.5974231,20.4543 17.9254231,19.7833 17.9254231,18.9543 C17.9254231,18.6673385 18.1051569,18.1596639 18.3401933,17.6184621 L18.5037117,17.2547481 L18.5037117,17.2547481 L18.7617909,16.7175117 L18.7617909,16.7175117 L19.0867795,16.0814607 L19.0867795,16.0814607 L19.3298382,15.6275235 L19.3298382,15.6275235 Z"/>
</svg>
