<svg xmlns="http://www.w3.org/2000/svg" width="24" height="24" viewBox="0 0 24 24">
  <path d="M19.0868954,19.013 C18.6398954,19.013 18.1598954,18.738 18.1598954,18.135 C18.1598954,17.637 18.5888954,16.727 19.0868954,15.882 C19.5848954,16.727 20.0138954,17.637 20.0138954,18.135 C20.0138954,18.738 19.5328954,19.013 19.0868954,19.013 L19.0868954,19.013 Z M19.0868954,14.079 C19.0868954,14.079 17.1738954,16.702 17.1738954,18.135 C17.1738954,19.238 18.0298954,20 19.0868954,20 C20.1438954,20 20.9998954,19.238 20.9998954,18.135 C20.9998954,16.702 19.0868954,14.079 19.0868954,14.079 L19.0868954,14.079 Z M10.3238954,18.229 C10.0258954,18.472 9.81089542,18.346 9.66089542,18.197 L5.35389542,13.886 C5.17289542,13.705 5.15889542,13.42 5.32189542,13.223 L6.45689542,11.843 C6.89389542,12.174 7.37889542,12.487 7.90889542,12.768 C9.29389542,13.504 10.7418954,13.906 11.9728954,13.906 C12.1548954,13.906 12.3328954,13.897 12.5038954,13.88 C12.7748954,13.851 12.9708954,13.609 12.9428954,13.338 C12.9148954,13.067 12.6728954,12.876 12.4018954,12.898 C11.2828954,13.018 9.77189542,12.641 8.37089542,11.897 C7.89089542,11.642 7.47489542,11.36 7.09189542,11.071 L11.2878954,5.967 L17.5718954,12.257 L10.3238954,18.229 Z M5.09789542,7.591 C5.52589542,6.784 7.14789542,6.658 8.95889542,7.246 L6.33889542,10.432 C5.22389542,9.353 4.75789542,8.232 5.09789542,7.591 L5.09789542,7.591 Z M18.8408954,13.526 L19.5378954,12.828 L10.7168954,4 L10.0208954,4.698 L10.5878954,5.265 L9.62989542,6.43 C7.11189542,5.499 4.94589542,5.775 4.22789542,7.129 C3.62389542,8.266 4.25589542,9.834 5.70489542,11.204 L4.56089542,12.596 C4.07389542,13.187 4.11489542,14.041 4.65689542,14.583 L8.96389542,18.894 C9.24289542,19.174 9.61489542,19.328 10.0098954,19.328 C10.3518954,19.328 10.6848954,19.208 10.9498954,18.991 L18.2728954,12.958 L18.8408954,13.526 Z"/>
</svg>
