<svg xmlns="http://www.w3.org/2000/svg" width="24" height="24" viewBox="0 0 24 24">
  <path d="M6.28571429,4 L17.7142857,4 C18.9766509,4 20,5.02334914 20,6.28571429 L20,17.7142857 C20,18.9766509 18.9766509,20 17.7142857,20 L6.28571429,20 C5.02334914,20 4,18.9766509 4,17.7142857 L4,6.28571429 C4,5.02334914 5.02334914,4 6.28571429,4 Z M8,6 L8,8 L10,8 L10,6 L8,6 Z M14,6 L14,8 L16,8 L16,6 L14,6 Z M8,10 L8,14 L10,14 L10,10 L8,10 Z M14,10 L14,14 L16,14 L16,10 L14,10 Z M8,16 L8,18 L10,18 L10,16 L8,16 Z M14,16 L14,18 L16,18 L16,16 L14,16 Z"/>
</svg>
