<svg xmlns="http://www.w3.org/2000/svg" width="24" height="24" viewBox="0 0 24 24">
  <path d="M6.28571429,4 L17.7142857,4 C18.9766509,4 20,5.02334914 20,6.28571429 L20,17.7142857 C20,18.9766509 18.9766509,20 17.7142857,20 L6.28571429,20 C5.02334914,20 4,18.9766509 4,17.7142857 L4,6.28571429 C4,5.02334914 5.02334914,4 6.28571429,4 Z M6.16666667,5 C5.52233446,5 5,5.52233446 5,6.16666667 L5,17.8333333 C5,18.4776655 5.52233446,19 6.16666667,19 L17.8333333,19 C18.4776655,19 19,18.4776655 19,17.8333333 L19,6.16666667 C19,5.52233446 18.4776655,5 17.8333333,5 L6.16666667,5 Z M9,5 L10,5 L10,9 L9,9 L9,5 Z M14,5 L15,5 L15,9 L14,9 L14,5 Z M9,10 L10,10 L10,14 L9,14 L9,10 Z M14,10 L15,10 L15,14 L14,14 L14,10 Z M9,15 L10,15 L10,19 L9,19 L9,15 Z M14,15 L15,15 L15,19 L14,19 L14,15 Z"/>
</svg>
