<svg xmlns="http://www.w3.org/2000/svg" width="24" height="24" viewBox="0 0 24 24">
  <path fill-rule="evenodd" d="M12,0 C18.627417,0 24,5.372583 24,12 C24,18.627417 18.627417,24 12,24 C5.372583,24 0,18.627417 0,12 C0,5.372583 5.372583,0 12,0 Z M15.928,7.98252431 C15.6998219,7.98252431 15.4835229,8.08424928 15.338,8.26 L15.338,8.26 L11.0627978,13.0735243 L9.554,11.16 C9.46201575,10.9502193 9.28319846,10.7909241 9.06422508,10.7236954 C8.84525171,10.6564668 8.6078539,10.6879767 8.414,10.81 C8.00719701,11.1053312 7.87752991,11.6537593 8.109,12.1 L8.109,12.1 L10.356,14.95 C10.4497924,15.158121 10.628624,15.3158046 10.8468497,15.3828038 C11.0650755,15.4498029 11.3015808,15.419635 11.496,15.3 C11.6606782,15.18066 11.7799761,15.0198299 11.8483223,14.8410739 L11.8483223,14.8410739 L16.518,9.59 C16.8438315,9.20653482 16.8438315,8.64346518 16.518,8.26 C16.3724771,8.08424928 16.1561781,7.98252431 15.928,7.98252431 Z"/>
</svg>
