<svg xmlns="http://www.w3.org/2000/svg" width="24" height="24" viewBox="0 0 24 24">
  <path d="M11,9 L16,9 L16,8 L11,8 L11,9 Z M18,14.5 C18,14.775 17.775,15 17.5,15 L9.5,15 C9.225,15 9,14.775 9,14.5 L9,6.5 C9,6.225 9.225,6 9.5,6 L17.5,6 C17.775,6 18,6.225 18,6.5 L18,14.5 Z M14,18.5 C14,18.775 13.775,19 13.5,19 L5.5,19 C5.225,19 5,18.775 5,18.5 L5,10.5 C5,10.225 5.225,10 5.5,10 L8,10 L8,14.5 C8,15.327 8.673,16 9.5,16 L14,16 L14,18.5 Z M17.5,5 L9.5,5 C8.673,5 8,5.673 8,6.5 L8,9 L5.5,9 C4.673,9 4,9.673 4,10.5 L4,18.5 C4,19.327 4.673,20 5.5,20 L13.5,20 C14.327,20 15,19.327 15,18.5 L15,16 L17.5,16 C18.327,16 19,15.327 19,14.5 L19,6.5 C19,5.673 18.327,5 17.5,5 L17.5,5 Z M11,12 L16,12 L16,11 L11,11 L11,12 Z"/>
</svg>
