<svg xmlns="http://www.w3.org/2000/svg" width="24" height="24" viewBox="0 0 24 24">
  <path d="M16.9995117,16.0004883 L16.9995117,13.5108575 L19.0048426,12.0196919 L16.9995117,10.5388286 L16.9995117,8.0333252 C16.9995117,6.92902537 16.1042998,6.03381348 15,6.03381348 L15,5.03381348 C16.6565846,5.03381348 17.9995117,6.37674062 17.9995117,8.0333252 L17.9995117,10.0341797 L19.5988865,11.2152593 C20.0431624,11.5433407 20.1373566,12.1694599 19.8092752,12.6137358 C19.7506897,12.6930701 19.6806907,12.7633017 19.6015511,12.82215 L17.9995117,14.0134277 L17.9995117,16.0004883 C17.9995117,17.6570729 16.6565846,19 15,19 L15,18 C16.1042998,18 16.9995117,17.1047881 16.9995117,16.0004883 Z M7.00539554,16.0004883 C7.00539554,17.1047881 7.90060743,18 9.00490726,18 L9.00490726,19 C7.34832268,19 6.00539554,17.6570729 6.00539554,16.0004883 L6.00539554,14.0134277 L4.40335617,12.82215 C4.32421657,12.7633017 4.25421756,12.6930701 4.19563207,12.6137358 C3.86755066,12.1694599 3.96174487,11.5433407 4.40602072,11.2152593 L6.00539554,10.0341797 L6.00539554,8.0333252 C6.00539554,6.37674062 7.34832268,5.03381348 9.00490726,5.03381348 L9.00490726,6.03381348 C7.90060743,6.03381348 7.00539554,6.92902537 7.00539554,8.0333252 L7.00539554,10.5388286 L5.00006466,12.0196919 L7.00539554,13.5108575 L7.00539554,16.0004883 Z"/>
</svg>
