<svg xmlns="http://www.w3.org/2000/svg" width="24" height="24" viewBox="0 0 24 24">
  <path fill-rule="evenodd" d="M11.4658549,13.1459664 C11.7238549,13.1459664 11.9798549,13.2479664 12.1698549,13.4379664 L16.3878549,17.6559664 C16.7148549,17.9819664 17.2038549,18.0699664 17.5498549,17.8659664 C17.8230865,17.7116417 17.9905717,17.4207463 17.9869155,17.1069664 L17.9869155,17.0809664 C17.9889712,16.8480627 17.8957578,16.6244228 17.7288549,16.4619664 L13.4388549,12.1699664 C13.1594076,11.8913799 13.0707724,11.4740885 13.2128549,11.1059664 C13.7512609,9.71830121 13.4220807,8.14372261 12.3728549,7.08796645 C11.7624907,6.47917543 10.9606449,6.09979991 10.1028549,6.01396645 L11.7748549,7.68796645 C12.1418549,8.05396645 12.3448549,8.54196645 12.3448549,9.06196645 C12.3448549,9.58196645 12.1418549,10.0689664 11.7748549,10.4369664 L10.4358549,11.7749664 C9.7008549,12.5099664 8.4198549,12.5089664 7.6858549,11.7749664 L6.0158549,10.1009664 C6.1008549,10.9449664 6.4678549,11.7509664 7.0908549,12.3729664 C8.1461041,13.4216094 9.71978034,13.7507648 11.1068549,13.2129664 C11.2215986,13.1681675 11.343676,13.1451084 11.4668549,13.1449664 M17.1278549,19.9729736 C16.3191051,19.9675313 15.5456725,19.6408909 14.9778549,19.0649664 L11.1888549,15.2769664 C9.21722343,15.7882106 7.12218202,15.220154 5.6788549,13.7829664 C4.07225278,12.1699685 3.56665616,9.76191766 4.3888549,7.63896645 C4.51091156,7.32494772 4.7830233,7.09360187 5.1125887,7.02365741 C5.44215411,6.95371294 5.78477488,7.05459263 6.0238549,7.29196645 L9.0978549,10.3649664 L10.3658549,9.02596645 L7.2918549,6.02596645 C7.0524714,5.78750643 6.95015428,5.44403011 7.02002714,5.11344665 C7.0899,4.78286319 7.32245299,4.51016577 7.6378549,4.38896645 C9.76111237,3.56659736 12.1695399,4.07219078 13.7828549,5.67896645 C15.220585,7.12197998 15.7887257,9.21733155 15.2768549,11.1889664 L19.1378549,15.0519664 C19.6843958,15.5908012 19.9886467,16.3285101 19.981001,17.0959664 C19.990213,18.1160935 19.4520816,19.0629758 18.5708549,19.5769664 C18.1346062,19.8372414 17.6358457,19.9741154 17.1278549,19.9729736"/>
</svg>
