<svg xmlns="http://www.w3.org/2000/svg" width="24" height="24" viewBox="0 0 24 24">
  <path d="M18.7083337,17.918 C18.6073337,18.295 18.3653337,18.609 18.0273337,18.805 C17.8073337,18.933 17.5553337,19 17.3013337,19 C16.7793337,19 16.2943337,18.72 16.0343337,18.27 L15.6713337,17.641 L15.3073337,16.996 C15.1393337,16.672 15.0943337,16.305 15.1873337,15.95 C15.2893337,15.573 15.5303337,15.259 15.8683337,15.064 C16.0903337,14.936 16.3423337,14.868 16.5973337,14.868 C17.1173337,14.868 17.6023337,15.147 17.8613337,15.598 L18.5623337,16.811 C18.7573337,17.147 18.8093337,17.541 18.7083337,17.918 M8.45233366,16.996 L8.07633366,17.661 L7.72533366,18.27 C7.33733366,18.939 6.40633366,19.194 5.73033366,18.805 C5.39333366,18.609 5.15133366,18.295 5.05133366,17.918 C4.94933366,17.541 5.00233366,17.148 5.19733366,16.811 L5.89633366,15.598 C6.15633366,15.147 6.64133366,14.868 7.16233366,14.868 C7.41633366,14.868 7.66833366,14.936 7.89133366,15.064 C8.22933366,15.259 8.46933366,15.573 8.57033366,15.95 C8.66533366,16.305 8.62033366,16.672 8.45233366,16.996 M19.4283337,16.311 L18.7293337,15.098 C18.0763337,13.968 16.5063337,13.542 15.3683337,14.198 C14.9143337,14.46 14.5693337,14.855 14.3603337,15.324 L12.4543337,11.956 L16.1073337,5.5 L15.2413337,5 L11.8793337,10.94 L8.51833366,5 L7.65033366,5.5 L11.3053337,11.956 L9.39833366,15.324 C9.18833366,14.855 8.84433366,14.46 8.39133366,14.198 C7.25433366,13.542 5.68333366,13.968 5.03033366,15.098 L4.33133366,16.311 C4.00233366,16.879 3.91433366,17.542 4.08533366,18.177 C4.25533366,18.812 4.66233366,19.342 5.23033366,19.67 C5.60433366,19.886 6.02933366,20 6.45933366,20 C7.33633366,20 8.15233366,19.528 8.59133366,18.77 L8.94033366,18.164 L8.94233366,18.161 L9.29133366,17.558 C9.30233366,17.538 9.30833366,17.516 9.31833366,17.496 L11.8793337,12.972 L14.4393337,17.496 C14.4513337,17.516 14.4563337,17.538 14.4683337,17.558 L14.8053337,18.141 L14.8183337,18.164 L15.1683337,18.77 C15.6053337,19.528 16.4233337,20 17.3003337,20 L17.3013337,20 C17.7293337,20 18.1543337,19.886 18.5273337,19.67 C19.0973337,19.342 19.5043337,18.812 19.6743337,18.177 C19.8443337,17.542 19.7563337,16.879 19.4283337,16.311"/>
</svg>
