<svg xmlns="http://www.w3.org/2000/svg" width="24" height="24" viewBox="0 0 24 24">
  <path d="M17.7253336,16.288287 C17.6593336,16.536287 17.5003336,16.743287 17.2783336,16.871287 C17.1293336,16.957287 16.9693336,17.000287 16.8003336,17.000287 C16.4573336,17.000287 16.1383336,16.816287 15.9673336,16.519287 L15.2683336,15.307287 C15.1393336,15.085287 15.1053336,14.827287 15.1713336,14.579287 C15.2383336,14.332287 15.3963336,14.125287 15.6193336,13.997287 C15.7673336,13.911287 15.9283336,13.868287 16.0973336,13.868287 C16.4403336,13.868287 16.7583336,14.052287 16.9293336,14.348287 L17.6293336,15.560287 C17.7573336,15.782287 17.7913336,16.041287 17.7253336,16.288287 M7.49233361,15.308287 L6.79133361,16.519287 C6.53733361,16.963287 5.93133361,17.132287 5.48133361,16.871287 C5.25833361,16.743287 5.10033361,16.536287 5.03433361,16.288287 C4.96733361,16.041287 5.00133361,15.783287 5.13033361,15.559287 L5.82933361,14.349287 C6.00033361,14.052287 6.32033361,13.868287 6.66233361,13.868287 C6.83133361,13.868287 6.99333361,13.911287 7.14133361,13.997287 C7.59933361,14.262287 7.75633361,14.850287 7.49233361,15.308287 M19.3623336,14.560287 L18.6623336,13.348287 C18.1343336,12.434287 17.1523336,11.868287 16.0973336,11.868287 C15.5793336,11.868287 15.0693336,12.005287 14.6193336,12.265287 C14.3023336,12.447287 14.0333336,12.686287 13.8093336,12.961287 L12.4873336,10.805287 L15.6193336,5.50928697 C15.9003336,5.03328697 15.7433336,4.42028697 15.2673336,4.14028697 C14.7943336,3.85828697 14.1793336,4.01728697 13.8983336,4.49128697 L11.3053336,8.87528697 L8.61133361,4.47728697 C8.32333361,4.00828697 7.70733361,3.85828697 7.23633361,4.14728697 C6.76533361,4.43528697 6.61733361,5.05228697 6.90633361,5.52228697 L10.1533336,10.823287 L8.91233361,12.923287 C8.69733361,12.669287 8.44633361,12.440287 8.14133361,12.265287 C7.69133361,12.005287 7.18033361,11.868287 6.66233361,11.868287 C5.60833361,11.868287 4.62533361,12.434287 4.09733361,13.349287 L3.39933361,14.559287 C3.00233361,15.244287 2.89733361,16.041287 3.10233361,16.805287 C3.30633361,17.569287 3.79633361,18.208287 4.48133361,18.603287 C4.93133361,18.863287 5.44233361,19.000287 5.95833361,19.000287 C7.01433361,19.000287 7.99633361,18.433287 8.52433361,17.519287 L8.87033361,16.922287 L11.3353336,12.752287 L13.8913336,16.925287 L14.2353336,17.519287 C14.7623336,18.433287 15.7453336,19.000287 16.8003336,19.000287 C17.3173336,19.000287 17.8283336,18.863287 18.2783336,18.603287 C18.9623336,18.208287 19.4533336,17.570287 19.6573336,16.807287 C19.8623336,16.042287 19.7573336,15.245287 19.3623336,14.560287"/>
</svg>
