<svg xmlns="http://www.w3.org/2000/svg" width="24" height="24" viewBox="0 0 24 24">
  <path fill-rule="evenodd" d="M16,20 L16,21 L9,21 L9,20 L16,20 Z M19.5,4 C20.3284271,4 21,4.67157288 21,5.5 L21,17.5 C21,18.3284271 20.3284271,19 19.5,19 L5.5,19 C4.67157288,19 4,18.3284271 4,17.5 L4,5.5 C4,4.67157288 4.67157288,4 5.5,4 L19.5,4 Z M19.5,5 L5.5,5 C5.22385763,5 5,5.22385763 5,5.5 L5,17.5 C5,17.7761424 5.22385763,18 5.5,18 L19.5,18 C19.7761424,18 20,17.7761424 20,17.5 L20,5.5 C20,5.22385763 19.7761424,5 19.5,5 Z M12.4999985,7.00027779 C14.9755237,7.00027779 16.9861774,8.99979193 17.0000687,11.4752774 C17.0136837,13.9507629 15.0253709,15.9724942 12.55,16 L12.45,16 C9.97462914,15.9724942 7.98631633,13.9507629 7.99992834,11.4752774 C8.01382257,8.99979193 10.0244763,7.00027779 12.4999985,7.00027779 Z M9,11.45 C8.97238576,13.3829966 10.5170034,14.9723858 12.45,15 L12.55,15 C14.3129068,15 15.771396,13.6966338 16.0144195,12.0009499 L12,12 L12.0004614,8.03495485 C10.3244692,8.27447181 9.02494634,9.70375635 9,11.45 Z M13.0008563,8.0287701 L13,11 L16.0145626,11.0000498 C15.8022199,9.51538612 14.6581386,8.3312797 13.1936442,8.05905595 L13.0008563,8.0287701 Z"/>
</svg>
