<svg xmlns="http://www.w3.org/2000/svg" width="24" height="24" viewBox="0 0 24 24">
  <path d="M5,15 L5,7 C5,6.45 5.45,6 6,6 L15,6 C15.55,6 16,6.45 16,7 L16,8.12 C16.35,8.17 16.68,8.24 17,8.34 L17,7 C17,5.9 16.1,5 15,5 L6,5 C4.9,5 4,5.9 4,7 L4,15 C4,16.1 4.9,17 6,17 L9,17 L9,16 L6,16 C5.45,16 5,15.55 5,15 M17.5215,15.2666 C16.9795,15.6036 16.2815,15.8476 15.4175,15.9486 C15.1305,15.9826 14.8245,15.9996 14.5005,15.9996 C13.2025,15.9996 12.2015,15.7156 11.4785,15.2666 C11.3305,15.1736 11.2095,15.0456 11.1275,14.8976 C11.0445,14.7496 11.0005,14.5806 11.0005,14.4056 L11.0005,12.9536 L11.0005,12.9536 L11.0005,12.9536 C11.0005,12.9536 11.0005,12.9536 11.0005,12.9536 C11.6035,13.3456 12.1675,13.6596 12.8725,13.8476 C12.9535,13.8676 13.0305,13.8876 13.1155,13.9046 C13.2305,13.9296 13.3485,13.9536 13.4725,13.9716 C13.7935,14.0146 14.1315,14.0436 14.5005,14.0436 C14.8685,14.0436 15.2065,14.0146 15.5275,13.9716 C15.6525,13.9536 15.7695,13.9296 15.8855,13.9046 C15.9695,13.8876 16.0475,13.8676 16.1275,13.8476 C16.8335,13.6596 17.3965,13.3456 18.0005,12.9536 L18.0005,12.9536 L18.0005,12.9536 L18.0005,14.4056 C18.0005,14.7556 17.8195,15.0806 17.5215,15.2666 L17.5215,15.2666 Z M18.0005,17.4056 C18.0005,17.7556 17.8195,18.0806 17.5215,18.2666 C16.9795,18.6036 16.2815,18.8476 15.4175,18.9486 C15.1305,18.9826 14.8245,18.9996 14.5005,18.9996 C13.2025,18.9996 12.2015,18.7156 11.4785,18.2666 C11.4045,18.2196 11.3365,18.1646 11.2785,18.1026 C11.1015,17.9166 11.0005,17.6686 11.0005,17.4056 L11.0005,15.9536 L11.0005,15.9536 L11.0005,15.9536 C11.0005,15.9536 11.0005,15.9536 11.0005,15.9536 C11.6035,16.3456 12.1675,16.6596 12.8725,16.8476 C12.9535,16.8676 13.0315,16.8876 13.1155,16.9046 C13.2305,16.9296 13.3485,16.9536 13.4725,16.9716 C13.7935,17.0146 14.1315,17.0436 14.5005,17.0436 C14.8695,17.0436 15.2065,17.0146 15.5275,16.9716 C15.6525,16.9536 15.7695,16.9296 15.8855,16.9046 C15.9695,16.8876 16.0475,16.8676 16.1275,16.8476 C16.8335,16.6596 17.3965,16.3456 18.0005,15.9536 L18.0005,15.9536 L18.0005,15.9536 L18.0005,17.4056 Z M14.5005,9.9996 C16.4335,9.9996 18.0005,10.6716 18.0005,11.4996 C18.0005,12.3286 16.4335,12.9996 14.5005,12.9996 C12.5675,12.9996 11.0005,12.3286 11.0005,11.4996 C11.0005,10.6716 12.5675,9.9996 14.5005,9.9996 L14.5005,9.9996 Z M19.0005,11.5406 C19.0005,10.8236 18.6275,10.1436 17.9975,9.8006 C17.0795,9.3036 15.8515,8.9996 14.5005,8.9996 C13.1495,8.9996 11.9205,9.3036 11.0035,9.8006 C10.3725,10.1436 10.0005,10.8236 10.0005,11.5406 L10.0005,17.4586 C10.0005,18.1766 10.3725,18.8566 11.0035,19.1996 C11.9205,19.6966 13.1495,19.9996 14.5005,19.9996 C15.8515,19.9996 17.0805,19.6966 17.9975,19.1996 C18.6275,18.8566 19.0005,18.1766 19.0005,17.4586 L19.0005,11.5406 Z"/>
</svg>
