<svg xmlns="http://www.w3.org/2000/svg" width="18" height="18" viewBox="0 0 18 18">
  <path fill-rule="evenodd" d="M5.5,7 C4.73727836,6.99960007 4.09629194,6.42689797 4.01034115,5.66903457 C3.92439035,4.91117118 4.42084413,4.20946972 5.1641047,4.03827336 C5.90736527,3.86707701 6.66075931,4.28089908 6.915,5 L8.879,5 C9.65581679,5.00015895 10.3622717,5.4501176 10.6908583,6.15401756 C11.019445,6.85791752 10.9107164,7.68841097 10.412,8.284 L10.292,8.414 L8.414,10.293 C8.14573773,10.5622513 8.05330486,10.9603042 8.17546737,11.320217 C8.29762987,11.6801298 8.6132663,11.9396749 8.99,11.99 L9.12,12 L11.084,12 C11.3275182,11.3112267 12.0318331,10.898064 12.7518665,11.0216022 C13.4718999,11.1451404 13.9982136,11.7694455 13.9982136,12.5 C13.9982136,13.2305545 13.4718999,13.8548596 12.7518665,13.9783978 C12.0318331,14.101936 11.3275182,13.6887733 11.084,13 L9.122,13 C8.34456243,12.9996532 7.63776952,12.5488128 7.30969519,11.843989 C6.98162085,11.1391653 7.0917188,10.3080866 7.592,9.713 L7.708,9.586 L9.587,7.707 C9.85781811,7.43602695 9.9500224,7.03414833 9.82441252,6.67222154 C9.69880263,6.31029475 9.37745907,6.05194156 8.997,6.007 L8.878,6 L6.914,6 C6.70213463,6.59924577 6.13559611,6.9999095 5.5,7 Z"/>
</svg>
