<svg xmlns="http://www.w3.org/2000/svg" width="24" height="24" viewBox="0 0 24 24">
  <path fill-rule="evenodd" d="M17,9 L7,9 L7,8 C7,7.44771525 7.44771525,7 8,7 L16,7 C16.5522847,7 17,7.44771525 17,8 L17,9 Z M11,13 L17,13 L17,11 L11,11 L11,13 Z M17,16 C17,16.5522847 16.5522847,17 16,17 L11,17 L11,15 L17,15 L17,16 Z M8,17 C7.44771525,17 7,16.5522847 7,16 L7,15 L9,15 L9,17 L8,17 Z M7,13 L9,13 L9,11 L7,11 L7,13 Z M16,5 L8,5 C6.34314575,5 5,6.34314575 5,8 L5,16 C5,17.6568542 6.34314575,19 8,19 L16,19 C17.6568542,19 19,17.6568542 19,16 L19,8 C19,6.34314575 17.6568542,5 16,5 Z"/>
</svg>
