<svg xmlns="http://www.w3.org/2000/svg" width="24" height="24" viewBox="0 0 24 24">
  <path d="M17,8 C17,8.632 16.607,9.195 16.013,9.406 C14.981,9.773 13.564,10 12,10 C10.436,10 9.019,9.773 7.987,9.406 C7.393,9.195 7,8.632 7,8 C7,7.368 7.393,6.805 7.987,6.594 C9.019,6.227 10.436,6 12,6 C13.564,6 14.981,6.227 16.013,6.594 C16.607,6.805 17,7.368 17,8 L17,8 Z M17,11.977 C17,12.608 16.61,13.173 16.017,13.39 C14.985,13.767 13.567,14 12,14 C10.433,14 9.015,13.767 7.983,13.39 C7.39,13.173 7,12.608 7,11.977 L7,9.953 C7.975,10.604 9.847,11.044 12,11.044 C14.153,11.044 16.026,10.604 17,9.953 L17,11.977 Z M17,15.977 C17,16.608 16.61,17.173 16.017,17.39 C14.985,17.767 13.567,18 12,18 C10.433,18 9.015,17.767 7.983,17.39 C7.39,17.173 7,16.608 7,15.977 L7,13.953 C7.975,14.604 9.847,15.044 12,15.044 C14.153,15.044 16.026,14.604 17,13.953 L17,15.977 Z M6,7.696 L6,15.962 C6,17.01 6.646,17.954 7.63,18.312 C8.816,18.741 10.339,19 12,19 C13.661,19 15.184,18.741 16.37,18.312 C17.354,17.954 18,17.01 18,15.962 L18,7.696 C18,6.911 17.552,6.186 16.832,5.873 C15.593,5.333 13.886,5 12,5 C10.114,5 8.407,5.333 7.168,5.873 C6.448,6.186 6,6.911 6,7.696 L6,7.696 Z"/>
</svg>
