<svg xmlns="http://www.w3.org/2000/svg" width="18" height="18" viewBox="0 0 18 18">
  <path d="M11.521,10.267 C10.979,10.604 10.281,10.848 9.418,10.949 C9.13,10.983 8.824,11 8.5,11 C7.202,11 6.201,10.716 5.479,10.267 C5.33,10.174 5.21,10.046 5.127,9.898 C5.045,9.75 5,9.581 5,9.406 L5,7.954 L5,7.954 L5,7.954 L5,7.954 C5.603,8.346 6.167,8.66 6.872,8.848 C6.952,8.868 7.03,8.888 7.114,8.905 C7.23,8.93 7.348,8.954 7.473,8.972 C7.793,9.015 8.131,9.044 8.5,9.044 C8.868,9.044 9.206,9.015 9.526,8.972 C9.651,8.954 9.77,8.93 9.885,8.905 C9.969,8.888 10.047,8.868 10.127,8.848 C10.832,8.66 11.396,8.346 12,7.954 L12,7.954 L12,7.954 L12,9.406 C12,9.756 11.819,10.081 11.521,10.267 L11.521,10.267 Z M12,12.406 C12,12.756 11.819,13.081 11.521,13.267 C10.979,13.604 10.281,13.848 9.418,13.949 C9.13,13.983 8.824,14 8.5,14 C7.202,14 6.201,13.716 5.479,13.267 C5.404,13.22 5.337,13.165 5.278,13.103 C5.101,12.917 5,12.669 5,12.406 L5,10.954 L5,10.954 L5,10.954 L5,10.954 C5.603,11.346 6.167,11.66 6.872,11.848 C6.952,11.868 7.03,11.888 7.115,11.905 C7.23,11.93 7.348,11.954 7.473,11.972 C7.793,12.015 8.131,12.044 8.5,12.044 L8.5,12.044 C8.868,12.044 9.206,12.015 9.527,11.972 C9.651,11.954 9.77,11.93 9.886,11.905 C9.969,11.888 10.047,11.868 10.127,11.848 C10.832,11.66 11.396,11.346 12,10.954 L12,10.954 L12,10.954 L12,12.406 Z M8.5,5 C10.433,5 12,5.672 12,6.5 C12,7.329 10.433,8 8.5,8 C6.566,8 5,7.329 5,6.5 C5,5.672 6.566,5 8.5,5 L8.5,5 Z M13,6.541 C13,5.824 12.627,5.144 11.996,4.801 C11.079,4.304 9.851,4 8.5,4 C7.148,4 5.92,4.304 5.003,4.801 C4.372,5.144 4,5.824 4,6.541 L4,12.459 C4,13.177 4.372,13.857 5.003,14.2 C5.92,14.697 7.148,15 8.5,15 C9.851,15 11.079,14.697 11.996,14.2 C12.627,13.857 13,13.177 13,12.459 L13,6.541 Z"/>
</svg>
