<svg xmlns="http://www.w3.org/2000/svg" width="24" height="24" viewBox="0 0 24 24">
  <path d="M17,12 L15,12 C13.8954305,12 13,11.1045695 13,10 L13,7 C13,5.8954305 13.8954305,5 15,5 L17,5 C18.1045695,5 19,5.8954305 19,7 L19,10 C19,11.1045695 18.1045695,12 17,12 Z M15,7 L15,10 L17,10 L17,7 L15,7 Z M17,19 L15,19 C13.8954305,19 13,18.1045695 13,17 L13,15 C13,13.8954305 13.8954305,13 15,13 L17,13 C18.1045695,13 19,13.8954305 19,15 L19,17 C19,18.1045695 18.1045695,19 17,19 Z M15,15 L15,17 L17,17 L17,15 L15,15 Z M10,19 L7,19 C5.8954305,19 5,18.1045695 5,17 L5,10 C5,8.8954305 5.8954305,8 7,8 L10,8 C11.1045695,8 12,8.8954305 12,10 L12,17 C12,18.1045695 11.1045695,19 10,19 Z M7,10 L7,17 L10,17 L10,10 L7,10 Z M5,5 L12,5 L12,7 L5,7 L5,5 Z"/>
</svg>
