<svg xmlns="http://www.w3.org/2000/svg" width="24" height="24" viewBox="0 0 24 24">
  <path d="M16,16 C16,17.104 15.104,18 14,18 L9,18 C7.896,18 7,17.104 7,16 L7,7 L16,7 L16,16 Z M10,5.5 C10,5.229 10.24,5 10.525,5 L12.392,5 C12.693,5 13,5.252 13,5.5 L13,6 L10,6 L10,5.5 Z M14,6 L14,5.5 C14,4.701 13.248,4 12.392,4 L10.525,4 C9.684,4 9,4.673 9,5.5 L9,6 L5,6 L5,7 L6,7 L6,16 C6,17.657 7.343,19 9,19 L14,19 C15.657,19 17,17.657 17,16 L17,7 L18,7 L18,6 L14,6 Z M13,15 L14,15 L14,9 L13,9 L13,15 Z M11,15 L12,15 L12,9 L11,9 L11,15 Z M9,15 L10,15 L10,9 L9,9 L9,15 Z"/>
</svg>
