<svg xmlns="http://www.w3.org/2000/svg" width="24" height="24" viewBox="0 0 24 24">
  <path d="M14,5 L14,7 L17.0309083,6.99991252 L17.0309083,6.99991252 L17.1143024,7.00488468 L17.1143024,7.00488468 L17.236186,7.02276833 C17.531856,7.08117452 18,7.28578947 18,7.996 C18,8.70621053 17.531856,8.91082548 17.236186,8.96923167 L17.1143024,8.98711532 L17.1143024,8.98711532 L17,8.992 L17,17 C17,18.5978214 15.7512156,19.9036709 14.1762873,19.9949078 L14,20 L9,20 C7.40892857,20 6.09681122,18.7447066 6.00511798,17.1755899 L6,17 L6,8.992 L5.87379973,8.98203567 C5.60493827,8.94577778 5,8.77777778 5,8 C5,7.22222222 5.60493827,7.04938272 5.87379973,7.01097394 L6,7 L6,7 L9,7 L9,5 L14,5 Z M14,10 L13,10 L13,17 L14,17 L14,10 Z M10,10 L9,10 L9,17 L10,17 L10,10 Z M13,6 L10,6 L10,7 L13,7 L13,6 Z"/>
</svg>
