<svg xmlns="http://www.w3.org/2000/svg" width="24" height="24" viewBox="0 0 24 24">
  <path d="M13.511,12.441391 L11.778,10.661391 C11.778,10.661391 16.866,3.42239103 18.726,5.28139103 C20.585,7.14139103 13.511,12.441391 13.511,12.441391 L13.511,12.441391 Z M10.522,14.607391 C10.434,14.476391 10.334,14.354391 10.223,14.239391 C10.124,14.138391 10.014,14.044391 9.892,13.956391 L11.258,11.538391 L12.698,13.016391 L10.522,14.607391 Z M9.298,17.694391 C8.193,18.941391 6.644,18.943391 5.5,18.997391 C6.125,18.455391 6.202,17.666391 6.109,16.802391 C6.039,16.176391 5.986,15.681391 6.661,14.987391 C7.156,14.480391 7.717,14.374391 8.102,14.374391 C8.391,14.374391 8.953,14.450391 9.5,14.997391 C10.047,15.544391 10,16.903391 9.298,17.694391 L9.298,17.694391 Z M19.411,4.57739103 C18.164,3.38139103 16.252,4.03239103 13.687,6.63339103 C11.583,8.76739103 9.016,13.521391 9.016,13.521391 C7.968,13.199391 6.762,13.474391 5.975,14.282391 C4.968,15.315391 5.038,16.205391 5.144,16.913391 C5.458,19.038391 3,19.497391 3,19.497391 C3,19.497391 3.547,19.9973971 5.5,19.9973971 C6.517,19.9973971 8.547,20.012391 9.985,18.555391 C10.785,17.744391 11.116,16.599391 10.912,15.624391 C10.912,15.624391 15.375,12.538391 17.433,10.480391 C19.988,7.92639103 20.627,5.91539103 19.411,4.57739103 L19.411,4.57739103 Z"/>
</svg>
