<svg xmlns="http://www.w3.org/2000/svg" width="24" height="24" viewBox="0 0 24 24">
  <path d="M8.285,16.7235848 C8.286,16.7195848 8.288,16.7125848 8.289,16.7075848 C8.285,16.7085848 8.278,16.7115848 8.273,16.7125848 L8.285,16.7235848 Z M9.418,17.5545848 C8.694,18.2775848 7.719,18.6385848 6.823,18.8115848 C7.109,18.1985848 7.093,17.5885848 7.023,16.9725848 C6.956,16.3705848 6.926,16.0965848 7.443,15.5785848 C7.83,15.1925848 8.269,15.1115848 8.57,15.1115848 C8.661,15.1115848 8.752,15.1225848 8.841,15.1365848 C8.572,15.8135848 8.38,16.3695848 8.289,16.7075848 C8.642,16.6135848 9.229,16.4105848 9.947,16.1225848 C9.965,16.2165848 9.994,16.3065848 9.988,16.4075848 C9.966,16.8015848 9.764,17.2085848 9.418,17.5545848 L9.418,17.5545848 Z M19.229,5.7675848 C18.296,4.8685848 16.737,4.0855848 13.275,7.5475848 C11.671,9.1525848 10.181,12.0035848 9.242,14.1705848 C9.024,14.1145848 8.8,14.0755848 8.57,14.0755848 C7.918,14.0755848 7.245,14.3115848 6.711,14.8465848 C4.677,16.8805848 7.825,17.9925848 4,19.9275848 C4,19.9275848 4.473,19.9995848 5.184,19.9995848 C6.519,19.9995848 8.691,19.7455848 10.15,18.2865848 C10.932,17.5045848 11.169,16.5315848 10.927,15.7115848 C13.081,14.7695848 15.869,13.3015848 17.449,11.7215848 C20.911,8.2595848 20.129,6.7015848 19.229,5.7675848 L19.229,5.7675848 Z M19.165,5.7005848 C19.186,5.7225848 19.208,5.7455848 19.229,5.7675848 C19.251,5.7895848 19.274,5.8105848 19.297,5.8325848 L19.165,5.7005848 Z"/>
</svg>
