<svg xmlns="http://www.w3.org/2000/svg" width="24" height="24" viewBox="0 0 24 24">
  <path fill-rule="evenodd" d="M18,13 L5,13 L5,6.5 C5,6.224 5.224,6 5.5,6 L17.5,6 C17.776,6 18,6.224 18,6.5 L18,13 Z M18,15.5 C18,15.776 17.776,16 17.5,16 L5.5,16 C5.224,16 5,15.776 5,15.5 L5,14 L18,14 L18,15.5 Z M17.5,5 L5.5,5 C4.673,5 4,5.673 4,6.5 L4,15.5 C4,16.327 4.673,17 5.5,17 L11,17 L11,19 L9,19 L9,20 L14,20 L14,19 L12,19 L12,17 L17.5,17 C18.327,17 19,16.327 19,15.5 L19,6.5 C19,5.673 18.327,5 17.5,5 L17.5,5 Z"/>
</svg>
