<svg xmlns="http://www.w3.org/2000/svg" xmlns:xlink="http://www.w3.org/1999/xlink" width="24" height="24" viewBox="0 0 24 24">
    <path d="M13.4135707,12.0003772 L16.7066965,8.70752558 C17.0977678,8.31729149 17.0977678,7.68366398 16.7066965,7.29342989 C16.3166408,6.90219004 15.6838162,6.90219004 15.2927449,7.29342989 L11.9996191,10.5862815 L8.70649331,7.29342989 C8.31542193,6.90219004 7.68361309,6.90219004 7.29254171,7.29342989 C6.9024861,7.68366398 6.9024861,8.31729149 7.29254171,8.70752558 L10.5856675,12.0003772 L7.29254171,15.2932287 C6.9024861,15.6844686 6.9024861,16.3170903 7.29254171,16.7073244 C7.48756952,16.9034472 7.74354351,17 7.99951751,17 C8.25549151,17 8.5114655,16.9034472 8.70649331,16.7073244 L11.9996191,13.4144729 L15.2927449,16.7073244 C15.4877727,16.9034472 15.7437467,17 15.9997207,17 C16.2556947,17 16.5116687,16.9034472 16.7066965,16.7073244 C17.0977678,16.3170903 17.0977678,15.6844686 16.7066965,15.2932287 L13.4135707,12.0003772 Z"/>
</svg>
