<svg xmlns="http://www.w3.org/2000/svg" width="24" height="24" viewBox="0 0 24 24">
  <path d="M7.8458278,7 L16.1541722,7 C17.4914503,7 17.9763797,7.13923842 18.4652686,7.40069906 C18.9541574,7.66215969 19.3378403,8.04584256 19.5993009,8.53473144 C19.8607616,9.02362033 20,9.50854969 20,10.8458278 L20,13.1541722 C20,14.4914503 19.8607616,14.9763797 19.5993009,15.4652686 C19.3378403,15.9541574 18.9541574,16.3378403 18.4652686,16.5993009 C17.9763797,16.8607616 17.4914503,17 16.1541722,17 L7.8458278,17 C6.50854969,17 6.02362033,16.8607616 5.53473144,16.5993009 C5.04584256,16.3378403 4.66215969,15.9541574 4.40069906,15.4652686 C4.13923842,14.9763797 4,14.4914503 4,13.1541722 L4,10.8458278 C4,9.50854969 4.13923842,9.02362033 4.40069906,8.53473144 C4.66215969,8.04584256 5.04584256,7.66215969 5.53473144,7.40069906 C6.02362033,7.13923842 6.50854969,7 7.8458278,7 Z M16.9969177,11.0030823 L11.9969177,11.0030823 L14.5116445,14.0030823 L16.9969177,11.0030823 Z"/>
</svg>
