<svg xmlns="http://www.w3.org/2000/svg" width="24" height="24" viewBox="0 0 24 24">
  <path d="M17,14.5 C17,14.776 16.776,15 16.5,15 L10.5,15 C10.224,15 10,14.776 10,14.5 L10,6.5 C10,6.224 10.224,6 10.5,6 L13,6 L13,9.5 C13,9.776 13.224,10 13.5,10 L17,10 L17,14.5 Z M14,17.5 C14,17.776 13.776,18 13.5,18 L7.5,18 C7.224,18 7,17.776 7,17.5 L7,9.5 C7,9.224 7.224,9 7.5,9 L9,9 L9,14.5 C9,15.328 9.672,16 10.5,16 L14,16 L14,17.5 Z M14,6.5 L16.5,9 L14,9 L14,6.5 Z M14,5 L10.5,5 C9.672,5 9,5.672 9,6.5 L9,8 L7.5,8 C6.672,8 6,8.672 6,9.5 L6,17.5 C6,18.328 6.672,19 7.5,19 L13.5,19 C14.328,19 15,18.328 15,17.5 L15,16 L16.5,16 C17.328,16 18,15.328 18,14.5 L18,9 L14,5 Z"/>
</svg>
