<svg xmlns="http://www.w3.org/2000/svg" width="24" height="24" viewBox="0 0 24 24">
  <path fill-rule="evenodd" d="M13.1,13.63 L19,9 L19.0083479,9.99540863 L19.0083479,9.99540863 L19,15 C19,16.66 17.66,18 16,18 L8,18 C6.34,18 5,16.66 5,15 L5.0334356,9.22479529 L5.0334356,9.22479529 L5.04,9 L5.04,9 L10.95,13.63 C11.26,13.88 11.64,14 12.02,14 C12.4,14 12.78,13.88 13.1,13.63 Z M16,6 C17.01,6 17.9,6.5 18.439,7.26 L15.5871203,9.40667891 L15.5871203,9.40667891 L13.4494657,10.993143 L13.4494657,10.993143 L12.7634816,11.4914599 L12.7634816,11.4914599 L12.3690096,11.770587 L12.3690096,11.770587 L12.1774508,11.9006503 L12.1774508,11.9006503 L12.0519104,11.9790713 C12.0219124,11.9959546 12.004186,12.0032558 12,12 L5.561,7.26 C6.1,6.5 6.99,6 8,6 L16,6 Z"/>
</svg>
