<svg xmlns="http://www.w3.org/2000/svg" width="24" height="24" viewBox="0 0 24 24">
  <path fill-rule="evenodd" d="M18,17.5 C18,17.775 17.775,18 17.5,18 L5.5,18 C5.224,18 5,17.776 5,17.5 L5,7.738 L11.196,12.469 C11.286,12.537 11.394,12.571 11.5,12.571 C11.608,12.571 11.717,12.536 11.808,12.466 L18,7.635 L18,17.5 Z M17.187,7 L11.497,11.439 L5.682,7 L17.187,7 Z M17.5,6 L5.5,6 C4.671,6 4,6.672 4,7.5 L4,17.5 C4,18.328 4.671,19 5.5,19 L17.5,19 C18.329,19 19,18.328 19,17.5 L19,7.5 C19,6.672 18.329,6 17.5,6 L17.5,6 Z"/>
</svg>
