<svg xmlns="http://www.w3.org/2000/svg" width="24" height="24" viewBox="0 0 24 24">
  <path d="M10,19 L10,20 L4,20 L4,19 L10,19 Z M15.91,7.24 L19.51,9.43 L14.51,17.57 C14.4117161,17.7231117 14.2783012,17.8496477 14.1216548,17.9395752 L14,18 L11.55,19.04 C11.4583946,19.078852 11.353707,19.0713696 11.2685583,19.0198844 C11.2046968,18.9812704 11.1576481,18.9214253 11.1346767,18.852079 L11.12,18.78 L10.85,16.07 C10.8293029,15.888041 10.85905,15.7048077 10.9347136,15.5399197 L11,15.42 L15.91,7.24 Z M17,5.5 C17.2833693,5.04634406 17.8549876,4.87992468 18.3318189,5.09384084 L18.44,5.15 L20.23,6.25 C20.474705,6.38830555 20.6499034,6.62321283 20.7126912,6.89719578 C20.7665092,7.13203831 20.73348,7.37700096 20.6221503,7.58770709 L20,8.62 L16.44,6.43 L17,5.5 Z"/>
</svg>
