<svg xmlns="http://www.w3.org/2000/svg" width="24" height="24" viewBox="0 0 24 24">
  <path d="M14,8 L14,7 C14,5.8954305 14.8954305,5 16,5 L18,5 C19.1045695,5 20,5.8954305 20,7 L20,8 L14,8 Z M20,15 L17,19 L14,15 L14,9 L20,9 L20,15 Z M18.5,14 L15.5,14 L17,17 L18.5,14 Z M10.1990494,7 L10.1990494,9 L6.87321762,9 C6.34648406,9 6.00952887,9.40068935 6.00016472,10.0073491 C5.99088731,10.6083901 6.30274648,10.9838308 6.87321762,10.9838308 L9.24881174,10.9838308 C12.4826204,10.9838308 12.4826204,15.9768974 9.24881174,15.9768974 L8.29857409,15.9768974 C8.0295866,15.9768974 7.89628988,16.1381851 7.90018438,16.4615388 C7.90415212,16.7909741 8.05376856,16.9702665 8.29857409,16.9702665 C9.15923417,16.9702665 11.060987,16.9801843 14.0067344,17.0000227 L13.9932656,18.9999773 C11.0522739,18.980171 9.15307615,18.9702665 8.29857409,18.9702665 C6.86436893,18.9702665 5.91657514,17.8344805 5.90032942,16.4856252 C5.88387973,15.1198342 6.82846359,13.9768974 8.29857409,13.9768974 L9.24881174,13.9768974 C9.81595371,13.9768974 9.81595371,12.9838308 9.24881174,12.9838308 L6.87321762,12.9838308 C5.10330351,12.9838308 3.97495046,11.6254304 4.00040294,9.97648165 C4.02548473,8.35154802 5.16205382,7 6.87321762,7 L10.1990494,7 Z"/>
</svg>
