<svg xmlns="http://www.w3.org/2000/svg" width="24" height="24" viewBox="0 0 24 24">
  <path fill-rule="evenodd" d="M10,19 L10,20 L4,20 L4,19 L10,19 Z M18.31,5.26 L20.01,6.26 C20.3523806,6.46139451 20.5979228,6.7935986 20.69,7.18 C20.7857626,7.56429076 20.724592,7.97089533 20.52,8.31 L14.61,18 C14.5545404,18.091564 14.4700639,18.1619611 14.37,18.2 L11.28,19.37 C11.2240598,19.3975295 11.1623348,19.4112462 11.1,19.4101468 C11.0090964,19.407019 10.9201127,19.3830618 10.84,19.34 C10.7161585,19.2650171 10.6291824,19.1418011 10.6,19 L10.27,15.72 C10.2574558,15.6117159 10.282143,15.502387 10.34,15.41 L16.24,5.76 C16.6750114,5.05233149 17.5999289,4.82892145 18.31,5.26 Z M16.071,7.93654487 L11.28,15.74 L11.53,18.21 L13.85,17.3 L18.62,9.49 L18.62,9.49 L16.071,7.93654487 Z M17.4117832,6.03675264 C17.2823156,6.06677412 17.1701272,6.14710478 17.1,6.26 L16.592,7.08654487 L19.14,8.64 L19.66,7.79 C19.7288391,7.67602259 19.7503728,7.53964244 19.72,7.41 C19.690091,7.27903442 19.6066686,7.16659558 19.49,7.1 L17.79,6.1 C17.6773439,6.02948933 17.5412509,6.00673115 17.4117832,6.03675264 Z"/>
</svg>
