<svg xmlns="http://www.w3.org/2000/svg" width="24" height="24" viewBox="0 0 24 24">
  <path d="M17,15 L19,15 L19,9 L15,9 L15,15 L16,15 L16,10.5 C16,10.2238576 16.2238576,10 16.5,10 C16.7761424,10 17,10.2238576 17,10.5 L17,15 Z M19,8 L19,6 C19,5.44771525 18.5522847,5 18,5 L16,5 C15.4477153,5 15,5.44771525 15,6 L15,8 L19,8 Z M19,16 L15,16 L17,18.510134 L19,16 Z M16,4 L18,4 C19.1045695,4 20,4.8954305 20,6 L20,16 L17,20 L14,16 L14,6 C14,4.8954305 14.8954305,4 16,4 L16,4 Z M6.5,13 L9,13 C10.1045695,13 11,13.8954305 11,15 C11,16.1045695 10.1045695,17 9,17 L8,17 C7.44771525,17 7,17.4477153 7,18 C7,18.5522847 7.44771525,19 8,19 L14,19 L14,20 L8,20 C6.8954305,20 6,19.1045695 6,18 C6,16.8954305 6.8954305,16 8,16 L9,16 C9.55228475,16 10,15.5522847 10,15 C10,14.4477153 9.55228475,14 9,14 L6.5,14 C5.11928813,14 4,12.8807119 4,11.5 C4,10.1192881 5.11928813,9 6.5,9 L10,9 L10,10 L6.5,10 C5.67157288,10 5,10.6715729 5,11.5 C5,12.3284271 5.67157288,13 6.5,13 Z"/>
</svg>
