<svg xmlns="http://www.w3.org/2000/svg" width="24" height="24" viewBox="0 0 24 24">
  <path fill-rule="evenodd" d="M11,5 L11,7 L8,7 C7.44771525,7 7,7.44771525 7,8 L7,16 C7,16.5522847 7.44771525,17 8,17 L16,17 C16.5522847,17 17,16.5522847 17,16 L17,13 L19,13 L19,16.4361148 C19,17.3276335 18.9071744,17.6509198 18.7328673,17.9768457 C18.5585602,18.3027716 18.3027716,18.5585602 17.9768457,18.7328673 C17.6509198,18.9071744 17.3276335,19 16.4361148,19 L7.5638852,19 C6.67236646,19 6.34908022,18.9071744 6.0231543,18.7328673 C5.69722837,18.5585602 5.4414398,18.3027716 5.2671327,17.9768457 C5.09282561,17.6509198 5,17.3276335 5,16.4361148 L5,7.5638852 C5,6.67236646 5.09282561,6.34908022 5.2671327,6.0231543 C5.4414398,5.69722837 5.69722837,5.4414398 6.0231543,5.2671327 C6.34908022,5.09282561 6.67236646,5 7.5638852,5 L11,5 Z M15.5857864,7 L13,7 L13,5 L19,5 L19,11 L17,11 L17,8.41421356 L12.5,12.9142136 L11.0857864,11.5 L15.5857864,7 Z"/>
</svg>
