<svg xmlns="http://www.w3.org/2000/svg" width="24" height="24" viewBox="0 0 24 24">
  <path fill-rule="evenodd" d="M10,5.0002 L10,6.0002 L6.8,6.0002 C6.392,6.0002 6.05557396,6.30524142 6.00623031,6.69981584 L6,6.8002 L6,17.2002 C6,17.6072769 6.30504142,17.944484 6.69961584,17.9939533 L6.8,18.0002 L17.2,18.0002 C17.608,18.0002 17.944426,17.6943065 17.9937697,17.3003875 L18,17.2002 L18,14.0002 L19,14.0002 L19,17.2002 C19,18.1426 18.27078,18.91894 17.347342,18.994218 L17.2,19.0002 L6.8,19.0002 C5.8576,19.0002 5.08126,18.27098 5.005982,17.347542 L5,17.2002 L5,6.8002 C5,5.85685 5.72922,5.081365 6.652658,5.00617487 L6.8,5.0002 L10,5.0002 Z M19,5 L19,10 L18,10 L18,6.707 L12.354,12.354 L11.646,11.646 L17.293,6 L14,6 L14,5 L19,5 Z"/>
</svg>
