<svg xmlns="http://www.w3.org/2000/svg" width="24" height="24" viewBox="0 0 24 24">
  <path fill-rule="evenodd" d="M8,17 L9,17 L9,13 L10,13 L10,17 L9,17 L9,18 L8,18 L8,17 L7,17 L7,16 L8,16 L8,17 Z M11,15 L11,14 L12,14 L12,13 L14,13 L14,14 L12,14 L12,15 L13,15 L13,16 L14,16 L14,17 L13,17 L13,18 L11,18 L11,17 L13,17 L13,16 L12,16 L12,15 L11,15 Z M14,8 L14,5.41 L16.59,8 L14,8 Z M8,11 L8,6 C8,5.45 8.45,5 9,5 L13,5 L13,9 L17,9 L17,17 L16,17 L16,12 C16,11.45 15.55,11 15,11 L8,11 Z M14,4 L9,4 C7.9,4 7,4.9 7,6 L7,11 L6,11 C5.45,11 5,11.45 5,12 L5,19 C5,19.55 5.45,20 6,20 L15,20 C15.55,20 16,19.55 16,19 L16,18 L18,18 L18,8 L14,4 Z"/>
</svg>
