<svg xmlns="http://www.w3.org/2000/svg" width="24" height="24" viewBox="0 0 24 24">
  <path fill-rule="evenodd" d="M6,17 L6,14 L7,14 L7,13 L9,13 L9,14 L7,14 L7,17 L9,17 L9,18 L7,18 L7,17 L6,17 Z M10,15 L10,14 L11,14 L11,13 L13,13 L13,14 L11,14 L11,15 L12,15 L12,16 L13,16 L13,17 L12,17 L12,18 L10,18 L10,17 L12,17 L12,16 L11,16 L11,15 L10,15 Z M14,15 L14,14 L15,14 L15,13 L17,13 L17,14 L15,14 L15,15 L16,15 L16,16 L17,16 L17,17 L16,17 L16,18 L14,18 L14,17 L16,17 L16,16 L15,16 L15,15 L14,15 Z M13,8 L13,5.41 L15.59,8 L13,8 Z M7,11 L7,6 C7,5.45 7.45,5 8,5 L12,5 L12,9 L16,9 L16,11 L7,11 Z M13,4 L8,4 C6.9,4 6,4.9 6,6 L6,11 L5,11 C4.45,11 4,11.45 4,12 L4,19 C4,19.55 4.45,20 5,20 L18,20 C18.55,20 19,19.55 19,19 L19,12 C19,11.45 18.55,11 18,11 L17,11 L17,8 L13,4 Z"/>
</svg>
