<svg xmlns="http://www.w3.org/2000/svg" width="24" height="24" viewBox="0 0 24 24">
  <path fill-rule="evenodd" d="M20,18 L19,18 L19,14 L18,14 L18,18 L17,18 L17,13 L19,13 L19,14 L20,14 L20,18 Z M16,14 L16,17 L15,17 L15,18 L14,18 L14,17 L13,17 L13,14 L14,14 L14,13 L15,13 L15,14 L14,14 L14,17 L15,17 L15,14 L16,14 Z M12,14 L10,14 L10,15 L11,15 L11,16 L12,16 L12,17 L11,17 L11,18 L9,18 L9,17 L11,17 L11,16 L10,16 L10,15 L9,15 L9,14 L10,14 L10,13 L12,13 L12,14 Z M8,17 L7,17 L7,18 L6,18 L6,17 L5,17 L5,16 L6,16 L6,17 L7,17 L7,13 L8,13 L8,17 Z M6,6 C6,5.45 6.45,5 7,5 L11,5 L11,9 L15,9 L15,11 L6,11 L6,6 Z M12,5.41 L14.59,8 L12,8 L12,5.41 Z M21,11 L16,11 L16,8 L12,4 L7,4 C5.9,4 5,4.9 5,6 L5,11 L4,11 C3.45,11 3,11.45 3,12 L3,19 C3,19.55 3.45,20 4,20 L21,20 C21.55,20 22,19.55 22,19 L22,12 C22,11.4892857 21.6119898,11.0647959 21.116199,11.0067602 L21,11 Z"/>
</svg>
