<svg xmlns="http://www.w3.org/2000/svg" width="24" height="24" viewBox="0 0 24 24">
  <path d="M16,14.9998 L16,16.9998 L18,16.9998 L18,17.9998 L16,17.9998 L16,19.9998 L15,19.9998 L15,17.9998 L13,17.9998 L13,16.9998 L15,16.9998 L15,14.9998 L16,14.9998 Z M12,5 L16,9 L16,14 L15,14 L15,10 L11,10 L11,6 L7,6 C6.48928571,6 6.06479592,6.3880102 6.0067602,6.88380102 L6,7 L6,17 C6,17.5107143 6.3880102,17.9352041 6.88380102,17.9932398 L7,18 L12,18 L12,19 L7,19 C5.95,19 5.0822314,18.1790475 5.00551277,17.1485703 L5,17 L5,7 C5,5.95 5.82004132,5.0822314 6.85130541,5.00551277 L7,5 L12,5 Z M12,6.41 L12,9 L14.59,9 L12,6.41 Z"/>
</svg>
