<svg xmlns="http://www.w3.org/2000/svg" width="24" height="24" viewBox="0 0 24 24">
  <path d="M16.509,15.5 C14.855,15.5 13.509,14.154 13.509,12.5 C13.509,10.846 14.855,9.5 16.509,9.5 C18.162,9.5 19.509,10.846 19.509,12.5 C19.509,14.154 18.162,15.5 16.509,15.5 M16.509,8 C14.758,8 13.241,9.004 12.5,10.468 C11.759,9.004 10.242,8 8.491,8 C6.011,8 4,10.015 4,12.5 C4,14.984 6.011,17 8.491,17 C10.242,17 11.759,15.996 12.5,14.531 C13.241,15.996 14.758,17 16.509,17 C18.989,17 21,14.985 21,12.5 C21,10.015 18.989,8 16.509,8"/>
</svg>
