<svg xmlns="http://www.w3.org/2000/svg" width="24" height="24" viewBox="0 0 24 24">
  <path d="M18,15 L18,17 L20,17 L20,18 L18,18 L18,20 L17,20 L17,18 L15,18 L15,17 L17,17 L17,15 L18,15 Z M8,5 C9.05,5 9.9177686,5.82004132 9.99448723,6.85130541 L10,7 L16,7 C17.05,7 17.9177686,7.82004132 17.9944872,8.85130541 L18,9 L18,13 L17,13 L17,11 L5,11 L5,16 C5,16.5107143 5.3880102,16.9352041 5.88380102,16.9932398 L6,17 L13,17 L13,18 L6,18 C4.95,18 4.0822314,17.1799587 4.00551277,16.1486946 L4,16 L4,7 C4,5.95 4.82004132,5.0822314 5.85130541,5.00551277 L6,5 L8,5 Z M8,6 L6,6 C5.45,6 5,6.45 5,7 L5,7 L5,10 L17,10 L17,9 C17,8.45 16.55,8 16,8 L16,8 L9,8 L9,7 C9,6.45 8.55,6 8,6 L8,6 Z"/>
</svg>
