<svg xmlns="http://www.w3.org/2000/svg" width="18" height="18" viewBox="0 0 18 18">
  <path d="M11.247,14.03 L4.638,14.03 C4.619,13.996 4.623,14.004 4.603,13.969 L6.708,10.483 C6.89,10.183 7.214,10 7.564,10 L14.005,10 C14.416,10 14.651,10.468 14.405,10.799 L12.45,13.426 C12.167,13.805 11.721,14.03 11.247,14.03 L11.247,14.03 Z M4,6 C4,5.45 4.45,5 5,5 L6,5 C6.581,5 7.056,5.475 7.056,6.055 L7.056,7 L12,7 C12.581,7 13.056,7.475 13.056,8.055 L13.056,9 L7.576,9 C6.893,9 6.257,9.348 5.89,9.925 L4,12.889 L4,6 Z M14.002,9 L14,9 L14,8 C14,6.9 13.1,6 12,6 L8,6 C8,4.9 7.1,4 6,4 L4.944,4 C3.87,4 3,4.87 3,5.944 L3,13.03 C3,14.118 3.882,15 4.97,15 L11.59,15 C12.227,15 12.827,14.696 13.203,14.181 L15.228,11.418 C15.964,10.414 15.247,9 14.002,9 L14.002,9 Z"/>
</svg>
