<svg xmlns="http://www.w3.org/2000/svg" width="24" height="24" viewBox="0 0 24 24">
  <path d="M18,15 L18,17 L20,17 L20,18 L18,18 L18,20 L17,20 L17,18 L15,18 L15,17 L17,17 L17,15 L18,15 Z M7.94,5 C8.99,5 9.8577686,5.82004132 9.93448723,6.85130541 L9.94,7 L15.94,7 C16.99,7 17.912438,7.82004132 17.9941266,8.85130541 L18,9 L18,10 L18.49,10 C18.98,10 19.44,10.24 19.72,10.65 C20,11.05 20.08,11.57 19.9,12.03 L19.6688889,12.4907407 L19.42,13 L18.32,13 L18.96,11.68 C19.02,11.52 18.99,11.35 18.9,11.22 C18.828,11.108 18.7176,11.0344 18.58928,11.00944 L18.49,11 L8.63,11 C8.45,11 8.28469388,11.0955102 8.19705539,11.242449 L8.16,11.32 L5.6,16.94 C5.67333333,16.9666667 5.74666667,16.9844444 5.82296296,16.9933333 L5.94,17 L13,17 L13,18 L5.94,18 C4.89,18 4.07690083,17.1799587 4.00515214,16.1486946 L4,16 L4,7 C4,5.95 4.7653719,5.0822314 5.79166604,5.00551277 L5.94,5 L7.94,5 Z M7.94,6 L5.94,6 C5.39,6 5,6.45 5,7 L5,7 L5,15.86 L7.26,10.96 C7.48,10.39 8.01,10 8.63,10 L8.63,10 L17,10 L17,9 C17,8.45 16.49,8 15.94,8 L15.94,8 L9,8 L9,7 C9,6.45 8.49,6 7.94,6 L7.94,6 Z"/>
</svg>
