<svg xmlns="http://www.w3.org/2000/svg" width="24" height="24" viewBox="0 0 24 24">
  <path d="M18.964,12.68 C18.964,12.68 17.552,15.505 16.943,17.058 C16.71,17.655 16.566,18 15.944,18 L5.944,18 C5.824,18 5.714,17.981 5.604,17.941 L8.164,12.321 C8.234,12.13 8.424,12 8.634,12 L16.944,12 L17.944,12 L18.494,12 C18.664,12 18.814,12.08 18.904,12.22 C18.994,12.35 19.024,12.52 18.964,12.68 L18.964,12.68 Z M5,8 C5,7.451 5.394,7 5.944,7 L7.944,7 C8.494,7 9,7.451 9,8 L9,9 L15.944,9 C16.494,9 17,9.451 17,10 L17,11 L8.634,11 C8.014,11 7.483,11.39 7.262,11.96 L5,16.861 L5,8 Z M19.724,11.651 C19.444,11.241 18.984,11 18.494,11 L18,11 L18,10 C18,8.901 17.044,8 15.944,8 L9.944,8 C9.944,6.901 9.044,6 7.944,6 L5.944,6 C4.844,6 4,6.901 4,8 L4,17 C4,18.1 4.844,19 5.944,19 L15.944,19 C16.454,19 16.849,18.859 17.264,18.491 C17.679,18.122 17.748,17.774 17.944,17.279 C18.622,15.564 19.904,13.031 19.904,13.031 C20.084,12.571 20.004,12.05 19.724,11.651 L19.724,11.651 Z"/>
</svg>
