<svg xmlns="http://www.w3.org/2000/svg" width="24" height="24" viewBox="0 0 24 24">
  <path d="M19,14 L5,14 L5,8 C5,7.447 5.448,7 6,7 L18,7 C18.552,7 19,7.447 19,8 L19,14 Z M19,17 C19,17.148 18.964,17.285 18.906,17.412 L16.494,15 L19,15 L19,17 Z M18,18 L16.494,18 L13.494,15 L15.506,15 L18.412,17.906 C18.286,17.964 18.148,18 18,18 L18,18 Z M13.494,18 L10.494,15 L12.506,15 L15.506,18 L13.494,18 Z M10.494,18 L7.494,15 L9.506,15 L12.506,18 L10.494,18 Z M7.494,18 L5,15.506 L5,15 L6.506,15 L9.506,18 L7.494,18 Z M6,18 C5.448,18 5,17.553 5,17 L5,16.494 L6.506,18 L6,18 Z M18,6 L6,6 C4.896,6 4,6.896 4,8 L4,17 C4,18.104 4.896,19 6,19 L18,19 C19.104,19 20,18.104 20,17 L20,8 C20,6.896 19.104,6 18,6 L18,6 Z"/>
</svg>
