<svg xmlns="http://www.w3.org/2000/svg" width="24" height="24" viewBox="0 0 24 24">
  <path fill-rule="evenodd" d="M11,12 L16,12 L16,11 L11,11 L11,12 Z M11,16 L16,16 L16,15 L11,15 L11,16 Z M7.03,11.94 L8.94,11.94 L8.94,10.03 L7.03,10.03 L7.03,11.94 Z M7.03,15.94 L8.94,15.94 L8.94,14.03 L7.03,14.03 L7.03,15.94 Z M9,6 L9,7 L14,7 L14,6 L15,6 C16.5910714,6 17.9031888,7.25529337 17.994882,8.82441008 L18,9 L18,17 C18,18.5910714 16.7447066,19.9031888 15.1755899,19.994882 L15,20 L8,20 C6.40892857,20 5.09681122,18.7447066 5.00511798,17.1755899 L5,17 L5,9 C5,7.40892857 6.25529337,6.09681122 7.82441008,6.00511798 L8,6 L9,6 Z M12,4 C13.05,4 13.9177686,4.82004132 13.9944872,5.85130541 L14,6 L9,6 C9,5.45 9.22,4.95 9.59,4.59 C9.91,4.26111111 10.3406173,4.05074074 10.818642,4.00805213 L11,4 L12,4 Z"/>
</svg>
