<svg xmlns="http://www.w3.org/2000/svg" width="24" height="24" viewBox="0 0 24 24">
  <path fill-rule="evenodd" d="M13.88,15.29 L16.71,18.12 L11.76,20.24 L13.88,15.29 Z M8,5 L8,6 L13,6 L13,5 L14,5 C15.5910714,5 16.9031888,6.25529337 16.994882,7.82441008 L17,8 L17,9.39 C16.9333333,9.43666667 16.8666667,9.49222222 16.802963,9.55074074 L12.34,14 L10,14 L10,15 L11.83,15 L10.11,19 L7,19 C5.40892857,19 4.09681122,17.7447066 4.00511798,16.1755899 L4,16 L4,8 C4,6.40892857 5.25529337,5.09681122 6.82441008,5.00511798 L7,5 L8,5 Z M18.1202,11.05 C18.4802,10.69 19.0532178,10.6623077 19.4459897,10.9669231 L19.5402,11.05 L20.9502,12.46 C21.3102,12.82 21.3378923,13.3930178 21.0332769,13.7857897 L20.9502,13.88 L17.4102,17.41 L14.5902,14.59 L15.0002,14.18 L15.0002,14.17 L18.1202,11.05 Z M7.94,13.03 L6.03,13.03 L6.03,14.94 L7.94,14.94 L7.94,13.03 Z M15,10 L10,10 L10,11 L15,11 L15,10 Z M7.94,9.03 L6.03,9.03 L6.03,10.94 L7.94,10.94 L7.94,9.03 Z M11,3 C12.05,3 12.9177686,3.82004132 12.9944872,4.85130541 L13,5 L8,5 C8,4.45 8.22,3.95 8.59,3.59 C8.91,3.26111111 9.34061728,3.05074074 9.81864198,3.00805213 L10,3 L11,3 Z"/>
</svg>
