<svg xmlns="http://www.w3.org/2000/svg" width="24" height="24" viewBox="0 0 24 24">
  <path d="M6.5638852,6 C5.90203328,6 5.70048072,6.03892159 5.49475316,6.1489459 C5.3430957,6.2300532 5.2300532,6.3430957 5.1489459,6.49475316 C5.03892159,6.70048072 5,6.90203328 5,7.5638852 L5,12.4361148 C5,13.0979667 5.03892159,13.2995193 5.1489459,13.5052468 C5.2300532,13.6569043 5.3430957,13.7699468 5.49475316,13.8510541 C5.70048072,13.9610784 5.90203328,14 6.5638852,14 L17.4361148,14 C18.0979667,14 18.2995193,13.9610784 18.5052468,13.8510541 C18.6569043,13.7699468 18.7699468,13.6569043 18.8510541,13.5052468 C18.9610784,13.2995193 19,13.0979667 19,12.4361148 L19,7.5638852 C19,6.90203328 18.9610784,6.70048072 18.8510541,6.49475316 C18.7699468,6.3430957 18.6569043,6.2300532 18.5052468,6.1489459 C18.2995193,6.03892159 18.0979667,6 17.4361148,6 L6.5638852,6 Z M6.5638852,5 L17.4361148,5 C18.3276335,5 18.6509198,5.09282561 18.9768457,5.2671327 C19.3027716,5.4414398 19.5585602,5.69722837 19.7328673,6.0231543 C19.9071744,6.34908022 20,6.67236646 20,7.5638852 L20,12.4361148 C20,13.3276335 19.9071744,13.6509198 19.7328673,13.9768457 C19.5585602,14.3027716 19.3027716,14.5585602 18.9768457,14.7328673 C18.6509198,14.9071744 18.3276335,15 17.4361148,15 L6.5638852,15 C5.67236646,15 5.34908022,14.9071744 5.0231543,14.7328673 C4.69722837,14.5585602 4.4414398,14.3027716 4.2671327,13.9768457 C4.09282561,13.6509198 4,13.3276335 4,12.4361148 L4,7.5638852 C4,6.67236646 4.09282561,6.34908022 4.2671327,6.0231543 C4.4414398,5.69722837 4.69722837,5.4414398 5.0231543,5.2671327 C5.34908022,5.09282561 5.67236646,5 6.5638852,5 Z M6,19 L6,20 L4,18.5 L6,17 L6,18 L18,18 L18,17 L20,18.5 L18,20 L18,19 L6,19 Z"/>
</svg>
