<svg xmlns="http://www.w3.org/2000/svg" width="24" height="24" viewBox="0 0 24 24">
  <path fill-rule="evenodd" d="M5,17 L5,18 L19,18 L19,17 L20,17 L20,20 L19,20 L19,19 L5,19 L5,20 L4,20 L4,17 L5,17 Z M18.97,4 C19.502,4 19.9381778,4.40071111 19.9939704,4.91757037 L20,5.03 L20,13.97 C20,14.502 19.5992889,14.9381778 19.0824296,14.9939704 L18.97,15 L5.03,15 C4.498,15 4.06182222,14.5992889 4.00602963,14.0824296 L4,13.97 L4,5.03 C4,4.498 4.40071111,4.06182222 4.91757037,4.00602963 L5.03,4 L18.97,4 Z M15,7.5 L15,11.5 L18,9.5 L15,7.5 Z M9,7.5 L6,9.5 L9,11.5 L9,7.5 Z"/>
</svg>
