<svg xmlns="http://www.w3.org/2000/svg" width="24" height="24" viewBox="0 0 24 24">
  <path fill-rule="evenodd" d="M12.505,15.955 C10.636,15.955 8.88,15.228 7.558,13.908 C6.236,12.589 5.509,10.835 5.509,8.97 C5.509,7.273 6.109,5.67 7.212,4.401 L8.649,5.853 C7.878,6.732 7.395,7.872 7.395,9.134 C7.395,11.895 9.633,14.134 12.395,14.134 C13.72,14.134 14.916,13.609 15.811,12.767 L17.107,14.232 C15.831,15.346 14.215,15.955 12.505,15.955 M12.395,5.098 C14.62,5.098 16.431,6.908 16.431,9.134 C16.431,11.359 14.62,13.17 12.395,13.17 C10.169,13.17 8.359,11.359 8.359,9.134 C8.359,6.908 10.169,5.098 12.395,5.098 M18.165,14.62 L18.5,14.286 L16.48,12.004 C17.052,11.19 17.395,10.204 17.395,9.134 C17.395,6.372 15.155,4.134 12.395,4.134 C11.258,4.134 10.222,4.527 9.382,5.166 L7.203,3 L6.845,3.319 C5.333,4.828 4.5,6.835 4.5,8.97 C4.5,11.104 5.333,13.111 6.845,14.62 C8.247,16.02 10.078,16.828 12.042,16.939 L12.042,19 L10.042,19 L10.042,20 L15.042,20 L15.042,19 L13.042,19 L13.042,16.935 C14.978,16.808 16.78,16.003 18.165,14.62"/>
</svg>
