<svg xmlns="http://www.w3.org/2000/svg" width="24" height="24" viewBox="0 0 24 24">
  <path d="M17,5 C18.0538182,5 18.9181157,5.81639669 18.9945109,6.85080841 L19,7 L19,17 C19,18.0538182 18.1836033,18.9181157 17.1491916,18.9945109 L17,19 L7,19 C5.94618182,19 5.0818843,18.1836033 5.00548911,17.1491916 L5,17 L5,7 C5,5.94618182 5.81639669,5.0818843 6.85080841,5.00548911 L7,5 L17,5 Z M17,7 L7,7 L7,17 L17,17 L17,7 Z M9,16 L11,16 C11.553,16 12,15.553 12,15 L12,13 C12,12.447 11.553,12 11,12 L9,12 C8.447,12 8,12.447 8,13 L8,15 C8,15.5135 8.38542347,15.935602 8.88324672,15.9932824 L9,16 Z M11,11 L12,11 C12.553,11 13,10.553 13,10 L13,9 C13,8.447 12.553,8 12,8 L11,8 C10.447,8 10,8.447 10,9 L10,10 C10,10.5135 10.3854235,10.935602 10.8832467,10.9932824 L11,11 Z M13,14 C13,14.553 13.447,15 14,15 L15,15 C15.553,15 16,14.553 16,14 L16,13 C16,12.447 15.553,12 15,12 L14,12 C13.447,12 13,12.447 13,13 L13,14 Z"/>
</svg>
