<svg xmlns="http://www.w3.org/2000/svg" width="24" height="24" viewBox="0 0 24 24">
  <path d="M12,9.5 C12,9.775 11.775,10 11.5,10 L10.5,10 C10.225,10 10,9.775 10,9.5 L10,8.5 C10,8.225 10.225,8 10.5,8 L11.5,8 C11.775,8 12,8.225 12,8.5 L12,9.5 Z M13,8.5 C13,7.673 12.327,7 11.5,7 L10.5,7 C9.673,7 9,7.673 9,8.5 L9,9.5 C9,10.327 9.673,11 10.5,11 L11.5,11 C12.327,11 13,10.327 13,9.5 L13,8.5 Z M16,13.5 C16,13.775 15.775,14 15.5,14 L14.5,14 C14.225,14 14,13.775 14,13.5 L14,12.5 C14,12.225 14.225,12 14.5,12 L15.5,12 C15.775,12 16,12.225 16,12.5 L16,13.5 Z M15.5,11 L14.5,11 C13.673,11 13,11.673 13,12.5 L13,13.5 C13,14.327 13.673,15 14.5,15 L15.5,15 C16.327,15 17,14.327 17,13.5 L17,12.5 C17,11.673 16.327,11 15.5,11 L15.5,11 Z M11,15.5 C11,15.775 10.775,16 10.5,16 L8.5,16 C8.225,16 8,15.775 8,15.5 L8,13.5 C8,13.225 8.225,13 8.5,13 L10.5,13 C10.775,13 11,13.225 11,13.5 L11,15.5 Z M10.5,12 L8.5,12 C7.673,12 7,12.673 7,13.5 L7,15.5 C7,16.327 7.673,17 8.5,17 L10.5,17 C11.327,17 12,16.327 12,15.5 L12,13.5 C12,12.673 11.327,12 10.5,12 L10.5,12 Z M18,17 C18,17.552 17.552,18 17,18 L7,18 C6.448,18 6,17.552 6,17 L6,7 C6,6.448 6.448,6 7,6 L17,6 C17.552,6 18,6.448 18,7 L18,17 Z M17,5 L7,5 C5.896,5 5,5.896 5,7 L5,17 C5,18.104 5.896,19 7,19 L17,19 C18.104,19 19,18.104 19,17 L19,7 C19,5.896 18.104,5 17,5 L17,5 Z"/>
</svg>
