<svg xmlns="http://www.w3.org/2000/svg" width="24" height="24" viewBox="0 0 24 24">
  <path fill-rule="evenodd" d="M19.43,8 L19.43,8.77 L15.27,8.77 L14.9,12 L15.029384,11.8590648 C15.2533377,11.6327112 15.5179735,11.4497122 15.81,11.32 C16.1853834,11.1572311 16.590872,11.0754519 17,11.08 C17.5390523,11.0692539 18.0710384,11.2039776 18.54,11.47 C18.9870975,11.71856 19.3572529,12.0852561 19.61,12.53 C19.874284,12.9960273 20.0089482,13.5243253 20,14.06 C20.015535,14.6294031 19.8773585,15.1924726 19.6,15.69 C19.3357381,16.1644151 18.9444151,16.5557381 18.47,16.82 C17.9682044,17.0967425 17.4029926,17.2380455 16.83,17.23 C16.1896725,17.244559 15.557334,17.0856106 15,16.77 C14.5111597,16.4906051 14.0876134,16.1116241 13.7562772,15.658608 L13.62,15.46 L14.29,14.86 C14.5682634,15.3034591 14.9279228,15.6902625 15.35,16 C15.7765718,16.2811591 16.2793049,16.4242984 16.79,16.41 C17.192187,16.4207732 17.5886533,16.3129622 17.93,16.1 C18.2602783,15.8945946 18.5295889,15.6045678 18.71,15.26 C18.9042733,14.8900834 19.0039061,14.4778099 19,14.06 C19.0095516,13.6706755 18.9200896,13.2853007 18.74,12.94 C18.5548648,12.6231814 18.2892115,12.3609781 17.97,12.18 C17.630668,11.991669 17.248061,11.8951555 16.86,11.9 C16.4348407,11.8927643 16.0159981,12.0035326 15.65,12.22 C15.3509544,12.4086568 15.0880919,12.6483874 14.8731331,12.9277316 L14.75,13.1 L13.88,13.1 L14.46,8 L19.43,8 Z M5,8 L5,12 L10,12 L10,8 L11,8 L11,17 L10,17 L10,13 L5,13 L5,16.98 L4,16.98 L4,8 L5,8 Z"/>
</svg>
