<svg xmlns="http://www.w3.org/2000/svg" width="24" height="24" viewBox="0 0 24 24">
  <path fill-rule="evenodd" d="M16.16,7.58 C16.6797622,7.5661335 17.1939048,7.69035588 17.65,7.94 C18.0683829,8.1757798 18.4142202,8.5216171 18.65,8.94 C18.8845202,9.35817955 19.0052056,9.83057663 19,10.31 C19.0028447,10.6974788 18.9173466,11.0805103 18.75,11.43 C18.5513169,11.8291437 18.2989787,12.1992396 18,12.53 C17.6931362,12.8655492 17.3722838,13.1879391 17.0383123,13.4963201 L16.7,13.8 L14.17,16.18 L18.98,16.18 L18.98,17 L12.98,17 L12.98,16.11 L16.16,13.11 C16.6570043,12.6536925 17.1060097,12.1477238 17.5,11.6 C17.7934294,11.2029874 17.9543755,10.7236478 17.96,10.23 C17.9669461,9.90828762 17.887523,9.59059511 17.73,9.31 C17.5808012,9.03244561 17.3552443,8.80341864 17.08,8.65 C16.775309,8.47801646 16.4297784,8.39163382 16.08,8.4 C15.5803119,8.39659538 15.0916262,8.54669169 14.68,8.83 C14.3042411,9.09535657 13.9801676,9.42619115 13.7229608,9.80605717 L13.6,10 L12.96,9.38 C13.3367873,8.82765039 13.8321786,8.36642408 14.41,8.03 C14.9440661,7.72984886 15.5473914,7.57470809 16.16,7.58 Z M5,8 L5,12 L10,12 L10,8 L11,8 L11,17 L10,17 L10,13 L5,13 L5,16.98 L4,16.98 L4,8 L5,8 Z"/>
</svg>
