<svg xmlns="http://www.w3.org/2000/svg" width="24" height="24" viewBox="0 0 24 24">
  <path d="M19,8.506 L17.494,7 L18,7 C18.552,7 19,7.447 19,8 L19,8.506 Z M19,10 L17.494,10 L14.494,7 L16.506,7 L19,9.494 L19,10 Z M19,17 C19,17.553 18.552,18 18,18 L6,18 C5.448,18 5,17.553 5,17 L5,11 L19,11 L19,17 Z M5,8 C5,7.852 5.036,7.715 5.094,7.588 L7.506,10 L5,10 L5,8 Z M6,7 L7.506,7 L10.506,10 L8.494,10 L5.588,7.094 C5.714,7.036 5.852,7 6,7 L6,7 Z M10.506,7 L13.506,10 L11.494,10 L8.494,7 L10.506,7 Z M13.506,7 L16.506,10 L14.494,10 L11.494,7 L13.506,7 Z M18,6 L6,6 C4.896,6 4,6.896 4,8 L4,17 C4,18.105 4.896,19 6,19 L18,19 C19.104,19 20,18.105 20,17 L20,8 C20,6.896 19.104,6 18,6 L18,6 Z"/>
</svg>
