<svg xmlns="http://www.w3.org/2000/svg" width="24" height="24" viewBox="0 0 24 24">
  <path fill-rule="evenodd" d="M18.65,8 C17.9327687,8.54598865 17.2482545,9.13366905 16.6,9.76 C16.1184957,10.2214974 15.6892449,10.7345862 15.32,11.29 C15.206268,11.4759157 15.106011,11.6697459 15.02,11.87 C15.1557105,11.7243738 15.3065634,11.5936346 15.47,11.48 C15.9297924,11.1964974 16.4598365,11.0475307 17,11.05 C17.4415268,11.0654999 17.8735659,11.1763816 18.26677,11.3740018 L18.46,11.48 C18.9120613,11.7130099 19.2974651,12.0571204 19.58,12.48 C19.8601776,12.9370785 20.0057509,13.463915 20,14 C20.0352867,15.1101322 19.4543369,16.1489165 18.49,16.7 C17.9831814,16.9823853 17.4100102,17.1239517 16.83,17.11 C16.2359581,17.1246581 15.6488692,16.9796126 15.13,16.69 C14.6527748,16.4115041 14.2617334,16.0066205 14,15.52 C13.725153,14.9926458 13.5875867,14.4045496 13.6,13.81 C13.6046641,13.1627138 13.7407481,12.5231186 14,11.93 C14.2906892,11.2314721 14.6851305,10.5808124 15.17,10 C15.7064575,9.38547442 16.2937949,8.81770036 16.9256186,8.30265324 L17.31,8 L18.65,8 Z M5,8 L5,12 L10,12 L10,8 L11,8 L11,17 L10,17 L10,13 L5,13 L5,16.98 L4,16.98 L4,8 L5,8 Z M16.78,11.85 C16.3746367,11.843653 15.9746867,11.9436405 15.62,12.14 C15.2861537,12.3243108 15.0067731,12.593344 14.81,12.92 C14.6138659,13.2638928 14.5137095,13.6541576 14.52,14.05 C14.4986627,14.8505863 14.9220369,15.5972645 15.62,15.99 C15.9720587,16.1939494 16.3732059,16.2976944 16.78,16.29 C17.1866747,16.2966839 17.587556,16.1930077 17.94,15.99 C18.2727745,15.7954256 18.551307,15.5203318 18.75,15.19 C18.9513707,14.8441707 19.0550596,14.4501531 19.05,14.05 C19.0578925,13.6526598 18.9539391,13.2611017 18.75,12.92 C18.5532269,12.593344 18.2738463,12.3243108 17.94,12.14 C17.5848046,11.9449352 17.185203,11.8450348 16.78,11.85 Z"/>
</svg>
