<svg xmlns="http://www.w3.org/2000/svg" width="24" height="24" viewBox="0 0 24 24">
  <path fill-rule="evenodd" d="M14.07,8.23 C15.058079,7.6981797 16.2376343,7.65750537 17.26,8.12 C17.6633262,8.32265963 18.0077055,8.62571338 18.26,9 C18.5061092,9.38811276 18.6314065,9.84057522 18.62,10.299992 C18.6214595,10.7113389 18.487971,11.1118046 18.24,11.44 C17.9968208,11.7400107 17.6915185,11.9826305 17.3460058,12.1516806 L17.17,12.23 L17.02,12.23 C17.1351937,12.2606457 17.2486856,12.2973637 17.36,12.34 C17.8043383,12.5342857 18.1903613,12.8410361 18.48,13.23 C18.7479301,13.609896 18.8880223,14.0651956 18.88,14.53 C18.8826192,15.0158326 18.7436209,15.4919018 18.48,15.9 C18.2137164,16.3293527 17.8327129,16.6757195 17.38,16.9 C16.873654,17.1497081 16.3144162,17.2732207 15.75,17.26 C15.109896,17.2661643 14.4780685,17.1150751 13.91,16.82 C13.4278431,16.5685832 12.9959218,16.2322182 12.6346525,15.8278012 L12.46,15.62 L13.13,15 C13.4350191,15.4064552 13.8194674,15.746675 14.26,16 C14.7075858,16.277824 15.2232099,16.4266282 15.75,16.43 C16.3183064,16.4569212 16.8757114,16.2675464 17.31,15.9 C17.6904591,15.5599824 17.9024966,15.0701029 17.89,14.56 C17.9045217,14.2040153 17.8027226,13.8529838 17.6,13.56 C17.3922975,13.2826347 17.1119784,13.0680694 16.79,12.94 C16.4988868,12.8180688 16.1900047,12.7457303 15.8761364,12.7254299 L15.64,12.72 L14.75,12.72 L14.75,11.9 L15.64,11.9 C15.9832416,11.899737 16.3230605,11.8317732 16.64,11.7 C16.9236468,11.5727987 17.1711082,11.3768918 17.36,11.13 C17.5336864,10.8772001 17.6245405,10.5766825 17.62,10.27 C17.6362608,9.81497003 17.44496,9.37718556 17.1,9.08 C16.719222,8.76363215 16.2346409,8.59972972 15.74,8.62 C15.2629606,8.61526516 14.7945259,8.74712086 14.39,9 C14.054909,9.23455637 13.7627381,9.52415086 13.5255896,9.85595499 L13.39,10.06 L12.72,9.44 C13.0838719,8.94982245 13.5430659,8.53824863 14.07,8.23 Z M5,8.01 L5,12.01 L10,12.01 L10,8.01 L11,8.01 L11,17 L10,17 L10,13 L5,13 L5,16.98 L4,16.98 L4,8.01 L5,8.01 Z"/>
</svg>
