<svg xmlns="http://www.w3.org/2000/svg" width="24" height="24" viewBox="0 0 24 24">
  <path d="M11.808,17.897 C11.628,18.032 11.372,18.032 11.193,17.896 C9.741,16.801 5,13.004 5,10.112 C5,8.163 6.181,7 8.159,7 C9.405,7 10.537,7.725 11.044,8.849 L11.5,9.69 L11.956,8.849 C12.463,7.725 13.597,7 14.843,7 C16.82,7 18,8.163 18,10.112 C18,13.004 13.26,16.801 11.808,17.897 M14.843,6 C13.51,6 12.275,6.633 11.5,7.667 C10.726,6.633 9.491,6 8.159,6 C5.632,6 4,7.614 4,10.112 C4,13.376 8.61,17.202 10.591,18.694 C10.855,18.894 11.169,19 11.5,19 C11.831,19 12.146,18.894 12.41,18.695 C14.391,17.202 19,13.376 19,10.112 C19,7.614 17.369,6 14.843,6"/>
</svg>
