<svg xmlns="http://www.w3.org/2000/svg" width="24" height="24" viewBox="0 0 24 24">
  <path fill-rule="evenodd" d="M12.9264213,15.0001955 C12.9264213,14.5981955 12.9644213,14.2571955 13.0394213,13.9781955 C13.1154213,13.6981955 13.2234213,13.4551955 13.3624213,13.2481955 C13.5022865,13.0422295 13.6668442,12.8541635 13.8524213,12.6881955 C14.0384213,12.5201955 14.2424213,12.3461955 14.4624213,12.1681955 C14.6494213,12.0111955 14.8364213,11.8521955 15.0224213,11.6901955 C15.2084213,11.5281955 15.3744213,11.3441955 15.5204213,11.1371955 C15.6750362,10.9111915 15.7928325,10.6620979 15.8694213,10.3991955 C15.962773,10.0694885 16.0069159,9.72780166 16.0004213,9.38519545 C16.0004213,8.84919545 15.9014213,8.36919545 15.7034213,7.94519545 C15.5159303,7.53386324 15.2384321,7.16990318 14.8914213,6.88019545 C14.5347392,6.58793616 14.1258405,6.36601103 13.6864213,6.22619545 C13.2036074,6.07189702 12.6992706,5.99560511 12.1924213,6.00019545 C11.5524213,6.00019545 10.9724213,6.09819545 10.4544213,6.29319545 C9.9364213,6.48919545 9.4944213,6.76519545 9.1274213,7.12319545 C8.75657225,7.48649334 8.47014283,7.92689137 8.2884213,8.41319545 C8.09035768,8.94979467 7.99273194,9.5182612 8.0004213,10.0901955 L9.9914213,10.0901955 C9.9914213,9.33019545 10.1634213,8.72419545 10.5074213,8.27219545 C10.8504213,7.81919545 11.3834213,7.59319545 12.1054213,7.59319545 C12.2564213,7.59319545 12.4314213,7.62719545 12.6294213,7.69319545 C12.8274213,7.76119545 13.0134213,7.86719545 13.1884213,8.01319545 C13.3745402,8.17317975 13.5259759,8.36953574 13.6334213,8.59019545 C13.7554213,8.83019545 13.8174213,9.11819545 13.8174213,9.45419545 C13.8174213,9.73319545 13.7794213,9.97419545 13.7034213,10.1741955 C13.6274213,10.3751955 13.5234213,10.5571955 13.3894213,10.7191955 C13.2554213,10.8811955 13.1034213,11.0291955 12.9344213,11.1631955 C12.7664213,11.2971955 12.5884213,11.4431955 12.4024213,11.5991955 C12.1694213,11.7891955 11.9684213,11.9811955 11.7994213,12.1771955 C11.624853,12.3817753 11.4807025,12.6104626 11.3714213,12.8561955 C11.2554213,13.1131955 11.1714213,13.4121955 11.1184213,13.7521955 C11.0664213,14.0931955 11.0394213,14.5091955 11.0394213,15.0011955 L12.9264213,15.0011955 L12.9264213,15.0001955 Z M13.0004213,18.0001955 L13.0004213,16.0001955 L11.0004213,16.0001955 L11.0004213,18.0001955 L13.0004213,18.0001955 Z"/>
</svg>
