<svg xmlns="http://www.w3.org/2000/svg" width="24" height="24" viewBox="0 0 24 24">
  <path fill-rule="evenodd" d="M12,19 C8.141,19 5,15.859 5,12 C5,8.141 8.141,5 12,5 C15.859,5 19,8.141 19,12 C19,15.859 15.859,19 12,19 L12,19 Z M12,4 C7.589,4 4,7.589 4,12 C4,16.411 7.589,20 12,20 C16.411,20 20,16.411 20,12 C20,7.589 16.411,4 12,4 L12,4 Z M11.5,16.5 L12.5,16.5 L12.5,15.5 L11.5,15.5 L11.5,16.5 Z M12.023,7.604 C11.146,7.604 9.5,7.979 9.5,10.5 L10.5,10.5 C10.5,9.062 11.042,8.441 11.986,8.441 C12.225,8.441 12.451,8.488 12.665,8.57 C12.879,8.653 13.623,8.984 13.623,10.248 C13.623,11.774 11.5,11.521 11.5,14.5 L12.5,14.5 C12.5,12.75 13.021,12.625 13.455,12.176 C13.755,11.867 14.529,11.385 14.529,10.031 C14.529,9.283 13.979,7.604 12.023,7.604 L12.023,7.604 Z"/>
</svg>
