<svg xmlns="http://www.w3.org/2000/svg" width="24" height="24" viewBox="0 0 24 24">
  <path d="M13.986,14.214 C14.3,13.722 14.485,13.133 14.485,12.5 C14.485,10.786 13.146,9.391 11.5,9.391 C10.848,9.391 10.25,9.616 9.759,9.986 L7.863,8.091 C8.867,7.467 10.076,7.036 11.5,7.036 C16.068,7.036 18.433,11.49 18.911,12.5 C18.63,13.097 17.689,14.887 16.03,16.258 L13.986,14.214 Z M10.494,10.722 C10.79,10.539 11.132,10.427 11.5,10.427 C12.597,10.427 13.49,11.357 13.49,12.5 C13.49,12.854 13.396,13.182 13.246,13.473 L10.494,10.722 Z M12.815,14.043 C12.464,14.368 12.006,14.572 11.5,14.572 C10.402,14.572 9.509,13.643 9.509,12.5 C9.509,12.003 9.685,11.552 9.967,11.195 L12.815,14.043 Z M4.089,12.499 C4.386,11.867 5.419,9.89 7.269,8.497 L9.251,10.479 C8.799,11.024 8.514,11.725 8.514,12.5 C8.514,14.214 9.853,15.609 11.5,15.609 C12.288,15.609 13,15.283 13.534,14.762 L15.461,16.689 C14.395,17.427 13.084,17.964 11.5,17.964 C6.931,17.964 4.567,13.51 4.089,12.499 Z M20,12.5 L19.918,12.298 C19.813,12.041 17.293,6 11.5,6 C9.743,6 8.292,6.56 7.113,7.341 L5,5.228 L4.5,5.728 L6.534,7.762 C4.228,9.567 3.149,12.133 3.082,12.298 L3,12.5 L3.082,12.702 C3.186,12.959 5.707,19 11.5,19 C13.421,19 14.974,18.331 16.207,17.434 L18.5,19.728 L19,19.228 L16.769,16.996 C18.868,15.213 19.853,12.86 19.918,12.702 L20,12.5 Z"/>
</svg>
