<svg xmlns="http://www.w3.org/2000/svg" width="24" height="24" viewBox="0 0 24 24">
  <path d="M15.252,15.25 L13.92,13.616 C14.297,13.176 14.529,12.61 14.529,11.984 C14.529,10.604 13.434,9.484 12.029,9.484 C11.583,9.484 11.175,9.607 10.815,9.806 L9.665,8.394 C10.351,8.083 11.128,7.886 12,7.886 C15.465,7.886 17.457,10.993 18.047,12.078 C17.678,12.763 16.755,14.246 15.252,15.25 M12,16.266 C8.535,16.266 6.544,13.162 5.953,12.076 C6.328,11.388 7.265,9.894 8.778,8.889 L10.056,10.457 C9.73,10.881 9.529,11.406 9.529,11.984 C9.529,13.365 10.625,14.492 12.029,14.492 C12.43,14.492 12.799,14.393 13.131,14.23 L14.366,15.746 C13.674,16.063 12.886,16.266 12,16.266 M19.839,12.445 L20,12.076 L19.839,11.707 C19.739,11.476 17.33,6.076 12,6.076 C10.644,6.076 9.479,6.427 8.49,6.953 L6.898,5 L6.123,5.631 L7.634,7.485 C5.329,9.102 4.227,11.553 4.16,11.707 L4,12.076 L4.16,12.445 C4.26,12.675 6.669,18.076 12,18.076 C13.369,18.076 14.543,17.716 15.537,17.183 L17.002,18.98 L17.777,18.348 L16.392,16.648 C18.678,15.031 19.773,12.599 19.839,12.445"/>
</svg>
