<svg xmlns="http://www.w3.org/2000/svg" width="18" height="18" viewBox="0 0 18 18">
  <path d="M11.712,11.664 L10.423,10.414 C10.704,10.019 10.873,9.536 10.873,9.002 C10.873,7.655 9.829,6.599 8.496,6.599 C7.937,6.599 7.418,6.786 6.992,7.087 L5.76,5.893 C6.488,5.436 7.364,5.118 8.398,5.118 C11.621,5.118 13.475,8.189 13.907,9 C13.655,9.474 12.918,10.711 11.712,11.664 L11.712,11.664 Z M7.701,7.774 C7.937,7.642 8.207,7.56 8.496,7.56 C9.287,7.56 9.883,8.18 9.883,9.002 C9.883,9.268 9.816,9.508 9.704,9.717 L7.701,7.774 Z M9.246,10.223 C9.032,10.36 8.777,10.441 8.496,10.441 C7.651,10.441 6.938,9.783 6.938,9.002 C6.938,8.72 7.033,8.456 7.191,8.23 L9.246,10.223 Z M8.398,12.885 C5.164,12.885 3.455,9.785 3.075,9 C3.301,8.536 3.997,7.261 5.197,6.296 L6.492,7.552 C6.157,7.959 5.947,8.46 5.947,9.002 C5.947,10.303 7.114,11.402 8.496,11.402 C9.05,11.402 9.548,11.212 9.947,10.903 L11.146,12.064 C10.38,12.545 9.466,12.885 8.398,12.885 L8.398,12.885 Z M14.912,9.195 L15,9 L14.912,8.806 C14.825,8.617 12.744,4.158 8.398,4.158 C7.045,4.158 5.932,4.589 5.035,5.189 L2.778,3 L2.288,3.475 L4.481,5.602 C2.871,6.928 2.121,8.705 2.073,8.823 L2,9 L2.072,9.178 C2.15,9.368 4.037,13.846 8.398,13.846 C9.783,13.846 10.936,13.391 11.87,12.767 L14.173,15 L14.663,14.526 L12.426,12.356 C14.049,11.04 14.858,9.311 14.912,9.195 L14.912,9.195 Z"/>
</svg>
