<svg xmlns="http://www.w3.org/2000/svg" width="24" height="24" viewBox="0 0 24 24">
  <path fill-rule="evenodd" d="M12.4997,7.0004 C16.5177,7.0004 17.9897,9.5424 17.9897,12.0004 C17.9897,13.8468545 17.2826174,14.9422202 16.5538367,15.8011798 L16.3237736,16.0651721 L16.3237736,16.0651721 L16.0841242,16.3282056 L16.0841242,16.3282056 L15.699832,16.7275115 C15.3650664,17.0818056 15.0722489,17.4439066 15.0113113,17.8900204 L14.9997,18.0614 L14.9997,20.3014 L14.8537,20.4494 C14.6446375,20.6423375 14.4478094,20.8174508 14.2631629,20.974641 L13.9100965,21.2650946 C13.2925281,21.7536734 12.8382625,22.0004 12.5447,22.0004 C12.1714647,22.0004 11.5054958,21.5963343 10.553663,20.7978201 L10.1577,20.4574 L9.9997,20.3084 L9.9997,18.1104 C9.9997,17.6882462 9.70848107,17.3399385 9.37913013,17.0137409 L9.00586978,16.6533681 C8.92527988,16.5741456 8.84823846,16.4950923 8.7787,16.4154 L8.55096169,16.1516531 L8.55096169,16.1516531 L8.32520185,15.8783098 C7.61738431,14.9930975 6.9957,13.9004 6.9957,12.0004 C6.9957,9.6544 8.4037,7.0004 12.4997,7.0004 Z M13.8557,20.0004 L11.1597,20.0004 L11.4482972,20.235113 L11.4482972,20.235113 L11.7251444,20.4507704 C11.7698111,20.4847519 11.8136167,20.5176593 11.8563753,20.5493525 L12.0988788,20.7238225 C12.1367069,20.7500991 12.1731167,20.7748815 12.2079222,20.7980296 L12.3960194,20.916187 C12.4513111,20.9482889 12.4987,20.9727333 12.5367,20.9884 C12.6174273,20.9534909 12.7413942,20.8764 12.8928292,20.7694849 L13.1386113,20.5882888 L13.1386113,20.5882888 L13.4137669,20.3716246 L13.4137669,20.3716246 L13.7064671,20.1287606 L13.7064671,20.1287606 L13.8557,20.0004 Z M13.9997,18.0004 L10.9997,18.0004 L10.9997,19.0004 L13.9997,19.0004 L13.9997,18.0004 Z M17.8017,16.0225 L19.6647,17.8855 L18.9587,18.5935 L17.0947,16.7295 L17.8017,16.0225 Z M7.0944,15.8645 L7.8014,16.5715 L5.9384,18.4355 L5.2314,17.7275 L7.0944,15.8645 Z M12.4997,8.0004 C9.1517,8.0004 8.0057,10.0254 8.0057,12.0004 C8.0057,13.7347 8.57756,14.63389 9.288983,15.479458 L9.5307,15.7604 C9.7939,16.062 10.0603,16.37512 10.31198,16.72792 L10.4977,17.0004 L14.3717,17.0004 C14.6208667,16.5245667 14.9401722,16.1251222 15.2700102,15.7494046 L15.7134625,15.2507137 C16.358942,14.5071185 16.9287674,13.6758136 16.9935721,12.2707015 L16.9990987,11.9334384 L16.9990987,11.9334384 L16.9883112,11.6989136 L16.9883112,11.6989136 L16.9714227,11.5179034 L16.9714227,11.5179034 L16.9447137,11.3203133 C16.9393456,11.2861498 16.9334947,11.251408 16.927124,11.216144 L16.8823688,10.9987437 L16.8823688,10.9987437 L16.8233725,10.7715098 L16.8233725,10.7715098 L16.7483667,10.5371407 C16.3303667,9.35195556 15.2457,8.0004 12.4997,8.0004 Z M10.8084,11.4883 C11.0404,11.4011889 11.2961037,11.5131889 11.4195934,11.7196525 L11.4594,11.8013 L12.5004,14.5653 L13.5414,11.8183 C13.6384,11.5593 13.9304,11.4313 14.1914,11.5293 C14.4234,11.6155222 14.5534741,11.7847074 14.5106867,12.0031436 L14.4864,12.0873 L12.9724,16.0003 L12.0274,16.0003 L10.5134,12.0883 C10.4164,11.8293 10.5474,11.5853 10.8084,11.4883 Z M22,11 L22,12 L19,12 L19,11 L22,11 Z M6,10.842 L6,11.842 L3,11.842 L3,10.842 L6,10.842 Z M18.959,5.1582 L19.665,5.8652 L17.802,7.7292 L17.094,7.0222 L18.959,5.1582 Z M5.9388,5.0003 L7.8018,6.8643 L7.0948,7.5713 L5.2318,5.7073 L5.9388,5.0003 Z M13,3 L13,6 L12,6 L12,3 L13,3 Z"/>
</svg>
