<svg xmlns="http://www.w3.org/2000/svg" width="18" height="18" viewBox="0 0 18 18">
  <path fill-rule="evenodd" d="M13.2563856,9.0375 C13.0963856,9.0375 12.9663856,9.1675 12.9663856,9.3275 L12.9663856,14.0275 L10.9853856,14.0275 L10.9853856,10.0275 L6.9853856,10.0275 L6.9853856,14.0275 L5.0353856,14.0275 L5.0353856,9.3375 C5.0353856,9.2575 5.0063856,9.1875 4.9563856,9.1375 C4.9053856,9.0775 4.8253856,9.0075 4.7563856,9.0175 L3.4363856,9.0175 L9.0063856,4.0975 L14.6553856,9.0375 L13.2563856,9.0375 Z M7.9853856,14.0275 L9.9853856,14.0275 L9.9853856,11.0275 L7.9853856,11.0275 L7.9853856,14.0275 Z M15.8863856,9.1075 L9.1953856,3.0675 C9.0863856,2.9775 8.9263856,2.9775 8.8163856,3.0675 L2.0753856,9.1275 C1.9853856,9.1975 1.9853856,9.7575 2.0263856,9.8675 C2.0753856,9.9875 2.1763856,10.0575 2.2963856,10.0575 L4.0663856,10.0575 L4.0663856,14.7075 C4.0663856,14.8675 4.1953856,14.9975 4.3563856,14.9975 L13.6553856,14.9975 C13.8163856,14.9975 13.9453856,14.8675 13.9453856,14.7075 L13.9453856,10.0475 L15.7063856,10.0375 C15.8163856,10.0375 15.9263856,9.5375 15.9663856,9.4275 C16.0063856,9.3075 15.9763856,9.1875 15.8863856,9.1075 L15.8863856,9.1075 Z"/>
</svg>
