<svg xmlns="http://www.w3.org/2000/svg" width="24" height="24" viewBox="0 0 24 24">
  <path fill-rule="evenodd" d="M16.997,17.554 C16.997,17.832 16.851,18 16.57,18 L13.997,18 L13.997,13 L8.997,13 L8.997,18 L6.425,18 C6.144,18 5.997,17.832 5.997,17.554 L5.997,10.996 L11.497,6.414 L16.997,10.996 L16.997,17.554 Z M9.997,18 L12.997,18 L12.997,14 L9.997,14 L9.997,18 Z M11.5,5 L3,12 L4.997,12 L4.997,17.554 C4.997,18.39 5.585,19 6.425,19 L16.57,19 C17.41,19 17.997,18.39 17.997,17.554 L17.997,12 L20,12 L11.5,5 Z"/>
</svg>
