<svg xmlns="http://www.w3.org/2000/svg" width="24" height="24" viewBox="0 0 24 24">
  <path fill-rule="evenodd" d="M15.9614772,17 L13.9614772,17 L13.9614772,13 L9.96147721,13 L9.96147721,17 L7.96147721,17 L7.96147721,10 L11.9614772,7 L15.9614772,10 L15.9614772,17 Z M19.6234772,10.222 L11.9614772,4 L4.37947721,10.219 C3.63747721,10.809 4.05647721,12 5.00647721,12 L5.96147721,12 L5.96147721,17 C5.96147721,18.104 6.85747721,19 7.96147721,19 L15.9614772,19 C17.0654772,19 17.9614772,18.104 17.9614772,17 L17.9614772,12 L18.9924772,12 C19.9354772,12 20.3564772,10.816 19.6234772,10.222 L19.6234772,10.222 Z"/>
</svg>
