<svg xmlns="http://www.w3.org/2000/svg" width="24" height="24" viewBox="0 0 24 24">
  <path fill-rule="evenodd" d="M18.5,7 C19.8807119,7 21,8.11928813 21,9.5 L21,13.5 C21,14.8807119 19.8807119,16 18.5,16 L4.5,16 C3.11928813,16 2,14.8807119 2,13.5 L2,9.5 C2,8.83695878 2.2633921,8.20107399 2.73223305,7.73223305 C3.20107399,7.2633921 3.83695878,7 4.5,7 L18.5,7 Z M18.5,8 L4.5,8 C3.67157288,8 3,8.67157288 3,9.5 L3,13.5 C3,14.3284271 3.67157288,15 4.5,15 L18.5,15 C19.3284271,15 20,14.3284271 20,13.5 L20,9.5 C20,8.67157288 19.3284271,8 18.5,8 Z M8,11 L8,12 L5,12 L5,11 L8,11 Z M13,11 L13,12 L10,12 L10,11 L13,11 Z M18,11 L18,12 L15,12 L15,11 L18,11 Z"/>
</svg>
