<svg xmlns="http://www.w3.org/2000/svg" width="24" height="24" viewBox="0 0 24 24">
  <path fill-rule="evenodd" d="M21,14.078 L15.622,10.27 C15.435,10.138 15.184,10.149 15.009,10.298 L9.72,14.792 L6.69,13.076 C6.531,12.984 6.332,12.99 6.177,13.089 L3,15.106 L3,6.5 C3,6.224 3.224,6 3.5,6 L20.5,6 C20.776,6 21,6.224 21,6.5 L21,14.078 Z M21,17.5 C21,17.776 20.776,18 20.5,18 L3.5,18 C3.224,18 3,17.776 3,17.5 L3,16.29 L6.459,14.094 L9.531,15.834 C9.711,15.937 9.939,15.917 10.102,15.78 L15.361,11.311 L21,15.305 L21,17.5 Z M20.5,5 L3.5,5 C2.672,5 2,5.672 2,6.5 L2,17.5 C2,18.328 2.672,19 3.5,19 L20.5,19 C21.328,19 22,18.328 22,17.5 L22,6.5 C22,5.672 21.328,5 20.5,5 L20.5,5 Z M6,8 C5.447,8 5,8.447 5,9 C5,9.553 5.447,10 6,10 C6.553,10 7,9.553 7,9 C7,8.447 6.553,8 6,8 L6,8 Z"/>
</svg>
