<svg xmlns="http://www.w3.org/2000/svg" width="24" height="24" viewBox="0 0 24 24">
  <path d="M8.99963381,16 C9.2840291,16.3786237 9.62092465,16.7155597 9.99951255,17 L8.5638852,17 C7.60010387,17 7.08663621,16.9008448 6.55155544,16.6146805 C6.05136104,16.3471736 5.6528264,15.948639 5.38531951,15.4484446 C5.09915518,14.9133638 5,14.3998961 5,13.4361148 L5,8.5638852 C5,7.60010387 5.09915518,7.08663621 5.38531951,6.55155544 C5.6528264,6.05136104 6.05136104,5.6528264 6.55155544,5.38531951 C7.08663621,5.09915518 7.60010387,5 8.5638852,5 L13.4361148,5 C14.3998961,5 14.9133638,5.09915518 15.4484446,5.38531951 C15.948639,5.6528264 16.3471736,6.05136104 16.6146805,6.55155544 C16.9008448,7.08663621 17,7.60010387 17,8.5638852 L17,9.99951255 C16.7155597,9.62092465 16.3786237,9.2840291 16,8.99963381 L16,8.5638852 C16,7.67236646 15.9071744,7.34908022 15.7328673,7.0231543 C15.5585602,6.69722837 15.3027716,6.4414398 14.9768457,6.2671327 C14.6509198,6.09282561 14.3276335,6 13.4361148,6 L8.5638852,6 C7.67236646,6 7.34908022,6.09282561 7.0231543,6.2671327 C6.69722837,6.4414398 6.4414398,6.69722837 6.2671327,7.0231543 C6.09282561,7.34908022 6,7.67236646 6,8.5638852 L6,13.4361148 C6,14.3276335 6.09282561,14.6509198 6.2671327,14.9768457 C6.4414398,15.3027716 6.69722837,15.5585602 7.0231543,15.7328673 C7.34908022,15.9071744 7.67236646,16 8.5638852,16 L8.99963381,16 L8.99963381,16 Z M14,16 L17,16 L17,15 L18,15 L18,16 L19,16 L19,17 L14,17 L14,16 Z M13,18 L13,19 L12,19 L12,10 L13,10 L13,11 L14,11 L14,12 L13,12 L13,17 L14,17 L14,18 L13,18 Z M14,12 L15,12 L15,13 L14,13 L14,12 Z M15,13 L16,13 L16,14 L15,14 L15,13 Z M16,14 L17,14 L17,15 L16,15 L16,14 Z"/>
</svg>
