<svg xmlns="http://www.w3.org/2000/svg" width="24" height="24" viewBox="0 0 24 24">
  <path d="M19,11.9995125 C18.0877712,10.7853431 16.635599,10 15,10 C12.2385763,10 10,12.2385763 10,15 C10,16.635599 10.7853431,18.0877712 11.9995125,19 L8.5638852,19 C7.60010387,19 7.08663621,18.9008448 6.55155544,18.6146805 C6.05136104,18.3471736 5.6528264,17.948639 5.38531951,17.4484446 C5.09915518,16.9133638 5,16.3998961 5,15.4361148 L5,8.5638852 C5,7.60010387 5.09915518,7.08663621 5.38531951,6.55155544 C5.6528264,6.05136104 6.05136104,5.6528264 6.55155544,5.38531951 C7.08663621,5.09915518 7.60010387,5 8.5638852,5 L15.4361148,5 C16.3998961,5 16.9133638,5.09915518 17.4484446,5.38531951 C17.948639,5.6528264 18.3471736,6.05136104 18.6146805,6.55155544 C18.9008448,7.08663621 19,7.60010387 19,8.5638852 L19,11.9995125 Z M19,17 L16,17 L16,18 L15,18 L15,19 L14,19 L14,12 L15,12 L15,13 L16,13 L16,14 L17,14 L17,15 L18,15 L18,16 L19,16 L19,17 Z"/>
</svg>
