<svg xmlns="http://www.w3.org/2000/svg" width="24" height="24" viewBox="0 0 24 24">
  <path d="M8.8796283,15.1746043 C9.05933938,15.3842672 9.03505861,15.6999172 8.82539569,15.8796283 C8.61573277,16.0593394 8.30008277,16.0350586 8.1203717,15.8253957 L4.84146111,11.9999909 L8.1203717,8.17460431 C8.30008277,7.96494139 8.61573277,7.94066062 8.82539569,8.1203717 C9.03505861,8.30008277 9.05933938,8.61573277 8.8796283,8.82539569 L6.15853889,11.9999909 L8.8796283,15.1746043 Z M17.8414611,11.9999909 L15.1203717,8.82539569 C14.9406606,8.61573277 14.9649414,8.30008277 15.1746043,8.1203717 C15.3842672,7.94066062 15.6999172,7.96494139 15.8796283,8.17460431 L19.1585389,11.9999909 L15.8796283,15.8253957 C15.6999172,16.0350586 15.3842672,16.0593394 15.1746043,15.8796283 C14.9649414,15.6999172 14.9406606,15.3842672 15.1203717,15.1746043 L17.8414611,11.9999909 Z M13.0404275,8.30304035 C13.1492053,8.04922546 13.4431448,7.93164967 13.6969596,8.04042748 C13.9507745,8.1492053 14.0683503,8.44314476 13.9595725,8.69695965 L10.9595725,15.6969596 C10.8507947,15.9507745 10.5568552,16.0683503 10.3030404,15.9595725 C10.0492255,15.8507947 9.93164967,15.5568552 10.0404275,15.3030404 L13.0404275,8.30304035 Z"/>
</svg>
