<svg xmlns="http://www.w3.org/2000/svg" width="24" height="24" viewBox="0 0 24 24">
  <path d="M6.31707778,12 L8.7592566,14.8492086 C9.11867875,15.2685345 9.07011722,15.8998345 8.65079137,16.2592566 C8.23146553,16.6186788 7.60016555,16.5701172 7.2407434,16.1507914 L4.2407434,12.6507914 C3.9197522,12.2763016 3.9197522,11.7236984 4.2407434,11.3492086 L7.2407434,7.84920863 C7.60016555,7.42988278 8.23146553,7.38132125 8.65079137,7.7407434 C9.07011722,8.10016555 9.11867875,8.73146553 8.7592566,9.15079137 L6.31707778,12 Z M15.2407434,9.15079137 C14.8813212,8.73146553 14.9298828,8.10016555 15.3492086,7.7407434 C15.7685345,7.38132125 16.3998345,7.42988278 16.7592566,7.84920863 L19.7592566,11.3492086 C20.0802478,11.7236984 20.0802478,12.2763016 19.7592566,12.6507914 L16.7592566,16.1507914 C16.3998345,16.5701172 15.7685345,16.6186788 15.3492086,16.2592566 C14.9298828,15.8998345 14.8813212,15.2685345 15.2407434,14.8492086 L17.6829222,12 L15.2407434,9.15079137 Z M12.580855,8.1060807 C12.7984106,7.59845092 13.3862895,7.36329935 13.8939193,7.58085497 C14.4015491,7.79841059 14.6367007,8.38628952 14.419145,8.8939193 L11.419145,15.8939193 C11.2015894,16.4015491 10.6137105,16.6367007 10.1060807,16.419145 C9.59845092,16.2015894 9.36329935,15.6137105 9.58085497,15.1060807 L12.580855,8.1060807 Z"/>
</svg>
