<svg xmlns="http://www.w3.org/2000/svg" width="24" height="24" viewBox="0 0 24 24">
  <path d="M18,14.123 L14.355,9.577 C14.266,9.466 14.135,9.398 13.992,9.391 C13.854,9.374 13.713,9.435 13.612,9.535 L9.349,13.777 L7.633,12.605 C7.45,12.482 7.207,12.49 7.035,12.63 L5,14.282 L5,6.5 C5,6.224 5.225,6 5.5,6 L17.5,6 C17.775,6 18,6.224 18,6.5 L18,14.123 Z M18,17.5 C18,17.776 17.775,18 17.5,18 L5.5,18 C5.225,18 5,17.776 5,17.5 L5,15.57 L7.377,13.642 L9.126,14.837 C9.324,14.973 9.59,14.948 9.761,14.778 L13.923,10.637 L18,15.721 L18,17.5 Z M17.5,5 L5.5,5 C4.673,5 4,5.673 4,6.5 L4,17.5 C4,18.327 4.673,19 5.5,19 L17.5,19 C18.327,19 19,18.327 19,17.5 L19,6.5 C19,5.673 18.327,5 17.5,5 L17.5,5 Z M8,8 C7.447,8 7,8.448 7,9 C7,9.552 7.447,10 8,10 C8.553,10 9,9.552 9,9 C9,8.448 8.553,8 8,8 L8,8 Z"/>
</svg>
