<svg xmlns="http://www.w3.org/2000/svg" width="24" height="24" viewBox="0 0 24 24">
  <path d="M10.372,12.197 L8.621,10.453 L10.596,8.487 L10.597,8.486 L12.348,10.23 L10.372,12.197 Z M20.704,17.128 L11.311,7.775 C11.114,7.578 10.855,7.48 10.597,7.48 C10.338,7.48 10.08,7.578 9.882,7.775 L7.906,9.742 C7.513,10.134 7.513,10.772 7.906,11.165 L17.309,20.527 C17.699,20.915 18.33,20.915 18.72,20.527 L20.704,18.551 C21.099,18.158 21.099,17.52 20.704,17.128 L20.704,17.128 Z M6.048,4.577 C5.653,4.184 5.014,4.185 4.619,4.577 C4.225,4.969 4.225,5.607 4.618,6 L5.342,6.72 C5.539,6.917 5.798,7.015 6.057,7.015 C6.315,7.015 6.573,6.917 6.77,6.721 C7.166,6.328 7.166,5.691 6.771,5.298 L6.048,4.577 Z M10.019,5.018 C10.577,5.018 11.019,4.567 11.019,4.012 L11.019,3.006 C11.019,2.45 10.577,2 10.019,2 C9.462,2 9.019,2.45 9.019,3.006 L9.019,4.012 C9.019,4.567 9.462,5.018 10.019,5.018 L10.019,5.018 Z M14.611,7.015 C14.87,7.015 15.129,6.917 15.326,6.72 L16.05,6 C16.444,5.607 16.444,4.97 16.05,4.577 C15.655,4.184 15.016,4.184 14.621,4.577 L13.897,5.298 C13.503,5.691 13.503,6.327 13.897,6.72 C14.095,6.917 14.353,7.015 14.611,7.015 L14.611,7.015 Z M4.021,8.876 L3.011,8.876 C2.453,8.876 2,9.321 2,9.876 C2,10.432 2.453,10.876 3.011,10.876 L4.021,10.876 C4.579,10.876 5.031,10.432 5.031,9.876 C5.031,9.321 4.579,8.876 4.021,8.876 L4.021,8.876 Z"/>
</svg>
