<svg xmlns="http://www.w3.org/2000/svg" width="24" height="24" viewBox="0 0 24 24">
  <path d="M15,7 L15,5 L8,5 C5.791,5 4,6.791 4,9 L4,17 L6,17 L6,9.5 C6,8.125 7.125,7 8.5,7 L15,7 Z M9.078,17 L11,13.996 L12.5,15.994 L15,12.997 L17.078,17 L9.078,17 Z M10,10 C10.553,10 11,10.448 11,11 C11,11.552 10.553,12 10,12 C9.447,12 9,11.552 9,11 C9,10.448 9.447,10 10,10 L10,10 Z M17,8 L9,8 C7.896,8 7,8.896 7,10 L7,17 C7,18.104 7.896,19 9,19 L17,19 C18.104,19 19,18.104 19,17 L19,10 C19,8.896 18.104,8 17,8 L17,8 Z"/>
</svg>
