<svg xmlns="http://www.w3.org/2000/svg" width="24" height="24" viewBox="0 0 24 24">
  <path d="M20.0000381,15.6315838 L17.0320381,11.9305838 C16.9430381,11.8185838 16.8120381,11.7515838 16.6700381,11.7435838 C16.5230381,11.7265838 16.3900381,11.7875838 16.2890381,11.8885838 L12.2050381,15.9525838 L10.5680381,14.8365838 C10.3870381,14.7125838 10.1440381,14.7215838 9.97203809,14.8615838 L8.00003809,16.4605838 L8.00003809,9.50058378 C8.00003809,9.22358378 8.22403809,9.00058378 8.50003809,9.00058378 L19.5000381,9.00058378 C19.7760381,9.00058378 20.0000381,9.22358378 20.0000381,9.50058378 L20.0000381,15.6315838 Z M20.0000381,18.5005838 C20.0000381,18.7765838 19.7760381,19.0005838 19.5000381,19.0005838 L8.00003809,19.0005838 L8.00003809,18.0035838 L8.00003809,17.7495838 L10.3120381,15.8725838 L11.9820381,17.0125838 C12.1810381,17.1475838 12.4460381,17.1235838 12.6170381,16.9535838 L16.6000381,12.9895838 L20.0000381,17.2295838 L20.0000381,18.5005838 Z M7.00003809,9.50058378 L7.00003809,16.8665838 L6.03103809,16.9965838 C5.75003809,17.0305838 5.48003809,16.8525838 5.44203809,16.6045838 L4.00503809,7.06658378 C3.98303809,6.92658378 4.03703809,6.82058378 4.08603809,6.75558378 C4.16803809,6.64658378 4.29403809,6.57458378 4.43903809,6.55558378 L16.0470381,5.01258378 C16.3040381,5.01258378 16.5230381,5.18358378 16.5580381,5.40958378 L16.9480381,8.00058378 L8.50003809,8.00058378 C7.67203809,8.00058378 7.00003809,8.67158378 7.00003809,9.50058378 L7.00003809,9.50058378 Z M19.5000381,8.00058378 L17.9600381,8.00058378 L17.5470381,5.26058378 C17.4290381,4.48558378 16.8320381,3.90258378 16.0000381,4.01358378 L4.30803809,5.56658378 C3.90003809,5.61958378 3.52703809,5.83558378 3.28703809,6.15658378 C3.05503809,6.46358378 2.95903809,6.83958378 3.01603809,7.21558378 L4.45303809,16.7535838 C4.56103809,17.4635838 5.20503809,18.0005838 5.95303809,18.0005838 C6.02203809,18.0005838 6.09303809,17.9955838 6.16303809,17.9855838 L7.00003809,17.8745838 L7.00003809,18.5005838 C7.00003809,19.3285838 7.67203809,20.0005838 8.50003809,20.0005838 L19.5000381,20.0005838 C20.3280381,20.0005838 21.0000381,19.3285838 21.0000381,18.5005838 L21.0000381,9.50058378 C21.0000381,8.67158378 20.3280381,8.00058378 19.5000381,8.00058378 L19.5000381,8.00058378 Z M11.0000381,10.0005838 C10.4700381,10.0005838 10.0000381,10.4695838 10.0000381,11.0005838 C10.0000381,11.5305838 10.4700381,12.0005838 11.0000381,12.0005838 C11.5300381,12.0005838 12.0000381,11.5305838 12.0000381,11.0005838 C12.0000381,10.4695838 11.5300381,10.0005838 11.0000381,10.0005838 L11.0000381,10.0005838 Z"/>
</svg>
