<svg xmlns="http://www.w3.org/2000/svg" width="24" height="24" viewBox="0 0 24 24">
  <path d="M12,4 C16.4183594,4 20,7.58164063 20,12 C20,16.4183594 16.4183594,20 12,20 C7.58164063,20 4,16.4183594 4,12 C4,7.58164063 7.58164063,4 12,4 Z M14.716222,7 C14.675273,7 14.5334478,7.02039614 14.4009409,7.04519914 C13.8151746,7.15564589 10.3622997,7.86706824 10.3033128,7.8897107 C10.2120112,7.92462501 10.12165,8.00741686 10.0788204,8.09548044 L10.0424878,8.17014868 C10.0424878,8.17014868 10.0253901,13.4513707 9.99888874,13.5107423 C9.9587092,13.6013121 9.86937387,13.6869559 9.78704858,13.7142651 C9.74806588,13.7272283 9.5937594,13.7630933 9.44424026,13.7938594 C8.75152807,13.9364549 8.49420812,14.0392102 8.27646926,14.260363 C8.15285308,14.3858471 8.06129506,14.5572211 8.02171394,14.7369779 C7.98392808,14.9088704 7.99666584,15.166061 8.05052351,15.3223976 C8.1630262,15.648639 8.41248122,15.8799032 8.74845049,15.9689174 C9.0656123,16.0528327 9.65924347,15.959411 9.96298363,15.7778393 C10.0897629,15.7018747 10.2530456,15.5425134 10.3380211,15.4114983 C10.371618,15.3596453 10.4222271,15.2551617 10.4504383,15.1793699 C10.5493483,14.91371 10.5524259,10.1824749 10.5650782,10.122844 C10.5864502,10.0218172 10.6533021,9.94775392 10.7453731,9.92269166 C10.8282968,9.90004922 14.1531956,9.21991147 14.2467199,9.2064297 C14.3347729,9.19381214 14.4179531,9.22552886 14.4579616,9.28723387 C14.4849759,9.32880264 14.5519988,12.5927724 14.4613812,12.7014908 C14.3955551,12.7806529 14.2585173,12.8111597 13.9206673,12.8826304 C13.4064548,12.9911759 13.2304343,13.0426831 13.03364,13.1421543 C12.78769,13.2664285 12.6511651,13.4026289 12.5456725,13.6287078 C12.4711266,13.7885876 12.4431719,13.9085408 12.4434284,14.0677293 C12.4438559,14.3524019 12.5388334,14.5749375 12.7529818,14.7926334 C12.9001072,14.9423156 13.0346659,15.0207864 13.2202611,15.0649478 C13.4287672,15.1146402 13.8534734,15.0818864 14.1439629,14.9937364 C14.5550764,14.8689437 14.8453094,14.5664682 14.9642237,14.1391999 C14.987391,14.0557167 14.9991884,13.9698137 14.9992739,13.8831328 C14.9998723,12.944681 15.0027789,7.2550307 14.9904686,7.21190634 C14.9517424,7.07682942 14.8519775,6.9997414 14.716222,7 L14.716222,7 Z"/>
</svg>
