<svg xmlns="http://www.w3.org/2000/svg" width="18" height="18" viewBox="0 0 18 18">
  <path d="M8.5,6 L8.5,7 L6,7 C5.173,7 4.5,7.673 4.5,8.5 C4.5,9.27835294 5.09615225,9.92029066 5.85576308,9.99311948 L6,10 L8.5,10 L8.5,11 L6,11 C4.621,11 3.5,9.879 3.5,8.5 C3.5,7.17616 4.5331136,6.0900928 5.83581363,6.00532557 L6,6 L8.5,6 Z M13,6 C14.379,6 15.5,7.121 15.5,8.5 C15.5,9.82384 14.4668864,10.9099072 13.1641864,10.9946744 L13,11 L10.5,11 L10.5,10 L13,10 C13.827,10 14.5,9.327 14.5,8.5 C14.5,7.72164706 13.9038478,7.07970934 13.1442369,7.00688052 L13,7 L10.5,7 L10.5,6 L13,6 Z M13.5,8 L13.5,9 L5.5,9 L5.5,8 L13.5,8 Z"/>
</svg>
