<svg xmlns="http://www.w3.org/2000/svg" width="24" height="24" viewBox="0 0 24 24">
  <path d="M7,13 L16,13 L16,12 L7,12 L7,13 Z M16,9 L14.5,9 C13.516,9 12.562,9.818 12,11.002 L13,10.999 C13.457,10.393 13.685,10 14.5,10 L16,10 C17.379,10 18,11.121 18,12.5 C18,13.879 17.379,15 16,15 L14.5,15 C13.685,15 13.457,14.608 13,14.002 L12,14 C12.562,15.184 13.547,16 14.5,16 L16,16 C17.934,16 19,14.433 19,12.5 C19,10.567 17.934,9 16,9 L16,9 Z M8.5,15 L7,15 C5.621,15 5,13.879 5,12.5 C5,11.121 5.621,10 7,10 L8.5,10 C9.315,10 9.543,10.393 10,10.999 L11,11.002 C10.438,9.818 9.531,9 8.5,9 L7,9 C5.066,9 4,10.567 4,12.5 C4,14.433 5.066,16 7,16 L8.5,16 C9.547,16 10.438,15.184 11,14 L10,14.002 C9.543,14.608 9.315,15 8.5,15 L8.5,15 Z"/>
</svg>
