<svg xmlns="http://www.w3.org/2000/svg" width="24" height="24" viewBox="0 0 24 24">
  <path d="M6.578,5 C5.75,5 5.078,5.672 5.078,6.5 C5.078,7.329 5.75,8 6.578,8 C7.406,8 8.078,7.329 8.078,6.5 C8.078,5.672 7.406,5 6.578,5 L6.578,5 Z M15.761,9.223 C14.123,9.223 13,10.008 13,11.008 L13,9.008 L10,9.008 C10.039,10.008 10,19.008 10,19.008 L13,19.008 L13,13.368 C13,13.089 13.033,12.809 13.114,12.609 C13.333,12.051 13.847,11.471 14.684,11.471 C15.784,11.471 16,12.33 16,13.588 L16,19.008 L19,19.008 L19,13.229 C19,10.354 17.759,9.223 15.761,9.223 L15.761,9.223 Z M5,19.008 L8,19.008 L8,9.008 L5,9.008 L5,19.008 Z"/>
</svg>
