<svg xmlns="http://www.w3.org/2000/svg" width="24" height="24" viewBox="0 0 24 24">
  <path d="M2,14.0005 L7,14.0005 L7,13.0005 L2,13.0005 L2,14.0005 Z M20.801,9.5995 L15.026,15.3395 L13.687,14.0005 L18.089,9.5995 L17.402,8.9115 L13,13.3135 L11.661,11.9745 L17.402,6.1995 C17.591,6.0095 17.899,6.0085 18.09,6.1985 L20.802,8.9105 C20.992,9.1015 20.991,9.4085 20.801,9.5995 L20.801,9.5995 Z M10.266,16.7665 L11.249,12.8675 L14.208,15.8345 L10.266,16.7665 Z M21.573,8.2245 L18.776,5.4275 C18.207,4.8575 17.284,4.8575 16.715,5.4275 L10.458,11.6845 L9,18.0005 L15.316,16.5425 L21.573,10.2855 C22.142,9.7165 22.142,8.7935 21.573,8.2245 L21.573,8.2245 Z M2,18.0005 L7,18.0005 L7,17.0005 L2,17.0005 L2,18.0005 Z M2,10.0005 L9,10.0005 L9,9.0005 L2,9.0005 L2,10.0005 Z"/>
</svg>
