<svg xmlns="http://www.w3.org/2000/svg" width="24" height="24" viewBox="0 0 24 24">
  <path d="M16.1162,5.29750428 C16.4762,4.9328889 17.0466615,4.90313742 17.4398268,5.2098229 L17.5342,5.29350428 L20.7112,8.47050428 C21.0702769,8.82865813 21.0996024,9.39301316 20.7976033,9.78603637 L20.7152,9.88050428 L14.3742,16.2935043 L7.2212,18.8555043 L9.7832,11.7025043 L16.1162,5.29750428 Z M10.1912,13.5235043 L8.8742,17.2025043 L12.5532,15.8855043 L10.1912,13.5235043 Z M6.5302,14.8558043 L5.8202,16.8558043 L4.0002,16.8558043 L4.0002,14.8558043 L6.5302,14.8558043 Z M4.0006,10.8557043 L7.9606,10.8557043 L7.2506,12.8557043 L4.0006,12.8557043 L4.0006,10.8557043 Z M11.76,6.85580428 L9.781,8.85580428 L4,8.85580428 L4,6.85580428 L11.76,6.85580428 Z"/>
</svg>
