<svg xmlns="http://www.w3.org/2000/svg" width="18" height="18" viewBox="0 0 18 18">
  <path d="M6,5.99996868 C6,4.53396868 7.262,3.36296868 8.758,3.51296868 C10.0024348,3.63827303 10.9174934,4.73340724 10.9947113,5.97310101 L11,6.14296868 L11,6.99996868 L12,6.99996868 C12.5125714,6.99996868 12.9354694,7.38539215 12.9932682,7.8832154 L13,7.99996868 L13,11.4999687 C13,12.8257287 11.9687296,13.9100295 10.6644076,13.9946523 L10.5,13.9999687 L6.5,13.9999687 C5.17424,13.9999687 4.0899392,12.9686983 4.00531635,11.6643762 L4,11.4999687 L4,7.99996868 C4,7.48646868 4.38628571,7.06436664 4.88343149,7.00668625 L5,6.99996868 L10,6.99996868 L10,5.99996868 C10,5.17296868 9.327,4.49996868 8.5,4.49996868 C7.72164706,4.49996868 7.07970934,5.09612093 7.00688052,5.85573176 L7,5.99996868 L6,5.99996868 Z M11.5,7.99996868 L5.5,7.99996868 C5.25466667,7.99996868 5.05041975,8.17695633 5.00806036,8.41013055 L5,8.49996868 L5,11.4999687 C5,12.2792628 5.59438062,12.9203701 6.35545044,12.9930979 L6.5,12.9999687 L10.5,12.9999687 C11.2802353,12.9999687 11.9205121,12.4047022 11.993139,11.6443619 L12,11.4999687 L12,8.49996868 C12,8.25463535 11.8230123,8.05038843 11.5898381,8.00802904 L11.5,7.99996868 Z M9,8.99996868 L9,9.99996868 L10,9.99996868 L10,10.9999687 L9,10.9999687 L9,11.9999687 L8,11.9999687 L8,10.9999687 L7,10.9999687 L7,9.99996868 L8,9.99996868 L8,8.99996868 L9,8.99996868 Z"/>
</svg>
