<svg xmlns="http://www.w3.org/2000/svg" width="24" height="24" viewBox="0 0 24 24">
  <path d="M13,9.625 L10,9.625 L10,8.604 C10,7.689 10.645,7 11.5,7 C12.355,7 13,7.689 13,8.604 L13,9.625 Z M12,15.033 L12,16.125 C12,16.401 11.776,16.625 11.5,16.625 C11.224,16.625 11,16.401 11,16.125 L11,15.033 C10.419,14.826 10,14.277 10,13.625 C10,12.797 10.672,12.125 11.5,12.125 C12.328,12.125 13,12.797 13,13.625 C13,14.277 12.581,14.826 12,15.033 L12,15.033 Z M15,9.625 L15,8.604 C15,6.583 13.463,5 11.5,5 C9.537,5 8,6.583 8,8.604 L8,9.625 C6.896,9.625 6,10.521 6,11.625 L6,16.625 C6,17.729 6.896,18.625 8,18.625 L15,18.625 C16.104,18.625 17,17.729 17,16.625 L17,11.625 C17,10.521 16.104,9.625 15,9.625 L15,9.625 Z"/>
</svg>
