<svg xmlns="http://www.w3.org/2000/svg" width="24" height="24" viewBox="0 0 24 24">
  <path d="M12.5,5.5 C14.3685667,5.5 15.8951267,6.96427444 15.9948211,8.80796448 L16,9 L16,10 C17.0538182,10 17.9181157,10.8163967 17.9945109,11.8508084 L18,12 L18,17 C18,18.5978214 16.7512156,19.9036709 15.1762873,19.9949078 L15,20 L10,20 C8.40217857,20 7.09632908,18.7512156 7.00509216,17.1762873 L7,17 L7,12 C7,10.9461818 7.81639669,10.0818843 8.85080841,10.0054891 L9,10 L15,10 L15,9 C15,7.622 13.878,6.5 12.5,6.5 C11.5338333,6.5 10.4276265,6.93171605 10.0574976,7.83558436 L10,8 L9,8 C9,6.929 10.344,5.5 12.5,5.5 Z M16,11 L9,11 C8.48742857,11 8.06453061,11.3862857 8.00673178,11.8834315 L8,12 L8,17 C8,18.0538182 8.81639669,18.9181157 9.85080841,18.9945109 L10,19 L15,19 C16.0538182,19 16.9181157,18.1836033 16.9945109,17.1491916 L17,17 L17,12 C17,11.4883571 16.612852,11.0646633 16.1163837,11.006746 L16,11 Z M13,13 L13,14 L14,14 L14,15 L13,15 L13,17 L12,17 L12,15 L11,15 L11,14 L12,14 L12,13 L13,13 Z"/>
</svg>
