<svg xmlns="http://www.w3.org/2000/svg" width="24" height="24" viewBox="0 0 24 24">
  <path d="M13,13 L12,13 L12,14 L11,14 L11,15 L12,15 L12,17 L13,17 L13,15 L14,15 L14,14 L13,14 L13,13 Z M17,17 C17,18.104 16.104,19 15,19 L10,19 C8.896,19 8,18.104 8,17 L8,12 C8,11.447 8.448,11 9,11 L16,11 C16.551,11 17,11.448 17,12 L17,17 Z M10,9 C10,7.621 11.122,6.5 12.5,6.5 C13.878,6.5 15,7.621 15,9 L15,10 L10,10 L10,9 Z M16,10 L16,9 C16,7.067 14.433,5.5 12.5,5.5 C10.567,5.5 9,7.067 9,9 L9,10 C7.896,10 7,10.896 7,12 L7,17 C7,18.657 8.343,20 10,20 L15,20 C16.657,20 18,18.657 18,17 L18,12 C18,10.896 17.104,10 16,10 L16,10 Z"/>
</svg>
