<svg xmlns="http://www.w3.org/2000/svg" width="24" height="24" viewBox="0 0 24 24">
  <path fill-rule="evenodd" d="M12.5,5 C16.643,5 20,8.357 20,12.5 C20,16.643 16.643,20 12.5,20 C8.357,20 5,16.643 5,12.5 C5,8.357 8.357,5 12.5,5 Z M12.5,6 C8.916,6 6,8.916 6,12.5 C6,16.084 8.916,19 12.5,19 C16.084,19 19,16.084 19,12.5 C19,8.916 16.084,6 12.5,6 Z M12.9464,8.9998 L12.9464,11.9518 L15.6484,10.9678 L16.0004,11.8558 L13.2274,12.7918 L14.9194,15.1438 L14.1684,15.6958 L12.4534,13.2958 L10.7384,15.6958 L9.9864,15.1438 L11.7014,12.7918 L9.0004,11.8558 L9.3294,10.9678 L12.0304,11.9518 L12.0304,8.9998 L12.9464,8.9998 Z"/>
</svg>
