<svg xmlns="http://www.w3.org/2000/svg" width="24" height="24" viewBox="0 0 24 24">
  <path fill-rule="evenodd" d="M12,18.786 C10.784,17.9 6.5,14.345 6.5,10.807 C6.5,8.271 9.014,5.968 12,5.968 C14.986,5.968 17.417,8.271 17.417,10.807 C17.417,14.339 13.215,17.899 12,18.786 M12,5 C8.416,5 5.5,7.742 5.5,10.807 C5.5,15.397 11.423,19.617 11.675,19.784 L12,20 L12.325,19.784 C12.577,19.617 18.5,15.397 18.5,10.807 C18.5,7.742 15.584,5 12,5 M12,13.223 C10.896,13.223 10,12.325 10,11.223 C10,10.12 10.896,9.223 12,9.223 C13.104,9.223 14,10.12 14,11.223 C14,12.325 13.104,13.223 12,13.223 M12,8.223 C10.346,8.223 9,9.568 9,11.223 C9,12.877 10.346,14.223 12,14.223 C13.654,14.223 15,12.877 15,11.223 C15,9.568 13.654,8.223 12,8.223"/>
</svg>
