<svg xmlns="http://www.w3.org/2000/svg" width="24" height="24" viewBox="0 0 24 24">
  <path d="M8.965,14.035 C9.51728475,14.035 9.965,14.4827153 9.965,15.035 L9.965,18.117 L8.947,18.117 L8.947,15.775 L4.72,20 L4,19.28 L8.225,15.054 L5.892,15.053 L5.892,14.035 L8.965,14.035 Z M18.108,14.0349996 L18.108,15.053 L15.775,15.053 L20,19.28 L19.28,20 L15.054,15.775 L15.053,18.117 L14.035,18.117 L14.035,15.0349996 L14.041,14.918 C14.1003605,14.414128 14.5276437,14.0345596 15.035,14.0349996 L18.108,14.0349996 L18.108,14.0349996 Z M4.72,4 L8.946,8.225 L8.947,5.883 L9.965,5.883 L9.965,8.965 C9.965,9.51728475 9.51728475,9.965 8.965,9.965 L5.892,9.965 L5.892,8.947 L8.225,8.947 L4,4.72 L4.72,4 Z M19.28,4 L20,4.72 L15.775,8.946 L18.108,8.947 L18.108,9.96500038 L15.035,9.96500038 C14.5276437,9.96544041 14.1003605,9.58587198 14.041,9.082 L14.035,8.965 L14.035,5.883 L15.053,5.883 L15.053,8.225 L19.28,4 Z"/>
</svg>
