<svg xmlns="http://www.w3.org/2000/svg" width="24" height="24" viewBox="0 0 24 24">
  <path d="M14.39,4 C15.2022222,4 15.9163272,4.62438272 15.9931653,5.36769547 L16,5.5 L16,6 L20,6 L20,7 L19,7 L19,16 C19,17.6007143 17.7540051,18.9038776 16.1765862,18.9949189 L16,19 L11,19 C9.39928571,19 8.09612245,17.7540051 8.00508109,16.1765862 L8,16 L9,16 C9,17.05 9.82004132,17.9177686 10.8513054,17.9944872 L11,18 L16,18 C17.05,18 17.9177686,17.1799587 17.9944872,16.1486946 L18,16 L18,7 L7,7 L7,6 L11,6 L11,5.5 C11,4.71611111 11.6065432,4.07493827 12.3815706,4.00611626 L12.52,4 L14.39,4 Z M16,9 L16,15 L15,15 L15,9 L16,9 Z M14,9 L14,15 L13,15 L13,9 L14,9 Z M9,13 L9,14 L8,14 L8,13 L9,13 Z M10,10 L10,11 L11,11 L11,12 L10,12 L10,13 L9,13 L9,12 L4,12 L4,11 L9,11 L9,10 L10,10 Z M9,9 L9,10 L8,10 L8,9 L9,9 Z M14.39,5 L12.52,5 C12.2711111,5 12.0538272,5.1817284 12.0086145,5.41174211 L12,5.5 L12,6 L15,6 L15,5.5 C15,5.275 14.7489,5.05 14.47998,5.00725 L14.39,5 Z"/>
</svg>
