<svg xmlns="http://www.w3.org/2000/svg" width="24" height="24" viewBox="0 0 24 24">
  <path d="M18,17.5 C18,17.776 17.776,18 17.5,18 L9.5,18 C9.224,18 9,17.776 9,17.5 C9,17.5 8.998,11.316 8.999,9.497 C8.999,9.222 9.224,9 9.499,9 L17.5,9 C17.776,9 18,9.224 18,9.5 L18,17.5 Z M8,9 L8,9.505 L6,11.505 L6,9.161 L9.161,6 L11.506,6 L9.506,8 L9,8 C8.447,8 8,8.447 8,9 L8,9 Z M8,12.506 L6,14.505 L6,12.494 L8,10.494 L8,12.506 Z M8,15 L6.5,15 C6.498,15 6.497,14.999 6.495,14.999 L8,13.494 L8,15 Z M6,6.5 C6,6.224 6.224,6 6.5,6 L8.172,6 L6,8.172 L6,6.5 Z M14.5,6 C14.502,6 14.503,6.001 14.505,6.001 L12.506,8 L10.494,8 L12.494,6 L14.5,6 Z M15,6.5 L15,8 L13.494,8 L14.999,6.495 C14.999,6.497 15,6.498 15,6.5 L15,6.5 Z M17.5,8 L16,8 L16,6.5 C16,5.672 15.328,5 14.5,5 L6.5,5 C5.672,5 5,5.672 5,6.5 L5,14.5 C5,15.328 5.672,16 6.5,16 L8,16 L8,17.5 C8,18.328 8.672,19 9.5,19 L17.5,19 C18.328,19 19,18.328 19,17.5 L19,9.5 C19,8.672 18.328,8 17.5,8 L17.5,8 Z"/>
</svg>
