<svg xmlns="http://www.w3.org/2000/svg" width="24" height="24" viewBox="0 0 24 24">
  <path d="M18,11.839 L11.838,18 L9.5,18 C9.498,18 9.497,17.999 9.495,17.999 L18,9.495 L18,11.839 Z M18,15.172 L15.172,18 L12.828,18 L18,12.828 L18,15.172 Z M18,17.5 C18,17.776 17.776,18 17.5,18 L16.161,18 L18,16.161 L18,17.5 Z M9,15.161 L15.161,9 L17.5,9 C17.502,9 17.503,9.001 17.505,9.001 L9,17.505 L9,15.161 Z M9,10.839 L9,9.5 C9,9.224 9.224,9 9.5,9 L10.839,9 L9,10.839 Z M11.828,9 L14.172,9 L9,14.172 L9,11.828 L11.828,9 Z M8,9.5 L8,15 L6.5,15 C6.224,15 6,14.777 6,14.5 L6,6.5 C6,6.224 6.224,6 6.5,6 L14.5,6 C14.776,6 15,6.224 15,6.5 L15,8 L9.5,8 C8.672,8 8,8.672 8,9.5 L8,9.5 Z M17.5,8 L16,8 L16,6.5 C16,5.675 15.325,5 14.5,5 L6.5,5 C5.672,5 5,5.672 5,6.5 L5,14.5 C5,15.328 5.672,16 6.5,16 L8,16 L8,17.5 C8,18.328 8.672,19 9.5,19 L17.5,19 C18.328,19 19,18.328 19,17.5 L19,9.5 C19,8.672 18.328,8 17.5,8 L17.5,8 Z"/>
</svg>
