<svg xmlns="http://www.w3.org/2000/svg" width="24" height="24" viewBox="0 0 24 24">
  <path d="M17.0965971,8.00334785 L13.2505971,5.04034785 C13.1315971,4.95134785 12.9595971,5.01734785 12.9315971,5.16234785 L10.8305971,16.0433479 C10.5965971,15.1743479 9.8745971,14.3783479 8.8395971,13.9943479 C7.2775971,13.4163479 5.6165971,13.9953479 5.1315971,15.2873479 C4.6455971,16.5793479 5.5525971,18.0113479 7.0805971,18.6733479 C8.8255971,19.4293479 11.8985971,18.9613479 12.3675971,16.3173479 C12.7315971,14.2643479 13.3655971,11.2043479 13.6195971,10.0093479 C13.6565971,9.83734785 13.8795971,9.79634785 13.9815971,9.94034785 L16.3275971,12.9893479 C16.4285971,13.1343479 16.6555971,13.0873479 16.6905971,12.9153479 L17.4795971,8.99834785 C17.5555971,8.62134785 17.4075971,8.23334785 17.0965971,8.00334785"/>
</svg>
