<svg xmlns="http://www.w3.org/2000/svg" width="24" height="24" viewBox="0 0 24 24">
  <path d="M16.9764337,12.2379091 C16.9744337,12.2349091 16.9734337,12.2329091 16.9714337,12.2309091 L14.0954337,8.63590911 L14.9594337,5.84790911 L15.0544337,5.54390911 L17.9434337,9.11890911 L16.9764337,12.2379091 Z M10.3614337,17.3049091 L10.3614337,17.3049091 L10.3614337,17.3059091 C10.1654337,17.9349091 8.6774337,18.1969091 7.2934337,17.7849091 C6.2914337,17.4869091 5.4384337,16.9099091 5.1204337,16.3129091 C5.0034337,16.0939091 4.9714337,15.8979091 5.0244337,15.7279091 C5.1534337,15.3139091 5.8214337,15.0349091 6.6864337,15.0349091 C7.1334337,15.0349091 7.6204337,15.1089091 8.0914337,15.2499091 C9.0934337,15.5479091 9.9464337,16.1259091 10.2644337,16.7219091 C10.3804337,16.9399091 10.4144337,17.1359091 10.3614337,17.3049091 L10.3614337,17.3049091 Z M18.8884337,8.69790911 L15.2434337,4.18590911 C15.1264337,4.04390911 14.9424337,3.97390911 14.7604337,4.00890911 C14.5794337,4.04490911 14.4314337,4.17590911 14.3764337,4.35190911 L10.8254337,15.8089091 C10.2904337,15.1569091 9.4264337,14.6039091 8.3764337,14.2909091 C7.8134337,14.1239091 7.2294337,14.0349091 6.6864337,14.0349091 C5.3384337,14.0349091 4.3354337,14.5709091 4.0694337,15.4319091 C3.9364337,15.8599091 3.9954337,16.3279091 4.2384337,16.7839091 C4.6894337,17.6299091 5.7254337,18.3619091 7.0084337,18.7439091 C7.5804337,18.9139091 8.1484337,19.0009091 8.6994337,19.0009091 C10.0464337,19.0009091 11.0484337,18.4649091 11.3164337,17.6019091 L13.7384337,9.78990911 L16.0894337,12.7299091 L16.1984337,14.8509091 C16.2094337,15.0929091 16.3944337,15.2919091 16.6344337,15.3219091 C16.6564337,15.3249091 16.6764337,15.3259091 16.6974337,15.3259091 C16.9144337,15.3259091 17.1094337,15.1849091 17.1744337,14.9739091 L18.9774337,9.16090911 C19.0274337,9.00190911 18.9944337,8.82790911 18.8884337,8.69790911 L18.8884337,8.69790911 Z"/>
</svg>
