<svg xmlns="http://www.w3.org/2000/svg" width="24" height="24" viewBox="0 0 24 24">
  <path fill-rule="evenodd" d="M17,15 L17,17 L19,17 L19,18 L17,18 L17,20 L16,20 L16,18 L14,18 L14,17 L16,17 L16,15 L17,15 Z M15,5 C16.0528636,5 16.9180289,5.81730785 16.994505,6.85093266 L17,7 L17,13 L16,13 L16,7 C16,6.48742857 15.6145765,6.06453061 15.1167533,6.00673178 L15,6 L8,6 C7.4865,6 7.06439796,6.38628571 7.00671757,6.88343149 L7,7 L7,17 C7,17.5135 7.38542347,17.935602 7.88324672,17.9932824 L8,18 L13,18 L13,19 L8,19 C6.94713636,19 6.08197107,18.1836033 6.00549502,17.1491916 L6,17 L6,7 C6,5.94713636 6.81730785,5.08197107 7.85093266,5.00549502 L8,5 L15,5 Z M14,11 L14,12 L9,12 L9,11 L14,11 Z M14,8 L14,9 L9,9 L9,8 L14,8 Z"/>
</svg>
