<svg xmlns="http://www.w3.org/2000/svg" width="24" height="24" viewBox="0 0 24 24">
  <path fill-rule="evenodd" d="M15,5 C16.0528636,5 16.9180289,5.81639669 16.994505,6.85080841 L17,7 L17,17 C17,18.0528636 16.1826921,18.9180289 15.1490673,18.994505 L15,19 L8,19 C6.94713636,19 6.08197107,18.1826921 6.00549502,17.1490673 L6,17 L6,7 C6,5.94618182 6.81730785,5.0818843 7.85093266,5.00548911 L8,5 L15,5 Z M15,6 L8,6 C7.4865,6 7.06439796,6.38542347 7.00671757,6.88324672 L7,7 L7,17 C7,17.5125714 7.38542347,17.9354694 7.88324672,17.9932682 L8,18 L15,18 C15.5135,18 15.935602,17.6137143 15.9932824,17.1165685 L16,17 L16,7 C16,6.4865 15.6145765,6.06439796 15.1167533,6.00671757 L15,6 Z M14,11 L14,12 L9,12 L9,11 L14,11 Z M14,8 L14,9 L9,9 L9,8 L14,8 Z"/>
</svg>
