<svg xmlns="http://www.w3.org/2000/svg" width="24" height="24" viewBox="0 0 24 24">
  <path fill-rule="evenodd" d="M18,9 C19.0538182,9 19.9181157,9.81639669 19.9945109,10.8508084 L20,11 L20,19 C20,20.0538182 19.1836033,20.9181157 18.1491916,20.9945109 L18,21 L12,21 C10.9461818,21 10.0818843,20.1836033 10.0054891,19.1491916 L10,19 L10,11 C10,9.94618182 10.8163967,9.0818843 11.8508084,9.00548911 L12,9 L18,9 Z M17,6 L17,8 L9.5,8 C9.25466667,8 9.05041975,8.17698765 9.00806036,8.41016187 L9,8.5 L9,18 L7,18 L7,8 C7,6.94618182 7.81639669,6.0818843 8.85080841,6.00548911 L9,6 L17,6 Z M14,3 L14,5 L6.5,5 C6.25466667,5 6.05041975,5.17698765 6.00806036,5.41016187 L6,5.5 L6,15 L4,15 L4,5 C4,3.94618182 4.81639669,3.0818843 5.85080841,3.00548911 L6,3 L14,3 Z"/>
</svg>
