<svg xmlns="http://www.w3.org/2000/svg" width="24" height="24" viewBox="0 0 24 24">
  <path fill-rule="evenodd" d="M13.8,15.784 L13.8,14.495 C13.8,14.212 13.877,13.948 14,13.714 C14.208,13.317 14.566,13.016 15,12.883 C15.1053333,12.8503333 15.2133333,12.8243333 15.3248889,12.8106296 L15.505,12.8 C16.44,12.8 17.2,13.56 17.2,14.495 L17.2,16.799 L18.503,16.801 C19.439,16.802 20.2,17.564 20.2,18.5 C20.2,19.433 19.44,20.196 18.508,20.2 L9,20.2 C8.339,20.2 7.801,19.662 7.8,19 C7.8,18.572 8.038,18.213 8.376,18 C8.561,17.885 8.767,17.8 9,17.8 L10.8,17.8 L10.8,16 C10.8,15.394 11.251,14.891 11.836,14.811 L13.8,15.784 Z M6,18 C5.448,18 5,17.552 5,17 L5,7 C5,6.449 5.448,6 6,6 L13,6 C13.552,6 14,6.449 14,7 L14,12.509 C13.397,12.964 13,13.68 13,14.495 L12,14 C10.896,14 10,14.895 10,16 L10,17 L9,17 C8.262,17 7.623,17.405 7.278,18 L6,18 Z M13,5 C14.0547727,5 14.9182025,5.81548554 14.9945168,6.85068417 L15,7 L15,12.05 C15.1066667,12.028 15.2155556,12.0131111 15.3266667,12.0056296 L15.495,12 C16.82748,12 17.9102064,13.0294272 17.9946925,14.3309476 L18,14.495 L18,16 L18.505,16 L18.6681677,16.0056573 C19.9705728,16.0928576 21,17.17616 21,18.5 C21,19.82288 19.972416,20.9052224 18.6719278,20.9932321 L18.508,20.999 L18.508,21 L9,21 C7.94618182,21 7.0818843,20.1836033 7.00548911,19.1491916 L7,19 L6,19 C4.94618182,19 4.0818843,18.1845145 4.00548911,17.1493158 L4,17 L4,7 C4,5.94522727 4.81639669,5.08179752 5.85080841,5.00548319 L6,5 L13,5 Z M12.0002,10.9998 L7.0002,10.9998 L7.0002,11.9998 L12.0002,11.9998 L12.0002,10.9998 Z M12.0002,7.9998 L7.0002,7.9998 L7.0002,8.9998 L12.0002,8.9998 L12.0002,7.9998 Z"/>
</svg>
