<svg xmlns="http://www.w3.org/2000/svg" width="24" height="24" viewBox="0 0 24 24">
  <path fill-rule="evenodd" d="M17.0356611,16.7356611 C17.0356611,17.0116611 16.8116611,17.2356611 16.5356611,17.2356611 L10.5356611,17.2356611 C10.2596611,17.2356611 10.0356611,17.0116611 10.0356611,16.7356611 L10.0356611,10.7356611 C10.0356611,10.4596611 10.2596611,10.2356611 10.5356611,10.2356611 L16.5356611,10.2356611 C16.8116611,10.2356611 17.0356611,10.4596611 17.0356611,10.7356611 L17.0356611,16.7356611 Z M9.03566108,10.7356611 L9.03566108,15.3396611 L8.66766108,15.4506611 C8.40366108,15.5296611 8.12466108,15.3796611 8.04566108,15.1146611 L6.32166108,9.36766113 C6.24166108,9.10366113 6.39166108,8.82466113 6.65666108,8.74566113 L12.4036611,7.02066113 C12.6676611,6.94166113 12.9466611,7.09166113 13.0256611,7.35666113 L13.5896611,9.23566113 L10.5356611,9.23566113 C9.70666108,9.23566113 9.03566108,9.90766113 9.03566108,10.7356611 L9.03566108,10.7356611 Z M16.5356611,9.23566113 L14.6336611,9.23566113 L13.9836611,7.06866113 C13.7456611,6.27566113 12.9096611,5.82566113 12.1166611,6.06366113 L6.36866108,7.78766113 C5.57566108,8.02566113 5.12566108,8.86166113 5.36366108,9.65566113 L7.08766108,15.4016611 C7.32566108,16.1956611 8.16166108,16.6456611 8.95466108,16.4076611 L9.03566108,16.3836611 L9.03566108,16.7356611 C9.03566108,17.5636611 9.70666108,18.2356611 10.5356611,18.2356611 L16.5356611,18.2356611 C17.3646611,18.2356611 18.0356611,17.5636611 18.0356611,16.7356611 L18.0356611,10.7356611 C18.0356611,9.90766113 17.3646611,9.23566113 16.5356611,9.23566113 L16.5356611,9.23566113 Z"/>
</svg>
