<svg xmlns="http://www.w3.org/2000/svg" width="24" height="24" viewBox="0 0 24 24">
  <path d="M18,17 C18,17.551 17.551,18 17,18 L7,18 C6.932,18 6.873,17.974 6.809,17.961 L17.961,6.809 C17.974,6.873 18,6.932 18,7 L18,17 Z M6,14.53 L14.53,6 L17,6 C17.103,6 17.197,6.03 17.291,6.059 L6.059,17.291 C6.03,17.197 6,17.103 6,17 L6,14.53 Z M6,10.28 L10.28,6 L13.11,6 L6,13.11 L6,10.28 Z M6,7 C6,6.449 6.449,6 7,6 L8.87,6 L6,8.87 L6,7 Z M7,5 C5.897,5 5,5.897 5,7 L5,17 C5,18.103 5.897,19 7,19 L17,19 C18.103,19 19,18.103 19,17 L19,7 C19,5.897 18.103,5 17,5 L7,5 Z"/>
</svg>
