<svg xmlns="http://www.w3.org/2000/svg" width="24" height="24" viewBox="0 0 24 24">
  <path d="M8.444,14.9998286 C8.58527889,15.0008537 8.72224585,14.9511765 8.83,14.8597989 C8.93515489,14.7735181 8.99725894,14.6455208 8.99995191,14.5095256 C9.00264489,14.3735305 8.94565673,14.2431749 8.844,14.1527989 L6.543,11.9997989 L8.844,9.84679885 C8.94565673,9.75642277 9.00264489,9.62606721 8.99995191,9.49007208 C8.99725894,9.35407695 8.93515489,9.22607965 8.83,9.13979885 C8.60141763,8.94857583 8.26712526,8.95411188 8.045,9.15279885 L5,11.9997989 L8.045,14.8467989 C8.15414821,14.9466111 8.29710276,15.0012912 8.445,14.9998286 L8.444,14.9998286 Z M17.457,11.9647989 L15.152,14.1557989 C15.0514972,14.2473534 14.9959879,14.3782324 15.0000243,14.5141249 C15.0040607,14.6500173 15.0672403,14.7773709 15.173,14.8627989 C15.2803025,14.952576 15.4161003,15.0011511 15.556,14.9998263 C15.7052831,15.0009368 15.8493912,14.945153 15.959,14.8437989 L19,11.9537989 L15.952,9.14979885 C15.7283751,8.95285934 15.3941014,8.94987856 15.167,9.14279885 C15.0626137,9.22996876 15.00162,9.35846738 15.0000812,9.49445536 C14.9985424,9.63044334 15.0566129,9.76028922 15.159,9.84979885 L17.457,11.9647989 Z"/>
</svg>
