<svg xmlns="http://www.w3.org/2000/svg" width="24" height="24" viewBox="0 0 24 24">
  <path d="M9.559,5 C10.5412222,5 11.3807284,5.63330247 11.8079438,6.6724537 L11.879,6.86 L16.079,18.68 L16.089,18.73 L15.049,19.12 L13.25,14.05 L5.839,14.05 L4.04,19.12 L3,18.73 L3.009,18.68 L7.21,6.86 C7.58683333,5.77388889 8.39270679,5.08024691 9.35720319,5.00652778 L9.559,5 Z M9.544,6.123 C9.001,6.131 8.517,6.557 8.29,7.24 L8.29,7.24 L6.189,13.05 L12.899,13.05 L10.799,7.24 C10.571,6.557 10.087,6.131 9.544,6.123 Z M20.0589,17.05 L20.0589,18.05 L17.8589,18.05 L17.4999,17.05 L20.0589,17.05 Z M20.0586,12.05 L20.0586,13.05 L16.0786,13.05 L15.7196,12.05 L20.0586,12.05 Z M20.0587,7.05 L20.0587,8.05 L14.2997,8.05 L13.9487,7.05 L20.0587,7.05 Z"/>
</svg>
