<svg xmlns="http://www.w3.org/2000/svg" width="24" height="24" viewBox="0 0 24 24">
  <path d="M9.953,5 C10.8155,5 11.5725313,5.4921875 11.9686616,6.29528809 L12.043,6.46 L16.953,18.042 L14.833,18.042 L13.103,14 L6.802,14 L5.12,18 L3,18 L7.863,6.45 C8.233,5.56 9.033,5 9.953,5 Z M9.953,7 C9.823,7 9.713,7.09 9.643,7.28 L9.643,7.28 L7.653,12 L12.262,12 L10.283,7.31 C10.193,7.1 10.083,7 9.953,7 Z M19.9531,14 L19.9531,16 L18.1891,16 L17.3391,14 L19.9531,14 Z M19.9527,10 L19.9527,12 L16.4987,12 L15.6587,10 L19.9527,10 Z M19.9524,6 L19.9524,8 L14.8094,8 L13.9694,6 L19.9524,6 Z"/>
</svg>
