<svg xmlns="http://www.w3.org/2000/svg" width="24" height="24" viewBox="0 0 24 24">
  <path d="M10,7 L13,7 L13,6 L10,6 L10,7 Z M17,11 L17,8 C17,6.896 16.104,6 15,6 L14,6 L14,5.492 C14,5.216 13.854,5 13.578,5 L9.578,5 C9.302,5 9,5.216 9,5.492 L9,6 L8,6 C6.9,6 6,6.9 6,8 L6,16 C6,17.1 6.9,18 8,18 L10,18 L10,13 C10,11.896 10.896,11 12,11 L17,11 Z M13,15 L18,15 L18,14 L13,14 L13,15 Z M13,17 L18,17 L18,16 L13,16 L13,17 Z M18,12 L13,12 C11.9,12 11,12.9 11,14 L11,17 C11,18.1 11.9,19 13,19 L18,19 C19.104,19 20,18.104 20,17 L20,14 C20,12.896 19.104,12 18,12 L18,12 Z"/>
</svg>
