<svg xmlns="http://www.w3.org/2000/svg" width="24" height="24" viewBox="0 0 24 24">
  <path d="M12,15 L17,15 L17,14 L12,14 L12,15 Z M19,18.5 C19,18.775 18.775,19 18.5,19 L10.5,19 C10.225,19 10,18.775 10,18.5 L10,12.5 C10,12.225 10.225,12 10.5,12 L18.5,12 C18.775,12 19,12.225 19,12.5 L19,18.5 Z M9.092,19 L6.5,19 C6.225,19 6,18.775 6,18.5 L6,7.5 C6,7.225 6.225,7 6.5,7 L8.092,7 C8.299,7.581 8.849,8 9.5,8 L13.5,8 C14.151,8 14.701,7.581 14.908,7 L16.5,7 C16.775,7 17,7.225 17,7.5 L17,11 L10.5,11 C9.673,11 9,11.673 9,12.5 L9,18.5 C9,18.676 9.036,18.843 9.092,19 L9.092,19 Z M9.5,6 L13.5,6 C13.775,6 14,6.225 14,6.5 C14,6.775 13.775,7 13.5,7 L9.5,7 C9.225,7 9,6.775 9,6.5 C9,6.225 9.225,6 9.5,6 L9.5,6 Z M18.5,11 L18,11 L18,7.5 C18,6.673 17.327,6 16.5,6 L14.908,6 C14.701,5.419 14.151,5 13.5,5 L9.5,5 C8.849,5 8.299,5.419 8.092,6 L6.5,6 C5.673,6 5,6.673 5,7.5 L5,18.5 C5,19.327 5.673,20 6.5,20 L18.5,20 C19.327,20 20,19.327 20,18.5 L20,12.5 C20,11.673 19.327,11 18.5,11 L18.5,11 Z M12,17 L17,17 L17,16 L12,16 L12,17 Z"/>
</svg>
