<svg xmlns="http://www.w3.org/2000/svg" width="24" height="24" viewBox="0 0 24 24">
  <path d="M17.0868594,13.308 C15.5708594,14.412 13.6328594,14.994 11.4808594,14.994 L10.8888594,14.994 C9.7828594,14.994 9.4878594,15.574 9.4138594,15.904 L8.7208594,18.609 C8.6728594,18.815 8.4398594,18.994 8.2208594,18.994 L6.1508594,18.994 C6.0938594,18.994 6.0468594,18.982 6.0268594,18.956 C6.0078594,18.932 6.0038594,18.89 6.0168594,18.835 L8.9058594,6.403 C8.9558594,6.197 9.1978594,6.006 9.4078594,6.003 L13.7228594,6.001 C14.6538594,6.009 15.4248594,6.07 16.0748594,6.185 C16.7148594,6.305 17.2458594,6.498 17.6978594,6.775 C18.1188594,7.036 18.4398594,7.375 18.6558594,7.794 C18.8688594,8.184 18.9938594,8.83 18.9899526,9.528 C18.9938594,11.092 18.3348594,12.399 17.0868594,13.308 M19.5498594,7.329 C19.2538594,6.756 18.8108594,6.285 18.2308594,5.925 C17.6698594,5.581 17.0258594,5.345 16.2588594,5.201 C15.5468594,5.074 14.7198594,5.008 13.7268594,5 L9.4018594,5.002 C8.7178594,5.011 8.0828594,5.512 7.9228594,6.172 L5.0338594,18.608 C4.9498594,18.961 5.0238594,19.314 5.2368594,19.579 C5.4498594,19.844 5.7828594,19.994 6.1508594,19.994 L8.2208594,19.994 C8.9148594,19.994 9.5518594,19.495 9.7018594,18.842 L10.3968594,16.137 C10.4248594,16.005 10.7808594,15.994 10.8888594,15.994 L11.4808594,15.994 C13.8498594,15.994 15.9938594,15.345 17.6848594,14.114 C19.1818594,13.024 20.0038594,11.396 19.9999679,9.53 C20.0028594,9.02 19.9458594,8.055 19.5498594,7.329 M14.3348594,11.332 C13.7378594,11.765 12.9388594,11.994 12.0208594,11.994 L11.5138594,11.994 C11.4848594,11.994 11.4468594,11.988 11.4138594,11.947 C11.3818594,11.907 11.3558594,11.832 11.3758594,11.744 L11.9998594,9.038 C12.0448594,8.834 12.2848594,8.633 12.4858594,8.633 L13.1708594,8.619 C13.8638594,8.619 14.3748594,8.724 14.6918594,8.933 C15.0028594,9.134 15.0638594,9.497 15.0608594,9.78 C15.0698594,10.455 14.8258594,10.977 14.3348594,11.332 M15.2488594,8.097 C14.7588594,7.775 14.0798594,7.618 13.1608594,7.618 L13.1598594,7.618 L12.4858594,7.632 C11.8068594,7.632 11.1598594,8.157 11.0138594,8.821 L10.3908594,11.521 C10.3058594,11.891 10.3938594,12.284 10.6238594,12.57 C10.8408594,12.839 11.1658594,12.994 11.5138594,12.994 L12.0208594,12.994 C13.1538594,12.994 14.1598594,12.699 14.9298594,12.14 C15.6898594,11.591 16.0838594,10.771 16.0698594,9.779 C16.0798594,9.045 15.7868594,8.448 15.2488594,8.097"/>
</svg>
