<svg xmlns="http://www.w3.org/2000/svg" width="24" height="24" viewBox="0 0 24 24">
  <path fill-rule="evenodd" d="M18.7316994,15.7309952 L18.1386994,18.0359952 C18.0216994,18.4919952 17.6016994,18.8189952 17.1316994,18.7899952 C14.9636994,18.6529952 12.9366994,17.9909952 11.1896994,16.9229952 C9.39169936,15.8159952 7.88869936,14.2869952 6.79969936,12.4809952 C5.77369936,10.7559952 5.12769936,8.77699516 5.00169936,6.64699516 C4.97369936,6.18299516 5.29469936,5.76799516 5.74369936,5.64699516 L8.00869936,5.03499516 C8.54369936,4.88999516 9.09369936,5.20899516 9.23669936,5.74399516 L10.1346994,9.13699516 L7.97869936,10.7729952 L12.9786994,15.7729952 L14.5336994,13.5789952 L18.0226994,14.5159952 C18.5526994,14.6579952 18.8686994,15.1999952 18.7316994,15.7309952"/>
</svg>
