<svg xmlns="http://www.w3.org/2000/svg" width="24" height="24" viewBox="0 0 24 24">
  <path d="M13.944,13.2108945 L16.772,10.3828945 L18.186,11.7968945 L19.774,11.0028945 C20.384,10.6978945 20.516,9.88489446 20.034,9.40089446 L17.479,6.84789446 L14.925,4.29289446 C14.442,3.81089446 13.629,3.94189446 13.324,4.55289446 L12.53,6.14089446 L13.944,7.55489446 L11.116,10.3828945 C11.116,10.3828945 8.722,7.98889446 5.587,10.3578945 C5.112,10.7168945 5.087,11.4258945 5.507,11.8458945 L8.279,14.6168945 C5.56,17.6238945 4,20.2368945 4,20.2368945 C4,20.2368945 6.612,18.6758945 9.62,15.9578945 L12.481,18.8188945 C12.901,19.2398945 13.61,19.2148945 13.968,18.7398945 C16.338,15.6048945 13.944,13.2108945 13.944,13.2108945"/>
</svg>
