<svg xmlns="http://www.w3.org/2000/svg" width="18" height="18" viewBox="0 0 18 18">
  <path d="M10.091,9.64175037 L11.823,7.90975037 L12.69,8.77575037 L13.662,8.28875037 C14.036,8.10275037 14.116,7.60475037 13.821,7.30875037 L12.257,5.74475037 L10.693,4.17975037 C10.397,3.88375037 9.899,3.96475037 9.711,4.33875037 L9.225,5.31175037 L10.091,6.17675037 L8.359,7.90975037 C8.359,7.90975037 6.893,6.44375037 4.973,7.89475037 C4.682,8.11475037 4.667,8.54775037 4.924,8.80575037 L6.622,10.5027504 C4.957,12.3447504 4,13.9457504 4,13.9457504 C4,13.9457504 5.601,12.9897504 7.443,11.3247504 L9.195,13.0777504 C9.452,13.3337504 9.887,13.3187504 10.107,13.0287504 C11.557,11.1077504 10.091,9.64175037 10.091,9.64175037"/>
</svg>
