<svg xmlns="http://www.w3.org/2000/svg" width="24" height="24" viewBox="0 0 24 24">
  <path d="M12.747,5 C8.927,5 7,7.739 7,10.023 C7,11.406 7.523,12.637 8.646,13.096 C8.831,13.171 8.996,13.099 9.05,12.895 C9.086,12.753 9.174,12.397 9.214,12.249 C9.267,12.048 9.247,11.977 9.098,11.801 C8.774,11.419 8.567,10.924 8.567,10.224 C8.567,8.191 10.087,6.372 12.526,6.372 C14.685,6.372 15.872,7.692 15.872,9.454 C15.872,11.772 14.846,13.729 13.323,13.729 C12.481,13.729 11.851,13.034 12.054,12.181 C12.295,11.162 12.764,10.062 12.764,9.327 C12.764,8.669 12.41,8.12 11.679,8.12 C10.818,8.12 10.128,9.01 10.128,10.201 C10.128,10.96 10.385,11.473 10.385,11.473 C10.385,11.473 9.505,15.203 9.351,15.856 C9.043,17.156 9.304,18.75 9.326,18.911 C9.339,19.007 9.462,19.029 9.518,18.958 C9.597,18.854 10.621,17.589 10.97,16.326 C11.067,15.969 11.535,14.115 11.535,14.115 C11.814,14.648 12.631,15.118 13.499,15.118 C16.084,15.118 17.838,12.761 17.838,9.606 C17.838,7.222 15.817,5 12.747,5"/>
</svg>
