<svg xmlns="http://www.w3.org/2000/svg" width="24" height="24" viewBox="0 0 24 24">
  <path d="M12.33425,14.291 L6.96325,14.291 L13.52325,7.811 L16.02225,10.478 L12.33425,14.291 Z M8.47125,18.025 L6.39725,17.726 L6.18925,15.291 L11.33425,15.291 L8.47125,18.025 Z M20.26425,3.732 C19.28725,2.756 17.70425,2.756 16.72925,3.732 L15.31325,5.146 L14.60625,4.439 C14.02125,3.853 13.07125,3.853 12.48525,4.439 C11.90025,5.025 11.90025,5.976 12.48525,6.561 L4.51725,14.529 C4.31225,14.734 4.20525,15.02 4.22725,15.309 L4.38425,17.49 L3.29325,18.582 C2.90225,18.973 2.90225,19.605 3.29325,19.996 L4.00025,20.703 C4.39125,21.094 5.02325,21.094 5.41425,20.703 L6.50625,19.612 L8.68825,19.77 C8.97725,19.791 9.26225,19.685 9.46725,19.479 L17.43625,11.511 C18.02125,12.097 18.97125,12.097 19.55725,11.511 C20.14325,10.925 20.14325,9.975 19.55725,9.39 L18.85025,8.683 L20.26425,7.268 C21.24025,6.292 21.24025,4.709 20.26425,3.732 L20.26425,3.732 Z"/>
</svg>
