<svg xmlns="http://www.w3.org/2000/svg" xmlns:xlink="http://www.w3.org/1999/xlink" width="24" height="24" viewBox="0 0 24 24">
  <defs>
    <path id="playcircle-a" d="M10.5,11.234 L12.849,12.5 L10.5,13.843 L10.5,11.234 Z M9.5,15.5 L14.5,12.5 L9.5,9.5 L9.5,15.5 Z M5,12.5 C5,8.916 7.916,6 11.5,6 C15.084,6 18,8.916 18,12.5 C18,16.084 15.084,19 11.5,19 C7.916,19 5,16.084 5,12.5 Z M4,12.5 C4,16.635 7.364,20 11.5,20 C15.636,20 19,16.635 19,12.5 C19,8.364 15.636,5 11.5,5 C7.364,5 4,8.364 4,12.5 Z"/>
  </defs>
  <use xlink:href="#playcircle-a"/>
</svg>
