<svg xmlns="http://www.w3.org/2000/svg" width="24" height="24" viewBox="0 0 24 24">
  <path d="M17,12.58 L15,14.58 L15,12.42 L17,10.42 L17,12.58 Z M17,15.58 L14.579,18 L12.42,18 L14.42,16 L15,15.42 L17,13.42 L17,15.58 Z M17,17 C17,17.55 16.55,18 16,18 L15.42,18 L17,16.42 L17,17 Z M11.42,16 L13.579,16 L11.579,18 L9.42,18 L11.42,16 Z M6.539,17.88 L8.42,16 L10.579,16 L8.579,18 L7,18 C6.829,18 6.68,17.96 6.539,17.88 L6.539,17.88 Z M6,12.5 L8,10.5 L8,12.58 L6,14.58 L6,12.5 Z M6,9.42 L8.42,7 L10.659,7 L8.659,9 L8,9.66 L6,11.66 L6,9.42 Z M6,8 C6,7.45 6.449,7 7,7 L7.579,7 L6,8.58 L6,8 Z M11.579,9 L9.5,9 L11.5,7 L13.579,7 L11.579,9 Z M16.46,7.12 L14.579,9 L12.42,9 L14.42,7 L16,7 C16.17,7 16.319,7.04 16.46,7.12 L16.46,7.12 Z M15,9.42 L16.88,7.54 C16.96,7.68 17,7.83 17,8 L17,9.58 L15,11.58 L15,9.42 Z M6.119,17.46 C6.039,17.32 6,17.17 6,17 L6,15.42 L8,13.42 L8,15.58 L6.119,17.46 Z M14,13.42 L14,15 L12.42,15 L11.579,15 L9.42,15 L9,15 L9,14.58 L9,12.42 L9,11.58 L9,10 L10.579,10 L11.42,10 L13.579,10 L14,10 L14,10.42 L14,12.58 L14,13.42 Z M16,6 L15,6 L14.579,6 L12,6 L11.659,6 L9,6 L8.579,6 L7,6 C5.899,6 5,6.9 5,8 L5,9.58 L5,10 L5,12.66 L5,13 L5,15.58 L5,16 L5,17 C5,18.1 5.899,19 7,19 L8,19 L8.42,19 L11,19 L11.42,19 L14,19 L14.42,19 L16,19 C17.1,19 18,18.1 18,17 L18,15.42 L18,15 L18,12.42 L18,12 L18,9.42 L18,9 L18,8 C18,6.9 17.1,6 16,6 L16,6 Z"/>
</svg>
