<svg xmlns="http://www.w3.org/2000/svg" width="24" height="24" viewBox="0 0 24 24">
  <path d="M15.5,5 C16.327,5 17,5.673 17,6.5 L17,8 L18.5,8 C19.327,8 20,8.673 20,9.5 L20,13.5 C20,14.327 19.327,15 18.5,15 L17,15 L17,17.5 C17,18.327 16.327,19 15.5,19 L8.5,19 C7.673,19 7,18.327 7,17.5 L7,15 L5.5,15 C4.673,15 4,14.327 4,13.5 L4,9.5 C4,8.673 4.673,8 5.5,8 L7,8 L7,6.5 C7,5.673 7.673,5 8.5,5 L15.5,5 Z M16,11 L8,11 L8,17.5 C8,17.775 8.225,18 8.5,18 L15.5,18 C15.775,18 16,17.775 16,17.5 L16,11 Z M13,15 L13,16 L9,16 L9,15 L13,15 Z M18.5,9 L5.5,9 C5.225,9 5,9.225 5,9.5 L5,13.5 C5,13.775 5.225,14 5.5,14 L7,14 L7,10 L17,10 L17,14 L18.5,14 C18.775,14 19,13.775 19,13.5 L19,9.5 C19,9.225 18.775,9 18.5,9 Z M15,13 L15,14 L9,14 L9,13 L15,13 Z M15.5,6 L8.5,6 C8.225,6 8,6.225 8,6.5 L8,8 L16,8 L16,6.5 C16,6.225 15.775,6 15.5,6 Z"/>
</svg>
