<svg xmlns="http://www.w3.org/2000/svg" width="24" height="24" viewBox="0 0 24 24">
  <path d="M14.129,18.83 C14.103,18.838 14.075,18.845 14.049,18.852 C13.772,18.935 13.485,18.999 13.194,19.049 C13.111,19.062 13.027,19.076 12.942,19.087 C12.634,19.129 12.32,19.157 12,19.158 C11.993,19.158 11.986,19.159 11.98,19.159 C11.973,19.159 11.967,19.158 11.96,19.158 C11.644,19.157 11.333,19.13 11.026,19.089 C10.942,19.077 10.859,19.064 10.776,19.051 C10.502,19.004 10.233,18.944 9.97,18.867 C9.933,18.857 9.895,18.851 9.858,18.839 C9.583,18.754 9.318,18.646 9.058,18.531 C8.943,18.48 8.832,18.426 8.721,18.369 C8.591,18.303 8.465,18.23 8.339,18.157 C8.232,18.094 8.124,18.032 8.02,17.963 L8.02,17.95 C8.32,16.26 9.36,14.769 10.56,14.26 C10.89,14.12 11.12,13.82 11.17,13.47 C11.21,13.11 11.06,12.76 10.77,12.55 C10.26,12.16 9.96,11.58 9.96,10.96 C9.96,9.86 10.88,8.96 12,8.96 C12.12,8.96 12.25,8.97 12.37,8.99 C13.2,9.13 13.89,9.83 14.01,10.65 C14.12,11.39 13.83,12.09 13.22,12.55 C12.941,12.76 12.79,13.11 12.83,13.47 C12.88,13.82 13.11,14.12 13.441,14.26 C14.638,14.768 15.675,16.294 15.978,17.939 C15.892,17.998 15.801,18.047 15.712,18.101 C15.557,18.195 15.399,18.288 15.235,18.37 C15.138,18.421 15.037,18.469 14.937,18.515 C14.674,18.633 14.407,18.743 14.129,18.83 M19.12,12.727 C19.109,12.834 19.088,12.938 19.071,13.044 C19.051,13.182 19.034,13.32 19.006,13.455 C18.982,13.571 18.947,13.684 18.917,13.797 C18.886,13.918 18.858,14.039 18.82,14.156 C18.782,14.275 18.735,14.392 18.691,14.508 C18.651,14.614 18.613,14.722 18.568,14.825 C18.517,14.945 18.457,15.061 18.399,15.178 C18.352,15.272 18.306,15.368 18.255,15.46 C18.191,15.576 18.119,15.687 18.049,15.799 C17.993,15.887 17.939,15.976 17.88,16.06 C17.807,16.166 17.728,16.267 17.649,16.369 C17.582,16.455 17.516,16.542 17.444,16.625 C17.369,16.714 17.289,16.799 17.21,16.883 C17.122,16.976 17.035,17.067 16.943,17.155 C16.915,17.182 16.886,17.207 16.858,17.232 C16.397,15.506 15.268,13.939 13.84,13.34 C14.691,12.71 15.191,11.67 15.02,10.5 C14.83,9.26 13.81,8.22 12.55,8.01 C12.36,7.98 12.18,7.96 12,7.96 C10.31,7.96 8.95,9.3 8.95,10.96 C8.95,11.94 9.43,12.79 10.16,13.34 C8.723,13.949 7.595,15.515 7.133,17.261 C7.096,17.226 7.057,17.194 7.021,17.159 C6.933,17.075 6.849,16.988 6.766,16.9 C6.686,16.816 6.607,16.73 6.531,16.642 C6.453,16.551 6.378,16.456 6.305,16.361 C6.234,16.269 6.163,16.179 6.098,16.084 C6.026,15.982 5.96,15.877 5.895,15.771 C5.835,15.677 5.775,15.582 5.72,15.484 C5.655,15.37 5.599,15.253 5.54,15.135 C5.493,15.039 5.444,14.944 5.401,14.847 C5.346,14.719 5.298,14.588 5.25,14.457 C5.215,14.362 5.177,14.269 5.146,14.173 C5.1,14.03 5.064,13.885 5.027,13.738 C5.004,13.648 4.977,13.559 4.957,13.467 C4.923,13.304 4.9,13.137 4.877,12.97 C4.865,12.892 4.849,12.814 4.841,12.734 C4.815,12.487 4.801,12.237 4.8,11.984 L4.8,11.979 C4.8,11.65 4.83,11.327 4.873,11.01 C5.301,7.867 7.765,5.37 10.891,4.892 C11.247,4.837 11.608,4.8 11.98,4.8 C15.939,4.8 19.159,8.02 19.159,11.979 C19.159,12.044 19.151,12.105 19.15,12.169 C19.145,12.356 19.14,12.544 19.12,12.727 M18.18,16.999 C18.225,16.943 18.264,16.885 18.307,16.829 C18.43,16.669 18.55,16.506 18.66,16.337 C18.717,16.25 18.769,16.16 18.821,16.071 C18.91,15.924 18.995,15.774 19.074,15.621 C19.127,15.519 19.176,15.416 19.224,15.312 C19.293,15.162 19.358,15.01 19.417,14.854 C19.459,14.746 19.5,14.637 19.538,14.524 C19.592,14.365 19.638,14.203 19.682,14.039 C19.711,13.928 19.742,13.817 19.768,13.704 C19.807,13.525 19.835,13.344 19.862,13.161 C19.878,13.058 19.899,12.957 19.909,12.852 C19.939,12.591 19.953,12.325 19.955,12.057 C19.956,12.031 19.96,12.006 19.96,11.98 C19.96,7.57 16.39,4 11.981,4 L11.98,4 C11.842,4 11.708,4.014 11.572,4.02 C7.489,4.227 4.228,7.489 4.021,11.572 C4.014,11.708 4,11.842 4,11.979 L4,11.98 L4,11.981 C4,12.279 4.02,12.572 4.051,12.861 C4.063,12.962 4.082,13.06 4.097,13.16 C4.125,13.347 4.154,13.532 4.194,13.715 C4.22,13.829 4.252,13.941 4.282,14.055 C4.326,14.217 4.372,14.378 4.426,14.537 C4.465,14.65 4.506,14.762 4.549,14.873 C4.61,15.03 4.677,15.184 4.748,15.336 C4.795,15.436 4.841,15.537 4.892,15.635 C4.98,15.806 5.076,15.97 5.176,16.133 C5.219,16.203 5.259,16.275 5.304,16.344 C5.918,17.281 6.723,18.078 7.665,18.685 C7.804,18.776 7.943,18.866 8.09,18.95 C8.105,18.958 8.121,18.964 8.137,18.973 C8.397,19.115 8.665,19.243 8.942,19.357 C9.003,19.383 9.067,19.402 9.129,19.426 C9.354,19.512 9.582,19.589 9.817,19.654 C9.906,19.68 9.998,19.703 10.09,19.725 C10.309,19.778 10.529,19.821 10.754,19.855 C10.848,19.87 10.939,19.887 11.032,19.898 C11.333,19.934 11.638,19.957 11.947,19.958 C11.959,19.958 11.969,19.96 11.981,19.96 C11.992,19.96 12.005,19.958 12.018,19.958 C12.32,19.956 12.619,19.934 12.914,19.9 C13.021,19.888 13.124,19.868 13.23,19.851 C13.431,19.82 13.63,19.783 13.825,19.736 C13.942,19.709 14.058,19.68 14.173,19.647 C14.361,19.594 14.545,19.53 14.728,19.464 C14.83,19.426 14.934,19.392 15.034,19.351 C15.303,19.24 15.565,19.114 15.818,18.976 C15.828,18.97 15.84,18.966 15.85,18.96 C16.08,18.834 16.297,18.694 16.509,18.546 C17.138,18.111 17.7,17.591 18.18,16.999"/>
</svg>
