<svg xmlns="http://www.w3.org/2000/svg" width="24" height="24" viewBox="0 0 24 24">
  <path d="M18.8571429,13.5729913 C18.8571429,14.2015628 18.3428571,14.7158485 17.7142857,14.7158485 L15.4285714,14.7158485 L15.4285714,10.1444199 L17.7142857,10.1444199 C18.3428571,10.1444199 18.8571429,10.6587056 18.8571429,11.287277 L18.8571429,13.5729913 Z M11.4285714,14.7158485 L14.2857143,11.8587056 L14.2857143,14.1444199 L13.7142857,14.7158485 L11.4285714,14.7158485 Z M8,14.7158485 L12.5714286,10.1444199 L14.2857143,10.1444199 L14.2857143,10.7158485 L10.2857143,14.7158485 L8,14.7158485 Z M6.28571429,14.7158485 C5.82857143,14.7158485 5.42857143,14.4415628 5.24571429,14.0415628 L9.14285714,10.1444199 L11.4285714,10.1444199 L6.85714286,14.7158485 L6.28571429,14.7158485 Z M5.14285714,11.287277 C5.14285714,10.6587056 5.65714286,10.1444199 6.28571429,10.1444199 L8,10.1444199 L5.14285714,13.0015628 L5.14285714,11.287277 Z M17.7142857,9.00156276 L6.28571429,9.00156276 C6.04571429,9.00156276 5.81714286,9.03584848 5.61142857,9.1044199 C4.89142857,9.33299133 4.33142857,9.89299133 4.10285714,10.6129913 C4.03428571,10.8187056 3.99997371,11.047277 3.99997371,11.287277 L3.99997371,13.5729913 C3.99773719,14.0395836 4.14160879,14.495177 4.41142857,14.8758485 C4.73142857,15.3329913 5.21142857,15.6644199 5.77142857,15.8015628 C5.93142857,15.8358485 6.10285714,15.8587056 6.28571429,15.8587056 L17.7142857,15.8587056 C18.9714286,15.8587056 20,14.8301342 20,13.5729913 L20,11.287277 C20,10.0301342 18.9714286,9.00156276 17.7142857,9.00156276 Z"/>
</svg>
