<svg xmlns="http://www.w3.org/2000/svg" width="24" height="24" viewBox="0 0 24 24">
  <path d="M15,5 C16.0538182,5 16.9181157,5.81639669 16.9945109,6.85080841 L17,7 L17,17 C17,18.0538182 16.1836033,18.9181157 15.1491916,18.9945109 L15,19 L9,19 C7.94618182,19 7.0818843,18.1836033 7.00548911,17.1491916 L7,17 L7,7 C7,5.94618182 7.81639669,5.0818843 8.85080841,5.00548911 L9,5 L15,5 Z M15,6 L9,6 C8.48742857,6 8.06453061,6.38628571 8.00673178,6.88343149 L8,7 L8,17 C8,17.5125714 8.38628571,17.9354694 8.88343149,17.9932682 L9,18 L15,18 C15.5125714,18 15.9354694,17.6137143 15.9932682,17.1165685 L16,17 L16,7 C16,6.48742857 15.6137143,6.06453061 15.1165685,6.00673178 L15,6 Z M14,15 C14.553,15 15,15.447 15,16 C15,16.553 14.553,17 14,17 C13.447,17 13,16.553 13,16 C13,15.447 13.447,15 14,15 Z M14,12 C14.553,12 15,12.447 15,13 C15,13.553 14.553,14 14,14 C13.447,14 13,13.553 13,13 C13,12.447 13.447,12 14,12 Z M14,9 C14.553,9 15,9.447 15,10 C15,10.553 14.553,11 14,11 C13.447,11 13,10.553 13,10 C13,9.447 13.447,9 14,9 Z"/>
</svg>
