<svg xmlns="http://www.w3.org/2000/svg" width="24" height="24" viewBox="0 0 24 24">
  <path d="M17.5,18 C17.776,18 18,18.224 18,18.5 C18,18.776 17.776,19 17.5,19 L6.5,19 C6.224,19 6,18.776 6,18.5 C6,18.224 6.224,18 6.5,18 L17.5,18 Z M19.5,14 C19.776,14 20,14.224 20,14.5 C20,14.776 19.776,15 19.5,15 L13.5,15 C13.224,15 13,14.776 13,14.5 C13,14.224 13.224,14 13.5,14 L19.5,14 Z M8.1465,10.1465 C8.31983333,9.97316667 8.58956173,9.95390741 8.78431619,10.0887222 L8.8535,10.1465 L11.2075,12.5005 L8.8535,14.8535 C8.7555,14.9515 8.6275,15.0005 8.4995,15.0005 C8.3725,15.0005 8.2445,14.9515 8.1465,14.8535 C7.97316667,14.6801667 7.95390741,14.4104383 8.08872222,14.2156838 L8.1465,14.1465 L9.2925,13.0005 L4.4995,13.0005 C4.2235,13.0005 3.9995,12.7765 3.9995,12.5005 C3.9995,12.2542778 4.17648765,12.0507222 4.40966187,12.0085274 L4.4995,12.0005 L9.2925,12.0005 L8.1465,10.8535 C7.9515,10.6585 7.9515,10.3415 8.1465,10.1465 Z M19.5,10 C19.776,10 20,10.224 20,10.5 C20,10.776 19.776,11 19.5,11 L13.5,11 C13.224,11 13,10.776 13,10.5 C13,10.224 13.224,10 13.5,10 L19.5,10 Z M17.5,6 C17.776,6 18,6.224 18,6.5 C18,6.776 17.776,7 17.5,7 L6.5,7 C6.224,7 6,6.776 6,6.5 C6,6.224 6.224,6 6.5,6 L17.5,6 Z"/>
</svg>
