<svg xmlns="http://www.w3.org/2000/svg" width="24" height="24" viewBox="0 0 24 24">
  <path d="M12,20 C7.581722,20 4,16.4182779 4,12 C4,7.581722 7.581722,4 12,4 C16.4182779,4 20,7.581722 20,12 C20,16.4182779 16.4182779,20 12,20 Z M12,19 C15.8659933,19 19,15.8659933 19,12 C19,8.13400675 15.8659933,5 12,5 C8.13400675,5 5,8.13400675 5,12 C5,15.8659933 8.13400675,19 12,19 Z M12,16 C9.790861,16 8,14.209139 8,12 C8,9.790861 9.790861,8 12,8 C14.209139,8 16,9.790861 16,12 C16,14.209139 14.209139,16 12,16 Z M12,15 C13.6568543,15 15,13.6568543 15,12 C15,10.3431457 13.6568543,9 12,9 C10.3431457,9 9,10.3431457 9,12 C9,13.6568543 10.3431457,15 12,15 Z"/>
</svg>
