<svg xmlns="http://www.w3.org/2000/svg" width="24" height="24" viewBox="0 0 24 24">
  <path d="M19.536,6.94250506 C19.497,6.38450506 19.01,5.96350506 18.468,6.00250506 C17.917,6.04150506 17.501,6.52550506 17.539,7.08250506 L17.737,9.97750506 L15.918,8.13650506 C14.71,6.91550506 13.104,6.24250506 11.395,6.24250506 C9.687,6.24250506 8.082,6.91550506 6.874,8.13650506 C5.666,9.35950506 5,10.9835051 5,12.7105051 C5,14.4385051 5.666,16.0625051 6.874,17.2845051 L7.581,18.0005051 L8.997,16.5685051 L8.289,15.8535051 C7.459,15.0135051 7.002,13.8975051 7.002,12.7105051 C7.002,11.5235051 7.459,10.4075051 8.289,9.56850506 C9.119,8.72950506 10.223,8.26650506 11.395,8.26650506 C12.569,8.26650506 13.673,8.72950506 14.503,9.56850506 L16.323,11.4085051 L13.461,11.2075051 C12.909,11.1725051 12.432,11.5885051 12.392,12.1475051 C12.354,12.7045051 12.77,13.1885051 13.322,13.2275051 L20,13.6965051 L19.536,6.94250506 Z"/>
</svg>
