<svg xmlns="http://www.w3.org/2000/svg" width="24" height="24" viewBox="0 0 24 24">
  <path d="M14,9 L10,9 C8.896,9 8,9.897 8,11 L8,12 L10,12 L10,11 L11,11 L11,15 L10,15 L10,17 L14,17 L14,15 L13,15 L13,11 L14,11 L14,12 L16,12 L16,11 C16,9.897 15.104,9 14,9 M18,5 L17,5 L17,7 L18,7 C18.551,7 19,7.448 19,8 L19,17 C19,17.552 18.551,18 18,18 L17,18 L17,20 L18,20 C19.654,20 21,18.654 21,17 L21,8 C21,6.346 19.654,5 18,5 M3,8 L3,17 C3,18.654 4.346,20 6,20 L7,20 L7,18 L6,18 C5.449,18 5,17.552 5,17 L5,8 C5,7.448 5.449,7 6,7 L7,7 L7,5 L6,5 C4.346,5 3,6.346 3,8"/>
</svg>
