<svg xmlns="http://www.w3.org/2000/svg" width="24" height="24" viewBox="0 0 24 24">
  <path d="M5,5 L5,10 L10,10 L10,5 L5,5 Z M5,4 L10,4 C10.5522847,4 11,4.44771525 11,5 L11,10 C11,10.5522847 10.5522847,11 10,11 L5,11 C4.44771525,11 4,10.5522847 4,10 L4,5 C4,4.44771525 4.44771525,4 5,4 Z M14,5 L14,6 L13,6 L13,5 C13,4.44771525 13.4477153,4 14,4 L15,4 L15,5 L14,5 Z M19,4 C19.5522847,4 20,4.44771525 20,5 L20,6 L19,6 L19,5 L18,5 L18,4 L19,4 Z M20,10 C20,10.5522847 19.5522847,11 19,11 L18,11 L18,10 L19,10 L19,9 L20,9 L20,10 Z M14,11 C13.4477153,11 13,10.5522847 13,10 L13,9 L14,9 L14,10 L15,10 L15,11 L14,11 Z M13,7 L14,7 L14,8 L13,8 L13,7 Z M16,10 L17,10 L17,11 L16,11 L16,10 Z M19,7 L20,7 L20,8 L19,8 L19,7 Z M16,4 L17,4 L17,5 L16,5 L16,4 Z M5,14 L5,15 L4,15 L4,14 C4,13.4477153 4.44771525,13 5,13 L6,13 L6,14 L5,14 Z M10,13 C10.5522847,13 11,13.4477153 11,14 L11,15 L10,15 L10,14 L9,14 L9,13 L10,13 Z M11,19 C11,19.5522847 10.5522847,20 10,20 L9,20 L9,19 L10,19 L10,18 L11,18 L11,19 Z M5,20 C4.44771525,20 4,19.5522847 4,19 L4,18 L5,18 L5,19 L6,19 L6,20 L5,20 Z M4,16 L5,16 L5,17 L4,17 L4,16 Z M7,19 L8,19 L8,20 L7,20 L7,19 Z M10,16 L11,16 L11,17 L10,17 L10,16 Z M7,13 L8,13 L8,14 L7,14 L7,13 Z"/>
</svg>
