<svg xmlns="http://www.w3.org/2000/svg" width="24" height="24" viewBox="0 0 24 24">
  <path d="M5,4 L10,4 C10.5522847,4 11,4.44771525 11,5 L11,10 C11,10.5522847 10.5522847,11 10,11 L5,11 C4.44771525,11 4,10.5522847 4,10 L4,5 C4,4.44771525 4.44771525,4 5,4 Z M6,6 L6,9 L9,9 L9,6 L6,6 Z M18,9 L18,8 L20,8 L20,10 C20,10.5522847 19.5522847,11 19,11 L17,11 L17,9 L18,9 Z M15,9 L16,9 L16,11 L14,11 C13.4477153,11 13,10.5522847 13,10 L13,8 L15,8 L15,9 Z M20,5 L20,7 L18,7 L18,6 L17,6 L17,4 L19,4 C19.5522847,4 20,4.44771525 20,5 Z M14,4 L16,4 L16,6 L15,6 L15,7 L13,7 L13,5 C13,4.44771525 13.4477153,4 14,4 Z M9,18 L9,17 L11,17 L11,19 C11,19.5522847 10.5522847,20 10,20 L8,20 L8,18 L9,18 Z M6,18 L7,18 L7,20 L5,20 C4.44771525,20 4,19.5522847 4,19 L4,17 L6,17 L6,18 Z M11,14 L11,16 L9,16 L9,15 L8,15 L8,13 L10,13 C10.5522847,13 11,13.4477153 11,14 Z M5,13 L7,13 L7,15 L6,15 L6,16 L4,16 L4,14 C4,13.4477153 4.44771525,13 5,13 Z"/>
</svg>
