<svg xmlns="http://www.w3.org/2000/svg" width="24" height="24" viewBox="0 0 24 24">
  <path d="M7.1001,13 C7.5611,15.28 9.5801,17 12.0001,17 C13.6301,17 15.0701,16.21 15.9801,15 L13.0001,15 C12.4501,15 12.0001,14.55 12.0001,14 C12.0001,13.45 12.4501,13 13.0001,13 L19.0001,13 L19.0001,19 C19.0001,19.55 18.5501,20 18.0001,20 C17.4501,20 17.0001,19.55 17.0001,19 L17.0001,16.9 C15.7301,18.19 13.9601,19 12.0001,19 C8.4701,19 5.5611,16.4 5.0801,13 L7.1001,13 Z M6,4 C6.55,4 7,4.45 7,5 L7,7.1 C8.27,5.81 10.04,5 12,5 C15.53,5 18.44,7.6 18.92,11 L16.9,11 C16.44,8.72 14.42,7 12,7 C10.37,7 8.93,7.79 8.02,9 L11,9 C11.55,9 12,9.45 12,10 C12,10.55 11.55,11 11,11 L5,11 L5,5 C5,4.45 5.45,4 6,4 Z"/>
</svg>
