<svg xmlns="http://www.w3.org/2000/svg" width="24" height="24" viewBox="0 0 24 24">
  <path d="M12,4 C16.418278,4 20,7.581722 20,12 C20,16.418278 16.418278,20 12,20 C7.92038235,20 4.55399184,16.9463116 4.06189375,13 L6.08295844,13 C6.55903653,15.8377133 9.02700371,18 12,18 C15.3137085,18 18,15.3137085 18,12 C18,8.6862915 15.3137085,6 12,6 C9.77915293,6 7.84012143,7.20659589 6.80269317,9 L8,9 L8,11 L3,11 L3,6 L5,6 L5,8.12399283 C6.36472892,5.66457529 8.98797327,4 12,4 Z M14,9 C14.5522847,9 15,9.44771525 15,10 L15,14 C15,14.5522847 14.5522847,15 14,15 L10,15 C9.44771525,15 9,14.5522847 9,14 L9,10 C9,9.44771525 9.44771525,9 10,9 L14,9 Z M13,11 L11,11 L11,13 L13,13 L13,11 Z"/>
</svg>
