<svg xmlns="http://www.w3.org/2000/svg" width="24" height="24" viewBox="0 0 24 24">
  <path d="M6,5 L18,5 C19.1045695,5 20,5.8954305 20,7 L20,17 C20,18.1045695 19.1045695,19 18,19 L6,19 C4.8954305,19 4,18.1045695 4,17 L4,7 C4,5.8954305 4.8954305,5 6,5 Z M6,6 C5.44771525,6 5,6.44771525 5,7 L5,8 C5,8.5522847 5.44771525,9 6,9 L18,9 C18.5522847,9 19,8.5522847 19,8 L19,7 C19,6.44771525 18.5522847,6 18,6 L6,6 Z M8,16 L7,16 L7,17 L10,17 L10,16 L9,16 L9,12 L10,12 L10,11 L7,11 L7,12 L8,12 L8,16 Z M6.5,7 L9.5,7 C9.77614237,7 10,7.22385763 10,7.5 C10,7.77614237 9.77614237,8 9.5,8 L6.5,8 C6.22385763,8 6,7.77614237 6,7.5 C6,7.22385763 6.22385763,7 6.5,7 Z"/>
</svg>
