<svg xmlns="http://www.w3.org/2000/svg" width="24" height="24" viewBox="0 0 24 24">
  <path d="M6,5 L18,5 C19.1045695,5 20,5.8954305 20,7 L20,17 C20,18.1045695 19.1045695,19 18,19 L6,19 C4.8954305,19 4,18.1045695 4,17 L4,7 C4,5.8954305 4.8954305,5 6,5 Z M6,6 C5.44771525,6 5,6.44771525 5,7 L5,17 C5,17.5522847 5.44771525,18 6,18 L18,18 C18.5522847,18 19,17.5522847 19,17 L19,7 C19,6.44771525 18.5522847,6 18,6 L6,6 Z M5,9 L19,9 L19,10 L5,10 L5,9 Z M8,16 L8,12 L7,12 L7,11 L10,11 L10,12 L9,12 L9,16 L10,16 L10,17 L7,17 L7,16 L8,16 Z M6.5,7 C6.77614237,7 7,7.22385763 7,7.5 C7,7.77614237 6.77614237,8 6.5,8 C6.22385763,8 6,7.77614237 6,7.5 C6,7.22385763 6.22385763,7 6.5,7 Z M8.5,7 C8.77614237,7 9,7.22385763 9,7.5 C9,7.77614237 8.77614237,8 8.5,8 C8.22385763,8 8,7.77614237 8,7.5 C8,7.22385763 8.22385763,7 8.5,7 Z M10.5,7 C10.7761424,7 11,7.22385763 11,7.5 C11,7.77614237 10.7761424,8 10.5,8 C10.2238576,8 10,7.77614237 10,7.5 C10,7.22385763 10.2238576,7 10.5,7 Z"/>
</svg>
