<svg xmlns="http://www.w3.org/2000/svg" width="18" height="18" viewBox="0 0 18 18">
  <path fill-rule="evenodd" d="M13.5,13.1 C12.78,13.1 12.17,12.621 11.98,11.96 C11.92,11.821 11.9,11.661 11.9,11.5 C11.9,11.38 11.91,11.26 11.94,11.151 C12.1,10.441 12.74,9.901 13.5,9.901 C13.89,9.901 14.24,10.04 14.52,10.281 C14.73,10.451 14.9,10.68 14.99,10.951 C15.06,11.121 15.1,11.31 15.1,11.5 C15.1,12.38 14.38,13.1 13.5,13.1 M4.5,10.1 C3.62,10.1 2.9,9.38 2.9,8.5 C2.9,7.621 3.62,6.901 4.5,6.901 C5.2,6.901 5.81,7.361 6.01,8 C6.07,8.151 6.1,8.321 6.1,8.5 C6.1,8.68 6.07,8.85 6.01,9 C5.81,9.64 5.2,10.1 4.5,10.1 M13.5,3.901 C14.38,3.901 15.1,4.621 15.1,5.5 C15.1,5.691 15.06,5.88 14.99,6.05 C14.9,6.321 14.73,6.55 14.52,6.72 C14.24,6.96 13.89,7.1 13.5,7.1 C12.74,7.1 12.1,6.56 11.94,5.85 C11.91,5.741 11.9,5.621 11.9,5.5 C11.9,5.34 11.92,5.18 11.98,5.04 C12.17,4.38 12.78,3.901 13.5,3.901 M15.01,9.51 C14.59,9.191 14.07,9 13.5,9 C12.36,9 11.4,9.77 11.1,10.81 C10.46,10.42 9.99,9.77 9.84,9 C9.82,8.84 9.8,8.67 9.8,8.5 C9.8,8.33 9.82,8.161 9.84,8 C9.99,7.231 10.46,6.58 11.1,6.191 C11.4,7.231 12.36,8 13.5,8 C14.07,8 14.59,7.81 15.01,7.491 C15.24,7.321 15.43,7.111 15.59,6.871 C15.85,6.481 16,6.01 16,5.5 C16,4.121 14.88,3 13.5,3 C12.17,3 11.09,4.04 11.01,5.34 C9.96,5.83 9.21,6.821 9.04,8 L6.95,8 C6.72,6.861 5.71,6 4.5,6 C3.12,6 2,7.121 2,8.5 C2,9.88 3.12,11 4.5,11 C5.71,11 6.72,10.14 6.95,9 L9.04,9 C9.21,10.18 9.96,11.17 11.01,11.661 C11.09,12.96 12.17,14 13.5,14 C14.88,14 16,12.88 16,11.5 C16,11 15.85,10.531 15.59,10.14 C15.44,9.901 15.24,9.68 15.01,9.51"/>
</svg>