<svg xmlns="http://www.w3.org/2000/svg" width="24" height="24" viewBox="0 0 24 24">
  <path fill-rule="evenodd" d="M16.494,18 C15.666,18 14.992,17.327 14.992,16.5 C14.992,15.673 15.666,15 16.494,15 C17.322,15 17.996,15.673 17.996,16.5 C17.996,17.327 17.322,18 16.494,18 M6.503,14 C5.675,14 5.001,13.327 5.001,12.5 C5.001,11.673 5.675,11 6.503,11 C7.331,11 8.005,11.673 8.005,12.5 C8.005,13.327 7.331,14 6.503,14 M16.494,7 C17.322,7 17.996,7.673 17.996,8.5 C17.996,9.327 17.322,10 16.494,10 C15.666,10 14.992,9.327 14.992,8.5 C14.992,7.673 15.666,7 16.494,7 M16.494,14 C15.299,14 14.303,14.838 14.054,15.956 L14.049,16.212 C13.114,15.661 12.038,14.768 12.038,12.771 C12.038,10.721 13.181,9.778 14.126,9.272 C14.453,10.272 15.383,11 16.494,11 C17.876,11 18.997,9.881 18.997,8.5 C18.997,7.119 17.876,6 16.494,6 C15.267,6 14.251,6.883 14.036,8.046 L14.039,8.225 C12.477,8.897 11.358,10.295 11.098,12 L8.956,12 C8.724,10.859 7.714,10 6.503,10 C5.12,10 4,11.119 4,12.5 C4,13.881 5.12,15 6.503,15 C7.714,15 8.724,14.141 8.956,13 L11.055,13 C11.144,14.986 12.366,16.645 14.15,17.364 C14.501,18.318 15.416,19 16.494,19 C17.876,19 18.997,17.881 18.997,16.5 C18.997,15.119 17.876,14 16.494,14"/>
</svg>
