<svg xmlns="http://www.w3.org/2000/svg" width="24" height="24" viewBox="0 0 24 24">
  <path d="M14,5 L19,9 L19,17.5 C19,18.2783529 18.4038478,18.9202907 17.6442369,18.9931195 L17.5,19 L6.5,19 C5.72164706,19 5.07970934,18.4038478 5.00688052,17.6442369 L5,17.5 L5,6.5 C5,5.72164706 5.59615225,5.07970934 6.35576308,5.00688052 L6.5,5 L14,5 Z M13.5,6 L6.5,6 C6.25555556,6 6.05061728,6.17777778 6.00809328,6.41042524 L6,6.5 L6,17.5 C6,17.7444444 6.17777778,17.9493827 6.41042524,17.9919067 L6.5,18 L8,18 L8,12.5 C8,12.2546667 8.17698765,12.0504198 8.41016187,12.0080604 L8.5,12 L15.5,12 C15.7453333,12 15.9495802,12.1769877 15.9919396,12.4101619 L16,12.5 L16,18 L17.5,18 C17.7444444,18 17.9493827,17.8222222 17.9919067,17.5895748 L18,17.5 L18,9.5 L13.5,6 Z M15,13 L9,13 L9,18 L15,18 L15,13 Z M14,15 L14,16 L10,16 L10,15 L14,15 Z"/>
</svg>
