<svg xmlns="http://www.w3.org/2000/svg" width="24" height="24" viewBox="0 0 24 24">
  <path d="M11.5,5 C14.462245,5 16.8765498,7.12749875 16.9954136,9.79385928 L17,10 L17,15 C17,17.762 14.5382,20 11.5,20 C8.537755,20 6.12345025,17.8725013 6.00458642,15.2061407 L6,15 L6,10 C6,7.238 8.4618,5 11.5,5 Z M11.5,6 C9.09124265,6 7.11912154,7.69002249 7.00519812,9.80645731 L7,10 L7,15 C7,17.206 9.01825,19 11.5,19 C13.9087574,19 15.8808785,17.3099775 15.9948019,15.1935427 L16,15 L16,10 C16,7.794 13.98175,6 11.5,6 Z M12,8 L12,12 L11,12 L11,8 L12,8 Z"/>
</svg>
