<svg xmlns="http://www.w3.org/2000/svg" width="24" height="24" viewBox="0 0 24 24">
  <path d="M5.752,11.793 C5.752,8.624 8.33,6.045 11.5,6.045 C14.669,6.045 17.247,8.624 17.247,11.793 C17.247,14.962 14.669,17.541 11.5,17.541 C8.33,17.541 5.752,14.962 5.752,11.793 Z M16.676,16.218 C17.741,14.998 18.293,13.49 18.293,11.793 C18.293,8.041 15.251,5 11.5,5 C7.748,5 4.707,8.041 4.707,11.793 C4.707,15.544 7.748,18.586 11.5,18.586 C13.188,18.586 14.764,18.07 15.988,17.02 L18.968,20 L19.707,19.261 L16.676,16.218 Z"/>
</svg>
