<svg xmlns="http://www.w3.org/2000/svg" width="24" height="24" viewBox="0 0 24 24">
  <path d="M13.907,13.907 C13.144,14.669 12.131,15.089 11.053,15.089 C9.975,15.089 8.962,14.669 8.199,13.907 C6.626,12.333 6.626,9.773 8.199,8.199 C8.962,7.437 9.975,7.018 11.053,7.018 C12.131,7.018 13.144,7.437 13.907,8.199 C15.48,9.773 15.48,12.333 13.907,13.907 L13.907,13.907 Z M16.086,14.412 C17.659,12.06 17.411,8.85 15.334,6.773 C14.151,5.591 12.602,5 11.053,5 C9.504,5 7.955,5.591 6.773,6.773 C4.409,9.137 4.409,12.97 6.773,15.334 C7.955,16.515 9.504,17.107 11.053,17.107 C12.338,17.107 13.609,16.677 14.683,15.865 L17.64,18.561 L19,17.07 L16.086,14.412 Z"/>
</svg>
