<svg xmlns="http://www.w3.org/2000/svg" width="18" height="18" viewBox="0 0 18 18">
  <path fill-rule="evenodd" d="M9.5,1 C13.6421356,1 17,4.35786438 17,8.5 C17,12.6421356 13.6421356,16 9.5,16 C5.35786438,16 2,12.6421356 2,8.5 C2,4.35786438 5.35786438,1 9.5,1 Z M9.5,2 C5.91014913,2 3,4.91014913 3,8.5 C3,12.0898509 5.91014913,15 9.5,15 C13.0898509,15 16,12.0898509 16,8.5 C16,4.91014913 13.0898509,2 9.5,2 Z M12.3,6.6 C12.4963679,6.74727593 12.5535616,7.01126515 12.4474808,7.22326609 L12.4,7.3 L9.4,11.3 C9.23772017,11.5163731 8.93853637,11.5603955 8.72294452,11.4163969 L8.64644661,11.3535534 L6.64644661,9.35355339 C6.45118446,9.15829124 6.45118446,8.84170876 6.64644661,8.64644661 C6.82001296,8.47288026 7.08943736,8.45359511 7.2843055,8.58859116 L7.35355339,8.64644661 L8.946,10.239 L11.6,6.7 C11.7656854,6.4790861 12.0790861,6.43431458 12.3,6.6 Z"/>
</svg>
