<svg xmlns="http://www.w3.org/2000/svg" width="24" height="24" viewBox="0 0 24 24">
  <path d="M14,11 L13,11 C11.896,11 11,11.896 11,13 L11,14 L10,14 L10,10 L14,10 L14,11 Z M8,10 L8,11 L7,11 L7,7 L11,7 L11,8 L10,8 C8.896,8 8,8.896 8,10 L8,10 Z M17,11 L16,11 L16,10 C16,8.896 15.104,8 14,8 L13,8 L13,7 C13,5.896 12.104,5 11,5 L7,5 C5.896,5 5,5.896 5,7 L5,11 C5,12.104 5.896,13 7,13 L8,13 L8,14 C8,15.104 8.896,16 10,16 L11,16 L11,17 C11,18.104 11.896,19 13,19 L17,19 C18.104,19 19,18.104 19,17 L19,13 C19,11.896 18.104,11 17,11 L17,11 Z"/>
</svg>
