<svg xmlns="http://www.w3.org/2000/svg" width="24" height="24" viewBox="0 0 24 24">
  <path d="M12,5 C13.104,5 14,5.896 14,7 L14,7 L14,8 L15,8 C16.104,8 17,8.896 17,10 L17,10 L17,11 L18,11 C19.104,11 20,11.896 20,13 L20,13 L20,17 C20,18.104 19.104,19 18,19 L18,19 L14,19 C12.9,19 12,18.1 12,17 L12,17 L12,16 L11,16 C9.9,16 9,15.1 9,14 L9,14 L9,13 L8,13 C6.9,13 6,12.1 6,11 L6,11 L6,7 C6,5.9 6.9,5 8,5 L8,5 Z M18,13 L14,13 L14,17 L18,17 L18,13 Z M15,10 L11,10 L11,14 L12,14 L12,12.992 C12,11.888 12.974,11 14.078,11 L14.078,11 L15,11 L15,10 Z"/>
</svg>
