<svg xmlns="http://www.w3.org/2000/svg" width="24" height="24" viewBox="0 0 24 24">
  <path d="M15.5004,9.0002 C16.0304,9.0002 16.5304,9.0902 17.0004,9.2602 C17.3604,9.3802 17.6904,9.5502 18.0004,9.7602 C19.2104,10.5592 20.0004,11.9402 20.0004,13.5002 C20.0004,14.6052 19.6037673,15.6144908 18.938607,16.3943629 L18.7804,16.5702 L21.0004,18.7902 L20.2904,19.5002 L18.0194,17.2302 C17.2994,17.7202 16.4294,18.0002 15.5004,18.0002 C14.4294,18.0002 13.4504,17.6302 12.6794,17.0002 C12.3204,16.7202 12.0094,16.3802 11.7594,16.0002 C11.2804,15.2802 11.0004,14.4202 11.0004,13.5002 C11.0004,12.0802 11.6504,10.8202 12.6794,10.0002 C13.4504,9.3702 14.4294,9.0002 15.5004,9.0002 Z M16,5 C17.05,5 17.9177686,5.82004132 17.9944872,6.85130541 L18,7 L18,8 L17,8 L17,7 C17,6.48928571 16.6119898,6.06479592 16.116199,6.0067602 L16,6 L6,6 C5.48928571,6 5.06479592,6.3880102 5.0067602,6.88380102 L5,7 L5,9 L10.83,9 C10.605,9.225 10.396875,9.4725 10.2098437,9.7340625 L10.03,10 L5,10 L5,15 C5,15.5107143 5.3880102,15.9352041 5.88380102,15.9932398 L6,16 L9.5,16 C9.6125,16.2625 9.73625,16.519375 9.8796875,16.7621875 L10.03,17 L6,17 C4.95,17 4.0822314,16.1799587 4.00551277,15.1486946 L4,15 L4,7 C4,5.95 4.82004132,5.0822314 5.85130541,5.00551277 L6,5 L16,5 Z M15.5004,10.0002 C13.5704,10.0002 12.0004,11.5702 12.0004,13.5002 C12.0004,14.4802 12.4004,15.3702 13.0594,16.0002 C13.6904,16.6202 14.5494,17.0002 15.5004,17.0002 C16.06915,17.0002 16.6141656,16.8623875 17.0905621,16.6135594 L17.3371407,16.4742741 C17.3454,16.4679778 17.3534,16.4602 17.3604,16.4502 C17.6304,16.3002 17.8704,16.0992 18.0704,15.8602 C18.6504,15.2402 19.0004,14.4102 19.0004,13.5002 C19.0004,12.5502 18.6204,11.6902 18.0004,11.0592 C17.7194,10.7602 17.3804,10.5192 17.0004,10.3492 C16.5494,10.1202 16.0404,10.0002 15.5004,10.0002 Z M7,7 L7,8 L6,8 L6,7 L7,7 Z M9,7 L9,8 L8,8 L8,7 L9,7 Z"/>
</svg>
