<svg xmlns="http://www.w3.org/2000/svg" width="24" height="24" viewBox="0 0 24 24">
  <path fill-rule="evenodd" d="M12.078,14.492 C10.697,14.492 9.578,13.373 9.578,11.992 C9.578,10.612 10.697,9.492 12.078,9.492 C13.459,9.492 14.578,10.612 14.578,11.992 C14.578,13.373 13.459,14.492 12.078,14.492 M19.234,10.332 L17.722,10.024 C17.644,9.803 17.563,9.588 17.463,9.38 L18.336,8.078 C18.6,7.682 18.55,7.153 18.214,6.816 L17.253,5.854 C17.059,5.661 16.804,5.561 16.546,5.561 C16.353,5.561 16.161,5.617 15.992,5.729 L14.69,6.597 C14.481,6.496 14.266,6.406 14.045,6.329 L13.738,4.8 C13.645,4.332 13.234,4 12.758,4 L11.397,4 C10.921,4 10.511,4.332 10.417,4.8 L10.11,6.331 C9.889,6.408 9.674,6.497 9.466,6.598 L8.164,5.73 C7.995,5.617 7.802,5.562 7.609,5.562 C7.351,5.562 7.096,5.661 6.902,5.855 L5.94,6.816 C5.603,7.153 5.551,7.682 5.815,8.078 L6.682,9.38 C6.582,9.589 6.492,9.803 6.415,10.025 L4.843,10.332 C4.376,10.425 4,10.836 4,11.312 L4,12.673 C4,13.149 4.376,13.559 4.843,13.653 L6.395,13.96 C6.473,14.181 6.572,14.397 6.673,14.605 L5.81,15.906 C5.546,16.303 5.6,16.831 5.937,17.168 L6.901,18.13 C7.095,18.323 7.35,18.423 7.609,18.423 C7.801,18.423 7.995,18.368 8.164,18.255 L9.466,17.388 C9.674,17.488 9.889,17.578 10.11,17.655 L10.417,19.192 C10.511,19.659 10.921,20 11.397,20 L12.758,20 C13.234,20 13.645,19.659 13.738,19.192 L14.046,17.657 C14.267,17.58 14.482,17.489 14.69,17.388 L15.992,18.256 C16.161,18.368 16.354,18.423 16.546,18.423 C16.805,18.423 17.06,18.324 17.254,18.13 L18.216,17.168 C18.553,16.831 18.605,16.303 18.341,15.906 L17.473,14.605 C17.574,14.396 17.664,14.181 17.741,13.959 L19.234,13.653 C19.702,13.559 20,13.149 20,12.673 L20,11.312 C20,10.836 19.702,10.425 19.234,10.332"/>
</svg>
