<svg xmlns="http://www.w3.org/2000/svg" width="24" height="24" viewBox="0 0 24 24">
  <path fill-rule="evenodd" d="M17.467,12.987 C17.119,13.056 16.835,13.304 16.719,13.639 C16.655,13.823 16.58,14.003 16.495,14.176 C16.34,14.495 16.366,14.872 16.563,15.167 L17.431,16.469 L16.469,17.431 L15.167,16.563 C15,16.452 14.807,16.395 14.613,16.395 C14.464,16.395 14.315,16.428 14.177,16.495 C14.003,16.579 13.824,16.654 13.64,16.719 C13.305,16.835 13.057,17.12 12.988,17.467 L12.68,19 L11.32,19 L11.013,17.467 C10.944,17.12 10.696,16.835 10.362,16.719 C10.177,16.654 9.997,16.58 9.823,16.495 C9.686,16.428 9.536,16.395 9.388,16.395 C9.194,16.395 9,16.452 8.833,16.563 L7.531,17.431 L6.57,16.469 L7.437,15.167 C7.633,14.872 7.659,14.496 7.505,14.177 C7.421,14.004 7.346,13.824 7.281,13.639 C7.165,13.305 6.88,13.057 6.533,12.987 L5,12.68 L5,11.32 L6.533,11.013 C6.88,10.944 7.165,10.696 7.281,10.362 C7.346,10.177 7.42,9.998 7.505,9.824 C7.659,9.505 7.634,9.128 7.437,8.833 L6.57,7.531 L7.531,6.57 L8.833,7.437 C9,7.549 9.194,7.605 9.388,7.605 C9.536,7.605 9.685,7.572 9.823,7.506 C9.996,7.422 10.176,7.346 10.361,7.281 C10.696,7.165 10.944,6.881 11.013,6.533 L11.32,5.001 L12.68,5 L12.987,6.533 C13.056,6.881 13.304,7.165 13.639,7.281 C13.823,7.346 14.002,7.421 14.176,7.505 C14.315,7.572 14.463,7.605 14.613,7.605 C14.807,7.605 15,7.549 15.167,7.437 L16.469,6.57 L17.431,7.531 L16.563,8.833 C16.366,9.128 16.341,9.505 16.494,9.823 C16.578,9.997 16.655,10.176 16.719,10.361 C16.835,10.695 17.119,10.944 17.467,11.013 L18.999,11.32 L19,12.68 L17.467,12.987 Z M19.196,10.34 L17.663,10.032 C17.586,9.811 17.495,9.596 17.395,9.388 L18.263,8.086 C18.528,7.69 18.475,7.161 18.138,6.824 L17.176,5.862 C16.983,5.669 16.727,5.57 16.468,5.57 C16.277,5.57 16.083,5.625 15.914,5.737 L14.613,6.605 C14.404,6.504 14.189,6.414 13.967,6.337 L13.66,4.804 C13.568,4.337 13.156,4 12.68,4 L11.32,4 C10.843,4 10.433,4.337 10.339,4.804 L10.032,6.337 C9.811,6.414 9.596,6.505 9.388,6.605 L8.086,5.737 C7.916,5.625 7.724,5.57 7.531,5.57 C7.274,5.57 7.018,5.669 6.824,5.862 L5.863,6.824 C5.526,7.161 5.473,7.69 5.738,8.086 L6.605,9.388 C6.504,9.596 6.414,9.811 6.337,10.033 L4.804,10.34 C4.336,10.433 4,10.843 4,11.32 L4,12.68 C4,13.157 4.336,13.568 4.804,13.661 L6.337,13.968 C6.414,14.19 6.504,14.404 6.605,14.612 L5.738,15.914 C5.473,16.311 5.526,16.839 5.863,17.176 L6.824,18.138 C7.018,18.331 7.274,18.431 7.531,18.431 C7.724,18.431 7.917,18.376 8.086,18.263 L9.388,17.395 C9.596,17.496 9.811,17.586 10.032,17.663 L10.339,19.196 C10.433,19.664 10.843,20 11.32,20 L12.68,20 C13.156,20 13.568,19.664 13.66,19.196 L13.968,17.663 C14.19,17.586 14.404,17.496 14.613,17.395 L15.914,18.263 C16.083,18.376 16.277,18.431 16.468,18.431 C16.727,18.431 16.983,18.331 17.176,18.138 L18.138,17.176 C18.475,16.839 18.528,16.311 18.263,15.914 L17.395,14.612 C17.496,14.404 17.586,14.189 17.663,13.967 L19.196,13.661 C19.663,13.568 20,13.157 20,12.68 L20,11.32 C20,10.843 19.663,10.433 19.196,10.34 L19.196,10.34 Z M12,13.5 C11.172,13.5 10.5,12.828 10.5,12 C10.5,11.172 11.172,10.5 12,10.5 C12.828,10.5 13.5,11.172 13.5,12 C13.5,12.828 12.828,13.5 12,13.5 L12,13.5 Z M11.974,9.577 C10.627,9.577 9.536,10.667 9.536,12.012 C9.536,13.358 10.627,14.448 11.974,14.448 C13.321,14.448 14.411,13.358 14.411,12.012 C14.411,10.667 13.321,9.577 11.974,9.577 L11.974,9.577 Z"/>
</svg>
