<svg xmlns="http://www.w3.org/2000/svg" width="18" height="18" viewBox="0 0 18 18">
  <path fill-rule="evenodd" d="M13.157832,12.812 L11.098832,12.265 C10.828832,12.485 10.533832,12.671 10.208832,12.804 L9.64183205,14.9 L8.15783205,14.9 L7.59183205,12.804 C7.26583205,12.671 6.97083205,12.485 6.70083205,12.265 L4.64183205,12.812 L3.89983205,11.489 L5.38783205,9.929 C5.36383205,9.755 5.33683205,9.582 5.33683205,9.4 C5.33683205,9.219 5.36383205,9.046 5.38783205,8.872 L3.89983205,7.312 L4.64183205,5.989 L6.70083205,6.536 C6.97083205,6.315 7.26583205,6.129 7.59183205,5.997 L8.15783205,3.9 L9.64183205,3.9 L10.208832,5.997 C10.533832,6.129 10.828832,6.315 11.098832,6.536 L13.157832,5.989 L13.899832,7.312 L12.411832,8.872 C12.435832,9.046 12.463832,9.219 12.463832,9.4 C12.463832,9.582 12.435832,9.755 12.411832,9.929 L13.899832,11.489 L13.157832,12.812 Z M9.64183205,3 C10.009032,3 10.333302,3.22113 10.472487,3.551853 L10.511832,3.666 L10.969832,5.365 L11.128082,5.455875 L11.128082,5.455875 L11.284832,5.555 L12.926832,5.119 C13.003832,5.099 13.080832,5.089 13.157832,5.089 C13.436957,5.089 13.7045977,5.21992188 13.8756738,5.44558984 L13.942832,5.548 L14.684832,6.872 C14.8572765,7.17777778 14.8329802,7.5522963 14.6344178,7.83261454 L14.551832,7.933 L13.354832,9.187 C13.359832,9.255 13.362832,9.326 13.362832,9.4 L13.360707,9.508875 L13.360707,9.508875 L13.354832,9.614 L14.551832,10.868 C14.7936098,11.1222222 14.8639308,11.4902222 14.7403204,11.811166 L14.684832,11.929 L13.942832,13.252 C13.780832,13.541 13.476832,13.712 13.157832,13.712 L13.042332,13.7045 L13.042332,13.7045 L12.926832,13.682 L11.284832,13.246 L11.128082,13.34475 L11.128082,13.34475 L10.969832,13.436 L10.511832,15.135 C10.415532,15.4878 10.118352,15.74421 9.76244705,15.791964 L9.64183205,15.8 L8.15783205,15.8 C7.79153205,15.8 7.46654205,15.57887 7.32793305,15.248876 L7.28883205,15.135 L6.82983205,13.436 L6.67158205,13.34475 L6.67158205,13.34475 L6.51483205,13.246 L4.87383205,13.682 C4.79683205,13.702 4.71983205,13.712 4.64183205,13.712 C4.36270705,13.712 4.09506642,13.5810781 3.92399025,13.3547402 L3.85683205,13.252 L3.11483205,11.929 C2.94327649,11.6223333 2.96688143,11.2485062 3.16598157,10.9683525 L3.24883205,10.868 L4.44483205,9.614 C4.43983205,9.546 4.43683205,9.475 4.43683205,9.4 L4.43895705,9.292 L4.43895705,9.292 L4.44483205,9.187 L3.24883205,7.933 C3.00616538,7.67877778 2.93653575,7.30998765 3.05960845,6.98957064 L3.11483205,6.872 L3.85683205,5.548 C4.01883205,5.26 4.32283205,5.089 4.64183205,5.089 L4.75820705,5.0965 L4.75820705,5.0965 L4.87383205,5.119 L6.51483205,5.555 L6.67158205,5.455875 L6.67158205,5.455875 L6.82983205,5.365 L7.28883205,3.666 C7.38423205,3.3123 7.68213205,3.0558 8.03746105,3.008037 L8.15783205,3 L9.64183205,3 Z M8.90003205,7.4005 C7.79603205,7.4005 6.90003205,8.2955 6.90003205,9.4005 C6.90003205,10.5045 7.79603205,11.4005 8.90003205,11.4005 C10.004032,11.4005 10.900032,10.5045 10.900032,9.4005 C10.900032,8.2955 10.004032,7.4005 8.90003205,7.4005 Z M8.90003205,8.3005 C9.50603205,8.3005 10.000032,8.7935 10.000032,9.4005 C10.000032,10.0065 9.50603205,10.5005 8.90003205,10.5005 C8.29403205,10.5005 7.80003205,10.0065 7.80003205,9.4005 C7.80003205,8.7935 8.29403205,8.3005 8.90003205,8.3005 Z"/>
</svg>
