<svg xmlns="http://www.w3.org/2000/svg" width="24" height="24" viewBox="0 0 24 24">
  <path d="M15,14.502 C15,14.778 14.779,15.002 14.503,15.002 C12.982,15.004 8.083,15.002 6.499,15.001 C6.223,15 6,14.776 6,14.501 L6,6.5 C6,6.224 6.224,6 6.5,6 L14.5,6 C14.776,6 15,6.224 15,6.5 L15,14.502 Z M16,14.601 L16,13.276 L18.33,15.374 L19,14.709 L16,12.009 L16,10.108 L18.275,12.257 L18.962,11.608 L16,8.81 L16,7.354 L18.275,9.503 L18.962,8.855 L15.933,5.993 C15.758,5.419 15.232,5 14.602,5 L6.5,5 C5.671,5 5,5.671 5,6.5 L5,14.601 C5,15.211 5.394,15.726 5.938,15.917 L9.413,19 L10.089,18.399 L7.387,16 L9.03,16 L12.41,19 L13.086,18.399 L10.384,16 L12.068,16 L15.448,19 L16.125,18.399 L13.422,16 L14.602,16 C14.831,16 15.042,15.94 15.233,15.843 L17.89,18.31 L18.571,17.655 L15.883,15.159 C15.957,14.988 16,14.799 16,14.601 L16,14.601 Z"/>
</svg>
