<svg xmlns="http://www.w3.org/2000/svg" width="24" height="24" viewBox="0 0 24 24">
  <path d="M3.70866216,18 L9.00166216,8.97 L14.2946622,18 L3.70866216,18 Z M9.43366216,7.736 C9.23966216,7.406 8.76366216,7.406 8.56966216,7.736 L2.40966216,18.247 C2.21366216,18.58 2.45466216,19 2.84066216,19 L15.1626622,19 C15.5486622,19 15.7896622,18.58 15.5936622,18.247 L9.43366216,7.736 Z M18.0056622,12 C16.3566622,12 15.0056622,10.654 15.0056622,9 C15.0056622,7.346 16.3356622,6 17.9836622,6 C19.6326622,6 21.0056622,7.346 21.0056622,9 C21.0056622,10.654 19.6536622,12 18.0056622,12 L18.0056622,12 Z M17.9866622,5 C15.7896622,5 14.0056622,6.791 14.0056622,9 C14.0056622,11.209 15.8116622,13 18.0086622,13 C20.2056622,13 22.0016622,11.209 22.0016622,9 C22.0016622,6.791 20.1856622,5 17.9866622,5 L17.9866622,5 Z"/>
</svg>
