<svg xmlns="http://www.w3.org/2000/svg" xmlns:xlink="http://www.w3.org/1999/xlink" width="24" height="24" viewBox="0 0 24 24">
    <path d="M13.5,18.5 C11.269,18.5 9.396,17.021 8.755,15 L10.136,15 L8.513,13.377 C8.523,12.953 8.597,12.548 8.707,12.156 L11.55,15 L12.965,15 L9.114,11.149 C9.276,10.848 9.467,10.567 9.686,10.307 L14.064,14.686 C14.351,14.504 14.582,14.251 14.746,13.953 L10.4,9.607 C10.668,9.395 10.953,9.209 11.261,9.054 L15,12.793 L15,11.379 L12.287,8.666 C12.678,8.567 13.08,8.5 13.5,8.5 C13.514,8.5 13.526,8.504 13.539,8.504 L15,9.965 L15,8.755 C17.021,9.396 18.5,11.269 18.5,13.5 C18.5,16.257 16.257,18.5 13.5,18.5 L13.5,18.5 Z M7.047,14.253 C7.049,14.268 7.052,14.281 7.054,14.296 C7.052,14.281 7.049,14.268 7.047,14.253 L7.047,14.253 Z M8.005,10.04 L8.004,10.04 L8.005,10.04 Z M8.608,9.229 L8.607,9.229 L8.608,9.229 Z M14.296,7.054 C14.281,7.052 14.268,7.049 14.253,7.047 C14.268,7.049 14.281,7.052 14.296,7.054 L14.296,7.054 Z M15,7.181 L15,7.181 L15,6 C15,4.9 14.1,4 13,4 L6,4 C4.9,4 4,4.9 4,6 L4,13 C4,14.1 4.9,15 6,15 L7.181,15 C7.859,17.865 10.428,20 13.5,20 C17.09,20 20,17.09 20,13.5 C20,10.428 17.865,7.859 15,7.181 L15,7.181 Z"/>
</svg>
