<svg xmlns="http://www.w3.org/2000/svg" width="24" height="24" viewBox="0 0 24 24">
  <path fill-rule="evenodd" d="M18.078,4 L15.357,4 L14.078,7 L4,7 L5.609,12.896 C6.001,14.147 7.161,15 8.473,15 L14.391,15 L15.305,17.131 C14.869,17.294 14.509,17.603 14.277,18 L10.723,18 C10.376,17.405 9.738,17 9,17 C7.895,17 7,17.896 7,19 C7,20.104 7.895,21 9,21 C10.104,21 11,20.104 11,19 L14,19 C14,20.104 14.895,21 16,21 C17.104,21 18,20.104 18,19 C18,17.993 17.253,17.168 16.284,17.029 L16.348,17.021 L15.179,14.291 L16,8 L16.799,6 L18.078,6 C18.631,6 19.078,5.552 19.078,5 C19.078,4.448 18.631,4 18.078,4"/>
</svg>
