<svg xmlns="http://www.w3.org/2000/svg" width="24" height="24" viewBox="0 0 24 24">
  <path fill-rule="evenodd" d="M14.371,13.62 C14.333,13.743 14.243,13.863 14.137,13.934 L14.042,13.98 C14.015,13.989 13.989,14 13.961,14 L7.436,14 C7.259,14 7.083,13.807 7.023,13.613 L5.546,9 L15.751,9 L14.371,13.62 Z M15.988,18.059 C16.504,18.059 16.923,18.482 16.923,19 C16.923,19.519 16.504,19.941 15.988,19.941 C15.473,19.941 15.053,19.519 15.053,19 C15.053,18.482 15.473,18.059 15.988,18.059 L15.988,18.059 Z M8.625,19.941 C8.109,19.941 7.69,19.519 7.69,19 C7.69,18.482 8.109,18.059 8.625,18.059 C9.141,18.059 9.56,18.482 9.56,19 C9.56,19.519 9.141,19.941 8.625,19.941 L8.625,19.941 Z M17.735,6 L20,6 L20,5 L17,5 L16,7.995 L16.007,8 L4,8 L6.046,13.931 C6.231,14.538 6.803,15 7.436,15 L13.961,15 C13.973,15 13.983,14.995 13.995,14.995 L15.142,17.195 C14.463,17.516 13.988,18.201 13.988,19 L13.989,19 L10.624,19 L10.625,19 C10.625,17.897 9.727,17 8.625,17 C7.522,17 6.625,17.897 6.625,19 C6.625,20.103 7.522,21 8.625,21 C9.361,21 9.999,20.595 10.346,20 L14.267,20 C14.614,20.595 15.252,21 15.988,21 C17.091,21 17.988,20.103 17.988,19 C17.988,17.967 17.198,17.124 16.192,17.021 L14.924,14.587 C15.115,14.406 15.272,14.186 15.35,13.93 L17.735,6 Z"/>
</svg>
