<svg xmlns="http://www.w3.org/2000/svg" width="24" height="24" viewBox="0 0 24 24">
  <path d="M11.5,14.572 C10.402,14.572 9.51,13.642 9.51,12.5 C9.51,11.357 10.402,10.427 11.5,10.427 C12.598,10.427 13.49,11.357 13.49,12.5 C13.49,13.642 12.598,14.572 11.5,14.572 L11.5,14.572 Z M11.5,9.391 C9.854,9.391 8.515,10.785 8.515,12.5 C8.515,14.214 9.854,15.608 11.5,15.608 C13.146,15.608 14.485,14.214 14.485,12.5 C14.485,10.785 13.146,9.391 11.5,9.391 L11.5,9.391 Z M11.5,17.964 C6.932,17.964 4.567,13.51 4.089,12.499 C4.565,11.488 6.92,7.036 11.5,7.036 C16.068,7.036 18.433,11.489 18.911,12.5 C18.435,13.512 16.08,17.964 11.5,17.964 L11.5,17.964 Z M19.918,12.298 C19.813,12.041 17.293,6 11.5,6 C5.707,6 3.187,12.041 3.082,12.298 L3,12.5 L3.082,12.701 C3.187,12.958 5.707,19 11.5,19 C17.293,19 19.813,12.958 19.918,12.701 L20,12.5 L19.918,12.298 Z"/>
</svg>
