<svg xmlns="http://www.w3.org/2000/svg" width="24" height="24" viewBox="0 0 24 24">
  <path d="M12,16.19 C8.535,16.19 6.544,13.086 5.953,12.001 C6.545,10.912 8.536,7.81 12,7.81 C15.465,7.81 17.457,10.918 18.047,12.002 C17.46,13.089 15.482,16.19 12,16.19 L12,16.19 Z M19.839,11.631 C19.739,11.4 17.33,6 12,6 C6.669,6 4.26,11.401 4.16,11.631 L4,12.001 L4.16,12.37 C4.26,12.6 6.669,18 12,18 C17.33,18 19.739,12.6 19.839,12.37 L20,12.001 L19.839,11.631 Z M12.029,9.409 C10.625,9.409 9.529,10.528 9.529,11.909 C9.529,13.29 10.625,14.417 12.029,14.417 C13.434,14.417 14.529,13.29 14.529,11.909 C14.529,10.528 13.434,9.409 12.029,9.409 L12.029,9.409 Z"/>
</svg>
