<svg xmlns="http://www.w3.org/2000/svg" width="18" height="18" viewBox="0 0 18 18">
  <path d="M8.496,10.485 C7.651,10.485 6.937,9.806 6.937,9 C6.937,8.193 7.651,7.511 8.496,7.511 C9.287,7.511 9.883,8.151 9.883,9 C9.883,9.847 9.287,10.485 8.496,10.485 L8.496,10.485 Z M8.496,6.52 C7.114,6.52 5.947,7.655 5.947,9 C5.947,10.343 7.114,11.477 8.496,11.477 C9.829,11.477 10.873,10.388 10.873,9 C10.873,7.609 9.829,6.52 8.496,6.52 L8.496,6.52 Z M8.397,13.008 C5.164,13.008 3.455,9.808 3.075,8.998 C3.455,8.19 5.164,4.991 8.397,4.991 C11.621,4.991 13.475,8.161 13.907,8.998 C13.475,9.837 11.621,13.008 8.397,13.008 L8.397,13.008 Z M14.912,8.798 C14.825,8.602 12.744,4 8.397,4 C4.037,4 2.15,8.619 2.073,8.815 L2,8.998 L2.072,9.181 C2.15,9.378 4.037,14 8.397,14 C12.744,14 14.825,9.394 14.912,9.198 L15,8.998 L14.912,8.798 Z"/>
</svg>
