<svg xmlns="http://www.w3.org/2000/svg" width="24" height="24" viewBox="0 0 24 24">
  <path fill-rule="evenodd" d="M6,20 C4.8954305,20 4,19.1045695 4,18 L4,6 C4,4.8954305 4.8954305,4 6,4 L19,4 C20.1045695,4 21,4.8954305 21,6 L21,18 C21,19.1045695 20.1045695,20 19,20 L6,20 Z M8,5 L6,5 C5.49302517,5 5.06631605,5.37950711 5.007,5.883 L5,6 L5,18 C5.00006688,18.5069748 5.37950711,18.9336839 5.883,18.993 L6,19 L8,19 L8,5 Z M9,19 L19,19 C19.5069748,19 19.9336839,18.6204929 19.993,18.117 L20,18 L20,9 L9,9 L9,19 Z M19,5 L9,5 L9,8 L20,8 L20,6 C20,5.49302517 19.6204929,5.06631605 19.117,5.007 L19,5 Z"/>
</svg>
