<svg xmlns="http://www.w3.org/2000/svg" width="24" height="24" viewBox="0 0 24 24">
  <path d="M11.55,15.821 C9.028,15.821 7.9,14.581 7.9,13.651 C7.9,13.175 8.251,12.841 8.737,12.841 C9.816,12.841 9.536,14.39 11.55,14.39 C12.581,14.39 13.151,13.831 13.151,13.258 C13.151,12.913 12.981,12.531 12.302,12.364 L10.058,11.803 C8.251,11.35 7.923,10.374 7.923,9.456 C7.923,7.55 9.718,6.834 11.404,6.834 C12.956,6.834 14.787,7.691 14.787,8.836 C14.787,9.325 14.363,9.61 13.878,9.61 C12.956,9.61 13.126,8.336 11.271,8.336 C10.35,8.336 9.84,8.753 9.84,9.349 C9.84,9.944 10.568,10.134 11.198,10.279 L12.86,10.647 C14.678,11.052 15.139,12.114 15.139,13.115 C15.139,14.664 13.95,15.821 11.55,15.821 M18.504,12.759 C18.499,12.786 18.495,12.812 18.49,12.839 L18.465,12.687 C18.479,12.712 18.49,12.736 18.504,12.759 C18.581,12.337 18.622,11.905 18.622,11.472 C18.622,10.514 18.434,9.584 18.064,8.709 C17.706,7.863 17.195,7.104 16.542,6.452 C15.89,5.8 15.13,5.288 14.285,4.93 C13.41,4.56 12.481,4.308 11.522,4.308 C11.071,4.308 10.617,4.37 10.177,4.37 L10.174,4.37 C10.198,4.37 10.224,4.46 10.248,4.473 L10.099,4.482 C10.124,4.477 10.149,4.489 10.174,4.484 C9.57,4.163 8.891,4 8.203,4 C7.08,4 6.025,4.44 5.231,5.235 C4.437,6.028 4,7.087 4,8.209 C4,8.924 4.184,9.627 4.529,10.248 C4.533,10.222 4.536,10.197 4.541,10.171 L4.567,10.32 C4.553,10.297 4.542,10.272 4.529,10.249 C4.458,10.651 4.421,11.062 4.421,11.472 C4.421,12.431 4.61,13.361 4.98,14.236 C5.337,15.082 5.849,15.842 6.501,16.493 C7.154,17.145 7.912,17.657 8.758,18.014 C9.633,18.385 10.564,18.573 11.522,18.573 C11.939,18.573 12.358,18.535 12.766,18.463 C12.741,18.449 12.717,18.437 12.693,18.423 L12.845,18.45 C12.819,18.455 12.792,18.458 12.766,18.463 C13.394,18.818 14.107,19.008 14.833,19.008 C15.956,19.008 17.011,18.571 17.805,17.776 C18.599,16.983 19.035,15.927 19.035,14.804 C19.035,14.088 18.851,13.383 18.504,12.759"/>
</svg>
