<svg xmlns="http://www.w3.org/2000/svg" width="24" height="24" viewBox="0 0 24 24">
  <path fill-rule="evenodd" d="M8.12601749,13 L5,13 L5,11 L8.12601749,11 C8.57006028,9.27477279 10.1361606,8 12,8 C13.8638394,8 15.4299397,9.27477279 15.8739825,11 L19,11 L19,13 L15.8739825,13 C15.4299397,14.7252272 13.8638394,16 12,16 C10.1361606,16 8.57006028,14.7252272 8.12601749,13 L8.12601749,13 Z M12,14 C13.1045695,14 14,13.1045695 14,12 C14,10.8954305 13.1045695,10 12,10 C10.8954305,10 10,10.8954305 10,12 C10,13.1045695 10.8954305,14 12,14 Z"/>
</svg>
