<svg xmlns="http://www.w3.org/2000/svg" xmlns:xlink="http://www.w3.org/1999/xlink" width="24" height="24" viewBox="0 0 24 24">
  <defs>
    <path id="slider-a" d="M12,9 C13.2096818,9 14.2186941,9.85916789 14.4501074,11.000574 L18.5,11 C18.7761424,11 19,11.2238576 19,11.5 C19,11.7761424 18.7761424,12 18.5,12 L14.4499027,12.0004345 C14.2180997,13.1413382 13.2093254,14 12,14 C10.7906746,14 9.78190033,13.1413382 9.55009729,12.0004345 L5.5,12 C5.22385763,12 5,11.7761424 5,11.5 C5,11.2238576 5.22385763,11 5.5,11 L9.5498926,11.000574 C9.7813059,9.85916789 10.7903182,9 12,9 Z M12,10 C11.1715729,10 10.5,10.6715729 10.5,11.5 C10.5,12.3284271 11.1715729,13 12,13 C12.8284271,13 13.5,12.3284271 13.5,11.5 C13.5,10.6715729 12.8284271,10 12,10 Z"/>
  </defs>
  <use fill-rule="evenodd" xlink:href="#slider-a"/>
</svg>
