<svg xmlns="http://www.w3.org/2000/svg" width="24" height="24" viewBox="0 0 24 24">
  <path fill-rule="evenodd" d="M5,20 L4,20 L4,17 L5,17 L5,18 L19,18 L19,17 L20,17 L20,20 L19,20 L19,19 L5,19 L5,20 Z M18.55,4 C19.3508129,4 20,4.64918711 20,5.45 L20,13.55 C20,14.3508129 19.3508129,15 18.55,15 L5.45,15 C4.64918711,15 4,14.3508129 4,13.55 L4,5.45 C4,4.64918711 4.64918711,4 5.45,4 L18.55,4 Z M18.55,5 L5.45,5 C5.20147186,5 5,5.20147186 5,5.45 L5,13.55 C5,13.7985281 5.20147186,14 5.45,14 L18.55,14 C18.7985281,14 19,13.7985281 19,13.55 L19,5.45 C19,5.20147186 18.7985281,5 18.55,5 Z M15,7.5 L18,9.5 L15,11.5 L15,7.5 Z M9,7.5 L9,11.5 L6,9.5 L9,7.5 Z"/>
</svg>
