<svg xmlns="http://www.w3.org/2000/svg" width="24" height="24" viewBox="0 0 24 24">
  <path d="M6,4 L18,4 C19.1045695,4 20,5.02334914 20,6.28571429 L20,17.7142857 C20,18.9766509 19.1045695,20 18,20 L6,20 C4.8954305,20 4,18.9766509 4,17.7142857 L4,6.28571429 C4,5.02334914 4.8954305,4 6,4 Z M6,5.14285714 C5.44771525,5.14285714 5,5.65453171 5,6.28571429 L5,17.7142857 C5,18.3454682 5.44771525,18.8571429 6,18.8571429 L18,18.8571429 C18.5522847,18.8571429 19,18.3454682 19,17.7142857 L19,6.28571429 C19,5.65453171 18.5522847,5.14285714 18,5.14285714 L6,5.14285714 Z M8,14 L6,12.5 L8,11 L8,14 Z M16,14 L16,11 L18,12.5 L16,14 Z"/>
</svg>
