<svg xmlns="http://www.w3.org/2000/svg" width="24" height="24" viewBox="0 0 24 24">
  <path d="M20.076,12.546 C19.709,12.709 19.313,12.819 18.898,12.869 C19.322,12.615 19.647,12.213 19.801,11.734 C19.404,11.969 18.965,12.14 18.498,12.232 C18.123,11.833 17.59,11.584 17,11.584 C15.867,11.584 14.948,12.502 14.948,13.636 C14.948,13.796 14.967,13.953 15.002,14.104 C13.297,14.018 11.785,13.2 10.772,11.959 C10.597,12.263 10.495,12.615 10.495,12.991 C10.495,13.702 10.618,14.33 11.169,14.698 C10.832,14.688 11,14.596 10,14.442 L10,14.468 C10,15.462 10.946,16.291 11.885,16.48 C11.713,16.526 11.651,16.552 11.464,16.552 C11.332,16.552 11.263,16.538 11.138,16.515 C11.399,17.33 12.186,17.923 13.084,17.94 C12.382,18.489 11.513,18.817 10.551,18.817 C10.386,18.817 10.229,18.808 10.069,18.789 C10.977,19.371 12.059,19.711 13.218,19.711 C16.991,19.711 19.056,16.585 19.056,13.873 C19.056,13.784 19.055,13.696 19.052,13.608 C19.453,13.318 19.802,12.957 20.076,12.546 L20.076,12.546 Z M14,10 L16,10 L16,8 L18,8 L18,6 L16,6 L16,4 L14,4 L14,6 L12,6 L12,8 L14,8 L14,10 Z M5,7.031 L5,8 L4,8 L4,10 L5,10 L5,15 L7,15 L7,10 L9,10 L9,8 L7,8 L7,7.317 L7,7.254 C7,6.758 7.528,6.458 8.178,6.458 C8.778,6.458 9,6.461 9,6.461 L9,4.809 C9,4.809 8.275,4.5 7.546,4.5 C5.744,4.5 5,5.821 5,7.031 L5,7.031 Z"/>
</svg>
