<svg xmlns="http://www.w3.org/2000/svg" width="24" height="24" viewBox="0 0 24 24">
  <path fill-rule="evenodd" d="M13.5,3.99999981 C14.3245375,3.99999981 14.9945031,4.66548078 15,5.49 L14.9998631,10.07932 C15.2950412,10.026266 15.5991597,9.99913615 15.9097604,10.0003592 C18.6633084,10.0112814 20.8898017,12.2464305 20.8899967,14.9999998 C20.8899967,16.3365439 20.3550837,17.6174915 19.4043847,18.5569173 C18.4536857,19.4963432 17.1664477,20.0160385 15.83,19.9999998 C13.0766288,19.9669572 10.8681963,17.7139614 10.8901591,14.9604795 C10.8957174,14.2636296 11.0436013,13.6011102 11.3060492,13.0003531 L10.77,12.9999998 L9.42,14.9999998 C9.32881563,15.1309568 9.17957376,15.2093088 9.02,15.21 L9,15.14 C8.84185764,15.1433127 8.69223526,15.0685015 8.6,14.94 L7.1,12.94 L4.5,12.94 C3.67932092,12.940073 3.01094238,12.2806061 3,11.46 L3,5.46 C3.0216814,4.64723481 3.68694573,3.99971086 4.5,3.99999981 L13.5,3.99999981 Z M15.83,10.9299733 C13.6289739,10.9630191 11.8682679,12.7682363 11.8901985,14.9694008 C11.9121292,17.1705653 13.7084537,18.9403431 15.9097007,18.9296001 C18.1109477,18.9186598 19.8897523,17.1312737 19.8899959,14.93 C19.8625841,12.7088962 18.0512658,10.9243462 15.83,10.9299733 Z M17.7901666,15.6476091 C17.9696536,15.6512412 18.1335687,15.7503527 18.2201666,15.9076091 C18.3067646,16.0648655 18.3028891,16.2563758 18.21,16.41 C17.7024095,17.236262 16.7996953,17.7369271 15.83,17.73 C14.8633522,17.735395 13.9643308,17.2346742 13.46,16.41 C13.3903673,16.2961281 13.3691545,16.1591419 13.4010848,16.0295426 C13.433015,15.8999433 13.5154375,15.7884905 13.63,15.72 C13.7423283,15.6508248 13.877804,15.6298645 14.0057851,15.6618597 C14.1081699,15.6874559 14.1988381,15.7452137 14.2650887,15.8256084 L14.31,15.89 C14.6353946,16.4173212 15.2103647,16.7388505 15.83,16.74 C16.4511659,16.7447587 17.0288378,16.4217185 17.35,15.89 C17.4428891,15.7363758 17.6106796,15.6439769 17.7901666,15.6476091 Z M17.37,13.26 C17.6848023,13.26 17.94,13.5151977 17.94,13.83 C17.94,14.1448023 17.6848023,14.4 17.37,14.4 C17.0551977,14.4 16.8,14.1448023 16.8,13.83 C16.8,13.5151977 17.0551977,13.26 17.37,13.26 Z M14.3,13.26 C14.6148023,13.26 14.87,13.5151977 14.87,13.83 C14.87,14.1448023 14.6148023,14.4 14.3,14.4 C13.9851977,14.4 13.73,14.1448023 13.73,13.83 C13.73,13.5151977 13.9851977,13.26 14.3,13.26 Z M13.5,4.9999999 L4.49999999,4.9999999 C4.36832003,4.99731209 4.2411021,5.04774789 4.14703498,5.13993366 C4.05296787,5.23211943 3.99999999,5.35829261 3.99999999,5.49 L3.99999999,11.49 C3.99999999,11.7661424 4.22385763,11.99 4.49999999,11.99 L7.36,11.99 C7.51701217,11.9915357 7.66456418,12.0653117 7.76,12.19 L8.99999999,13.79 L10.1,12.18 C10.1965191,12.0590247 10.3454455,11.9920078 10.5,11.9999999 L11.5,11.9999999 C11.6179084,11.9999999 11.7262845,12.0408126 11.8117721,12.1090818 C12.357507,11.3383308 13.1172009,10.7298982 14.0034217,10.3685264 L14.0005378,10.3547875 L14.0005378,10.3547875 L14,5.49 C14.0000274,5.35829261 13.9470321,5.23211943 13.852965,5.13993366 C13.7588979,5.04774789 13.63168,4.99731209 13.5,4.9999999 Z M9.46,7 C9.95984897,6.5002578 10.770151,6.5002578 11.27,7 C11.5080621,7.23965724 11.6408379,7.56428228 11.6390002,7.90207756 C11.6373556,8.19161638 11.5369299,8.47038052 11.3566857,8.69336464 L11.26,8.8 L9,11.05 L6.75,8.8 C6.31525449,8.29103325 6.34606686,7.53305461 6.82068938,7.06105432 C7.26141029,6.62276834 7.94659073,6.56851561 8.44779767,6.91333526 L8.56,7 L9,7.45 L9.46,7 Z"/>
</svg>
