<svg xmlns="http://www.w3.org/2000/svg" width="24" height="24" viewBox="0 0 24 24">
  <path d="M16.055,15.5653991 C15.666,15.1763991 15.036,15.1763991 14.649,15.5653991 C14.26,15.9553991 14.26,16.5853991 14.649,16.9743991 L16.055,18.3833991 C16.249,18.5783991 16.504,18.6753991 16.758,18.6753991 C17.013,18.6753991 17.268,18.5783991 17.461,18.3833991 C17.85,17.9943991 17.85,17.3643991 17.461,16.9743991 L16.055,15.5653991 Z M18.044,11.0243991 L16.055,11.0243991 C15.505,11.0243991 15.06,11.4743991 15.06,12.0243991 C15.06,12.5743991 15.505,13.0243991 16.055,13.0243991 L18.044,13.0243991 C18.594,13.0243991 19.039,12.5743991 19.039,12.0243991 C19.039,11.4743991 18.594,11.0243991 18.044,11.0243991 L18.044,11.0243991 Z M15.352,8.71139914 C15.606,8.71139914 15.861,8.61339914 16.055,8.41939914 L17.461,7.00939914 C17.85,6.62039914 17.85,5.99039914 17.461,5.60039914 C17.073,5.21139914 16.444,5.21139914 16.055,5.60039914 L14.649,7.00939914 C14.26,7.39839914 14.26,8.02939914 14.649,8.41939914 C14.842,8.61339914 15.097,8.71139914 15.352,8.71139914 L15.352,8.71139914 Z M11.146,5.19939914 L8.27,9.02439914 L6.029,9.02439914 C4.935,9.02439914 4,9.93139914 4,11.0273991 L4,13.0213991 C4,14.1173991 4.935,15.0243991 6.029,15.0243991 L8.27,15.0243991 L11.146,18.8163991 C11.435,19.1953991 12,18.9693991 12,18.4933991 L12,5.49139914 C12,5.01539914 11.435,4.82139914 11.146,5.19939914 L11.146,5.19939914 Z"/>
</svg>
