<svg xmlns="http://www.w3.org/2000/svg" width="24" height="24" viewBox="0 0 24 24">
  <path d="M14,7 C11.906,7 11,7.969 11,7.969 L11,16.469 C11,16.844 11.063,17.469 12,17.469 L19,17.469 C20.708,17.469 22,16.05 22,13.969 C22,12.307 20.703,10.469 18,10.469 C17.531,8.284 16.283,7 14,7 Z M9,10.469 L9,17.469 L10,17.469 L10,10.469 C10,10.193 9.776,9.969 9.5,9.969 C9.224,9.969 9,10.193 9,10.469 Z M3,14.469 L3,17.469 L4,17.469 L4,14.469 C4,14.193 3.776,13.969 3.5,13.969 C3.224,13.969 3,14.193 3,14.469 Z M7,9.469 L7,17.469 L8,17.469 L8,9.469 C8,9.193 7.776,8.969 7.5,8.969 C7.224,8.969 7,9.193 7,9.469 Z M5,12.469 L5,17.469 L6,17.469 L6,12.469 C6,12.193 5.776,11.969 5.5,11.969 C5.224,11.969 5,12.193 5,12.469 Z"/>
</svg>
