<svg xmlns="http://www.w3.org/2000/svg" width="24" height="24" viewBox="0 0 24 24">
  <path d="M9.781,9.759 L13,7.2 L13,17.8 L9.781,15.24 C9.599,15.085 9.369,15 9.13,15 L6,15 C5.447,15 5,14.552 5,14 L5,11 C5,10.447 5.447,10 6,10 L9.13,10 C9.369,10 9.599,9.914 9.781,9.759 L9.781,9.759 Z M6,9 C4.895,9 4,9.895 4,11 L4,14 C4,15.104 4.895,16 6,16 L9,16 L14,20 L14,5 L9,9 L6,9 Z M16,8 L16,9 C18,9 19.5,10.57 19.5,12.5 C19.5,14.429 18,16 16,16 L16,17 C18.512,17 20.5,14.981 20.5,12.5 C20.5,10.018 18.489,8 16,8 L16,8 Z M18,12.5 C18,11.475 17,10.641 16,10.641 L16,11.641 C16.581,11.641 16.967,12.026 16.967,12.5 C16.967,12.973 16.598,13.358 16,13.358 L16,14.358 C17,14.358 18,13.524 18,12.5 L18,12.5 Z"/>
</svg>
