<svg xmlns="http://www.w3.org/2000/svg" width="24" height="24" viewBox="0 0 24 24">
  <path d="M17.05,7.39995043 C16.719,6.95795043 16.094,6.86895043 15.651,7.19995043 C15.208,7.53095043 15.119,8.15795043 15.45,8.59895043 L17.25,10.9999504 L7.25,10.9999504 L9.05,8.59895043 C9.381,8.15795043 9.292,7.53095043 8.85,7.19995043 C8.407,6.86895043 7.781,6.95795043 7.45,7.39995043 L4,11.9999504 L7.45,16.5989504 C7.647,16.8619504 7.947,16.9999504 8.251,16.9999504 C8.459,16.9999504 8.67,16.9339504 8.85,16.7989504 C9.292,16.4679504 9.381,15.8409504 9.05,15.3999504 L7.25,12.9999504 L17.25,12.9999504 L15.45,15.3999504 C15.119,15.8409504 15.208,16.4679504 15.651,16.7989504 C15.83,16.9339504 16.041,16.9999504 16.249,16.9999504 C16.553,16.9999504 16.854,16.8619504 17.05,16.5989504 L20.5,11.9999504 L17.05,7.39995043 Z"/>
</svg>
