<svg xmlns="http://www.w3.org/2000/svg" width="24" height="24" viewBox="0 0 24 24">
  <path d="M11.9,17 L11.9,19 L11.099,19 L11.099,17 L11.9,17 Z M17.582,6 C18.3189412,6 18.924782,6.56249135 18.9935074,7.28062528 L19,7.417 L19,16.583 C19,17.319 18.4375087,17.9247855 17.718541,17.9935076 L17.582,18 L13.437,18 L13.437,17.055 L17.582,17.055 C17.814,17.055 18.007284,16.8874938 18.0473717,16.6676639 L18.055,16.583 L18.055,7.417 C18.055,7.18588889 17.8874938,6.9927037 17.6669616,6.95262689 L17.582,6.945 L13.437,6.945 L13.437,6 L17.582,6 Z M9.563,6 L9.563,6.945 L5.418,6.945 C5.186,6.945 4.99271605,7.11250617 4.95262826,7.33233608 L4.945,7.417 L4.945,16.583 C4.945,16.8141111 5.11250617,17.0072963 5.33303841,17.0473731 L5.418,17.055 L9.563,17.055 L9.563,18 L5.418,18 C4.68105882,18 4.07521799,17.4375087 4.00649257,16.7193747 L4,16.583 L4,7.417 C4,6.681 4.56249135,6.07521453 5.28145899,6.00649237 L5.418,6 L9.563,6 Z M11.9,13 L11.9,15 L11.099,15 L11.099,13 L11.9,13 Z M11.9,9 L11.9,11 L11.099,11 L11.099,9 L11.9,9 Z M11.9,5 L11.9,7 L11.099,7 L11.099,5 L11.9,5 Z"/>
</svg>
