<svg xmlns="http://www.w3.org/2000/svg" width="24" height="24" viewBox="0 0 24 24">
  <path d="M12,4 C16.418,4 20,7.582 20,12 C20,16.418 16.418,20 12,20 C7.582,20 4,16.418 4,12 C4,7.582 7.582,4 12,4 Z M13.4005486,14.9791876 C12.6770855,14.5221777 11.3134371,14.5221777 10.5956826,14.9815841 C10.2468119,15.2048825 10.1450155,15.6687171 10.3683138,16.0175877 C10.5916122,16.3664584 11.0554468,16.4682548 11.4043174,16.2449564 C11.6303924,16.1002547 12.3665897,16.1002547 12.5994514,16.247353 C12.9496456,16.4685698 13.4128658,16.364013 13.6340827,16.0138188 C13.8552995,15.6636246 13.7507428,15.2004045 13.4005486,14.9791876 Z M15.2982507,12.0341487 C13.7412128,11.3593108 10.2959998,11.3593108 8.70765339,12.0316197 C8.32620352,12.1930783 8.14786534,12.6331926 8.30932391,13.0146424 C8.45732761,13.3643048 8.83947947,13.543297 9.19595718,13.4463366 L9.29234661,13.4129719 C10.5049569,12.8997031 13.5233308,12.8997031 14.7017493,13.410443 C15.0818024,13.5751623 15.5234278,13.4005997 15.6881471,13.0205466 C15.8528665,12.6404934 15.6783039,12.198868 15.2982507,12.0341487 Z M16.3834504,9.2851775 C14.2256443,8.00150567 10.0239919,8.00150567 7.64732427,9.26783764 C7.28176357,9.46261507 7.14331636,9.91685887 7.33809379,10.2824196 C7.53287122,10.6479803 7.98711502,10.7864275 8.35267573,10.5916501 C10.2776008,9.56601482 13.9216413,9.56601482 15.6165496,10.5743102 C15.9725338,10.786084 16.4327925,10.6691784 16.6445664,10.3131943 C16.8563402,9.9572101 16.7394346,9.49695132 16.3834504,9.2851775 Z"/>
</svg>
