<svg xmlns="http://www.w3.org/2000/svg" width="24" height="24" viewBox="0 0 24 24">
  <path d="M16,15 L19,17.5 L16,20 L16,18 L8,18 L8,20 L5,17.5 L8,15 L8,17 L16,17 L16,15 Z M16.4361148,5 C17.3276335,5 17.6509198,5.09282561 17.9768457,5.2671327 C18.3027716,5.4414398 18.5585602,5.69722837 18.7328673,6.0231543 C18.8937662,6.324009 18.985237,6.6226145 18.9983574,7.36797723 L19,11.4361148 C19,12.3276335 18.9071744,12.6509198 18.7328673,12.9768457 C18.5585602,13.3027716 18.3027716,13.5585602 17.9768457,13.7328673 C17.675991,13.8937662 17.3773855,13.985237 16.6320228,13.9983574 L7.5638852,14 C6.67236646,14 6.34908022,13.9071744 6.0231543,13.7328673 C5.69722837,13.5585602 5.4414398,13.3027716 5.2671327,12.9768457 C5.09282561,12.6509198 5,12.3276335 5,11.4361148 L5,7.5638852 C5,6.67236646 5.09282561,6.34908022 5.2671327,6.0231543 C5.4414398,5.69722837 5.69722837,5.4414398 6.0231543,5.2671327 C6.34908022,5.09282561 6.67236646,5 7.5638852,5 L16.4361148,5 Z M9,8 L7,9.5 L9,11 L9,8 Z M15,8 L15,11 L17,9.5 L15,8 Z"/>
</svg>
