<svg xmlns="http://www.w3.org/2000/svg" width="24" height="24" viewBox="0 0 24 24">
  <path d="M9,8 C6.790861,8 5,9.790861 5,12 C5,14.209139 6.790861,16 9,16 L15,16 C17.209139,16 19,14.209139 19,12 C19,9.790861 17.209139,8 15,8 L9,8 Z M9,7 L15,7 C17.7614237,7 20,9.23857625 20,12 C20,14.7614237 17.7614237,17 15,17 L9,17 C6.23857625,17 4,14.7614237 4,12 C4,9.23857625 6.23857625,7 9,7 Z M15,10 C13.8954305,10 13,10.8954305 13,12 C13,13.1045695 13.8954305,14 15,14 C16.1045695,14 17,13.1045695 17,12 C17,10.8954305 16.1045695,10 15,10 Z M15,9 C16.6568542,9 18,10.3431458 18,12 C18,13.6568542 16.6568542,15 15,15 C13.3431458,15 12,13.6568542 12,12 C12,10.3431458 13.3431458,9 15,9 Z"/>
</svg>
