<svg xmlns="http://www.w3.org/2000/svg" width="24" height="24" viewBox="0 0 24 24">
  <path fill-rule="evenodd" d="M5.5,18 C4.67157288,18 4,17.3284271 4,16.5 L4,7.5 C4,6.67157288 4.67157288,6 5.5,6 L18.5,6 C19.3284271,6 20,6.67157288 20,7.5 L20,16.5 C20,17.3284271 19.3284271,18 18.5,18 L5.5,18 Z M9,10 L5,10 L5,16.5 C5,16.7761424 5.22385763,17 5.5,17 L9,17 L9,10 Z M10,10 L10,17 L14,17 L14,10 L10,10 Z M18.5,7 L5.5,7 C5.22385763,7 5,7.22385763 5,7.5 L5,9 L19,9 L19,7.5 C19,7.22385763 18.7761424,7 18.5,7 Z M15,17 L18.5,17 C18.7761424,17 19,16.7761424 19,16.5 L19,10 L15,10 L15,17 Z"/>
</svg>
