<svg xmlns="http://www.w3.org/2000/svg" width="24" height="24" viewBox="0 0 24 24">
  <path d="M14.8,7.71428571 C15.4171429,7.70285714 16.0114286,7.94285714 16.4685714,8.38857143 L19.6571429,11.4742857 C19.8628571,11.68 19.9885714,11.9771429 19.9885714,12.2857143 C19.9885714,12.5828571 19.8628571,12.88 19.6571429,13.0971429 L16.4685714,16.1828571 C16.0114286,16.6171429 15.4171429,16.8571429 14.8,16.8571429 L6.35428571,16.8571429 C5.72571429,16.8685714 5.13142857,16.64 4.68571429,16.2057143 C4.24,15.7714286 4,15.1885714 4,14.5714286 L4,10 C4,9.37142857 4.24,8.78857143 4.68571429,8.35428571 C5.13142857,7.92 5.72571429,7.69142857 6.35428571,7.71428571 L14.8,7.71428571 Z M14.8,8.85714286 L6.21714286,8.84571429 C5.94285714,8.86857143 5.69142857,8.97142857 5.49714286,9.16571429 C5.26857143,9.38285714 5.13142857,9.68 5.13142857,10 L5.13142857,14.5714286 C5.13142857,14.88 5.26857143,15.1771429 5.49714286,15.3942857 C5.72571429,15.6114286 6.03428571,15.7257143 6.35428571,15.7142857 L14.8,15.7142857 C15.12,15.7142857 15.4285714,15.5885714 15.6685714,15.3714286 L18.8457143,12.2857143 L15.6685714,9.2 C15.4285714,8.97142857 15.12,8.84571429 14.8,8.85714286 Z M13.1428571,10 C14.4052223,10 15.4285714,11.0233491 15.4285714,12.2857143 C15.4285714,13.5480794 14.4052223,14.5714286 13.1428571,14.5714286 C11.880492,14.5714286 10.8571429,13.5480794 10.8571429,12.2857143 C10.8571429,11.0171429 11.8742857,10 13.1428571,10 Z M13.1428571,11.1428571 C12.5028571,11.1428571 12,11.6457143 12,12.2857143 C12,12.9142857 12.5028571,13.4285714 13.1428571,13.4285714 C13.7714286,13.4285714 14.2857143,12.9142857 14.2857143,12.2857143 C14.2857143,11.6457143 13.7714286,11.1428571 13.1428571,11.1428571 Z"/>
</svg>
