<svg xmlns="http://www.w3.org/2000/svg" xmlns:xlink="http://www.w3.org/1999/xlink" width="24" height="24" viewBox="0 0 24 24">
  <defs>
    <path id="textcolor-a" d="M17.9578,20 C15.0238,20 13.9998,17.489 13.9998,16 C13.9998,13.156 17.9578,6.958 17.9578,6.958 C17.9578,6.958 21.9998,13.156 21.9998,16 C21.9998,17.489 20.8928,20 17.9578,20"/>
  </defs>
  <g fill="none" fill-rule="evenodd">
    <path fill="#000" d="M17.9488,5.078 L18.7958,6.376 C19.2268,7.036 22.9998,12.947 22.9998,16 C22.9998,18.059 21.4358,21 17.9578,21 C14.3458,21 12.9998,17.917 12.9998,16 C12.9998,12.952 16.6938,7.043 17.1148,6.384 L17.1148,6.384 L17.9488,5.078 Z M17.9578,6.958 C17.9578,6.958 13.9998,13.156 13.9998,16 C13.9998,17.489 15.0238,20 17.9578,20 C20.8928,20 21.9998,17.489 21.9998,16 C21.9998,13.156 17.9578,6.958 17.9578,6.958 Z M7.723,3 C8.458,3 9.101,3.451 9.401,4.178 L9.401,4.178 L12,11.004 L11.5,15 L10.392,12 L4.773,12 L3,16 L1,16 L6.043,4.178 C6.343,3.451 6.986,3 7.722,3 L7.722,3 Z M7.722,5.352 L5.66,10 L9.589,10 L7.722,5.352 Z"/>
    <use fill="#000" xlink:href="#textcolor-a"/>
  </g>
</svg>
