<svg xmlns="http://www.w3.org/2000/svg" width="24" height="24" viewBox="0 0 24 24">
  <path d="M18.0001683,5 L18.0001683,19 L16.0001683,19 L16.0001683,5 L18.0001683,5 Z M15.0001683,5 L15.0001683,19 L13.0001683,19 L13.0001683,11 L11.6951683,11 C9.87816831,11 8.40416831,9.818 8.40416831,8 C8.40416831,6.24468966 9.77826581,5.08227348 11.5084727,5.00419402 L11.6951683,5 L15.0001683,5 Z M7.60716831,13.205 L11.0001683,16 L7.60716831,18.795 C7.42616831,18.934 7.21316831,19 7.00116831,19 C6.69916831,19 6.40216831,18.864 6.20516831,18.606 C5.87016831,18.168 5.95416831,17.54 6.39316831,17.205 L8.00016831,16 L6.39316831,14.795 C5.95416831,14.46 5.87016831,13.832 6.20516831,13.394 C6.54016831,12.955 7.16716831,12.868 7.60716831,13.205 Z"/>
</svg>
