<svg xmlns="http://www.w3.org/2000/svg" width="24" height="24" viewBox="0 0 24 24">
  <path fill-rule="evenodd" d="M18,17 L18,19 L5,19 L5,17 L18,17 Z M12,14 L12,16 L5,16 L5,14 L12,14 Z M14.3238,9.2879 C14.6274923,8.87713077 15.1825456,8.76458639 15.6169325,9.00532376 L15.7228,9.0729 L18.9998,11.9999 L15.7228,14.6869 C15.5438,14.8179 15.3368,14.8799 15.1318,14.8799 C14.8238,14.8799 14.5208,14.7379 14.3238,14.4719 C14.0228769,14.0602077 14.0815278,13.4959947 14.4423362,13.1536478 L14.5388,13.0729 L15.9998,11.9999 L14.5388,10.6869 C14.0938,10.3589 13.9978,9.7339 14.3238,9.2879 Z M12,11 L12,13 L5,13 L5,11 L12,11 Z M12,8 L12,10 L5,10 L5,8 L12,8 Z M18,5 L18,7 L5,7 L5,5 L18,5 Z"/>
</svg>
