<svg xmlns="http://www.w3.org/2000/svg" width="24" height="24" viewBox="0 0 24 24">
  <path d="M7,5 L17,5 C18.1045695,5 19,5.8954305 19,7 L19,17 C19,18.1045695 18.1045695,19 17,19 L7,19 C5.8954305,19 5,18.1045695 5,17 L5,7 C5,5.8954305 5.8954305,5 7,5 Z M7,6 C6.44771525,6 6,6.44771525 6,7 L6,17 C6,17.5522847 6.44771525,18 7,18 L17,18 C17.5522847,18 18,17.5522847 18,17 L18,7 C18,6.44771525 17.5522847,6 17,6 L7,6 Z M9,13 L9,9 L8,9 L8,8 L11,8 L11,9 L10,9 L10,13 L11,13 L11,14 L8,14 L8,13 L9,13 Z"/>
</svg>
