<svg xmlns="http://www.w3.org/2000/svg" width="24" height="24" viewBox="0 0 24 24">
  <path fill-rule="evenodd" d="M18.9998,17 L18.9998,19 L5.9998,19 L5.9998,17 L18.9998,17 Z M18.9998,14 L18.9998,16 L11.9998,16 L11.9998,14 L18.9998,14 Z M9.676,9.2879 C10.002,9.7339 9.906,10.3589 9.461,10.6869 L8,11.9999 L9.461,13.0729 C9.906,13.4009 10.002,14.0259 9.676,14.4719 C9.479,14.7379 9.176,14.8799 8.868,14.8799 C8.663,14.8799 8.456,14.8179 8.277,14.6869 L5,11.9999 L8.277,9.0729 C8.723,8.7479 9.347,8.8429 9.676,9.2879 Z M18.9998,11 L18.9998,13 L11.9998,13 L11.9998,11 L18.9998,11 Z M18.9998,8 L18.9998,10 L11.9998,10 L11.9998,8 L18.9998,8 Z M18.9998,5 L18.9998,7 L5.9998,7 L5.9998,5 L18.9998,5 Z"/>
</svg>
