<svg xmlns="http://www.w3.org/2000/svg" width="24" height="24" viewBox="0 0 24 24">
  <path fill-rule="evenodd" d="M18,17 L18,19 L5,19 L5,17 L18,17 Z M12,14 L12,16 L5,16 L5,14 L12,14 Z M17.408,9.0729 C17.854,8.7459 18.479,8.8439 18.806,9.2879 C19.1078462,9.69959231 19.0492663,10.2638053 18.6884634,10.6061522 L17,11.9999 L18.592,13.0729 C19.037,13.4009 19.133,14.0259 18.806,14.4719 C18.61,14.7379 18.307,14.8799 17.999,14.8799 C17.835,14.8799 17.66908,14.83958 17.518136,14.756892 L17.408,14.6869 L14,11.9999 L17.408,9.0729 Z M12,11 L12,13 L5,13 L5,11 L12,11 Z M12,8 L12,10 L5,10 L5,8 L12,8 Z M18,5 L18,7 L5,7 L5,5 L18,5 Z"/>
</svg>
