<svg xmlns="http://www.w3.org/2000/svg" width="24" height="24" viewBox="0 0 24 24">
  <path d="M19,17 L19,20 L16,20 L16,19 L18,19 L18,17 L19,17 Z M16.5,4 C17.2783529,4 17.9202907,4.59615225 17.9931195,5.35576308 L18,5.5 L18,9 L17,9 L17,5.5 C17,5.25466667 16.8230123,5.05041975 16.5898381,5.00806036 L16.5,5 L12,5 L12,17 L15,17 L15,18 L8,18 L8,17 L11,17 L11,5 L6.5,5 C6.25466667,5 6.05041975,5.17698765 6.00806036,5.41016187 L6,5.5 L6,9 L5,9 L5,5.5 C5,4.72164706 5.59615225,4.07970934 6.35576308,4.00688052 L6.5,4 L16.5,4 Z"/>
</svg>
