<svg xmlns="http://www.w3.org/2000/svg" width="24" height="24" viewBox="0 0 24 24">
  <path d="M19.0000964,17 L19.0000964,19 L6.00009637,19 L6.00009637,17 L19.0000964,17 Z M19.0000964,14 L19.0000964,16 L12.0000964,16 L12.0000964,14 L19.0000964,14 Z M6.59209637,9.0729 L10.0000964,11.9999 L6.59209637,14.6869 C6.41409637,14.8169 6.20609637,14.8799 6.00109637,14.8799 C5.69309637,14.8799 5.39009637,14.7379 5.19409637,14.4719 C4.86709637,14.0259 4.96309637,13.4009 5.40809637,13.0729 L7.00009637,11.9999 L5.40809637,10.6869 C4.96309637,10.3589 4.86709637,9.7339 5.19409637,9.2879 C5.52109637,8.8439 6.14609637,8.7459 6.59209637,9.0729 Z M19.0000964,11 L19.0000964,13 L12.0000964,13 L12.0000964,11 L19.0000964,11 Z M19.0000964,8 L19.0000964,10 L12.0000964,10 L12.0000964,8 L19.0000964,8 Z M19.0000964,5 L19.0000964,7 L6.00009637,7 L6.00009637,5 L19.0000964,5 Z"/>
</svg>
