<svg xmlns="http://www.w3.org/2000/svg" width="24" height="24" viewBox="0 0 24 24">
  <path d="M12.9960001,5 L12.9960001,19 L10.9960001,19 L10.9960001,5 L12.9960001,5 Z M9.9960001,5 L9.9960001,19 L7.9960001,19 L7.9960001,11 L6.6910001,11 C4.8740001,11 3.4000001,9.818 3.4000001,8 C3.4000001,6.24468966 4.7740976,5.08227348 6.50430449,5.00419402 L6.6910001,5 L9.9960001,5 Z M19.7510001,13.394 C20.0860001,13.832 20.0020001,14.46 19.5630001,14.795 L17.9960001,16 L19.5630001,17.205 C20.0020001,17.54 20.0860001,18.168 19.7510001,18.606 C19.5550001,18.864 19.2570001,19 18.9550001,19 C18.7440001,19 18.5300001,18.934 18.3500001,18.795 L14.9960001,16 L18.3500001,13.205 C18.7880001,12.868 19.4160001,12.955 19.7510001,13.394 Z"/>
</svg>
