<svg xmlns="http://www.w3.org/2000/svg" width="24" height="24" viewBox="0 0 24 24">
  <path d="M10.967,4 C10.873,4.824 10.703,5.503 10.456,6.037 C10.209,6.57 9.881,7.027 9.473,7.408 C9.064,7.789 8.573,8.081 8,8.285 L8,10.564 L9.604,10.564 L9.604,16.172 C9.604,16.902 9.673,17.46 9.814,17.845 C9.953,18.229 10.205,18.593 10.569,18.935 C10.931,19.276 11.369,19.539 11.884,19.724 C12.398,19.907 12.988,20 13.657,20 C14.247,20 14.795,19.936 15.302,19.807 C15.809,19.677 16.374,19.452 17,19.13 L17,16.614 C16.267,17.141 15.529,17.404 14.788,17.404 C14.371,17.404 14.001,17.298 13.678,17.085 C13.433,16.929 13.266,16.718 13.176,16.455 C13.086,16.191 13.041,15.596 13.041,14.668 L13.041,10.564 L16.518,10.564 L16.518,8.053 L13.041,8.053 L13.041,4 L10.967,4 Z"/>
</svg>
