<svg xmlns="http://www.w3.org/2000/svg" width="24" height="24" viewBox="0 0 24 24">
  <path d="M20.007,8.443 C19.456,8.687 18.862,8.853 18.24,8.927 C18.875,8.547 19.363,7.944 19.593,7.225 C18.998,7.578 18.34,7.834 17.639,7.971 C17.078,7.374 16.278,7 15.393,7 C13.694,7 12.316,8.378 12.316,10.078 C12.316,10.318 12.343,10.553 12.395,10.779 C9.837,10.65 7.569,9.425 6.052,7.563 C5.787,8.017 5.635,8.547 5.635,9.11 C5.635,10.178 5.943,11.12 6.769,11.672 C6.264,11.656 6.138,11.517 5.138,11.287 L5.138,11.326 C5.138,12.817 6.435,14.06 7.843,14.343 C7.584,14.414 7.431,14.451 7.15,14.451 C6.951,14.451 6.818,14.432 6.63,14.396 C7.022,15.619 8.188,16.508 9.534,16.533 C8.481,17.359 7.168,17.85 5.727,17.85 C5.479,17.85 5.24,17.836 5,17.807 C6.362,18.68 7.984,19.19 9.722,19.19 C15.382,19.19 18.479,14.501 18.479,10.434 C18.479,10.3 18.477,10.169 18.471,10.036 C19.072,9.602 19.595,9.06 20.007,8.443"/>
</svg>
