<svg xmlns="http://www.w3.org/2000/svg" width="24" height="24" viewBox="0 0 24 24">
  <path d="M17.127,8.13638806 C15.919,6.91438806 14.313,6.24138806 12.605,6.24138806 C10.897,6.24138806 9.29,6.91438806 8.082,8.13638806 L6.263,9.97638806 L6.463,7.08238806 C6.501,6.52438806 6.084,6.04138806 5.533,6.00238806 C4.984,5.96438806 4.504,6.38438806 4.465,6.94138806 L4,13.6963881 L10.679,13.2263881 C11.231,13.1883881 11.647,12.7033881 11.608,12.1463881 C11.569,11.5883881 11.086,11.1713881 10.54,11.2063881 L7.678,11.4083881 L9.497,9.56838806 C10.327,8.72838806 11.431,8.26638806 12.605,8.26638806 C13.778,8.26638806 14.882,8.72838806 15.712,9.56838806 C16.541,10.4073881 16.999,11.5233881 16.999,12.7103881 C16.999,13.8973881 16.541,15.0133881 15.712,15.8523881 L15.004,16.5683881 L16.419,17.9993881 L17.127,17.2833881 C18.335,16.0623881 19,14.4383881 19,12.7103881 C19,10.9823881 18.335,9.35838806 17.127,8.13638806"/>
</svg>
