<svg xmlns="http://www.w3.org/2000/svg" xmlns:xlink="http://www.w3.org/1999/xlink" width="24" height="24" viewBox="0 0 24 24">
  <defs>
    <path id="ungroup-a" d="M6,18 L11,18 L11,13 L6,13 L6,18 Z M11,12 L6,12 C5.447,12 5,12.447 5,13 L5,18 C5,18.553 5.447,19 6,19 L11,19 C11.553,19 12,18.553 12,18 L12,13 C12,12.447 11.553,12 11,12 L11,12 Z M16,13 L18,13 L18,11 L16,11 L16,13 Z M18,10 L16,10 C15.447,10 15,10.447 15,11 L15,13 C15,13.553 15.447,14 16,14 L18,14 C18.553,14 19,13.553 19,13 L19,11 C19,10.447 18.553,10 18,10 L18,10 Z M9,9 L12,9 L12,6 L9,6 L9,9 Z M12,5 L9,5 C8.447,5 8,5.447 8,6 L8,9 C8,9.553 8.447,10 9,10 L12,10 C12.553,10 13,9.553 13,9 L13,6 C13,5.447 12.553,5 12,5 L12,5 Z"/>
  </defs>
  <g fill="none" fill-rule="evenodd">
    <mask id="ungroup-b" fill="#fff">
      <use xlink:href="#ungroup-a"/>
    </mask>
    <use fill="#000" fill-rule="nonzero" xlink:href="#ungroup-a"/>
    <path fill="#000" fill-rule="nonzero" d="M6,18 L11,18 L11,13 L6,13 L6,18 Z M11,12 L6,12 C5.447,12 5,12.447 5,13 L5,18 C5,18.553 5.447,19 6,19 L11,19 C11.553,19 12,18.553 12,18 L12,13 C12,12.447 11.553,12 11,12 L11,12 Z M16,13 L18,13 L18,11 L16,11 L16,13 Z M18,10 L16,10 C15.447,10 15,10.447 15,11 L15,13 C15,13.553 15.447,14 16,14 L18,14 C18.553,14 19,13.553 19,13 L19,11 C19,10.447 18.553,10 18,10 L18,10 Z M9,9 L12,9 L12,6 L9,6 L9,9 Z M12,5 L9,5 C8.447,5 8,5.447 8,6 L8,9 C8,9.553 8.447,10 9,10 L12,10 C12.553,10 13,9.553 13,9 L13,6 C13,5.447 12.553,5 12,5 L12,5 Z" mask="url(#ungroup-b)"/>
  </g>
</svg>
