<svg xmlns="http://www.w3.org/2000/svg" width="24" height="24" viewBox="0 0 24 24">
  <path d="M16,9 L15,9 L15,10 L16,10 C17.379,10 18,11.121 18,12.5 C18,13.879 17.379,15 16,15 L15,15 L15,16 L16,16 C17.934,16 19,14.433 19,12.5 C19,10.567 17.934,9 16,9 L16,9 Z M12,9.099 L12,6 L11,6 L11,9.099 L9.416,6.723 L8.584,7.139 L10.584,10 L12.416,10 L14.416,7.139 L13.584,6.653 L12,9.099 Z M4,12.5 C4,14.433 5.066,16 7,16 L8,16 L8,15 L7,15 C5.621,15 5,13.879 5,12.5 C5,11.121 5.621,10 7,10 L8,10 L8,9 L7,9 C5.066,9 4,10.567 4,12.5 L4,12.5 Z M10.584,15 L8.584,17.861 L9.416,18.347 L11,15.901 L11,19 L12,19 L12,15.901 L13.584,18.277 L14.416,17.861 L12.416,15 L10.584,15 Z"/>
</svg>
