<svg xmlns="http://www.w3.org/2000/svg" width="18" height="18" viewBox="0 0 18 18">
  <path d="M9.5205,10.3327 L11.5205,13.1937 L10.6885,13.6097 L9.1045,11.2337 L8.9365,11.2337 L7.3525,13.6797 L6.5205,13.1937 L8.5205,10.3327 L9.5205,10.3327 Z M6,6.3464 L6,7.3464 L5.5,7.3464 C4.673,7.3464 4,8.0194 4,8.8464 C4,9.62475294 4.59615225,10.2666907 5.35576308,10.3395195 L5.5,10.3464 L6,10.3464 L6,11.3464 L5.5,11.3464 C4.121,11.3464 3,10.2254 3,8.8464 C3,7.52256 4.0331136,6.4364928 5.33581363,6.35172557 L5.5,6.3464 L6,6.3464 Z M12.5,6.3464 C13.879,6.3464 15,7.4674 15,8.8464 C15,10.17024 13.9668864,11.2563072 12.6641864,11.3410744 L12.5,11.3464 L12,11.3464 L12,10.3464 L12.5,10.3464 C13.327,10.3464 14,9.6734 14,8.8464 C14,8.06804706 13.4038478,7.42610934 12.6442369,7.35328052 L12.5,7.3464 L12,7.3464 L12,6.3464 L12.5,6.3464 Z M10.6885,4 L11.5205,4.485 L9.5205,7.346 L8.5205,7.346 L6.5205,4.485 L7.3525,4.069 L8.9365,6.445 L9.1045,6.445 L10.6885,4 Z"/>
</svg>
