<svg xmlns="http://www.w3.org/2000/svg" width="24" height="24" viewBox="0 0 24 24">
  <path d="M10,10.9999 L8,10.9999 L10.5,7.9999 L13,10.9999 L11,10.9999 L11,12.9999 L10,12.9999 L10,10.9999 Z M11,15 L14.997,15 C15.55,15 16,14.55 16,13.997 L16,6 L5.999,6 C5.448,6 5,6.448 5,6.999 L5,15 L10,15 L10,13.9999 L11,13.9999 L11,15 Z M19,16.996 L19,9.333 L17,6.666 L17,13.997 C17,15.103 16.104,16 14.997,16 L5.414,16 L7.414,18 L17.996,18 C18.55,18 19,17.55 19,16.996 Z M17,5 L20,9 L20,16.996 C20,18.102 19.103,19 17.996,19 L7,19 L4,16 L4,6.999 C4,5.895 4.895,5 5.999,5 L17,5 Z"/>
</svg>
