<svg xmlns="http://www.w3.org/2000/svg" width="24" height="24" viewBox="0 0 24 24">
  <path d="M9.711,8.707 L11,7 L11,14.008 L13,14.008 L13,7 L14.297,8.707 C14.688,9.098 15.324,9.098 15.715,8.707 C16.106,8.316 16.105,7.684 15.714,7.293 L12,4 L8.301,7.293 C7.91,7.684 7.909,8.316 8.3,8.707 C8.69,9.098 9.321,9.098 9.711,8.707 L9.711,8.707 Z M17,13.008 L17,16.008 C17,16.56 16.553,17.008 16,17.008 L8,17.008 C7.447,17.008 7,16.56 7,16.008 L7,13.008 L5,13.008 L5,16.008 C5,17.658 6.35,19.008 8,19.008 L16,19.008 C17.65,19.008 19,17.658 19,16.008 L19,13.008 L17,13.008 Z"/>
</svg>
