<svg xmlns="http://www.w3.org/2000/svg" width="24" height="24" viewBox="0 0 24 24">
  <path d="M17.96885,14.9701 L17.96885,16.9701 L19.96885,16.9701 L19.96885,17.9701 L17.96885,17.9701 L17.96885,19.9701 L16.96885,19.9701 L16.96885,17.9701 L14.96885,17.9701 L14.96885,16.9701 L16.96885,16.9701 L16.96885,14.9701 L17.96885,14.9701 Z M8.66525,10.926 C9.85755769,9.73369231 11.7617737,9.68783432 12.9990646,10.788426 L13.14425,10.926 L12.44525,11.626 C11.63775,10.8185 10.351925,10.778125 9.50516625,11.504875 L9.37525,11.626 L6.63025,14.3 C5.78025,15.14 5.78025,16.52 6.63025,17.37 C7.40925,18.149 8.738775,18.18795 9.5728275,17.48685 L9.70025,17.37 L11.30025,15.77 L12.01025,16.48 L10.41025,18.07 C9.80925,18.67 9.01025,19 8.17025,19 C7.32025,19 6.53025,18.67 5.92925,18.07 C4.73790385,16.8873077 4.69208284,14.9834615 5.79178698,13.7364059 L5.92925,13.59 L8.66525,10.926 Z M13.59045,5.93 C14.83045,4.69 16.84045,4.69 18.07045,5.93 C18.67045,6.53 19.00045,7.32 19.00045,8.17 C19.00045,8.94 18.7231583,9.67638889 18.2147903,10.2559259 L18.07045,10.41 L15.40645,13.081 C14.78645,13.691 13.97645,14.001 13.15645,14.001 C12.41395,14.001 11.67145,13.7405139 11.0752984,13.2272442 L10.91645,13.081 L11.62645,12.371 C12.43395,13.1785 13.71075,13.218875 14.56518,12.492125 L14.69645,12.371 L17.37045,9.7 C17.78045,9.29 18.00945,8.75 18.00945,8.17 C18.00945,7.59 17.78045,7.04 17.37045,6.63 C16.562,5.8225 15.2761275,5.782125 14.42165,6.508875 L14.29045,6.63 L12.63045,8.29 L11.92945,7.59 L13.59045,5.93 Z"/>
</svg>
