<svg xmlns="http://www.w3.org/2000/svg" width="24" height="24" viewBox="0 0 24 24">
  <path d="M18.894,5.10625 C17.419,3.63125 15.02,3.63125 13.545,5.10625 L11.893,6.75825 C11.557,7.09525 11.557,7.64125 11.893,7.97825 C12.23,8.31425 12.776,8.31425 13.113,7.97825 L14.764,6.32525 C15.567,5.52325 16.873,5.52325 17.675,6.32525 C18.477,7.12725 18.477,8.43325 17.675,9.23525 L14.346,12.56425 C13.543,13.36725 12.239,13.36725 11.436,12.56425 C11.098,12.22725 10.552,12.22825 10.216,12.56425 C9.879,12.90125 9.879,13.44825 10.216,13.78425 C10.954,14.52125 11.922,14.89025 12.891,14.89025 C13.859,14.89025 14.828,14.52125 15.566,13.78425 L18.894,10.45525 C20.369,8.98025 20.369,6.58125 18.894,5.10625 M10.889,16.02225 L9.237,17.67425 C8.435,18.47625 7.13,18.47725 6.328,17.67425 C5.525,16.87225 5.525,15.56625 6.328,14.76425 L9.656,11.43525 C10.458,10.63225 11.764,10.63325 12.566,11.43525 C12.903,11.77225 13.448,11.77225 13.785,11.43525 C14.122,11.09825 14.122,10.55225 13.785,10.21525 C12.311,8.74125 9.912,8.74025 8.437,10.21525 L5.108,13.54425 C4.393,14.25925 4,15.20925 4,16.21925 C4,17.23025 4.393,18.17925 5.108,18.89425 C5.845,19.63125 6.814,20.00025 7.783,20.00025 C8.75,20.00025 9.719,19.63125 10.456,18.89425 L12.109,17.24125 C12.446,16.90425 12.446,16.35825 12.109,16.02225 C11.772,15.68525 11.226,15.68525 10.889,16.02225"/>
</svg>
