<svg xmlns="http://www.w3.org/2000/svg" width="18" height="18" viewBox="0 0 18 18">
  <path d="M6.07558229,7.31668229 C7.22182229,6.21076229 9.01318229,6.19601669 10.1756424,7.25386603 L10.3175823,7.39168229 L9.59858229,8.08568229 C8.87384545,7.33631387 7.69407259,7.27623077 6.89933021,7.92243838 L6.77058229,8.03668229 L4.61258229,10.1206823 C3.82158229,10.8846823 3.79858229,12.1566823 4.56258229,12.9486823 C5.28731913,13.6980507 6.46709198,13.7572363 7.26183437,13.1117845 L7.39058229,12.9976823 L8.11058229,12.3026823 L8.80458229,13.0226823 L8.08558229,13.7166823 C6.89158229,14.8706823 4.99658229,14.8366823 3.84358229,13.6436823 C2.73670229,12.4964823 2.72283989,10.7050839 3.77987669,9.54262219 L3.91758229,9.40068229 L6.07558229,7.31668229 Z M9.67208229,3.84358229 C10.8660823,2.69058229 12.7610823,2.72358229 13.9140823,3.91758229 C15.0209623,5.06382229 15.0348247,6.85610389 13.9777879,8.01775304 L13.8400823,8.15958229 L11.6830823,10.2435823 C10.5358823,11.3504623 8.74448389,11.3643247 7.58202219,10.3072879 L7.44008229,10.1695823 L8.15908229,9.47558229 C8.88381913,10.2249507 10.063592,10.2841363 10.8583344,9.63868449 L10.9870823,9.52458229 L13.1450823,7.44058229 C13.9360823,6.67658229 13.9590823,5.40358229 13.1950823,4.61258229 C12.4712928,3.86321387 11.2906723,3.80313077 10.4958381,4.44933838 L10.3670823,4.56358229 L9.64708229,5.25758229 L8.95308229,4.53858229 L9.67208229,3.84358229 Z"/>
</svg>
