<svg xmlns="http://www.w3.org/2000/svg" width="24" height="24" viewBox="0 0 24 24">
  <path d="M8.66525,10.9259 C9.85755769,9.73359231 11.7617737,9.68773432 12.9990646,10.788326 L13.14425,10.9259 L12.44525,11.6259 C11.63775,10.8184 10.351925,10.778025 9.50516625,11.504775 L9.37525,11.6259 L6.63025,14.2999 C5.78025,15.1399 5.78025,16.5199 6.63025,17.3699 C7.40925,18.1489 8.738775,18.18785 9.5728275,17.48675 L9.70025,17.3699 L11.30025,15.7699 L12.01025,16.4799 L10.41025,18.0699 C9.80925,18.6699 9.01025,18.9999 8.17025,18.9999 C7.32025,18.9999 6.53025,18.6699 5.92925,18.0699 C4.73790385,16.8872077 4.69208284,14.9833615 5.79178698,13.7363059 L5.92925,13.5899 L8.66525,10.9259 Z M18.50445,14.8694 L19.07045,15.4344 L17.58545,16.9194 L19.07045,18.4044 L18.50445,18.9704 L17.01945,17.4854 L15.53445,18.9704 L14.96845,18.4044 L16.45445,16.9194 L14.96845,15.4344 L15.53445,14.8694 L17.01945,16.3534 L18.50445,14.8694 Z M13.59045,5.93 C14.83045,4.69 16.84045,4.69 18.07045,5.93 C18.67045,6.53 19.00045,7.32 19.00045,8.17 C19.00045,8.94 18.7231583,9.67638889 18.2147903,10.2559259 L18.07045,10.41 L15.40645,13.081 C14.78645,13.691 13.97645,14.001 13.15645,14.001 C12.41395,14.001 11.67145,13.7405139 11.0752984,13.2272442 L10.91645,13.081 L11.62645,12.371 C12.43395,13.1785 13.71075,13.218875 14.56518,12.492125 L14.69645,12.371 L17.37045,9.7 C17.78045,9.29 18.00945,8.75 18.00945,8.17 C18.00945,7.59 17.78045,7.04 17.37045,6.63 C16.562,5.8225 15.2761275,5.782125 14.42165,6.508875 L14.29045,6.63 L12.63045,8.29 L11.92945,7.59 L13.59045,5.93 Z"/>
</svg>
