<svg xmlns="http://www.w3.org/2000/svg" xmlns:xlink="http://www.w3.org/1999/xlink" width="24" height="24" viewBox="0 0 24 24">
  <path d="M20.4735,15.26175 C20.8215,14.91275 21.3905,14.91275 21.7375,15.26175 C22.0574167,15.5825833 22.0840764,16.0849167 21.8174792,16.4352297 L21.7375,16.52675 L20.2645,17.99975 L21.7375,19.47275 C22.0865,19.82175 22.0865,20.38775 21.7375,20.73775 C21.5645,20.91275 21.3345,20.99975 21.1055,20.99975 C20.9138333,20.99975 20.7235556,20.9393333 20.5647593,20.8179213 L20.4735,20.73775 L18.9995,19.26475 L17.5265,20.73775 C17.3525,20.91275 17.1235,20.99975 16.8945,20.99975 C16.6645,20.99975 16.4355,20.91275 16.2625,20.73775 C15.9416667,20.4169167 15.9149306,19.9145833 16.1822917,19.5642703 L16.2625,19.47275 L17.7355,17.99975 L16.2625,16.52675 C15.9125,16.17775 15.9125,15.61175 16.2625,15.26175 C16.5805833,14.9418333 17.0852083,14.9151736 17.4351522,15.1817708 L17.5265,15.26175 L18.9995,16.73475 L20.4735,15.26175 Z M6.43525013,11.1503 C7.91025013,9.6723 10.3102501,9.6723 11.7842501,11.1503 C12.1212501,11.4873 12.1212501,12.0343 11.7852501,12.3713 C11.4482501,12.7103 10.9022501,12.7093 10.5652501,12.3723 C9.80335013,11.60945 8.58568763,11.570405 7.77821138,12.2577371 L7.65425013,12.3723 L4.32525013,15.7083 C3.52325013,16.5123 3.52325013,17.8213 4.32625013,18.6253 C5.08815013,19.3891 6.30400763,19.42729 7.11216075,18.73987 L7.23625013,18.6253 L8.88825013,16.9693 C9.22325013,16.6323 9.77225013,16.6323 10.1072501,16.9693 C10.4152501,17.2782167 10.4409168,17.7644319 10.1842501,18.1028984 L10.1072501,18.1913 L8.45525013,19.8473 C7.71725013,20.5863 6.74925013,20.9553 5.78125013,20.9553 C4.81225013,20.9553 3.84325013,20.5863 3.10725013,19.8473 C1.68214668,18.4202655 1.63300518,16.129992 2.95802548,14.6425237 L3.10525013,14.4863 L6.43525013,11.1503 Z M11.5442501,6.0293 C12.9712501,4.5973 15.4642501,4.5973 16.8932501,6.0293 C17.6072501,6.7453 18.0002501,7.6963 18.0002501,8.7093 C18.0002501,9.64437692 17.6653862,10.5274775 17.0515018,11.2209595 L16.8922501,11.3903 L13.5642501,14.7263 C12.8272501,15.4653 11.8592501,15.8343 10.8902501,15.8343 C9.92125013,15.8343 8.95325013,15.4653 8.21525013,14.7263 C7.87825013,14.3893 7.87825013,13.8423 8.21425013,13.5053 C8.55125013,13.1663 9.09725013,13.1673 9.43425013,13.5043 C10.1961501,14.26715 11.4129101,14.306195 12.2211535,13.6188629 L12.3452501,13.5043 L15.6722501,10.1683 C16.0622501,9.7783 16.2772501,9.2603 16.2772501,8.7093 C16.2772501,8.1593 16.0622501,7.6413 15.6732501,7.2513 C14.9361975,6.5133 13.6812834,6.47445789 12.8914195,7.13477368 L12.7642501,7.2513 L11.1112501,8.9073 C10.7762501,9.2453 10.2272501,9.2453 9.89225013,8.9073 C9.58425013,8.59838333 9.55858346,8.11300833 9.81525013,7.77391169 L9.89225013,7.6853 L11.5442501,6.0293 Z"/>
</svg>
