<svg xmlns="http://www.w3.org/2000/svg" width="24" height="24" viewBox="0 0 24 24">
  <path d="M4,8 L4,9 L10.049,9 C10.12,8.652 10.228,8.317 10.368,8 L4,8 Z M4,12 L4,13 L9.473,13 C9.722,12.641 9.994,12.306 10.29,12 L4,12 Z M4,16 L4,17 L7.999,17 C8.001,16.838 8.015,16.673 8.045,16.507 C8.075,16.337 8.11,16.168 8.15,16 L4,16 Z M11.9468,10.004 C11.9468,10.978 12.4268,11.835 13.1568,12.384 C11.5658,13.054 10.3618,14.901 10.0148,16.857 C9.9078,17.455 10.4018,17.993 11.0198,17.994 C12.7388,17.995 16.0748,18 18.1868,18 L18.9808,18 C19.5978,17.999 20.0918,17.461 19.9848,16.863 C19.6398,14.904 18.4348,13.055 16.8418,12.384 C17.6868,11.75 18.1938,10.706 18.0168,9.544 C17.8268,8.301 16.8088,7.264 15.5498,7.047 C15.3628,7.016 15.1798,7 14.9988,7 C13.3128,7 11.9468,8.345 11.9468,10.004 Z M15.3738,8.033 C16.1968,8.175 16.8858,8.873 17.0108,9.692 C17.1218,10.426 16.8278,11.135 16.2248,11.588 C15.9358,11.804 15.7868,12.154 15.8318,12.508 C15.8758,12.86 16.1078,13.164 16.4408,13.305 C17.6388,13.809 18.7038,15.344 18.9998,17 L10.9998,17 C11.3008,15.31 12.3618,13.808 13.5578,13.305 C13.8908,13.164 14.1218,12.86 14.1658,12.508 C14.2108,12.154 14.0618,11.804 13.7738,11.588 C13.2598,11.201 12.9648,10.624 12.9648,10.004 C12.9648,8.899 13.8768,8.001 14.9988,8.001 C15.1228,8.001 15.2488,8.012 15.3738,8.033 Z"/>
</svg>
