<svg xmlns="http://www.w3.org/2000/svg" width="24" height="24" viewBox="0 0 24 24">
  <path d="M16,11.651 C17,11.088 18,9.894 18,8.5 C18,6.568 16.433,5 14.5,5 C12.567,5 11,6.568 11,8.5 C11,9.894 12,11.088 13,11.651 L13,12.206 C11,12.838 9,15.008 9,19.008 L20,19.008 C20,15.821 19,12.838 16,12.206 L16,11.651 Z M10,10 C9.208,10 8.5,9.523 8.5,8.508 C8.5,7.029 10.02,7 10.02,7 L10,5 C7.984,5 6.5,6.289 6.5,8.508 C6.5,9.506 6.914,10.373 7.5,11.008 C5.981,12.151 5,14.008 5,17.008 L7,17.008 C7,14.008 7.984,12 10,12 L10,10 Z"/>
</svg>
