<svg xmlns="http://www.w3.org/2000/svg" width="24" height="24" viewBox="0 0 24 24">
  <path d="M8,8 C8,9.48 8.8,10.77 10,11.46 L10,12 C7,13 5,15.47 5,19 L5,20 L19,20 L19,19 C19,15.47 17,13 14,12 L14,11.46 C15.2,10.77 16,9.48 16,8 C16,5.79 14.21,4 12,4 C9.79,4 8,5.79 8,8 Z M15,8 C15,9.068 14.426,10.062 13.502,10.593 C13.191,10.771 13,11.102 13,11.46 L13,12 C13,12.431 13.275,12.813 13.684,12.948 C16.427,13.863 18,16.068 18,19 L6,19 C6,16.068 7.573,13.863 10.316,12.948 C10.725,12.813 11,12.431 11,12 L11,11.46 C11,11.102 10.809,10.771 10.498,10.593 C9.574,10.062 9,9.068 9,8 C9,6.346 10.346,5 12,5 C13.654,5 15,6.346 15,8 Z"/>
</svg>
