<svg xmlns="http://www.w3.org/2000/svg" width="18" height="18" viewBox="0 0 18 18">
  <path d="M7.025,12.597 C7.062,12.247 7.145,11.914 7.254,11.597 C7.378,11.235 7.546,10.9 7.752,10.597 C8.195,9.947 8.807,9.459 9.533,9.227 C9.58,9.212 9.622,9.19 9.67,9.177 C9.871,9.123 10.017,8.951 10.037,8.743 C10.057,8.536 9.947,8.338 9.76,8.246 C9.379,8.058 9.074,7.64 8.922,7.169 C8.904,7.11 8.89,7.053 8.877,6.993 C8.845,6.854 8.818,6.714 8.818,6.575 C8.818,6.067 9.043,5.624 9.396,5.323 C9.69,5.071 10.072,4.915 10.5,4.915 C11.412,4.915 12.181,5.706 12.181,6.643 C12.181,7.306 11.794,7.961 11.239,8.235 C11.052,8.326 10.942,8.525 10.963,8.732 C10.982,8.939 11.129,9.112 11.33,9.165 C12.761,9.552 13.799,10.927 13.974,12.597 L7.025,12.597 Z M4.03,10.597 C4.201,9.198 5.082,8.053 6.289,7.728 C6.49,7.674 6.636,7.501 6.657,7.294 C6.677,7.087 6.567,6.889 6.38,6.797 C5.93,6.575 5.59,5.97 5.59,5.39 C5.59,4.611 6.21,4 7,4 C7.617,4 8.151,4.437 8.336,5.019 C8.013,5.457 7.818,5.993 7.818,6.575 C7.818,6.597 7.824,6.618 7.824,6.64 C7.835,7.07 7.946,7.489 8.129,7.869 C8.246,8.115 8.383,8.348 8.556,8.546 C7.718,8.988 7.045,9.712 6.595,10.597 L4.03,10.597 Z M13.181,6.643 C13.181,5.139 11.978,3.915 10.5,3.915 C9.993,3.915 9.523,4.064 9.118,4.308 C8.712,3.534 7.921,3 7,3 C5.671,3 4.59,4.073 4.59,5.39 C4.59,6.015 4.824,6.633 5.203,7.097 C3.873,7.832 3,9.364 3,11.097 C3,11.373 3.223,11.597 3.5,11.597 L6.204,11.597 C6.073,12.073 6,12.576 6,13.097 C6,13.373 6.223,13.597 6.5,13.597 L14.5,13.597 C14.776,13.597 15,13.373 15,13.097 C15,11.108 13.988,9.355 12.453,8.54 C12.907,8.034 13.181,7.349 13.181,6.643 Z"/>
</svg>
