<svg xmlns="http://www.w3.org/2000/svg" width="24" height="24" viewBox="0 0 24 24">
  <path d="M19.0002,19.05 L19.0002,21.05 L12.0002,21.05 L12.0002,19.05 L19.0002,19.05 Z M9.72022222,5.30074069 L9.82044444,5.30592588 L9.82044444,5.30592588 L10.0270741,5.33555551 L10.0270741,5.33555551 L10.231,5.37999995 L10.27,5.37999995 L10.52,5.44999995 L10.54,5.44999995 C11.561,5.73999995 12.39,6.46999995 12.79,7.43999995 C12.79,7.44999995 12.8,7.46999995 12.811,7.47999995 C12.87,7.64999995 12.92,7.81999995 12.96,7.99999995 L12.99,8.09999995 L12.99,8.09999995 C13.03,8.29999995 13.05,8.51999995 13.05,8.73999995 C13.05,8.87999995 13.0366667,9.01999995 13.012963,9.15703699 L12.97,9.35999995 C12.96,9.40999995 12.95,9.46999995 12.93,9.52999995 L12.86375,9.72999995 L12.86375,9.72999995 L12.74,10.06 L12.731,10.06 C12.5862,10.356 12.40428,10.6264 12.203672,10.8712 L12.05,11.05 L12,11.05 C10.9509545,11.05 10.0823182,11.8700413 10.0055187,12.9013054 L10,13.05 L10,19.05 L4,19.05 C4,16.16 5.09,14.24 6.45,13.19 C6.79,12.92 7.14,12.73 7.49,12.58 C7.53,12.55 7.58,12.54 7.62,12.52 L7.63725926,12.5059259 L7.63725926,12.5059259 L7.66,12.5 L7.66,12.5 L7.83,12.4325 L7.83,12.4325 L8,12.38 L8,11.83 C7.4,11.5027272 6.81652893,10.952314 6.43065364,10.2689181 L6.321,10.06 L6.311,10.06 L6.26,9.92999995 L6.26,9.92999995 C6.21,9.79999995 6.16,9.65999995 6.12,9.52999995 L6.09625,9.44124995 L6.09625,9.44124995 L6.08,9.35999995 C6.03,9.15999995 6,8.94999995 6,8.73999995 C6,8.51999995 6.02,8.29999995 6.061,8.09999995 L6.09,7.99999995 L6.09,7.99999995 C6.13,7.81999995 6.18,7.64999995 6.24,7.47999995 C6.25,7.46999995 6.26,7.44999995 6.26,7.43999995 C6.63333333,6.53466662 7.38124444,5.83839995 8.30860444,5.51380736 L8.51,5.44999995 L8.53,5.44999995 L8.78,5.37999995 L8.821,5.37999995 L9.023,5.33555551 L9.023,5.33555551 L9.13,5.31999995 C9.19733333,5.30666662 9.26377778,5.30222217 9.33022222,5.30074069 L9.72022222,5.30074069 Z M19.0002,16.05 L19.0002,18.05 L12.0002,18.05 L12.0002,16.05 L19.0002,16.05 Z M19.0004,13.05 L19.0004,15.05 L12.0004,15.05 L12.0004,13.05 L19.0004,13.05 Z"/>
</svg>
