<svg xmlns="http://www.w3.org/2000/svg" width="24" height="24" viewBox="0 0 24 24">
  <path d="M11.2101,12.94 C11.2901,12.89 11.3701,12.86 11.4601,12.83 C11.7201,12.73 11.9201,12.54 12.0101,12.29 L12.0201,12.29 C12.0701,12.2 12.1001,12.09 12.1101,11.98 C12.1401,11.6 11.9501,11.23 11.6201,11.03 C11.4401,10.92 11.2701,10.79 11.1201,10.64 C10.8601,10.39 10.6501,10.09 10.5201,9.76 C10.3701,9.43 10.3001,9.07 10.3001,8.7 C10.3001,8.37 10.3601,8.05 10.4701,7.76 C10.6001,7.42 10.7901,7.11 11.0401,6.85 C11.5401,6.33 12.2501,6 13.0301,6 C14.5301,6 15.7501,7.21 15.7501,8.7 C15.7501,9.66 15.2601,10.53 14.4301,11.03 C14.1001,11.23 13.9101,11.6 13.9501,11.98 C13.9801,12.37 14.2401,12.7 14.6001,12.83 C16.4801,13.51 18.5101,15.42 18.5401,18 L8.0001,18 C8.0101,17.66 8.0401,17.32 8.0901,17 C8.1601,16.65 8.2501,16.32 8.3701,16 C8.8601,14.61 9.8701,13.5 11.2101,12.94 Z M5.0101,16 C5.1001,14.27 6.1001,12.83 7.6201,12.27 C7.9801,12.14 8.2401,11.81 8.2701,11.42 C8.3101,11.04 8.1201,10.67 7.7901,10.47 C7.1901,10.11 6.8301,9.49 6.8301,8.79 C6.8301,7.71 7.7201,6.84 8.8001,6.84 C9.1201,6.84 9.4201,6.92 9.6901,7.05 C9.4401,7.55 9.3001,8.11 9.3001,8.7 C9.3001,9.35 9.4601,9.97 9.7701,10.51 C9.9301,10.8 10.1301,11.07 10.3701,11.3 C10.3901,11.34 10.4201,11.36 10.4501,11.38 C10.6401,11.58 10.8701,11.75 11.1101,11.89 C10.7801,12.01 10.4601,12.16 10.1701,12.34 C8.8001,13.13 7.7801,14.44 7.3101,16 L5.0101,16 Z M7.0001,19 L19.6101,19 L19.5401,18.07 C19.5401,15.06 17.2801,12.74 14.9401,11.89 C16.0701,11.22 16.7501,10.02 16.7501,8.7 C16.7501,6.66 15.0801,5 13.0301,5 C11.9301,5 10.9501,5.47 10.2601,6.22 C9.8301,5.98 9.3301,5.84 8.8001,5.84 C7.1701,5.84 5.8301,7.16 5.8301,8.79 C5.8301,9.84 6.3801,10.79 7.2801,11.33 C5.3101,12.05 4.0001,14 4.0001,16.26 L4.0001,17 L7.0901,17 C7.0301,17.35 7.0001,17.7 7.0001,18.07 L7.0001,19 Z"/>
</svg>
