<svg xmlns="http://www.w3.org/2000/svg" width="24" height="24" viewBox="0 0 24 24">
  <path d="M15.419,12.0504 C18.1715,12.0504 19.8558125,14.1204 20.5508281,15.2229 L20.6890234,15.4507395 L20.6890234,15.4507395 L20.8356694,15.7165728 L20.8356694,15.7165728 L20.9101164,15.8690728 L20.9101164,15.8690728 L20.919,15.8904 L21,16.0504 L20.919,16.2104 L20.8684751,16.3174659 L20.8684751,16.3174659 L20.7948416,16.4583906 L20.7948416,16.4583906 L20.6890234,16.6462751 L20.6890234,16.6462751 L20.5508281,16.8736812 L20.5508281,16.8736812 L20.3800634,17.1331707 C19.6004236,18.2708861 17.9676111,20.0504 15.419,20.0504 C14.169,20.0504 13.16,19.6204 12.37,19.0504 C11.5076,18.4288 10.902352,17.640992 10.5279136,17.0487449 L10.3814944,16.8079526 L10.3814944,16.8079526 L10.2628768,16.5974348 L10.2628768,16.5974348 L10.0849408,16.2451212 L10.0849408,16.2451212 L10,16.0504 L10.1063738,15.8118464 L10.1063738,15.8118464 L10.2106701,15.6023552 L10.2106701,15.6023552 L10.3132506,15.4115584 L10.3132506,15.4115584 L10.44288,15.1872 L10.44288,15.1872 L10.6000806,14.9355776 C10.9424013,14.4092672 11.4532826,13.7571584 12.1515251,13.2059648 L12.3595,13.0504 L12.3595,13.0504 L12.389,13.0304 C13.179,12.4704 14.179,12.0504 15.419,12.0504 Z M9.71951852,5.30074069 L9.81948148,5.30592588 L9.81948148,5.30592588 L10.0265185,5.33603699 L10.0265185,5.33603699 L10.23,5.38099995 L10.269,5.38099995 C11.849,5.67999995 13.049,7.04999995 13.049,8.74099995 C13.049,9.50099995 12.74,10.201 12.299,10.77 C11.91,10.961 11.519,11.19 11.15,11.461 C10.1533077,12.1927692 9.4294497,13.0874852 8.94876286,13.815106 L8.75755576,14.115751 C8.72814042,14.1638327 8.69994413,14.2108213 8.67295608,14.2565966 L8.52544015,14.5157256 L8.52544015,14.5157256 L8.40640305,14.7399607 L8.40640305,14.7399607 L8.2516898,15.0606557 L8.2516898,15.0606557 L8.23,15.11 L8.16,15.26 L7.82,16.05 L8.24520178,17.0381066 L8.24520178,17.0381066 L8.321888,17.20008 L8.321888,17.20008 L8.498984,17.54304 C8.52287467,17.5870133 8.54818489,17.6327822 8.57492978,17.6801866 L8.752736,17.98296 C8.915456,18.2494933 9.11479822,18.5489155 9.35265156,18.8612266 L9.5,19.05 L4,19.05 C4,16.161 5.089,14.241 6.45,13.19 C6.83,12.89 7.219,12.671 7.62,12.52 C7.639,12.501 7.65,12.501 7.66,12.501 L7.82925,12.4335 L7.82925,12.4335 L8,12.381 L8,11.831 C7,11.281 6,10.1 6,8.74099995 C6,7.00432138 7.2915574,5.6042474 8.97982735,5.35402879 L9.19775,5.32549995 L9.19775,5.32549995 L9.219,5.31999995 L9.5,5.29999995 L9.71951852,5.30074069 Z M15.48,14.5504 C15.0444444,14.5504 14.6404938,14.7242271 14.3454047,14.9946249 L14.24,15.1004 C14.219,15.1204 14.2,15.1404 14.179,15.1704 C13.98,15.4204 13.849,15.7204 13.849,16.0504 C13.849,16.6227076 14.2162426,17.1268497 14.7438712,17.3819248 L14.879,17.4404 L14.889,17.4404 C15.07,17.5104 15.269,17.5504 15.48,17.5504 C16.33,17.5504 17,16.8904 17,16.0504 C17,15.2104 16.33,14.5504 15.48,14.5504 Z"/>
</svg>
