<svg xmlns="http://www.w3.org/2000/svg" width="18" height="18" viewBox="0 0 18 18">
  <path d="M5.12378995,6.276 C5.12378995,7.34 5.64678995,8.274 6.44378995,8.873 C4.70878995,9.604 3.39478995,11.619 3.01578995,13.754 C2.89978995,14.405 3.43878995,14.993 4.11178995,14.993 C5.98778995,14.995 9.62778995,15 11.93079,15 L12.79779,15 C13.46979,14.999 14.00879,14.411 13.89279,13.76 C13.51579,11.623 12.20079,9.605 10.46379,8.873 C11.38479,8.183 11.93879,7.043 11.74579,5.775 C11.53779,4.419 10.42779,3.287 9.05378995,3.052 C8.85078995,3.017 8.64978995,3 8.45378995,3 C6.61478995,3 5.12378995,4.467 5.12378995,6.276 Z M8.88478995,4.037 C9.82778995,4.199 10.61479,4.993 10.75679,5.926 C10.88379,6.756 10.54979,7.559 9.86278995,8.073 C9.57678995,8.289 9.42778995,8.641 9.47078995,8.996 C9.51478995,9.352 9.74578995,9.656 10.07579,9.795 C11.43279,10.367 12.57179,12.03 12.90879,13.936 C12.90679,13.947 12.87079,14 12.79679,14 L11.93079,14 C10.42779,14 8.35678995,13.998 6.57778995,13.996 L4.11178995,13.993 C4.04278995,13.993 4.00278995,13.945 3.99978995,13.929 C4.33778995,12.027 5.47578995,10.366 6.83178995,9.795 C7.16178995,9.656 7.39278995,9.352 7.43578995,8.996 C7.47978995,8.641 7.33078995,8.289 7.04378995,8.073 C6.45878995,7.635 6.12378995,6.979 6.12378995,6.276 C6.12378995,5.021 7.16878995,4 8.45378995,4 C8.59578995,4 8.74078995,4.013 8.88478995,4.037 Z"/>
</svg>
