<svg xmlns="http://www.w3.org/2000/svg" width="24" height="24" viewBox="0 0 24 24">
  <path d="M12.5046323,8.29335104 L12.51,8.49 L12.5839506,8.42858711 L12.5839506,8.42858711 L12.7933333,8.27185185 L12.7933333,8.27185185 L13.15,8.02481481 L13.15,8.02481481 L13.3297531,7.9088203 C13.3517284,7.8954321 13.3688889,7.88555556 13.38,7.88 C13.11,6.24 11.69,5 10,5 C8.11,5 6.57,6.55 6.57,8.46 C6.57,9.74 7.26,10.86 8.29,11.46 L8.29,11.92 C5.71,12.79 4,14.93 4,17.98 L4,18.84 L9.26,18.84 L9.23434842,18.7640713 L9.23434842,18.7640713 L9.17407407,18.5432593 L9.17407407,18.5432593 L9.11281207,18.2852126 L9.11281207,18.2852126 L9.0478738,17.9719287 C9.04382716,17.9488765 9.04111111,17.9311111 9.04,17.92 L4.92,17.92 C4.94,15.44 6.27,13.57 8.58,12.8 C8.96,12.67 9.21,12.32 9.21,11.92 L9.21,11.46 C9.21,11.13 9.03,10.82 8.75,10.659 C7.98,10.21 7.49,9.369 7.49,8.46 C7.49,7.06 8.62,5.93 10,5.93 C11.3248,5.93 12.4192,6.971408 12.5046323,8.29335104 L12.5046323,8.29335104 Z M19,17.3499 C19,17.9999 18.58,18.5599 18,18.7599 C17.84,18.8199 17.68,18.8499 17.5,18.8499 L13.5,18.8499 C12.85,18.8499 12.29,18.4299 12.09,17.8499 C12.03,17.6899 12,17.5299 12,17.3499 L12,14.3499 C12,14.0699 12.22,13.8499 12.5,13.8499 L18.5,13.8499 C18.78,13.8499 19,14.0699 19,14.3499 L19,17.3499 Z M16,14.8499 L16,15.8499 L17,15.8499 L17,16.8499 L16,16.8499 L16,17.8499 L15,17.8499 L15,16.8499 L14,16.8499 L14,15.8499 L15,15.8499 L15,14.8499 L16,14.8499 Z M15.5,10.3499 C16.33,10.3499 17,11.0199 17,11.8499 L17,12.8499 L14,12.8499 L14,11.8499 C14,11.6599 14.04,11.4799 14.11,11.3099 C14.32,10.7499 14.86,10.3499 15.5,10.3499 Z M18,12.8499 L18,11.9899 C18,10.6799 17.06,9.4899 15.76,9.3599 C14.61,9.2499 13.61,9.8999 13.2,10.8799 L13.18625,10.90365 L13.18625,10.90365 L13.18,10.9199 C13.06,11.1999 13,11.5199 13,11.8499 L13,12.8499 L12,12.8499 C11.45,12.8499 11,13.2999 11,13.8499 L11,17.3499 C11,17.5199 11.02,17.6899 11.05,17.8499 C11.13,18.2199 11.28,18.5599 11.5,18.8499 C11.96,19.4599 12.68,19.8499 13.5,19.8499 L17.5,19.8499 C18.88,19.8499 20,18.7299 20,17.3499 L20,13.8499 C20,13.2999 19.55,12.8499 19,12.8499 L18,12.8499 Z"/>
</svg>
