<svg xmlns="http://www.w3.org/2000/svg" width="24" height="24" viewBox="0 0 24 24">
  <path d="M12.8795,16.3396 L15.7095,19.1696 L10.7595,21.2896 L12.8795,16.3396 Z M10.7195185,5.30070366 C10.7861111,5.30211106 10.853,5.30633329 10.919,5.31899995 L11.0265185,5.33503699 L11.0265185,5.33503699 L11.23,5.37999995 L11.269,5.37999995 L11.519,5.44999995 L11.54,5.44999995 C12.559,5.73999995 13.389,6.46999995 13.79,7.43899995 C13.79,7.44999995 13.799,7.46999995 13.809,7.47899995 C13.87,7.64899995 13.919,7.81899995 13.96,7.99999995 L13.99,8.09899995 L13.99,8.09899995 C14.03,8.29999995 14.049,8.51899995 14.049,8.73999995 C14.049,8.87999995 14.0356667,9.01999995 14.011963,9.15674069 L13.969,9.35899995 C13.96,9.40999995 13.95,9.46999995 13.929,9.52999995 C13.889,9.65999995 13.839,9.79999995 13.79,9.92899995 L13.74,10.059 L13.73,10.059 C13.3836364,10.769 12.8240496,11.3542066 12.22855,11.7252133 L12.049,11.83 L12.049,12.38 C12.16,12.41 12.28,12.45 12.389,12.5 C12.4,12.5 12.41,12.5 12.429,12.519 C12.469,12.54 12.519,12.55 12.559,12.58 C12.76225,12.67 12.9705625,12.77125 13.1717031,12.8917656 L13.37,13.019 L11.19,15.2 L11.04,15.559 L9.54,19.05 L5,19.05 C5,16.16 6.089,14.24 7.45,13.189 C7.79,12.92 8.139,12.729 8.49,12.58 C8.53,12.55 8.58,12.54 8.62,12.519 C8.639,12.5 8.65,12.5 8.66,12.5 L8.82925,12.4325 L8.82925,12.4325 L9,12.38 L9,11.83 C8.39909091,11.5027272 7.81636364,10.952314 7.42987979,10.2681667 L7.32,10.059 L7.309,10.059 L7.259,9.92899995 C7.21,9.79999995 7.16,9.65999995 7.12,9.52999995 C7.099,9.46999995 7.089,9.40999995 7.08,9.35899995 C7.03,9.15999995 7,8.94999995 7,8.73999995 C7,8.51899995 7.019,8.29999995 7.059,8.09899995 L7.089,7.99999995 L7.089,7.99999995 C7.129,7.81899995 7.179,7.64899995 7.24,7.47899995 C7.25,7.46999995 7.259,7.44999995 7.259,7.43899995 C7.63326667,6.53459995 8.38124,5.83839551 9.30779111,5.51380706 L9.509,5.44999995 L9.53,5.44999995 L9.78,5.37999995 L9.82,5.37999995 L10.022,5.33503699 C10.0567778,5.32833329 10.0923333,5.32266662 10.129,5.31899995 C10.1963333,5.30633329 10.2632222,5.30211106 10.3296667,5.30070366 L10.7195185,5.30070366 Z M17.1198,12.0996 C17.4798,11.7396 18.0528178,11.7119076 18.4455897,12.016523 L18.5398,12.0996 L19.9498,13.5096 C20.3098,13.8696 20.3374923,14.4426177 20.0328769,14.8353897 L19.9498,14.9296 L16.4098,18.4596 L13.5898,15.6396 L14.7798,14.4496 L14.7798,14.4396 L17.1198,12.0996 Z"/>
</svg>
