<svg xmlns="http://www.w3.org/2000/svg" width="24" height="24" viewBox="0 0 24 24">
  <path d="M18.9998,12.0501 C20.0536182,12.0501 20.9179157,12.8664966 20.9943109,13.9009084 L20.9998,14.0501 L20.9998,17.0501 C20.9998,18.1048727 20.1834033,18.9683024 19.1489916,19.0446168 L18.9998,19.0501 L16.9998,19.0501 L13.9998,22.0501 L12.9998,19.0501 C11.9459818,19.0501 11.0816843,18.2346144 11.0052891,17.1994158 L10.9998,17.0501 L10.9998,14.0501 C10.9998,13.5621 11.1818,13.1201 11.4728,12.7741 C11.6798,12.5261 11.9388,12.3251 12.2428,12.2001 C12.4183,12.12885 12.6056125,12.0801 12.8013625,12.0601781 L12.9998,12.0501 L18.9998,12.0501 Z M9.71955556,5.30074069 L9.81977778,5.30592588 L10.027037,5.33599995 L10.23,5.37999995 L10.269,5.37999995 C11.849,5.67999995 13.05,7.04999995 13.05,8.74099995 C13.05,9.20999995 12.929,9.64999995 12.74,10.06 C12.31,10.09 11.889,10.18 11.48,10.35 C10.9,10.59 10.36,10.991 9.939,11.491 C9.38075,12.1500833 9.0569375,12.9705 9.00684549,13.8182256 L9,14.05 L9,17.05 C9,17.4833333 9.06875,17.8958333 9.19641204,18.2875 L9.28,18.52 L9.28,18.531 C9.328,18.7142 9.3824,18.86604 9.44832,18.975768 L9.5,19.05 L4,19.05 C4,16.161 5.09,14.241 6.45,13.19 C6.83,12.89 7.219,12.67 7.62,12.52 C7.639,12.5 7.65,12.5 7.66,12.5 L7.82925,12.43325 L8,12.38 L8,11.831 C7,11.281 6,10.1 6,8.74099995 C6,7.00432138 7.2915574,5.60331755 8.98072399,5.35392916 L9.19825,5.32549995 L9.219,5.31999995 L9.5,5.29999995 L9.71955556,5.30074069 Z M17.9998,16.2541 L12.9998,16.2541 L12.9998,17.0541 L17.9998,17.0541 L17.9998,16.2541 Z M15.9998,14.2541 L12.9998,14.2541 L12.9998,15.0541 L15.9998,15.0541 L15.9998,14.2541 Z"/>
</svg>
