<svg xmlns="http://www.w3.org/2000/svg" width="24" height="24" viewBox="0 0 24 24">
  <path d="M7.99963381,16 C7.37194482,15.1643395 7,14.1256059 7,13 L7,8 L9,8 L9,13 C9,14.6568542 10.3431458,16 12,16 C13.6568542,16 15,14.6568542 15,13 L15,8 L17,8 L17,13 C17,14.1256059 16.6280552,15.1643395 16.0003662,16 L17,16 L17,18 L6,18 L6,16 L7.99963381,16 L7.99963381,16 Z M6,5 L10,5 L10,9 L6,9 L6,5 Z M14,5 L18,5 L18,9 L14,9 L14,5 Z M6,15 C7.1045695,15 8,15.8954305 8,17 C8,18.1045695 7.1045695,19 6,19 C4.8954305,19 4,18.1045695 4,17 C4,15.8954305 4.8954305,15 6,15 L6,15 Z M18,15 C19.1045695,15 20,15.8954305 20,17 C20,18.1045695 19.1045695,19 18,19 C16.8954305,19 16,18.1045695 16,17 C16,15.8954305 16.8954305,15 18,15 Z"/>
</svg>
