<svg xmlns="http://www.w3.org/2000/svg" width="24" height="24" viewBox="0 0 24 24">
  <path d="M10,15.7439414 L10,15 L13,15 L13,15.7439414 C14.7477886,15.1261868 16,13.4593282 16,11.5 L16,8 L17,8 L17,11.5 C17,13.3601578 16.0765516,15.0046326 14.6630791,16 L17,16 L17,17 L13,17 L13,18 L10,18 L10,17 L5,17 L5,16 L8.33692087,16 C6.92344845,15.0046326 6,13.3601578 6,11.5 L6,8 L7,8 L7,11.5 C7,13.4593282 8.25221144,15.1261868 10,15.7439414 Z M11,16 L11,17 L12,17 L12,16 L11,16 Z M6,7 L6,8 L7,8 L7,7 L6,7 Z M5,6 L8,6 L8,9 L5,9 L5,6 Z M15,6 L18,6 L18,9 L15,9 L15,6 Z M16,7 L16,8 L17,8 L17,7 L16,7 Z M5.5,15 C6.32842712,15 7,15.6715729 7,16.5 C7,17.3284271 6.32842712,18 5.5,18 C4.67157288,18 4,17.3284271 4,16.5 C4,15.6715729 4.67157288,15 5.5,15 Z M17.5,15 C18.3284271,15 19,15.6715729 19,16.5 C19,17.3284271 18.3284271,18 17.5,18 C16.6715729,18 16,17.3284271 16,16.5 C16,15.6715729 16.6715729,15 17.5,15 Z"/>
</svg>
