<svg xmlns="http://www.w3.org/2000/svg" width="24" height="24" viewBox="0 0 24 24">
  <path d="M9.014,6.995 C8.461,6.995 8.014,7.443 8.014,7.995 C8.014,8.548 8.461,8.995 9.014,8.995 C9.566,8.995 10.014,8.548 10.014,7.995 C10.014,7.443 9.566,6.995 9.014,6.995 L9.014,6.995 Z M17,15.432 L13.398,10.697 C13.297,10.564 13.134,10.481 12.974,10.501 C12.809,10.51 12.659,10.599 12.573,10.74 L9.899,15.147 L8.358,13.567 C8.258,13.465 8.118,13.393 7.977,13.418 C7.833,13.425 7.701,13.492 7.611,13.603 L6,15.602 L6,5.5 C6,5.224 6.224,5 6.5,5 L16.5,5 C16.777,5 17,5.224 17,5.5 L17,15.432 Z M17,18.5 C17,18.776 16.777,19 16.5,19 L6.5,19 C6.224,19 6,18.776 6,18.5 L6,17.196 L8.036,14.67 L9.634,16.308 C9.741,16.418 9.895,16.473 10.048,16.455 C10.201,16.437 10.339,16.349 10.419,16.218 L13.047,11.887 L17,17.035 L17,18.5 Z M16.5,4 L6.5,4 C5.673,4 5,4.673 5,5.5 L5,18.5 C5,19.327 5.673,20 6.5,20 L16.5,20 C17.327,20 18,19.327 18,18.5 L18,5.5 C18,4.673 17.327,4 16.5,4 L16.5,4 Z"/>
</svg>
