<svg xmlns="http://www.w3.org/2000/svg" width="24" height="24" viewBox="0 0 24 24">
  <path fill-rule="evenodd" d="M13.71,4 C14.9724564,4.00547711 15.9945229,5.02754358 16,6.29 L16,16.71 C15.9945229,17.9724564 14.9724564,18.9945229 13.71,19 L9.29,19 C8.02754358,18.9945229 7.00547711,17.9724564 7,16.71 L7,6.29 C7.00547711,5.02754358 8.02754358,4.00547711 9.29,4 L13.71,4 Z M13.71,5 L9.29,5 C8.57755267,5 8,5.57755267 8,6.29 L8,16.71 C8,17.4224473 8.57755267,18 9.29,18 L13.71,18 C14.4224473,18 15,17.4224473 15,16.71 L15,6.29 C15,5.57755267 14.4224473,5 13.71,5 Z M13,14 L13,15 L10,15 L10,14 L13,14 Z M13,11 L13,12 L10,12 L10,11 L13,11 Z M13,8 L13,9 L10,9 L10,8 L13,8 Z"/>
</svg>
