<svg xmlns="http://www.w3.org/2000/svg" width="24" height="24" viewBox="0 0 24 24">
  <path d="M12,17 L12,18 L6,18 C4.896,18 4,17.105 4,16 L4,8 C4,6.896 4.896,6 6,6 L14,6 C15.104,6 16,6.896 16,8 L16,9 L20,7 L20,12 L19,12 L19,8.618 L15,10.5 L15,8 C15,7.448 14.552,7 14,7 L6,7 C5.448,7 5,7.448 5,8 L5,16 C5,16.552 5.448,17 6,17 L12,17 Z M8,9 L12,9 C12.276,9 12.5,9.224 12.5,9.5 C12.5,9.777 12.276,10 12,10 L8,10 C7.724,10 7.5,9.777 7.5,9.5 C7.5,9.224 7.724,9 8,9 Z M14,14 L16,14 L16,16 L14,16 L14,14 Z M18,14 L20,14 L20,16 L18,16 L18,14 Z M14,18 L16,18 L16,20 L14,20 L14,18 Z M16,16 L18,16 L18,18 L16,18 L16,16 Z M18,18 L20,18 L20,20 L18,20 L18,18 Z"/>
</svg>
