<svg xmlns="http://www.w3.org/2000/svg" width="24" height="24" viewBox="0 0 24 24">
  <path d="M18.993,9.00770859 C18.926,10.4707086 17.906,12.4737086 15.933,15.0167086 C13.893,17.6717086 12.169,18.9997086 10.757,18.9997086 C9.883,18.9997086 9.142,18.1917086 8.539,16.5737086 C8.135,15.0907086 7.731,13.6087086 7.328,12.1257086 C6.879,10.5087086 6.507,10.0077086 5.992,10.0077086 C5.88,10.0077086 5.487,10.2437086 4.815,10.7157086 L4,9.49670859 C4.687,8.89170859 5.347,8.30570859 6.189,7.54070859 C7.177,6.68670859 7.918,6.23670859 8.411,6.19170859 C9.579,6.07870859 10.298,6.87770859 10.567,8.58970859 C10.858,10.4367086 11.06,11.5847086 11.174,12.0337086 C11.51,13.5667086 11.88,14.3307086 12.284,14.3307086 C12.598,14.3307086 13.07,13.8337086 13.699,12.8407086 C14.327,11.8467086 14.664,11.0907086 14.709,10.5707086 C14.799,9.71370859 14.462,9.28270859 13.699,9.28270859 C13.34,9.28270859 12.97,9.36570859 12.589,9.52970859 C13.326,7.11170859 14.734,5.93570859 16.813,6.00270859 C18.354,6.04770859 19.081,7.04970859 18.993,9.00770859"/>
</svg>
