<svg xmlns="http://www.w3.org/2000/svg" width="24" height="24" viewBox="0 0 24 24">
  <path d="M17.682,11.839 L17.811,11.678 C17.974,11.462 18.132,11.265 18.289,11.07 C18.656,10.613 19.003,10.182 19.364,9.59 C19.631,9.151 20.043,8.339 19.8,7.817 C19.697,7.596 19.525,7.227 17.315,7.227 C16.939,7.227 16.025,7.24 15.673,7.374 C15.237,7.538 15.039,8.033 14.863,8.47 C14.829,8.557 14.795,8.641 14.763,8.712 C14.406,9.49 14.101,10.071 13.592,10.737 L13.478,10.893 C13.411,10.985 13.342,11.079 13.276,11.153 C13.22,10.952 13.229,10.644 13.248,10.247 L13.262,9.901 C13.267,9.734 13.284,9.553 13.301,9.367 C13.356,8.754 13.42,8.06 13.118,7.55 C13.021,7.386 12.793,7 11.113,7 C10.37,7 8.605,7.075 8.26,7.768 C8.143,8.002 8.227,8.286 8.452,8.42 C8.582,8.497 8.711,8.552 8.834,8.602 C9.022,8.678 9.06,8.7 9.086,8.749 C9.113,8.799 9.245,9.105 9.212,10.283 C9.201,10.703 9.176,11.011 9.138,11.203 C9.05,11.098 8.957,10.958 8.906,10.882 L8.821,10.756 C8.323,10.04 7.991,9.467 7.635,8.709 L7.537,8.491 C7.299,7.954 7.12,7.591 6.815,7.436 C6.588,7.32 6.089,7.261 5.332,7.261 C4.19,7.261 3.468,7.378 3.184,7.609 C3.068,7.704 3,7.847 3,7.997 C3,8.647 3.288,9.22 3.52,9.681 L3.609,9.86 C4.457,11.593 5.29,12.96 6.231,14.164 C7.194,15.399 8.409,16.608 10.765,16.858 L10.968,16.874 C11.274,16.907 11.524,16.921 11.843,16.921 C12.273,16.921 12.945,16.877 13.219,16.397 C13.383,16.108 13.348,15.874 13.369,15.567 C13.38,15.405 13.399,15.111 13.401,15.059 C13.517,15.093 14.031,16.843 16.191,16.843 C16.191,16.843 19.769,16.89 19.769,15.638 C19.769,15.03 17.278,13.062 17.278,12.537 C17.278,12.35 17.527,12.029 17.682,11.839"/>
</svg>
