<svg xmlns="http://www.w3.org/2000/svg" width="24" height="24" viewBox="0 0 24 24">
  <path fill-rule="evenodd" d="M12,0 C18.627,0 24,5.373 24,12 C24,18.627 18.627,24 12,24 C5.373,24 0,18.627 0,12 C0,5.373 5.373,0 12,0 Z M12,11 L11.8834315,11.0067318 C11.3862857,11.0645306 11,11.4874286 11,12 L11,12 L11,17 C11,17.552 11.448,18 12,18 C12.552,18 13,17.552 13,17 L13,17 L13,12 C13,11.448 12.552,11 12,11 L12,11 Z M12,7 L11.8834315,7.00673178 C11.3862857,7.06453061 11,7.48742857 11,8 C11,8.552 11.448,9 12,9 C12.552,9 13,8.552 13,8 C13,7.448 12.552,7 12,7 L12,7 Z"/>
</svg>
