<svg xmlns="http://www.w3.org/2000/svg" width="24" height="24" viewBox="0 0 24 24">
  <path fill-rule="evenodd" d="M10.9973868,14.046 L11.3983868,14.046 L11.9973868,13.046 L11.9973868,10.046 L11.0053868,10.046 L10.9973868,14.046 Z M18.6513868,18.046 L4.36138684,18.046 C4.20738684,18.046 4.11138684,17.88 4.18738684,17.746 L10.6633868,6.482 C10.9253868,6.069 11.3333868,5.988 11.4973868,5.988 C11.6613868,5.988 12.0703868,6.088 12.3313868,6.499 L18.8243868,17.746 C18.9013868,17.879 18.8053868,18.046 18.6513868,18.046 L18.6513868,18.046 Z M19.8133868,17.499 L13.1653868,5.933 C12.7793868,5.325 12.1383868,5 11.4973868,5 C10.8563868,5 10.2153868,5.293 9.83038684,5.9 L3.18138684,17.504 C2.73938684,18.151 3.12638684,19.046 4.11138684,19.046 L18.8833868,19.046 C19.8983868,19.046 20.2553868,18.146 19.8133868,17.499 L19.8133868,17.499 Z M10.9973868,16.046 L11.9973868,16.046 L11.9973868,15.018 L11.0053868,15.018 L10.9973868,16.046 Z"/>
</svg>
