<svg xmlns="http://www.w3.org/2000/svg" width="24" height="24" viewBox="0 0 24 24">
  <path d="M12.9,12.5314435 L12.9,16.083395 L16.2,14.2385138 L16.2,10.624086 L12.9,12.5314435 L12.9,12.5314435 Z M12.1,12.6252094 L8.8,10.6656049 L8.8,14.2385138 L12.1,16.083395 L12.1,12.6252094 L12.1,12.6252094 Z M15.7772373,9.94442217 L12.5,8.11715614 L9.18645036,9.9646686 L12.4200414,11.8848381 L15.7772373,9.94442217 L15.7772373,9.94442217 Z M19,9.11666667 C19,8.75652362 18.806345,8.42419953 18.4930126,8.24664448 L12.9930126,5.12997781 C12.6871824,4.95667406 12.3128176,4.95667406 12.0069874,5.12997781 L6.50698743,8.24664448 C6.19365498,8.42419953 6,8.75652362 6,9.11666667 L6,15.2857494 C6,15.6458925 6.19365498,15.9782166 6.50698743,16.1557716 L12.0069874,19.2724383 C12.3128176,19.445742 12.6871824,19.445742 12.9930126,19.2724383 L18.4930126,16.1557716 C18.806345,15.9782166 19,15.6458925 19,15.2857494 L19,9.11666667 Z M20,15.2857494 C20,16.0060355 19.61269,16.6706837 18.9860251,17.0257938 L13.4860251,20.1424605 C12.8743648,20.489068 12.1256352,20.489068 11.5139749,20.1424605 L6.01397486,17.0257938 C5.38730997,16.6706837 5,16.0060355 5,15.2857494 L5,9.11666667 C5,8.39638057 5.38730997,7.7317324 6.01397486,7.37662229 L11.5139749,4.25995563 C12.1256352,3.91334812 12.8743648,3.91334812 13.4860251,4.25995563 L18.9860251,7.37662229 C19.61269,7.7317324 20,8.39638057 20,9.11666667 L20,15.2857494 Z M17,9.71024125 L17,14.7077998 L12.5,17.2235469 L8,14.7077998 L8,9.71024125 L12.5,7.20120805 L17,9.71024125 Z"/>
</svg>
