<svg xmlns="http://www.w3.org/2000/svg" width="24" height="24" viewBox="0 0 24 24">
  <path d="M11.9,15.3981255 L9,13.9332266 L9,10.8099172 L11.9,12.5530334 L11.9,15.3981255 L11.9,15.3981255 Z M13.1,15.3981255 L13.1,12.5125865 L16,10.754319 L16,13.9332266 L13.1,15.3981255 L13.1,15.3981255 Z M9.83177183,10.0454333 L12.5,8.70120805 L15.1235755,10.0229378 L12.4200414,11.5860462 L9.83177183,10.0454333 L9.83177183,10.0454333 Z M20,9.11666667 L20,15.2857494 C20,16.0060355 19.61269,16.6706837 18.9860251,17.0257938 L13.4860251,20.1424605 C12.8743648,20.489068 12.1256352,20.489068 11.5139749,20.1424605 L6.01397486,17.0257938 C5.38730997,16.6706837 5,16.0060355 5,15.2857494 L5,9.11666667 C5,8.39638057 5.38730997,7.7317324 6.01397486,7.37662229 L11.5139749,4.25995563 C12.1256352,3.91334812 12.8743648,3.91334812 13.4860251,4.25995563 L18.9860251,7.37662229 C19.61269,7.7317324 20,8.39638057 20,9.11666667 L20,9.11666667 Z M17,9.70464885 L12.5,7.20120805 L8,9.70464885 L8,14.6910683 L12.5,17.201208 L17,14.6910683 L17,9.70464885 Z"/>
</svg>
