<svg xmlns="http://www.w3.org/2000/svg" width="24" height="24" viewBox="0 0 24 24">
  <path fill-rule="evenodd" d="M15.4039461,4.33735162 C18.1638144,5.247973 20.0200867,7.83625381 19.99753,10.7423845 C19.9965495,12.2764584 19.4667943,13.7633048 18.49753,14.9523845 L18.68753,17.5523845 C18.703524,17.7190451 18.6315221,17.8819968 18.49753,17.9823845 C18.4064967,18.0338905 18.3013708,18.0549157 18.19753,18.0423845 C18.1313844,18.0541718 18.0636757,18.0541718 17.99753,18.0423845 L15.40753,17.0423845 C14.7438629,17.2617774 14.0643863,17.3720797 13.3912679,17.3804085 L13.45753,17.2923845 C12.1234319,19.1490216 9.7459802,19.9361237 7.56753001,19.2423845 L5.66753001,20.0423845 L5.49753001,20.0423845 C5.38872523,20.0464423 5.28213915,20.0109136 5.19753001,19.9423845 C5.05649915,19.8424298 4.98010571,19.6743642 4.99753001,19.5023845 L5.13753001,17.5723845 C4.18443798,16.3745849 3.8039362,14.8193668 4.09636196,13.3168371 C4.38878772,11.8143073 5.32478359,10.515309 6.65753001,9.76238449 L6.68364426,9.75259187 C6.83356032,8.69155861 7.23921294,7.6588262 7.90062937,6.75099973 C9.61197927,4.4020881 12.6440778,3.42673025 15.4039461,4.33735162 Z M6.62405323,10.981587 L6.56606246,11.0260734 C5.78094286,11.6590145 5.24183191,12.558354 5.06101568,13.566208 C4.83847263,14.8066436 5.18196449,16.081625 5.99753001,17.0423845 C6.08145055,17.1429839 6.1243068,17.2715526 6.11753001,17.4023845 L6.00753001,18.7623845 L7.37753001,18.2423845 C7.49083066,18.2027511 7.61422937,18.2027511 7.72753001,18.2423845 C9.28415664,18.8034873 10.9997316,18.4076379 12.1514074,17.2800823 C10.4844772,16.9866861 8.94792414,16.0656826 7.90285276,14.6329699 C7.1062117,13.5408362 6.67992935,12.2675735 6.62405323,10.981587 Z M10.8611467,5.58105342 C8.4356204,6.70658766 7.12104834,9.36916476 7.70224997,11.9791858 C8.2834516,14.5892068 10.6035994,16.4424015 13.27753,16.4323845 C13.9595903,16.4342224 14.6366287,16.3157406 15.27753,16.0823845 C15.3280888,16.0597248 15.3822559,16.0461831 15.43753,16.0423845 L15.61753,16.0423845 L17.61753,16.8023845 L17.45753,14.8023845 C17.4504412,14.6936721 17.4790711,14.5864092 17.5378654,14.4964048 L17.58753,14.4323845 C19.3215838,12.3969331 19.4043984,9.42867464 17.7865322,7.29970446 C16.168666,5.17073429 13.286673,4.45551918 10.8611467,5.58105342 Z M10.68753,10.0823845 C11.0465151,10.0823845 11.33753,10.3733994 11.33753,10.7323845 C11.33753,11.0913696 11.0465151,11.3823845 10.68753,11.3823845 C10.3285449,11.3823845 10.03753,11.0913696 10.03753,10.7323845 C10.03753,10.3733994 10.3285449,10.0823845 10.68753,10.0823845 Z M13.29753,10.0823845 C13.6565151,10.0823845 13.94753,10.3733994 13.94753,10.7323845 C13.94753,11.0913696 13.6565151,11.3823845 13.29753,11.3823845 C12.9385449,11.3823845 12.64753,11.0913696 12.64753,10.7323845 C12.64753,10.3733994 12.9385449,10.0823845 13.29753,10.0823845 Z M15.90753,10.0823845 C16.2665151,10.0823845 16.55753,10.3733994 16.55753,10.7323845 C16.55753,11.0913696 16.2665151,11.3823845 15.90753,11.3823845 C15.5485449,11.3823845 15.25753,11.0913696 15.25753,10.7323845 C15.25753,10.3733994 15.5485449,10.0823845 15.90753,10.0823845 Z"/>
</svg>