<svg xmlns="http://www.w3.org/2000/svg" width="24" height="24" viewBox="0 0 24 24">
  <path fill-rule="evenodd" d="M6,6 C5.44771525,6 5,6.44771525 5,7 L5,17 C5,17.5522847 5.44771525,18 6,18 L18,18 C18.5522847,18 19,17.5522847 19,17 L19,7 C19,6.44771525 18.5522847,6 18,6 L6,6 Z M6,5 L18,5 C19.1045695,5 20,5.8954305 20,7 L20,17 C20,18.1045695 19.1045695,19 18,19 L6,19 C4.8954305,19 4,18.1045695 4,17 L4,7 C4,5.8954305 4.8954305,5 6,5 Z M8,12 L8,11 L9,11 L9,10.2 L8,10.2 L8,9.2 L7,9.2 L7,8 L8.2,8 L8.2,9 L9.2,9 L9.2,10 L10.2,10 L10.2,11.2 L9.2,11.2 L9.2,12.2 L8.2,12.2 L8.2,13.2 L7,13.2 L7,12 L8,12 Z M11,12 L15,12 L15,13 L11,13 L11,12 Z"/>
</svg>
