<svg xmlns="http://www.w3.org/2000/svg" width="24" height="24" viewBox="0 0 24 24">
  <path d="M19,8 L19,6 C19,5.44771525 18.5522847,5 18,5 L16,5 C15.4477153,5 15,5.44771525 15,6 L15,8 L19,8 Z M19,9 L15,9 L15,16 L17,18.510134 L19,16 L19,9 Z M16,4 L18,4 C19.1045695,4 20,4.8954305 20,6 L20,16 L17,20 L14,16 L14,6 C14,4.8954305 14.8954305,4 16,4 L16,4 Z M16.5,10 C16.7761424,10 17,10.2238576 17,10.5 L17,15.5 C17,15.7761424 16.7761424,16 16.5,16 C16.2238576,16 16,15.7761424 16,15.5 L16,10.5 C16,10.2238576 16.2238576,10 16.5,10 Z M15,15 L19,15 L19,16 L15,16 L15,15 Z M4.5,13 L7.5,13 C7.77614237,13 8,13.2238576 8,13.5 C8,13.7761424 7.77614237,14 7.5,14 L4.5,14 C4.22385763,14 4,13.7761424 4,13.5 C4,13.2238576 4.22385763,13 4.5,13 Z M4.5,16 L11.5,16 C11.7761424,16 12,16.2238576 12,16.5 C12,16.7761424 11.7761424,17 11.5,17 L4.5,17 C4.22385763,17 4,16.7761424 4,16.5 C4,16.2238576 4.22385763,16 4.5,16 Z M4.5,10 L10.5,10 C10.7761424,10 11,10.2238576 11,10.5 C11,10.7761424 10.7761424,11 10.5,11 L4.5,11 C4.22385763,11 4,10.7761424 4,10.5 C4,10.2238576 4.22385763,10 4.5,10 Z M4.5,7 L9.5,7 C9.77614237,7 10,7.22385763 10,7.5 C10,7.77614237 9.77614237,8 9.5,8 L4.5,8 C4.22385763,8 4,7.77614237 4,7.5 C4,7.22385763 4.22385763,7 4.5,7 Z"/>
</svg>
