<svg xmlns="http://www.w3.org/2000/svg" width="24" height="24" viewBox="0 0 24 24">
  <path d="M14,8 L14,7 C14,5.8954305 14.8954305,5 16,5 L18,5 C19.1045695,5 20,5.8954305 20,7 L20,8 L14,8 Z M20,15 L17,19 L14,15 L14,9 L20,9 L20,15 Z M18.5,14 L15.5,14 L17,17 L18.5,14 Z M5,14 L7,14 C7.55228475,14 8,14.4477153 8,15 C8,15.5522847 7.55228475,16 7,16 L5,16 C4.44771525,16 4,15.5522847 4,15 C4,14.4477153 4.44771525,14 5,14 Z M5,10 L11,10 C11.5522847,10 12,10.4477153 12,11 C12,11.5522847 11.5522847,12 11,12 L5,12 C4.44771525,12 4,11.5522847 4,11 C4,10.4477153 4.44771525,10 5,10 Z M5,6 L9,6 C9.55228475,6 10,6.44771525 10,7 C10,7.55228475 9.55228475,8 9,8 L5,8 C4.44771525,8 4,7.55228475 4,7 C4,6.44771525 4.44771525,6 5,6 Z"/>
</svg>
