<svg xmlns="http://www.w3.org/2000/svg" width="24" height="24" viewBox="0 0 24 24">
  <path d="M17.3318,15 C16.8318,13.76 16.0518,12.66 15.0918,11.94 C14.7818,11.71 14.4518,11.51 14.1018,11.37 L14.0918,11.36 C14.3018,11.2 14.5018,11.01 14.6718,10.81 C14.9018,10.55 15.0818,10.26 15.2118,9.94 C15.4718,9.36 15.5818,8.7 15.4718,8.01 C15.4518,7.84 15.4118,7.68 15.3618,7.52 C15.6718,7.26 16.0718,7.1 16.5018,7.1 C16.6118,7.1 16.7218,7.11 16.8318,7.13 C17.5318,7.25 18.1218,7.84 18.2318,8.54 C18.3218,9.16 18.0718,9.76 17.5618,10.15 C17.2718,10.36 17.1218,10.71 17.1718,11.07 C17.2118,11.42 17.4418,11.73 17.7718,11.87 C18.7818,12.29 19.6818,13.57 19.9718,15 L17.3318,15 Z M16.7318,16.85 C16.7318,16.86 16.6918,16.92 16.6118,16.92 L15.6718,16.92 C14.0518,16.92 11.8018,16.91 9.8818,16.91 L7.2018,16.91 C7.1318,16.91 7.0918,16.86 7.0818,16.84 C7.1318,16.55 7.2018,16.27 7.2818,16 C7.3818,15.65 7.5118,15.32 7.6618,15 C8.1718,13.94 8.9018,13.06 9.7418,12.57 C9.8718,12.49 10.0118,12.42 10.1518,12.36 C10.3318,12.28 10.4818,12.16 10.6018,12.03 L10.6018,12.02 C10.7118,11.87 10.7818,11.69 10.8118,11.5 C10.8518,11.11 10.6918,10.73 10.3818,10.5 C10.2118,10.37 10.0618,10.22 9.9318,10.06 C9.5818,9.63 9.3818,9.1 9.3818,8.55 C9.3818,8.08 9.5118,7.64 9.7518,7.26 C10.2018,6.55 11.0018,6.08 11.9118,6.08 C12.0618,6.08 12.2218,6.1 12.3818,6.12 C13.1318,6.25 13.7918,6.76 14.1418,7.42 C14.2718,7.65 14.3618,7.91 14.4018,8.17 C14.5018,8.8 14.3518,9.41 14.0018,9.91 C13.8518,10.13 13.6618,10.33 13.4418,10.5 C13.1318,10.73 12.9618,11.11 13.0118,11.5 C13.0418,11.74 13.1518,11.96 13.3218,12.12 C13.4218,12.22 13.5418,12.3 13.6718,12.36 C13.8518,12.44 14.0318,12.53 14.2018,12.64 C14.9918,13.14 15.6718,13.98 16.1518,15 C16.3018,15.32 16.4218,15.65 16.5318,16 C16.6118,16.28 16.6818,16.56 16.7318,16.85 L16.7318,16.85 Z M5.9618,15 L4.0318,14.99 C4.3318,13.57 5.2218,12.29 6.2318,11.87 C6.5618,11.73 6.7918,11.42 6.8318,11.07 C6.8818,10.71 6.7318,10.36 6.4418,10.15 C6.0018,9.82 5.7518,9.33 5.7518,8.8 C5.7518,7.86 6.5418,7.1 7.5018,7.1 C7.6118,7.1 7.7218,7.11 7.8318,7.13 C8.0718,7.17 8.2918,7.27 8.4918,7.4 C8.3718,7.76 8.3018,8.15 8.3018,8.55 C8.3018,9.1 8.4318,9.61 8.6618,10.07 C8.8118,10.38 9.0018,10.65 9.2218,10.9 C9.2718,10.95 9.3218,11 9.3618,11.04 C9.4818,11.16 9.6018,11.26 9.7318,11.36 C9.4118,11.5 9.1018,11.67 8.8118,11.89 C7.8118,12.6 7.0018,13.73 6.4918,15 L5.9618,15 Z M18.1618,10.95 C18.9218,10.38 19.3718,9.44 19.2218,8.39 C19.0418,7.27 18.1318,6.34 16.9918,6.14 C16.8318,6.11 16.6618,6.1 16.5018,6.1 C15.9118,6.1 15.3618,6.28 14.9118,6.6 C14.3818,5.8 13.5318,5.22 12.5618,5.06 C12.3418,5.02 12.1218,5 11.9118,5 C10.6818,5 9.6018,5.6 8.9518,6.52 C8.6618,6.33 8.3418,6.2 7.9918,6.14 C7.8318,6.11 7.6618,6.1 7.5018,6.1 C5.9818,6.1 4.7518,7.31 4.7518,8.8 C4.7518,9.68 5.1818,10.45 5.8418,10.95 C4.4118,11.55 3.3318,13.21 3.0118,14.97 C2.9218,15.51 3.3618,15.99 3.9218,15.99 C4.5118,16 5.3118,16 6.1718,16 C6.1018,16.22 6.0618,16.43 6.0218,16.65 C5.8918,17.36 6.4818,17.99 7.2018,17.99 C9.2418,17.99 13.1818,18 15.6718,18 L16.6118,18 C17.3418,18 17.9318,17.36 17.8018,16.66 C17.7618,16.44 17.7118,16.22 17.6518,16 L20.0818,16 C20.6418,16 21.0818,15.51 20.9918,14.98 C20.6818,13.21 19.5918,11.55 18.1618,10.95 L18.1618,10.95 Z"/>
</svg>
