<svg xmlns="http://www.w3.org/2000/svg" width="24" height="24" viewBox="0 0 24 24">
  <path d="M12,7 C14.51,7 16.66,8.67 17.55,11.05 C17.67,11.35 17.76,11.67 17.83,12 L17.8413346,12.0556236 L17.8413346,12.0556236 L17.9150146,12.5779592 C18.0193878,13.2595918 18.2571429,14.3085714 19,14.73 C19.2416667,14.8716667 19.525,14.9647222 19.8210648,14.9918056 L20,15 L20,18 L4,18 L4,15 C4.36,15 4.71,14.9 5,14.73 C5.69333333,14.3366667 5.94666667,13.3966667 6.06222222,12.7188889 L6.10419177,12.4468254 L6.10419177,12.4468254 L6.15866537,12.0556236 L6.15866537,12.0556236 L6.17,12 C6.24,11.67 6.33,11.35 6.45,11.05 C7.34,8.67 9.49,7 12,7 Z M19,16 L5,16 L5,17 L19,17 L19,16 Z M17.22,14 L6.78,14 L6.72411079,14.0920991 L6.72411079,14.0920991 L6.63094752,14.2325073 C6.48021866,14.4494169 6.22873178,14.7652187 5.93992711,14.9410787 L5.83,15 L18.17,15 C17.9471429,14.8971429 17.7408163,14.6987755 17.5777843,14.505656 L17.4301749,14.3180175 L17.4301749,14.3180175 L17.3173761,14.1562682 L17.3173761,14.1562682 L17.22,14 Z M12,8 C9.87,8 8.06,9.47 7.33,11.52 L7.29597222,11.6261574 L7.29597222,11.6261574 L7.24777778,11.7925926 L7.24777778,11.7925926 L7.19125,12.01625 C7.18145833,12.058125 7.1715625,12.1022569 7.16168403,12.1485822 L7.10359375,12.4523437 C7.08494792,12.5620312 7.06734375,12.6799826 7.05175347,12.8056887 L7.03,13 L16.97,13 C16.95,12.8 16.924375,12.616875 16.8964063,12.4523437 L16.838316,12.1485822 L16.838316,12.1485822 L16.779809,11.8974595 C16.7703472,11.860162 16.7611111,11.8251852 16.7522222,11.7925926 L16.7040278,11.6261574 L16.7040278,11.6261574 L16.67,11.52 L16.67,11.52 C15.94,9.47 14.13,8 12,8 Z M14,5 L14,6 L10,6 L10,5 L14,5 Z"/>
</svg>
