<svg xmlns="http://www.w3.org/2000/svg" width="24" height="24" viewBox="0 0 24 24">
  <path d="M8,2 C10.209139,2 12,3.790861 12,6 C12,7.06086596 11.5785726,8.07828161 10.8284271,8.82842712 C10.7054866,8.95136764 10.5753673,9.06547893 10.4390546,9.17035288 C12.0184638,9.55070129 13.3947286,10.5644999 14.2230747,11.9997036 L20.62,12 C21.382153,12 22,12.617847 22,13.38 L22,19.62 C22,19.9859988 21.8546076,20.3370072 21.5958074,20.5958074 C21.3370072,20.8546076 20.9859988,21 20.62,21 L7.5,21 C7.22385763,21 7,20.7761424 7,20.5 C7,20.2238576 7.22385763,20 7.5,20 L10,20 L10,17 L2.5,17 C1.67157288,17 1,16.3284271 1,15.5 L1,15 C1,12.1804788 2.94480147,9.81514597 5.56613044,9.17235094 C4.61367563,8.44304364 4,7.29318763 4,6 C4,3.790861 5.790861,2 8,2 Z M20.62,13 L11.38,13 C11.1701318,13 11,13.1701318 11,13.38 L11,20 L20.62,20 C20.8298682,20 21,19.8298682 21,19.62 L21,13.38 C21,13.1701318 20.8298682,13 20.62,13 Z M9,10 L7,10 C4.23857625,10 2,12.2385763 2,15 L2,15.46 C2,15.7361424 2.22385763,15.96 2.5,15.96 L10,15.96 L10,13.38 C10,13.0140012 10.1453924,12.6629928 10.4041926,12.4041926 C10.6629928,12.1453924 11.0140012,12 11.38,12 L13.0249503,11.9996848 C12.0857192,10.7471554 10.5987158,9.99201916 9,10 Z M8,3 C6.34314575,3 5,4.34314575 5,6 C5,7.64710409 6.32738414,8.98418101 7.97078233,8.99986067 L8.17627279,8.99490731 C9.75108004,8.90366088 11,7.59768088 11,6 C11,4.34314575 9.65685425,3 8,3 Z"/>
</svg>
