<svg xmlns="http://www.w3.org/2000/svg" width="24" height="24" viewBox="0 0 24 24">
  <path d="M7,5 L7,9 L8,9 L8,5 L9,5 L9,9 L10,9 L10,5 L11,5 L11,10.5 C11,11.6495238 10.2199546,12.6203628 9.16088975,12.9106274 L9,12.949 L9,19 L8,19 L8,12.949 C6.91428571,12.7280476 6.08253968,11.8014263 6.00578771,10.6710257 L6,10.5 L6,5 L7,5 Z M10,10 L7,10 L7,10.5 C7,11.329 7.671,12 8.5,12 C9.329,12 10,11.329 10,10.5 L10,10.5 L10,10 Z M18,5 L18,19 L17,19 L17,15 L13,15 L13,9 C13,6.86084848 14.6869201,5.1091056 16.800628,5.00490369 L17,5 L18,5 Z M17,6 C15.4021786,6 14.0963291,7.24878444 14.0050922,8.82371269 L14,9 L14,14 L17,14 L17,6 Z"/>
</svg>
