<svg xmlns="http://www.w3.org/2000/svg" width="24" height="24" viewBox="0 0 24 24">
  <path d="M16.6460848,17.69 C16.4560848,17.89 16.2160848,18 15.9660848,18 L7.99608475,18 C7.74608475,18 7.50608475,17.89 7.32608475,17.69 C7.09608475,17.45 6.98608475,17.11 6.99608475,16.76 L8.29608475,7 L9.96608475,7 L9.96608475,9 L10.9660848,9 L10.9660848,7 L12.9660848,7 L12.9660848,8.3 L12.9660848,9 L13.9660848,9 L13.9660848,7 L15.7160848,7 L16.9660848,16.76 C16.9860848,17.11 16.8660848,17.45 16.6460848,17.69 L16.6460848,17.69 Z M10.6660848,5 C10.6660848,4.28 11.2460848,3.7 11.9660848,3.7 C12.6860848,3.7 13.2660848,4.28 13.2660848,5 L13.2660848,6 L10.6660848,6 L10.6660848,5 Z M16.5860848,6 L13.9660848,6 L13.9660848,5 C13.9660848,3.9 13.0660848,3 11.9660848,3 C10.8660848,3 9.96608475,3.9 9.96608475,5 L9.96608475,6 L7.42608475,6 L6.00608475,16.67 C5.91608475,17.93 6.83608475,19 7.99608475,19 L15.9660848,19 C17.1260848,19 18.0460848,17.93 17.9560848,16.67 L16.5860848,6 Z"/>
</svg>
