<svg xmlns="http://www.w3.org/2000/svg" width="24" height="24" viewBox="0 0 24 24">
  <path d="M14.06475,12.06475 L12.06475,12.06475 L12.06475,14.06475 L11.06475,14.06475 L11.06475,12.06475 L9.06475,12.06475 L9.06475,11.06475 L11.06475,11.06475 L11.06475,9.06475 L12.06475,9.06475 L12.06475,11.06475 L14.06475,11.06475 L14.06475,12.06475 Z M16.56575,14.94875 C18.16475,12.59275 17.92675,9.36175 15.83775,7.27375 C13.47275,4.90875 9.63875,4.90875 7.27375,7.27375 C4.90875,9.63875 4.90875,13.47375 7.27375,15.83875 C9.42575,17.99175 12.78475,18.16275 15.15675,16.39675 L18.15475,19.07575 L19.49975,17.56975 L16.56575,14.94875 Z"/>
</svg>
