<svg xmlns="http://www.w3.org/2000/svg" width="24" height="24" viewBox="0 0 24 24">
  <path d="M11.493,17.241 C8.32400005,17.241 5.74500005,14.662 5.74500005,11.493 C5.74500005,8.32400005 8.32400005,5.74500005 11.493,5.74500005 C14.662,5.74500005 17.241,8.32400005 17.241,11.493 C17.241,14.662 14.662,17.241 11.493,17.241 L11.493,17.241 Z M16.669,15.918 C17.735,14.698 18.286,13.19 18.286,11.493 C18.286,7.74100005 15.245,4.70000005 11.493,4.70000005 C7.74100005,4.70000005 4.70000005,7.74100005 4.70000005,11.493 C4.70000005,15.244 7.74100005,18.286 11.493,18.286 C13.181,18.286 14.757,17.77 15.981,16.72 L18.962,19.7 L19.7,18.961 L16.669,15.918 Z M9.02300005,12.024 L14.023,12.024 L14.023,11.024 L9.02300005,11.024 L9.02300005,12.024 Z"/>
</svg>
